<svg fill="none" stroke-linecap="square" stroke-miterlimit="10" width="531" height="377" xmlns="http://www.w3.org/2000/svg"><path fill="#fff" d="M0 0h531v377H0V0Z"/><path fill="#fce5cd" d="M263.641 71.5a142 142 0 0 1 135.05 185.88l-135.05-43.88Z"/><path fill="#e69138" d="M140.666 142.5c25.366-43.935 72.244-71 122.975-71v142Z"/><path fill="#f6b26b" d="M398.691 257.38c-16.776 51.634-61.525 89.182-115.287 96.738-53.762 7.556-107.127-16.204-137.486-61.213-30.359-45.008-32.398-103.388-5.252-150.405l122.975 71Z"/><path fill="#1a1a1a" d="M25.307 88.689h-3.375v3.484h-1.75v-8.531h5.547v1.422h-3.797v2.203h3.375v1.422Zm5.438 3.484q-.125-.234-.172-.562-.61.687-1.594.687-.937 0-1.547-.547-.609-.547-.609-1.36 0-1.015.734-1.546.75-.547 2.172-.547h.766v-.36q0-.437-.219-.702-.219-.266-.719-.266-.421 0-.671.203-.235.203-.235.563h-1.687q0-.547.328-1.016.343-.469.968-.734.625-.266 1.391-.266 1.172 0 1.86.594.687.578.687 1.64v2.75q.016.907.25 1.375v.094h-1.703Zm-1.406-1.172q.375 0 .687-.172.328-.171.469-.453v-1.093h-.625q-1.266 0-1.36.89v.094q0 .312.22.531.218.203.609.203Zm5.312-5.172.063.72q.671-.829 1.812-.829 1.234 0 1.688.969.671-.969 1.906-.969 1.031 0 1.531.61.5.593.5 1.796v4.047h-1.687v-4.047q0-.531-.22-.781-.202-.25-.75-.25-.75 0-1.046.719v4.36H36.76v-4.032q0-.563-.218-.797-.219-.25-.735-.25-.718 0-1.047.594v4.484h-1.687V85.83h1.578ZM45.98 92.3q-1.39 0-2.265-.86-.875-.86-.875-2.281v-.172q0-.953.359-1.703.375-.75 1.047-1.157.687-.406 1.547-.406 1.312 0 2.047.828.75.813.75 2.313v.687h-4.032q.078.625.485 1 .422.375 1.062.375.969 0 1.516-.703l.844.922q-.391.547-1.047.86-.64.296-1.438.296Zm-.187-5.22q-.5 0-.813.344-.312.344-.406.969h2.36v-.125q-.016-.563-.313-.875-.281-.313-.828-.313Z"/><path fill="#9e9e9e" d="M24.104 110.173h-1.687v-6.531l-2.016.625v-1.375l3.531-1.266h.172v8.547Zm7.485-8.625v1.406h-.157q-1.156.016-1.859.594-.688.578-.828 1.61.672-.688 1.703-.688 1.125 0 1.781.797.656.797.656 2.094 0 .828-.359 1.5-.36.672-1.031 1.062-.656.375-1.485.375-1.343 0-2.171-.937-.828-.953-.828-2.516v-.61q0-1.39.515-2.452.531-1.063 1.5-1.641.985-.578 2.281-.594h.282Zm-1.657 4.281q-.406 0-.75.22-.328.202-.484.562v.515q0 .844.328 1.328.344.47.953.47.547 0 .875-.423.344-.437.344-1.125 0-.703-.344-1.125-.343-.422-.922-.422Zm4.22 3.516q0-.406.265-.656.281-.25.687-.25.422 0 .688.25.281.25.281.656 0 .39-.281.64-.266.25-.688.25-.406 0-.687-.25-.266-.25-.266-.64Zm8.64-6.75-3.297 7.578h-1.781l3.296-7.156h-4.234v-1.375h6.016v.953Zm1.187.688q0-.782.5-1.266.516-.5 1.344-.5.828 0 1.344.484.515.485.515 1.313v.422q0 .78-.515 1.265-.516.485-1.328.485-.844 0-1.36-.485-.5-.484-.5-1.297v-.421Zm1.125.453q0 .343.203.562.203.219.532.219.328 0 .515-.219.188-.219.188-.578v-.437q0-.36-.188-.563-.187-.219-.531-.219-.328 0-.531.219-.188.203-.188.578v.438Zm2.953 4.343q0-.796.516-1.265.516-.485 1.328-.485.828 0 1.344.485.515.469.515 1.297v.422q0 .796-.5 1.28-.5.485-1.343.485-.844 0-1.36-.484-.5-.5-.5-1.297v-.438Zm1.125.454q0 .328.203.562.22.219.532.219.718 0 .718-.781v-.454q0-.343-.203-.562-.203-.219-.53-.219-.329 0-.532.219-.188.219-.188.578v.438Zm-3.015 1-.828-.438 4.171-6.672.829.438-4.172 6.672Z"/><path stroke="#757575" stroke-linecap="butt" d="M19.417 96.673H196.19"/><path fill="#9e9e9e" d="M198.191 96.673a2 2 0 1 0-4 0 2 2 0 0 0 4 0"/><path fill="#1a1a1a" d="M26.87 329.394q-.094 1.375-1.016 2.171-.906.797-2.406.797-1.64 0-2.594-1.11-.937-1.108-.937-3.03v-.532q0-1.218.437-2.156.438-.937 1.235-1.437.812-.516 1.875-.516 1.484 0 2.375.797.906.797 1.047 2.219h-1.75q-.063-.828-.47-1.188-.39-.375-1.202-.375-.875 0-1.313.625-.437.625-.453 1.953v.64q0 1.392.422 2.032.422.64 1.328.64.813 0 1.203-.374.406-.375.469-1.156h1.75Zm5 2.203q-.625.765-1.735.765-1.03 0-1.562-.593-.531-.594-.547-1.72v-4.155h1.688v4.093q0 1 .906 1 .86 0 1.187-.61v-4.483h1.703v6.343h-1.593l-.047-.64Zm4.984.64h-1.703v-9h1.703v9Zm3.235-7.906v1.563h1.093v1.25H40.09v3.156q0 .36.14.515.14.141.516.141.281 0 .5-.031v1.281q-.5.156-1.031.156-1.782 0-1.813-1.812v-3.406h-.922v-1.25h.922v-1.563h1.688Zm5.78 7.266q-.624.765-1.734.765-1.03 0-1.562-.593-.531-.594-.547-1.72v-4.155h1.688v4.093q0 1 .906 1 .86 0 1.187-.61v-4.483h1.703v6.343h-1.593l-.047-.64Zm6.766-4.11q-.343-.047-.609-.047-.969 0-1.266.641v4.156h-1.687v-6.343h1.594l.047.765q.515-.875 1.406-.875.281 0 .531.078l-.016 1.625Zm4.11 4.75q-.125-.234-.172-.562-.61.687-1.594.687-.937 0-1.547-.547-.609-.546-.609-1.359 0-1.016.734-1.547.75-.547 2.172-.547h.766v-.36q0-.437-.219-.702-.219-.266-.719-.266-.422 0-.672.203-.234.203-.234.563h-1.687q0-.547.328-1.016.343-.469.968-.734.625-.266 1.391-.266 1.172 0 1.86.594.687.578.687 1.64v2.75q.016.907.25 1.376v.093h-1.703Zm-1.406-1.172q.375 0 .687-.171.328-.172.469-.454v-1.093h-.625q-1.266 0-1.36.89v.094q0 .313.22.531.218.203.609.203Zm5.515 1.172h-1.703v-9h1.703v9Z"/><path fill="#9e9e9e" d="m20.245 346.034.5-4.328h4.781v1.406h-3.39l-.22 1.844q.61-.328 1.282-.328 1.219 0 1.906.766.703.75.703 2.109 0 .828-.359 1.484-.344.64-1 1.016-.64.36-1.531.36-.766 0-1.438-.313-.656-.328-1.047-.89-.375-.563-.406-1.298h1.688q.047.532.359.828.328.297.844.297.578 0 .875-.406.312-.422.312-1.172 0-.734-.36-1.11-.343-.39-1-.39-.608 0-.983.313l-.157.156-1.36-.344Zm8.469-.812h.906q.64 0 .953-.313.313-.328.313-.86 0-.515-.313-.796-.297-.297-.844-.297-.484 0-.812.266-.328.265-.328.687H26.9q0-.656.36-1.187.359-.532 1-.828.656-.313 1.437-.313 1.344 0 2.11.656.78.64.78 1.782 0 .593-.359 1.093-.36.485-.937.735.718.265 1.062.78.36.517.36 1.22 0 1.14-.828 1.828-.829.687-2.188.687-1.281 0-2.094-.672-.812-.687-.812-1.796h1.687q0 .484.36.796.375.297.89.297.61 0 .953-.312.344-.328.344-.86 0-1.265-1.406-1.265h-.906v-1.328Zm5.437 4.187q0-.406.266-.656.281-.25.687-.25.422 0 .688.25.281.25.281.656 0 .39-.281.64-.266.25-.688.25-.406 0-.687-.25-.266-.25-.266-.64Zm4.563-4.187h.906q.64 0 .953-.313.312-.328.312-.86 0-.515-.312-.796-.297-.297-.844-.297-.484 0-.812.266-.328.265-.328.687H36.9q0-.656.36-1.187.359-.532 1-.828.656-.313 1.437-.313 1.344 0 2.11.656.78.64.78 1.782 0 .593-.359 1.093-.36.485-.937.735.718.265 1.062.78.36.517.36 1.22 0 1.14-.829 1.828-.828.687-2.187.687-1.281 0-2.094-.672-.812-.687-.812-1.796h1.687q0 .484.36.796.375.297.89.297.61 0 .953-.312.344-.328.344-.86 0-1.265-1.406-1.265h-.906v-1.328Zm5.265-1.875q0-.782.5-1.266.516-.5 1.344-.5.828 0 1.344.484.515.485.515 1.313v.422q0 .781-.515 1.265-.516.485-1.328.485-.844 0-1.36-.485-.5-.484-.5-1.296v-.422Zm1.125.453q0 .344.203.562.203.219.532.219.328 0 .515-.219.188-.218.188-.578v-.437q0-.36-.188-.563-.187-.219-.531-.219-.328 0-.531.22-.188.202-.188.577v.438Zm2.953 4.344q0-.797.516-1.266.516-.484 1.328-.484.828 0 1.344.484.515.469.515 1.297v.422q0 .797-.5 1.28-.5.485-1.343.485-.844 0-1.36-.484-.5-.5-.5-1.297v-.437Zm1.125.453q0 .328.203.562.22.219.532.219.718 0 .718-.781v-.453q0-.344-.203-.563-.203-.219-.53-.219-.329 0-.532.219-.188.219-.188.578v.438Zm-3.015 1-.828-.438 4.171-6.672.829.438-4.172 6.672Z"/><path stroke="#757575" stroke-linecap="butt" d="M19.417 336.737h189.356"/><path fill="#9e9e9e" d="M210.773 336.737a2 2 0 1 0-4 0 2 2 0 0 0 4 0"/><path fill="#1a1a1a" d="m473.928 121.177 2.188 6.187 2.187-6.187h2.297v8.53h-1.765v-2.327l.187-4.032-2.312 6.36h-1.203l-2.297-6.36.172 4.032v2.328h-1.75v-8.531h2.296Zm8.329 5.296q0-.937.359-1.671.36-.75 1.047-1.141.687-.406 1.578-.406 1.297 0 2.094.78.812.782.906 2.126l.016.437q0 1.47-.813 2.36-.813.875-2.188.875-1.374 0-2.187-.875-.813-.89-.813-2.406v-.079Zm1.687.125q0 .907.344 1.391.344.469.969.469t.968-.469q.344-.469.344-1.516 0-.875-.344-1.359-.344-.5-.984-.5-.61 0-.953.484-.344.485-.344 1.5Zm7.125-3.234.063.734q.671-.843 1.812-.843 1.016 0 1.5.593.5.579.516 1.766v4.094h-1.703v-4.063q0-.531-.235-.765-.234-.25-.781-.25-.703 0-1.063.609v4.469h-1.703v-6.344h1.594Zm8.36 6.469q-1.391 0-2.266-.86-.875-.859-.875-2.28v-.173q0-.953.36-1.703.374-.75 1.046-1.156.688-.406 1.547-.406 1.312 0 2.047.828.75.812.75 2.312v.688h-4.031q.078.625.484 1 .422.375 1.062.375.97 0 1.516-.703l.844.922q-.39.546-1.047.859-.64.297-1.438.297Zm-.188-5.219q-.5 0-.813.344-.312.344-.406.969h2.36v-.125q-.016-.563-.313-.875-.281-.313-.828-.313Zm5.64 2.703 1.172-3.953h1.813l-2.547 7.328-.14.328q-.563 1.25-1.876 1.25-.359 0-.75-.11v-1.28h.266q.484 0 .719-.157.234-.14.375-.468l.187-.532-2.219-6.359h1.829l1.172 3.953Z"/><path fill="#9e9e9e" d="M477.163 142.692h.906q.64 0 .953-.312.313-.328.313-.86 0-.515-.313-.797-.297-.296-.844-.296-.484 0-.812.265-.328.266-.328.688h-1.688q0-.657.36-1.188.359-.531 1-.828.656-.312 1.437-.312 1.344 0 2.11.656.78.64.78 1.781 0 .594-.359 1.094-.359.484-.937.734.719.266 1.062.781.36.516.36 1.22 0 1.14-.828 1.827-.828.688-2.188.688-1.281 0-2.094-.672-.812-.688-.812-1.797h1.687q0 .484.36.797.375.297.89.297.61 0 .954-.313.343-.328.343-.86 0-1.265-1.406-1.265h-.906v-1.328Zm11.031 1.485q0 1.765-.734 2.718-.735.938-2.141.938-1.406 0-2.14-.922-.735-.922-.75-2.64v-1.579q0-1.781.734-2.703.75-.937 2.14-.937 1.391 0 2.125.921.75.922.766 2.641v1.563Zm-1.703-1.72q0-1.062-.297-1.546-.281-.484-.89-.484-.594 0-.891.468-.281.453-.297 1.438v2.062q0 1.047.281 1.563.281.5.922.5.61 0 .89-.485.282-.484.282-1.484v-2.031Zm3.11 4.423q0-.407.265-.657.281-.25.687-.25.422 0 .688.25.281.25.281.657 0 .39-.281.64-.266.25-.688.25-.406 0-.687-.25-.266-.25-.266-.64Zm8.593-2.703q0 1.765-.734 2.718-.735.938-2.141.938-1.406 0-2.14-.922-.735-.922-.75-2.64v-1.579q0-1.781.734-2.703.75-.937 2.14-.937 1.391 0 2.125.921.75.922.766 2.641v1.563Zm-1.703-1.72q0-1.062-.297-1.546-.281-.484-.89-.484-.594 0-.891.468-.281.453-.297 1.438v2.062q0 1.047.281 1.563.281.5.922.5.61 0 .89-.485.282-.484.282-1.484v-2.031Zm2.937-1.64q0-.781.5-1.265.516-.5 1.344-.5.828 0 1.344.484.516.484.516 1.312v.422q0 .782-.516 1.266t-1.328.484q-.844 0-1.36-.484-.5-.484-.5-1.297v-.422Zm1.125.453q0 .344.204.563.203.219.53.219.329 0 .516-.22.188-.218.188-.577v-.438q0-.36-.188-.562-.187-.22-.53-.22-.329 0-.532.22-.188.203-.188.578v.437Zm2.954 4.344q0-.797.515-1.266.516-.484 1.328-.484.828 0 1.344.484.516.47.516 1.297v.422q0 .797-.5 1.281-.5.485-1.344.485-.844 0-1.36-.485-.5-.5-.5-1.296v-.438Zm1.125.453q0 .328.203.563.218.218.53.218.72 0 .72-.78v-.454q0-.344-.203-.562-.204-.22-.532-.22-.328 0-.531.22-.188.218-.188.578v.437Zm-3.016 1-.828-.437 4.172-6.672.828.437-4.172 6.672Z"/><path stroke="#757575" stroke-linecap="butt" d="M507.866 134.208H372.778"/><path fill="#9e9e9e" d="M374.778 134.208a2 2 0 1 0-4 0 2 2 0 0 0 4 0"/><path fill="#757575" d="m81.375 30.569 1.531-8.094h2.344L82.719 33.85h-2.36l-1.843-7.61-1.86 7.61h-2.36l-2.515-11.375h2.328l1.547 8.078 1.875-8.078h1.985l1.859 8.094Zm7.203-4.25q.89-1.078 2.25-1.078 2.75 0 2.797 3.187v5.422h-2.266v-5.36q0-.718-.312-1.062-.313-.36-1.031-.36-1 0-1.438.766v6.016h-2.266v-12h2.266v4.469Zm11.688 7.531q-.157-.313-.22-.766-.827.922-2.14.922-1.234 0-2.062-.718-.813-.72-.813-1.813 0-1.344 1-2.063 1-.718 2.875-.734h1.047v-.484q0-.578-.312-.922-.297-.36-.938-.36-.578 0-.906.282-.313.265-.313.734H95.22q0-.734.453-1.36.453-.624 1.281-.968.828-.36 1.86-.36 1.562 0 2.484.782.922.781.922 2.203v3.672q0 1.203.328 1.812v.141h-2.281Zm-1.86-1.578q.5 0 .922-.219.422-.219.625-.594v-1.453h-.844q-1.703 0-1.812 1.172v.125q0 .422.297.703.297.266.812.266Zm8.672-8.953v2.078h1.438v1.656h-1.438v4.219q0 .469.172.672.188.203.688.203.374 0 .671-.063v1.72q-.671.202-1.375.202-2.375 0-2.421-2.406v-4.547h-1.235v-1.656h1.234v-2.078h2.266Zm3.578-.328-.234 3.156H109V21.85h1.656v1.14Zm6.297 8.515q0-.406-.422-.64-.406-.25-1.312-.438-3.016-.625-3.016-2.562 0-1.125.938-1.875.937-.75 2.437-.75 1.61 0 2.578.765.969.75.969 1.953h-2.266q0-.484-.312-.797-.313-.312-.969-.312-.578 0-.89.266-.313.25-.313.64 0 .375.36.61.359.234 1.203.406.843.156 1.421.375 1.782.656 1.782 2.265 0 1.157-1 1.876-.985.718-2.547.718-1.063 0-1.89-.375-.829-.39-1.298-1.047-.469-.656-.469-1.422h2.141q.031.594.438.922.421.313 1.125.313.64 0 .968-.234.344-.25.344-.657Zm10.578-.86 1.563-5.25h2.422l-3.407 9.767-.187.453q-.75 1.656-2.5 1.656-.484 0-1-.156v-1.703h.344q.64 0 .953-.204.328-.187.5-.64l.265-.688-2.953-8.484h2.422l1.578 5.25Zm4.485-1.109q0-1.25.484-2.234t1.39-1.516q.923-.546 2.126-.546 1.703 0 2.78 1.046 1.095 1.047 1.22 2.844l.015.578q0 1.938-1.094 3.125-1.078 1.172-2.906 1.172t-2.922-1.172q-1.093-1.172-1.093-3.187v-.11Zm2.265.172q0 1.203.453 1.844.453.625 1.297.625.813 0 1.266-.625.469-.625.469-2.016 0-1.171-.47-1.812-.452-.656-1.28-.656-.828 0-1.282.64-.453.641-.453 2Zm12.156 3.282q-.843 1.015-2.312 1.015-1.36 0-2.078-.781-.719-.781-.734-2.297v-5.531h2.265v5.453q0 1.328 1.203 1.328 1.14 0 1.578-.797v-5.984h2.266v8.453H146.5l-.063-.86Zm8.688-5.485q-.469-.062-.813-.062-1.28 0-1.687.875v5.531h-2.25v-8.453h2.125l.063 1q.687-1.156 1.89-1.156.375 0 .703.093l-.031 2.172Zm12.86 2.188q0 1.953-.891 3.14-.89 1.172-2.39 1.172-1.282 0-2.079-.89V37.1h-2.25V25.397h2.094l.078.828q.812-.984 2.14-.984 1.563 0 2.422 1.156.875 1.156.875 3.187v.11Zm-2.266-.157q0-1.187-.422-1.828-.406-.64-1.203-.64-1.063 0-1.469.812v3.469q.422.828 1.484.828 1.61 0 1.61-2.64Zm8.406-2.03q-.469-.063-.813-.063-1.28 0-1.687.875v5.531h-2.25v-8.453h2.125l.063 1q.687-1.156 1.89-1.156.375 0 .703.093l-.031 2.172Zm3.625 6.343h-2.266v-8.453h2.266v8.453Zm-2.39-10.64q0-.516.327-.844.344-.329.938-.329.578 0 .922.329.344.328.344.843 0 .516-.36.844-.344.328-.922.328-.562 0-.906-.328t-.344-.844Zm6.124 2.187.078.937q.891-1.093 2.422-1.093 1.641 0 2.25 1.28.891-1.28 2.532-1.28 1.375 0 2.047.796.671.797.671 2.407v5.406h-2.265v-5.39q0-.72-.281-1.048-.282-.343-.985-.343-1.016 0-1.406.968v5.813h-2.25v-5.39q0-.735-.297-1.063-.281-.328-.984-.328-.953 0-1.391.797v5.984h-2.25v-8.453h2.11Zm16.782 8.453q-.157-.313-.22-.766-.827.922-2.14.922-1.234 0-2.062-.718-.813-.72-.813-1.813 0-1.344 1-2.063 1-.718 2.875-.734h1.047v-.484q0-.578-.312-.922-.297-.36-.938-.36-.578 0-.906.282-.313.265-.313.734h-2.265q0-.734.453-1.36.453-.624 1.281-.968.828-.36 1.86-.36 1.562 0 2.484.782.922.781.922 2.203v3.672q0 1.203.328 1.812v.141h-2.281Zm-1.86-1.578q.5 0 .922-.219.422-.219.625-.594v-1.453h-.844q-1.703 0-1.812 1.172v.125q0 .422.297.703.297.266.812.266Zm10.719-4.766q-.469-.062-.813-.062-1.28 0-1.687.875v5.531h-2.25v-8.453h2.125l.063 1q.687-1.156 1.89-1.156.375 0 .703.093l-.031 2.172Zm4.406 3.14 1.563-5.25h2.422l-3.407 9.767-.187.453q-.75 1.656-2.5 1.656-.484 0-1-.156v-1.703h.344q.64 0 .953-.204.328-.187.5-.64l.265-.688-2.953-8.484h2.422l1.578 5.25Zm10.953-5.25.078.938q.891-1.093 2.422-1.093 1.641 0 2.25 1.28.891-1.28 2.532-1.28 1.375 0 2.047.796.671.797.671 2.407v5.406h-2.265v-5.39q0-.72-.281-1.048-.282-.343-.985-.343-1.016 0-1.406.968v5.813h-2.25v-5.39q0-.735-.297-1.063-.281-.328-.984-.328-.953 0-1.391.797v5.984h-2.25v-8.453h2.11Zm11.532 4.141q0-1.25.484-2.234t1.39-1.516q.923-.546 2.126-.546 1.703 0 2.78 1.046 1.095 1.047 1.22 2.844l.015.578q0 1.938-1.094 3.125-1.078 1.172-2.906 1.172t-2.922-1.172q-1.093-1.172-1.093-3.187v-.11Zm2.265.172q0 1.203.453 1.844.453.625 1.297.625.813 0 1.266-.625.469-.625.469-2.016 0-1.171-.47-1.812-.452-.656-1.28-.656-.828 0-1.282.64-.453.641-.453 2Zm9.797-6.39v2.078h1.438v1.656h-1.438v4.219q0 .469.172.672.188.203.688.203.375 0 .671-.063v1.72q-.672.202-1.375.202-2.375 0-2.422-2.406v-4.547h-1.234v-1.656h1.234v-2.078h2.266Zm4.672 10.531h-2.266v-8.453h2.266v8.453Zm-2.39-10.64q0-.516.327-.844.344-.329.938-.329.578 0 .922.329.344.328.344.843 0 .516-.36.844-.344.328-.922.328-.562 0-.906-.328t-.344-.844Zm7.171 7.874 1.578-5.687h2.36l-2.86 8.453h-2.156l-2.844-8.453h2.36l1.562 5.687Zm9.735 2.766q-.157-.313-.22-.766-.827.922-2.14.922-1.234 0-2.062-.718-.813-.72-.813-1.813 0-1.344 1-2.063 1-.718 2.875-.734h1.047v-.484q0-.578-.312-.922-.297-.36-.938-.36-.578 0-.906.282-.313.265-.313.734h-2.265q0-.734.453-1.36.453-.624 1.281-.968.828-.36 1.86-.36 1.562 0 2.484.782.922.781.922 2.203v3.672q0 1.203.328 1.812v.141h-2.281Zm-1.86-1.578q.5 0 .922-.219.422-.219.625-.594v-1.453h-.844q-1.703 0-1.812 1.172v.125q0 .422.297.703.297.266.812.266Zm8.672-8.953v2.078h1.438v1.656h-1.438v4.219q0 .469.172.672.188.203.688.203.375 0 .671-.063v1.72q-.671.202-1.375.202-2.375 0-2.421-2.406v-4.547h-1.235v-1.656h1.235v-2.078h2.265Zm4.672 10.531h-2.266v-8.453h2.266v8.453Zm-2.39-10.64q0-.516.327-.844.344-.329.938-.329.578 0 .922.329.344.328.344.843 0 .516-.36.844-.344.328-.922.328-.562 0-.906-.328t-.344-.844Zm3.656 6.327q0-1.25.484-2.234t1.39-1.516q.923-.546 2.126-.546 1.703 0 2.78 1.046 1.095 1.047 1.22 2.844l.015.578q0 1.938-1.094 3.125-1.078 1.172-2.906 1.172t-2.922-1.172q-1.093-1.172-1.093-3.187v-.11Zm2.265.172q0 1.203.453 1.844.454.625 1.297.625.813 0 1.266-.625.469-.625.469-2.016 0-1.171-.47-1.812-.452-.656-1.28-.656-.829 0-1.282.64-.453.641-.453 2Zm9.172-4.312.063.969q.906-1.125 2.437-1.125 1.344 0 2 .796.656.782.672 2.344v5.469h-2.266v-5.406q0-.719-.312-1.047-.313-.328-1.031-.328-.954 0-1.438.812v5.969h-2.25v-8.453h2.125Zm11.531 8.453v-6.797h-1.25v-1.656h1.25v-.719q0-1.422.813-2.203.828-.797 2.297-.797.469 0 1.14.156l-.015 1.75q-.281-.062-.688-.062-1.281 0-1.281 1.187v.688h1.688v1.656h-1.688v6.797h-2.266Zm5.032-4.313q0-1.25.484-2.234t1.39-1.516q.923-.546 2.126-.546 1.703 0 2.78 1.046 1.095 1.047 1.22 2.844l.015.578q0 1.938-1.094 3.125-1.078 1.172-2.906 1.172t-2.922-1.172q-1.093-1.172-1.093-3.187v-.11Zm2.265.172q0 1.203.453 1.844.454.625 1.297.625.813 0 1.266-.625.469-.625.469-2.016 0-1.171-.47-1.812-.452-.656-1.28-.656-.829 0-1.282.64-.453.641-.453 2Zm11.844-2.203q-.469-.062-.813-.062-1.28 0-1.687.875v5.531h-2.25v-8.453h2.125l.063 1q.687-1.156 1.89-1.156.375 0 .703.093l-.031 2.172Zm8.766 4.672q.625 0 1.015-.344.39-.343.406-.906h2.11q0 .86-.469 1.578-.453.703-1.265 1.11-.797.39-1.766.39-1.813 0-2.86-1.156-1.046-1.156-1.046-3.188v-.14q0-1.953 1.03-3.11 1.048-1.171 2.86-1.171 1.594 0 2.547.906.953.89.969 2.39h-2.11q-.015-.656-.406-1.062-.39-.406-1.031-.406-.797 0-1.203.578-.39.562-.39 1.86v.234q0 1.296.39 1.875.406.562 1.219.562Zm9.234-4.672q-.469-.062-.813-.062-1.28 0-1.687.875v5.531h-2.25v-8.453h2.125l.063 1q.687-1.156 1.89-1.156.375 0 .703.093l-.031 2.172Zm5.14 6.5q-1.859 0-3.03-1.14-1.173-1.141-1.173-3.047V29.6q0-1.266.485-2.266.5-1.015 1.406-1.547.906-.546 2.063-.546 1.734 0 2.718 1.093 1 1.094 1 3.094v.922h-5.375q.11.828.657 1.328.546.5 1.39.5 1.313 0 2.047-.937l1.11 1.234q-.516.719-1.391 1.125-.86.406-1.906.406ZM343 27.07q-.672 0-1.094.453-.406.453-.531 1.297h3.14v-.188q-.015-.75-.406-1.156-.39-.406-1.109-.406Zm10.266 6.781q-.157-.313-.22-.766-.827.922-2.14.922-1.234 0-2.062-.718-.813-.72-.813-1.813 0-1.344 1-2.063 1-.718 2.875-.734h1.047v-.484q0-.578-.312-.922-.297-.36-.938-.36-.578 0-.906.282-.313.265-.313.734h-2.265q0-.734.453-1.36.453-.624 1.281-.968.828-.36 1.86-.36 1.562 0 2.484.782.922.781.922 2.203v3.672q0 1.203.328 1.812v.141h-2.281Zm-1.86-1.578q.5 0 .922-.219.422-.219.625-.594v-1.453h-.844q-1.703 0-1.812 1.172v.125q0 .422.297.703.297.266.812.266Zm8.672-8.953v2.078h1.438v1.656h-1.438v4.219q0 .469.172.672.188.203.688.203.375 0 .671-.063v1.72q-.671.202-1.375.202-2.375 0-2.421-2.406v-4.547h-1.235v-1.656h1.235v-2.078h2.265Zm4.672 10.531h-2.266v-8.453h2.266v8.453Zm-2.39-10.64q0-.516.327-.844.344-.329.938-.329.578 0 .922.329.344.328.344.843 0 .516-.36.844-.344.328-.922.328-.562 0-.906-.328t-.344-.844Zm6.093 2.187.063.969q.906-1.125 2.437-1.125 1.344 0 2 .796.656.782.672 2.344v5.469h-2.266v-5.406q0-.719-.312-1.047-.313-.328-1.031-.328-.954 0-1.438.812v5.969h-2.25v-8.453h2.125Zm6.594 4.156q0-1.937.922-3.125.922-1.187 2.5-1.187 1.39 0 2.156.953l.094-.797h2.047v8.172q0 1.11-.5 1.922-.5.828-1.422 1.25-.906.437-2.14.437-.923 0-1.813-.375-.875-.36-1.329-.953l1-1.375q.844.953 2.047.953.891 0 1.391-.484.5-.485.5-1.375v-.453q-.781.89-2.047.89-1.531 0-2.469-1.187-.937-1.203-.937-3.172v-.094Zm2.25.172q0 1.14.453 1.797.469.656 1.281.656 1.031 0 1.469-.781V27.85q-.453-.781-1.453-.781-.813 0-1.281.672-.47.656-.47 1.984Zm15.969 4.125q-.157-.313-.22-.766-.827.922-2.14.922-1.234 0-2.062-.718-.813-.72-.813-1.813 0-1.344 1-2.063 1-.718 2.875-.734h1.047v-.484q0-.578-.312-.922-.297-.36-.938-.36-.578 0-.906.282-.313.265-.313.734h-2.265q0-.734.453-1.36.453-.624 1.281-.968.828-.36 1.86-.36 1.562 0 2.484.782.922.781.922 2.203v3.672q0 1.203.328 1.812v.141h-2.281Zm-1.86-1.578q.5 0 .922-.219.422-.219.625-.594v-1.453h-.844q-1.703 0-1.812 1.172v.125q0 .422.297.703.297.266.812.266Zm10.719-4.766q-.469-.062-.813-.062-1.28 0-1.687.875v5.531h-2.25v-8.453h2.125l.063 1q.687-1.156 1.89-1.156.375 0 .703.093l-.031 2.172Zm3.953-4.187v2.078h1.438v1.656h-1.438v4.219q0 .469.172.672.188.203.688.203.375 0 .671-.063v1.72q-.671.202-1.375.202-2.375 0-2.421-2.406v-4.547h-1.235v-1.656h1.235v-2.078h2.265Zm9.64 7.453 1.11-5.375h2.188l-2.157 8.453h-1.89l-1.61-5.328-1.593 5.328h-1.891l-2.156-8.453h2.187L411 30.772l1.547-5.375h1.64l1.532 5.375Zm4.298-1.235q0-1.25.484-2.234t1.39-1.516q.923-.546 2.126-.546 1.703 0 2.78 1.046 1.095 1.047 1.22 2.844l.015.578q0 1.938-1.094 3.125-1.078 1.172-2.906 1.172t-2.922-1.172q-1.093-1.172-1.093-3.187v-.11Zm2.265.172q0 1.203.453 1.844.454.625 1.297.625.813 0 1.266-.625.469-.625.469-2.016 0-1.171-.47-1.812-.452-.656-1.28-.656-.829 0-1.282.64-.453.641-.453 2Zm11.844-2.203q-.469-.062-.813-.062-1.28 0-1.687.875v5.531h-2.25v-8.453h2.125l.063 1q.687-1.156 1.89-1.156.375 0 .703.093l-.031 2.172Zm4.313 2.953-.813.813v2.578h-2.25v-12h2.25v6.64l.438-.562 2.171-2.531h2.704l-3.047 3.515 3.312 4.938h-2.594l-2.171-3.39Zm10.515 1.047q0-.406-.422-.64-.406-.25-1.312-.438-3.016-.625-3.016-2.562 0-1.125.938-1.875.937-.75 2.437-.75 1.61 0 2.578.765.969.75.969 1.953h-2.266q0-.484-.312-.797-.313-.312-.969-.312-.578 0-.89.266-.313.25-.313.64 0 .375.36.61.359.234 1.202.406.844.156 1.422.375 1.782.656 1.782 2.265 0 1.157-1 1.876-.985.718-2.547.718-1.063 0-1.89-.375-.829-.39-1.298-1.047-.469-.656-.469-1.422h2.141q.031.594.438.922.421.313 1.125.313.64 0 .968-.234.344-.25.344-.657Zm5.266-1.156q0-1.094.265-1.734.266-.657.97-1.282.702-.625.937-1.015.234-.407.234-.844 0-1.313-1.219-1.313-.578 0-.922.36-.343.344-.359.969h-2.266q.016-1.485.954-2.329.953-.843 2.593-.843 1.656 0 2.563.797.922.796.922 2.265 0 .656-.297 1.25t-1.031 1.313l-.641.593q-.594.579-.672 1.344l-.031.469h-2Zm-.235 2.406q0-.531.36-.86.36-.343.906-.343.563 0 .906.344.36.328.36.86 0 .515-.344.859-.344.328-.922.328-.563 0-.922-.328-.344-.344-.344-.86Z"/></svg>