<svg fill="none" stroke-linecap="square" stroke-miterlimit="10" width="531" height="377" xmlns="http://www.w3.org/2000/svg"><path fill="#fff" d="M0 0h531v377H0V0Z"/><path fill="#fce5cd" d="M265.5 71.64c51.18 0 98.472 27.304 124.062 71.628L265.5 214.895Z"/><path fill="#f6b26b" d="M389.562 143.268c32.42 56.151 23.082 127.076-22.765 172.924-45.848 45.847-116.773 55.184-172.924 22.765-56.152-32.419-83.528-98.51-66.747-161.139C143.908 115.189 200.662 71.64 265.5 71.64v143.255Z"/><path fill="#1a1a1a" d="M24.12 328.254h-1.766l-3.422-5.609v5.61h-1.75v-8.532h1.75l3.438 5.625v-5.625h1.75v8.531Zm.687-3.234q0-.938.36-1.672.36-.75 1.047-1.14.687-.407 1.578-.407 1.297 0 2.093.781.813.782.907 2.125l.015.438q0 1.469-.812 2.36-.813.874-2.188.874-1.375 0-2.187-.875-.813-.89-.813-2.406v-.078Zm1.688.125q0 .906.344 1.39.343.47.968.47t.97-.47q.343-.468.343-1.515 0-.875-.344-1.36-.344-.5-.984-.5-.61 0-.953.485-.344.484-.344 1.5Z"/><path fill="#9e9e9e" d="M22.557 339.989q0 .625-.312 1.11-.313.468-.86.765.625.297.985.828.375.515.375 1.219 0 1.14-.781 1.812-.766.656-2.11.656-1.328 0-2.11-.656-.765-.672-.765-1.812 0-.704.36-1.235.359-.531.984-.812-.547-.297-.86-.766-.312-.484-.312-1.11 0-1.093.719-1.734.734-.656 1.984-.656t1.969.656q.734.641.734 1.735Zm-1.515 3.797q0-.547-.328-.875-.313-.344-.86-.344-.547 0-.875.328-.312.328-.312.89 0 .547.312.891.328.328.89.328.548 0 .86-.312.313-.328.313-.906Zm-.172-3.72q0-.5-.266-.796-.265-.297-.75-.297-.468 0-.734.297-.266.281-.266.797 0 .515.266.828.265.313.734.313.485 0 .75-.313.266-.313.266-.828Zm4.844 1.173h.906q.64 0 .953-.313.313-.328.313-.86 0-.515-.313-.796-.297-.297-.844-.297-.484 0-.812.266-.328.265-.328.687H23.9q0-.656.36-1.187.359-.531 1-.828.656-.313 1.437-.313 1.344 0 2.11.656.78.641.78 1.782 0 .593-.359 1.093-.36.485-.937.735.718.265 1.062.781.36.516.36 1.219 0 1.14-.828 1.828-.829.687-2.188.687-1.281 0-2.094-.672-.812-.687-.812-1.796h1.687q0 .484.36.796.375.297.89.297.61 0 .953-.312.344-.328.344-.86 0-1.265-1.406-1.265h-.906v-1.328Zm5.437 4.187q0-.406.266-.656.281-.25.687-.25.422 0 .688.25.281.25.281.656 0 .39-.281.64-.266.25-.688.25-.406 0-.687-.25-.266-.25-.266-.64Zm4.563-4.187h.906q.64 0 .953-.313.312-.328.312-.86 0-.515-.312-.796-.297-.297-.844-.297-.484 0-.812.266-.328.265-.328.687H33.9q0-.656.36-1.187.359-.531 1-.828.656-.313 1.437-.313 1.344 0 2.11.656.78.641.78 1.782 0 .593-.359 1.093-.36.485-.937.735.718.265 1.062.781.36.516.36 1.219 0 1.14-.829 1.828-.828.687-2.187.687-1.281 0-2.094-.672-.812-.687-.812-1.796h1.687q0 .484.36.796.375.297.89.297.61 0 .953-.312.344-.328.344-.86 0-1.265-1.406-1.265h-.906v-1.328Zm5.265-1.875q0-.781.5-1.266.516-.5 1.344-.5.828 0 1.344.484.515.485.515 1.313v.422q0 .781-.515 1.265-.516.485-1.328.485-.844 0-1.36-.485-.5-.484-.5-1.296v-.422Zm1.125.453q0 .344.203.562.203.22.532.22.328 0 .515-.22.188-.218.188-.578v-.437q0-.36-.188-.563-.187-.219-.531-.219-.328 0-.531.22-.188.202-.188.577v.438Zm2.953 4.344q0-.797.516-1.266.516-.484 1.328-.484.828 0 1.344.484.515.469.515 1.297v.422q0 .797-.5 1.281-.5.484-1.343.484-.844 0-1.36-.484-.5-.5-.5-1.297v-.437Zm1.125.453q0 .328.203.562.22.219.532.219.718 0 .718-.781v-.453q0-.344-.203-.563-.203-.219-.53-.219-.329 0-.532.22-.188.218-.188.577v.438Zm-3.015 1-.828-.438 4.171-6.672.829.438-4.172 6.672Z"/><path stroke="#757575" stroke-linecap="butt" d="M16.417 332.754h181.037"/><path fill="#9e9e9e" d="M199.454 332.754a2 2 0 1 0-4 0 2 2 0 0 0 4 0"/><path fill="#1a1a1a" d="m499.286 87.848 1.782-3.843h1.922l-2.813 5.437v3.094h-1.781v-3.094l-2.797-5.437h1.922l1.765 3.843Zm6.86 4.813q-1.39 0-2.266-.86-.875-.859-.875-2.28v-.173q0-.953.36-1.703.375-.75 1.046-1.156.688-.406 1.547-.406 1.313 0 2.047.828.75.812.75 2.312v.688h-4.031q.078.625.484 1 .422.375 1.063.375.969 0 1.515-.703l.844.922q-.39.546-1.047.859-.64.297-1.437.297Zm-.188-5.219q-.5 0-.812.344-.313.344-.406.969h2.359v-.125q-.016-.563-.313-.875-.28-.313-.828-.313Zm6.703 3.344q0-.313-.312-.485-.297-.187-.969-.328-2.265-.468-2.265-1.922 0-.843.687-1.406.703-.562 1.844-.562 1.203 0 1.922.562.734.563.734 1.485h-1.703q0-.375-.235-.61-.234-.234-.734-.234-.422 0-.656.203-.234.187-.234.484 0 .282.265.453.266.172.89.297.641.125 1.079.282 1.344.5 1.344 1.703 0 .875-.75 1.422-.735.53-1.922.53-.797 0-1.422-.28-.61-.297-.969-.782-.344-.5-.344-1.078h1.61q.015.453.328.703.312.235.828.235.5 0 .734-.188.25-.187.25-.484Z"/><path fill="#9e9e9e" d="M486.27 110.536h-1.687v-6.531l-2.015.625v-1.375l3.53-1.266h.173v8.547Zm7.485-8.625v1.406h-.156q-1.156.016-1.86.594-.687.578-.828 1.61.672-.688 1.704-.688 1.125 0 1.78.797.657.796.657 2.093 0 .828-.36 1.5-.359.672-1.03 1.063-.657.375-1.485.375-1.344 0-2.172-.938-.828-.953-.828-2.515v-.61q0-1.39.516-2.453.53-1.062 1.5-1.64.984-.579 2.28-.594h.282Zm-1.656 4.281q-.406 0-.75.219-.328.203-.484.562v.516q0 .844.328 1.328.343.469.953.469.547 0 .875-.422.344-.438.344-1.125 0-.703-.344-1.125-.344-.422-.922-.422Zm4.219 3.516q0-.407.265-.657.281-.25.688-.25.422 0 .687.25.281.25.281.657 0 .39-.28.64-.266.25-.688.25-.406 0-.688-.25-.265-.25-.265-.64Zm8.64-6.75-3.297 7.578h-1.78l3.296-7.156h-4.234v-1.375h6.015v.953Zm1.188.687q0-.781.5-1.265.515-.5 1.344-.5.828 0 1.343.484.516.484.516 1.312v.422q0 .782-.516 1.266-.515.484-1.328.484-.844 0-1.36-.484-.5-.484-.5-1.297v-.422Zm1.125.453q0 .344.203.563.203.219.531.219t.516-.22q.187-.218.187-.577v-.438q0-.36-.187-.562-.188-.22-.531-.22-.329 0-.532.22-.187.203-.187.578v.437Zm2.953 4.344q0-.797.516-1.266.515-.484 1.328-.484.828 0 1.343.484.516.47.516 1.297v.422q0 .797-.5 1.281-.5.485-1.344.485-.843 0-1.36-.485-.5-.5-.5-1.296v-.438Zm1.125.453q0 .328.203.563.219.218.531.218.719 0 .719-.78v-.454q0-.344-.203-.562-.203-.22-.531-.22t-.532.22q-.187.218-.187.578v.437Zm-3.016 1-.828-.437 4.172-6.672.828.437-4.172 6.672Z"/><path stroke="#757575" stroke-linecap="butt" d="M514.583 97.036H333.546"/><path fill="#9e9e9e" d="M335.546 97.036a2 2 0 1 0-4 0 2 2 0 0 0 4 0"/><path fill="#757575" d="M36.516 33.85V22.475h3.5q1.5 0 2.687.672 1.188.672 1.844 1.922.672 1.25.672 2.828v.531q0 1.578-.657 2.813-.656 1.234-1.843 1.922-1.188.671-2.672.687h-3.531Zm2.343-9.484v7.593H40q1.375 0 2.094-.89.734-.907.75-2.578v-.594q0-1.735-.719-2.625-.719-.906-2.11-.906H38.86Zm7.157 5.171q0-1.25.484-2.234t1.39-1.516q.922-.546 2.126-.546 1.703 0 2.78 1.046 1.095 1.047 1.22 2.844l.015.578q0 1.938-1.093 3.125-1.079 1.172-2.907 1.172t-2.922-1.172q-1.093-1.172-1.093-3.187v-.11Zm2.265.172q0 1.203.453 1.844.453.625 1.297.625.813 0 1.266-.625.469-.625.469-2.016 0-1.171-.47-1.812-.452-.656-1.28-.656-.828 0-1.282.64-.453.641-.453 2Zm14.25.938 1.563-5.25h2.422l-3.407 9.766-.187.453q-.75 1.656-2.5 1.656-.484 0-1-.156v-1.703h.344q.64 0 .953-.204.328-.187.5-.64l.265-.688-2.953-8.484h2.422l1.578 5.25Zm4.485-1.11q0-1.25.484-2.234t1.39-1.516q.922-.546 2.126-.546 1.703 0 2.78 1.046 1.095 1.047 1.22 2.844l.015.578q0 1.938-1.094 3.125-1.078 1.172-2.906 1.172t-2.922-1.172q-1.093-1.172-1.093-3.187v-.11Zm2.265.172q0 1.203.453 1.844.454.625 1.297.625.813 0 1.266-.625.469-.625.469-2.016 0-1.171-.47-1.812-.452-.656-1.28-.656-.829 0-1.282.64-.453.641-.453 2Zm12.156 3.282q-.843 1.015-2.312 1.015-1.36 0-2.078-.781-.719-.781-.734-2.297v-5.531h2.265v5.453q0 1.328 1.203 1.328 1.14 0 1.578-.797v-5.984h2.266v8.453H81.5l-.063-.86Zm8.547.859v-6.797h-1.25v-1.656h1.25v-.719q0-1.422.813-2.203.828-.797 2.297-.797.469 0 1.14.156l-.015 1.75q-.281-.062-.688-.062-1.281 0-1.281 1.187v.688h1.688v1.656H92.25v6.797h-2.266Zm9.282.156q-1.86 0-3.032-1.14-1.171-1.141-1.171-3.047V29.6q0-1.266.484-2.266.5-1.015 1.406-1.547.906-.546 2.063-.546 1.734 0 2.718 1.093 1 1.094 1 3.094v.922H97.36q.11.828.657 1.328.546.5 1.39.5 1.313 0 2.047-.937l1.11 1.234q-.516.719-1.391 1.125-.86.406-1.906.406ZM99 27.07q-.672 0-1.094.453-.406.453-.531 1.297h3.14v-.188q-.015-.75-.406-1.156-.39-.406-1.109-.406Zm9.266 6.937q-1.86 0-3.032-1.14-1.171-1.141-1.171-3.047V29.6q0-1.266.484-2.266.5-1.015 1.406-1.547.906-.546 2.063-.546 1.734 0 2.718 1.093 1 1.094 1 3.094v.922h-5.375q.11.828.657 1.328.546.5 1.39.5 1.313 0 2.047-.937l1.11 1.234q-.516.719-1.391 1.125-.86.406-1.906.406ZM108 27.07q-.672 0-1.094.453-.406.453-.531 1.297h3.14v-.188q-.015-.75-.406-1.156-.39-.406-1.109-.406Zm7.75 6.781h-2.266v-12h2.266v12Zm8.781-3.203 1.563-5.25h2.422l-3.407 9.766-.187.453q-.75 1.656-2.5 1.656-.484 0-1-.156v-1.703h.344q.64 0 .953-.204.328-.187.5-.64l.265-.688-2.953-8.484h2.422l1.578 5.25Zm4.485-1.11q0-1.25.484-2.234t1.39-1.516q.923-.546 2.126-.546 1.703 0 2.78 1.046 1.095 1.047 1.22 2.844l.015.578q0 1.938-1.094 3.125-1.078 1.172-2.906 1.172t-2.922-1.172q-1.093-1.172-1.093-3.187v-.11Zm2.265.172q0 1.203.453 1.844.453.625 1.297.625.813 0 1.266-.625.469-.625.469-2.016 0-1.171-.47-1.812-.452-.656-1.28-.656-.828 0-1.282.64-.453.641-.453 2Zm12.156 3.282q-.843 1.015-2.312 1.015-1.36 0-2.078-.781-.719-.781-.734-2.297v-5.531h2.265v5.453q0 1.328 1.203 1.328 1.14 0 1.578-.797v-5.984h2.266v8.453H143.5l-.063-.86Zm8.688-5.485q-.469-.062-.813-.062-1.28 0-1.687.875v5.531h-2.25v-8.453h2.125l.063 1q.687-1.156 1.89-1.156.375 0 .703.093l-.031 2.172Zm12.594 3.266 1.11-5.375h2.187l-2.157 8.453h-1.89l-1.61-5.328-1.593 5.328h-1.891l-2.156-8.453h2.187L160 30.772l1.547-5.375h1.64l1.532 5.375Zm4.297-1.235q0-1.25.484-2.234t1.39-1.516q.923-.546 2.126-.546 1.703 0 2.78 1.046 1.095 1.047 1.22 2.844l.015.578q0 1.938-1.094 3.125-1.078 1.172-2.906 1.172t-2.922-1.172q-1.093-1.172-1.093-3.187v-.11Zm2.265.172q0 1.203.453 1.844.453.625 1.297.625.813 0 1.266-.625.469-.625.469-2.016 0-1.171-.47-1.812-.452-.656-1.28-.656-.828 0-1.282.64-.453.641-.453 2Zm11.844-2.203q-.469-.062-.813-.062-1.28 0-1.687.875v5.531h-2.25v-8.453h2.125l.063 1q.687-1.156 1.89-1.156.375 0 .703.093l-.031 2.172Zm4.313 2.953-.813.813v2.578h-2.25v-12h2.25v6.64l.438-.562 2.171-2.531h2.703l-3.046 3.515 3.312 4.938h-2.594l-2.172-3.39Zm12.312 3.391h-2.266v-8.453h2.266v8.453Zm-2.39-10.64q0-.516.327-.844.344-.329.938-.329.578 0 .922.329.344.328.344.843 0 .516-.36.844-.344.328-.922.328-.562 0-.906-.328t-.344-.844Zm8.593 8.296q0-.406-.422-.64-.406-.25-1.312-.438-3.016-.625-3.016-2.562 0-1.125.938-1.875.937-.75 2.437-.75 1.61 0 2.578.765.969.75.969 1.953h-2.266q0-.484-.312-.797-.313-.312-.969-.312-.578 0-.89.266-.313.25-.313.64 0 .375.36.61.359.234 1.202.406.844.156 1.422.375 1.782.656 1.782 2.265 0 1.157-1 1.876-.985.718-2.547.718-1.063 0-1.89-.375-.829-.39-1.298-1.047-.469-.656-.469-1.422h2.141q.031.594.438.922.422.313 1.125.313.64 0 .968-.234.344-.25.344-.657Zm12.484 1.485q-.843 1.015-2.312 1.015-1.36 0-2.078-.781-.719-.781-.734-2.297v-5.531h2.265v5.453q0 1.328 1.203 1.328 1.14 0 1.578-.797v-5.984h2.266v8.453H218.5l-.063-.86Zm6.016-7.594.063.969q.906-1.125 2.437-1.125 1.344 0 2 .796.656.782.672 2.344v5.469h-2.266v-5.406q0-.719-.312-1.047-.313-.328-1.031-.328-.953 0-1.438.812v5.969h-2.25v-8.453h2.125Zm6.563 4.156q0-1.969.89-3.14.89-1.172 2.422-1.172 1.234 0 2.047.921V21.85h2.266v12h-2.047l-.11-.906q-.843 1.062-2.172 1.062-1.484 0-2.39-1.172-.906-1.187-.906-3.28Zm2.265.172q0 1.187.406 1.828.422.625 1.204.625 1.047 0 1.484-.89v-3.329q-.422-.89-1.469-.89-1.625 0-1.625 2.656Zm10.985 4.281q-1.86 0-3.032-1.14-1.172-1.141-1.172-3.047V29.6q0-1.266.485-2.266.5-1.015 1.406-1.547.906-.546 2.063-.546 1.734 0 2.718 1.093 1 1.094 1 3.094v.922h-5.375q.11.828.657 1.328.547.5 1.39.5 1.313 0 2.047-.937l1.11 1.234q-.516.719-1.391 1.125-.86.406-1.906.406ZM244 27.07q-.672 0-1.094.453-.406.453-.531 1.297h3.14v-.188q-.015-.75-.406-1.156-.39-.406-1.109-.406Zm10.125.437q-.469-.062-.813-.062-1.28 0-1.687.875v5.531h-2.25v-8.453h2.125l.063 1q.687-1.156 1.89-1.156.375 0 .703.093l-.031 2.172Zm5.828 4q0-.406-.422-.64-.406-.25-1.312-.438-3.016-.625-3.016-2.562 0-1.125.938-1.875.937-.75 2.437-.75 1.61 0 2.578.765.969.75.969 1.953h-2.266q0-.484-.312-.797-.313-.312-.969-.312-.578 0-.89.266-.313.25-.313.64 0 .375.36.61.359.234 1.202.406.844.156 1.422.375 1.782.656 1.782 2.265 0 1.157-1 1.876-.985.718-2.547.718-1.063 0-1.89-.375-.829-.39-1.298-1.047-.469-.656-.469-1.422h2.141q.031.594.438.922.421.313 1.125.313.64 0 .968-.234.344-.25.344-.657Zm6.125-8.187v2.078h1.438v1.656h-1.438v4.219q0 .469.172.672.188.203.688.203.375 0 .671-.063v1.72q-.671.202-1.375.202-2.375 0-2.421-2.406v-4.547h-1.235v-1.656h1.235v-2.078h2.265Zm1.938 6.218q0-1.25.484-2.234t1.39-1.516q.923-.546 2.126-.546 1.703 0 2.78 1.046 1.095 1.047 1.22 2.844l.015.578q0 1.938-1.094 3.125-1.078 1.172-2.906 1.172t-2.922-1.172q-1.093-1.172-1.093-3.187v-.11Zm2.265.172q0 1.203.453 1.844.454.625 1.297.625.813 0 1.266-.625.469-.625.469-2.016 0-1.171-.47-1.812-.452-.656-1.28-.656-.829 0-1.282.64-.453.641-.453 2Zm6.735-.172q0-1.25.484-2.234t1.39-1.516q.923-.546 2.126-.546 1.703 0 2.78 1.046 1.095 1.047 1.22 2.844l.015.578q0 1.938-1.094 3.125-1.078 1.172-2.906 1.172t-2.922-1.172q-1.093-1.172-1.093-3.187v-.11Zm2.265.172q0 1.203.453 1.844.454.625 1.297.625.813 0 1.266-.625.469-.625.469-2.016 0-1.171-.47-1.812-.452-.656-1.28-.656-.829 0-1.282.64-.453.641-.453 2Zm6.735-.156q0-1.969.89-3.14.89-1.172 2.422-1.172 1.235 0 2.047.921V21.85h2.266v12h-2.047l-.11-.906q-.843 1.062-2.171 1.062-1.485 0-2.391-1.172-.906-1.187-.906-3.28Zm2.265.172q0 1.187.406 1.828.422.625 1.204.625 1.046 0 1.484-.89v-3.329q-.422-.89-1.469-.89-1.625 0-1.625 2.656Zm18.703-.031q0 2.031-.875 3.172-.859 1.14-2.406 1.14-1.375 0-2.203-1.062l-.094.906h-2.031v-12h2.25v4.297q.781-.906 2.063-.906 1.546 0 2.421 1.14.875 1.125.875 3.188v.125Zm-2.25-.157q0-1.28-.406-1.875-.406-.593-1.219-.593-1.078 0-1.484.89v3.328q.422.891 1.5.891 1.094 0 1.438-1.078.171-.516.171-1.563Zm6.797 1.11 1.563-5.25h2.422l-3.407 9.766-.187.453q-.75 1.656-2.5 1.656-.485 0-1-.156v-1.703h.344q.64 0 .953-.204.328-.187.5-.64l.265-.688-2.953-8.484h2.422l1.578 5.25Zm18.235 3.203h-2.344l-4.563-7.484v7.484h-2.343V22.475h2.343l4.579 7.5v-7.5h2.328V33.85Zm1.25-4.313q0-1.25.484-2.234t1.39-1.516q.923-.546 2.126-.546 1.703 0 2.78 1.046 1.095 1.047 1.22 2.844l.015.578q0 1.938-1.094 3.125-1.078 1.172-2.906 1.172t-2.922-1.172q-1.093-1.172-1.093-3.187v-.11Zm2.265.172q0 1.203.453 1.844.454.625 1.297.625.813 0 1.266-.625.469-.625.469-2.016 0-1.171-.47-1.812-.452-.656-1.28-.656-.829 0-1.282.64-.453.641-.453 2Zm9.172-4.312.063.969q.906-1.125 2.437-1.125 1.344 0 2 .796.656.782.672 2.344v5.469h-2.266v-5.406q0-.719-.312-1.047-.313-.328-1.031-.328-.954 0-1.438.812v5.969h-2.25v-8.453h2.125Zm11.313 4.484h-4.407V28.07h4.407v1.812Zm4.25 3.969h-2.344V22.475h2.344V33.85Zm4.437-8.453.063.969q.906-1.125 2.437-1.125 1.344 0 2 .796.656.782.672 2.344v5.469h-2.266v-5.406q0-.719-.312-1.047-.313-.328-1.031-.328-.954 0-1.438.812v5.969h-2.25v-8.453h2.125Zm6.563 4.156q0-1.969.89-3.14.89-1.172 2.422-1.172 1.235 0 2.047.921V21.85h2.266v12h-2.047l-.11-.906q-.843 1.062-2.171 1.062-1.485 0-2.391-1.172-.906-1.187-.906-3.28Zm2.265.172q0 1.187.406 1.828.422.625 1.204.625 1.046 0 1.484-.89v-3.329q-.422-.89-1.469-.89-1.625 0-1.625 2.656Zm9.469 4.125h-2.266v-8.453h2.266v8.453Zm-2.39-10.64q0-.516.327-.844.344-.329.938-.329.578 0 .922.329.344.328.344.843 0 .516-.36.844-.344.328-.922.328-.562 0-.906-.328t-.344-.844Zm3.687 6.343q0-1.937.922-3.125.922-1.187 2.5-1.187 1.39 0 2.156.953l.094-.797h2.047v8.172q0 1.11-.5 1.922-.5.828-1.422 1.25-.906.437-2.14.437-.923 0-1.813-.375-.875-.36-1.329-.953l1-1.375q.844.953 2.047.953.891 0 1.391-.484.5-.485.5-1.375v-.453q-.781.89-2.047.89-1.531 0-2.469-1.187-.937-1.203-.937-3.172v-.094Zm2.25.172q0 1.14.453 1.797.469.656 1.281.656 1.031 0 1.469-.781V27.85q-.453-.781-1.453-.781-.813 0-1.281.672-.47.656-.47 1.984Zm10.969 4.281q-1.86 0-3.032-1.14-1.171-1.141-1.171-3.047V29.6q0-1.266.484-2.266.5-1.015 1.406-1.547.906-.546 2.063-.546 1.734 0 2.718 1.093 1 1.094 1 3.094v.922h-5.375q.11.828.657 1.328.546.5 1.39.5 1.313 0 2.047-.937l1.11 1.234q-.516.719-1.391 1.125-.86.406-1.906.406ZM395 27.07q-.672 0-1.094.453-.406.453-.531 1.297h3.14v-.188q-.015-.75-.406-1.156-.39-.406-1.109-.406Zm7.453-1.672.063.969q.906-1.125 2.437-1.125 1.344 0 2 .796.656.782.672 2.344v5.469h-2.266v-5.406q0-.719-.312-1.047-.313-.328-1.031-.328-.954 0-1.438.812v5.969h-2.25v-8.453h2.125Zm6.563 4.14q0-1.25.484-2.234t1.39-1.516q.923-.546 2.126-.546 1.703 0 2.78 1.046 1.095 1.047 1.22 2.844l.015.578q0 1.938-1.094 3.125-1.078 1.172-2.906 1.172t-2.922-1.172q-1.093-1.172-1.093-3.187v-.11Zm2.265.172q0 1.203.453 1.844.454.625 1.297.625.813 0 1.266-.625.469-.625.469-2.016 0-1.171-.47-1.812-.452-.656-1.28-.656-.829 0-1.282.64-.453.641-.453 2Zm12.156 3.282q-.843 1.015-2.312 1.015-1.36 0-2.078-.781-.719-.781-.735-2.297v-5.531h2.266v5.453q0 1.328 1.203 1.328 1.14 0 1.578-.797v-5.984h2.266v8.453H423.5l-.063-.86Zm8.516-1.485q0-.406-.422-.64-.406-.25-1.312-.438-3.016-.625-3.016-2.562 0-1.125.938-1.875.937-.75 2.437-.75 1.61 0 2.578.765.969.75.969 1.953h-2.266q0-.484-.312-.797-.313-.312-.969-.312-.578 0-.89.266-.313.25-.313.64 0 .375.36.61.359.234 1.202.406.844.156 1.422.375 1.782.656 1.782 2.265 0 1.157-1 1.876-.985.718-2.547.718-1.063 0-1.89-.375-.829-.39-1.298-1.047-.469-.656-.469-1.422h2.141q.031.594.438.922.421.313 1.125.313.64 0 .968-.234.344-.25.344-.657Zm15.031-1.812q0 1.953-.89 3.14-.89 1.172-2.39 1.172-1.282 0-2.079-.89V37.1h-2.25V25.397h2.094l.078.828q.812-.984 2.14-.984 1.563 0 2.422 1.156.875 1.156.875 3.187v.11Zm-2.265-.157q0-1.187-.422-1.828-.406-.64-1.203-.64-1.063 0-1.469.812v3.469q.422.828 1.484.828 1.61 0 1.61-2.64Zm7.547 4.47q-1.86 0-3.032-1.141-1.171-1.141-1.171-3.047V29.6q0-1.266.484-2.266.5-1.015 1.406-1.547.906-.546 2.063-.546 1.734 0 2.718 1.093 1 1.094 1 3.094v.922h-5.375q.11.828.657 1.328.546.5 1.39.5 1.313 0 2.047-.937l1.11 1.234q-.516.719-1.391 1.125-.86.406-1.906.406ZM452 27.068q-.672 0-1.094.453-.406.453-.531 1.297h3.14v-.188q-.015-.75-.406-1.156-.39-.406-1.109-.406Zm5.016 2.468q0-1.25.484-2.234t1.39-1.516q.923-.546 2.126-.546 1.703 0 2.78 1.046 1.095 1.047 1.22 2.844l.015.578q0 1.938-1.094 3.125-1.078 1.172-2.906 1.172t-2.922-1.172q-1.093-1.172-1.093-3.187v-.11Zm2.265.172q0 1.203.453 1.844.454.625 1.297.625.813 0 1.266-.625.469-.625.469-2.016 0-1.171-.47-1.812-.452-.656-1.28-.656-.829 0-1.282.64-.453.641-.453 2Zm14.703-.015q0 1.953-.89 3.14-.89 1.172-2.39 1.172-1.282 0-2.079-.89V37.1h-2.25V25.397h2.094l.078.828q.812-.984 2.14-.984 1.563 0 2.422 1.156.875 1.156.875 3.187v.11Zm-2.265-.157q0-1.187-.422-1.828-.406-.64-1.203-.64-1.063 0-1.469.812v3.469q.422.828 1.484.828 1.61 0 1.61-2.64Zm6.031 4.313h-2.266v-12h2.266v12Zm5.516.156q-1.86 0-3.032-1.14-1.171-1.141-1.171-3.047V29.6q0-1.266.484-2.266.5-1.015 1.406-1.547.906-.546 2.063-.546 1.734 0 2.718 1.093 1 1.094 1 3.094v.922h-5.375q.11.828.657 1.328.546.5 1.39.5 1.313 0 2.047-.937l1.11 1.234q-.516.719-1.391 1.125-.86.406-1.906.406ZM483 27.07q-.672 0-1.094.453-.406.453-.531 1.297h3.14v-.188q-.015-.75-.406-1.156-.39-.406-1.109-.406Zm7.219 3.281q0-1.094.265-1.734.266-.657.97-1.282.702-.625.937-1.015.234-.407.234-.844 0-1.313-1.219-1.313-.578 0-.922.36-.343.344-.359.969h-2.266q.016-1.485.954-2.329.953-.843 2.593-.843 1.656 0 2.563.797.922.796.922 2.265 0 .656-.297 1.25t-1.031 1.313l-.641.593q-.594.579-.672 1.344l-.031.469h-2Zm-.235 2.406q0-.531.36-.86.36-.343.906-.343.563 0 .906.344.36.328.36.86 0 .515-.344.859-.344.328-.922.328-.563 0-.922-.328-.344-.344-.344-.86Z"/></svg>