<svg width="3355" height="1370" fill="none" xmlns="http://www.w3.org/2000/svg"><path d="M1041.9 28.744v31.104c0 3.408.89 6.024 2.67 7.848 1.77 1.776 4.27 2.664 7.49 2.664 3.26 0 5.78-.888 7.56-2.664 1.77-1.824 2.66-4.44 2.66-7.848V28.744h10.15v31.032c0 4.272-.93 7.896-2.81 10.872-1.82 2.928-4.29 5.136-7.41 6.624-3.07 1.488-6.51 2.232-10.3 2.232-3.74 0-7.15-.744-10.22-2.232-3.03-1.488-5.43-3.696-7.2-6.624-1.78-2.976-2.67-6.6-2.67-10.872V28.744h10.08Zm55.54 50.904c-3.27 0-6.2-.576-8.79-1.728-2.59-1.2-4.65-2.808-6.19-4.824-1.49-2.016-2.3-4.248-2.45-6.696h10.15c.2 1.536.94 2.808 2.24 3.816 1.34 1.008 3 1.512 4.96 1.512 1.92 0 3.41-.384 4.47-1.152 1.1-.768 1.65-1.752 1.65-2.952 0-1.296-.67-2.256-2.01-2.88-1.3-.672-3.39-1.392-6.27-2.16-2.97-.72-5.42-1.464-7.34-2.232-1.87-.768-3.5-1.944-4.9-3.528-1.34-1.584-2.01-3.72-2.01-6.408 0-2.208.62-4.224 1.87-6.048 1.3-1.824 3.12-3.264 5.47-4.32 2.4-1.056 5.21-1.584 8.43-1.584 4.75 0 8.54 1.2 11.37 3.6 2.83 2.352 4.39 5.544 4.68 9.576h-9.65c-.14-1.584-.81-2.832-2.01-3.744-1.15-.96-2.71-1.44-4.68-1.44-1.83 0-3.24.336-4.25 1.008-.96.672-1.44 1.608-1.44 2.808 0 1.344.67 2.376 2.02 3.096 1.34.672 3.43 1.368 6.26 2.088 2.88.72 5.26 1.464 7.13 2.232 1.87.768 3.48 1.968 4.82 3.6 1.39 1.584 2.11 3.696 2.16 6.336 0 2.304-.65 4.368-1.94 6.192-1.25 1.824-3.07 3.264-5.47 4.32-2.36 1.008-5.12 1.512-8.28 1.512Zm61.05-21.456c0 1.44-.1 2.736-.29 3.888h-29.16c.24 2.88 1.25 5.136 3.02 6.768 1.78 1.632 3.96 2.448 6.55 2.448 3.75 0 6.41-1.608 8-4.824h10.87c-1.15 3.84-3.36 7.008-6.63 9.504-3.26 2.448-7.27 3.672-12.02 3.672-3.84 0-7.3-.84-10.37-2.52-3.02-1.728-5.4-4.152-7.13-7.272-1.68-3.12-2.52-6.72-2.52-10.8 0-4.128.84-7.752 2.52-10.872 1.68-3.12 4.04-5.52 7.06-7.2 3.02-1.68 6.5-2.52 10.44-2.52 3.79 0 7.18.816 10.15 2.448 3.03 1.632 5.35 3.96 6.99 6.984 1.68 2.976 2.52 6.408 2.52 10.296Zm-10.44-2.88c-.05-2.592-.99-4.656-2.81-6.192-1.83-1.584-4.06-2.376-6.7-2.376-2.49 0-4.61.768-6.33 2.304-1.68 1.488-2.72 3.576-3.1 6.264h18.94Zm27.87-10.008c1.3-2.112 2.98-3.768 5.04-4.968 2.12-1.2 4.52-1.8 7.2-1.8V49.12h-2.66c-3.17 0-5.57.744-7.2 2.232-1.58 1.488-2.38 4.08-2.38 7.776V79h-10.08V39.112h10.08v6.192Zm67.22-16.56v8.136h-20.95v12.888h16.05v7.992h-16.05V79h-10.08V28.744h31.03Zm17.23-3.024V79h-10.08V25.72h10.08Zm27.67 53.928c-3.84 0-7.3-.84-10.37-2.52-3.07-1.728-5.49-4.152-7.27-7.272-1.73-3.12-2.59-6.72-2.59-10.8 0-4.08.89-7.68 2.66-10.8 1.83-3.12 4.3-5.52 7.42-7.2 3.12-1.728 6.6-2.592 10.44-2.592s7.32.864 10.44 2.592c3.12 1.68 5.57 4.08 7.34 7.2 1.83 3.12 2.74 6.72 2.74 10.8 0 4.08-.94 7.68-2.81 10.8-1.82 3.12-4.32 5.544-7.49 7.272-3.12 1.68-6.62 2.52-10.51 2.52Zm0-8.784c1.82 0 3.53-.432 5.11-1.296 1.63-.912 2.93-2.256 3.89-4.032.96-1.776 1.44-3.936 1.44-6.48 0-3.792-1.01-6.696-3.02-8.712-1.97-2.064-4.4-3.096-7.28-3.096s-5.3 1.032-7.27 3.096c-1.92 2.016-2.88 4.92-2.88 8.712s.94 6.72 2.81 8.784c1.92 2.016 4.32 3.024 7.2 3.024Zm83.5-31.752L1359.87 79H1349l-7.27-27.864L1334.46 79h-10.95l-11.73-39.888H1322l7.06 30.384 7.63-30.384h10.66l7.48 30.312 7.06-30.312h9.65Zm9.92 40.392c-1.83 0-3.34-.552-4.54-1.656-1.15-1.152-1.73-2.568-1.73-4.248 0-1.68.58-3.072 1.73-4.176 1.2-1.152 2.71-1.728 4.54-1.728 1.77 0 3.24.576 4.39 1.728 1.15 1.104 1.73 2.496 1.73 4.176 0 1.68-.58 3.096-1.73 4.248-1.15 1.104-2.62 1.656-4.39 1.656Zm0-29.808c-1.83 0-3.34-.552-4.54-1.656-1.15-1.152-1.73-2.568-1.73-4.248 0-1.68.58-3.072 1.73-4.176 1.2-1.152 2.71-1.728 4.54-1.728 1.77 0 3.24.576 4.39 1.728 1.15 1.104 1.73 2.496 1.73 4.176 0 1.68-.58 3.096-1.73 4.248-1.15 1.104-2.62 1.656-4.39 1.656Zm86.39-20.952V79h-10.08V46.312L1444.31 79h-7.63l-13.54-32.688V79h-10.08V28.744h11.45l15.98 37.368 15.99-37.368h11.37Zm7.38 30.168c0-4.032.79-7.608 2.37-10.728 1.64-3.12 3.82-5.52 6.56-7.2 2.78-1.68 5.88-2.52 9.28-2.52 2.98 0 5.57.6 7.78 1.8 2.26 1.2 4.06 2.712 5.4 4.536v-5.688h10.15V79h-10.15v-5.832c-1.3 1.872-3.1 3.432-5.4 4.68-2.26 1.2-4.87 1.8-7.85 1.8-3.36 0-6.43-.864-9.21-2.592-2.74-1.728-4.92-4.152-6.56-7.272-1.58-3.168-2.37-6.792-2.37-10.872Zm31.39.144c0-2.448-.48-4.536-1.44-6.264-.96-1.776-2.26-3.12-3.89-4.032-1.63-.96-3.38-1.44-5.25-1.44-1.88 0-3.6.456-5.19 1.368-1.58.912-2.88 2.256-3.89 4.032-.96 1.728-1.44 3.792-1.44 6.192 0 2.4.48 4.512 1.44 6.336 1.01 1.776 2.31 3.144 3.89 4.104 1.63.96 3.36 1.44 5.19 1.44 1.87 0 3.62-.456 5.25-1.368 1.63-.96 2.93-2.304 3.89-4.032.96-1.776 1.44-3.888 1.44-6.336Zm31.73-11.664v19.296c0 1.344.31 2.328.94 2.952.67.576 1.77.864 3.31.864h4.68V79h-6.34c-8.49 0-12.74-4.128-12.74-12.384V47.392h-4.75v-8.28h4.75v-9.864h10.15v9.864h8.93v8.28h-8.93Zm27.92 0v19.296c0 1.344.31 2.328.93 2.952.67.576 1.78.864 3.31.864h4.68V79h-6.33c-8.5 0-12.75-4.128-12.75-12.384V47.392h-4.75v-8.28h4.75v-9.864h10.16v9.864h8.92v8.28h-8.92Zm38.64-8.856c3.02 0 5.71.672 8.06 2.016 2.35 1.296 4.18 3.24 5.47 5.832 1.35 2.544 2.02 5.616 2.02 9.216V79h-10.08V56.968c0-3.168-.79-5.592-2.38-7.272-1.58-1.728-3.74-2.592-6.48-2.592-2.78 0-4.99.864-6.62 2.592-1.58 1.68-2.38 4.104-2.38 7.272V79h-10.08V25.72h10.08v18.36c1.3-1.728 3.03-3.072 5.19-4.032 2.16-1.008 4.56-1.512 7.2-1.512Zm62.22 19.656c0 1.44-.1 2.736-.29 3.888h-29.16c.24 2.88 1.25 5.136 3.02 6.768 1.78 1.632 3.96 2.448 6.55 2.448 3.75 0 6.41-1.608 8-4.824h10.87c-1.15 3.84-3.36 7.008-6.63 9.504-3.26 2.448-7.27 3.672-12.02 3.672-3.84 0-7.3-.84-10.37-2.52-3.02-1.728-5.4-4.152-7.13-7.272-1.68-3.12-2.52-6.72-2.52-10.8 0-4.128.84-7.752 2.52-10.872 1.68-3.12 4.04-5.52 7.06-7.2 3.02-1.68 6.5-2.52 10.44-2.52 3.79 0 7.18.816 10.15 2.448 3.03 1.632 5.35 3.96 6.99 6.984 1.68 2.976 2.52 6.408 2.52 10.296Zm-10.44-2.88c-.05-2.592-.99-4.656-2.81-6.192-1.83-1.584-4.06-2.376-6.7-2.376-2.49 0-4.61.768-6.33 2.304-1.68 1.488-2.72 3.576-3.1 6.264h18.94Zm73.09-16.2L1718.12 79h-10.88l-7.27-27.864L1692.7 79h-10.94l-11.74-39.888h10.22l7.06 30.384 7.63-30.384h10.66l7.49 30.312 7.05-30.312h9.65Zm40.03 54.072c-4.65-4.512-8.28-10.272-10.87-17.28-2.54-7.008-3.81-14.52-3.81-22.536 0-8.208 1.34-15.912 4.03-23.112 2.69-7.248 6.6-13.176 11.73-17.784h10.16v.936c-5.28 5.04-9.32 11.088-12.1 18.144-2.74 7.056-4.1 14.328-4.1 21.816 0 7.296 1.29 14.352 3.88 21.168 2.64 6.768 6.39 12.648 11.24 17.64v1.008h-10.16Zm48.34-23.76h-20.01L1794.82 79h-10.58l18.07-50.328h11.74L1832.12 79h-10.66l-3.31-9.576Zm-2.73-8.064-7.28-21.024-7.27 21.024h14.55Zm33.53-16.056c1.3-2.112 2.98-3.768 5.04-4.968 2.12-1.2 4.52-1.8 7.2-1.8V49.12h-2.66c-3.17 0-5.57.744-7.2 2.232-1.58 1.488-2.38 4.08-2.38 7.776V79h-10.08V39.112h10.08v6.192Zm30.77 2.088v19.296c0 1.344.31 2.328.94 2.952.67.576 1.77.864 3.31.864h4.68V79h-6.34c-8.49 0-12.74-4.128-12.74-12.384V47.392h-4.75v-8.28h4.75v-9.864h10.15v9.864h8.93v8.28h-8.93Zm43.41-10.512v12.6h16.92v7.992h-16.92v13.32h19.08V79h-29.16V28.672h29.16v8.208h-19.08Zm50.35 1.656c4.75 0 8.59 1.512 11.52 4.536 2.93 2.976 4.39 7.152 4.39 12.528V79h-10.08V56.968c0-3.168-.79-5.592-2.38-7.272-1.58-1.728-3.74-2.592-6.48-2.592-2.78 0-4.99.864-6.62 2.592-1.58 1.68-2.38 4.104-2.38 7.272V79h-10.08V39.112h10.08v4.968c1.35-1.728 3.05-3.072 5.12-4.032 2.11-1.008 4.41-1.512 6.91-1.512Zm37.23 8.856v19.296c0 1.344.31 2.328.94 2.952.67.576 1.77.864 3.31.864h4.68V79h-6.34c-8.49 0-12.74-4.128-12.74-12.384V47.392h-4.75v-8.28h4.75v-9.864h10.15v9.864h8.93v8.28h-8.93Zm38.64-8.856c3.03 0 5.72.672 8.07 2.016 2.35 1.296 4.17 3.24 5.47 5.832 1.34 2.544 2.02 5.616 2.02 9.216V79h-10.08V56.968c0-3.168-.8-5.592-2.38-7.272-1.58-1.728-3.74-2.592-6.48-2.592-2.78 0-4.99.864-6.62 2.592-1.59 1.68-2.38 4.104-2.38 7.272V79h-10.08V25.72h10.08v18.36c1.3-1.728 3.02-3.072 5.18-4.032 2.16-1.008 4.56-1.512 7.2-1.512Zm62.8.576V79H2102v-5.04c-1.3 1.728-3 3.096-5.12 4.104-2.06.96-4.32 1.44-6.76 1.44-3.12 0-5.88-.648-8.28-1.944-2.4-1.344-4.3-3.288-5.69-5.832-1.35-2.592-2.02-5.664-2.02-9.216v-23.4h10.08v21.96c0 3.168.79 5.616 2.38 7.344 1.58 1.68 3.74 2.52 6.48 2.52 2.78 0 4.97-.84 6.55-2.52 1.58-1.728 2.38-4.176 2.38-7.344v-21.96h10.15Zm25.21 40.536c-3.27 0-6.19-.576-8.79-1.728-2.59-1.2-4.65-2.808-6.19-4.824-1.49-2.016-2.3-4.248-2.45-6.696h10.16c.19 1.536.93 2.808 2.23 3.816 1.34 1.008 3 1.512 4.97 1.512 1.92 0 3.4-.384 4.46-1.152 1.1-.768 1.66-1.752 1.66-2.952 0-1.296-.68-2.256-2.02-2.88-1.3-.672-3.38-1.392-6.27-2.16-2.97-.72-5.42-1.464-7.34-2.232-1.87-.768-3.5-1.944-4.89-3.528-1.35-1.584-2.02-3.72-2.02-6.408 0-2.208.62-4.224 1.87-6.048 1.3-1.824 3.12-3.264 5.47-4.32 2.4-1.056 5.21-1.584 8.43-1.584 4.75 0 8.54 1.2 11.37 3.6 2.84 2.352 4.4 5.544 4.68 9.576h-9.64c-.15-1.584-.82-2.832-2.02-3.744-1.15-.96-2.71-1.44-4.68-1.44-1.82 0-3.24.336-4.25 1.008-.96.672-1.44 1.608-1.44 2.808 0 1.344.67 2.376 2.02 3.096 1.34.672 3.43 1.368 6.26 2.088 2.88.72 5.26 1.464 7.13 2.232 1.87.768 3.48 1.968 4.82 3.6 1.4 1.584 2.12 3.696 2.16 6.336 0 2.304-.64 4.368-1.94 6.192-1.25 1.824-3.07 3.264-5.47 4.32-2.35 1.008-5.11 1.512-8.28 1.512Zm29.08-45.288c-1.78 0-3.26-.552-4.46-1.656-1.16-1.152-1.73-2.568-1.73-4.248 0-1.68.57-3.072 1.73-4.176 1.2-1.152 2.68-1.728 4.46-1.728 1.78 0 3.24.576 4.39 1.728 1.2 1.104 1.8 2.496 1.8 4.176 0 1.68-.6 3.096-1.8 4.248-1.15 1.104-2.61 1.656-4.39 1.656Zm4.97 4.752V79h-10.08V39.112h10.08Zm7.36 19.8c0-4.032.8-7.608 2.38-10.728 1.63-3.12 3.82-5.52 6.55-7.2 2.79-1.68 5.88-2.52 9.29-2.52 2.98 0 5.57.6 7.78 1.8 2.25 1.2 4.05 2.712 5.4 4.536v-5.688h10.15V79h-10.15v-5.832c-1.3 1.872-3.1 3.432-5.4 4.68-2.26 1.2-4.88 1.8-7.85 1.8-3.36 0-6.43-.864-9.22-2.592-2.73-1.728-4.92-4.152-6.55-7.272-1.58-3.168-2.38-6.792-2.38-10.872Zm31.4.144c0-2.448-.48-4.536-1.44-6.264-.96-1.776-2.26-3.12-3.89-4.032-1.63-.96-3.39-1.44-5.26-1.44-1.87 0-3.6.456-5.18 1.368-1.59.912-2.88 2.256-3.89 4.032-.96 1.728-1.44 3.792-1.44 6.192 0 2.4.48 4.512 1.44 6.336 1.01 1.776 2.3 3.144 3.89 4.104 1.63.96 3.36 1.44 5.18 1.44 1.87 0 3.63-.456 5.26-1.368 1.63-.96 2.93-2.304 3.89-4.032.96-1.776 1.44-3.888 1.44-6.336Zm35.26 20.592c-3.27 0-6.19-.576-8.79-1.728-2.59-1.2-4.65-2.808-6.19-4.824-1.49-2.016-2.3-4.248-2.45-6.696h10.16c.19 1.536.93 2.808 2.23 3.816 1.34 1.008 3 1.512 4.97 1.512 1.92 0 3.4-.384 4.46-1.152 1.1-.768 1.66-1.752 1.66-2.952 0-1.296-.68-2.256-2.02-2.88-1.3-.672-3.38-1.392-6.26-2.16-2.98-.72-5.43-1.464-7.35-2.232-1.87-.768-3.5-1.944-4.89-3.528-1.35-1.584-2.02-3.72-2.02-6.408 0-2.208.62-4.224 1.87-6.048 1.3-1.824 3.12-3.264 5.47-4.32 2.4-1.056 5.21-1.584 8.43-1.584 4.75 0 8.54 1.2 11.37 3.6 2.84 2.352 4.4 5.544 4.68 9.576h-9.64c-.15-1.584-.82-2.832-2.02-3.744-1.15-.96-2.71-1.44-4.68-1.44-1.82 0-3.24.336-4.25 1.008-.96.672-1.44 1.608-1.44 2.808 0 1.344.67 2.376 2.02 3.096 1.34.672 3.43 1.368 6.26 2.088 2.88.72 5.26 1.464 7.13 2.232 1.87.768 3.48 1.968 4.82 3.6 1.4 1.584 2.12 3.696 2.16 6.336 0 2.304-.64 4.368-1.94 6.192-1.25 1.824-3.07 3.264-5.47 4.32-2.35 1.008-5.11 1.512-8.28 1.512Zm35.7-32.256v19.296c0 1.344.32 2.328.94 2.952.67.576 1.78.864 3.31.864h4.68V79h-6.33c-8.5 0-12.75-4.128-12.75-12.384V47.392h-4.75v-8.28h4.75v-9.864h10.15v9.864h8.93v8.28h-8.93Zm13.59 45.792v-1.008c4.85-4.992 8.57-10.872 11.16-17.64a58.116 58.116 0 0 0 3.96-21.168c0-7.488-1.39-14.76-4.18-21.816-2.73-7.056-6.74-13.104-12.02-18.144v-.936h10.15c5.14 4.608 9.05 10.536 11.74 17.784 2.69 7.2 4.03 14.904 4.03 23.112 0 8.016-1.3 15.528-3.89 22.536-2.54 7.008-6.14 12.768-10.8 17.28h-10.15Z" fill="#000"/><path fill="#C4C4C4" d="M0 303h360v203H0z"/><path fill="#FCE5CD" d="M0 303h360v203H0zM599 303h360v203H599zM1198 303h360v203h-360zM1797 303h360v203h-360zM2396 303h360v203h-360zM2995 303h360v203h-360zM2995 735h360v203h-360zM2396 735h360v203h-360zM1797 735h360v203h-360zM1198 735h360v203h-360zM599 735h360v203H599zM0 735h360v203H0zM0 1167h360v203H0zM600 1167h360v203H600zM1198 1167h360v203h-360z"/><path d="m599 405-25-14.434v28.868L599 405Zm-239 2.5h216.5v-5H360v5ZM1198 405l-25-14.434v28.868L1198 405Zm-239 2.5h216.5v-5H959v5ZM1797 405l-25-14.434v28.868L1797 405Zm-239 2.5h216.5v-5H1558v5ZM2396 405l-25-14.434v28.868L2396 405Zm-239 2.5h216.5v-5H2157v5ZM2995 405l-25-14.434v28.868L2995 405Zm-239 2.5h216.5v-5H2756v5ZM2756 837l25 14.434v-28.868L2756 837Zm239-2.5h-216.5v5H2995v-5ZM2157 837l25 14.434v-28.868L2157 837Zm239-2.5h-216.5v5H2396v-5ZM1558 837l25 14.434v-28.868L1558 837Zm239-2.5h-216.5v5H1797v-5ZM959 837l25 14.434v-28.868L959 837Zm239-2.5H981.5v5H1198v-5ZM360 837l25 14.434v-28.868L360 837Zm239-2.5H382.5v5H599v-5ZM180 1167l14.434-25h-28.868L180 1167Zm-2.5-229v206.5h5V938h-5ZM600 1269l-25-14.43v28.86l25-14.43Zm-240 2.5h217.5v-5H360v5ZM1199 1269l-25-14.43v28.86l25-14.43Zm-240 2.5h217.5v-5H959v5ZM3175 735l14.43-25h-28.86l14.43 25Zm-2.5-229v206.5h5V506h-5Z" fill="#000"/><path d="M119.032 418.672h11.04V424h-17.76v-33.504h6.72v28.176Zm27.119 5.76c-2.56 0-4.864-.56-6.912-1.68-2.048-1.152-3.664-2.768-4.848-4.848-1.152-2.08-1.728-4.48-1.728-7.2 0-2.72.592-5.12 1.776-7.2 1.216-2.08 2.864-3.68 4.944-4.8 2.08-1.152 4.4-1.728 6.96-1.728 2.56 0 4.88.576 6.96 1.728 2.08 1.12 3.712 2.72 4.896 4.8 1.216 2.08 1.824 4.48 1.824 7.2 0 2.72-.624 5.12-1.872 7.2a12.755 12.755 0 0 1-4.992 4.848c-2.08 1.12-4.416 1.68-7.008 1.68Zm0-5.856a7.006 7.006 0 0 0 3.408-.864c1.088-.608 1.952-1.504 2.592-2.688.64-1.184.96-2.624.96-4.32 0-2.528-.672-4.464-2.016-5.808-1.312-1.376-2.928-2.064-4.848-2.064s-3.536.688-4.848 2.064c-1.28 1.344-1.92 3.28-1.92 5.808s.624 4.48 1.872 5.856c1.28 1.344 2.88 2.016 4.8 2.016Zm29.218-21.6c1.984 0 3.728.4 5.232 1.2 1.504.768 2.688 1.776 3.552 3.024v-3.792h6.768v26.784c0 2.464-.496 4.656-1.488 6.576-.992 1.952-2.48 3.488-4.464 4.608-1.984 1.152-4.384 1.728-7.2 1.728-3.776 0-6.88-.88-9.312-2.64-2.4-1.76-3.76-4.16-4.08-7.2h6.672c.352 1.216 1.104 2.176 2.256 2.88 1.184.736 2.608 1.104 4.272 1.104 1.952 0 3.536-.592 4.752-1.776 1.216-1.152 1.824-2.912 1.824-5.28v-4.128c-.864 1.248-2.064 2.288-3.6 3.12-1.504.832-3.232 1.248-5.184 1.248-2.24 0-4.288-.576-6.144-1.728-1.856-1.152-3.328-2.768-4.416-4.848-1.056-2.112-1.584-4.528-1.584-7.248 0-2.688.528-5.072 1.584-7.152 1.088-2.08 2.544-3.68 4.368-4.8 1.856-1.12 3.92-1.68 6.192-1.68Zm8.784 13.728c0-1.632-.32-3.024-.96-4.176-.64-1.184-1.504-2.08-2.592-2.688a6.795 6.795 0 0 0-3.504-.96c-1.248 0-2.4.304-3.456.912-1.056.608-1.92 1.504-2.592 2.688-.64 1.152-.96 2.528-.96 4.128s.32 3.008.96 4.224c.672 1.184 1.536 2.096 2.592 2.736 1.088.64 2.24.96 3.456.96a7.069 7.069 0 0 0 3.504-.912c1.088-.64 1.952-1.536 2.592-2.688.64-1.184.96-2.592.96-4.224Zm31.488-20.208V424h-6.72v-33.504h6.72Zm21.376 6.528c3.168 0 5.728 1.008 7.68 3.024 1.952 1.984 2.928 4.768 2.928 8.352V424h-6.72v-14.688c0-2.112-.528-3.728-1.584-4.848-1.056-1.152-2.496-1.728-4.32-1.728-1.856 0-3.328.576-4.416 1.728-1.056 1.12-1.584 2.736-1.584 4.848V424h-6.72v-26.592h6.72v3.312c.896-1.152 2.032-2.048 3.408-2.688 1.408-.672 2.944-1.008 4.608-1.008ZM739.104 388.496V422h-6.72v-14.256h-14.352V422h-6.72v-33.504h6.72v13.776h14.352v-13.776h6.72Zm18.422 33.936c-2.56 0-4.864-.56-6.912-1.68-2.048-1.152-3.664-2.768-4.848-4.848-1.152-2.08-1.728-4.48-1.728-7.2 0-2.72.592-5.12 1.776-7.2 1.216-2.08 2.864-3.68 4.944-4.8 2.08-1.152 4.4-1.728 6.96-1.728 2.56 0 4.88.576 6.96 1.728 2.08 1.12 3.712 2.72 4.896 4.8 1.216 2.08 1.824 4.48 1.824 7.2 0 2.72-.624 5.12-1.872 7.2a12.755 12.755 0 0 1-4.992 4.848c-2.08 1.12-4.416 1.68-7.008 1.68Zm0-5.856a7.006 7.006 0 0 0 3.408-.864c1.088-.608 1.952-1.504 2.592-2.688.64-1.184.96-2.624.96-4.32 0-2.528-.672-4.464-2.016-5.808-1.312-1.376-2.928-2.064-4.848-2.064s-3.536.688-4.848 2.064c-1.28 1.344-1.92 3.28-1.92 5.808s.624 4.48 1.872 5.856c1.28 1.344 2.88 2.016 4.8 2.016Zm51.826-21.552c3.264 0 5.888 1.008 7.872 3.024 2.016 1.984 3.024 4.768 3.024 8.352V422h-6.72v-14.688c0-2.08-.528-3.664-1.584-4.752-1.056-1.12-2.496-1.68-4.32-1.68-1.824 0-3.28.56-4.368 1.68-1.056 1.088-1.584 2.672-1.584 4.752V422h-6.72v-14.688c0-2.08-.528-3.664-1.584-4.752-1.056-1.12-2.496-1.68-4.32-1.68-1.856 0-3.328.56-4.416 1.68-1.056 1.088-1.584 2.672-1.584 4.752V422h-6.72v-26.592h6.72v3.216c.864-1.12 1.968-2 3.312-2.64 1.376-.64 2.88-.96 4.512-.96 2.08 0 3.936.448 5.568 1.344a9.099 9.099 0 0 1 3.792 3.744c.864-1.536 2.112-2.768 3.744-3.696a10.86 10.86 0 0 1 5.376-1.392Zm41.993 13.104c0 .96-.064 1.824-.192 2.592h-19.44c.16 1.92.832 3.424 2.016 4.512 1.184 1.088 2.64 1.632 4.368 1.632 2.496 0 4.272-1.072 5.328-3.216h7.248c-.768 2.56-2.24 4.672-4.416 6.336-2.176 1.632-4.848 2.448-8.016 2.448-2.56 0-4.864-.56-6.912-1.68-2.016-1.152-3.6-2.768-4.752-4.848-1.12-2.08-1.681-4.48-1.681-7.2 0-2.752.561-5.168 1.681-7.248s2.688-3.68 4.704-4.8c2.016-1.12 4.336-1.68 6.96-1.68 2.528 0 4.784.544 6.768 1.632a11.258 11.258 0 0 1 4.656 4.656c1.12 1.984 1.68 4.272 1.68 6.864Zm-6.96-1.92c-.032-1.728-.656-3.104-1.872-4.128-1.216-1.056-2.704-1.584-4.464-1.584-1.664 0-3.072.512-4.224 1.536-1.12.992-1.808 2.384-2.064 4.176h12.624ZM1353.1 354.496 1340.82 388h-8.16l-12.29-33.504h7.2l9.21 26.64 9.17-26.64h7.15Zm7.44 3.744c-1.18 0-2.18-.368-2.98-1.104-.76-.768-1.15-1.712-1.15-2.832 0-1.12.39-2.048 1.15-2.784.8-.768 1.8-1.152 2.98-1.152s2.16.384 2.93 1.152c.8.736 1.2 1.664 1.2 2.784 0 1.12-.4 2.064-1.2 2.832-.77.736-1.75 1.104-2.93 1.104Zm3.31 3.168V388h-6.72v-26.592h6.72Zm31.36 12.72c0 .96-.06 1.824-.19 2.592h-19.44c.16 1.92.83 3.424 2.02 4.512 1.18 1.088 2.64 1.632 4.36 1.632 2.5 0 4.28-1.072 5.33-3.216h7.25c-.77 2.56-2.24 4.672-4.42 6.336-2.17 1.632-4.84 2.448-8.01 2.448-2.56 0-4.87-.56-6.91-1.68-2.02-1.152-3.6-2.768-4.76-4.848-1.12-2.08-1.68-4.48-1.68-7.2 0-2.752.56-5.168 1.68-7.248 1.12-2.08 2.69-3.68 4.71-4.8 2.01-1.12 4.33-1.68 6.96-1.68 2.53 0 4.78.544 6.77 1.632a11.29 11.29 0 0 1 4.65 4.656c1.12 1.984 1.68 4.272 1.68 6.864Zm-6.96-1.92c-.03-1.728-.65-3.104-1.87-4.128-1.22-1.056-2.7-1.584-4.46-1.584-1.67 0-3.08.512-4.23 1.536-1.12.992-1.81 2.384-2.06 4.176h12.62Zm48.73-10.8L1429.2 388h-7.24l-4.85-18.576-4.85 18.576h-7.3l-7.82-26.592h6.82l4.7 20.256 5.09-20.256h7.1l4.99 20.208 4.71-20.208h6.43Zm-118.93 75.168c-.77-1.408-1.83-2.48-3.17-3.216-1.35-.736-2.91-1.104-4.71-1.104-1.98 0-3.74.448-5.28 1.344-1.53.896-2.73 2.176-3.6 3.84-.86 1.664-1.29 3.584-1.29 5.76 0 2.24.43 4.192 1.29 5.856.9 1.664 2.13 2.944 3.7 3.84 1.57.896 3.39 1.344 5.47 1.344 2.56 0 4.66-.672 6.29-2.016 1.63-1.376 2.7-3.28 3.22-5.712h-11.52v-5.136h18.14v5.856c-.45 2.336-1.41 4.496-2.88 6.48s-3.38 3.584-5.71 4.8c-2.31 1.184-4.9 1.776-7.78 1.776-3.23 0-6.16-.72-8.78-2.16-2.59-1.472-4.64-3.504-6.15-6.096-1.47-2.592-2.2-5.536-2.2-8.832 0-3.296.73-6.24 2.2-8.832 1.51-2.624 3.56-4.656 6.15-6.096 2.62-1.472 5.53-2.208 8.73-2.208 3.78 0 7.06.928 9.84 2.784 2.79 1.824 4.71 4.4 5.76 7.728h-7.72Zm11.78 10.032c0-2.688.53-5.072 1.59-7.152 1.09-2.08 2.54-3.68 4.37-4.8 1.85-1.12 3.92-1.68 6.19-1.68 1.98 0 3.71.4 5.18 1.2 1.51.8 2.71 1.808 3.6 3.024v-3.792h6.77V460h-6.77v-3.888c-.86 1.248-2.06 2.288-3.6 3.12-1.5.8-3.25 1.2-5.23 1.2-2.24 0-4.29-.576-6.14-1.728-1.83-1.152-3.28-2.768-4.37-4.848-1.06-2.112-1.59-4.528-1.59-7.248Zm20.93.096c0-1.632-.32-3.024-.96-4.176-.64-1.184-1.5-2.08-2.59-2.688a6.807 6.807 0 0 0-3.5-.96c-1.25 0-2.4.304-3.46.912-1.06.608-1.92 1.504-2.59 2.688-.64 1.152-.96 2.528-.96 4.128s.32 3.008.96 4.224c.67 1.184 1.53 2.096 2.59 2.736 1.09.64 2.24.96 3.46.96 1.24 0 2.41-.304 3.5-.912 1.09-.64 1.95-1.536 2.59-2.688.64-1.184.96-2.592.96-4.224Zm20.05-22.224V460h-6.72v-35.52h6.72Zm13.36 0V460h-6.72v-35.52h6.72Zm31.36 21.648c0 .96-.06 1.824-.19 2.592h-19.44c.16 1.92.83 3.424 2.02 4.512 1.18 1.088 2.64 1.632 4.36 1.632 2.5 0 4.28-1.072 5.33-3.216h7.25c-.77 2.56-2.24 4.672-4.42 6.336-2.17 1.632-4.84 2.448-8.01 2.448-2.56 0-4.87-.56-6.91-1.68-2.02-1.152-3.6-2.768-4.76-4.848-1.12-2.08-1.68-4.48-1.68-7.2 0-2.752.56-5.168 1.68-7.248 1.12-2.08 2.69-3.68 4.71-4.8 2.01-1.12 4.33-1.68 6.96-1.68 2.53 0 4.78.544 6.77 1.632a11.29 11.29 0 0 1 4.65 4.656c1.12 1.984 1.68 4.272 1.68 6.864Zm-6.96-1.92c-.03-1.728-.65-3.104-1.87-4.128-1.22-1.056-2.7-1.584-4.46-1.584-1.67 0-3.08.512-4.23 1.536-1.12.992-1.81 2.384-2.06 4.176h12.62Zm18.59-6.672c.86-1.408 1.98-2.512 3.36-3.312 1.41-.8 3.01-1.2 4.8-1.2v7.056h-1.78c-2.11 0-3.71.496-4.8 1.488-1.05.992-1.58 2.72-1.58 5.184V460h-6.72v-26.592h6.72v4.128Zm38.12-4.128-16.46 39.168h-7.15l5.76-13.248-10.66-25.92h7.54l6.86 18.576 6.96-18.576h7.15ZM1953.1 354.496 1940.82 388h-8.16l-12.29-33.504h7.2l9.21 26.64 9.17-26.64h7.15Zm7.44 3.744c-1.18 0-2.18-.368-2.98-1.104-.76-.768-1.15-1.712-1.15-2.832 0-1.12.39-2.048 1.15-2.784.8-.768 1.8-1.152 2.98-1.152s2.16.384 2.93 1.152c.8.736 1.2 1.664 1.2 2.784 0 1.12-.4 2.064-1.2 2.832-.77.736-1.75 1.104-2.93 1.104Zm3.31 3.168V388h-6.72v-26.592h6.72Zm31.36 12.72c0 .96-.06 1.824-.19 2.592h-19.44c.16 1.92.83 3.424 2.02 4.512 1.18 1.088 2.64 1.632 4.36 1.632 2.5 0 4.28-1.072 5.33-3.216h7.25c-.77 2.56-2.24 4.672-4.42 6.336-2.17 1.632-4.84 2.448-8.01 2.448-2.56 0-4.87-.56-6.91-1.68-2.02-1.152-3.6-2.768-4.76-4.848-1.12-2.08-1.68-4.48-1.68-7.2 0-2.752.56-5.168 1.68-7.248 1.12-2.08 2.69-3.68 4.71-4.8 2.01-1.12 4.33-1.68 6.96-1.68 2.53 0 4.78.544 6.77 1.632a11.29 11.29 0 0 1 4.65 4.656c1.12 1.984 1.68 4.272 1.68 6.864Zm-6.96-1.92c-.03-1.728-.65-3.104-1.87-4.128-1.22-1.056-2.7-1.584-4.46-1.584-1.67 0-3.08.512-4.23 1.536-1.12.992-1.81 2.384-2.06 4.176h12.62Zm48.73-10.8L2029.2 388h-7.24l-4.85-18.576-4.85 18.576h-7.3l-7.82-26.592h6.82l4.7 20.256 5.09-20.256h7.1l4.99 20.208 4.71-20.208h6.43Zm-130.08 92.208h-13.35l-2.21 6.384h-7.05l12.05-33.552h7.82L1916.21 460h-7.11l-2.2-6.384Zm-1.83-5.376-4.85-14.016-4.84 14.016h9.69Zm22.36-10.704c.86-1.408 1.98-2.512 3.36-3.312 1.41-.8 3.01-1.2 4.8-1.2v7.056h-1.78c-2.11 0-3.71.496-4.8 1.488-1.05.992-1.58 2.72-1.58 5.184V460h-6.72v-26.592h6.72v4.128Zm20.51 1.392v12.864c0 .896.21 1.552.62 1.968.45.384 1.19.576 2.21.576h3.12V460h-4.22c-5.67 0-8.5-2.752-8.5-8.256v-12.816H1938v-5.52h3.17v-6.576h6.77v6.576h5.95v5.52h-5.95Zm47.65-5.52L1987.81 460h-7.24l-4.85-18.576-4.85 18.576h-7.3l-7.82-26.592h6.82l4.7 20.256 5.09-20.256h7.1l4.99 20.208 4.71-20.208h6.43Zm15.44 27.024c-2.56 0-4.86-.56-6.91-1.68-2.05-1.152-3.66-2.768-4.85-4.848-1.15-2.08-1.72-4.48-1.72-7.2 0-2.72.59-5.12 1.77-7.2 1.22-2.08 2.87-3.68 4.95-4.8 2.08-1.152 4.4-1.728 6.96-1.728 2.56 0 4.88.576 6.96 1.728 2.08 1.12 3.71 2.72 4.89 4.8 1.22 2.08 1.83 4.48 1.83 7.2 0 2.72-.63 5.12-1.88 7.2a12.723 12.723 0 0 1-4.99 4.848c-2.08 1.12-4.41 1.68-7.01 1.68Zm0-5.856c1.22 0 2.36-.288 3.41-.864 1.09-.608 1.95-1.504 2.59-2.688.64-1.184.96-2.624.96-4.32 0-2.528-.67-4.464-2.01-5.808-1.31-1.376-2.93-2.064-4.85-2.064-1.92 0-3.54.688-4.85 2.064-1.28 1.344-1.92 3.28-1.92 5.808s.63 4.48 1.87 5.856c1.28 1.344 2.88 2.016 4.8 2.016Zm25.53-17.04c.86-1.408 1.98-2.512 3.36-3.312 1.4-.8 3-1.2 4.8-1.2v7.056h-1.78c-2.11 0-3.71.496-4.8 1.488-1.06.992-1.58 2.72-1.58 5.184V460h-6.72v-26.592h6.72v4.128ZM2064.99 460l-9.03-11.328V460h-6.72v-35.52h6.72v20.208l8.93-11.28h8.74l-11.72 13.344L2073.72 460h-8.73ZM2437.19 388l-7.39-13.056h-3.17V388h-6.72v-33.504h12.58c2.59 0 4.8.464 6.62 1.392 1.83.896 3.19 2.128 4.08 3.696.93 1.536 1.4 3.264 1.4 5.184 0 2.208-.64 4.208-1.92 6-1.28 1.76-3.19 2.976-5.72 3.648l8.02 13.584h-7.78Zm-10.56-18.096h5.62c1.82 0 3.18-.432 4.08-1.296.9-.896 1.34-2.128 1.34-3.696 0-1.536-.44-2.72-1.34-3.552-.9-.864-2.26-1.296-4.08-1.296h-5.62v9.84Zm48.75 4.224c0 .96-.06 1.824-.19 2.592h-19.44c.16 1.92.83 3.424 2.02 4.512 1.18 1.088 2.64 1.632 4.37 1.632 2.49 0 4.27-1.072 5.32-3.216h7.25c-.77 2.56-2.24 4.672-4.41 6.336-2.18 1.632-4.85 2.448-8.02 2.448-2.56 0-4.86-.56-6.91-1.68-2.02-1.152-3.6-2.768-4.75-4.848-1.12-2.08-1.68-4.48-1.68-7.2 0-2.752.56-5.168 1.68-7.248 1.12-2.08 2.68-3.68 4.7-4.8 2.02-1.12 4.34-1.68 6.96-1.68 2.53 0 4.78.544 6.77 1.632 2.01 1.088 3.57 2.64 4.65 4.656 1.12 1.984 1.68 4.272 1.68 6.864Zm-6.96-1.92c-.03-1.728-.65-3.104-1.87-4.128-1.21-1.056-2.7-1.584-4.46-1.584-1.67 0-3.07.512-4.23 1.536-1.12.992-1.8 2.384-2.06 4.176h12.62Zm10.14 2.4c0-2.688.53-5.072 1.58-7.152 1.09-2.08 2.55-3.68 4.37-4.8 1.86-1.12 3.92-1.68 6.19-1.68 1.99 0 3.72.4 5.19 1.2 1.5.8 2.7 1.808 3.6 3.024v-3.792h6.77V388h-6.77v-3.888c-.87 1.248-2.07 2.288-3.6 3.12-1.51.8-3.25 1.2-5.23 1.2-2.24 0-4.29-.576-6.15-1.728-1.82-1.152-3.28-2.768-4.37-4.848-1.05-2.112-1.58-4.528-1.58-7.248Zm20.93.096c0-1.632-.32-3.024-.96-4.176-.64-1.184-1.51-2.08-2.59-2.688a6.816 6.816 0 0 0-3.51-.96c-1.25 0-2.4.304-3.45.912-1.06.608-1.92 1.504-2.6 2.688-.64 1.152-.96 2.528-.96 4.128s.32 3.008.96 4.224c.68 1.184 1.54 2.096 2.6 2.736 1.08.64 2.24.96 3.45.96a7.09 7.09 0 0 0 3.51-.912 7.035 7.035 0 0 0 2.59-2.688c.64-1.184.96-2.592.96-4.224Zm11.6-.096c0-2.688.53-5.072 1.59-7.152 1.08-2.08 2.56-3.68 4.41-4.8 1.86-1.12 3.92-1.68 6.19-1.68 1.73 0 3.38.384 4.95 1.152 1.57.736 2.81 1.728 3.74 2.976V352.48h6.82V388h-6.82v-3.936c-.83 1.312-2 2.368-3.5 3.168-1.51.8-3.25 1.2-5.23 1.2-2.24 0-4.29-.576-6.15-1.728-1.85-1.152-3.33-2.768-4.41-4.848-1.06-2.112-1.59-4.528-1.59-7.248Zm20.93.096c0-1.632-.32-3.024-.96-4.176-.64-1.184-1.5-2.08-2.59-2.688a6.816 6.816 0 0 0-3.51-.96c-1.24 0-2.4.304-3.45.912-1.06.608-1.92 1.504-2.59 2.688-.64 1.152-.96 2.528-.96 4.128s.32 3.008.96 4.224c.67 1.184 1.53 2.096 2.59 2.736 1.09.64 2.24.96 3.45.96a7.09 7.09 0 0 0 3.51-.912c1.09-.64 1.95-1.536 2.59-2.688.64-1.184.96-2.592.96-4.224Zm45.31 6.912h-13.34l-2.21 6.384h-7.06l12.05-33.552h7.83L2586.64 388h-7.1l-2.21-6.384Zm-1.82-5.376-4.85-14.016-4.85 14.016h9.7Zm22.36-10.704c.86-1.408 1.98-2.512 3.36-3.312 1.41-.8 3.01-1.2 4.8-1.2v7.056h-1.78c-2.11 0-3.71.496-4.8 1.488-1.05.992-1.58 2.72-1.58 5.184V388h-6.72v-26.592h6.72v4.128Zm20.51 1.392v12.864c0 .896.21 1.552.62 1.968.45.384 1.19.576 2.21.576h3.12V388h-4.22c-5.67 0-8.5-2.752-8.5-8.256v-12.816h-3.17v-5.52h3.17v-6.576h6.77v6.576h5.95v5.52h-5.95Zm47.65-5.52L2658.25 388H2651l-4.84-18.576-4.85 18.576h-7.3l-7.82-26.592h6.81l4.71 20.256 5.09-20.256h7.1l4.99 20.208 4.71-20.208h6.43Zm15.44 27.024c-2.56 0-4.86-.56-6.91-1.68-2.05-1.152-3.66-2.768-4.85-4.848-1.15-2.08-1.73-4.48-1.73-7.2 0-2.72.6-5.12 1.78-7.2 1.22-2.08 2.86-3.68 4.94-4.8 2.08-1.152 4.4-1.728 6.96-1.728 2.56 0 4.88.576 6.96 1.728 2.08 1.12 3.72 2.72 4.9 4.8 1.22 2.08 1.82 4.48 1.82 7.2 0 2.72-.62 5.12-1.87 7.2a12.723 12.723 0 0 1-4.99 4.848c-2.08 1.12-4.42 1.68-7.01 1.68Zm0-5.856c1.22 0 2.35-.288 3.41-.864 1.09-.608 1.95-1.504 2.59-2.688.64-1.184.96-2.624.96-4.32 0-2.528-.67-4.464-2.01-5.808-1.32-1.376-2.93-2.064-4.85-2.064-1.92 0-3.54.688-4.85 2.064-1.28 1.344-1.92 3.28-1.92 5.808s.62 4.48 1.87 5.856c1.28 1.344 2.88 2.016 4.8 2.016Zm25.52-17.04c.87-1.408 1.99-2.512 3.36-3.312 1.41-.8 3.01-1.2 4.8-1.2v7.056h-1.77c-2.12 0-3.72.496-4.8 1.488-1.06.992-1.59 2.72-1.59 5.184V388h-6.72v-26.592h6.72v4.128ZM2735.42 388l-9.02-11.328V388h-6.72v-35.52h6.72v20.208l8.93-11.28h8.73l-11.71 13.344L2744.16 388h-8.74Zm-223.92 38.496c3.52 0 6.61.688 9.26 2.064 2.69 1.376 4.76 3.344 6.2 5.904 1.47 2.528 2.2 5.472 2.2 8.832 0 3.36-.73 6.304-2.2 8.832-1.44 2.496-3.51 4.432-6.2 5.808-2.65 1.376-5.74 2.064-9.26 2.064h-11.71v-33.504h11.71Zm-.24 27.792c3.52 0 6.24-.96 8.16-2.88s2.88-4.624 2.88-8.112c0-3.488-.96-6.208-2.88-8.16-1.92-1.984-4.64-2.976-8.16-2.976h-4.75v22.128h4.75Zm47.65-8.16c0 .96-.06 1.824-.19 2.592h-19.44c.16 1.92.83 3.424 2.02 4.512 1.18 1.088 2.64 1.632 4.37 1.632 2.49 0 4.27-1.072 5.32-3.216h7.25c-.77 2.56-2.24 4.672-4.41 6.336-2.18 1.632-4.85 2.448-8.02 2.448-2.56 0-4.86-.56-6.91-1.68-2.02-1.152-3.6-2.768-4.75-4.848-1.12-2.08-1.68-4.48-1.68-7.2 0-2.752.56-5.168 1.68-7.248 1.12-2.08 2.68-3.68 4.7-4.8 2.02-1.12 4.34-1.68 6.96-1.68 2.53 0 4.78.544 6.77 1.632 2.01 1.088 3.57 2.64 4.65 4.656 1.12 1.984 1.68 4.272 1.68 6.864Zm-6.96-1.92c-.03-1.728-.65-3.104-1.87-4.128-1.21-1.056-2.7-1.584-4.46-1.584-1.67 0-3.07.512-4.23 1.536-1.12.992-1.8 2.384-2.06 4.176h12.62Zm19.69-5.28v12.864c0 .896.21 1.552.63 1.968.45.384 1.18.576 2.21.576h3.12V460h-4.23c-5.66 0-8.49-2.752-8.49-8.256v-12.816h-3.17v-5.52h3.17v-6.576h6.76v6.576h5.96v5.52h-5.96Zm9.06 7.68c0-2.688.53-5.072 1.59-7.152 1.08-2.08 2.54-3.68 4.36-4.8 1.86-1.12 3.92-1.68 6.2-1.68 1.98 0 3.71.4 5.18 1.2 1.5.8 2.7 1.808 3.6 3.024v-3.792h6.77V460h-6.77v-3.888c-.86 1.248-2.06 2.288-3.6 3.12-1.5.8-3.25 1.2-5.23 1.2-2.24 0-4.29-.576-6.15-1.728-1.82-1.152-3.28-2.768-4.36-4.848-1.06-2.112-1.59-4.528-1.59-7.248Zm20.93.096c0-1.632-.32-3.024-.96-4.176-.64-1.184-1.5-2.08-2.59-2.688a6.816 6.816 0 0 0-3.51-.96c-1.24 0-2.4.304-3.45.912-1.06.608-1.92 1.504-2.59 2.688-.64 1.152-.96 2.528-.96 4.128s.32 3.008.96 4.224c.67 1.184 1.53 2.096 2.59 2.736 1.09.64 2.24.96 3.45.96a7.09 7.09 0 0 0 3.51-.912c1.09-.64 1.95-1.536 2.59-2.688.64-1.184.96-2.592.96-4.224Zm16.74-16.464c-1.19 0-2.18-.368-2.98-1.104-.77-.768-1.15-1.712-1.15-2.832 0-1.12.38-2.048 1.15-2.784.8-.768 1.79-1.152 2.98-1.152 1.18 0 2.16.384 2.93 1.152.8.736 1.2 1.664 1.2 2.784 0 1.12-.4 2.064-1.2 2.832-.77.736-1.75 1.104-2.93 1.104Zm3.31 3.168V460h-6.72v-26.592h6.72Zm13.36-8.928V460h-6.72v-35.52h6.72Zm16.82 35.952c-2.18 0-4.13-.384-5.86-1.152-1.73-.8-3.1-1.872-4.13-3.216a8.228 8.228 0 0 1-1.63-4.464h6.77c.13 1.024.62 1.872 1.49 2.544.89.672 2 1.008 3.31 1.008 1.28 0 2.27-.256 2.97-.768.74-.512 1.11-1.168 1.11-1.968 0-.864-.45-1.504-1.35-1.92-.86-.448-2.25-.928-4.17-1.44-1.99-.48-3.62-.976-4.9-1.488-1.25-.512-2.33-1.296-3.26-2.352-.9-1.056-1.35-2.48-1.35-4.272 0-1.472.42-2.816 1.25-4.032.87-1.216 2.08-2.176 3.65-2.88 1.6-.704 3.47-1.056 5.62-1.056 3.16 0 5.69.8 7.58 2.4 1.89 1.568 2.93 3.696 3.12 6.384h-6.43c-.1-1.056-.55-1.888-1.35-2.496-.76-.64-1.8-.96-3.12-.96-1.21 0-2.16.224-2.83.672-.64.448-.96 1.072-.96 1.872 0 .896.45 1.584 1.35 2.064.89.448 2.28.912 4.17 1.392 1.92.48 3.51.976 4.75 1.488 1.25.512 2.32 1.312 3.22 2.4.93 1.056 1.41 2.464 1.44 4.224 0 1.536-.43 2.912-1.3 4.128-.83 1.216-2.04 2.176-3.64 2.88-1.57.672-3.41 1.008-5.52 1.008ZM3072.14 370.816c1.89.352 3.44 1.296 4.66 2.832 1.21 1.536 1.82 3.296 1.82 5.28 0 1.792-.45 3.376-1.34 4.752-.87 1.344-2.13 2.4-3.8 3.168-1.66.768-3.63 1.152-5.9 1.152h-14.45v-33.504h13.83c2.27 0 4.22.368 5.85 1.104 1.67.736 2.91 1.76 3.75 3.072.86 1.312 1.29 2.8 1.29 4.464 0 1.952-.53 3.584-1.58 4.896-1.03 1.312-2.4 2.24-4.13 2.784Zm-12.29-2.496h6.15c1.6 0 2.83-.352 3.69-1.056.87-.736 1.3-1.776 1.3-3.12s-.43-2.384-1.3-3.12c-.86-.736-2.09-1.104-3.69-1.104h-6.15v8.4Zm6.77 14.208c1.63 0 2.9-.384 3.79-1.152.93-.768 1.39-1.856 1.39-3.264 0-1.44-.48-2.56-1.44-3.36-.96-.832-2.25-1.248-3.88-1.248h-6.63v9.024h6.77Zm29.16 5.904c-2.56 0-4.86-.56-6.91-1.68-2.05-1.152-3.66-2.768-4.85-4.848-1.15-2.08-1.72-4.48-1.72-7.2 0-2.72.59-5.12 1.77-7.2 1.22-2.08 2.87-3.68 4.95-4.8 2.08-1.152 4.4-1.728 6.96-1.728 2.56 0 4.88.576 6.96 1.728 2.08 1.12 3.71 2.72 4.89 4.8 1.22 2.08 1.83 4.48 1.83 7.2 0 2.72-.63 5.12-1.88 7.2a12.723 12.723 0 0 1-4.99 4.848c-2.08 1.12-4.41 1.68-7.01 1.68Zm0-5.856c1.22 0 2.36-.288 3.41-.864 1.09-.608 1.95-1.504 2.59-2.688.64-1.184.96-2.624.96-4.32 0-2.528-.67-4.464-2.01-5.808-1.31-1.376-2.93-2.064-4.85-2.064-1.92 0-3.54.688-4.85 2.064-1.28 1.344-1.92 3.28-1.92 5.808s.63 4.48 1.87 5.856c1.28 1.344 2.88 2.016 4.8 2.016Zm30.61 5.856c-2.56 0-4.86-.56-6.91-1.68-2.05-1.152-3.66-2.768-4.85-4.848-1.15-2.08-1.72-4.48-1.72-7.2 0-2.72.59-5.12 1.77-7.2 1.22-2.08 2.87-3.68 4.95-4.8 2.08-1.152 4.4-1.728 6.96-1.728 2.56 0 4.88.576 6.96 1.728 2.08 1.12 3.71 2.72 4.89 4.8 1.22 2.08 1.83 4.48 1.83 7.2 0 2.72-.63 5.12-1.88 7.2a12.723 12.723 0 0 1-4.99 4.848c-2.08 1.12-4.41 1.68-7.01 1.68Zm0-5.856c1.22 0 2.36-.288 3.41-.864 1.09-.608 1.95-1.504 2.59-2.688.64-1.184.96-2.624.96-4.32 0-2.528-.67-4.464-2.01-5.808-1.31-1.376-2.93-2.064-4.85-2.064-1.92 0-3.54.688-4.85 2.064-1.28 1.344-1.92 3.28-1.92 5.808s.63 4.48 1.87 5.856c1.28 1.344 2.88 2.016 4.8 2.016Zm34.55 5.424-9.03-11.328V388h-6.72v-35.52h6.72v20.208l8.93-11.28h8.74l-11.71 13.344 11.8 13.248h-8.73Zm45.31-26.976c3.26 0 5.89 1.008 7.87 3.024 2.02 1.984 3.03 4.768 3.03 8.352V388h-6.72v-14.688c0-2.08-.53-3.664-1.59-4.752-1.05-1.12-2.49-1.68-4.32-1.68-1.82 0-3.28.56-4.37 1.68-1.05 1.088-1.58 2.672-1.58 4.752V388h-6.72v-14.688c0-2.08-.53-3.664-1.58-4.752-1.06-1.12-2.5-1.68-4.32-1.68-1.86 0-3.33.56-4.42 1.68-1.06 1.088-1.58 2.672-1.58 4.752V388h-6.72v-26.592h6.72v3.216c.86-1.12 1.96-2 3.31-2.64 1.37-.64 2.88-.96 4.51-.96 2.08 0 3.94.448 5.57 1.344 1.63.864 2.89 2.112 3.79 3.744.86-1.536 2.11-2.768 3.74-3.696a10.892 10.892 0 0 1 5.38-1.392Zm15.54 13.584c0-2.688.53-5.072 1.59-7.152 1.09-2.08 2.54-3.68 4.37-4.8 1.85-1.12 3.92-1.68 6.19-1.68 1.98 0 3.71.4 5.18 1.2 1.51.8 2.71 1.808 3.6 3.024v-3.792h6.77V388h-6.77v-3.888c-.86 1.248-2.06 2.288-3.6 3.12-1.5.8-3.25 1.2-5.23 1.2-2.24 0-4.29-.576-6.14-1.728-1.83-1.152-3.28-2.768-4.37-4.848-1.06-2.112-1.59-4.528-1.59-7.248Zm20.93.096c0-1.632-.32-3.024-.96-4.176-.64-1.184-1.5-2.08-2.59-2.688a6.807 6.807 0 0 0-3.5-.96c-1.25 0-2.4.304-3.46.912-1.06.608-1.92 1.504-2.59 2.688-.64 1.152-.96 2.528-.96 4.128s.32 3.008.96 4.224c.67 1.184 1.53 2.096 2.59 2.736 1.09.64 2.24.96 3.46.96 1.24 0 2.41-.304 3.5-.912 1.09-.64 1.95-1.536 2.59-2.688.64-1.184.96-2.592.96-4.224Zm20.05-9.168c.87-1.408 1.99-2.512 3.36-3.312 1.41-.8 3.01-1.2 4.8-1.2v7.056h-1.77c-2.11 0-3.71.496-4.8 1.488-1.06.992-1.59 2.72-1.59 5.184V388h-6.72v-26.592h6.72v4.128ZM3291.2 388l-9.02-11.328V388h-6.72v-35.52h6.72v20.208l8.93-11.28h8.73l-11.71 13.344L3299.94 388h-8.74Zm-187.8 65.616h-13.35l-2.21 6.384h-7.05l12.05-33.552h7.82L3112.71 460h-7.11l-2.2-6.384Zm-1.83-5.376-4.85-14.016-4.84 14.016h9.69Zm22.36-10.704c.86-1.408 1.98-2.512 3.36-3.312 1.41-.8 3.01-1.2 4.8-1.2v7.056h-1.78c-2.11 0-3.71.496-4.8 1.488-1.05.992-1.58 2.72-1.58 5.184V460h-6.72v-26.592h6.72v4.128Zm20.51 1.392v12.864c0 .896.21 1.552.62 1.968.45.384 1.19.576 2.21.576h3.12V460h-4.22c-5.67 0-8.5-2.752-8.5-8.256v-12.816h-3.17v-5.52h3.17v-6.576h6.77v6.576h5.95v5.52h-5.95Zm47.65-5.52L3184.31 460h-7.24l-4.85-18.576-4.85 18.576h-7.3l-7.82-26.592h6.82l4.7 20.256 5.09-20.256h7.1l4.99 20.208 4.71-20.208h6.43Zm15.44 27.024c-2.56 0-4.86-.56-6.91-1.68-2.05-1.152-3.66-2.768-4.85-4.848-1.15-2.08-1.72-4.48-1.72-7.2 0-2.72.59-5.12 1.77-7.2 1.22-2.08 2.87-3.68 4.95-4.8 2.08-1.152 4.4-1.728 6.96-1.728 2.56 0 4.88.576 6.96 1.728 2.08 1.12 3.71 2.72 4.89 4.8 1.22 2.08 1.83 4.48 1.83 7.2 0 2.72-.63 5.12-1.88 7.2a12.723 12.723 0 0 1-4.99 4.848c-2.08 1.12-4.41 1.68-7.01 1.68Zm0-5.856c1.22 0 2.36-.288 3.41-.864 1.09-.608 1.95-1.504 2.59-2.688.64-1.184.96-2.624.96-4.32 0-2.528-.67-4.464-2.01-5.808-1.31-1.376-2.93-2.064-4.85-2.064-1.92 0-3.54.688-4.85 2.064-1.28 1.344-1.92 3.28-1.92 5.808s.63 4.48 1.87 5.856c1.28 1.344 2.88 2.016 4.8 2.016Zm25.53-17.04c.86-1.408 1.98-2.512 3.36-3.312 1.4-.8 3-1.2 4.8-1.2v7.056h-1.78c-2.11 0-3.71.496-4.8 1.488-1.06.992-1.58 2.72-1.58 5.184V460h-6.72v-26.592h6.72v4.128ZM3261.49 460l-9.03-11.328V460h-6.72v-35.52h6.72v20.208l8.93-11.28h8.74l-11.72 13.344L3270.22 460h-8.73ZM3100.3 818l-7.4-13.056h-3.16V818h-6.72v-33.504h12.57c2.59 0 4.8.464 6.63 1.392 1.82.896 3.18 2.128 4.08 3.696.92 1.536 1.39 3.264 1.39 5.184 0 2.208-.64 4.208-1.92 6-1.28 1.76-3.19 2.976-5.71 3.648l8.01 13.584h-7.77Zm-10.56-18.096h5.61c1.83 0 3.19-.432 4.08-1.296.9-.896 1.35-2.128 1.35-3.696 0-1.536-.45-2.72-1.35-3.552-.89-.864-2.25-1.296-4.08-1.296h-5.61v9.84Zm48.75 4.224c0 .96-.07 1.824-.2 2.592h-19.44c.16 1.92.84 3.424 2.02 4.512 1.18 1.088 2.64 1.632 4.37 1.632 2.49 0 4.27-1.072 5.33-3.216h7.24c-.76 2.56-2.24 4.672-4.41 6.336-2.18 1.632-4.85 2.448-8.02 2.448-2.56 0-4.86-.56-6.91-1.68-2.02-1.152-3.6-2.768-4.75-4.848-1.12-2.08-1.68-4.48-1.68-7.2 0-2.752.56-5.168 1.68-7.248 1.12-2.08 2.69-3.68 4.7-4.8 2.02-1.12 4.34-1.68 6.96-1.68 2.53 0 4.79.544 6.77 1.632a11.256 11.256 0 0 1 4.66 4.656c1.12 1.984 1.68 4.272 1.68 6.864Zm-6.96-1.92c-.04-1.728-.66-3.104-1.88-4.128-1.21-1.056-2.7-1.584-4.46-1.584-1.66 0-3.07.512-4.22 1.536-1.12.992-1.81 2.384-2.07 4.176h12.63Zm10.13 2.496c0-2.752.56-5.152 1.68-7.2 1.12-2.08 2.67-3.68 4.66-4.8 1.98-1.152 4.25-1.728 6.81-1.728 3.3 0 6.02.832 8.16 2.496 2.18 1.632 3.64 3.936 4.37 6.912h-7.25c-.38-1.152-1.04-2.048-1.96-2.688-.9-.672-2.02-1.008-3.36-1.008-1.92 0-3.44.704-4.56 2.112-1.12 1.376-1.68 3.344-1.68 5.904 0 2.528.56 4.496 1.68 5.904 1.12 1.376 2.64 2.064 4.56 2.064 2.72 0 4.49-1.216 5.32-3.648h7.25c-.73 2.88-2.19 5.168-4.37 6.864-2.17 1.696-4.89 2.544-8.16 2.544-2.56 0-4.83-.56-6.81-1.68-1.99-1.152-3.54-2.752-4.66-4.8-1.12-2.08-1.68-4.496-1.68-7.248Zm55.33-.576c0 .96-.07 1.824-.2 2.592h-19.44c.16 1.92.84 3.424 2.02 4.512 1.18 1.088 2.64 1.632 4.37 1.632 2.49 0 4.27-1.072 5.33-3.216h7.24c-.76 2.56-2.24 4.672-4.41 6.336-2.18 1.632-4.85 2.448-8.02 2.448-2.56 0-4.86-.56-6.91-1.68-2.02-1.152-3.6-2.768-4.75-4.848-1.12-2.08-1.68-4.48-1.68-7.2 0-2.752.56-5.168 1.68-7.248 1.12-2.08 2.69-3.68 4.7-4.8 2.02-1.12 4.34-1.68 6.96-1.68 2.53 0 4.79.544 6.77 1.632a11.256 11.256 0 0 1 4.66 4.656c1.12 1.984 1.68 4.272 1.68 6.864Zm-6.96-1.92c-.04-1.728-.66-3.104-1.88-4.128-1.21-1.056-2.7-1.584-4.46-1.584-1.66 0-3.07.512-4.22 1.536-1.12.992-1.81 2.384-2.07 4.176h12.63Zm15.27-13.968c-1.19 0-2.18-.368-2.98-1.104-.77-.768-1.15-1.712-1.15-2.832 0-1.12.38-2.048 1.15-2.784.8-.768 1.79-1.152 2.98-1.152 1.18 0 2.16.384 2.93 1.152.8.736 1.2 1.664 1.2 2.784 0 1.12-.4 2.064-1.2 2.832-.77.736-1.75 1.104-2.93 1.104Zm3.31 3.168V818h-6.72v-26.592h6.72Zm17.73 20.4 6.72-20.4h7.15L3230.37 818h-8.16l-9.79-26.592h7.2l6.72 20.4Zm42.36-7.68c0 .96-.06 1.824-.19 2.592h-19.44c.16 1.92.83 3.424 2.02 4.512 1.18 1.088 2.64 1.632 4.37 1.632 2.49 0 4.27-1.072 5.32-3.216h7.25c-.77 2.56-2.24 4.672-4.41 6.336-2.18 1.632-4.85 2.448-8.02 2.448-2.56 0-4.86-.56-6.91-1.68-2.02-1.152-3.6-2.768-4.75-4.848-1.12-2.08-1.68-4.48-1.68-7.2 0-2.752.56-5.168 1.68-7.248 1.12-2.08 2.68-3.68 4.7-4.8 2.02-1.12 4.34-1.68 6.96-1.68 2.53 0 4.78.544 6.77 1.632 2.01 1.088 3.57 2.64 4.65 4.656 1.12 1.984 1.68 4.272 1.68 6.864Zm-6.96-1.92c-.03-1.728-.65-3.104-1.87-4.128-1.21-1.056-2.7-1.584-4.46-1.584-1.67 0-3.07.512-4.23 1.536-1.12.992-1.8 2.384-2.06 4.176h12.62ZM3107.33 873.2c0-3.296.73-6.24 2.21-8.832 1.5-2.624 3.53-4.656 6.09-6.096 2.59-1.472 5.49-2.208 8.69-2.208 3.74 0 7.02.96 9.84 2.88 2.82 1.92 4.78 4.576 5.9 7.968h-7.72c-.77-1.6-1.86-2.8-3.27-3.6-1.37-.8-2.97-1.2-4.8-1.2-1.95 0-3.69.464-5.23 1.392-1.5.896-2.69 2.176-3.55 3.84-.83 1.664-1.25 3.616-1.25 5.856 0 2.208.42 4.16 1.25 5.856.86 1.664 2.05 2.96 3.55 3.888 1.54.896 3.28 1.344 5.23 1.344 1.83 0 3.43-.4 4.8-1.2 1.41-.832 2.5-2.048 3.27-3.648h7.72c-1.12 3.424-3.08 6.096-5.9 8.016-2.78 1.888-6.06 2.832-9.84 2.832-3.2 0-6.1-.72-8.69-2.16-2.56-1.472-4.59-3.504-6.09-6.096-1.48-2.592-2.21-5.536-2.21-8.832Zm50.28 17.232c-2.56 0-4.86-.56-6.91-1.68-2.05-1.152-3.66-2.768-4.85-4.848-1.15-2.08-1.73-4.48-1.73-7.2 0-2.72.6-5.12 1.78-7.2 1.22-2.08 2.86-3.68 4.94-4.8 2.08-1.152 4.4-1.728 6.96-1.728 2.56 0 4.88.576 6.96 1.728 2.08 1.12 3.72 2.72 4.9 4.8 1.22 2.08 1.82 4.48 1.82 7.2 0 2.72-.62 5.12-1.87 7.2a12.723 12.723 0 0 1-4.99 4.848c-2.08 1.12-4.42 1.68-7.01 1.68Zm0-5.856c1.22 0 2.35-.288 3.41-.864 1.09-.608 1.95-1.504 2.59-2.688.64-1.184.96-2.624.96-4.32 0-2.528-.67-4.464-2.01-5.808-1.32-1.376-2.93-2.064-4.85-2.064-1.92 0-3.54.688-4.85 2.064-1.28 1.344-1.92 3.28-1.92 5.808s.62 4.48 1.87 5.856c1.28 1.344 2.88 2.016 4.8 2.016Zm22.21-24.336c-1.18 0-2.17-.368-2.97-1.104-.77-.768-1.16-1.712-1.16-2.832 0-1.12.39-2.048 1.16-2.784.8-.768 1.79-1.152 2.97-1.152 1.19 0 2.16.384 2.93 1.152.8.736 1.2 1.664 1.2 2.784 0 1.12-.4 2.064-1.2 2.832-.77.736-1.74 1.104-2.93 1.104Zm3.31 3.168V890h-6.72v-26.592h6.72Zm21.38-.384c3.17 0 5.73 1.008 7.68 3.024 1.95 1.984 2.93 4.768 2.93 8.352V890h-6.72v-14.688c0-2.112-.53-3.728-1.59-4.848-1.05-1.152-2.49-1.728-4.32-1.728-1.85 0-3.33.576-4.41 1.728-1.06 1.12-1.59 2.736-1.59 4.848V890h-6.72v-26.592h6.72v3.312a9.118 9.118 0 0 1 3.41-2.688c1.41-.672 2.94-1.008 4.61-1.008Zm27.17 27.408c-2.17 0-4.12-.384-5.85-1.152-1.73-.8-3.11-1.872-4.13-3.216-.99-1.344-1.54-2.832-1.63-4.464h6.77c.12 1.024.62 1.872 1.48 2.544.9.672 2 1.008 3.32 1.008 1.28 0 2.27-.256 2.97-.768.74-.512 1.11-1.168 1.11-1.968 0-.864-.45-1.504-1.35-1.92-.86-.448-2.25-.928-4.17-1.44-1.99-.48-3.62-.976-4.9-1.488a8.61 8.61 0 0 1-3.26-2.352c-.9-1.056-1.35-2.48-1.35-4.272 0-1.472.42-2.816 1.25-4.032.86-1.216 2.08-2.176 3.65-2.88 1.6-.704 3.47-1.056 5.61-1.056 3.17 0 5.7.8 7.59 2.4 1.89 1.568 2.93 3.696 3.12 6.384h-6.43c-.1-1.056-.55-1.888-1.35-2.496-.77-.64-1.81-.96-3.12-.96-1.21 0-2.16.224-2.83.672-.64.448-.96 1.072-.96 1.872 0 .896.45 1.584 1.34 2.064.9.448 2.29.912 4.18 1.392 1.92.48 3.5.976 4.75 1.488s2.32 1.312 3.22 2.4c.93 1.056 1.41 2.464 1.44 4.224 0 1.536-.43 2.912-1.3 4.128-.83 1.216-2.05 2.176-3.65 2.88-1.56.672-3.4 1.008-5.52 1.008ZM2453.67 801.2c0-3.296.74-6.24 2.21-8.832 1.5-2.624 3.54-4.656 6.1-6.096 2.59-1.472 5.48-2.208 8.68-2.208 3.75 0 7.03.96 9.84 2.88 2.82 1.92 4.79 4.576 5.91 7.968h-7.73c-.77-1.6-1.86-2.8-3.26-3.6-1.38-.8-2.98-1.2-4.8-1.2-1.96 0-3.7.464-5.24 1.392-1.5.896-2.68 2.176-3.55 3.84-.83 1.664-1.25 3.616-1.25 5.856 0 2.208.42 4.16 1.25 5.856.87 1.664 2.05 2.96 3.55 3.888 1.54.896 3.28 1.344 5.24 1.344 1.82 0 3.42-.4 4.8-1.2 1.4-.832 2.49-2.048 3.26-3.648h7.73c-1.12 3.424-3.09 6.096-5.91 8.016-2.78 1.888-6.06 2.832-9.84 2.832-3.2 0-6.09-.72-8.68-2.16-2.56-1.472-4.6-3.504-6.1-6.096-1.47-2.592-2.21-5.536-2.21-8.832Zm50.29 17.232c-2.56 0-4.87-.56-6.92-1.68-2.04-1.152-3.66-2.768-4.84-4.848-1.16-2.08-1.73-4.48-1.73-7.2 0-2.72.59-5.12 1.77-7.2 1.22-2.08 2.87-3.68 4.95-4.8 2.08-1.152 4.4-1.728 6.96-1.728 2.56 0 4.88.576 6.96 1.728 2.08 1.12 3.71 2.72 4.89 4.8 1.22 2.08 1.83 4.48 1.83 7.2 0 2.72-.63 5.12-1.87 7.2a12.749 12.749 0 0 1-5 4.848c-2.08 1.12-4.41 1.68-7 1.68Zm0-5.856c1.21 0 2.35-.288 3.4-.864 1.09-.608 1.96-1.504 2.6-2.688.64-1.184.96-2.624.96-4.32 0-2.528-.68-4.464-2.02-5.808-1.31-1.376-2.93-2.064-4.85-2.064-1.92 0-3.53.688-4.85 2.064-1.28 1.344-1.92 3.28-1.92 5.808s.63 4.48 1.88 5.856c1.28 1.344 2.88 2.016 4.8 2.016Zm51.82-21.552c3.27 0 5.89 1.008 7.87 3.024 2.02 1.984 3.03 4.768 3.03 8.352V818h-6.72v-14.688c0-2.08-.53-3.664-1.59-4.752-1.05-1.12-2.49-1.68-4.32-1.68-1.82 0-3.28.56-4.36 1.68-1.06 1.088-1.59 2.672-1.59 4.752V818h-6.72v-14.688c0-2.08-.53-3.664-1.58-4.752-1.06-1.12-2.5-1.68-4.32-1.68-1.86 0-3.33.56-4.42 1.68-1.05 1.088-1.58 2.672-1.58 4.752V818h-6.72v-26.592h6.72v3.216c.86-1.12 1.97-2 3.31-2.64 1.38-.64 2.88-.96 4.51-.96 2.08 0 3.94.448 5.57 1.344a9.071 9.071 0 0 1 3.79 3.744c.87-1.536 2.11-2.768 3.75-3.696a10.827 10.827 0 0 1 5.37-1.392Zm50.3 0c3.26 0 5.89 1.008 7.87 3.024 2.02 1.984 3.02 4.768 3.02 8.352V818h-6.72v-14.688c0-2.08-.52-3.664-1.58-4.752-1.06-1.12-2.5-1.68-4.32-1.68-1.82 0-3.28.56-4.37 1.68-1.05 1.088-1.58 2.672-1.58 4.752V818h-6.72v-14.688c0-2.08-.53-3.664-1.59-4.752-1.05-1.12-2.49-1.68-4.32-1.68-1.85 0-3.32.56-4.41 1.68-1.06 1.088-1.59 2.672-1.59 4.752V818h-6.72v-26.592h6.72v3.216c.87-1.12 1.97-2 3.32-2.64 1.37-.64 2.88-.96 4.51-.96 2.08 0 3.93.448 5.57 1.344 1.63.864 2.89 2.112 3.79 3.744.86-1.536 2.11-2.768 3.74-3.696a10.892 10.892 0 0 1 5.38-1.392Zm41.99 13.104c0 .96-.06 1.824-.19 2.592h-19.44c.16 1.92.83 3.424 2.02 4.512 1.18 1.088 2.64 1.632 4.36 1.632 2.5 0 4.28-1.072 5.33-3.216h7.25c-.77 2.56-2.24 4.672-4.42 6.336-2.17 1.632-4.84 2.448-8.01 2.448-2.56 0-4.87-.56-6.91-1.68-2.02-1.152-3.6-2.768-4.76-4.848-1.12-2.08-1.68-4.48-1.68-7.2 0-2.752.56-5.168 1.68-7.248 1.12-2.08 2.69-3.68 4.71-4.8 2.01-1.12 4.33-1.68 6.96-1.68 2.53 0 4.78.544 6.77 1.632a11.29 11.29 0 0 1 4.65 4.656c1.12 1.984 1.68 4.272 1.68 6.864Zm-6.96-1.92c-.03-1.728-.65-3.104-1.87-4.128-1.22-1.056-2.7-1.584-4.46-1.584-1.67 0-3.08.512-4.23 1.536-1.12.992-1.81 2.384-2.06 4.176h12.62Zm26.6-11.184c3.17 0 5.73 1.008 7.68 3.024 1.95 1.984 2.93 4.768 2.93 8.352V818h-6.72v-14.688c0-2.112-.53-3.728-1.58-4.848-1.06-1.152-2.5-1.728-4.32-1.728-1.86 0-3.33.576-4.42 1.728-1.06 1.12-1.58 2.736-1.58 4.848V818h-6.72v-26.592h6.72v3.312c.89-1.152 2.03-2.048 3.4-2.688 1.41-.672 2.95-1.008 4.61-1.008Zm24.82 5.904v12.864c0 .896.21 1.552.63 1.968.45.384 1.18.576 2.21.576h3.12V818h-4.23c-5.66 0-8.49-2.752-8.49-8.256v-12.816h-3.17v-5.52h3.17v-6.576h6.76v6.576h5.96v5.52h-5.96Zm-233.76 93.504c-2.56 0-4.87-.56-6.91-1.68-2.05-1.152-3.67-2.768-4.85-4.848-1.15-2.08-1.73-4.48-1.73-7.2 0-2.72.59-5.12 1.78-7.2 1.21-2.08 2.86-3.68 4.94-4.8 2.08-1.152 4.4-1.728 6.96-1.728 2.56 0 4.88.576 6.96 1.728 2.08 1.12 3.71 2.72 4.9 4.8 1.21 2.08 1.82 4.48 1.82 7.2 0 2.72-.62 5.12-1.87 7.2a12.79 12.79 0 0 1-4.99 4.848c-2.08 1.12-4.42 1.68-7.01 1.68Zm0-5.856c1.21 0 2.35-.288 3.41-.864 1.08-.608 1.95-1.504 2.59-2.688.64-1.184.96-2.624.96-4.32 0-2.528-.67-4.464-2.02-5.808-1.31-1.376-2.93-2.064-4.85-2.064-1.92 0-3.53.688-4.84 2.064-1.28 1.344-1.92 3.28-1.92 5.808s.62 4.48 1.87 5.856c1.28 1.344 2.88 2.016 4.8 2.016Zm33.54-21.552c3.16 0 5.72 1.008 7.68 3.024 1.95 1.984 2.92 4.768 2.92 8.352V890h-6.72v-14.688c0-2.112-.52-3.728-1.58-4.848-1.06-1.152-2.5-1.728-4.32-1.728-1.86 0-3.33.576-4.42 1.728-1.05 1.12-1.58 2.736-1.58 4.848V890h-6.72v-26.592h6.72v3.312a9.118 9.118 0 0 1 3.41-2.688c1.41-.672 2.94-1.008 4.61-1.008Zm48.98 20.592h-13.35l-2.21 6.384h-7.05l12.05-33.552h7.82L2550.6 890h-7.11l-2.2-6.384Zm-1.83-5.376-4.85-14.016-4.84 14.016h9.69Zm22.36-10.704c.87-1.408 1.99-2.512 3.36-3.312 1.41-.8 3.01-1.2 4.8-1.2v7.056h-1.77c-2.12 0-3.72.496-4.8 1.488-1.06.992-1.59 2.72-1.59 5.184V890h-6.72v-26.592h6.72v4.128Zm20.51 1.392v12.864c0 .896.21 1.552.63 1.968.44.384 1.18.576 2.2.576h3.12V890h-4.22c-5.66 0-8.5-2.752-8.5-8.256v-12.816h-3.16v-5.52h3.16v-6.576h6.77v6.576h5.95v5.52h-5.95Zm47.65-5.52L2622.2 890h-7.24l-4.85-18.576-4.85 18.576h-7.3l-7.82-26.592h6.82l4.7 20.256 5.09-20.256h7.1l4.99 20.208 4.71-20.208h6.43Zm15.44 27.024c-2.56 0-4.86-.56-6.91-1.68-2.05-1.152-3.66-2.768-4.85-4.848-1.15-2.08-1.72-4.48-1.72-7.2 0-2.72.59-5.12 1.77-7.2 1.22-2.08 2.87-3.68 4.95-4.8 2.08-1.152 4.4-1.728 6.96-1.728 2.56 0 4.88.576 6.96 1.728 2.08 1.12 3.71 2.72 4.89 4.8 1.22 2.08 1.83 4.48 1.83 7.2 0 2.72-.63 5.12-1.88 7.2a12.723 12.723 0 0 1-4.99 4.848c-2.08 1.12-4.41 1.68-7.01 1.68Zm0-5.856c1.22 0 2.36-.288 3.41-.864 1.09-.608 1.95-1.504 2.59-2.688.64-1.184.96-2.624.96-4.32 0-2.528-.67-4.464-2.01-5.808-1.31-1.376-2.93-2.064-4.85-2.064-1.92 0-3.54.688-4.85 2.064-1.28 1.344-1.92 3.28-1.92 5.808s.63 4.48 1.87 5.856c1.28 1.344 2.88 2.016 4.8 2.016Zm25.53-17.04c.86-1.408 1.98-2.512 3.36-3.312 1.4-.8 3-1.2 4.8-1.2v7.056h-1.78c-2.11 0-3.71.496-4.8 1.488-1.06.992-1.58 2.72-1.58 5.184V890h-6.72v-26.592h6.72v4.128ZM2699.38 890l-9.03-11.328V890h-6.72v-35.52h6.72v20.208l8.93-11.28h8.74l-11.72 13.344L2708.11 890h-8.73ZM1920.61 818.336c-2.34 0-4.45-.4-6.34-1.2-1.86-.8-3.33-1.952-4.42-3.456-1.08-1.504-1.64-3.28-1.68-5.328h7.2c.1 1.376.58 2.464 1.44 3.264.9.8 2.12 1.2 3.65 1.2 1.57 0 2.8-.368 3.7-1.104.89-.768 1.34-1.76 1.34-2.976 0-.992-.3-1.808-.91-2.448-.61-.64-1.38-1.136-2.3-1.488-.9-.384-2.15-.8-3.75-1.248-2.17-.64-3.95-1.264-5.33-1.872-1.34-.64-2.51-1.584-3.5-2.832-.96-1.28-1.44-2.976-1.44-5.088 0-1.984.5-3.712 1.49-5.184s2.38-2.592 4.17-3.36c1.8-.8 3.84-1.2 6.15-1.2 3.45 0 6.25.848 8.4 2.544 2.17 1.664 3.37 4 3.6 7.008h-7.39c-.07-1.152-.56-2.096-1.49-2.832-.9-.768-2.1-1.152-3.6-1.152-1.31 0-2.37.336-3.17 1.008-.77.672-1.15 1.648-1.15 2.928 0 .896.29 1.648.86 2.256.61.576 1.35 1.056 2.21 1.44.9.352 2.14.768 3.74 1.248 2.18.64 3.96 1.28 5.33 1.92 1.38.64 2.56 1.6 3.55 2.88 1 1.28 1.49 2.96 1.49 5.04a9.46 9.46 0 0 1-1.39 4.992c-.93 1.536-2.29 2.768-4.08 3.696-1.79.896-3.92 1.344-6.38 1.344Zm32.65-27.312c2.02 0 3.81.448 5.38 1.344 1.57.864 2.78 2.16 3.65 3.888.89 1.696 1.34 3.744 1.34 6.144V818h-6.72v-14.688c0-2.112-.53-3.728-1.58-4.848-1.06-1.152-2.5-1.728-4.32-1.728-1.86 0-3.33.576-4.42 1.728-1.05 1.12-1.58 2.736-1.58 4.848V818h-6.72v-35.52h6.72v12.24c.86-1.152 2.01-2.048 3.45-2.688 1.44-.672 3.04-1.008 4.8-1.008Zm15.03 13.584c0-2.688.53-5.072 1.59-7.152 1.09-2.08 2.54-3.68 4.37-4.8 1.85-1.12 3.92-1.68 6.19-1.68 1.98 0 3.71.4 5.18 1.2 1.51.8 2.71 1.808 3.6 3.024v-3.792h6.77V818h-6.77v-3.888c-.86 1.248-2.06 2.288-3.6 3.12-1.5.8-3.25 1.2-5.23 1.2-2.24 0-4.29-.576-6.14-1.728-1.83-1.152-3.28-2.768-4.37-4.848-1.06-2.112-1.59-4.528-1.59-7.248Zm20.93.096c0-1.632-.32-3.024-.96-4.176-.64-1.184-1.5-2.08-2.59-2.688a6.807 6.807 0 0 0-3.5-.96c-1.25 0-2.4.304-3.46.912-1.06.608-1.92 1.504-2.59 2.688-.64 1.152-.96 2.528-.96 4.128s.32 3.008.96 4.224c.67 1.184 1.53 2.096 2.59 2.736 1.09.64 2.24.96 3.46.96 1.24 0 2.41-.304 3.5-.912 1.09-.64 1.95-1.536 2.59-2.688.64-1.184.96-2.592.96-4.224Zm20.05-9.168c.87-1.408 1.99-2.512 3.36-3.312 1.41-.8 3.01-1.2 4.8-1.2v7.056h-1.77c-2.11 0-3.71.496-4.8 1.488-1.06.992-1.59 2.72-1.59 5.184V818h-6.72v-26.592h6.72v4.128Zm37.41 8.592c0 .96-.06 1.824-.19 2.592h-19.44c.16 1.92.83 3.424 2.01 4.512 1.19 1.088 2.64 1.632 4.37 1.632 2.5 0 4.27-1.072 5.33-3.216h7.25c-.77 2.56-2.24 4.672-4.42 6.336-2.17 1.632-4.85 2.448-8.01 2.448-2.56 0-4.87-.56-6.92-1.68-2.01-1.152-3.6-2.768-4.75-4.848-1.12-2.08-1.68-4.48-1.68-7.2 0-2.752.56-5.168 1.68-7.248 1.12-2.08 2.69-3.68 4.71-4.8 2.01-1.12 4.33-1.68 6.96-1.68 2.52 0 4.78.544 6.76 1.632a11.256 11.256 0 0 1 4.66 4.656c1.12 1.984 1.68 4.272 1.68 6.864Zm-6.96-1.92c-.03-1.728-.66-3.104-1.87-4.128-1.22-1.056-2.71-1.584-4.47-1.584-1.66 0-3.07.512-4.22 1.536-1.12.992-1.81 2.384-2.06 4.176h12.62Zm-134.32 81.408h-13.35l-2.21 6.384h-7.05l12.05-33.552h7.82L1914.71 890h-7.11l-2.2-6.384Zm-1.83-5.376-4.85-14.016-4.84 14.016h9.69Zm22.36-10.704c.86-1.408 1.98-2.512 3.36-3.312 1.41-.8 3.01-1.2 4.8-1.2v7.056h-1.78c-2.11 0-3.71.496-4.8 1.488-1.05.992-1.58 2.72-1.58 5.184V890h-6.72v-26.592h6.72v4.128Zm20.51 1.392v12.864c0 .896.21 1.552.62 1.968.45.384 1.19.576 2.21.576h3.12V890h-4.22c-5.67 0-8.5-2.752-8.5-8.256v-12.816h-3.17v-5.52h3.17v-6.576h6.77v6.576h5.95v5.52h-5.95Zm47.65-5.52L1986.31 890h-7.24l-4.85-18.576-4.85 18.576h-7.3l-7.82-26.592h6.82l4.7 20.256 5.09-20.256h7.1l4.99 20.208 4.71-20.208h6.43Zm15.44 27.024c-2.56 0-4.86-.56-6.91-1.68-2.05-1.152-3.66-2.768-4.85-4.848-1.15-2.08-1.72-4.48-1.72-7.2 0-2.72.59-5.12 1.77-7.2 1.22-2.08 2.87-3.68 4.95-4.8 2.08-1.152 4.4-1.728 6.96-1.728 2.56 0 4.88.576 6.96 1.728 2.08 1.12 3.71 2.72 4.89 4.8 1.22 2.08 1.83 4.48 1.83 7.2 0 2.72-.63 5.12-1.88 7.2a12.723 12.723 0 0 1-4.99 4.848c-2.08 1.12-4.41 1.68-7.01 1.68Zm0-5.856c1.22 0 2.36-.288 3.41-.864 1.09-.608 1.95-1.504 2.59-2.688.64-1.184.96-2.624.96-4.32 0-2.528-.67-4.464-2.01-5.808-1.31-1.376-2.93-2.064-4.85-2.064-1.92 0-3.54.688-4.85 2.064-1.28 1.344-1.92 3.28-1.92 5.808s.63 4.48 1.87 5.856c1.28 1.344 2.88 2.016 4.8 2.016Zm25.53-17.04c.86-1.408 1.98-2.512 3.36-3.312 1.4-.8 3-1.2 4.8-1.2v7.056h-1.78c-2.11 0-3.71.496-4.8 1.488-1.06.992-1.58 2.72-1.58 5.184V890h-6.72v-26.592h6.72v4.128ZM2063.49 890l-9.03-11.328V890h-6.72v-35.52h6.72v20.208l8.93-11.28h8.74l-11.72 13.344L2072.22 890h-8.73ZM1281.63 784.496 1269.35 818h-8.16l-12.29-33.504h7.2l9.21 26.64 9.17-26.64h7.15Zm7.44 3.744c-1.18 0-2.17-.368-2.97-1.104-.77-.768-1.16-1.712-1.16-2.832 0-1.12.39-2.048 1.16-2.784.8-.768 1.79-1.152 2.97-1.152 1.19 0 2.16.384 2.93 1.152.8.736 1.2 1.664 1.2 2.784 0 1.12-.4 2.064-1.2 2.832-.77.736-1.74 1.104-2.93 1.104Zm3.31 3.168V818h-6.72v-26.592h6.72Zm31.36 12.72c0 .96-.06 1.824-.19 2.592h-19.44c.16 1.92.83 3.424 2.02 4.512 1.18 1.088 2.64 1.632 4.36 1.632 2.5 0 4.28-1.072 5.33-3.216h7.25c-.77 2.56-2.24 4.672-4.42 6.336-2.17 1.632-4.84 2.448-8.01 2.448-2.56 0-4.87-.56-6.91-1.68-2.02-1.152-3.6-2.768-4.76-4.848-1.12-2.08-1.68-4.48-1.68-7.2 0-2.752.56-5.168 1.68-7.248 1.12-2.08 2.69-3.68 4.71-4.8 2.01-1.12 4.33-1.68 6.96-1.68 2.53 0 4.78.544 6.77 1.632a11.29 11.29 0 0 1 4.65 4.656c1.12 1.984 1.68 4.272 1.68 6.864Zm-6.96-1.92c-.03-1.728-.65-3.104-1.87-4.128-1.22-1.056-2.7-1.584-4.46-1.584-1.67 0-3.08.512-4.23 1.536-1.12.992-1.81 2.384-2.06 4.176h12.62Zm48.73-10.8L1357.74 818h-7.25l-4.85-18.576-4.85 18.576h-7.29l-7.83-26.592h6.82l4.7 20.256 5.09-20.256h7.1l5 20.208 4.7-20.208h6.43Zm35.62 20.208h-13.34l-2.21 6.384h-7.06l12.05-33.552h7.82L1410.44 818h-7.1l-2.21-6.384Zm-1.82-5.376-4.85-14.016-4.85 14.016h9.7Zm22.35-10.704c.87-1.408 1.99-2.512 3.36-3.312 1.41-.8 3.01-1.2 4.8-1.2v7.056h-1.77c-2.11 0-3.71.496-4.8 1.488-1.06.992-1.59 2.72-1.59 5.184V818h-6.72v-26.592h6.72v4.128Zm20.52 1.392v12.864c0 .896.2 1.552.62 1.968.45.384 1.18.576 2.21.576h3.12V818h-4.23c-5.66 0-8.49-2.752-8.49-8.256v-12.816h-3.17v-5.52h3.17v-6.576h6.77v6.576h5.95v5.52h-5.95Zm14.19-8.688c-1.19 0-2.18-.368-2.98-1.104-.77-.768-1.15-1.712-1.15-2.832 0-1.12.38-2.048 1.15-2.784.8-.768 1.79-1.152 2.98-1.152 1.18 0 2.16.384 2.93 1.152.8.736 1.2 1.664 1.2 2.784 0 1.12-.4 2.064-1.2 2.832-.77.736-1.75 1.104-2.93 1.104Zm3.31 3.168V818h-6.72v-26.592h6.72Zm16.82 27.024c-2.18 0-4.13-.384-5.86-1.152-1.73-.8-3.1-1.872-4.13-3.216a8.228 8.228 0 0 1-1.63-4.464h6.77c.13 1.024.62 1.872 1.49 2.544.89.672 2 1.008 3.31 1.008 1.28 0 2.27-.256 2.97-.768.74-.512 1.11-1.168 1.11-1.968 0-.864-.45-1.504-1.35-1.92-.86-.448-2.25-.928-4.17-1.44-1.99-.48-3.62-.976-4.9-1.488-1.25-.512-2.33-1.296-3.26-2.352-.9-1.056-1.35-2.48-1.35-4.272 0-1.472.42-2.816 1.25-4.032.87-1.216 2.08-2.176 3.65-2.88 1.6-.704 3.47-1.056 5.62-1.056 3.16 0 5.69.8 7.58 2.4 1.89 1.568 2.93 3.696 3.12 6.384h-6.43c-.1-1.056-.55-1.888-1.35-2.496-.76-.64-1.8-.96-3.12-.96-1.21 0-2.16.224-2.83.672-.64.448-.96 1.072-.96 1.872 0 .896.45 1.584 1.35 2.064.89.448 2.28.912 4.17 1.392 1.92.48 3.51.976 4.75 1.488 1.25.512 2.32 1.312 3.22 2.4.93 1.056 1.41 2.464 1.44 4.224 0 1.536-.43 2.912-1.3 4.128-.83 1.216-2.04 2.176-3.64 2.88-1.57.672-3.41 1.008-5.52 1.008Zm23.8-21.504v12.864c0 .896.21 1.552.62 1.968.45.384 1.19.576 2.21.576h3.12V818h-4.22c-5.67 0-8.5-2.752-8.5-8.256v-12.816h-3.17v-5.52h3.17v-6.576h6.77v6.576h5.95v5.52h-5.95Zm-170.61 69.936c0 1.792-.43 3.472-1.3 5.04-.83 1.568-2.16 2.832-3.98 3.792-1.79.96-4.06 1.44-6.82 1.44h-5.61V890h-6.72v-33.504h12.33c2.6 0 4.8.448 6.63 1.344 1.82.896 3.18 2.128 4.08 3.696.93 1.568 1.39 3.344 1.39 5.328Zm-12.38 4.848c1.85 0 3.23-.416 4.12-1.248.9-.864 1.35-2.064 1.35-3.6 0-3.264-1.83-4.896-5.47-4.896h-5.33v9.744h5.33Zm23.87-4.176c.86-1.408 1.98-2.512 3.36-3.312 1.41-.8 3.01-1.2 4.8-1.2v7.056h-1.78c-2.11 0-3.71.496-4.8 1.488-1.05.992-1.58 2.72-1.58 5.184V890h-6.72v-26.592h6.72v4.128Zm24.49 22.896c-2.56 0-4.86-.56-6.91-1.68-2.05-1.152-3.66-2.768-4.85-4.848-1.15-2.08-1.72-4.48-1.72-7.2 0-2.72.59-5.12 1.77-7.2 1.22-2.08 2.87-3.68 4.95-4.8 2.08-1.152 4.4-1.728 6.96-1.728 2.56 0 4.88.576 6.96 1.728 2.08 1.12 3.71 2.72 4.89 4.8 1.22 2.08 1.83 4.48 1.83 7.2 0 2.72-.63 5.12-1.88 7.2a12.723 12.723 0 0 1-4.99 4.848c-2.08 1.12-4.41 1.68-7.01 1.68Zm0-5.856c1.22 0 2.36-.288 3.41-.864 1.09-.608 1.95-1.504 2.59-2.688.64-1.184.96-2.624.96-4.32 0-2.528-.67-4.464-2.01-5.808-1.31-1.376-2.93-2.064-4.85-2.064-1.92 0-3.54.688-4.85 2.064-1.28 1.344-1.92 3.28-1.92 5.808s.63 4.48 1.87 5.856c1.28 1.344 2.88 2.016 4.8 2.016Zm31-15.648h-4.66V890h-6.81v-21.072h-3.03v-5.52h3.03v-1.344c0-3.264.92-5.664 2.78-7.2 1.86-1.536 4.66-2.256 8.4-2.16v5.664c-1.63-.032-2.77.24-3.41.816-.64.576-.96 1.616-.96 3.12v1.104h4.66v5.52Zm7.76-8.688c-1.18 0-2.18-.368-2.98-1.104-.76-.768-1.15-1.712-1.15-2.832 0-1.12.39-2.048 1.15-2.784.8-.768 1.8-1.152 2.98-1.152s2.16.384 2.93 1.152c.8.736 1.2 1.664 1.2 2.784 0 1.12-.4 2.064-1.2 2.832-.77.736-1.75 1.104-2.93 1.104Zm3.31 3.168V890h-6.72v-26.592h6.72Zm13.36-8.928V890h-6.72v-35.52h6.72Zm31.36 21.648c0 .96-.06 1.824-.19 2.592h-19.44c.16 1.92.83 3.424 2.02 4.512 1.18 1.088 2.64 1.632 4.36 1.632 2.5 0 4.28-1.072 5.33-3.216h7.25c-.77 2.56-2.24 4.672-4.42 6.336-2.17 1.632-4.84 2.448-8.01 2.448-2.56 0-4.87-.56-6.91-1.68-2.02-1.152-3.6-2.768-4.76-4.848-1.12-2.08-1.68-4.48-1.68-7.2 0-2.752.56-5.168 1.68-7.248 1.12-2.08 2.69-3.68 4.71-4.8 2.01-1.12 4.33-1.68 6.96-1.68 2.53 0 4.78.544 6.77 1.632a11.29 11.29 0 0 1 4.65 4.656c1.12 1.984 1.68 4.272 1.68 6.864Zm-6.96-1.92c-.03-1.728-.65-3.104-1.87-4.128-1.22-1.056-2.7-1.584-4.46-1.584-1.67 0-3.08.512-4.23 1.536-1.12.992-1.81 2.384-2.06 4.176h12.62ZM655.086 784.496v5.424h-13.968v8.592h10.704v5.328h-10.704V818h-6.72v-33.504h20.688Zm16.573 33.936c-2.56 0-4.864-.56-6.912-1.68-2.048-1.152-3.664-2.768-4.848-4.848-1.152-2.08-1.728-4.48-1.728-7.2 0-2.72.592-5.12 1.776-7.2 1.216-2.08 2.864-3.68 4.944-4.8 2.08-1.152 4.4-1.728 6.96-1.728 2.56 0 4.88.576 6.96 1.728 2.08 1.12 3.712 2.72 4.896 4.8 1.216 2.08 1.824 4.48 1.824 7.2 0 2.72-.624 5.12-1.872 7.2a12.755 12.755 0 0 1-4.992 4.848c-2.08 1.12-4.416 1.68-7.008 1.68Zm0-5.856a7.006 7.006 0 0 0 3.408-.864c1.088-.608 1.952-1.504 2.592-2.688.64-1.184.96-2.624.96-4.32 0-2.528-.672-4.464-2.016-5.808-1.312-1.376-2.928-2.064-4.848-2.064s-3.536.688-4.848 2.064c-1.28 1.344-1.92 3.28-1.92 5.808s.624 4.48 1.872 5.856c1.28 1.344 2.88 2.016 4.8 2.016Zm25.521-30.096V818h-6.72v-35.52h6.72Zm13.36 0V818h-6.72v-35.52h6.72Zm18.447 35.952c-2.56 0-4.864-.56-6.912-1.68-2.048-1.152-3.664-2.768-4.848-4.848-1.152-2.08-1.728-4.48-1.728-7.2 0-2.72.592-5.12 1.776-7.2 1.216-2.08 2.864-3.68 4.944-4.8 2.08-1.152 4.4-1.728 6.96-1.728 2.56 0 4.88.576 6.96 1.728 2.08 1.12 3.712 2.72 4.896 4.8 1.216 2.08 1.824 4.48 1.824 7.2 0 2.72-.624 5.12-1.872 7.2a12.755 12.755 0 0 1-4.992 4.848c-2.08 1.12-4.416 1.68-7.008 1.68Zm0-5.856a7.006 7.006 0 0 0 3.408-.864c1.088-.608 1.952-1.504 2.592-2.688.64-1.184.96-2.624.96-4.32 0-2.528-.672-4.464-2.016-5.808-1.312-1.376-2.928-2.064-4.848-2.064s-3.536.688-4.848 2.064c-1.28 1.344-1.92 3.28-1.92 5.808s.624 4.48 1.872 5.856c1.28 1.344 2.88 2.016 4.8 2.016Zm55.666-21.168L776.877 818h-7.248l-4.848-18.576L759.933 818h-7.296l-7.824-26.592h6.816l4.704 20.256 5.088-20.256h7.104l4.992 20.208 4.704-20.208h6.432Zm35.617 20.208h-13.344L804.718 818h-7.056l12.048-33.552h7.824L829.582 818h-7.104l-2.208-6.384Zm-1.824-5.376-4.848-14.016-4.848 14.016h9.696Zm22.359-10.704c.864-1.408 1.984-2.512 3.36-3.312 1.408-.8 3.008-1.2 4.8-1.2v7.056h-1.776c-2.112 0-3.712.496-4.8 1.488-1.056.992-1.584 2.72-1.584 5.184V818h-6.72v-26.592h6.72v4.128Zm20.511 1.392v12.864c0 .896.208 1.552.624 1.968.448.384 1.184.576 2.208.576h3.12V818h-4.224c-5.664 0-8.496-2.752-8.496-8.256v-12.816h-3.168v-5.52h3.168v-6.576h6.768v6.576h5.952v5.52h-5.952Zm14.193-8.688c-1.184 0-2.176-.368-2.976-1.104-.768-.768-1.152-1.712-1.152-2.832 0-1.12.384-2.048 1.152-2.784.8-.768 1.792-1.152 2.976-1.152s2.16.384 2.928 1.152c.8.736 1.2 1.664 1.2 2.784 0 1.12-.4 2.064-1.2 2.832-.768.736-1.744 1.104-2.928 1.104Zm3.312 3.168V818h-6.72v-26.592h6.72Zm16.815 27.024c-2.176 0-4.128-.384-5.856-1.152-1.728-.8-3.104-1.872-4.128-3.216-.992-1.344-1.536-2.832-1.632-4.464h6.768c.128 1.024.624 1.872 1.488 2.544.896.672 2 1.008 3.312 1.008 1.28 0 2.272-.256 2.976-.768.736-.512 1.104-1.168 1.104-1.968 0-.864-.448-1.504-1.344-1.92-.864-.448-2.256-.928-4.176-1.44-1.984-.48-3.616-.976-4.896-1.488-1.248-.512-2.336-1.296-3.264-2.352-.896-1.056-1.344-2.48-1.344-4.272 0-1.472.416-2.816 1.248-4.032.864-1.216 2.08-2.176 3.648-2.88 1.6-.704 3.472-1.056 5.616-1.056 3.168 0 5.696.8 7.584 2.4 1.888 1.568 2.928 3.696 3.12 6.384h-6.432c-.096-1.056-.544-1.888-1.344-2.496-.768-.64-1.808-.96-3.12-.96-1.216 0-2.16.224-2.832.672-.64.448-.96 1.072-.96 1.872 0 .896.448 1.584 1.344 2.064.896.448 2.288.912 4.176 1.392 1.92.48 3.504.976 4.752 1.488 1.248.512 2.32 1.312 3.216 2.4.928 1.056 1.408 2.464 1.44 4.224 0 1.536-.432 2.912-1.296 4.128-.832 1.216-2.048 2.176-3.648 2.88-1.568.672-3.408 1.008-5.52 1.008Zm23.805-21.504v12.864c0 .896.208 1.552.624 1.968.448.384 1.184.576 2.208.576h3.12V818h-4.224c-5.664 0-8.496-2.752-8.496-8.256v-12.816h-3.168v-5.52h3.168v-6.576h6.768v6.576h5.952v5.52h-5.952Zm-249.282 93.504c-2.56 0-4.864-.56-6.912-1.68-2.048-1.152-3.664-2.768-4.848-4.848-1.152-2.08-1.728-4.48-1.728-7.2 0-2.72.592-5.12 1.776-7.2 1.216-2.08 2.864-3.68 4.944-4.8 2.08-1.152 4.4-1.728 6.96-1.728 2.56 0 4.88.576 6.96 1.728 2.08 1.12 3.712 2.72 4.896 4.8 1.216 2.08 1.824 4.48 1.824 7.2 0 2.72-.624 5.12-1.872 7.2a12.755 12.755 0 0 1-4.992 4.848c-2.08 1.12-4.416 1.68-7.008 1.68Zm0-5.856a7.006 7.006 0 0 0 3.408-.864c1.088-.608 1.952-1.504 2.592-2.688.64-1.184.96-2.624.96-4.32 0-2.528-.672-4.464-2.016-5.808-1.312-1.376-2.928-2.064-4.848-2.064s-3.536.688-4.848 2.064c-1.28 1.344-1.92 3.28-1.92 5.808s.624 4.48 1.872 5.856c1.28 1.344 2.88 2.016 4.8 2.016Zm33.537-21.552c3.168 0 5.728 1.008 7.68 3.024 1.952 1.984 2.928 4.768 2.928 8.352V890h-6.72v-14.688c0-2.112-.528-3.728-1.584-4.848-1.056-1.152-2.496-1.728-4.32-1.728-1.856 0-3.328.576-4.416 1.728-1.056 1.12-1.584 2.736-1.584 4.848V890h-6.72v-26.592h6.72v3.312c.896-1.152 2.032-2.048 3.408-2.688 1.408-.672 2.944-1.008 4.608-1.008Zm40.004 27.312c-2.336 0-4.448-.4-6.336-1.2-1.856-.8-3.328-1.952-4.416-3.456-1.088-1.504-1.648-3.28-1.68-5.328h7.2c.096 1.376.576 2.464 1.44 3.264.896.8 2.112 1.2 3.648 1.2 1.568 0 2.8-.368 3.696-1.104.896-.768 1.344-1.76 1.344-2.976 0-.992-.304-1.808-.912-2.448-.608-.64-1.376-1.136-2.304-1.488-.896-.384-2.144-.8-3.744-1.248-2.176-.64-3.952-1.264-5.328-1.872-1.344-.64-2.512-1.584-3.504-2.832-.96-1.28-1.44-2.976-1.44-5.088 0-1.984.496-3.712 1.488-5.184s2.384-2.592 4.176-3.36c1.792-.8 3.84-1.2 6.144-1.2 3.456 0 6.256.848 8.4 2.544 2.176 1.664 3.376 4 3.6 7.008h-7.392c-.064-1.152-.56-2.096-1.488-2.832-.896-.768-2.096-1.152-3.6-1.152-1.312 0-2.368.336-3.168 1.008-.768.672-1.152 1.648-1.152 2.928 0 .896.288 1.648.864 2.256.608.576 1.344 1.056 2.208 1.44.896.352 2.144.768 3.744 1.248 2.176.64 3.952 1.28 5.328 1.92 1.376.64 2.56 1.6 3.552 2.88.992 1.28 1.488 2.96 1.488 5.04a9.48 9.48 0 0 1-1.392 4.992c-.928 1.536-2.288 2.768-4.08 3.696-1.792.896-3.92 1.344-6.384 1.344Zm29.49.096c-2.56 0-4.864-.56-6.912-1.68-2.048-1.152-3.664-2.768-4.848-4.848-1.152-2.08-1.728-4.48-1.728-7.2 0-2.72.592-5.12 1.776-7.2 1.216-2.08 2.864-3.68 4.944-4.8 2.08-1.152 4.4-1.728 6.96-1.728 2.56 0 4.88.576 6.96 1.728 2.08 1.12 3.712 2.72 4.896 4.8 1.216 2.08 1.824 4.48 1.824 7.2 0 2.72-.624 5.12-1.872 7.2a12.755 12.755 0 0 1-4.992 4.848c-2.08 1.12-4.416 1.68-7.008 1.68Zm0-5.856a7.006 7.006 0 0 0 3.408-.864c1.088-.608 1.952-1.504 2.592-2.688.64-1.184.96-2.624.96-4.32 0-2.528-.672-4.464-2.016-5.808-1.312-1.376-2.928-2.064-4.848-2.064s-3.536.688-4.848 2.064c-1.28 1.344-1.92 3.28-1.92 5.808s.624 4.48 1.872 5.856c1.28 1.344 2.88 2.016 4.8 2.016Zm17.074-7.872c0-2.752.56-5.152 1.68-7.2 1.12-2.08 2.672-3.68 4.656-4.8 1.984-1.152 4.256-1.728 6.816-1.728 3.296 0 6.016.832 8.16 2.496 2.176 1.632 3.632 3.936 4.368 6.912h-7.248c-.384-1.152-1.04-2.048-1.968-2.688-.896-.672-2.016-1.008-3.36-1.008-1.92 0-3.44.704-4.56 2.112-1.12 1.376-1.68 3.344-1.68 5.904 0 2.528.56 4.496 1.68 5.904 1.12 1.376 2.64 2.064 4.56 2.064 2.72 0 4.496-1.216 5.328-3.648h7.248c-.736 2.88-2.192 5.168-4.368 6.864-2.176 1.696-4.896 2.544-8.16 2.544-2.56 0-4.832-.56-6.816-1.68-1.984-1.152-3.536-2.752-4.656-4.8-1.12-2.08-1.68-4.496-1.68-7.248Zm34.011-16.464c-1.184 0-2.176-.368-2.976-1.104-.768-.768-1.152-1.712-1.152-2.832 0-1.12.384-2.048 1.152-2.784.8-.768 1.792-1.152 2.976-1.152s2.16.384 2.928 1.152c.8.736 1.2 1.664 1.2 2.784 0 1.12-.4 2.064-1.2 2.832-.768.736-1.744 1.104-2.928 1.104Zm3.312 3.168V890h-6.72v-26.592h6.72Zm4.911 13.2c0-2.688.528-5.072 1.584-7.152 1.088-2.08 2.544-3.68 4.368-4.8 1.856-1.12 3.92-1.68 6.192-1.68 1.984 0 3.712.4 5.184 1.2 1.504.8 2.704 1.808 3.6 3.024v-3.792h6.768V890h-6.768v-3.888c-.864 1.248-2.064 2.288-3.6 3.12-1.504.8-3.248 1.2-5.232 1.2-2.24 0-4.288-.576-6.144-1.728-1.824-1.152-3.28-2.768-4.368-4.848-1.056-2.112-1.584-4.528-1.584-7.248Zm20.928.096c0-1.632-.32-3.024-.96-4.176-.64-1.184-1.504-2.08-2.592-2.688a6.795 6.795 0 0 0-3.504-.96c-1.248 0-2.4.304-3.456.912-1.056.608-1.92 1.504-2.592 2.688-.64 1.152-.96 2.528-.96 4.128s.32 3.008.96 4.224c.672 1.184 1.536 2.096 2.592 2.736 1.088.64 2.24.96 3.456.96a7.069 7.069 0 0 0 3.504-.912c1.088-.64 1.952-1.536 2.592-2.688.64-1.184.96-2.592.96-4.224Zm20.051-22.224V890h-6.72v-35.52h6.72Zm16.816 35.952c-2.176 0-4.128-.384-5.856-1.152-1.728-.8-3.104-1.872-4.128-3.216-.992-1.344-1.536-2.832-1.632-4.464h6.768c.128 1.024.624 1.872 1.488 2.544.896.672 2 1.008 3.312 1.008 1.28 0 2.272-.256 2.976-.768.736-.512 1.104-1.168 1.104-1.968 0-.864-.448-1.504-1.344-1.92-.864-.448-2.256-.928-4.176-1.44-1.984-.48-3.616-.976-4.896-1.488-1.248-.512-2.336-1.296-3.264-2.352-.896-1.056-1.344-2.48-1.344-4.272 0-1.472.416-2.816 1.248-4.032.864-1.216 2.08-2.176 3.648-2.88 1.6-.704 3.472-1.056 5.616-1.056 3.168 0 5.696.8 7.584 2.4 1.888 1.568 2.928 3.696 3.12 6.384h-6.432c-.096-1.056-.544-1.888-1.344-2.496-.768-.64-1.808-.96-3.12-.96-1.216 0-2.16.224-2.832.672-.64.448-.96 1.072-.96 1.872 0 .896.448 1.584 1.344 2.064.896.448 2.288.912 4.176 1.392 1.92.48 3.504.976 4.752 1.488 1.248.512 2.32 1.312 3.216 2.4.928 1.056 1.408 2.464 1.44 4.224 0 1.536-.432 2.912-1.296 4.128-.832 1.216-2.048 2.176-3.648 2.88-1.568.672-3.408 1.008-5.52 1.008ZM70.03 818h-6.72l-15.216-22.992V818h-6.72v-33.552h6.72l15.216 23.04v-23.04h6.72V818Zm4.913-13.392c0-2.688.528-5.072 1.584-7.152 1.088-2.08 2.544-3.68 4.368-4.8 1.856-1.12 3.92-1.68 6.192-1.68 1.984 0 3.712.4 5.184 1.2 1.504.8 2.704 1.808 3.6 3.024v-3.792h6.768V818h-6.768v-3.888c-.864 1.248-2.064 2.288-3.6 3.12-1.504.8-3.248 1.2-5.232 1.2-2.24 0-4.288-.576-6.144-1.728-1.824-1.152-3.28-2.768-4.368-4.848-1.056-2.112-1.584-4.528-1.584-7.248Zm20.928.096c0-1.632-.32-3.024-.96-4.176-.64-1.184-1.504-2.08-2.592-2.688a6.795 6.795 0 0 0-3.504-.96c-1.248 0-2.4.304-3.456.912-1.056.608-1.92 1.504-2.592 2.688-.64 1.152-.96 2.528-.96 4.128s.32 3.008.96 4.224c.672 1.184 1.536 2.096 2.592 2.736 1.088.64 2.24.96 3.456.96a7.069 7.069 0 0 0 3.504-.912c1.088-.64 1.952-1.536 2.592-2.688.64-1.184.96-2.592.96-4.224Zm24.42 7.104 6.72-20.4h7.152L124.323 818h-8.16l-9.792-26.592h7.2l6.72 20.4Zm21.054-23.568c-1.184 0-2.176-.368-2.976-1.104-.768-.768-1.152-1.712-1.152-2.832 0-1.12.384-2.048 1.152-2.784.8-.768 1.792-1.152 2.976-1.152s2.16.384 2.928 1.152c.8.736 1.2 1.664 1.2 2.784 0 1.12-.4 2.064-1.2 2.832-.768.736-1.744 1.104-2.928 1.104Zm3.312 3.168V818h-6.72v-26.592h6.72Zm17.055-.432c1.984 0 3.728.4 5.232 1.2 1.504.768 2.688 1.776 3.552 3.024v-3.792h6.768v26.784c0 2.464-.496 4.656-1.488 6.576-.992 1.952-2.48 3.488-4.464 4.608-1.984 1.152-4.384 1.728-7.2 1.728-3.776 0-6.88-.88-9.312-2.64-2.4-1.76-3.76-4.16-4.08-7.2h6.672c.352 1.216 1.104 2.176 2.256 2.88 1.184.736 2.608 1.104 4.272 1.104 1.952 0 3.536-.592 4.752-1.776 1.216-1.152 1.824-2.912 1.824-5.28v-4.128c-.864 1.248-2.064 2.288-3.6 3.12-1.504.832-3.232 1.248-5.184 1.248-2.24 0-4.288-.576-6.144-1.728-1.856-1.152-3.328-2.768-4.416-4.848-1.056-2.112-1.584-4.528-1.584-7.248 0-2.688.528-5.072 1.584-7.152 1.088-2.08 2.544-3.68 4.368-4.8 1.856-1.12 3.92-1.68 6.192-1.68Zm8.784 13.728c0-1.632-.32-3.024-.96-4.176-.64-1.184-1.504-2.08-2.592-2.688a6.795 6.795 0 0 0-3.504-.96c-1.248 0-2.4.304-3.456.912-1.056.608-1.92 1.504-2.592 2.688-.64 1.152-.96 2.528-.96 4.128s.32 3.008.96 4.224c.672 1.184 1.536 2.096 2.592 2.736 1.088.64 2.24.96 3.456.96a7.069 7.069 0 0 0 3.504-.912c1.088-.64 1.952-1.536 2.592-2.688.64-1.184.96-2.592.96-4.224Zm11.604-.096c0-2.688.528-5.072 1.584-7.152 1.088-2.08 2.544-3.68 4.368-4.8 1.856-1.12 3.92-1.68 6.192-1.68 1.984 0 3.712.4 5.184 1.2 1.504.8 2.704 1.808 3.6 3.024v-3.792h6.768V818h-6.768v-3.888c-.864 1.248-2.064 2.288-3.6 3.12-1.504.8-3.248 1.2-5.232 1.2-2.24 0-4.288-.576-6.144-1.728-1.824-1.152-3.28-2.768-4.368-4.848-1.056-2.112-1.584-4.528-1.584-7.248Zm20.928.096c0-1.632-.32-3.024-.96-4.176-.64-1.184-1.504-2.08-2.592-2.688a6.795 6.795 0 0 0-3.504-.96c-1.248 0-2.4.304-3.456.912-1.056.608-1.92 1.504-2.592 2.688-.64 1.152-.96 2.528-.96 4.128s.32 3.008.96 4.224c.672 1.184 1.536 2.096 2.592 2.736 1.088.64 2.24.96 3.456.96a7.069 7.069 0 0 0 3.504-.912c1.088-.64 1.952-1.536 2.592-2.688.64-1.184.96-2.592.96-4.224Zm21.155-7.776v12.864c0 .896.208 1.552.624 1.968.448.384 1.184.576 2.208.576h3.12V818h-4.224c-5.664 0-8.496-2.752-8.496-8.256v-12.816h-3.168v-5.52h3.168v-6.576h6.768v6.576h5.952v5.52h-5.952Zm35.505 7.2c0 .96-.064 1.824-.192 2.592h-19.44c.16 1.92.832 3.424 2.016 4.512 1.184 1.088 2.64 1.632 4.368 1.632 2.496 0 4.272-1.072 5.328-3.216h7.248c-.768 2.56-2.24 4.672-4.416 6.336-2.176 1.632-4.848 2.448-8.016 2.448-2.56 0-4.864-.56-6.912-1.68-2.016-1.152-3.6-2.768-4.752-4.848-1.12-2.08-1.68-4.48-1.68-7.2 0-2.752.56-5.168 1.68-7.248 1.12-2.08 2.688-3.68 4.704-4.8 2.016-1.12 4.336-1.68 6.96-1.68 2.528 0 4.784.544 6.768 1.632a11.258 11.258 0 0 1 4.656 4.656c1.12 1.984 1.68 4.272 1.68 6.864Zm-6.96-1.92c-.032-1.728-.656-3.104-1.872-4.128-1.216-1.056-2.704-1.584-4.464-1.584-1.664 0-3.072.512-4.224 1.536-1.12.992-1.808 2.384-2.064 4.176h12.624Zm31.127-5.28v12.864c0 .896.208 1.552.624 1.968.448.384 1.184.576 2.208.576h3.12V818h-4.224c-5.664 0-8.496-2.752-8.496-8.256v-12.816h-3.168v-5.52h3.168v-6.576h6.768v6.576h5.952v5.52h-5.952Zm22.593 21.504c-2.56 0-4.864-.56-6.912-1.68-2.048-1.152-3.664-2.768-4.848-4.848-1.152-2.08-1.728-4.48-1.728-7.2 0-2.72.592-5.12 1.776-7.2 1.216-2.08 2.864-3.68 4.944-4.8 2.08-1.152 4.4-1.728 6.96-1.728 2.56 0 4.88.576 6.96 1.728 2.08 1.12 3.712 2.72 4.896 4.8 1.216 2.08 1.824 4.48 1.824 7.2 0 2.72-.624 5.12-1.872 7.2a12.755 12.755 0 0 1-4.992 4.848c-2.08 1.12-4.416 1.68-7.008 1.68Zm0-5.856a7.006 7.006 0 0 0 3.408-.864c1.088-.608 1.952-1.504 2.592-2.688.64-1.184.96-2.624.96-4.32 0-2.528-.672-4.464-2.016-5.808-1.312-1.376-2.928-2.064-4.848-2.064s-3.536.688-4.848 2.064c-1.28 1.344-1.92 3.28-1.92 5.808s.624 4.48 1.872 5.856c1.28 1.344 2.88 2.016 4.8 2.016Zm-175.318 77.76c-2.336 0-4.448-.4-6.336-1.2-1.856-.8-3.328-1.952-4.416-3.456-1.088-1.504-1.648-3.28-1.68-5.328h7.2c.096 1.376.576 2.464 1.44 3.264.896.8 2.112 1.2 3.648 1.2 1.568 0 2.8-.368 3.696-1.104.896-.768 1.344-1.76 1.344-2.976 0-.992-.304-1.808-.912-2.448-.608-.64-1.376-1.136-2.304-1.488-.896-.384-2.144-.8-3.744-1.248-2.176-.64-3.952-1.264-5.328-1.872-1.344-.64-2.512-1.584-3.504-2.832-.96-1.28-1.44-2.976-1.44-5.088 0-1.984.496-3.712 1.488-5.184s2.384-2.592 4.176-3.36c1.792-.8 3.84-1.2 6.144-1.2 3.456 0 6.256.848 8.4 2.544 2.176 1.664 3.376 4 3.6 7.008h-7.392c-.064-1.152-.56-2.096-1.488-2.832-.896-.768-2.096-1.152-3.6-1.152-1.312 0-2.368.336-3.168 1.008-.768.672-1.152 1.648-1.152 2.928 0 .896.288 1.648.864 2.256.608.576 1.344 1.056 2.208 1.44.896.352 2.144.768 3.744 1.248 2.176.64 3.952 1.28 5.328 1.92 1.376.64 2.56 1.6 3.552 2.88.992 1.28 1.488 2.96 1.488 5.04a9.48 9.48 0 0 1-1.392 4.992c-.928 1.536-2.288 2.768-4.08 3.696-1.792.896-3.92 1.344-6.384 1.344Zm25.506-21.408v12.864c0 .896.208 1.552.624 1.968.448.384 1.184.576 2.208.576h3.12V890h-4.224c-5.664 0-8.496-2.752-8.496-8.256v-12.816H146.7v-5.52h3.168v-6.576h6.768v6.576h5.952v5.52h-5.952Zm22.593 21.504c-2.56 0-4.864-.56-6.912-1.68-2.048-1.152-3.664-2.768-4.848-4.848-1.152-2.08-1.728-4.48-1.728-7.2 0-2.72.592-5.12 1.776-7.2 1.216-2.08 2.864-3.68 4.944-4.8 2.08-1.152 4.4-1.728 6.96-1.728 2.56 0 4.88.576 6.96 1.728 2.08 1.12 3.712 2.72 4.896 4.8 1.216 2.08 1.824 4.48 1.824 7.2 0 2.72-.624 5.12-1.872 7.2a12.755 12.755 0 0 1-4.992 4.848c-2.08 1.12-4.416 1.68-7.008 1.68Zm0-5.856a7.006 7.006 0 0 0 3.408-.864c1.088-.608 1.952-1.504 2.592-2.688.64-1.184.96-2.624.96-4.32 0-2.528-.672-4.464-2.016-5.808-1.312-1.376-2.928-2.064-4.848-2.064s-3.536.688-4.848 2.064c-1.28 1.344-1.92 3.28-1.92 5.808s.624 4.48 1.872 5.856c1.28 1.344 2.88 2.016 4.8 2.016Zm25.522-17.04c.864-1.408 1.984-2.512 3.36-3.312 1.408-.8 3.008-1.2 4.8-1.2v7.056h-1.776c-2.112 0-3.712.496-4.8 1.488-1.056.992-1.584 2.72-1.584 5.184V890h-6.72v-26.592h6.72v4.128Zm37.406 8.592c0 .96-.064 1.824-.192 2.592h-19.44c.16 1.92.832 3.424 2.016 4.512 1.184 1.088 2.64 1.632 4.368 1.632 2.496 0 4.272-1.072 5.328-3.216h7.248c-.768 2.56-2.24 4.672-4.416 6.336-2.176 1.632-4.848 2.448-8.016 2.448-2.56 0-4.864-.56-6.912-1.68-2.016-1.152-3.6-2.768-4.752-4.848-1.12-2.08-1.68-4.48-1.68-7.2 0-2.752.56-5.168 1.68-7.248 1.12-2.08 2.688-3.68 4.704-4.8 2.016-1.12 4.336-1.68 6.96-1.68 2.528 0 4.784.544 6.768 1.632a11.258 11.258 0 0 1 4.656 4.656c1.12 1.984 1.68 4.272 1.68 6.864Zm-6.96-1.92c-.032-1.728-.656-3.104-1.872-4.128-1.216-1.056-2.704-1.584-4.464-1.584-1.664 0-3.072.512-4.224 1.536-1.12.992-1.808 2.384-2.064 4.176h12.624ZM154.603 1216.5l-12.288 33.5h-8.16l-12.288-33.5h7.2l9.216 26.64 9.168-26.64h7.152Zm7.437 3.74c-1.184 0-2.176-.37-2.976-1.1-.768-.77-1.152-1.72-1.152-2.84 0-1.12.384-2.04 1.152-2.78.8-.77 1.792-1.15 2.976-1.15s2.16.38 2.928 1.15c.8.74 1.2 1.66 1.2 2.78 0 1.12-.4 2.07-1.2 2.84-.768.73-1.744 1.1-2.928 1.1Zm3.312 3.17V1250h-6.72v-26.59h6.72Zm31.36 12.72c0 .96-.064 1.82-.192 2.59h-19.44c.16 1.92.832 3.42 2.016 4.51 1.184 1.09 2.64 1.63 4.368 1.63 2.496 0 4.272-1.07 5.328-3.21h7.248c-.768 2.56-2.24 4.67-4.416 6.33-2.176 1.64-4.848 2.45-8.016 2.45-2.56 0-4.864-.56-6.912-1.68-2.016-1.15-3.6-2.77-4.752-4.85-1.12-2.08-1.68-4.48-1.68-7.2 0-2.75.56-5.16 1.68-7.24 1.12-2.08 2.688-3.68 4.704-4.8 2.016-1.12 4.336-1.68 6.96-1.68 2.528 0 4.784.54 6.768 1.63a11.29 11.29 0 0 1 4.656 4.65c1.12 1.99 1.68 4.28 1.68 6.87Zm-6.96-1.92c-.032-1.73-.656-3.11-1.872-4.13-1.216-1.06-2.704-1.58-4.464-1.58-1.664 0-3.072.51-4.224 1.53-1.12.99-1.808 2.39-2.064 4.18h12.624Zm48.729-10.8-7.776 26.59h-7.248l-4.848-18.58-4.848 18.58h-7.296l-7.824-26.59h6.816l4.704 20.25 5.088-20.25h7.104l4.992 20.21 4.704-20.21h6.432ZM84.649 1305.2c0-3.3.736-6.24 2.208-8.83 1.504-2.63 3.536-4.66 6.096-6.1 2.592-1.47 5.488-2.21 8.688-2.21 3.744 0 7.024.96 9.84 2.88s4.784 4.58 5.904 7.97h-7.728c-.768-1.6-1.856-2.8-3.264-3.6-1.376-.8-2.976-1.2-4.8-1.2-1.952 0-3.696.47-5.232 1.39-1.504.9-2.688 2.18-3.552 3.84-.832 1.67-1.248 3.62-1.248 5.86 0 2.21.416 4.16 1.248 5.86.864 1.66 2.048 2.96 3.552 3.88 1.536.9 3.28 1.35 5.232 1.35 1.824 0 3.424-.4 4.8-1.2 1.408-.83 2.496-2.05 3.264-3.65h7.728c-1.12 3.42-3.088 6.1-5.904 8.02-2.784 1.88-6.064 2.83-9.84 2.83-3.2 0-6.096-.72-8.688-2.16-2.56-1.47-4.592-3.51-6.096-6.1-1.472-2.59-2.208-5.53-2.208-8.83Zm50.284 17.23c-2.56 0-4.864-.56-6.912-1.68-2.048-1.15-3.664-2.77-4.848-4.85-1.152-2.08-1.728-4.48-1.728-7.2 0-2.72.592-5.12 1.776-7.2 1.216-2.08 2.864-3.68 4.944-4.8 2.08-1.15 4.4-1.72 6.96-1.72 2.56 0 4.88.57 6.96 1.72 2.08 1.12 3.712 2.72 4.896 4.8 1.216 2.08 1.824 4.48 1.824 7.2 0 2.72-.624 5.12-1.873 7.2a12.737 12.737 0 0 1-4.991 4.85c-2.08 1.12-4.416 1.68-7.008 1.68Zm0-5.85c1.216 0 2.352-.29 3.408-.87 1.088-.61 1.952-1.5 2.592-2.69.64-1.18.96-2.62.96-4.32 0-2.52-.672-4.46-2.016-5.8-1.312-1.38-2.928-2.07-4.848-2.07s-3.536.69-4.848 2.07c-1.28 1.34-1.92 3.28-1.92 5.8 0 2.53.624 4.48 1.872 5.86 1.28 1.34 2.88 2.02 4.8 2.02Zm43.905-21.17V1322h-6.768v-3.36c-.864 1.15-2 2.06-3.408 2.74-1.376.64-2.88.96-4.512.96-2.08 0-3.92-.44-5.52-1.3-1.6-.9-2.864-2.19-3.792-3.89-.896-1.73-1.344-3.77-1.344-6.14v-15.6h6.72v14.64c0 2.11.528 3.74 1.584 4.89 1.056 1.12 2.496 1.68 4.32 1.68 1.856 0 3.312-.56 4.368-1.68 1.056-1.15 1.584-2.78 1.584-4.89v-14.64h6.768Zm13.35 3.84c.864-1.22 2.048-2.23 3.552-3.03 1.536-.83 3.28-1.24 5.232-1.24 2.272 0 4.32.56 6.144 1.68 1.856 1.12 3.312 2.72 4.368 4.8 1.088 2.04 1.632 4.43 1.632 7.15 0 2.72-.544 5.13-1.632 7.25-1.056 2.08-2.512 3.69-4.368 4.84-1.824 1.16-3.872 1.73-6.144 1.73-1.952 0-3.68-.4-5.184-1.2-1.472-.8-2.672-1.81-3.6-3.02v16.46h-6.72v-39.26h6.72v3.84Zm14.064 9.36c0-1.6-.336-2.98-1.008-4.13-.64-1.18-1.504-2.08-2.592-2.69a6.784 6.784 0 0 0-3.456-.91c-1.216 0-2.368.32-3.456.96-1.056.61-1.92 1.5-2.592 2.69-.64 1.18-.96 2.57-.96 4.17s.32 3 .96 4.18c.672 1.18 1.536 2.1 2.592 2.74 1.088.6 2.24.91 3.456.91 1.248 0 2.4-.32 3.456-.96 1.088-.64 1.952-1.55 2.592-2.74.672-1.18 1.008-2.59 1.008-4.22Zm23.556 13.82c-2.56 0-4.864-.56-6.912-1.68-2.048-1.15-3.664-2.77-4.848-4.85-1.152-2.08-1.728-4.48-1.728-7.2 0-2.72.592-5.12 1.776-7.2 1.216-2.08 2.864-3.68 4.944-4.8 2.08-1.15 4.4-1.72 6.96-1.72 2.56 0 4.88.57 6.96 1.72 2.08 1.12 3.712 2.72 4.896 4.8 1.216 2.08 1.824 4.48 1.824 7.2 0 2.72-.624 5.12-1.873 7.2a12.737 12.737 0 0 1-4.991 4.85c-2.08 1.12-4.416 1.68-7.008 1.68Zm0-5.85c1.216 0 2.352-.29 3.408-.87 1.088-.61 1.952-1.5 2.592-2.69.64-1.18.96-2.62.96-4.32 0-2.52-.672-4.46-2.016-5.8-1.312-1.38-2.928-2.07-4.848-2.07s-3.536.69-4.848 2.07c-1.28 1.34-1.92 3.28-1.92 5.8 0 2.53.624 4.48 1.872 5.86 1.28 1.34 2.88 2.02 4.8 2.02Zm33.537-21.56c3.168 0 5.728 1.01 7.68 3.03 1.952 1.98 2.928 4.77 2.928 8.35v15.6h-6.72v-14.69c0-2.11-.528-3.73-1.584-4.85-1.056-1.15-2.496-1.72-4.32-1.72-1.856 0-3.328.57-4.416 1.72-1.056 1.12-1.584 2.74-1.584 4.85V1322h-6.72v-26.59h6.72v3.31a9.136 9.136 0 0 1 3.408-2.69c1.408-.67 2.944-1.01 4.608-1.01ZM692.111 1226.86c0 1.8-.432 3.48-1.296 5.04-.832 1.57-2.16 2.84-3.984 3.8-1.792.96-4.064 1.44-6.816 1.44h-5.616V1250h-6.72v-33.5h12.336c2.592 0 4.8.44 6.624 1.34 1.824.9 3.184 2.13 4.08 3.7.928 1.56 1.392 3.34 1.392 5.32Zm-12.384 4.85c1.856 0 3.232-.41 4.128-1.25.896-.86 1.344-2.06 1.344-3.6 0-3.26-1.824-4.89-5.472-4.89h-5.328v9.74h5.328Zm42.259-8.3V1250h-6.768v-3.36c-.864 1.15-2 2.06-3.408 2.74-1.376.64-2.88.96-4.512.96-2.08 0-3.92-.44-5.52-1.3-1.6-.9-2.864-2.19-3.792-3.89-.896-1.73-1.344-3.77-1.344-6.14v-15.6h6.72v14.64c0 2.11.528 3.74 1.584 4.89 1.056 1.12 2.496 1.68 4.32 1.68 1.856 0 3.312-.56 4.368-1.68 1.056-1.15 1.584-2.78 1.584-4.89v-14.64h6.768Zm13.351 4.13c.864-1.41 1.984-2.52 3.36-3.32 1.408-.8 3.008-1.2 4.8-1.2v7.06h-1.776c-2.112 0-3.712.5-4.8 1.49-1.056.99-1.584 2.72-1.584 5.18V1250h-6.72v-26.59h6.72v4.13Zm10.958 9.16c0-2.75.56-5.15 1.68-7.2 1.12-2.08 2.672-3.68 4.656-4.8 1.984-1.15 4.256-1.72 6.816-1.72 3.296 0 6.016.83 8.16 2.49 2.176 1.63 3.632 3.94 4.368 6.91h-7.248c-.384-1.15-1.04-2.04-1.968-2.68-.896-.68-2.016-1.01-3.36-1.01-1.92 0-3.44.7-4.56 2.11-1.12 1.38-1.68 3.34-1.68 5.9 0 2.53.56 4.5 1.68 5.91 1.12 1.37 2.64 2.06 4.56 2.06 2.72 0 4.496-1.21 5.328-3.65h7.248c-.736 2.88-2.192 5.17-4.368 6.87-2.176 1.69-4.896 2.54-8.16 2.54-2.56 0-4.832-.56-6.816-1.68-1.984-1.15-3.536-2.75-4.656-4.8-1.12-2.08-1.68-4.49-1.68-7.25Zm45.579-13.68c2.016 0 3.808.45 5.376 1.35 1.568.86 2.784 2.16 3.648 3.89.896 1.69 1.344 3.74 1.344 6.14v15.6h-6.72v-14.69c0-2.11-.528-3.73-1.584-4.85-1.056-1.15-2.496-1.72-4.32-1.72-1.856 0-3.328.57-4.416 1.72-1.056 1.12-1.584 2.74-1.584 4.85V1250h-6.72v-35.52h6.72v12.24c.864-1.15 2.016-2.05 3.456-2.69 1.44-.67 3.04-1.01 4.8-1.01Zm15.03 13.59c0-2.69.528-5.07 1.584-7.15 1.088-2.08 2.544-3.68 4.368-4.8 1.856-1.12 3.92-1.68 6.192-1.68 1.984 0 3.712.4 5.184 1.2 1.504.8 2.704 1.8 3.6 3.02v-3.79h6.768V1250h-6.768v-3.89c-.864 1.25-2.064 2.29-3.6 3.12-1.504.8-3.248 1.2-5.232 1.2-2.24 0-4.288-.57-6.144-1.73-1.824-1.15-3.28-2.76-4.368-4.84-1.056-2.12-1.584-4.53-1.584-7.25Zm20.928.09c0-1.63-.32-3.02-.96-4.17-.64-1.19-1.504-2.08-2.592-2.69a6.795 6.795 0 0 0-3.504-.96c-1.248 0-2.4.3-3.456.91-1.056.61-1.92 1.51-2.592 2.69-.64 1.15-.96 2.53-.96 4.13s.32 3.01.96 4.22c.672 1.19 1.536 2.1 2.592 2.74 1.088.64 2.24.96 3.456.96 1.248 0 2.416-.31 3.504-.91 1.088-.64 1.952-1.54 2.592-2.69.64-1.19.96-2.59.96-4.23Zm23.508 13.73c-2.176 0-4.128-.38-5.856-1.15-1.728-.8-3.104-1.87-4.128-3.22-.992-1.34-1.536-2.83-1.632-4.46h6.768c.128 1.02.624 1.87 1.488 2.54.896.68 2 1.01 3.312 1.01 1.28 0 2.272-.25 2.976-.77.736-.51 1.104-1.16 1.104-1.96 0-.87-.448-1.51-1.344-1.92-.864-.45-2.256-.93-4.176-1.44-1.984-.48-3.616-.98-4.896-1.49-1.248-.51-2.336-1.3-3.264-2.35-.896-1.06-1.344-2.48-1.344-4.28 0-1.47.416-2.81 1.248-4.03.864-1.21 2.08-2.17 3.648-2.88 1.6-.7 3.472-1.05 5.616-1.05 3.168 0 5.696.8 7.584 2.4 1.888 1.56 2.928 3.69 3.12 6.38h-6.432c-.096-1.06-.544-1.89-1.344-2.5-.768-.64-1.808-.96-3.12-.96-1.216 0-2.16.23-2.832.68-.64.44-.96 1.07-.96 1.87 0 .89.448 1.58 1.344 2.06.896.45 2.288.91 4.176 1.39 1.92.48 3.504.98 4.752 1.49 1.248.51 2.32 1.31 3.216 2.4.928 1.06 1.408 2.47 1.44 4.23 0 1.53-.432 2.91-1.296 4.12-.832 1.22-2.048 2.18-3.648 2.88-1.568.68-3.408 1.01-5.52 1.01Zm40.7-14.3c0 .96-.064 1.82-.192 2.59h-19.44c.16 1.92.832 3.42 2.016 4.51 1.184 1.09 2.64 1.63 4.368 1.63 2.496 0 4.272-1.07 5.328-3.21h7.248c-.768 2.56-2.24 4.67-4.416 6.33-2.176 1.64-4.848 2.45-8.016 2.45-2.56 0-4.864-.56-6.912-1.68-2.016-1.15-3.6-2.77-4.752-4.85-1.12-2.08-1.68-4.48-1.68-7.2 0-2.75.56-5.16 1.68-7.24 1.12-2.08 2.688-3.68 4.704-4.8 2.016-1.12 4.336-1.68 6.96-1.68 2.528 0 4.784.54 6.768 1.63a11.29 11.29 0 0 1 4.656 4.65c1.12 1.99 1.68 4.28 1.68 6.87Zm-6.96-1.92c-.032-1.73-.656-3.11-1.872-4.13-1.216-1.06-2.704-1.58-4.464-1.58-1.664 0-3.072.51-4.224 1.53-1.12.99-1.808 2.39-2.064 4.18h12.624Zm-201.431 70.99c0-3.3.736-6.24 2.208-8.83 1.504-2.63 3.536-4.66 6.096-6.1 2.592-1.47 5.488-2.21 8.688-2.21 3.744 0 7.024.96 9.84 2.88s4.784 4.58 5.904 7.97h-7.728c-.768-1.6-1.856-2.8-3.264-3.6-1.376-.8-2.976-1.2-4.8-1.2-1.952 0-3.696.47-5.232 1.39-1.504.9-2.688 2.18-3.552 3.84-.832 1.67-1.248 3.62-1.248 5.86 0 2.21.416 4.16 1.248 5.86.864 1.66 2.048 2.96 3.552 3.88 1.536.9 3.28 1.35 5.232 1.35 1.824 0 3.424-.4 4.8-1.2 1.408-.83 2.496-2.05 3.264-3.65h7.728c-1.12 3.42-3.088 6.1-5.904 8.02-2.784 1.88-6.064 2.83-9.84 2.83-3.2 0-6.096-.72-8.688-2.16-2.56-1.47-4.592-3.51-6.096-6.1-1.472-2.59-2.208-5.53-2.208-8.83Zm50.284 17.23c-2.56 0-4.864-.56-6.912-1.68-2.048-1.15-3.664-2.77-4.848-4.85-1.152-2.08-1.728-4.48-1.728-7.2 0-2.72.592-5.12 1.776-7.2 1.216-2.08 2.864-3.68 4.944-4.8 2.08-1.15 4.4-1.72 6.96-1.72 2.56 0 4.88.57 6.96 1.72 2.08 1.12 3.712 2.72 4.896 4.8 1.216 2.08 1.824 4.48 1.824 7.2 0 2.72-.624 5.12-1.873 7.2a12.737 12.737 0 0 1-4.991 4.85c-2.08 1.12-4.416 1.68-7.008 1.68Zm0-5.85c1.216 0 2.352-.29 3.408-.87 1.088-.61 1.952-1.5 2.592-2.69.64-1.18.96-2.62.96-4.32 0-2.52-.672-4.46-2.016-5.8-1.312-1.38-2.928-2.07-4.848-2.07s-3.536.69-4.848 2.07c-1.28 1.34-1.92 3.28-1.92 5.8 0 2.53.624 4.48 1.872 5.86 1.28 1.34 2.88 2.02 4.8 2.02Zm43.905-21.17V1322h-6.768v-3.36c-.864 1.15-2 2.06-3.408 2.74-1.376.64-2.88.96-4.512.96-2.08 0-3.92-.44-5.52-1.3-1.6-.9-2.864-2.19-3.792-3.89-.896-1.73-1.344-3.77-1.344-6.14v-15.6h6.72v14.64c0 2.11.528 3.74 1.584 4.89 1.056 1.12 2.496 1.68 4.32 1.68 1.856 0 3.312-.56 4.368-1.68 1.056-1.15 1.584-2.78 1.584-4.89v-14.64h6.768Zm13.35 3.84c.864-1.22 2.048-2.23 3.552-3.03 1.536-.83 3.28-1.24 5.232-1.24 2.272 0 4.32.56 6.144 1.68 1.856 1.12 3.312 2.72 4.368 4.8 1.088 2.04 1.632 4.43 1.632 7.15 0 2.72-.544 5.13-1.632 7.25-1.056 2.08-2.512 3.69-4.368 4.84-1.824 1.16-3.872 1.73-6.144 1.73-1.952 0-3.68-.4-5.184-1.2-1.472-.8-2.672-1.81-3.6-3.02v16.46h-6.72v-39.26h6.72v3.84Zm14.064 9.36c0-1.6-.336-2.98-1.008-4.13-.64-1.18-1.504-2.08-2.592-2.69a6.784 6.784 0 0 0-3.456-.91c-1.216 0-2.368.32-3.456.96-1.056.61-1.92 1.5-2.592 2.69-.64 1.18-.96 2.57-.96 4.17s.32 3 .96 4.18c.672 1.18 1.536 2.1 2.592 2.74 1.088.6 2.24.91 3.456.91 1.248 0 2.4-.32 3.456-.96 1.088-.64 1.952-1.55 2.592-2.74.672-1.18 1.008-2.59 1.008-4.22Zm23.556 13.82c-2.56 0-4.864-.56-6.912-1.68-2.048-1.15-3.664-2.77-4.848-4.85-1.152-2.08-1.728-4.48-1.728-7.2 0-2.72.592-5.12 1.776-7.2 1.216-2.08 2.864-3.68 4.944-4.8 2.08-1.15 4.4-1.72 6.96-1.72 2.56 0 4.88.57 6.96 1.72 2.08 1.12 3.712 2.72 4.896 4.8 1.216 2.08 1.824 4.48 1.824 7.2 0 2.72-.624 5.12-1.873 7.2a12.737 12.737 0 0 1-4.991 4.85c-2.08 1.12-4.416 1.68-7.008 1.68Zm0-5.85c1.216 0 2.352-.29 3.408-.87 1.088-.61 1.952-1.5 2.592-2.69.64-1.18.96-2.62.96-4.32 0-2.52-.672-4.46-2.016-5.8-1.312-1.38-2.928-2.07-4.848-2.07s-3.536.69-4.848 2.07c-1.28 1.34-1.92 3.28-1.92 5.8 0 2.53.624 4.48 1.872 5.86 1.28 1.34 2.88 2.02 4.8 2.02Zm33.537-21.56c3.168 0 5.728 1.01 7.68 3.03 1.952 1.98 2.928 4.77 2.928 8.35v15.6h-6.72v-14.69c0-2.11-.528-3.73-1.584-4.85-1.056-1.15-2.496-1.72-4.32-1.72-1.856 0-3.328.57-4.416 1.72-1.056 1.12-1.584 2.74-1.584 4.85V1322h-6.72v-26.59h6.72v3.31a9.136 9.136 0 0 1 3.408-2.69c1.408-.67 2.944-1.01 4.608-1.01ZM1294.71 1280.67h11.04v5.33h-17.76v-33.5h6.72v28.17Zm27.12 5.76c-2.56 0-4.86-.56-6.91-1.68-2.05-1.15-3.67-2.77-4.85-4.85-1.15-2.08-1.73-4.48-1.73-7.2 0-2.72.59-5.12 1.78-7.2 1.21-2.08 2.86-3.68 4.94-4.8 2.08-1.15 4.4-1.72 6.96-1.72 2.56 0 4.88.57 6.96 1.72 2.08 1.12 3.71 2.72 4.9 4.8 1.21 2.08 1.82 4.48 1.82 7.2 0 2.72-.62 5.12-1.87 7.2-1.22 2.08-2.88 3.7-4.99 4.85-2.08 1.12-4.42 1.68-7.01 1.68Zm0-5.85c1.22 0 2.35-.29 3.41-.87 1.09-.61 1.95-1.5 2.59-2.69.64-1.18.96-2.62.96-4.32 0-2.52-.67-4.46-2.02-5.8-1.31-1.38-2.92-2.07-4.84-2.07s-3.54.69-4.85 2.07c-1.28 1.34-1.92 3.28-1.92 5.8 0 2.53.62 4.48 1.87 5.86 1.28 1.34 2.88 2.02 4.8 2.02Zm29.22-21.6c1.98 0 3.73.4 5.23 1.2 1.5.76 2.69 1.77 3.55 3.02v-3.79h6.77v26.78c0 2.47-.5 4.66-1.49 6.58-.99 1.95-2.48 3.49-4.46 4.61-1.99 1.15-4.39 1.72-7.2 1.72-3.78 0-6.88-.88-9.31-2.64-2.4-1.76-3.76-4.16-4.08-7.2h6.67c.35 1.22 1.1 2.18 2.25 2.88 1.19.74 2.61 1.11 4.28 1.11 1.95 0 3.53-.59 4.75-1.78 1.21-1.15 1.82-2.91 1.82-5.28v-4.13c-.86 1.25-2.06 2.29-3.6 3.12-1.5.84-3.23 1.25-5.18 1.25-2.24 0-4.29-.57-6.15-1.73-1.85-1.15-3.32-2.76-4.41-4.84-1.06-2.12-1.59-4.53-1.59-7.25 0-2.69.53-5.07 1.59-7.15 1.09-2.08 2.54-3.68 4.37-4.8 1.85-1.12 3.92-1.68 6.19-1.68Zm8.78 13.72c0-1.63-.32-3.02-.96-4.17-.64-1.19-1.5-2.08-2.59-2.69a6.807 6.807 0 0 0-3.5-.96c-1.25 0-2.4.3-3.46.91-1.06.61-1.92 1.51-2.59 2.69-.64 1.15-.96 2.53-.96 4.13s.32 3.01.96 4.22c.67 1.19 1.53 2.1 2.59 2.74 1.09.64 2.24.96 3.46.96 1.24 0 2.41-.31 3.5-.91 1.09-.64 1.95-1.54 2.59-2.69.64-1.19.96-2.59.96-4.23Zm40.32 13.64c-3.13 0-6.01-.74-8.64-2.21-2.62-1.47-4.7-3.51-6.24-6.1-1.53-2.62-2.3-5.58-2.3-8.88 0-3.26.77-6.19 2.3-8.78 1.54-2.63 3.62-4.67 6.24-6.15 2.63-1.47 5.51-2.2 8.64-2.2 3.17 0 6.05.73 8.64 2.2 2.63 1.48 4.69 3.52 6.2 6.15 1.53 2.59 2.3 5.52 2.3 8.78 0 3.3-.77 6.26-2.3 8.88-1.51 2.59-3.57 4.63-6.2 6.1-2.62 1.47-5.5 2.21-8.64 2.21Zm0-6c2.02 0 3.8-.45 5.33-1.35 1.54-.93 2.74-2.24 3.6-3.93.87-1.7 1.3-3.67 1.3-5.91s-.43-4.19-1.3-5.85c-.86-1.7-2.06-3-3.6-3.89-1.53-.9-3.31-1.35-5.33-1.35-2.01 0-3.8.45-5.37 1.35-1.54.89-2.74 2.19-3.6 3.89-.87 1.66-1.3 3.61-1.3 5.85 0 2.24.43 4.21 1.3 5.91.86 1.69 2.06 3 3.6 3.93 1.57.9 3.36 1.35 5.37 1.35Zm47.24-20.93V1286h-6.77v-3.36c-.86 1.15-2 2.06-3.4 2.74-1.38.64-2.88.96-4.52.96-2.08 0-3.92-.44-5.52-1.3-1.6-.9-2.86-2.19-3.79-3.89-.89-1.73-1.34-3.77-1.34-6.14v-15.6h6.72v14.64c0 2.11.53 3.74 1.58 4.89 1.06 1.12 2.5 1.68 4.32 1.68 1.86 0 3.31-.56 4.37-1.68 1.06-1.15 1.58-2.78 1.58-4.89v-14.64h6.77Zm14.46 5.52v12.86c0 .9.2 1.55.62 1.97.45.38 1.18.58 2.21.58h3.12v5.66h-4.23c-5.66 0-8.49-2.75-8.49-8.26v-12.81h-3.17v-5.52h3.17v-6.58h6.77v6.58h5.95v5.52h-5.95Z" fill="#595959"/><path d="m2995 405-25-14.434v28.868L2995 405Zm-239 2.5h216.5v-5H2756v5Z" fill="#000"/></svg>