<svg version="1.1" viewBox="0.0 0.0 531.0 377.0" fill="none" stroke="none" stroke-linecap="square" stroke-miterlimit="10" width="531" height="377" xmlns:xlink="http://www.w3.org/1999/xlink" xmlns="http://www.w3.org/2000/svg"><path fill="#ffffff" d="M0 0L531.0 0L531.0 377.0L0 377.0L0 0Z" fill-rule="nonzero"/><path fill="#fce5cd" d="M269.04163 87.5C309.62283 87.5 347.99567 105.97938 373.29764 137.70705L269.04163 220.84845Z" fill-rule="nonzero"/><path fill="#f6b26b" d="M373.29764 137.70705C403.00122 174.95415 410.57733 225.21854 393.1722 269.5661C375.76706 313.9137 336.02487 345.60703 288.91617 352.70752L269.04163 220.84845Z" fill-rule="nonzero"/><path fill="#666666" d="M193.92377 110.67079C216.06592 95.57453 242.2429 87.5 269.04163 87.5L269.04163 220.84845Z" fill-rule="nonzero"/><path fill="#e69138" d="M288.91617 352.70752C227.39687 361.98007 167.64044 327.47968 144.91106 269.5661C122.181656 211.65256 142.51999 145.71729 193.92377 110.67079L269.04163 220.84845Z" fill-rule="nonzero"/><path fill="#1a1a1a" d="M28.421875 97.390625L30.34375 90.96875L32.3125 90.96875L29.328125 99.5L27.5 99.5L24.546875 90.96875L26.5 90.96875L28.421875 97.390625ZM36.0625 99.625Q34.671875 99.625 33.796875 98.765625Q32.921875 97.90625 32.921875 96.484375L32.921875 96.3125Q32.921875 95.359375 33.28125 94.609375Q33.65625 93.859375 34.328125 93.453125Q35.015625 93.046875 35.875 93.046875Q37.1875 93.046875 37.921875 93.875Q38.671875 94.6875 38.671875 96.1875L38.671875 96.875L34.640625 96.875Q34.71875 97.5 35.125 97.875Q35.546875 98.25 36.1875 98.25Q37.15625 98.25 37.703125 97.546875L38.546875 98.46875Q38.15625 99.015625 37.5 99.328125Q36.859375 99.625 36.0625 99.625ZM35.875 94.40625Q35.375 94.40625 35.0625 94.75Q34.75 95.09375 34.65625 95.71875L37.015625 95.71875L37.015625 95.59375Q37.0 95.03125 36.703125 94.71875Q36.421875 94.40625 35.875 94.40625ZM42.71875 94.75Q42.375 94.703125 42.109375 94.703125Q41.140625 94.703125 40.84375 95.34375L40.84375 99.5L39.15625 99.5L39.15625 93.15625L40.75 93.15625L40.796875 93.921875Q41.3125 93.046875 42.203125 93.046875Q42.484375 93.046875 42.734375 93.125L42.71875 94.75ZM45.515625 97.109375L46.6875 93.15625L48.5 93.15625L45.953125 100.484375L45.8125 100.8125Q45.25 102.0625 43.9375 102.0625Q43.578125 102.0625 43.1875 101.953125L43.1875 100.671875L43.453125 100.671875Q43.9375 100.671875 44.171875 100.515625Q44.40625 100.375 44.546875 100.046875L44.734375 99.515625L42.515625 93.15625L44.34375 93.15625L45.515625 97.109375ZM59.265625 95.421875Q59.265625 96.6875 58.8125 97.640625Q58.375 98.578125 57.546875 99.109375Q56.71875 99.625 55.65625 99.625Q54.59375 99.625 53.75 99.109375Q52.921875 98.59375 52.46875 97.65625Q52.015625 96.703125 52.0 95.46875L52.0 95.046875Q52.0 93.796875 52.453125 92.84375Q52.90625 91.875 53.734375 91.359375Q54.578125 90.84375 55.640625 90.84375Q56.703125 90.84375 57.53125 91.359375Q58.359375 91.875 58.8125 92.84375Q59.265625 93.796875 59.265625 95.046875L59.265625 95.421875ZM57.484375 95.046875Q57.484375 93.703125 57.0 93.0Q56.53125 92.296875 55.640625 92.296875Q54.75 92.296875 54.265625 93.0Q53.796875 93.6875 53.78125 95.015625L53.78125 95.421875Q53.78125 96.734375 54.265625 97.453125Q54.75 98.171875 55.65625 98.171875Q56.53125 98.171875 57.0 97.484375Q57.484375 96.78125 57.484375 95.453125L57.484375 95.046875ZM60.609375 99.5L60.609375 94.40625L59.671875 94.40625L59.671875 93.15625L60.609375 93.15625L60.609375 92.625Q60.609375 91.546875 61.21875 90.96875Q61.84375 90.375 62.9375 90.375Q63.296875 90.375 63.796875 90.5L63.78125 91.8125Q63.578125 91.75 63.265625 91.75Q62.3125 91.75 62.3125 92.65625L62.3125 93.15625L63.578125 93.15625L63.578125 94.40625L62.3125 94.40625L62.3125 99.5L60.609375 99.5ZM66.171875 91.59375L66.171875 93.15625L67.265625 93.15625L67.265625 94.40625L66.171875 94.40625L66.171875 97.5625Q66.171875 97.921875 66.3125 98.078125Q66.453125 98.21875 66.828125 98.21875Q67.109375 98.21875 67.328125 98.1875L67.328125 99.46875Q66.828125 99.625 66.296875 99.625Q64.515625 99.625 64.484375 97.8125L64.484375 94.40625L63.5625 94.40625L63.5625 93.15625L64.484375 93.15625L64.484375 91.59375L66.171875 91.59375ZM71.0625 99.625Q69.671875 99.625 68.796875 98.765625Q67.921875 97.90625 67.921875 96.484375L67.921875 96.3125Q67.921875 95.359375 68.28125 94.609375Q68.65625 93.859375 69.328125 93.453125Q70.015625 93.046875 70.875 93.046875Q72.1875 93.046875 72.921875 93.875Q73.671875 94.6875 73.671875 96.1875L73.671875 96.875L69.640625 96.875Q69.71875 97.5 70.125 97.875Q70.546875 98.25 71.1875 98.25Q72.15625 98.25 72.703125 97.546875L73.546875 98.46875Q73.15625 99.015625 72.5 99.328125Q71.859375 99.625 71.0625 99.625ZM70.875 94.40625Q70.375 94.40625 70.0625 94.75Q69.75 95.09375 69.65625 95.71875L72.015625 95.71875L72.015625 95.59375Q72.0 95.03125 71.703125 94.71875Q71.421875 94.40625 70.875 94.40625ZM75.703125 93.15625L75.765625 93.890625Q76.4375 93.046875 77.578125 93.046875Q78.59375 93.046875 79.078125 93.640625Q79.578125 94.21875 79.59375 95.40625L79.59375 99.5L77.890625 99.5L77.890625 95.4375Q77.890625 94.90625 77.65625 94.671875Q77.421875 94.421875 76.875 94.421875Q76.171875 94.421875 75.8125 95.03125L75.8125 99.5L74.109375 99.5L74.109375 93.15625L75.703125 93.15625Z" fill-rule="nonzero"/><path fill="#9e9e9e" d="M29.046875 114.09375Q28.375 114.734375 27.5 114.734375Q26.359375 114.734375 25.671875 113.96875Q25.0 113.1875 25.0 111.875Q25.0 111.03125 25.359375 110.328125Q25.734375 109.625 26.390625 109.234375Q27.046875 108.84375 27.875 108.84375Q28.71875 108.84375 29.375 109.265625Q30.03125 109.6875 30.390625 110.484375Q30.75 111.28125 30.765625 112.296875L30.765625 112.921875Q30.765625 115.0625 29.703125 116.28125Q28.640625 117.5 26.6875 117.578125L26.28125 117.578125L26.28125 116.171875L26.65625 116.15625Q28.859375 116.0625 29.046875 114.09375ZM27.90625 113.4375Q28.328125 113.4375 28.609375 113.234375Q28.90625 113.015625 29.0625 112.71875L29.0625 112.03125Q29.0625 111.171875 28.734375 110.703125Q28.40625 110.21875 27.859375 110.21875Q27.34375 110.21875 27.015625 110.6875Q26.6875 111.140625 26.6875 111.84375Q26.6875 112.546875 27.0 113.0Q27.328125 113.4375 27.90625 113.4375ZM32.234375 116.671875Q32.234375 116.265625 32.5 116.015625Q32.78125 115.765625 33.1875 115.765625Q33.609375 115.765625 33.875 116.015625Q34.15625 116.265625 34.15625 116.671875Q34.15625 117.0625 33.875 117.3125Q33.609375 117.5625 33.1875 117.5625Q32.78125 117.5625 32.5 117.3125Q32.234375 117.0625 32.234375 116.671875ZM35.328125 113.296875L35.828125 108.96875L40.609375 108.96875L40.609375 110.375L37.21875 110.375L37.0 112.21875Q37.609375 111.890625 38.28125 111.890625Q39.5 111.890625 40.1875 112.65625Q40.890625 113.40625 40.890625 114.765625Q40.890625 115.59375 40.53125 116.25Q40.1875 116.890625 39.53125 117.265625Q38.890625 117.625 38.0 117.625Q37.234375 117.625 36.5625 117.3125Q35.90625 116.984375 35.515625 116.421875Q35.140625 115.859375 35.109375 115.125L36.796875 115.125Q36.84375 115.65625 37.15625 115.953125Q37.484375 116.25 38.0 116.25Q38.578125 116.25 38.875 115.84375Q39.1875 115.421875 39.1875 114.671875Q39.1875 113.9375 38.828125 113.5625Q38.484375 113.171875 37.828125 113.171875Q37.21875 113.171875 36.84375 113.484375L36.6875 113.640625L35.328125 113.296875ZM42.0625 110.609375Q42.0625 109.828125 42.5625 109.34375Q43.078125 108.84375 43.90625 108.84375Q44.734375 108.84375 45.25 109.328125Q45.765625 109.8125 45.765625 110.640625L45.765625 111.0625Q45.765625 111.84375 45.25 112.328125Q44.734375 112.8125 43.921875 112.8125Q43.078125 112.8125 42.5625 112.328125Q42.0625 111.84375 42.0625 111.03125L42.0625 110.609375ZM43.1875 111.0625Q43.1875 111.40625 43.390625 111.625Q43.59375 111.84375 43.921875 111.84375Q44.25 111.84375 44.4375 111.625Q44.625 111.40625 44.625 111.046875L44.625 110.609375Q44.625 110.25 44.4375 110.046875Q44.25 109.828125 43.90625 109.828125Q43.578125 109.828125 43.375 110.046875Q43.1875 110.25 43.1875 110.625L43.1875 111.0625ZM46.140625 115.40625Q46.140625 114.609375 46.65625 114.140625Q47.171875 113.65625 47.984375 113.65625Q48.8125 113.65625 49.328125 114.140625Q49.84375 114.609375 49.84375 115.4375L49.84375 115.859375Q49.84375 116.65625 49.34375 117.140625Q48.84375 117.625 48.0 117.625Q47.15625 117.625 46.640625 117.140625Q46.140625 116.640625 46.140625 115.84375L46.140625 115.40625ZM47.265625 115.859375Q47.265625 116.1875 47.46875 116.421875Q47.6875 116.640625 48.0 116.640625Q48.71875 116.640625 48.71875 115.859375L48.71875 115.40625Q48.71875 115.0625 48.515625 114.84375Q48.3125 114.625 47.984375 114.625Q47.65625 114.625 47.453125 114.84375Q47.265625 115.0625 47.265625 115.421875L47.265625 115.859375ZM44.25 116.859375L43.421875 116.421875L47.59375 109.75L48.421875 110.1875L44.25 116.859375Z" fill-rule="nonzero"/><path stroke="#757575" stroke-width="1.0" stroke-linecap="butt" d="M24.5 104.0L129.69318 104.0L231.70174 99.7955" fill-rule="nonzero"/><path fill="#9e9e9e" d="M233.70174 99.7955C233.70174 98.69093 232.8063 97.7955 231.70174 97.7955C230.59717 97.7955 229.70174 98.69093 229.70174 99.7955C229.70174 100.90008 230.59717 101.7955 231.70174 101.7955C232.8063 101.7955 233.70174 100.90008 233.70174 99.7955" fill-rule="nonzero"/><path fill="#1a1a1a" d="M32.265625 258.5521Q32.265625 259.81772 31.8125 260.77084Q31.375 261.70834 30.546875 262.2396Q29.71875 262.75522 28.65625 262.75522Q27.59375 262.75522 26.75 262.2396Q25.921875 261.72397 25.46875 260.78647Q25.015625 259.83334 25.0 258.59897L25.0 258.1771Q25.0 256.9271 25.453125 255.97397Q25.90625 255.00522 26.734375 254.4896Q27.578125 253.97397 28.640625 253.97397Q29.703125 253.97397 30.53125 254.4896Q31.359375 255.00522 31.8125 255.97397Q32.265625 256.9271 32.265625 258.1771L32.265625 258.5521ZM30.484375 258.1771Q30.484375 256.83334 30.0 256.13022Q29.53125 255.4271 28.640625 255.4271Q27.75 255.4271 27.265625 256.13022Q26.796875 256.81772 26.78125 258.14584L26.78125 258.5521Q26.78125 259.8646 27.265625 260.58334Q27.75 261.3021 28.65625 261.3021Q29.53125 261.3021 30.0 260.6146Q30.484375 259.91147 30.484375 258.58334L30.484375 258.1771ZM33.609375 262.63022L33.609375 257.53647L32.671875 257.53647L32.671875 256.28647L33.609375 256.28647L33.609375 255.75522Q33.609375 254.6771 34.21875 254.09897Q34.84375 253.50522 35.9375 253.50522Q36.296875 253.50522 36.796875 253.63022L36.78125 254.94272Q36.578125 254.88022 36.265625 254.88022Q35.3125 254.88022 35.3125 255.78647L35.3125 256.28647L36.578125 256.28647L36.578125 257.53647L35.3125 257.53647L35.3125 262.63022L33.609375 262.63022ZM39.171875 254.72397L39.171875 256.28647L40.265625 256.28647L40.265625 257.53647L39.171875 257.53647L39.171875 260.69272Q39.171875 261.0521 39.3125 261.20834Q39.453125 261.34897 39.828125 261.34897Q40.109375 261.34897 40.328125 261.31772L40.328125 262.59897Q39.828125 262.75522 39.296875 262.75522Q37.515625 262.75522 37.484375 260.94272L37.484375 257.53647L36.5625 257.53647L36.5625 256.28647L37.484375 256.28647L37.484375 254.72397L39.171875 254.72397ZM44.0625 262.75522Q42.671875 262.75522 41.796875 261.89584Q40.921875 261.03647 40.921875 259.6146L40.921875 259.44272Q40.921875 258.4896 41.28125 257.7396Q41.65625 256.9896 42.328125 256.58334Q43.015625 256.1771 43.875 256.1771Q45.1875 256.1771 45.921875 257.00522Q46.671875 257.81772 46.671875 259.31772L46.671875 260.00522L42.640625 260.00522Q42.71875 260.63022 43.125 261.00522Q43.546875 261.38022 44.1875 261.38022Q45.15625 261.38022 45.703125 260.6771L46.546875 261.59897Q46.15625 262.14584 45.5 262.45834Q44.859375 262.75522 44.0625 262.75522ZM43.875 257.53647Q43.375 257.53647 43.0625 257.88022Q42.75 258.22397 42.65625 258.84897L45.015625 258.84897L45.015625 258.72397Q45.0 258.16147 44.703125 257.84897Q44.421875 257.53647 43.875 257.53647ZM48.703125 256.28647L48.765625 257.02084Q49.4375 256.1771 50.578125 256.1771Q51.59375 256.1771 52.078125 256.77084Q52.578125 257.34897 52.59375 258.53647L52.59375 262.63022L50.890625 262.63022L50.890625 258.56772Q50.890625 258.03647 50.65625 257.8021Q50.421875 257.5521 49.875 257.5521Q49.171875 257.5521 48.8125 258.16147L48.8125 262.63022L47.109375 262.63022L47.109375 256.28647L48.703125 256.28647Z" fill-rule="nonzero"/><path fill="#9e9e9e" d="M30.09375 277.41147L31.0625 277.41147L31.0625 278.78647L30.09375 278.78647L30.09375 280.63022L28.390625 280.63022L28.390625 278.78647L24.90625 278.78647L24.828125 277.72397L28.375 272.09897L30.09375 272.09897L30.09375 277.41147ZM26.515625 277.41147L28.390625 277.41147L28.390625 274.41147L28.28125 274.59897L26.515625 277.41147ZM37.921875 280.63022L32.078125 280.63022L32.078125 279.47397L34.84375 276.52084Q35.40625 275.91147 35.671875 275.44272Q35.953125 274.97397 35.953125 274.56772Q35.953125 273.9896 35.65625 273.6771Q35.375 273.34897 34.84375 273.34897Q34.265625 273.34897 33.9375 273.7396Q33.609375 274.13022 33.609375 274.78647L31.90625 274.78647Q31.90625 274.00522 32.28125 273.3646Q32.65625 272.70834 33.328125 272.34897Q34.015625 271.97397 34.875 271.97397Q36.1875 271.97397 36.921875 272.6146Q37.65625 273.2396 37.65625 274.39584Q37.65625 275.03647 37.328125 275.69272Q37.0 276.34897 36.203125 277.22397L34.265625 279.27084L37.921875 279.27084L37.921875 280.63022ZM39.234375 279.8021Q39.234375 279.39584 39.5 279.14584Q39.78125 278.89584 40.1875 278.89584Q40.609375 278.89584 40.875 279.14584Q41.15625 279.39584 41.15625 279.8021Q41.15625 280.19272 40.875 280.44272Q40.609375 280.69272 40.1875 280.69272Q39.78125 280.69272 39.5 280.44272Q39.234375 280.19272 39.234375 279.8021ZM46.046875 277.22397Q45.375 277.8646 44.5 277.8646Q43.359375 277.8646 42.671875 277.09897Q42.0 276.31772 42.0 275.00522Q42.0 274.16147 42.359375 273.45834Q42.734375 272.75522 43.390625 272.3646Q44.046875 271.97397 44.875 271.97397Q45.71875 271.97397 46.375 272.39584Q47.03125 272.81772 47.390625 273.6146Q47.75 274.41147 47.765625 275.4271L47.765625 276.0521Q47.765625 278.19272 46.703125 279.41147Q45.640625 280.63022 43.6875 280.70834L43.28125 280.70834L43.28125 279.3021L43.65625 279.28647Q45.859375 279.19272 46.046875 277.22397ZM44.90625 276.56772Q45.328125 276.56772 45.609375 276.3646Q45.90625 276.14584 46.0625 275.84897L46.0625 275.16147Q46.0625 274.3021 45.734375 273.83334Q45.40625 273.34897 44.859375 273.34897Q44.34375 273.34897 44.015625 273.81772Q43.6875 274.27084 43.6875 274.97397Q43.6875 275.6771 44.0 276.13022Q44.328125 276.56772 44.90625 276.56772ZM49.0625 273.7396Q49.0625 272.95834 49.5625 272.47397Q50.078125 271.97397 50.90625 271.97397Q51.734375 271.97397 52.25 272.45834Q52.765625 272.94272 52.765625 273.77084L52.765625 274.19272Q52.765625 274.97397 52.25 275.45834Q51.734375 275.94272 50.921875 275.94272Q50.078125 275.94272 49.5625 275.45834Q49.0625 274.97397 49.0625 274.16147L49.0625 273.7396ZM50.1875 274.19272Q50.1875 274.53647 50.390625 274.75522Q50.59375 274.97397 50.921875 274.97397Q51.25 274.97397 51.4375 274.75522Q51.625 274.53647 51.625 274.1771L51.625 273.7396Q51.625 273.38022 51.4375 273.1771Q51.25 272.95834 50.90625 272.95834Q50.578125 272.95834 50.375 273.1771Q50.1875 273.38022 50.1875 273.75522L50.1875 274.19272ZM53.140625 278.53647Q53.140625 277.7396 53.65625 277.27084Q54.171875 276.78647 54.984375 276.78647Q55.8125 276.78647 56.328125 277.27084Q56.84375 277.7396 56.84375 278.56772L56.84375 278.9896Q56.84375 279.78647 56.34375 280.27084Q55.84375 280.75522 55.0 280.75522Q54.15625 280.75522 53.640625 280.27084Q53.140625 279.77084 53.140625 278.97397L53.140625 278.53647ZM54.265625 278.9896Q54.265625 279.31772 54.46875 279.5521Q54.6875 279.77084 55.0 279.77084Q55.71875 279.77084 55.71875 278.9896L55.71875 278.53647Q55.71875 278.19272 55.515625 277.97397Q55.3125 277.75522 54.984375 277.75522Q54.65625 277.75522 54.453125 277.97397Q54.265625 278.19272 54.265625 278.5521L54.265625 278.9896ZM51.25 279.9896L50.421875 279.5521L54.59375 272.88022L55.421875 273.31772L51.25 279.9896Z" fill-rule="nonzero"/><path stroke="#757575" stroke-width="1.0" stroke-linecap="butt" d="M24.5 267.13022L129.69318 267.13022L151.11758 267.13022" fill-rule="nonzero"/><path fill="#9e9e9e" d="M153.11758 267.13022C153.11758 266.02567 152.22215 265.13022 151.11758 265.13022C150.01302 265.13022 149.11758 266.02567 149.11758 267.13022C149.11758 268.2348 150.01302 269.13022 151.11758 269.13022C152.22215 269.13022 153.11758 268.2348 153.11758 267.13022" fill-rule="nonzero"/><path fill="#1a1a1a" d="M443.28638 102.21279L441.52075 102.21279L438.09888 96.60342L438.09888 102.21279L436.34888 102.21279L436.34888 93.68154L438.09888 93.68154L441.53638 99.30654L441.53638 93.68154L443.28638 93.68154L443.28638 102.21279ZM443.97388 98.97842Q443.97388 98.04092 444.33325 97.30654Q444.69263 96.55654 445.38013 96.16592Q446.06763 95.75967 446.95825 95.75967Q448.25513 95.75967 449.052 96.54092Q449.8645 97.32217 449.95825 98.66592L449.97388 99.10342Q449.97388 100.57217 449.16138 101.46279Q448.34888 102.33779 446.97388 102.33779Q445.59888 102.33779 444.78638 101.46279Q443.97388 100.57217 443.97388 99.05654L443.97388 98.97842ZM445.66138 99.10342Q445.66138 100.00967 446.00513 100.49404Q446.34888 100.96279 446.97388 100.96279Q447.59888 100.96279 447.94263 100.49404Q448.28638 100.02529 448.28638 98.97842Q448.28638 98.10342 447.94263 97.61904Q447.59888 97.11904 446.95825 97.11904Q446.34888 97.11904 446.00513 97.60342Q445.66138 98.08779 445.66138 99.10342ZM453.25513 94.30654L453.25513 95.86904L454.34888 95.86904L454.34888 97.11904L453.25513 97.11904L453.25513 100.27529Q453.25513 100.63467 453.39575 100.79092Q453.53638 100.93154 453.91138 100.93154Q454.19263 100.93154 454.41138 100.90029L454.41138 102.18154Q453.91138 102.33779 453.38013 102.33779Q451.59888 102.33779 451.56763 100.52529L451.56763 97.11904L450.64575 97.11904L450.64575 95.86904L451.56763 95.86904L451.56763 94.30654L453.25513 94.30654ZM461.50513 100.10342L463.427 93.68154L465.39575 93.68154L462.41138 102.21279L460.58325 102.21279L457.63013 93.68154L459.58325 93.68154L461.50513 100.10342ZM469.14575 102.33779Q467.75513 102.33779 466.88013 101.47842Q466.00513 100.61904 466.00513 99.19717L466.00513 99.02529Q466.00513 98.07217 466.3645 97.32217Q466.7395 96.57217 467.41138 96.16592Q468.09888 95.75967 468.95825 95.75967Q470.27075 95.75967 471.00513 96.58779Q471.75513 97.40029 471.75513 98.90029L471.75513 99.58779L467.72388 99.58779Q467.802 100.21279 468.20825 100.58779Q468.63013 100.96279 469.27075 100.96279Q470.2395 100.96279 470.78638 100.25967L471.63013 101.18154Q471.2395 101.72842 470.58325 102.04092Q469.94263 102.33779 469.14575 102.33779ZM468.95825 97.11904Q468.45825 97.11904 468.14575 97.46279Q467.83325 97.80654 467.7395 98.43154L470.09888 98.43154L470.09888 98.30654Q470.08325 97.74404 469.78638 97.43154Q469.50513 97.11904 468.95825 97.11904ZM475.802 97.46279Q475.45825 97.41592 475.19263 97.41592Q474.22388 97.41592 473.927 98.05654L473.927 102.21279L472.2395 102.21279L472.2395 95.86904L473.83325 95.86904L473.88013 96.63467Q474.39575 95.75967 475.28638 95.75967Q475.56763 95.75967 475.81763 95.83779L475.802 97.46279ZM478.59888 99.82217L479.77075 95.86904L481.58325 95.86904L479.03638 103.19717L478.89575 103.52529Q478.33325 104.77529 477.02075 104.77529Q476.66138 104.77529 476.27075 104.66592L476.27075 103.38467L476.53638 103.38467Q477.02075 103.38467 477.25513 103.22842Q477.4895 103.08779 477.63013 102.75967L477.81763 102.22842L475.59888 95.86904L477.427 95.86904L478.59888 99.82217ZM492.34888 98.13467Q492.34888 99.40029 491.89575 100.35342Q491.45825 101.29092 490.63013 101.82217Q489.802 102.33779 488.7395 102.33779Q487.677 102.33779 486.83325 101.82217Q486.00513 101.30654 485.552 100.36904Q485.09888 99.41592 485.08325 98.18154L485.08325 97.75967Q485.08325 96.50967 485.53638 95.55654Q485.9895 94.58779 486.81763 94.07217Q487.66138 93.55654 488.72388 93.55654Q489.78638 93.55654 490.6145 94.07217Q491.44263 94.58779 491.89575 95.55654Q492.34888 96.50967 492.34888 97.75967L492.34888 98.13467ZM490.56763 97.75967Q490.56763 96.41592 490.08325 95.71279Q489.6145 95.00967 488.72388 95.00967Q487.83325 95.00967 487.34888 95.71279Q486.88013 96.40029 486.8645 97.72842L486.8645 98.13467Q486.8645 99.44717 487.34888 100.16592Q487.83325 100.88467 488.7395 100.88467Q489.6145 100.88467 490.08325 100.19717Q490.56763 99.49404 490.56763 98.16592L490.56763 97.75967ZM493.69263 102.21279L493.69263 97.11904L492.75513 97.11904L492.75513 95.86904L493.69263 95.86904L493.69263 95.33779Q493.69263 94.25967 494.302 93.68154Q494.927 93.08779 496.02075 93.08779Q496.38013 93.08779 496.88013 93.21279L496.8645 94.52529Q496.66138 94.46279 496.34888 94.46279Q495.39575 94.46279 495.39575 95.36904L495.39575 95.86904L496.66138 95.86904L496.66138 97.11904L495.39575 97.11904L495.39575 102.21279L493.69263 102.21279ZM499.25513 94.30654L499.25513 95.86904L500.34888 95.86904L500.34888 97.11904L499.25513 97.11904L499.25513 100.27529Q499.25513 100.63467 499.39575 100.79092Q499.53638 100.93154 499.91138 100.93154Q500.19263 100.93154 500.41138 100.90029L500.41138 102.18154Q499.91138 102.33779 499.38013 102.33779Q497.59888 102.33779 497.56763 100.52529L497.56763 97.11904L496.64575 97.11904L496.64575 95.86904L497.56763 95.86904L497.56763 94.30654L499.25513 94.30654ZM504.14575 102.33779Q502.75513 102.33779 501.88013 101.47842Q501.00513 100.61904 501.00513 99.19717L501.00513 99.02529Q501.00513 98.07217 501.3645 97.32217Q501.7395 96.57217 502.41138 96.16592Q503.09888 95.75967 503.95825 95.75967Q505.27075 95.75967 506.00513 96.58779Q506.75513 97.40029 506.75513 98.90029L506.75513 99.58779L502.72388 99.58779Q502.802 100.21279 503.20825 100.58779Q503.63013 100.96279 504.27075 100.96279Q505.2395 100.96279 505.78638 100.25967L506.63013 101.18154Q506.2395 101.72842 505.58325 102.04092Q504.94263 102.33779 504.14575 102.33779ZM503.95825 97.11904Q503.45825 97.11904 503.14575 97.46279Q502.83325 97.80654 502.7395 98.43154L505.09888 98.43154L505.09888 98.30654Q505.08325 97.74404 504.78638 97.43154Q504.50513 97.11904 503.95825 97.11904ZM508.78638 95.86904L508.84888 96.60342Q509.52075 95.75967 510.66138 95.75967Q511.677 95.75967 512.1614 96.35342Q512.6614 96.93154 512.677 98.11904L512.677 102.21279L510.97388 102.21279L510.97388 98.15029Q510.97388 97.61904 510.7395 97.38467Q510.50513 97.13467 509.95825 97.13467Q509.25513 97.13467 508.89575 97.74404L508.89575 102.21279L507.19263 102.21279L507.19263 95.86904L508.78638 95.86904Z" fill-rule="nonzero"/><path fill="#9e9e9e" d="M485.27075 120.21279L483.58325 120.21279L483.58325 113.68154L481.56763 114.30654L481.56763 112.93154L485.09888 111.66592L485.27075 111.66592L485.27075 120.21279ZM493.177 116.99404L494.14575 116.99404L494.14575 118.36904L493.177 118.36904L493.177 120.21279L491.47388 120.21279L491.47388 118.36904L487.9895 118.36904L487.91138 117.30654L491.45825 111.68154L493.177 111.68154L493.177 116.99404ZM489.59888 116.99404L491.47388 116.99404L491.47388 113.99404L491.3645 114.18154L489.59888 116.99404ZM495.31763 119.38467Q495.31763 118.97842 495.58325 118.72842Q495.8645 118.47842 496.27075 118.47842Q496.69263 118.47842 496.95825 118.72842Q497.2395 118.97842 497.2395 119.38467Q497.2395 119.77529 496.95825 120.02529Q496.69263 120.27529 496.27075 120.27529Q495.8645 120.27529 495.58325 120.02529Q495.31763 119.77529 495.31763 119.38467ZM499.88013 115.19717L500.78638 115.19717Q501.427 115.19717 501.7395 114.88467Q502.052 114.55654 502.052 114.02529Q502.052 113.50967 501.7395 113.22842Q501.44263 112.93154 500.89575 112.93154Q500.41138 112.93154 500.08325 113.19717Q499.75513 113.46279 499.75513 113.88467L498.06763 113.88467Q498.06763 113.22842 498.427 112.69717Q498.78638 112.16592 499.427 111.86904Q500.08325 111.55654 500.8645 111.55654Q502.20825 111.55654 502.97388 112.21279Q503.75513 112.85342 503.75513 113.99404Q503.75513 114.58779 503.39575 115.08779Q503.03638 115.57217 502.45825 115.82217Q503.177 116.08779 503.52075 116.60342Q503.88013 117.11904 503.88013 117.82217Q503.88013 118.96279 503.052 119.65029Q502.22388 120.33779 500.8645 120.33779Q499.58325 120.33779 498.77075 119.66592Q497.95825 118.97842 497.95825 117.86904L499.64575 117.86904Q499.64575 118.35342 500.00513 118.66592Q500.38013 118.96279 500.89575 118.96279Q501.50513 118.96279 501.84888 118.65029Q502.19263 118.32217 502.19263 117.79092Q502.19263 116.52529 500.78638 116.52529L499.88013 116.52529L499.88013 115.19717ZM505.14575 113.32217Q505.14575 112.54092 505.64575 112.05654Q506.16138 111.55654 506.9895 111.55654Q507.81763 111.55654 508.33325 112.04092Q508.84888 112.52529 508.84888 113.35342L508.84888 113.77529Q508.84888 114.55654 508.33325 115.04092Q507.81763 115.52529 507.00513 115.52529Q506.16138 115.52529 505.64575 115.04092Q505.14575 114.55654 505.14575 113.74404L505.14575 113.32217ZM506.27075 113.77529Q506.27075 114.11904 506.47388 114.33779Q506.677 114.55654 507.00513 114.55654Q507.33325 114.55654 507.52075 114.33779Q507.70825 114.11904 507.70825 113.75967L507.70825 113.32217Q507.70825 112.96279 507.52075 112.75967Q507.33325 112.54092 506.9895 112.54092Q506.66138 112.54092 506.45825 112.75967Q506.27075 112.96279 506.27075 113.33779L506.27075 113.77529ZM509.22388 118.11904Q509.22388 117.32217 509.7395 116.85342Q510.25513 116.36904 511.06763 116.36904Q511.89575 116.36904 512.4114 116.85342Q512.927 117.32217 512.927 118.15029L512.927 118.57217Q512.927 119.36904 512.427 119.85342Q511.927 120.33779 511.08325 120.33779Q510.2395 120.33779 509.72388 119.85342Q509.22388 119.35342 509.22388 118.55654L509.22388 118.11904ZM510.34888 118.57217Q510.34888 118.90029 510.552 119.13467Q510.77075 119.35342 511.08325 119.35342Q511.802 119.35342 511.802 118.57217L511.802 118.11904Q511.802 117.77529 511.59888 117.55654Q511.39575 117.33779 511.06763 117.33779Q510.7395 117.33779 510.53638 117.55654Q510.34888 117.77529 510.34888 118.13467L510.34888 118.57217ZM507.33325 119.57217L506.50513 119.13467L510.677 112.46279L511.50513 112.90029L507.33325 119.57217Z" fill-rule="nonzero"/><path stroke="#757575" stroke-width="1.0" stroke-linecap="butt" d="M513.58325 106.71279L408.39008 106.71279L324.00647 106.71279" fill-rule="nonzero"/><path fill="#9e9e9e" d="M326.00647 106.71279C326.00647 105.608215 325.11102 104.71279 324.00647 104.71279C322.9019 104.71279 322.00647 105.608215 322.00647 106.71279C322.00647 107.81736 322.9019 108.71279 324.00647 108.71279C325.11102 108.71279 326.00647 107.81736 326.00647 106.71279" fill-rule="nonzero"/><path fill="#1a1a1a" d="M459.77075 260.39584Q459.77075 259.89584 459.41138 259.63022Q459.06763 259.3646 458.14575 259.06772Q457.2395 258.77084 456.70825 258.47397Q455.25513 257.69272 455.25513 256.3646Q455.25513 255.6771 455.64575 255.13022Q456.03638 254.58334 456.75513 254.28647Q457.4895 253.97397 458.39575 253.97397Q459.31763 253.97397 460.02075 254.31772Q460.7395 254.64584 461.13013 255.25522Q461.53638 255.84897 461.53638 256.6146L459.77075 256.6146Q459.77075 256.03647 459.39575 255.70834Q459.03638 255.38022 458.3645 255.38022Q457.72388 255.38022 457.3645 255.66147Q457.00513 255.9271 457.00513 256.3646Q457.00513 256.78647 457.427 257.06772Q457.84888 257.34897 458.66138 257.59897Q460.16138 258.0521 460.84888 258.72397Q461.53638 259.38022 461.53638 260.38022Q461.53638 261.4896 460.69263 262.13022Q459.8645 262.75522 458.44263 262.75522Q457.45825 262.75522 456.64575 262.39584Q455.83325 262.02084 455.41138 261.39584Q454.9895 260.77084 454.9895 259.94272L456.75513 259.94272Q456.75513 261.3646 458.44263 261.3646Q459.06763 261.3646 459.41138 261.1146Q459.77075 260.84897 459.77075 260.39584ZM461.97388 259.39584Q461.97388 258.45834 462.33325 257.72397Q462.69263 256.97397 463.38013 256.58334Q464.06763 256.1771 464.95825 256.1771Q466.25513 256.1771 467.052 256.95834Q467.8645 257.7396 467.95825 259.08334L467.97388 259.52084Q467.97388 260.9896 467.16138 261.88022Q466.34888 262.75522 464.97388 262.75522Q463.59888 262.75522 462.78638 261.88022Q461.97388 260.9896 461.97388 259.47397L461.97388 259.39584ZM463.66138 259.52084Q463.66138 260.4271 464.00513 260.91147Q464.34888 261.38022 464.97388 261.38022Q465.59888 261.38022 465.94263 260.91147Q466.28638 260.44272 466.28638 259.39584Q466.28638 258.52084 465.94263 258.03647Q465.59888 257.53647 464.95825 257.53647Q464.34888 257.53647 464.00513 258.02084Q463.66138 258.50522 463.66138 259.52084ZM470.81763 256.28647L470.88013 257.00522Q471.552 256.1771 472.69263 256.1771Q473.927 256.1771 474.38013 257.14584Q475.052 256.1771 476.28638 256.1771Q477.31763 256.1771 477.81763 256.78647Q478.31763 257.38022 478.31763 258.58334L478.31763 262.63022L476.63013 262.63022L476.63013 258.58334Q476.63013 258.0521 476.41138 257.8021Q476.20825 257.5521 475.66138 257.5521Q474.91138 257.5521 474.6145 258.27084L474.6145 262.63022L472.927 262.63022L472.927 258.59897Q472.927 258.03647 472.70825 257.8021Q472.4895 257.5521 471.97388 257.5521Q471.25513 257.5521 470.927 258.14584L470.927 262.63022L469.2395 262.63022L469.2395 256.28647L470.81763 256.28647ZM482.14575 262.75522Q480.75513 262.75522 479.88013 261.89584Q479.00513 261.03647 479.00513 259.6146L479.00513 259.44272Q479.00513 258.4896 479.3645 257.7396Q479.7395 256.9896 480.41138 256.58334Q481.09888 256.1771 481.95825 256.1771Q483.27075 256.1771 484.00513 257.00522Q484.75513 257.81772 484.75513 259.31772L484.75513 260.00522L480.72388 260.00522Q480.802 260.63022 481.20825 261.00522Q481.63013 261.38022 482.27075 261.38022Q483.2395 261.38022 483.78638 260.6771L484.63013 261.59897Q484.2395 262.14584 483.58325 262.45834Q482.94263 262.75522 482.14575 262.75522ZM481.95825 257.53647Q481.45825 257.53647 481.14575 257.88022Q480.83325 258.22397 480.7395 258.84897L483.09888 258.84897L483.09888 258.72397Q483.08325 258.16147 482.78638 257.84897Q482.50513 257.53647 481.95825 257.53647ZM487.25513 254.72397L487.25513 256.28647L488.34888 256.28647L488.34888 257.53647L487.25513 257.53647L487.25513 260.69272Q487.25513 261.0521 487.39575 261.20834Q487.53638 261.34897 487.91138 261.34897Q488.19263 261.34897 488.41138 261.31772L488.41138 262.59897Q487.91138 262.75522 487.38013 262.75522Q485.59888 262.75522 485.56763 260.94272L485.56763 257.53647L484.64575 257.53647L484.64575 256.28647L485.56763 256.28647L485.56763 254.72397L487.25513 254.72397ZM491.02075 262.63022L489.31763 262.63022L489.31763 256.28647L491.02075 256.28647L491.02075 262.63022ZM489.22388 254.64584Q489.22388 254.27084 489.47388 254.02084Q489.7395 253.77084 490.177 253.77084Q490.59888 253.77084 490.84888 254.02084Q491.1145 254.27084 491.1145 254.64584Q491.1145 255.03647 490.84888 255.28647Q490.59888 255.52084 490.16138 255.52084Q489.7395 255.52084 489.47388 255.28647Q489.22388 255.03647 489.22388 254.64584ZM493.81763 256.28647L493.88013 257.00522Q494.552 256.1771 495.69263 256.1771Q496.927 256.1771 497.38013 257.14584Q498.052 256.1771 499.28638 256.1771Q500.31763 256.1771 500.81763 256.78647Q501.31763 257.38022 501.31763 258.58334L501.31763 262.63022L499.63013 262.63022L499.63013 258.58334Q499.63013 258.0521 499.41138 257.8021Q499.20825 257.5521 498.66138 257.5521Q497.91138 257.5521 497.6145 258.27084L497.6145 262.63022L495.927 262.63022L495.927 258.59897Q495.927 258.03647 495.70825 257.8021Q495.4895 257.5521 494.97388 257.5521Q494.25513 257.5521 493.927 258.14584L493.927 262.63022L492.2395 262.63022L492.2395 256.28647L493.81763 256.28647ZM505.14575 262.75522Q503.75513 262.75522 502.88013 261.89584Q502.00513 261.03647 502.00513 259.6146L502.00513 259.44272Q502.00513 258.4896 502.3645 257.7396Q502.7395 256.9896 503.41138 256.58334Q504.09888 256.1771 504.95825 256.1771Q506.27075 256.1771 507.00513 257.00522Q507.75513 257.81772 507.75513 259.31772L507.75513 260.00522L503.72388 260.00522Q503.802 260.63022 504.20825 261.00522Q504.63013 261.38022 505.27075 261.38022Q506.2395 261.38022 506.78638 260.6771L507.63013 261.59897Q507.2395 262.14584 506.58325 262.45834Q505.94263 262.75522 505.14575 262.75522ZM504.95825 257.53647Q504.45825 257.53647 504.14575 257.88022Q503.83325 258.22397 503.7395 258.84897L506.09888 258.84897L506.09888 258.72397Q506.08325 258.16147 505.78638 257.84897Q505.50513 257.53647 504.95825 257.53647ZM511.66138 260.88022Q511.66138 260.56772 511.34888 260.39584Q511.052 260.20834 510.38013 260.06772Q508.1145 259.59897 508.1145 258.14584Q508.1145 257.3021 508.802 256.7396Q509.50513 256.1771 510.64575 256.1771Q511.84888 256.1771 512.5676 256.7396Q513.302 257.3021 513.302 258.22397L511.59888 258.22397Q511.59888 257.84897 511.3645 257.6146Q511.13013 257.38022 510.63013 257.38022Q510.20825 257.38022 509.97388 257.58334Q509.7395 257.77084 509.7395 258.06772Q509.7395 258.34897 510.00513 258.52084Q510.27075 258.69272 510.89575 258.81772Q511.53638 258.94272 511.97388 259.09897Q513.3176 259.59897 513.3176 260.8021Q513.3176 261.6771 512.5676 262.22397Q511.83325 262.75522 510.64575 262.75522Q509.84888 262.75522 509.22388 262.47397Q508.6145 262.1771 508.25513 261.69272Q507.91138 261.19272 507.91138 260.6146L509.52075 260.6146Q509.53638 261.06772 509.84888 261.31772Q510.16138 261.5521 510.677 261.5521Q511.177 261.5521 511.41138 261.3646Q511.66138 261.1771 511.66138 260.88022Z" fill-rule="nonzero"/><path fill="#9e9e9e" d="M482.88013 275.6146L483.78638 275.6146Q484.427 275.6146 484.7395 275.3021Q485.052 274.97397 485.052 274.44272Q485.052 273.9271 484.7395 273.64584Q484.44263 273.34897 483.89575 273.34897Q483.41138 273.34897 483.08325 273.6146Q482.75513 273.88022 482.75513 274.3021L481.06763 274.3021Q481.06763 273.64584 481.427 273.1146Q481.78638 272.58334 482.427 272.28647Q483.08325 271.97397 483.8645 271.97397Q485.20825 271.97397 485.97388 272.63022Q486.75513 273.27084 486.75513 274.41147Q486.75513 275.00522 486.39575 275.50522Q486.03638 275.9896 485.45825 276.2396Q486.177 276.50522 486.52075 277.02084Q486.88013 277.53647 486.88013 278.2396Q486.88013 279.38022 486.052 280.06772Q485.22388 280.75522 483.8645 280.75522Q482.58325 280.75522 481.77075 280.08334Q480.95825 279.39584 480.95825 278.28647L482.64575 278.28647Q482.64575 278.77084 483.00513 279.08334Q483.38013 279.38022 483.89575 279.38022Q484.50513 279.38022 484.84888 279.06772Q485.19263 278.7396 485.19263 278.20834Q485.19263 276.94272 483.78638 276.94272L482.88013 276.94272L482.88013 275.6146ZM489.88013 275.6146L490.78638 275.6146Q491.427 275.6146 491.7395 275.3021Q492.052 274.97397 492.052 274.44272Q492.052 273.9271 491.7395 273.64584Q491.44263 273.34897 490.89575 273.34897Q490.41138 273.34897 490.08325 273.6146Q489.75513 273.88022 489.75513 274.3021L488.06763 274.3021Q488.06763 273.64584 488.427 273.1146Q488.78638 272.58334 489.427 272.28647Q490.08325 271.97397 490.8645 271.97397Q492.20825 271.97397 492.97388 272.63022Q493.75513 273.27084 493.75513 274.41147Q493.75513 275.00522 493.39575 275.50522Q493.03638 275.9896 492.45825 276.2396Q493.177 276.50522 493.52075 277.02084Q493.88013 277.53647 493.88013 278.2396Q493.88013 279.38022 493.052 280.06772Q492.22388 280.75522 490.8645 280.75522Q489.58325 280.75522 488.77075 280.08334Q487.95825 279.39584 487.95825 278.28647L489.64575 278.28647Q489.64575 278.77084 490.00513 279.08334Q490.38013 279.38022 490.89575 279.38022Q491.50513 279.38022 491.84888 279.06772Q492.19263 278.7396 492.19263 278.20834Q492.19263 276.94272 490.78638 276.94272L489.88013 276.94272L489.88013 275.6146ZM495.31763 279.8021Q495.31763 279.39584 495.58325 279.14584Q495.8645 278.89584 496.27075 278.89584Q496.69263 278.89584 496.95825 279.14584Q497.2395 279.39584 497.2395 279.8021Q497.2395 280.19272 496.95825 280.44272Q496.69263 280.69272 496.27075 280.69272Q495.8645 280.69272 495.58325 280.44272Q495.31763 280.19272 495.31763 279.8021ZM499.88013 275.6146L500.78638 275.6146Q501.427 275.6146 501.7395 275.3021Q502.052 274.97397 502.052 274.44272Q502.052 273.9271 501.7395 273.64584Q501.44263 273.34897 500.89575 273.34897Q500.41138 273.34897 500.08325 273.6146Q499.75513 273.88022 499.75513 274.3021L498.06763 274.3021Q498.06763 273.64584 498.427 273.1146Q498.78638 272.58334 499.427 272.28647Q500.08325 271.97397 500.8645 271.97397Q502.20825 271.97397 502.97388 272.63022Q503.75513 273.27084 503.75513 274.41147Q503.75513 275.00522 503.39575 275.50522Q503.03638 275.9896 502.45825 276.2396Q503.177 276.50522 503.52075 277.02084Q503.88013 277.53647 503.88013 278.2396Q503.88013 279.38022 503.052 280.06772Q502.22388 280.75522 500.8645 280.75522Q499.58325 280.75522 498.77075 280.08334Q497.95825 279.39584 497.95825 278.28647L499.64575 278.28647Q499.64575 278.77084 500.00513 279.08334Q500.38013 279.38022 500.89575 279.38022Q501.50513 279.38022 501.84888 279.06772Q502.19263 278.7396 502.19263 278.20834Q502.19263 276.94272 500.78638 276.94272L499.88013 276.94272L499.88013 275.6146ZM505.14575 273.7396Q505.14575 272.95834 505.64575 272.47397Q506.16138 271.97397 506.9895 271.97397Q507.81763 271.97397 508.33325 272.45834Q508.84888 272.94272 508.84888 273.77084L508.84888 274.19272Q508.84888 274.97397 508.33325 275.45834Q507.81763 275.94272 507.00513 275.94272Q506.16138 275.94272 505.64575 275.45834Q505.14575 274.97397 505.14575 274.16147L505.14575 273.7396ZM506.27075 274.19272Q506.27075 274.53647 506.47388 274.75522Q506.677 274.97397 507.00513 274.97397Q507.33325 274.97397 507.52075 274.75522Q507.70825 274.53647 507.70825 274.1771L507.70825 273.7396Q507.70825 273.38022 507.52075 273.1771Q507.33325 272.95834 506.9895 272.95834Q506.66138 272.95834 506.45825 273.1771Q506.27075 273.38022 506.27075 273.75522L506.27075 274.19272ZM509.22388 278.53647Q509.22388 277.7396 509.7395 277.27084Q510.25513 276.78647 511.06763 276.78647Q511.89575 276.78647 512.4114 277.27084Q512.927 277.7396 512.927 278.56772L512.927 278.9896Q512.927 279.78647 512.427 280.27084Q511.927 280.75522 511.08325 280.75522Q510.2395 280.75522 509.72388 280.27084Q509.22388 279.77084 509.22388 278.97397L509.22388 278.53647ZM510.34888 278.9896Q510.34888 279.31772 510.552 279.5521Q510.77075 279.77084 511.08325 279.77084Q511.802 279.77084 511.802 278.9896L511.802 278.53647Q511.802 278.19272 511.59888 277.97397Q511.39575 277.75522 511.06763 277.75522Q510.7395 277.75522 510.53638 277.97397Q510.34888 278.19272 510.34888 278.5521L510.34888 278.9896ZM507.33325 279.9896L506.50513 279.5521L510.677 272.88022L511.50513 273.31772L507.33325 279.9896Z" fill-rule="nonzero"/><path stroke="#757575" stroke-width="1.0" stroke-linecap="butt" d="M513.58325 267.13022L408.39008 267.13022L386.96567 267.13022" fill-rule="nonzero"/><path fill="#9e9e9e" d="M388.96567 267.13022C388.96567 266.02567 388.07025 265.13022 386.96567 265.13022C385.8611 265.13022 384.96567 266.02567 384.96567 267.13022C384.96567 268.2348 385.8611 269.13022 386.96567 269.13022C388.07025 269.13022 388.96567 268.2348 388.96567 267.13022" fill-rule="nonzero"/><path fill="#757575" d="M28.73225 33.85L26.3885 33.85L26.3885 22.474998L28.73225 22.474998L28.73225 33.85ZM31.701 33.85L31.701 27.053123L30.451 27.053123L30.451 25.396873L31.701 25.396873L31.701 24.678123Q31.701 23.256248 32.5135 22.474998Q33.341625 21.678123 34.810375 21.678123Q35.279125 21.678123 35.951 21.834373L35.935375 23.584373Q35.654125 23.521873 35.247875 23.521873Q33.966625 23.521873 33.966625 24.709373L33.966625 25.396873L35.654125 25.396873L35.654125 27.053123L33.966625 27.053123L33.966625 33.85L31.701 33.85ZM43.73225 33.85L41.3885 33.85L41.3885 22.474998L43.73225 22.474998L43.73225 33.85ZM48.16975 25.396873L48.23225 26.365623Q49.1385 25.240623 50.66975 25.240623Q52.0135 25.240623 52.66975 26.037498Q53.326 26.818748 53.341625 28.381248L53.341625 33.85L51.076 33.85L51.076 28.443748Q51.076 27.724998 50.7635 27.396873Q50.451 27.068748 49.73225 27.068748Q48.779125 27.068748 48.29475 27.881248L48.29475 33.85L46.04475 33.85L46.04475 25.396873L48.16975 25.396873ZM54.73225 29.553123Q54.73225 27.584373 55.622875 26.412498Q56.5135 25.240623 58.04475 25.240623Q59.279125 25.240623 60.091625 26.162498L60.091625 21.849998L62.35725 21.849998L62.35725 33.85L60.310375 33.85L60.201 32.94375Q59.35725 34.00625 58.029125 34.00625Q56.54475 34.00625 55.6385 32.834373Q54.73225 31.646873 54.73225 29.553123ZM56.997875 29.724998Q56.997875 30.912498 57.404125 31.553123Q57.826 32.178123 58.60725 32.178123Q59.654125 32.178123 60.091625 31.287498L60.091625 27.959373Q59.66975 27.068748 58.622875 27.068748Q56.997875 27.068748 56.997875 29.724998ZM66.46663 33.85L64.201004 33.85L64.201004 25.396873L66.46663 25.396873L66.46663 33.85ZM64.076004 23.209373Q64.076004 22.693748 64.40413 22.365623Q64.74788 22.037498 65.34163 22.037498Q65.919754 22.037498 66.263504 22.365623Q66.607254 22.693748 66.607254 23.209373Q66.607254 23.724998 66.24788 24.053123Q65.90413 24.381248 65.326004 24.381248Q64.763504 24.381248 64.419754 24.053123Q64.076004 23.724998 64.076004 23.209373ZM67.763504 29.553123Q67.763504 27.615623 68.68538 26.428123Q69.607254 25.240623 71.18538 25.240623Q72.576004 25.240623 73.34163 26.193748L73.43538 25.396873L75.482254 25.396873L75.482254 33.56875Q75.482254 34.678123 74.982254 35.490623Q74.482254 36.31875 73.56038 36.740623Q72.65413 37.178123 71.419754 37.178123Q70.49788 37.178123 69.607254 36.803123Q68.732254 36.44375 68.27913 35.85L69.27913 34.475Q70.12288 35.428123 71.326004 35.428123Q72.21663 35.428123 72.71663 34.94375Q73.21663 34.459373 73.21663 33.56875L73.21663 33.115623Q72.43538 34.00625 71.169754 34.00625Q69.638504 34.00625 68.701004 32.81875Q67.763504 31.615623 67.763504 29.646873L67.763504 29.553123ZM70.013504 29.724998Q70.013504 30.865623 70.46663 31.521873Q70.93538 32.178123 71.74788 32.178123Q72.77913 32.178123 73.21663 31.396873L73.21663 27.849998Q72.763504 27.068748 71.763504 27.068748Q70.951004 27.068748 70.482254 27.740623Q70.013504 28.396873 70.013504 29.724998ZM80.982254 34.00625Q79.12288 34.00625 77.951004 32.865623Q76.77913 31.724998 76.77913 29.818748L76.77913 29.599998Q76.77913 28.334373 77.263504 27.334373Q77.763504 26.318748 78.669754 25.787498Q79.576004 25.240623 80.732254 25.240623Q82.46663 25.240623 83.451004 26.334373Q84.451004 27.428123 84.451004 29.428123L84.451004 30.349998L79.076004 30.349998Q79.18538 31.178123 79.732254 31.678123Q80.27913 32.178123 81.12288 32.178123Q82.43538 32.178123 83.169754 31.240623L84.27913 32.475Q83.763504 33.19375 82.888504 33.6Q82.02913 34.00625 80.982254 34.00625ZM80.71663 27.068748Q80.044754 27.068748 79.62288 27.521873Q79.21663 27.974998 79.09163 28.818748L82.232254 28.818748L82.232254 28.631248Q82.21663 27.881248 81.826004 27.474998Q81.43538 27.068748 80.71663 27.068748ZM88.169754 25.396873L88.232254 26.365623Q89.138504 25.240623 90.669754 25.240623Q92.013504 25.240623 92.669754 26.037498Q93.326004 26.818748 93.34163 28.381248L93.34163 33.85L91.076004 33.85L91.076004 28.443748Q91.076004 27.724998 90.763504 27.396873Q90.451004 27.068748 89.732254 27.068748Q88.77913 27.068748 88.294754 27.881248L88.294754 33.85L86.044754 33.85L86.044754 25.396873L88.169754 25.396873ZM94.732254 29.537498Q94.732254 28.287498 95.21663 27.303123Q95.701004 26.318748 96.607254 25.787498Q97.52913 25.240623 98.732254 25.240623Q100.43538 25.240623 101.513504 26.287498Q102.607254 27.334373 102.732254 29.131248L102.74788 29.709373Q102.74788 31.646873 101.65413 32.834373Q100.576004 34.00625 98.74788 34.00625Q96.919754 34.00625 95.826004 32.834373Q94.732254 31.662498 94.732254 29.646873L94.732254 29.537498ZM96.99788 29.709373Q96.99788 30.912498 97.451004 31.553123Q97.90413 32.178123 98.74788 32.178123Q99.56038 32.178123 100.013504 31.553123Q100.482254 30.928123 100.482254 29.537498Q100.482254 28.365623 100.013504 27.724998Q99.56038 27.068748 98.732254 27.068748Q97.90413 27.068748 97.451004 27.709373Q96.99788 28.349998 96.99788 29.709373ZM109.15413 32.990623Q108.31038 34.00625 106.84163 34.00625Q105.482254 34.00625 104.763504 33.225Q104.044754 32.44375 104.02913 30.928123L104.02913 25.396873L106.294754 25.396873L106.294754 30.849998Q106.294754 32.178123 107.49788 32.178123Q108.638504 32.178123 109.076004 31.381248L109.076004 25.396873L111.34163 25.396873L111.34163 33.85L109.21663 33.85L109.15413 32.990623ZM117.669754 31.506248Q117.669754 31.099998 117.24788 30.865623Q116.84163 30.615623 115.93538 30.428123Q112.919754 29.803123 112.919754 27.865623Q112.919754 26.740623 113.857254 25.990623Q114.794754 25.240623 116.294754 25.240623Q117.90413 25.240623 118.87288 26.006248Q119.84163 26.756248 119.84163 27.959373L117.576004 27.959373Q117.576004 27.474998 117.263504 27.162498Q116.951004 26.849998 116.294754 26.849998Q115.71663 26.849998 115.40413 27.115623Q115.09163 27.365623 115.09163 27.756248Q115.09163 28.131248 115.451004 28.365623Q115.81038 28.599998 116.65413 28.771873Q117.49788 28.928123 118.076004 29.146873Q119.857254 29.803123 119.857254 31.412498Q119.857254 32.56875 118.857254 33.2875Q117.87288 34.00625 116.31038 34.00625Q115.24788 34.00625 114.419754 33.63125Q113.59163 33.240623 113.12288 32.584373Q112.65413 31.928123 112.65413 31.162498L114.794754 31.162498Q114.826004 31.756248 115.232254 32.084373Q115.65413 32.396873 116.357254 32.396873Q116.99788 32.396873 117.326004 32.1625Q117.669754 31.912498 117.669754 31.506248ZM129.98225 33.85Q129.826 33.5375 129.7635 33.084373Q128.93538 34.00625 127.62288 34.00625Q126.388504 34.00625 125.56038 33.2875Q124.74788 32.56875 124.74788 31.474998Q124.74788 30.131248 125.74788 29.412498Q126.74788 28.693748 128.62288 28.678123L129.66975 28.678123L129.66975 28.193748Q129.66975 27.615623 129.35725 27.271873Q129.06038 26.912498 128.41975 26.912498Q127.84163 26.912498 127.513504 27.193748Q127.201004 27.459373 127.201004 27.928123L124.93538 27.928123Q124.93538 27.193748 125.388504 26.568748Q125.84163 25.943748 126.669754 25.599998Q127.49788 25.240623 128.52913 25.240623Q130.09163 25.240623 131.0135 26.021873Q131.93538 26.803123 131.93538 28.224998L131.93538 31.896873Q131.93538 33.1 132.2635 33.709373L132.2635 33.85L129.98225 33.85ZM128.12288 32.271873Q128.62288 32.271873 129.04475 32.053123Q129.46663 31.834373 129.66975 31.459373L129.66975 30.006248L128.826 30.006248Q127.12288 30.006248 127.013504 31.178123L127.013504 31.303123Q127.013504 31.724998 127.31038 32.00625Q127.607254 32.271873 128.12288 32.271873ZM138.84163 27.506248Q138.37288 27.443748 138.02913 27.443748Q136.74788 27.443748 136.34163 28.318748L136.34163 33.85L134.09163 33.85L134.09163 25.396873L136.21663 25.396873L136.27913 26.396873Q136.96663 25.240623 138.16975 25.240623Q138.54475 25.240623 138.87288 25.334373L138.84163 27.506248ZM142.79475 23.318748L142.79475 25.396873L144.23225 25.396873L144.23225 27.053123L142.79475 27.053123L142.79475 31.271873Q142.79475 31.740623 142.96663 31.943748Q143.15413 32.146873 143.65413 32.146873Q144.02913 32.146873 144.326 32.084373L144.326 33.803123Q143.65413 34.00625 142.951 34.00625Q140.576 34.00625 140.52913 31.599998L140.52913 27.053123L139.29475 27.053123L139.29475 25.396873L140.52913 25.396873L140.52913 23.318748L142.79475 23.318748ZM152.43538 30.771873L153.54475 25.396873L155.73225 25.396873L153.576 33.85L151.68538 33.85L150.076 28.521873L148.48225 33.85L146.59163 33.85L144.43538 25.396873L146.62288 25.396873L147.71663 30.771873L149.2635 25.396873L150.90413 25.396873L152.43538 30.771873ZM156.73225 29.537498Q156.73225 28.287498 157.21663 27.303123Q157.701 26.318748 158.60725 25.787498Q159.52913 25.240623 160.73225 25.240623Q162.43538 25.240623 163.5135 26.287498Q164.60725 27.334373 164.73225 29.131248L164.74788 29.709373Q164.74788 31.646873 163.65413 32.834373Q162.576 34.00625 160.74788 34.00625Q158.91975 34.00625 157.826 32.834373Q156.73225 31.662498 156.73225 29.646873L156.73225 29.537498ZM158.99788 29.709373Q158.99788 30.912498 159.451 31.553123Q159.90413 32.178123 160.74788 32.178123Q161.56038 32.178123 162.0135 31.553123Q162.48225 30.928123 162.48225 29.537498Q162.48225 28.365623 162.0135 27.724998Q161.56038 27.068748 160.73225 27.068748Q159.90413 27.068748 159.451 27.709373Q158.99788 28.349998 158.99788 29.709373ZM170.84163 27.506248Q170.37288 27.443748 170.02913 27.443748Q168.74788 27.443748 168.34163 28.318748L168.34163 33.85L166.09163 33.85L166.09163 25.396873L168.21663 25.396873L168.27913 26.396873Q168.96663 25.240623 170.16975 25.240623Q170.54475 25.240623 170.87288 25.334373L170.84163 27.506248ZM175.15413 30.459373L174.34163 31.271873L174.34163 33.85L172.09163 33.85L172.09163 21.849998L174.34163 21.849998L174.34163 28.490623L174.77913 27.928123L176.951 25.396873L179.65413 25.396873L176.60725 28.912498L179.91975 33.85L177.326 33.85L175.15413 30.459373ZM185.66975 31.506248Q185.66975 31.099998 185.24788 30.865623Q184.84163 30.615623 183.93538 30.428123Q180.91975 29.803123 180.91975 27.865623Q180.91975 26.740623 181.85725 25.990623Q182.79475 25.240623 184.29475 25.240623Q185.90413 25.240623 186.87288 26.006248Q187.84163 26.756248 187.84163 27.959373L185.576 27.959373Q185.576 27.474998 185.2635 27.162498Q184.951 26.849998 184.29475 26.849998Q183.71663 26.849998 183.40413 27.115623Q183.09163 27.365623 183.09163 27.756248Q183.09163 28.131248 183.451 28.365623Q183.81038 28.599998 184.65413 28.771873Q185.49788 28.928123 186.076 29.146873Q187.85725 29.803123 187.85725 31.412498Q187.85725 32.56875 186.85725 33.2875Q185.87288 34.00625 184.31038 34.00625Q183.24788 34.00625 182.41975 33.63125Q181.59163 33.240623 181.12288 32.584373Q180.65413 31.928123 180.65413 31.162498L182.79475 31.162498Q182.826 31.756248 183.23225 32.084373Q183.65413 32.396873 184.35725 32.396873Q184.99788 32.396873 185.326 32.1625Q185.66975 31.912498 185.66975 31.506248ZM200.43538 30.771873L201.54475 25.396873L203.73225 25.396873L201.576 33.85L199.68538 33.85L198.076 28.521873L196.48225 33.85L194.59163 33.85L192.43538 25.396873L194.62288 25.396873L195.71663 30.771873L197.2635 25.396873L198.90413 25.396873L200.43538 30.771873ZM208.98225 34.00625Q207.12288 34.00625 205.951 32.865623Q204.77913 31.724998 204.77913 29.818748L204.77913 29.599998Q204.77913 28.334373 205.2635 27.334373Q205.7635 26.318748 206.66975 25.787498Q207.576 25.240623 208.73225 25.240623Q210.46663 25.240623 211.451 26.334373Q212.451 27.428123 212.451 29.428123L212.451 30.349998L207.076 30.349998Q207.18538 31.178123 207.73225 31.678123Q208.27913 32.178123 209.12288 32.178123Q210.43538 32.178123 211.16975 31.240623L212.27913 32.475Q211.7635 33.19375 210.8885 33.6Q210.02913 34.00625 208.98225 34.00625ZM208.71663 27.068748Q208.04475 27.068748 207.62288 27.521873Q207.21663 27.974998 207.09163 28.818748L210.23225 28.818748L210.23225 28.631248Q210.21663 27.881248 209.826 27.474998Q209.43538 27.068748 208.71663 27.068748ZM218.84163 27.506248Q218.37288 27.443748 218.02913 27.443748Q216.74788 27.443748 216.34163 28.318748L216.34163 33.85L214.09163 33.85L214.09163 25.396873L216.21663 25.396873L216.27913 26.396873Q216.96663 25.240623 218.16975 25.240623Q218.54475 25.240623 218.87288 25.334373L218.84163 27.506248ZM223.98225 34.00625Q222.12288 34.00625 220.951 32.865623Q219.77913 31.724998 219.77913 29.818748L219.77913 29.599998Q219.77913 28.334373 220.2635 27.334373Q220.7635 26.318748 221.66975 25.787498Q222.576 25.240623 223.73225 25.240623Q225.46663 25.240623 226.451 26.334373Q227.451 27.428123 227.451 29.428123L227.451 30.349998L222.076 30.349998Q222.18538 31.178123 222.73225 31.678123Q223.27913 32.178123 224.12288 32.178123Q225.43538 32.178123 226.16975 31.240623L227.27913 32.475Q226.7635 33.19375 225.8885 33.6Q225.02913 34.00625 223.98225 34.00625ZM223.71663 27.068748Q223.04475 27.068748 222.62288 27.521873Q222.21663 27.974998 222.09163 28.818748L225.23225 28.818748L225.23225 28.631248Q225.21663 27.881248 224.826 27.474998Q224.43538 27.068748 223.71663 27.068748ZM235.201 25.396873L235.27913 26.334373Q236.16975 25.240623 237.701 25.240623Q239.34163 25.240623 239.951 26.521873Q240.84163 25.240623 242.48225 25.240623Q243.85725 25.240623 244.52913 26.037498Q245.201 26.834373 245.201 28.443748L245.201 33.85L242.93538 33.85L242.93538 28.459373Q242.93538 27.740623 242.65413 27.412498Q242.37288 27.068748 241.66975 27.068748Q240.65413 27.068748 240.2635 28.037498L240.2635 33.85L238.0135 33.85L238.0135 28.459373Q238.0135 27.724998 237.71663 27.396873Q237.43538 27.068748 236.73225 27.068748Q235.77913 27.068748 235.34163 27.865623L235.34163 33.85L233.09163 33.85L233.09163 25.396873L235.201 25.396873ZM246.73225 29.537498Q246.73225 28.287498 247.21663 27.303123Q247.701 26.318748 248.60725 25.787498Q249.52913 25.240623 250.73225 25.240623Q252.43538 25.240623 253.5135 26.287498Q254.60725 27.334373 254.73225 29.131248L254.74788 29.709373Q254.74788 31.646873 253.65413 32.834373Q252.576 34.00625 250.74788 34.00625Q248.91975 34.00625 247.826 32.834373Q246.73225 31.662498 246.73225 29.646873L246.73225 29.537498ZM248.99788 29.709373Q248.99788 30.912498 249.451 31.553123Q249.90413 32.178123 250.74788 32.178123Q251.56038 32.178123 252.0135 31.553123Q252.48225 30.928123 252.48225 29.537498Q252.48225 28.365623 252.0135 27.724998Q251.56038 27.068748 250.73225 27.068748Q249.90413 27.068748 249.451 27.709373Q248.99788 28.349998 248.99788 29.709373ZM260.8416 27.506248Q260.37286 27.443748 260.0291 27.443748Q258.74786 27.443748 258.3416 28.318748L258.3416 33.85L256.0916 33.85L256.0916 25.396873L258.2166 25.396873L258.2791 26.396873Q258.9666 25.240623 260.16974 25.240623Q260.54474 25.240623 260.87286 25.334373L260.8416 27.506248ZM265.98224 34.00625Q264.12286 34.00625 262.951 32.865623Q261.7791 31.724998 261.7791 29.818748L261.7791 29.599998Q261.7791 28.334373 262.2635 27.334373Q262.7635 26.318748 263.66974 25.787498Q264.576 25.240623 265.73224 25.240623Q267.4666 25.240623 268.451 26.334373Q269.451 27.428123 269.451 29.428123L269.451 30.349998L264.076 30.349998Q264.18536 31.178123 264.73224 31.678123Q265.2791 32.178123 266.12286 32.178123Q267.43536 32.178123 268.16974 31.240623L269.2791 32.475Q268.7635 33.19375 267.8885 33.6Q267.0291 34.00625 265.98224 34.00625ZM265.7166 27.068748Q265.04474 27.068748 264.62286 27.521873Q264.2166 27.974998 264.0916 28.818748L267.23224 28.818748L267.23224 28.631248Q267.2166 27.881248 266.826 27.474998Q266.43536 27.068748 265.7166 27.068748ZM279.98224 33.85Q279.826 33.5375 279.7635 33.084373Q278.93536 34.00625 277.62286 34.00625Q276.3885 34.00625 275.56036 33.2875Q274.74786 32.56875 274.74786 31.474998Q274.74786 30.131248 275.74786 29.412498Q276.74786 28.693748 278.62286 28.678123L279.66974 28.678123L279.66974 28.193748Q279.66974 27.615623 279.35724 27.271873Q279.06036 26.912498 278.41974 26.912498Q277.8416 26.912498 277.5135 27.193748Q277.201 27.459373 277.201 27.928123L274.93536 27.928123Q274.93536 27.193748 275.3885 26.568748Q275.8416 25.943748 276.66974 25.599998Q277.49786 25.240623 278.5291 25.240623Q280.0916 25.240623 281.0135 26.021873Q281.93536 26.803123 281.93536 28.224998L281.93536 31.896873Q281.93536 33.1 282.2635 33.709373L282.2635 33.85L279.98224 33.85ZM278.12286 32.271873Q278.62286 32.271873 279.04474 32.053123Q279.4666 31.834373 279.66974 31.459373L279.66974 30.006248L278.826 30.006248Q277.12286 30.006248 277.0135 31.178123L277.0135 31.303123Q277.0135 31.724998 277.31036 32.00625Q277.60724 32.271873 278.12286 32.271873ZM287.60724 32.178123Q288.23224 32.178123 288.62286 31.834373Q289.0135 31.490623 289.0291 30.928123L291.1385 30.928123Q291.1385 31.787498 290.66974 32.50625Q290.2166 33.209373 289.4041 33.615623Q288.60724 34.00625 287.6385 34.00625Q285.826 34.00625 284.7791 32.85Q283.73224 31.693748 283.73224 29.662498L283.73224 29.521873Q283.73224 27.568748 284.7635 26.412498Q285.81036 25.240623 287.62286 25.240623Q289.2166 25.240623 290.16974 26.146873Q291.12286 27.037498 291.1385 28.537498L289.0291 28.537498Q289.0135 27.881248 288.62286 27.474998Q288.23224 27.068748 287.5916 27.068748Q286.79474 27.068748 286.3885 27.646873Q285.99786 28.209373 285.99786 29.506248L285.99786 29.740623Q285.99786 31.037498 286.3885 31.615623Q286.79474 32.178123 287.60724 32.178123ZM295.60724 32.178123Q296.23224 32.178123 296.62286 31.834373Q297.0135 31.490623 297.0291 30.928123L299.1385 30.928123Q299.1385 31.787498 298.66974 32.50625Q298.2166 33.209373 297.4041 33.615623Q296.60724 34.00625 295.6385 34.00625Q293.826 34.00625 292.7791 32.85Q291.73224 31.693748 291.73224 29.662498L291.73224 29.521873Q291.73224 27.568748 292.7635 26.412498Q293.81036 25.240623 295.62286 25.240623Q297.2166 25.240623 298.16974 26.146873Q299.12286 27.037498 299.1385 28.537498L297.0291 28.537498Q297.0135 27.881248 296.62286 27.474998Q296.23224 27.068748 295.5916 27.068748Q294.79474 27.068748 294.3885 27.646873Q293.99786 28.209373 293.99786 29.506248L293.99786 29.740623Q293.99786 31.037498 294.3885 31.615623Q294.79474 32.178123 295.60724 32.178123ZM303.98224 34.00625Q302.12286 34.00625 300.951 32.865623Q299.7791 31.724998 299.7791 29.818748L299.7791 29.599998Q299.7791 28.334373 300.2635 27.334373Q300.7635 26.318748 301.66974 25.787498Q302.576 25.240623 303.73224 25.240623Q305.4666 25.240623 306.451 26.334373Q307.451 27.428123 307.451 29.428123L307.451 30.349998L302.076 30.349998Q302.18536 31.178123 302.73224 31.678123Q303.2791 32.178123 304.12286 32.178123Q305.43536 32.178123 306.16974 31.240623L307.2791 32.475Q306.7635 33.19375 305.8885 33.6Q305.0291 34.00625 303.98224 34.00625ZM303.7166 27.068748Q303.04474 27.068748 302.62286 27.521873Q302.2166 27.974998 302.0916 28.818748L305.23224 28.818748L305.23224 28.631248Q305.2166 27.881248 304.826 27.474998Q304.43536 27.068748 303.7166 27.068748ZM313.66974 31.506248Q313.66974 31.099998 313.24786 30.865623Q312.8416 30.615623 311.93536 30.428123Q308.91974 29.803123 308.91974 27.865623Q308.91974 26.740623 309.85724 25.990623Q310.79474 25.240623 312.29474 25.240623Q313.9041 25.240623 314.87286 26.006248Q315.8416 26.756248 315.8416 27.959373L313.576 27.959373Q313.576 27.474998 313.2635 27.162498Q312.951 26.849998 312.29474 26.849998Q311.7166 26.849998 311.4041 27.115623Q311.0916 27.365623 311.0916 27.756248Q311.0916 28.131248 311.451 28.365623Q311.81036 28.599998 312.6541 28.771873Q313.49786 28.928123 314.076 29.146873Q315.85724 29.803123 315.85724 31.412498Q315.85724 32.56875 314.85724 33.2875Q313.87286 34.00625 312.31036 34.00625Q311.24786 34.00625 310.41974 33.63125Q309.5916 33.240623 309.12286 32.584373Q308.6541 31.928123 308.6541 31.162498L310.79474 31.162498Q310.826 31.756248 311.23224 32.084373Q311.6541 32.396873 312.35724 32.396873Q312.99786 32.396873 313.326 32.1625Q313.66974 31.912498 313.66974 31.506248ZM321.66974 31.506248Q321.66974 31.099998 321.24786 30.865623Q320.8416 30.615623 319.93536 30.428123Q316.91974 29.803123 316.91974 27.865623Q316.91974 26.740623 317.85724 25.990623Q318.79474 25.240623 320.29474 25.240623Q321.9041 25.240623 322.87286 26.006248Q323.8416 26.756248 323.8416 27.959373L321.576 27.959373Q321.576 27.474998 321.2635 27.162498Q320.951 26.849998 320.29474 26.849998Q319.7166 26.849998 319.4041 27.115623Q319.0916 27.365623 319.0916 27.756248Q319.0916 28.131248 319.451 28.365623Q319.81036 28.599998 320.6541 28.771873Q321.49786 28.928123 322.076 29.146873Q323.85724 29.803123 323.85724 31.412498Q323.85724 32.56875 322.85724 33.2875Q321.87286 34.00625 320.31036 34.00625Q319.24786 34.00625 318.41974 33.63125Q317.5916 33.240623 317.12286 32.584373Q316.6541 31.928123 316.6541 31.162498L318.79474 31.162498Q318.826 31.756248 319.23224 32.084373Q319.6541 32.396873 320.35724 32.396873Q320.99786 32.396873 321.326 32.1625Q321.66974 31.912498 321.66974 31.506248ZM327.4666 33.85L325.201 33.85L325.201 25.396873L327.4666 25.396873L327.4666 33.85ZM325.076 23.209373Q325.076 22.693748 325.4041 22.365623Q325.74786 22.037498 326.3416 22.037498Q326.91974 22.037498 327.2635 22.365623Q327.60724 22.693748 327.60724 23.209373Q327.60724 23.724998 327.24786 24.053123Q326.9041 24.381248 326.326 24.381248Q325.7635 24.381248 325.41974 24.053123Q325.076 23.724998 325.076 23.209373ZM336.701 29.693748Q336.701 31.724998 335.826 32.865623Q334.9666 34.00625 333.41974 34.00625Q332.04474 34.00625 331.2166 32.94375L331.12286 33.85L329.0916 33.85L329.0916 21.849998L331.3416 21.849998L331.3416 26.146873Q332.12286 25.240623 333.4041 25.240623Q334.951 25.240623 335.826 26.381248Q336.701 27.506248 336.701 29.568748L336.701 29.693748ZM334.451 29.537498Q334.451 28.256248 334.04474 27.662498Q333.6385 27.068748 332.826 27.068748Q331.74786 27.068748 331.3416 27.959373L331.3416 31.287498Q331.7635 32.178123 332.8416 32.178123Q333.93536 32.178123 334.2791 31.099998Q334.451 30.584373 334.451 29.537498ZM340.4666 33.85L338.201 33.85L338.201 21.849998L340.4666 21.849998L340.4666 33.85ZM345.98224 34.00625Q344.12286 34.00625 342.951 32.865623Q341.7791 31.724998 341.7791 29.818748L341.7791 29.599998Q341.7791 28.334373 342.2635 27.334373Q342.7635 26.318748 343.66974 25.787498Q344.576 25.240623 345.73224 25.240623Q347.4666 25.240623 348.451 26.334373Q349.451 27.428123 349.451 29.428123L349.451 30.349998L344.076 30.349998Q344.18536 31.178123 344.73224 31.678123Q345.2791 32.178123 346.12286 32.178123Q347.43536 32.178123 348.16974 31.240623L349.2791 32.475Q348.7635 33.19375 347.8885 33.6Q347.0291 34.00625 345.98224 34.00625ZM345.7166 27.068748Q345.04474 27.068748 344.62286 27.521873Q344.2166 27.974998 344.0916 28.818748L347.23224 28.818748L347.23224 28.631248Q347.2166 27.881248 346.826 27.474998Q346.43536 27.068748 345.7166 27.068748ZM351.66974 36.709373L350.49786 36.084373L350.7791 35.584373Q351.29474 34.63125 351.31036 33.678123L351.31036 31.928123L353.2166 31.928123L353.2166 33.490623Q353.201 34.365623 352.7635 35.240623Q352.3416 36.13125 351.66974 36.709373ZM361.29474 26.318748Q362.18536 25.240623 363.54474 25.240623Q366.29474 25.240623 366.3416 28.428123L366.3416 33.85L364.076 33.85L364.076 28.490623Q364.076 27.771873 363.7635 27.428123Q363.451 27.068748 362.73224 27.068748Q361.73224 27.068748 361.29474 27.834373L361.29474 33.85L359.0291 33.85L359.0291 21.849998L361.29474 21.849998L361.29474 26.318748ZM367.73224 29.537498Q367.73224 28.287498 368.2166 27.303123Q368.701 26.318748 369.60724 25.787498Q370.5291 25.240623 371.73224 25.240623Q373.43536 25.240623 374.5135 26.287498Q375.60724 27.334373 375.73224 29.131248L375.74786 29.709373Q375.74786 31.646873 374.6541 32.834373Q373.576 34.00625 371.74786 34.00625Q369.91974 34.00625 368.826 32.834373Q367.73224 31.662498 367.73224 29.646873L367.73224 29.537498ZM369.99786 29.709373Q369.99786 30.912498 370.451 31.553123Q370.9041 32.178123 371.74786 32.178123Q372.56036 32.178123 373.0135 31.553123Q373.48224 30.928123 373.48224 29.537498Q373.48224 28.365623 373.0135 27.724998Q372.56036 27.068748 371.73224 27.068748Q370.9041 27.068748 370.451 27.709373Q369.99786 28.349998 369.99786 29.709373ZM384.43536 30.771873L385.54474 25.396873L387.73224 25.396873L385.576 33.85L383.68536 33.85L382.076 28.521873L380.48224 33.85L378.5916 33.85L376.43536 25.396873L378.62286 25.396873L379.7166 30.771873L381.2635 25.396873L382.9041 25.396873L384.43536 30.771873ZM392.73224 29.537498Q392.73224 28.287498 393.2166 27.303123Q393.701 26.318748 394.60724 25.787498Q395.5291 25.240623 396.73224 25.240623Q398.43536 25.240623 399.5135 26.287498Q400.60724 27.334373 400.73224 29.131248L400.74786 29.709373Q400.74786 31.646873 399.6541 32.834373Q398.576 34.00625 396.74786 34.00625Q394.91974 34.00625 393.826 32.834373Q392.73224 31.662498 392.73224 29.646873L392.73224 29.537498ZM394.99786 29.709373Q394.99786 30.912498 395.451 31.553123Q395.9041 32.178123 396.74786 32.178123Q397.56036 32.178123 398.0135 31.553123Q398.48224 30.928123 398.48224 29.537498Q398.48224 28.365623 398.0135 27.724998Q397.56036 27.068748 396.73224 27.068748Q395.9041 27.068748 395.451 27.709373Q394.99786 28.349998 394.99786 29.709373ZM402.701 33.85L402.701 27.053123L401.451 27.053123L401.451 25.396873L402.701 25.396873L402.701 24.678123Q402.701 23.256248 403.5135 22.474998Q404.3416 21.678123 405.81036 21.678123Q406.2791 21.678123 406.951 21.834373L406.93536 23.584373Q406.6541 23.521873 406.24786 23.521873Q404.9666 23.521873 404.9666 24.709373L404.9666 25.396873L406.6541 25.396873L406.6541 27.053123L404.9666 27.053123L404.9666 33.85L402.701 33.85ZM410.79474 23.318748L410.79474 25.396873L412.23224 25.396873L412.23224 27.053123L410.79474 27.053123L410.79474 31.271873Q410.79474 31.740623 410.9666 31.943748Q411.1541 32.146873 411.6541 32.146873Q412.0291 32.146873 412.326 32.084373L412.326 33.803123Q411.6541 34.00625 410.951 34.00625Q408.576 34.00625 408.5291 31.599998L408.5291 27.053123L407.29474 27.053123L407.29474 25.396873L408.5291 25.396873L408.5291 23.318748L410.79474 23.318748ZM416.98224 34.00625Q415.12286 34.00625 413.951 32.865623Q412.7791 31.724998 412.7791 29.818748L412.7791 29.599998Q412.7791 28.334373 413.2635 27.334373Q413.7635 26.318748 414.66974 25.787498Q415.576 25.240623 416.73224 25.240623Q418.4666 25.240623 419.451 26.334373Q420.451 27.428123 420.451 29.428123L420.451 30.349998L415.076 30.349998Q415.18536 31.178123 415.73224 31.678123Q416.2791 32.178123 417.12286 32.178123Q418.43536 32.178123 419.16974 31.240623L420.2791 32.475Q419.7635 33.19375 418.8885 33.6Q418.0291 34.00625 416.98224 34.00625ZM416.7166 27.068748Q416.04474 27.068748 415.62286 27.521873Q415.2166 27.974998 415.0916 28.818748L418.23224 28.818748L418.23224 28.631248Q418.2166 27.881248 417.826 27.474998Q417.43536 27.068748 416.7166 27.068748ZM424.16974 25.396873L424.23224 26.365623Q425.1385 25.240623 426.66974 25.240623Q428.0135 25.240623 428.66974 26.037498Q429.326 26.818748 429.3416 28.381248L429.3416 33.85L427.076 33.85L427.076 28.443748Q427.076 27.724998 426.7635 27.396873Q426.451 27.068748 425.73224 27.068748Q424.7791 27.068748 424.29474 27.881248L424.29474 33.85L422.04474 33.85L422.04474 25.396873L424.16974 25.396873ZM442.43536 30.771873L443.54474 25.396873L445.73224 25.396873L443.576 33.85L441.68536 33.85L440.076 28.521873L438.48224 33.85L436.5916 33.85L434.43536 25.396873L436.62286 25.396873L437.7166 30.771873L439.2635 25.396873L440.9041 25.396873L442.43536 30.771873ZM446.73224 29.537498Q446.73224 28.287498 447.2166 27.303123Q447.701 26.318748 448.60724 25.787498Q449.5291 25.240623 450.73224 25.240623Q452.43536 25.240623 453.5135 26.287498Q454.60724 27.334373 454.73224 29.131248L454.74786 29.709373Q454.74786 31.646873 453.6541 32.834373Q452.576 34.00625 450.74786 34.00625Q448.91974 34.00625 447.826 32.834373Q446.73224 31.662498 446.73224 29.646873L446.73224 29.537498ZM448.99786 29.709373Q448.99786 30.912498 449.451 31.553123Q449.9041 32.178123 450.74786 32.178123Q451.56036 32.178123 452.0135 31.553123Q452.48224 30.928123 452.48224 29.537498Q452.48224 28.365623 452.0135 27.724998Q451.56036 27.068748 450.73224 27.068748Q449.9041 27.068748 449.451 27.709373Q448.99786 28.349998 448.99786 29.709373ZM461.1541 32.990623Q460.31036 34.00625 458.8416 34.00625Q457.48224 34.00625 456.7635 33.225Q456.04474 32.44375 456.0291 30.928123L456.0291 25.396873L458.29474 25.396873L458.29474 30.849998Q458.29474 32.178123 459.49786 32.178123Q460.6385 32.178123 461.076 31.381248L461.076 25.396873L463.3416 25.396873L463.3416 33.85L461.2166 33.85L461.1541 32.990623ZM467.4666 33.85L465.201 33.85L465.201 21.849998L467.4666 21.849998L467.4666 33.85ZM468.73224 29.553123Q468.73224 27.584373 469.62286 26.412498Q470.5135 25.240623 472.04474 25.240623Q473.2791 25.240623 474.0916 26.162498L474.0916 21.849998L476.35724 21.849998L476.35724 33.85L474.31036 33.85L474.201 32.94375Q473.35724 34.00625 472.0291 34.00625Q470.54474 34.00625 469.6385 32.834373Q468.73224 31.646873 468.73224 29.553123ZM470.99786 29.724998Q470.99786 30.912498 471.4041 31.553123Q471.826 32.178123 472.60724 32.178123Q473.6541 32.178123 474.0916 31.287498L474.0916 27.959373Q473.66974 27.068748 472.62286 27.068748Q470.99786 27.068748 470.99786 29.724998ZM485.24786 30.646873L486.81036 25.396873L489.23224 25.396873L485.826 35.1625L485.6385 35.615623Q484.8885 37.271873 483.1385 37.271873Q482.6541 37.271873 482.1385 37.115623L482.1385 35.4125L482.48224 35.4125Q483.12286 35.4125 483.43536 35.209373Q483.7635 35.021873 483.93536 34.56875L484.201 33.88125L481.24786 25.396873L483.66974 25.396873L485.24786 30.646873ZM489.73224 29.537498Q489.73224 28.287498 490.2166 27.303123Q490.701 26.318748 491.60724 25.787498Q492.5291 25.240623 493.73224 25.240623Q495.43536 25.240623 496.5135 26.287498Q497.60724 27.334373 497.73224 29.131248L497.74786 29.709373Q497.74786 31.646873 496.6541 32.834373Q495.576 34.00625 493.74786 34.00625Q491.91974 34.00625 490.826 32.834373Q489.73224 31.662498 489.73224 29.646873L489.73224 29.537498ZM491.99786 29.709373Q491.99786 30.912498 492.451 31.553123Q492.9041 32.178123 493.74786 32.178123Q494.56036 32.178123 495.0135 31.553123Q495.48224 30.928123 495.48224 29.537498Q495.48224 28.365623 495.0135 27.724998Q494.56036 27.068748 493.73224 27.068748Q492.9041 27.068748 492.451 27.709373Q491.99786 28.349998 491.99786 29.709373ZM504.1541 32.990623Q503.31036 34.00625 501.8416 34.00625Q500.48224 34.00625 499.7635 33.225Q499.04474 32.44375 499.0291 30.928123L499.0291 25.396873L501.29474 25.396873L501.29474 30.849998Q501.29474 32.178123 502.49786 32.178123Q503.6385 32.178123 504.076 31.381248L504.076 25.396873L506.3416 25.396873L506.3416 33.85L504.2166 33.85L504.1541 32.990623Z" fill-rule="nonzero"/><path fill="#757575" d="M84.16975 50.50625Q84.16975 50.1 83.74787 49.865623Q83.34162 49.615623 82.43537 49.428123Q79.41975 48.803123 79.41975 46.865623Q79.41975 45.740623 80.35725 44.990623Q81.29475 44.240623 82.79475 44.240623Q84.40412 44.240623 85.37287 45.00625Q86.34162 45.75625 86.34162 46.959373L84.076 46.959373Q84.076 46.475 83.7635 46.1625Q83.451 45.85 82.79475 45.85Q82.21662 45.85 81.90412 46.115623Q81.59162 46.365623 81.59162 46.75625Q81.59162 47.13125 81.951 47.365623Q82.31037 47.6 83.15412 47.771873Q83.99787 47.928123 84.576 48.146873Q86.35725 48.803123 86.35725 50.4125Q86.35725 51.56875 85.35725 52.2875Q84.37287 53.00625 82.81037 53.00625Q81.74787 53.00625 80.91975 52.63125Q80.09162 52.240623 79.62287 51.584373Q79.15412 50.928123 79.15412 50.1625L81.29475 50.1625Q81.326 50.75625 81.73225 51.084373Q82.15412 51.396873 82.85725 51.396873Q83.49787 51.396873 83.826 51.1625Q84.16975 50.9125 84.16975 50.50625ZM91.48225 53.00625Q89.62287 53.00625 88.451 51.865623Q87.27912 50.725 87.27912 48.81875L87.27912 48.6Q87.27912 47.334373 87.7635 46.334373Q88.2635 45.31875 89.16975 44.7875Q90.076 44.240623 91.23225 44.240623Q92.96662 44.240623 93.951 45.334373Q94.951 46.428123 94.951 48.428123L94.951 49.35L89.576 49.35Q89.68537 50.178123 90.23225 50.678123Q90.77912 51.178123 91.62287 51.178123Q92.93537 51.178123 93.66975 50.240623L94.77912 51.475Q94.2635 52.19375 93.3885 52.6Q92.52912 53.00625 91.48225 53.00625ZM91.21662 46.06875Q90.54475 46.06875 90.12287 46.521873Q89.71662 46.975 89.59162 47.81875L92.73225 47.81875L92.73225 47.63125Q92.71662 46.88125 92.326 46.475Q91.93537 46.06875 91.21662 46.06875ZM100.48225 53.00625Q98.62287 53.00625 97.451 51.865623Q96.27912 50.725 96.27912 48.81875L96.27912 48.6Q96.27912 47.334373 96.7635 46.334373Q97.2635 45.31875 98.16975 44.7875Q99.076 44.240623 100.23225 44.240623Q101.96662 44.240623 102.951 45.334373Q103.951 46.428123 103.951 48.428123L103.951 49.35L98.576 49.35Q98.68537 50.178123 99.23225 50.678123Q99.77912 51.178123 100.62287 51.178123Q101.93537 51.178123 102.66975 50.240623L103.77912 51.475Q103.2635 52.19375 102.3885 52.6Q101.52912 53.00625 100.48225 53.00625ZM100.21662 46.06875Q99.54475 46.06875 99.12287 46.521873Q98.71662 46.975 98.59162 47.81875L101.73225 47.81875L101.73225 47.63125Q101.71662 46.88125 101.326 46.475Q100.93537 46.06875 100.21662 46.06875ZM112.74787 49.646873L114.31037 44.396873L116.73225 44.396873L113.326 54.1625L113.1385 54.615623Q112.3885 56.271873 110.6385 56.271873Q110.15412 56.271873 109.6385 56.115623L109.6385 54.4125L109.98225 54.4125Q110.62287 54.4125 110.93537 54.209373Q111.2635 54.021873 111.43537 53.56875L111.701 52.88125L108.74787 44.396873L111.16975 44.396873L112.74787 49.646873ZM117.23225 48.5375Q117.23225 47.2875 117.71662 46.303123Q118.201 45.31875 119.10725 44.7875Q120.02912 44.240623 121.23225 44.240623Q122.93537 44.240623 124.0135 45.2875Q125.10725 46.334373 125.23225 48.13125L125.24787 48.709373Q125.24787 50.646873 124.15412 51.834373Q123.076 53.00625 121.24787 53.00625Q119.41975 53.00625 118.326 51.834373Q117.23225 50.6625 117.23225 48.646873L117.23225 48.5375ZM119.49787 48.709373Q119.49787 49.9125 119.951 50.553123Q120.40412 51.178123 121.24787 51.178123Q122.06037 51.178123 122.5135 50.553123Q122.98225 49.928123 122.98225 48.5375Q122.98225 47.365623 122.5135 46.725Q122.06037 46.06875 121.23225 46.06875Q120.40412 46.06875 119.951 46.709373Q119.49787 47.35 119.49787 48.709373ZM131.65411 51.990623Q130.81036 53.00625 129.34161 53.00625Q127.98225 53.00625 127.2635 52.225Q126.54475 51.44375 126.52912 49.928123L126.52912 44.396873L128.79474 44.396873L128.79474 49.85Q128.79474 51.178123 129.99786 51.178123Q131.13849 51.178123 131.57599 50.38125L131.57599 44.396873L133.84161 44.396873L133.84161 52.85L131.71661 52.85L131.65411 51.990623ZM140.34161 46.50625Q139.87286 46.44375 139.52911 46.44375Q138.24786 46.44375 137.84161 47.31875L137.84161 52.85L135.59161 52.85L135.59161 44.396873L137.71661 44.396873L137.77911 45.396873Q138.46661 44.240623 139.66974 44.240623Q140.04474 44.240623 140.37286 44.334373L140.34161 46.50625ZM146.16974 50.50625Q146.16974 50.1 145.74786 49.865623Q145.34161 49.615623 144.43536 49.428123Q141.41974 48.803123 141.41974 46.865623Q141.41974 45.740623 142.35724 44.990623Q143.29474 44.240623 144.79474 44.240623Q146.40411 44.240623 147.37286 45.00625Q148.34161 45.75625 148.34161 46.959373L146.07599 46.959373Q146.07599 46.475 145.76349 46.1625Q145.45099 45.85 144.79474 45.85Q144.21661 45.85 143.90411 46.115623Q143.59161 46.365623 143.59161 46.75625Q143.59161 47.13125 143.95099 47.365623Q144.31036 47.6 145.15411 47.771873Q145.99786 47.928123 146.57599 48.146873Q148.35724 48.803123 148.35724 50.4125Q148.35724 51.56875 147.35724 52.2875Q146.37286 53.00625 144.81036 53.00625Q143.74786 53.00625 142.91974 52.63125Q142.09161 52.240623 141.62286 51.584373Q141.15411 50.928123 141.15411 50.1625L143.29474 50.1625Q143.32599 50.75625 143.73224 51.084373Q144.15411 51.396873 144.85724 51.396873Q145.49786 51.396873 145.82599 51.1625Q146.16974 50.9125 146.16974 50.50625ZM153.48224 53.00625Q151.62286 53.00625 150.45099 51.865623Q149.27911 50.725 149.27911 48.81875L149.27911 48.6Q149.27911 47.334373 149.76349 46.334373Q150.26349 45.31875 151.16974 44.7875Q152.07599 44.240623 153.23224 44.240623Q154.96661 44.240623 155.95099 45.334373Q156.95099 46.428123 156.95099 48.428123L156.95099 49.35L151.57599 49.35Q151.68536 50.178123 152.23224 50.678123Q152.77911 51.178123 153.62286 51.178123Q154.93536 51.178123 155.66974 50.240623L156.77911 51.475Q156.26349 52.19375 155.38849 52.6Q154.52911 53.00625 153.48224 53.00625ZM153.21661 46.06875Q152.54474 46.06875 152.12286 46.521873Q151.71661 46.975 151.59161 47.81875L154.73224 47.81875L154.73224 47.63125Q154.71661 46.88125 154.32599 46.475Q153.93536 46.06875 153.21661 46.06875ZM160.96661 52.85L158.70099 52.85L158.70099 40.85L160.96661 40.85L160.96661 52.85ZM163.20099 52.85L163.20099 46.053123L161.95099 46.053123L161.95099 44.396873L163.20099 44.396873L163.20099 43.678123Q163.20099 42.25625 164.01349 41.475Q164.84161 40.678123 166.31036 40.678123Q166.77911 40.678123 167.45099 40.834373L167.43536 42.584373Q167.15411 42.521873 166.74786 42.521873Q165.46661 42.521873 165.46661 43.709373L165.46661 44.396873L167.15411 44.396873L167.15411 46.053123L165.46661 46.053123L165.46661 52.85L163.20099 52.85ZM174.96661 52.85L172.70099 52.85L172.70099 44.396873L174.96661 44.396873L174.96661 52.85ZM172.57599 42.209373Q172.57599 41.69375 172.90411 41.365623Q173.24786 41.0375 173.84161 41.0375Q174.41974 41.0375 174.76349 41.365623Q175.10724 41.69375 175.10724 42.209373Q175.10724 42.725 174.74786 43.053123Q174.40411 43.38125 173.82599 43.38125Q173.26349 43.38125 172.91974 43.053123Q172.57599 42.725 172.57599 42.209373ZM178.66974 44.396873L178.73224 45.365623Q179.63849 44.240623 181.16974 44.240623Q182.51349 44.240623 183.16974 45.0375Q183.82599 45.81875 183.84161 47.38125L183.84161 52.85L181.57599 52.85L181.57599 47.44375Q181.57599 46.725 181.26349 46.396873Q180.95099 46.06875 180.23224 46.06875Q179.27911 46.06875 178.79474 46.88125L178.79474 52.85L176.54474 52.85L176.54474 44.396873L178.66974 44.396873ZM188.29474 42.31875L188.29474 44.396873L189.73224 44.396873L189.73224 46.053123L188.29474 46.053123L188.29474 50.271873Q188.29474 50.740623 188.46661 50.94375Q188.65411 51.146873 189.15411 51.146873Q189.52911 51.146873 189.82599 51.084373L189.82599 52.803123Q189.15411 53.00625 188.45099 53.00625Q186.07599 53.00625 186.02911 50.6L186.02911 46.053123L184.79474 46.053123L184.79474 44.396873L186.02911 44.396873L186.02911 42.31875L188.29474 42.31875ZM194.48224 53.00625Q192.62286 53.00625 191.45099 51.865623Q190.27911 50.725 190.27911 48.81875L190.27911 48.6Q190.27911 47.334373 190.76349 46.334373Q191.26349 45.31875 192.16974 44.7875Q193.07599 44.240623 194.23224 44.240623Q195.96661 44.240623 196.95099 45.334373Q197.95099 46.428123 197.95099 48.428123L197.95099 49.35L192.57599 49.35Q192.68536 50.178123 193.23224 50.678123Q193.77911 51.178123 194.62286 51.178123Q195.93536 51.178123 196.66974 50.240623L197.77911 51.475Q197.26349 52.19375 196.38849 52.6Q195.52911 53.00625 194.48224 53.00625ZM194.21661 46.06875Q193.54474 46.06875 193.12286 46.521873Q192.71661 46.975 192.59161 47.81875L195.73224 47.81875L195.73224 47.63125Q195.71661 46.88125 195.32599 46.475Q194.93536 46.06875 194.21661 46.06875ZM204.34161 46.50625Q203.87286 46.44375 203.52911 46.44375Q202.24786 46.44375 201.84161 47.31875L201.84161 52.85L199.59161 52.85L199.59161 44.396873L201.71661 44.396873L201.77911 45.396873Q202.46661 44.240623 203.66974 44.240623Q204.04474 44.240623 204.37286 44.334373L204.34161 46.50625ZM210.48224 52.85Q210.32599 52.5375 210.26349 52.084373Q209.43536 53.00625 208.12286 53.00625Q206.88849 53.00625 206.06036 52.2875Q205.24786 51.56875 205.24786 50.475Q205.24786 49.13125 206.24786 48.4125Q207.24786 47.69375 209.12286 47.678123L210.16974 47.678123L210.16974 47.19375Q210.16974 46.615623 209.85724 46.271873Q209.56036 45.9125 208.91974 45.9125Q208.34161 45.9125 208.01349 46.19375Q207.70099 46.459373 207.70099 46.928123L205.43536 46.928123Q205.43536 46.19375 205.88849 45.56875Q206.34161 44.94375 207.16974 44.6Q207.99786 44.240623 209.02911 44.240623Q210.59161 44.240623 211.51349 45.021873Q212.43536 45.803123 212.43536 47.225L212.43536 50.896873Q212.43536 52.1 212.76349 52.709373L212.76349 52.85L210.48224 52.85ZM208.62286 51.271873Q209.12286 51.271873 209.54474 51.053123Q209.96661 50.834373 210.16974 50.459373L210.16974 49.00625L209.32599 49.00625Q207.62286 49.00625 207.51349 50.178123L207.51349 50.303123Q207.51349 50.725 207.81036 51.00625Q208.10724 51.271873 208.62286 51.271873ZM218.10724 51.178123Q218.73224 51.178123 219.12286 50.834373Q219.51349 50.490623 219.52911 49.928123L221.63849 49.928123Q221.63849 50.7875 221.16974 51.50625Q220.71661 52.209373 219.90411 52.615623Q219.10724 53.00625 218.13849 53.00625Q216.32599 53.00625 215.27911 51.85Q214.23224 50.69375 214.23224 48.6625L214.23224 48.521873Q214.23224 46.56875 215.26349 45.4125Q216.31036 44.240623 218.12286 44.240623Q219.71661 44.240623 220.66974 45.146873Q221.62286 46.0375 221.63849 47.5375L219.52911 47.5375Q219.51349 46.88125 219.12286 46.475Q218.73224 46.06875 218.09161 46.06875Q217.29474 46.06875 216.88849 46.646873Q216.49786 47.209373 216.49786 48.50625L216.49786 48.740623Q216.49786 50.0375 216.88849 50.615623Q217.29474 51.178123 218.10724 51.178123ZM225.29474 42.31875L225.29474 44.396873L226.73224 44.396873L226.73224 46.053123L225.29474 46.053123L225.29474 50.271873Q225.29474 50.740623 225.46661 50.94375Q225.65411 51.146873 226.15411 51.146873Q226.52911 51.146873 226.82599 51.084373L226.82599 52.803123Q226.15411 53.00625 225.45099 53.00625Q223.07599 53.00625 223.02911 50.6L223.02911 46.053123L221.79474 46.053123L221.79474 44.396873L223.02911 44.396873L223.02911 42.31875L225.29474 42.31875ZM229.96661 52.85L227.70099 52.85L227.70099 44.396873L229.96661 44.396873L229.96661 52.85ZM227.57599 42.209373Q227.57599 41.69375 227.90411 41.365623Q228.24786 41.0375 228.84161 41.0375Q229.41974 41.0375 229.76349 41.365623Q230.10724 41.69375 230.10724 42.209373Q230.10724 42.725 229.74786 43.053123Q229.40411 43.38125 228.82599 43.38125Q228.26349 43.38125 227.91974 43.053123Q227.57599 42.725 227.57599 42.209373ZM233.66974 44.396873L233.73224 45.365623Q234.63849 44.240623 236.16974 44.240623Q237.51349 44.240623 238.16974 45.0375Q238.82599 45.81875 238.84161 47.38125L238.84161 52.85L236.57599 52.85L236.57599 47.44375Q236.57599 46.725 236.26349 46.396873Q235.95099 46.06875 235.23224 46.06875Q234.27911 46.06875 233.79474 46.88125L233.79474 52.85L231.54474 52.85L231.54474 44.396873L233.66974 44.396873ZM240.26349 48.553123Q240.26349 46.615623 241.18536 45.428123Q242.10724 44.240623 243.68536 44.240623Q245.07599 44.240623 245.84161 45.19375L245.93536 44.396873L247.98224 44.396873L247.98224 52.56875Q247.98224 53.678123 247.48224 54.490623Q246.98224 55.31875 246.06036 55.740623Q245.15411 56.178123 243.91974 56.178123Q242.99786 56.178123 242.10724 55.803123Q241.23224 55.44375 240.77911 54.85L241.77911 53.475Q242.62286 54.428123 243.82599 54.428123Q244.71661 54.428123 245.21661 53.94375Q245.71661 53.459373 245.71661 52.56875L245.71661 52.115623Q244.93536 53.00625 243.66974 53.00625Q242.13849 53.00625 241.20099 51.81875Q240.26349 50.615623 240.26349 48.646873L240.26349 48.553123ZM242.51349 48.725Q242.51349 49.865623 242.96661 50.521873Q243.43536 51.178123 244.24786 51.178123Q245.27911 51.178123 245.71661 50.396873L245.71661 46.85Q245.26349 46.06875 244.26349 46.06875Q243.45099 46.06875 242.98224 46.740623Q242.51349 47.396873 242.51349 48.725ZM260.93536 49.771873L262.04474 44.396873L264.23224 44.396873L262.076 52.85L260.18536 52.85L258.576 47.521873L256.98224 52.85L255.09161 52.85L252.93536 44.396873L255.12286 44.396873L256.2166 49.771873L257.7635 44.396873L259.4041 44.396873L260.93536 49.771873ZM267.9666 52.85L265.701 52.85L265.701 44.396873L267.9666 44.396873L267.9666 52.85ZM265.576 42.209373Q265.576 41.69375 265.9041 41.365623Q266.24786 41.0375 266.8416 41.0375Q267.41974 41.0375 267.7635 41.365623Q268.10724 41.69375 268.10724 42.209373Q268.10724 42.725 267.74786 43.053123Q267.4041 43.38125 266.826 43.38125Q266.2635 43.38125 265.91974 43.053123Q265.576 42.725 265.576 42.209373ZM272.29474 42.31875L272.29474 44.396873L273.73224 44.396873L273.73224 46.053123L272.29474 46.053123L272.29474 50.271873Q272.29474 50.740623 272.4666 50.94375Q272.6541 51.146873 273.1541 51.146873Q273.5291 51.146873 273.826 51.084373L273.826 52.803123Q273.1541 53.00625 272.451 53.00625Q270.076 53.00625 270.0291 50.6L270.0291 46.053123L268.79474 46.053123L268.79474 44.396873L270.0291 44.396873L270.0291 42.31875L272.29474 42.31875ZM276.79474 45.31875Q277.68536 44.240623 279.04474 44.240623Q281.79474 44.240623 281.8416 47.428123L281.8416 52.85L279.576 52.85L279.576 47.490623Q279.576 46.771873 279.2635 46.428123Q278.951 46.06875 278.23224 46.06875Q277.23224 46.06875 276.79474 46.834373L276.79474 52.85L274.5291 52.85L274.5291 40.85L276.79474 40.85L276.79474 45.31875ZM294.576 48.19375L290.076 48.19375L290.076 52.85L287.73224 52.85L287.73224 41.475L295.1385 41.475L295.1385 43.365623L290.076 43.365623L290.076 46.303123L294.576 46.303123L294.576 48.19375ZM298.9666 52.85L296.701 52.85L296.701 44.396873L298.9666 44.396873L298.9666 52.85ZM296.576 42.209373Q296.576 41.69375 296.9041 41.365623Q297.24786 41.0375 297.8416 41.0375Q298.41974 41.0375 298.7635 41.365623Q299.10724 41.69375 299.10724 42.209373Q299.10724 42.725 298.74786 43.053123Q298.4041 43.38125 297.826 43.38125Q297.2635 43.38125 296.91974 43.053123Q296.576 42.725 296.576 42.209373ZM305.3416 46.50625Q304.87286 46.44375 304.5291 46.44375Q303.24786 46.44375 302.8416 47.31875L302.8416 52.85L300.5916 52.85L300.5916 44.396873L302.7166 44.396873L302.7791 45.396873Q303.4666 44.240623 304.66974 44.240623Q305.04474 44.240623 305.37286 44.334373L305.3416 46.50625ZM311.16974 50.50625Q311.16974 50.1 310.74786 49.865623Q310.3416 49.615623 309.43536 49.428123Q306.41974 48.803123 306.41974 46.865623Q306.41974 45.740623 307.35724 44.990623Q308.29474 44.240623 309.79474 44.240623Q311.4041 44.240623 312.37286 45.00625Q313.3416 45.75625 313.3416 46.959373L311.076 46.959373Q311.076 46.475 310.7635 46.1625Q310.451 45.85 309.79474 45.85Q309.2166 45.85 308.9041 46.115623Q308.5916 46.365623 308.5916 46.75625Q308.5916 47.13125 308.951 47.365623Q309.31036 47.6 310.1541 47.771873Q310.99786 47.928123 311.576 48.146873Q313.35724 48.803123 313.35724 50.4125Q313.35724 51.56875 312.35724 52.2875Q311.37286 53.00625 309.81036 53.00625Q308.74786 53.00625 307.91974 52.63125Q307.0916 52.240623 306.62286 51.584373Q306.1541 50.928123 306.1541 50.1625L308.29474 50.1625Q308.326 50.75625 308.73224 51.084373Q309.1541 51.396873 309.85724 51.396873Q310.49786 51.396873 310.826 51.1625Q311.16974 50.9125 311.16974 50.50625ZM317.29474 42.31875L317.29474 44.396873L318.73224 44.396873L318.73224 46.053123L317.29474 46.053123L317.29474 50.271873Q317.29474 50.740623 317.4666 50.94375Q317.6541 51.146873 318.1541 51.146873Q318.5291 51.146873 318.826 51.084373L318.826 52.803123Q318.1541 53.00625 317.451 53.00625Q315.076 53.00625 315.0291 50.6L315.0291 46.053123L313.79474 46.053123L313.79474 44.396873L315.0291 44.396873L315.0291 42.31875L317.29474 42.31875ZM332.98224 52.85L330.6385 52.85L326.076 45.365623L326.076 52.85L323.73224 52.85L323.73224 41.475L326.076 41.475L330.6541 48.975L330.6541 41.475L332.98224 41.475L332.98224 52.85ZM339.48224 52.85Q339.326 52.5375 339.2635 52.084373Q338.43536 53.00625 337.12286 53.00625Q335.8885 53.00625 335.06036 52.2875Q334.24786 51.56875 334.24786 50.475Q334.24786 49.13125 335.24786 48.4125Q336.24786 47.69375 338.12286 47.678123L339.16974 47.678123L339.16974 47.19375Q339.16974 46.615623 338.85724 46.271873Q338.56036 45.9125 337.91974 45.9125Q337.3416 45.9125 337.0135 46.19375Q336.701 46.459373 336.701 46.928123L334.43536 46.928123Q334.43536 46.19375 334.8885 45.56875Q335.3416 44.94375 336.16974 44.6Q336.99786 44.240623 338.0291 44.240623Q339.5916 44.240623 340.5135 45.021873Q341.43536 45.803123 341.43536 47.225L341.43536 50.896873Q341.43536 52.1 341.7635 52.709373L341.7635 52.85L339.48224 52.85ZM337.62286 51.271873Q338.12286 51.271873 338.54474 51.053123Q338.9666 50.834373 339.16974 50.459373L339.16974 49.00625L338.326 49.00625Q336.62286 49.00625 336.5135 50.178123L336.5135 50.303123Q336.5135 50.725 336.81036 51.00625Q337.10724 51.271873 337.62286 51.271873ZM346.29474 42.31875L346.29474 44.396873L347.73224 44.396873L347.73224 46.053123L346.29474 46.053123L346.29474 50.271873Q346.29474 50.740623 346.4666 50.94375Q346.6541 51.146873 347.1541 51.146873Q347.5291 51.146873 347.826 51.084373L347.826 52.803123Q347.1541 53.00625 346.451 53.00625Q344.076 53.00625 344.0291 50.6L344.0291 46.053123L342.79474 46.053123L342.79474 44.396873L344.0291 44.396873L344.0291 42.31875L346.29474 42.31875ZM350.9666 52.85L348.701 52.85L348.701 44.396873L350.9666 44.396873L350.9666 52.85ZM348.576 42.209373Q348.576 41.69375 348.9041 41.365623Q349.24786 41.0375 349.8416 41.0375Q350.41974 41.0375 350.7635 41.365623Q351.10724 41.69375 351.10724 42.209373Q351.10724 42.725 350.74786 43.053123Q350.4041 43.38125 349.826 43.38125Q349.2635 43.38125 348.91974 43.053123Q348.576 42.725 348.576 42.209373ZM352.23224 48.5375Q352.23224 47.2875 352.7166 46.303123Q353.201 45.31875 354.10724 44.7875Q355.0291 44.240623 356.23224 44.240623Q357.93536 44.240623 359.0135 45.2875Q360.10724 46.334373 360.23224 48.13125L360.24786 48.709373Q360.24786 50.646873 359.1541 51.834373Q358.076 53.00625 356.24786 53.00625Q354.41974 53.00625 353.326 51.834373Q352.23224 50.6625 352.23224 48.646873L352.23224 48.5375ZM354.49786 48.709373Q354.49786 49.9125 354.951 50.553123Q355.4041 51.178123 356.24786 51.178123Q357.06036 51.178123 357.5135 50.553123Q357.98224 49.928123 357.98224 48.5375Q357.98224 47.365623 357.5135 46.725Q357.06036 46.06875 356.23224 46.06875Q355.4041 46.06875 354.951 46.709373Q354.49786 47.35 354.49786 48.709373ZM363.66974 44.396873L363.73224 45.365623Q364.6385 44.240623 366.16974 44.240623Q367.5135 44.240623 368.16974 45.0375Q368.826 45.81875 368.8416 47.38125L368.8416 52.85L366.576 52.85L366.576 47.44375Q366.576 46.725 366.2635 46.396873Q365.951 46.06875 365.23224 46.06875Q364.2791 46.06875 363.79474 46.88125L363.79474 52.85L361.54474 52.85L361.54474 44.396873L363.66974 44.396873ZM375.16974 50.50625Q375.16974 50.1 374.74786 49.865623Q374.3416 49.615623 373.43536 49.428123Q370.41974 48.803123 370.41974 46.865623Q370.41974 45.740623 371.35724 44.990623Q372.29474 44.240623 373.79474 44.240623Q375.4041 44.240623 376.37286 45.00625Q377.3416 45.75625 377.3416 46.959373L375.076 46.959373Q375.076 46.475 374.7635 46.1625Q374.451 45.85 373.79474 45.85Q373.2166 45.85 372.9041 46.115623Q372.5916 46.365623 372.5916 46.75625Q372.5916 47.13125 372.951 47.365623Q373.31036 47.6 374.1541 47.771873Q374.99786 47.928123 375.576 48.146873Q377.35724 48.803123 377.35724 50.4125Q377.35724 51.56875 376.35724 52.2875Q375.37286 53.00625 373.81036 53.00625Q372.74786 53.00625 371.91974 52.63125Q371.0916 52.240623 370.62286 51.584373Q370.1541 50.928123 370.1541 50.1625L372.29474 50.1625Q372.326 50.75625 372.73224 51.084373Q373.1541 51.396873 373.85724 51.396873Q374.49786 51.396873 374.826 51.1625Q375.16974 50.9125 375.16974 50.50625ZM387.48224 52.85Q387.326 52.5375 387.2635 52.084373Q386.43536 53.00625 385.12286 53.00625Q383.8885 53.00625 383.06036 52.2875Q382.24786 51.56875 382.24786 50.475Q382.24786 49.13125 383.24786 48.4125Q384.24786 47.69375 386.12286 47.678123L387.16974 47.678123L387.16974 47.19375Q387.16974 46.615623 386.85724 46.271873Q386.56036 45.9125 385.91974 45.9125Q385.3416 45.9125 385.0135 46.19375Q384.701 46.459373 384.701 46.928123L382.43536 46.928123Q382.43536 46.19375 382.8885 45.56875Q383.3416 44.94375 384.16974 44.6Q384.99786 44.240623 386.0291 44.240623Q387.5916 44.240623 388.5135 45.021873Q389.43536 45.803123 389.43536 47.225L389.43536 50.896873Q389.43536 52.1 389.7635 52.709373L389.7635 52.85L387.48224 52.85ZM385.62286 51.271873Q386.12286 51.271873 386.54474 51.053123Q386.9666 50.834373 387.16974 50.459373L387.16974 49.00625L386.326 49.00625Q384.62286 49.00625 384.5135 50.178123L384.5135 50.303123Q384.5135 50.725 384.81036 51.00625Q385.10724 51.271873 385.62286 51.271873ZM396.3416 46.50625Q395.87286 46.44375 395.5291 46.44375Q394.24786 46.44375 393.8416 47.31875L393.8416 52.85L391.5916 52.85L391.5916 44.396873L393.7166 44.396873L393.7791 45.396873Q394.4666 44.240623 395.66974 44.240623Q396.04474 44.240623 396.37286 44.334373L396.3416 46.50625ZM400.29474 42.31875L400.29474 44.396873L401.73224 44.396873L401.73224 46.053123L400.29474 46.053123L400.29474 50.271873Q400.29474 50.740623 400.4666 50.94375Q400.6541 51.146873 401.1541 51.146873Q401.5291 51.146873 401.826 51.084373L401.826 52.803123Q401.1541 53.00625 400.451 53.00625Q398.076 53.00625 398.0291 50.6L398.0291 46.053123L396.79474 46.053123L396.79474 44.396873L398.0291 44.396873L398.0291 42.31875L400.29474 42.31875ZM409.93536 49.771873L411.04474 44.396873L413.23224 44.396873L411.076 52.85L409.18536 52.85L407.576 47.521873L405.98224 52.85L404.0916 52.85L401.93536 44.396873L404.12286 44.396873L405.2166 49.771873L406.7635 44.396873L408.4041 44.396873L409.93536 49.771873ZM414.23224 48.5375Q414.23224 47.2875 414.7166 46.303123Q415.201 45.31875 416.10724 44.7875Q417.0291 44.240623 418.23224 44.240623Q419.93536 44.240623 421.0135 45.2875Q422.10724 46.334373 422.23224 48.13125L422.24786 48.709373Q422.24786 50.646873 421.1541 51.834373Q420.076 53.00625 418.24786 53.00625Q416.41974 53.00625 415.326 51.834373Q414.23224 50.6625 414.23224 48.646873L414.23224 48.5375ZM416.49786 48.709373Q416.49786 49.9125 416.951 50.553123Q417.4041 51.178123 418.24786 51.178123Q419.06036 51.178123 419.5135 50.553123Q419.98224 49.928123 419.98224 48.5375Q419.98224 47.365623 419.5135 46.725Q419.06036 46.06875 418.23224 46.06875Q417.4041 46.06875 416.951 46.709373Q416.49786 47.35 416.49786 48.709373ZM428.3416 46.50625Q427.87286 46.44375 427.5291 46.44375Q426.24786 46.44375 425.8416 47.31875L425.8416 52.85L423.5916 52.85L423.5916 44.396873L425.7166 44.396873L425.7791 45.396873Q426.4666 44.240623 427.66974 44.240623Q428.04474 44.240623 428.37286 44.334373L428.3416 46.50625ZM432.6541 49.459373L431.8416 50.271873L431.8416 52.85L429.5916 52.85L429.5916 40.85L431.8416 40.85L431.8416 47.490623L432.2791 46.928123L434.451 44.396873L437.1541 44.396873L434.10724 47.9125L437.41974 52.85L434.826 52.85L432.6541 49.459373ZM443.16974 50.50625Q443.16974 50.1 442.74786 49.865623Q442.3416 49.615623 441.43536 49.428123Q438.41974 48.803123 438.41974 46.865623Q438.41974 45.740623 439.35724 44.990623Q440.29474 44.240623 441.79474 44.240623Q443.4041 44.240623 444.37286 45.00625Q445.3416 45.75625 445.3416 46.959373L443.076 46.959373Q443.076 46.475 442.7635 46.1625Q442.451 45.85 441.79474 45.85Q441.2166 45.85 440.9041 46.115623Q440.5916 46.365623 440.5916 46.75625Q440.5916 47.13125 440.951 47.365623Q441.31036 47.6 442.1541 47.771873Q442.99786 47.928123 443.576 48.146873Q445.35724 48.803123 445.35724 50.4125Q445.35724 51.56875 444.35724 52.2875Q443.37286 53.00625 441.81036 53.00625Q440.74786 53.00625 439.91974 52.63125Q439.0916 52.240623 438.62286 51.584373Q438.1541 50.928123 438.1541 50.1625L440.29474 50.1625Q440.326 50.75625 440.73224 51.084373Q441.1541 51.396873 441.85724 51.396873Q442.49786 51.396873 442.826 51.1625Q443.16974 50.9125 443.16974 50.50625ZM448.43536 49.35Q448.43536 48.25625 448.701 47.615623Q448.9666 46.959373 449.66974 46.334373Q450.37286 45.709373 450.60724 45.31875Q450.8416 44.9125 450.8416 44.475Q450.8416 43.1625 449.62286 43.1625Q449.04474 43.1625 448.701 43.521873Q448.35724 43.865623 448.3416 44.490623L446.076 44.490623Q446.0916 43.00625 447.0291 42.1625Q447.98224 41.31875 449.62286 41.31875Q451.2791 41.31875 452.18536 42.115623Q453.10724 42.9125 453.10724 44.38125Q453.10724 45.0375 452.81036 45.63125Q452.5135 46.225 451.7791 46.94375L451.1385 47.5375Q450.54474 48.115623 450.4666 48.88125L450.43536 49.35L448.43536 49.35ZM448.201 51.75625Q448.201 51.225 448.56036 50.896873Q448.91974 50.553123 449.4666 50.553123Q450.0291 50.553123 450.37286 50.896873Q450.73224 51.225 450.73224 51.75625Q450.73224 52.271873 450.3885 52.615623Q450.04474 52.94375 449.4666 52.94375Q448.9041 52.94375 448.54474 52.615623Q448.201 52.271873 448.201 51.75625Z" fill-rule="nonzero"/></svg>