<svg fill="none" stroke-linecap="square" stroke-miterlimit="10" width="531" height="377" xmlns="http://www.w3.org/2000/svg"><path fill="#fff" d="M0 0h531v377H0V0Z"/><path fill="#fce5cd" d="M265.5 84.85a136.65 136.65 0 0 1 133.224 167.058L265.5 221.5Z"/><path fill="#666" d="M206.21 98.383A136.65 136.65 0 0 1 265.5 84.85V221.5Z"/><path fill="#e69138" d="M138.296 171.576a136.65 136.65 0 0 1 67.914-73.193L265.5 221.5Z"/><path fill="#f6b26b" d="M398.724 251.908c-11.407 49.977-49.827 89.367-99.505 102.016-49.678 12.65-102.256-3.568-136.176-42.005-33.92-38.436-43.475-92.623-24.747-140.343L265.5 221.5Z"/><path fill="#1a1a1a" d="M22.307 93.147h-3.375v2.297h3.97v1.406h-5.72v-8.53h5.704v1.421h-3.954v2.031h3.375v1.375Zm4.172-.75 1.063-1.89h1.812l-1.797 3.109 1.875 3.234H27.62l-1.125-2-1.125 2h-1.828l1.875-3.234-1.797-3.11h1.812l1.047 1.891Zm5.61-3.453v1.563h1.093v1.25H32.09v3.156q0 .36.14.516.14.14.516.14.281 0 .5-.031v1.281q-.5.156-1.031.156-1.782 0-1.813-1.812v-3.406h-.922v-1.25h.922v-1.563h1.688Zm4.89 8.031q-1.39 0-2.265-.859-.875-.86-.875-2.281v-.172q0-.953.359-1.703.375-.75 1.047-1.156.687-.407 1.547-.407 1.312 0 2.047.828.75.813.75 2.313v.687h-4.032q.078.625.485 1 .422.375 1.062.375.969 0 1.516-.703l.844.922q-.391.547-1.047.86-.64.296-1.438.296Zm-.187-5.218q-.5 0-.813.343-.312.344-.406.97h2.36v-.126q-.016-.562-.313-.875-.281-.312-.828-.312Zm4.828-1.25.062.734q.672-.844 1.813-.844 1.015 0 1.5.594.5.578.515 1.766v4.093h-1.703v-4.062q0-.531-.234-.766-.234-.25-.781-.25-.703 0-1.063.61v4.468h-1.703v-6.343h1.594Zm8.875 4.593q0-.312-.313-.484-.297-.187-.968-.328-2.266-.469-2.266-1.922 0-.844.687-1.406.704-.563 1.844-.563 1.203 0 1.922.563.734.562.734 1.484h-1.703q0-.375-.234-.61-.234-.234-.734-.234-.422 0-.657.204-.234.187-.234.484 0 .281.266.453.265.172.89.297.64.125 1.078.281 1.344.5 1.344 1.703 0 .875-.75 1.422-.734.531-1.922.531-.797 0-1.422-.28-.609-.298-.968-.782-.344-.5-.344-1.078h1.61q.015.453.327.703.313.234.828.234.5 0 .735-.187.25-.188.25-.485Zm4.36 1.75H53.15v-6.343h1.703v6.343Zm-1.798-7.984q0-.375.25-.625.266-.25.703-.25.422 0 .672.25.266.25.266.625 0 .39-.266.64-.25.235-.687.235-.422 0-.688-.234-.25-.25-.25-.641Zm5.391 5.922 1.172-4.281h1.765l-2.14 6.343h-1.61l-2.14-6.343h1.765l1.188 4.28Zm6.531 2.187q-1.39 0-2.265-.859-.875-.86-.875-2.281v-.172q0-.953.359-1.703.375-.75 1.047-1.156.687-.407 1.547-.407 1.312 0 2.047.828.75.813.75 2.313v.687h-4.032q.078.625.485 1 .422.375 1.062.375.969 0 1.516-.703l.844.922q-.391.547-1.047.86-.64.296-1.438.296Zm-.187-5.218q-.5 0-.813.343-.312.344-.406.97h2.36v-.126q-.016-.562-.313-.875-.281-.312-.828-.312Z"/><path fill="#9e9e9e" d="m22.792 107.272-3.297 7.578h-1.781l3.297-7.156h-4.235v-1.375h6.016v.953Zm1.36 6.75q0-.406.265-.656.281-.25.687-.25.422 0 .688.25.281.25.281.656 0 .39-.281.64-.266.25-.688.25-.406 0-.687-.25-.266-.25-.266-.64Zm6.952.828h-1.687v-6.53l-2.016.624v-1.375l3.531-1.265h.172v8.546Zm2.875-6.89q0-.781.5-1.266.516-.5 1.344-.5.828 0 1.344.485.515.484.515 1.312v.422q0 .781-.515 1.266-.516.484-1.328.484-.844 0-1.36-.484-.5-.485-.5-1.297v-.422Zm1.125.453q0 .344.203.562.203.22.532.22.328 0 .515-.22.188-.218.188-.578v-.437q0-.36-.188-.563-.187-.218-.531-.218-.328 0-.531.218-.188.203-.188.578v.438Zm2.953 4.344q0-.797.516-1.266.516-.484 1.328-.484.828 0 1.344.484.515.469.515 1.297v.422q0 .797-.5 1.281-.5.484-1.343.484-.844 0-1.36-.484-.5-.5-.5-1.297v-.437Zm1.125.453q0 .328.203.562.22.219.532.219.718 0 .718-.781v-.453q0-.344-.203-.563-.203-.219-.53-.219-.329 0-.532.22-.188.218-.188.577v.438Zm-3.015 1-.828-.438 4.171-6.672.829.438-4.172 6.672Z"/><path stroke="#757575" stroke-linecap="butt" d="M16.417 101.35H122.85l113.763-6.412"/><path fill="#9e9e9e" d="M238.613 94.938a2 2 0 1 0-4 0 2 2 0 0 0 4 0"/><path fill="#1a1a1a" d="M21.604 127.616q0-.5-.36-.766-.343-.265-1.265-.562-.906-.297-1.437-.594-1.453-.781-1.453-2.11 0-.687.39-1.234.39-.546 1.11-.843.734-.313 1.64-.313.922 0 1.625.344.719.328 1.11.937.406.594.406 1.36h-1.766q0-.578-.375-.906-.36-.329-1.031-.329-.64 0-1 .282-.36.265-.36.703 0 .422.422.703.422.281 1.235.531 1.5.453 2.187 1.125.688.656.688 1.656 0 1.11-.844 1.75-.828.625-2.25.625-.984 0-1.797-.359-.812-.375-1.234-1-.422-.625-.422-1.453h1.766q0 1.422 1.687 1.422.625 0 .969-.25.36-.266.36-.719Zm2.203-1q0-.937.36-1.672.36-.75 1.047-1.14.687-.407 1.578-.407 1.297 0 2.093.782.813.78.907 2.125l.015.437q0 1.469-.812 2.36-.813.874-2.188.874-1.375 0-2.187-.875-.813-.89-.813-2.406v-.078Zm1.688.125q0 .906.344 1.39.343.47.968.47t.97-.47q.343-.468.343-1.515 0-.875-.344-1.36-.344-.5-.984-.5-.61 0-.953.485-.344.484-.344 1.5Zm7.156-3.234.063.718q.671-.828 1.812-.828 1.234 0 1.688.969.671-.969 1.906-.969 1.031 0 1.531.61.5.593.5 1.797v4.046h-1.687v-4.046q0-.532-.22-.782-.202-.25-.75-.25-.75 0-1.046.719v4.36H34.76v-4.032q0-.562-.218-.797-.219-.25-.735-.25-.718 0-1.047.594v4.484h-1.687v-6.343h1.578Zm11.328 6.468q-1.39 0-2.265-.859-.875-.86-.875-2.281v-.172q0-.953.359-1.703.375-.75 1.047-1.156.687-.407 1.547-.407 1.312 0 2.047.828.75.813.75 2.313v.687h-4.032q.078.625.485 1 .422.375 1.062.375.969 0 1.516-.703l.844.922q-.391.547-1.047.86-.64.296-1.438.296Zm-.187-5.218q-.5 0-.813.343-.312.344-.406.97h2.36v-.126q-.016-.562-.313-.875-.281-.312-.828-.312Zm9.062 1.672-.922.984v2.437h-1.75v-8.53h1.75v3.859l.782-1.047 2.171-2.813h2.157l-3.032 3.797 3.125 4.734h-2.093l-2.188-3.421Zm6.766-2.922.062.734q.672-.844 1.813-.844 1.015 0 1.5.594.5.578.515 1.766v4.093h-1.703v-4.062q0-.531-.234-.766-.234-.25-.781-.25-.703 0-1.063.61v4.468h-1.703v-6.343h1.594Zm5.187 3.109q0-.937.36-1.672.36-.75 1.047-1.14.687-.407 1.578-.407 1.297 0 2.093.782.813.78.907 2.125l.015.437q0 1.469-.812 2.36-.813.874-2.188.874-1.375 0-2.187-.875-.813-.89-.813-2.406v-.078Zm1.688.125q0 .906.344 1.39.343.47.968.47t.97-.47q.343-.468.343-1.515 0-.875-.344-1.36-.344-.5-.984-.5-.61 0-.953.485-.344.484-.344 1.5Zm11.094.813.828-4.047h1.625l-1.61 6.343H77.01l-1.203-3.984-1.203 3.984h-1.406l-1.61-6.343h1.626l.828 4.03 1.156-4.03h1.234l1.157 4.047Zm5.265 2.296h-1.703v-9h1.703v9Zm4.125.125q-1.39 0-2.265-.859-.875-.86-.875-2.281v-.172q0-.953.359-1.703.375-.75 1.047-1.156.687-.407 1.547-.407 1.312 0 2.047.828.75.813.75 2.313v.687h-4.032q.078.625.485 1 .422.375 1.062.375.969 0 1.516-.703l.844.922q-.391.547-1.047.86-.64.296-1.438.296Zm-.187-5.218q-.5 0-.813.343-.312.344-.406.97h2.36v-.126q-.016-.562-.313-.875-.281-.312-.828-.312Zm3.015 1.875q0-1.485.657-2.36.671-.875 1.828-.875.922 0 1.531.688v-3.235h1.688v9h-1.516l-.094-.671q-.625.796-1.625.796-1.125 0-1.797-.875-.672-.89-.672-2.468Zm1.688.125q0 .89.312 1.375.313.468.907.468.78 0 1.109-.671v-2.5q-.328-.657-1.094-.657-1.234 0-1.234 1.985Zm5.328-.125q0-1.453.688-2.344.703-.89 1.874-.89 1.047 0 1.625.702l.079-.593h1.53v6.125q0 .843-.39 1.453-.375.625-1.062.937-.672.328-1.594.328-.703 0-1.375-.28-.656-.282-.984-.72l.75-1.03q.625.702 1.53.702.673 0 1.048-.36.375-.358.375-1.015v-.343q-.578.671-1.547.671-1.14 0-1.844-.89-.703-.906-.703-2.375v-.078Zm1.688.125q0 .859.343 1.359.36.484.953.484.782 0 1.11-.578v-2.672q-.344-.578-1.094-.578-.61 0-.969.5-.344.5-.344 1.485Zm8.468 3.218q-1.39 0-2.265-.859-.875-.86-.875-2.281v-.172q0-.953.359-1.703.375-.75 1.047-1.156.687-.407 1.547-.407 1.312 0 2.047.828.75.813.75 2.313v.687h-4.032q.078.625.485 1 .422.375 1.062.375.969 0 1.516-.703l.844.922q-.391.547-1.047.86-.64.296-1.438.296Zm-.187-5.218q-.5 0-.813.343-.312.344-.406.97h2.36v-.126q-.016-.562-.313-.875-.281-.312-.828-.312Z"/><path fill="#9e9e9e" d="M21.104 147.85h-1.687v-6.53l-2.016.624v-1.375l3.531-1.265h.172v8.546Zm7 0h-1.687v-6.53l-2.016.624v-1.375l3.531-1.265h.172v8.546Zm3.047-.828q0-.406.266-.656.281-.25.687-.25.422 0 .688.25.281.25.281.656 0 .39-.281.64-.266.25-.688.25-.406 0-.687-.25-.266-.25-.266-.64Zm6.813-2.578q-.672.64-1.547.64-1.14 0-1.828-.765-.672-.781-.672-2.094 0-.843.36-1.546.374-.704 1.03-1.094.657-.39 1.485-.39.843 0 1.5.421.656.422 1.015 1.219.36.797.375 1.812v.625q0 2.14-1.062 3.36-1.063 1.218-3.016 1.297h-.406v-1.407l.375-.015q2.203-.094 2.39-2.063Zm-1.141-.656q.422 0 .703-.203.297-.219.453-.516v-.687q0-.86-.328-1.328-.328-.485-.875-.485-.516 0-.844.469-.328.453-.328 1.156 0 .703.313 1.156.328.438.906.438Zm4.156-2.828q0-.781.5-1.266.516-.5 1.344-.5.828 0 1.344.485.515.484.515 1.312v.422q0 .781-.515 1.266-.516.484-1.328.484-.844 0-1.36-.484-.5-.485-.5-1.297v-.422Zm1.125.453q0 .344.203.562.203.22.532.22.328 0 .515-.22.188-.218.188-.578v-.437q0-.36-.188-.563-.187-.218-.531-.218-.328 0-.531.218-.188.203-.188.578v.438Zm2.953 4.344q0-.797.516-1.266.516-.484 1.328-.484.828 0 1.344.484.515.469.515 1.297v.422q0 .797-.5 1.281-.5.484-1.343.484-.844 0-1.36-.484-.5-.5-.5-1.297v-.437Zm1.125.453q0 .328.203.562.22.219.532.219.718 0 .718-.781v-.453q0-.344-.203-.563-.203-.219-.53-.219-.329 0-.532.22-.188.218-.188.577v.438Zm-3.015 1-.828-.438 4.171-6.672.829.438-4.172 6.672Z"/><path stroke="#757575" stroke-linecap="butt" d="M16.417 134.35H122.85l47.487-1.148"/><path fill="#9e9e9e" d="M172.337 133.202a2 2 0 1 0-4 0 2 2 0 0 0 4 0"/><path fill="#1a1a1a" d="M18.932 335.744h3.735v1.406h-5.485v-8.531h1.75v7.125Zm6.922 1.406h-1.703v-6.344h1.703v6.344Zm-1.797-7.984q0-.375.25-.625.266-.25.704-.25.421 0 .671.25.266.25.266.625 0 .39-.266.64-.25.235-.687.235-.422 0-.688-.235-.25-.25-.25-.64Zm5.032.078v1.562h1.093v1.25H29.09v3.156q0 .36.14.516.14.14.516.14.281 0 .5-.03v1.28q-.5.157-1.031.157-1.782 0-1.813-1.813v-3.406h-.922v-1.25h.922v-1.562h1.688Zm4 0v1.562h1.093v1.25H33.09v3.156q0 .36.14.516.14.14.516.14.281 0 .5-.03v1.28q-.5.157-1.031.157-1.782 0-1.813-1.813v-3.406h-.922v-1.25h.922v-1.562h1.688Zm3.765 7.906h-1.703v-9h1.703v9Zm4.125.125q-1.39 0-2.265-.86-.875-.859-.875-2.28v-.173q0-.953.359-1.703.375-.75 1.047-1.156.687-.406 1.547-.406 1.312 0 2.047.828.75.813.75 2.313v.687h-4.032q.078.625.485 1 .422.375 1.062.375.969 0 1.516-.703l.844.922q-.391.547-1.047.86-.64.296-1.438.296Zm-.187-5.219q-.5 0-.813.344-.312.344-.406.969h2.36v-.125q-.016-.563-.313-.875-.281-.313-.828-.313Zm9.062 1.672-.922.984v2.438h-1.75v-8.531h1.75v3.86l.782-1.048 2.171-2.812h2.157l-3.032 3.797 3.125 4.734h-2.093l-2.188-3.422Zm6.766-2.922.062.735q.672-.844 1.813-.844 1.015 0 1.5.594.5.578.515 1.765v4.094h-1.703v-4.063q0-.53-.234-.765-.234-.25-.781-.25-.703 0-1.063.61v4.468h-1.703v-6.344h1.594Zm5.187 3.11q0-.938.36-1.672.36-.75 1.047-1.14.687-.407 1.578-.407 1.297 0 2.093.781.813.781.907 2.125l.015.438q0 1.468-.812 2.359-.813.875-2.188.875-1.375 0-2.187-.875-.813-.89-.813-2.406v-.078Zm1.688.125q0 .906.344 1.39.343.469.968.469t.97-.469q.343-.469.343-1.515 0-.875-.344-1.36-.344-.5-.984-.5-.61 0-.953.485-.344.484-.344 1.5Zm11.094.812.828-4.047h1.625l-1.61 6.344H74.01l-1.203-3.984-1.203 3.984h-1.406l-1.61-6.344h1.626l.828 4.031 1.156-4.03h1.234l1.157 4.046Zm5.265 2.297h-1.703v-9h1.703v9Zm4.125.125q-1.39 0-2.265-.86-.875-.859-.875-2.28v-.173q0-.953.359-1.703.375-.75 1.047-1.156.687-.406 1.547-.406 1.312 0 2.047.828.75.813.75 2.313v.687h-4.032q.078.625.485 1 .422.375 1.062.375.969 0 1.516-.703l.844.922q-.391.547-1.047.86-.64.296-1.438.296Zm-.187-5.219q-.5 0-.813.344-.312.344-.406.969h2.36v-.125q-.016-.563-.313-.875-.281-.313-.828-.313Zm3.015 1.875q0-1.484.657-2.36.671-.874 1.828-.874.922 0 1.531.687v-3.234h1.688v9h-1.516l-.094-.672q-.625.797-1.625.797-1.125 0-1.797-.875-.672-.89-.672-2.469Zm1.688.125q0 .89.312 1.375.313.469.907.469.78 0 1.109-.672v-2.5q-.328-.656-1.094-.656-1.234 0-1.234 1.984Zm5.328-.125q0-1.453.688-2.344.703-.89 1.874-.89 1.047 0 1.625.703l.079-.594h1.53v6.125q0 .844-.39 1.453-.375.625-1.062.938-.672.328-1.594.328-.703 0-1.375-.281-.656-.282-.984-.719l.75-1.031q.625.703 1.53.703.673 0 1.048-.36.375-.359.375-1.015v-.344q-.578.672-1.547.672-1.14 0-1.844-.89-.703-.907-.703-2.376v-.078Zm1.688.125q0 .86.343 1.36.36.484.953.484.782 0 1.11-.578v-2.672q-.344-.578-1.094-.578-.61 0-.969.5-.344.5-.344 1.484Zm8.468 3.219q-1.39 0-2.265-.86-.875-.859-.875-2.28v-.173q0-.953.359-1.703.375-.75 1.047-1.156.687-.406 1.547-.406 1.312 0 2.047.828.75.813.75 2.313v.687h-4.032q.078.625.485 1 .422.375 1.062.375.969 0 1.516-.703l.844.922q-.391.547-1.047.86-.64.296-1.438.296Zm-.187-5.219q-.5 0-.813.344-.312.344-.406.969h2.36v-.125q-.016-.563-.313-.875-.281-.313-.828-.313Z"/><path fill="#9e9e9e" d="m17.245 350.947.5-4.328h4.781v1.406h-3.39l-.22 1.844q.61-.328 1.282-.328 1.219 0 1.906.765.703.75.703 2.11 0 .828-.359 1.484-.344.64-1 1.016-.64.359-1.531.359-.766 0-1.438-.313-.656-.328-1.047-.89-.375-.563-.406-1.297h1.688q.047.531.359.828.328.297.844.297.578 0 .875-.406.312-.422.312-1.172 0-.735-.36-1.11-.343-.39-1-.39-.608 0-.983.312l-.157.157-1.36-.344Zm12.594 4.203h-5.844v-1.156l2.765-2.953q.563-.61.829-1.079.28-.468.28-.875 0-.578-.296-.89-.281-.328-.813-.328-.578 0-.906.39-.328.391-.328 1.047h-1.703q0-.781.375-1.422.375-.656 1.047-1.015.687-.375 1.547-.375 1.312 0 2.047.64.734.625.734 1.782 0 .64-.328 1.296-.328.657-1.125 1.532l-1.938 2.047h3.657v1.359Zm1.312-.828q0-.406.266-.656.281-.25.687-.25.422 0 .688.25.281.25.281.656 0 .39-.281.64-.266.25-.688.25-.406 0-.687-.25-.266-.25-.266-.64Zm7.86-2.39h.968v1.374h-.969v1.844h-1.703v-1.844h-3.484l-.078-1.062 3.547-5.625h1.718v5.312Zm-3.579 0h1.875v-3l-.109.187-1.766 2.812Zm5.547-3.673q0-.78.5-1.265.516-.5 1.344-.5.828 0 1.344.484.515.484.515 1.313v.421q0 .782-.515 1.266-.516.484-1.328.484-.844 0-1.36-.484-.5-.484-.5-1.297v-.422Zm1.125.453q0 .344.203.563.203.219.532.219.328 0 .515-.219.188-.219.188-.578v-.438q0-.359-.188-.562-.187-.219-.531-.219-.328 0-.531.219-.188.203-.188.578v.438Zm2.953 4.344q0-.797.516-1.265.516-.485 1.328-.485.828 0 1.344.485.515.468.515 1.296v.422q0 .797-.5 1.282-.5.484-1.343.484-.844 0-1.36-.484-.5-.5-.5-1.297v-.438Zm1.125.453q0 .328.203.563.22.219.532.219.718 0 .718-.782v-.453q0-.344-.203-.562-.203-.219-.53-.219-.329 0-.532.219-.188.218-.188.578v.437Zm-3.015 1-.828-.437 4.171-6.672.829.438-4.172 6.671Z"/><path stroke="#757575" stroke-linecap="butt" d="M16.417 341.65H122.85l104.386 3.9"/><path fill="#9e9e9e" d="M229.236 345.55a2 2 0 1 0-4 0 2 2 0 0 0 4 0"/><path fill="#1a1a1a" d="M444.286 136.06h-1.765l-3.422-5.609v5.61h-1.75v-8.532h1.75l3.437 5.625v-5.625h1.75v8.531Zm.688-3.234q0-.937.36-1.672.359-.75 1.046-1.14.688-.407 1.578-.407 1.297 0 2.094.782.813.78.906 2.125l.016.437q0 1.469-.813 2.36-.812.874-2.187.874-1.375 0-2.188-.875-.812-.89-.812-2.406v-.078Zm1.687.125q0 .906.344 1.39.344.47.969.47t.969-.47q.343-.468.343-1.515 0-.875-.343-1.36-.344-.5-.985-.5-.61 0-.953.485-.344.484-.344 1.5Zm11.36-.312-.922.984v2.437h-1.75v-8.53h1.75v3.859l.781-1.047 2.172-2.813h2.156l-3.031 3.797 3.125 4.734h-2.094l-2.187-3.421Zm6.765-2.922.063.734q.672-.844 1.812-.844 1.016 0 1.5.594.5.578.516 1.766v4.093h-1.703v-4.062q0-.531-.234-.766-.235-.25-.782-.25-.703 0-1.062.61v4.468h-1.703v-6.343h1.593Zm5.188 3.11q0-.938.36-1.673.359-.75 1.046-1.14.688-.407 1.578-.407 1.297 0 2.094.782.813.78.906 2.125l.016.437q0 1.469-.813 2.36-.812.874-2.187.874-1.375 0-2.188-.875-.812-.89-.812-2.406v-.078Zm1.687.124q0 .906.344 1.39.344.47.969.47t.969-.47q.343-.468.343-1.515 0-.875-.343-1.36-.344-.5-.985-.5-.61 0-.953.485-.344.484-.344 1.5Zm11.094.813.828-4.047h1.625l-1.61 6.343h-1.421l-1.203-3.984-1.203 3.984h-1.406l-1.61-6.343h1.625l.828 4.03 1.156-4.03h1.235l1.156 4.047Zm5.266 2.296h-1.703v-9h1.703v9Zm4.125.125q-1.39 0-2.266-.859-.875-.86-.875-2.281v-.172q0-.953.36-1.703.375-.75 1.046-1.156.688-.407 1.547-.407 1.313 0 2.047.828.75.813.75 2.313v.687h-4.031q.078.625.484 1 .422.375 1.063.375.969 0 1.515-.703l.844.922q-.39.547-1.047.86-.64.296-1.437.296Zm-.188-5.218q-.5 0-.812.343-.313.344-.406.97h2.359v-.126q-.016-.562-.313-.875-.28-.312-.828-.312Zm3.016 1.875q0-1.485.656-2.36.672-.875 1.828-.875.922 0 1.531.688v-3.235h1.688v9h-1.516l-.093-.671q-.625.796-1.625.796-1.125 0-1.797-.875-.672-.89-.672-2.468Zm1.687.125q0 .89.313 1.375.312.468.906.468.781 0 1.11-.671v-2.5q-.329-.657-1.094-.657-1.235 0-1.235 1.985Zm5.329-.125q0-1.453.687-2.344.703-.89 1.875-.89 1.047 0 1.625.702l.078-.593h1.531v6.125q0 .843-.39 1.453-.375.625-1.063.937-.672.328-1.594.328-.703 0-1.374-.28-.657-.282-.985-.72l.75-1.03q.625.702 1.531.702.672 0 1.047-.36.375-.358.375-1.015v-.343q-.578.671-1.547.671-1.14 0-1.843-.89-.703-.906-.703-2.375v-.078Zm1.687.125q0 .86.344 1.36.36.483.953.483.781 0 1.11-.578v-2.672q-.344-.578-1.094-.578-.61 0-.97.5-.343.5-.343 1.485Zm8.469 3.218q-1.39 0-2.266-.859-.875-.86-.875-2.281v-.172q0-.953.36-1.703.375-.75 1.046-1.156.688-.407 1.547-.407 1.313 0 2.047.828.75.813.75 2.313v.687h-4.031q.078.625.484 1 .422.375 1.063.375.969 0 1.515-.703l.844.922q-.39.547-1.047.86-.64.296-1.437.296Zm-.188-5.218q-.5 0-.812.343-.313.344-.406.97h2.359v-.126q-.016-.562-.313-.875-.28-.312-.828-.312Z"/><path fill="#9e9e9e" d="M488.005 154.06h-5.844v-1.156l2.766-2.953q.563-.61.828-1.078.281-.469.281-.875 0-.578-.296-.89-.282-.329-.813-.329-.578 0-.906.39-.328.391-.328 1.048h-1.703q0-.782.375-1.422.375-.656 1.046-1.016.688-.375 1.547-.375 1.313 0 2.047.64.735.626.735 1.782 0 .64-.329 1.297-.328.656-1.125 1.531l-1.937 2.047h3.656v1.36Zm6.719-6.265q0 .625-.313 1.11-.312.468-.859.765.625.297.984.828.375.516.375 1.219 0 1.14-.78 1.812-.766.656-2.11.656-1.328 0-2.11-.656-.765-.672-.765-1.812 0-.703.36-1.235.359-.53.984-.812-.547-.297-.86-.766-.312-.484-.312-1.11 0-1.093.718-1.734.735-.656 1.985-.656t1.969.656q.734.641.734 1.735Zm-1.516 3.797q0-.547-.328-.875-.312-.344-.86-.344-.546 0-.874.328-.313.328-.313.89 0 .548.313.891.328.328.89.328.547 0 .86-.312.312-.328.312-.906Zm-.172-3.72q0-.5-.265-.796-.266-.297-.75-.297-.469 0-.735.297-.265.281-.265.797t.265.828q.266.313.735.313.484 0 .75-.313.265-.312.265-.828Zm3.282 5.36q0-.406.265-.656.281-.25.688-.25.422 0 .687.25.281.25.281.656 0 .39-.28.64-.266.25-.688.25-.406 0-.688-.25-.265-.25-.265-.64Zm7.437-7.797v1.407h-.156q-1.156.015-1.86.593-.687.579-.828 1.61.672-.688 1.704-.688 1.125 0 1.78.797.657.797.657 2.094 0 .828-.36 1.5-.359.672-1.03 1.062-.657.375-1.485.375-1.344 0-2.172-.937-.828-.953-.828-2.516v-.61q0-1.39.516-2.452.53-1.063 1.5-1.64.984-.579 2.28-.595h.282Zm-1.656 4.282q-.406 0-.75.218-.328.204-.484.563v.516q0 .843.328 1.328.343.468.953.468.547 0 .875-.421.344-.438.344-1.125 0-.704-.344-1.125-.344-.422-.922-.422Zm4.047-2.547q0-.781.5-1.266.515-.5 1.344-.5.828 0 1.343.485.516.484.516 1.312v.422q0 .781-.516 1.266-.515.484-1.328.484-.844 0-1.36-.484-.5-.485-.5-1.297v-.422Zm1.125.453q0 .344.203.562.203.22.531.22t.516-.22q.187-.218.187-.578v-.437q0-.36-.187-.563-.188-.218-.531-.218-.329 0-.532.218-.187.203-.187.578v.438Zm2.953 4.344q0-.797.516-1.266.515-.484 1.328-.484.828 0 1.343.484.516.469.516 1.297v.422q0 .797-.5 1.281-.5.484-1.344.484-.843 0-1.36-.484-.5-.5-.5-1.297v-.437Zm1.125.453q0 .328.203.562.219.22.531.22.719 0 .719-.782v-.453q0-.344-.203-.563-.203-.219-.531-.219t-.532.22q-.187.218-.187.577v.438Zm-3.016 1-.828-.438 4.172-6.672.828.438-4.172 6.672Z"/><path stroke="#757575" stroke-linecap="butt" d="M514.583 140.56H366.995"/><path fill="#9e9e9e" d="M368.995 140.56a2 2 0 1 0-4 0 2 2 0 0 0 4 0"/><path fill="#757575" d="M91.051 35.882h-2.344v-4.875H84.13v4.875h-2.343V24.507h2.343v4.61h4.578v-4.61h2.344v11.375Zm1.235-4.312q0-1.25.484-2.235.484-.984 1.39-1.515.922-.547 2.126-.547 1.703 0 2.78 1.047 1.095 1.047 1.22 2.844l.015.578q0 1.937-1.094 3.125-1.078 1.172-2.906 1.172t-2.922-1.172q-1.093-1.172-1.093-3.188v-.11Zm2.265.172q0 1.203.453 1.843.453.625 1.297.625.813 0 1.266-.625.469-.625.469-2.015 0-1.172-.47-1.813-.452-.656-1.28-.656-.829 0-1.282.64-.453.641-.453 2Zm14.438 1.062 1.11-5.375h2.187l-2.157 8.453h-1.89l-1.61-5.328-1.593 5.328h-1.891l-2.156-8.453h2.187l1.094 5.375 1.547-5.375h1.64l1.532 5.375Zm10.765-5.375.078.938q.891-1.094 2.422-1.094 1.641 0 2.25 1.281.891-1.281 2.532-1.281 1.375 0 2.046.797.672.797.672 2.406v5.406h-2.265v-5.39q0-.719-.282-1.047-.28-.344-.984-.344-1.016 0-1.406.969v5.812h-2.25v-5.39q0-.735-.297-1.063-.281-.328-.984-.328-.954 0-1.391.797v5.984h-2.25V27.43h2.11Zm16.953 7.594q-.843 1.016-2.312 1.016-1.36 0-2.078-.782-.719-.78-.735-2.297v-5.53h2.266v5.452q0 1.328 1.203 1.328 1.14 0 1.578-.796v-5.985h2.266v8.453h-2.125l-.063-.859Zm7.454-.813q.625 0 1.015-.343.39-.344.406-.907h2.11q0 .86-.469 1.579-.453.703-1.266 1.109-.796.39-1.765.39-1.813 0-2.86-1.156-1.046-1.156-1.046-3.187v-.14q0-1.954 1.03-3.11 1.048-1.172 2.86-1.172 1.594 0 2.547.906.953.89.969 2.39h-2.11q-.015-.655-.406-1.062-.39-.406-1.031-.406-.797 0-1.203.578-.39.563-.39 1.86v.234q0 1.297.39 1.875.406.562 1.219.562Zm6.687-5.859q.89-1.078 2.25-1.078 2.75 0 2.797 3.187v5.422h-2.266v-5.359q0-.719-.312-1.063-.313-.359-1.031-.359-1 0-1.438.766v6.015h-2.266v-12h2.266v4.47Zm10.438 3.234q0-1.968.89-3.14.89-1.172 2.422-1.172 1.234 0 2.047.922v-4.313h2.266v12h-2.047l-.11-.906q-.843 1.063-2.172 1.063-1.484 0-2.39-1.172-.906-1.188-.906-3.282Zm2.265.172q0 1.188.406 1.828.422.625 1.204.625 1.046 0 1.484-.89v-3.328q-.422-.89-1.469-.89-1.625 0-1.625 2.655Zm6.735-.187q0-1.25.484-2.235.484-.984 1.39-1.515.922-.547 2.126-.547 1.703 0 2.78 1.047 1.095 1.047 1.22 2.844l.015.578q0 1.937-1.094 3.125-1.078 1.172-2.906 1.172t-2.922-1.172q-1.093-1.172-1.093-3.188v-.11Zm2.265.172q0 1.203.453 1.843.453.625 1.297.625.813 0 1.266-.625.469-.625.469-2.015 0-1.172-.47-1.813-.452-.656-1.28-.656-.829 0-1.282.64-.453.641-.453 2Zm14.25.937 1.563-5.25h2.422l-3.407 9.766-.187.453q-.75 1.656-2.5 1.656-.485 0-1-.156v-1.703h.344q.64 0 .953-.203.328-.188.5-.64l.265-.688-2.953-8.485h2.422l1.578 5.25Zm4.485-1.11q0-1.25.484-2.234t1.39-1.515q.922-.547 2.126-.547 1.703 0 2.78 1.047 1.095 1.047 1.22 2.844l.015.578q0 1.937-1.094 3.125-1.078 1.172-2.906 1.172t-2.922-1.172q-1.093-1.172-1.093-3.188v-.11Zm2.265.173q0 1.203.453 1.843.453.625 1.297.625.813 0 1.266-.625.469-.625.469-2.015 0-1.172-.47-1.813-.452-.656-1.28-.656-.829 0-1.282.64-.453.641-.453 2Zm12.156 3.281q-.843 1.016-2.312 1.016-1.36 0-2.078-.782-.719-.78-.735-2.297v-5.53h2.266v5.452q0 1.328 1.203 1.328 1.14 0 1.578-.796v-5.985h2.266v8.453h-2.125l-.063-.859Zm11-2.531-.812.812v2.578h-2.25v-12h2.25v6.641l.437-.563 2.172-2.53h2.703l-3.046 3.515 3.312 4.937h-2.594l-2.172-3.39Zm8.016-5.063.063.969q.906-1.125 2.437-1.125 1.344 0 2 .797.656.781.672 2.344v5.468h-2.266v-5.406q0-.719-.312-1.047-.313-.328-1.031-.328-.954 0-1.438.813v5.968h-2.25V27.43h2.125Zm6.563 4.14q0-1.25.484-2.234t1.39-1.515q.922-.547 2.126-.547 1.703 0 2.78 1.047 1.095 1.047 1.22 2.844l.015.578q0 1.937-1.094 3.125-1.078 1.172-2.906 1.172t-2.922-1.172q-1.093-1.172-1.093-3.188v-.11Zm2.265.173q0 1.203.453 1.843.453.625 1.297.625.813 0 1.266-.625.469-.625.469-2.015 0-1.172-.47-1.813-.452-.656-1.28-.656-.829 0-1.282.64-.453.641-.453 2Zm14.438 1.062 1.11-5.375h2.187l-2.157 8.453h-1.89l-1.61-5.328-1.593 5.328h-1.891l-2.156-8.453h2.187l1.094 5.375 1.547-5.375h1.64l1.532 5.375Zm13.547 3.078q-.157-.312-.22-.765-.827.922-2.14.922-1.234 0-2.062-.72-.813-.718-.813-1.812 0-1.343 1-2.062 1-.719 2.875-.735h1.047v-.484q0-.578-.312-.922-.297-.36-.938-.36-.578 0-.906.282-.313.266-.313.734h-2.265q0-.734.453-1.359t1.281-.969q.828-.359 1.86-.359 1.562 0 2.484.781.922.781.922 2.203v3.672q0 1.203.328 1.813v.14h-2.281Zm-1.86-1.578q.5 0 .922-.219.422-.218.625-.593v-1.453h-.844q-1.703 0-1.812 1.171v.125q0 .422.297.704.297.265.812.265Zm13.578-2.578q0 2.031-.875 3.172-.859 1.14-2.406 1.14-1.375 0-2.203-1.062l-.094.906h-2.031v-12h2.25v4.297q.781-.906 2.063-.906 1.546 0 2.421 1.14.875 1.126.875 3.188v.125Zm-2.25-.156q0-1.281-.406-1.875-.406-.594-1.219-.594-1.078 0-1.484.89v3.329q.422.89 1.5.89 1.094 0 1.438-1.078.171-.515.171-1.562Zm3.282 0q0-1.25.484-2.235.484-.984 1.39-1.515.922-.547 2.126-.547 1.703 0 2.78 1.047 1.095 1.047 1.22 2.844l.015.578q0 1.937-1.094 3.125-1.078 1.172-2.906 1.172t-2.922-1.172q-1.093-1.172-1.093-3.188v-.11Zm2.265.172q0 1.203.453 1.843.453.625 1.297.625.813 0 1.266-.625.469-.625.469-2.015 0-1.172-.47-1.813-.452-.656-1.28-.656-.829 0-1.282.64-.453.641-.453 2Zm12.156 3.281q-.843 1.016-2.312 1.016-1.36 0-2.078-.782-.719-.78-.735-2.297v-5.53h2.266v5.452q0 1.328 1.203 1.328 1.14 0 1.578-.796v-5.985h2.266v8.453h-2.125l-.063-.859Zm6.641-9.672v2.078h1.438v1.656h-1.438v4.22q0 .468.172.671.188.203.688.203.374 0 .671-.062v1.718q-.672.204-1.375.204-2.375 0-2.422-2.407v-4.547h-1.234V27.43h1.234v-2.078h2.266Zm13.281 5.875h-4.5v4.656h-2.343V24.507h7.406v1.891h-5.063v2.937h4.5v1.891Zm4.391 4.656h-2.266V27.43h2.266v8.453Zm-2.39-10.64q0-.516.327-.844.344-.328.938-.328.578 0 .922.328.344.328.344.844 0 .515-.36.843-.344.329-.922.329-.562 0-.906-.329-.344-.328-.344-.843Zm8.765 4.297q-.469-.063-.813-.063-1.28 0-1.687.875v5.531h-2.25V27.43h2.125l.063 1q.687-1.156 1.89-1.156.375 0 .703.094l-.031 2.172Zm5.828 4q0-.407-.422-.641-.406-.25-1.312-.438-3.016-.625-3.016-2.562 0-1.125.938-1.875.937-.75 2.437-.75 1.61 0 2.578.766.969.75.969 1.953h-2.266q0-.485-.312-.797-.313-.313-.969-.313-.578 0-.89.266-.313.25-.313.64 0 .376.36.61.359.234 1.202.406.844.156 1.422.375 1.782.656 1.782 2.266 0 1.156-1 1.875-.985.719-2.547.719-1.063 0-1.89-.375-.829-.391-1.298-1.047-.469-.657-.469-1.422h2.141q.031.594.438.922.421.312 1.125.312.64 0 .968-.234.344-.25.344-.656Zm6.125-8.188v2.078h1.438v1.656h-1.438v4.22q0 .468.172.671.188.203.688.203.374 0 .671-.062v1.718q-.672.204-1.375.204-2.375 0-2.422-2.407v-4.547h-1.234V27.43h1.234v-2.078h2.266Zm15.688 10.531h-2.344l-4.563-7.484v7.484h-2.343V24.507h2.343l4.578 7.5v-7.5h2.329v11.375Zm6.5 0q-.157-.312-.22-.765-.827.922-2.14.922-1.234 0-2.062-.72-.813-.718-.813-1.812 0-1.343 1-2.062 1-.719 2.875-.735h1.047v-.484q0-.578-.312-.922-.297-.36-.938-.36-.578 0-.906.282-.313.266-.313.734h-2.265q0-.734.453-1.359t1.281-.969q.828-.359 1.86-.359 1.562 0 2.484.781.922.781.922 2.203v3.672q0 1.203.328 1.813v.14h-2.281Zm-1.86-1.578q.5 0 .922-.219.422-.218.625-.593v-1.453h-.844q-1.703 0-1.812 1.171v.125q0 .422.297.704.297.265.812.265Zm8.672-8.953v2.078h1.438v1.656h-1.438v4.22q0 .468.172.671.188.203.688.203.374 0 .671-.062v1.718q-.672.204-1.375.204-2.375 0-2.422-2.407v-4.547h-1.234V27.43h1.234v-2.078h2.266Zm4.672 10.531h-2.266V27.43h2.266v8.453Zm-2.39-10.64q0-.516.327-.844.344-.328.938-.328.578 0 .922.328.344.328.344.844 0 .515-.36.843-.344.329-.922.329-.562 0-.906-.329-.344-.328-.344-.843Zm3.656 6.328q0-1.25.484-2.235.484-.984 1.39-1.515.922-.547 2.126-.547 1.703 0 2.78 1.047 1.095 1.047 1.22 2.844l.015.578q0 1.937-1.094 3.125-1.078 1.172-2.906 1.172t-2.922-1.172q-1.093-1.172-1.093-3.188v-.11Zm2.265.172q0 1.203.453 1.843.453.625 1.297.625.813 0 1.266-.625.469-.625.469-2.015 0-1.172-.47-1.813-.452-.656-1.28-.656-.829 0-1.282.64-.453.641-.453 2Zm9.172-4.313.063.969q.906-1.125 2.437-1.125 1.344 0 2 .797.656.781.672 2.344v5.468h-2.266v-5.406q0-.719-.312-1.047-.313-.328-1.031-.328-.954 0-1.438.813v5.968h-2.25V27.43h2.125Zm11.5 6.11q0-.407-.422-.641-.406-.25-1.312-.438-3.016-.625-3.016-2.562 0-1.125.938-1.875.937-.75 2.437-.75 1.61 0 2.578.766.969.75.969 1.953h-2.266q0-.485-.312-.797-.313-.313-.969-.313-.578 0-.89.266-.313.25-.313.64 0 .376.36.61.359.234 1.202.406.844.156 1.422.375 1.782.656 1.782 2.266 0 1.156-1 1.875-.985.719-2.547.719-1.063 0-1.89-.375-.829-.391-1.298-1.047-.469-.657-.469-1.422h2.141q.031.594.438.922.421.312 1.125.312.64 0 .968-.234.344-.25.344-.656Zm10.938.671q.625 0 1.015-.343.39-.344.406-.907h2.11q0 .86-.469 1.579-.453.703-1.266 1.109-.796.39-1.765.39-1.813 0-2.86-1.156-1.046-1.156-1.046-3.187v-.14q0-1.954 1.03-3.11 1.048-1.172 2.86-1.172 1.594 0 2.547.906.953.89.969 2.39h-2.11q-.015-.655-.406-1.062-.39-.406-1.031-.406-.797 0-1.203.578-.39.563-.39 1.86v.234q0 1.297.39 1.875.406.562 1.219.562Zm9.546.813q-.843 1.016-2.312 1.016-1.36 0-2.078-.782-.719-.78-.735-2.297v-5.53h2.266v5.452q0 1.328 1.203 1.328 1.14 0 1.578-.796v-5.985h2.266v8.453h-2.125l-.063-.859Zm6.313.86h-2.266v-12h2.266v12Zm4.328-10.532v2.078h1.438v1.656h-1.438v4.22q0 .468.172.671.188.203.688.203.374 0 .671-.062v1.718q-.672.204-1.375.204-2.375 0-2.422-2.407v-4.547h-1.234V27.43h1.234v-2.078h2.266Zm7.36 9.672q-.844 1.016-2.313 1.016-1.36 0-2.078-.782-.719-.78-.735-2.297v-5.53h2.266v5.452q0 1.328 1.203 1.328 1.14 0 1.578-.796v-5.985h2.266v8.453h-2.125l-.063-.859Zm8.687-5.484q-.469-.063-.813-.063-1.28 0-1.687.875v5.531h-2.25V27.43h2.125l.063 1q.687-1.156 1.89-1.156.375 0 .703.094l-.031 2.172Zm5.14 6.5q-1.859 0-3.03-1.141-1.173-1.14-1.173-3.047v-.219q0-1.265.485-2.265.5-1.016 1.406-1.547.906-.547 2.063-.547 1.734 0 2.718 1.094 1 1.093 1 3.093v.922h-5.375q.11.828.657 1.328.546.5 1.39.5 1.313 0 2.047-.937l1.11 1.234q-.516.72-1.391 1.125-.86.407-1.906.407Zm-.265-6.938q-.672 0-1.094.453-.406.453-.531 1.297h3.14v-.187q-.015-.75-.406-1.157-.39-.406-1.109-.406Zm7.219 3.281q0-1.093.265-1.734.266-.656.97-1.281.702-.625.937-1.016.234-.406.234-.844 0-1.312-1.219-1.312-.578 0-.922.36-.343.343-.359.968h-2.266q.016-1.484.953-2.328.954-.844 2.594-.844 1.656 0 2.563.797.922.797.922 2.266 0 .656-.297 1.25-.297.593-1.031 1.312l-.641.594q-.594.578-.672 1.344l-.031.468h-2Zm-.235 2.407q0-.532.36-.86.36-.344.906-.344.563 0 .906.344.36.328.36.86 0 .515-.344.859-.344.328-.922.328-.563 0-.922-.328-.344-.344-.344-.86Z"/></svg>