<svg fill="none" stroke-linecap="square" stroke-miterlimit="10" width="531" height="377" xmlns="http://www.w3.org/2000/svg"><path fill="#fff" d="M0 0h531v377H0V0Z"/><path fill="#fce5cd" d="M269.042 87.5c40.58 0 78.954 18.48 104.256 50.207l-104.256 83.141Z"/><path fill="#f6b26b" d="M373.298 137.707c29.703 37.247 37.28 87.512 19.874 131.86-17.405 44.347-57.147 76.04-104.256 83.14l-19.874-131.859Z"/><path fill="#666" d="M193.924 110.67a133.348 133.348 0 0 1 75.118-23.17v133.348Z"/><path fill="#e69138" d="M288.916 352.708c-61.52 9.272-121.276-25.228-144.005-83.142-22.73-57.913-2.391-123.849 49.013-158.895l75.118 110.177Z"/><path fill="#1a1a1a" d="m28.422 97.39 1.922-6.421h1.968L29.328 99.5H27.5l-2.953-8.531H26.5l1.922 6.422Zm7.64 2.235q-1.39 0-2.265-.86-.875-.859-.875-2.28v-.172q0-.954.36-1.704.374-.75 1.046-1.156.688-.406 1.547-.406 1.313 0 2.047.828.75.813.75 2.313v.687H34.64q.078.625.484 1 .422.375 1.063.375.968 0 1.515-.703l.844.922q-.39.547-1.047.86-.64.296-1.438.296Zm-.187-5.219q-.5 0-.813.344-.312.344-.406.969h2.36v-.125q-.016-.563-.313-.875-.281-.313-.828-.313Zm6.844.344q-.344-.047-.61-.047-.968 0-1.265.64V99.5h-1.688v-6.344h1.594l.047.766q.516-.875 1.406-.875.281 0 .531.078l-.015 1.625Zm2.797 2.36 1.172-3.954H48.5l-2.547 7.328-.14.329q-.563 1.25-1.876 1.25-.359 0-.75-.11v-1.281h.266q.484 0 .719-.156.234-.141.375-.47l.187-.53-2.218-6.36h1.828l1.172 3.953Zm13.75-1.688q0 1.266-.453 2.219-.438.937-1.266 1.468-.828.516-1.89.516-1.063 0-1.907-.516-.828-.515-1.281-1.453-.453-.953-.469-2.187v-.422q0-1.25.453-2.203.453-.969 1.281-1.485.844-.515 1.907-.515 1.062 0 1.89.515.828.516 1.282 1.485.453.953.453 2.203v.375Zm-1.782-.375q0-1.344-.484-2.047-.469-.703-1.36-.703-.89 0-1.374.703-.47.688-.485 2.016v.406q0 1.312.485 2.031.484.719 1.39.719.875 0 1.344-.688.484-.703.484-2.03v-.407ZM60.61 99.5v-5.094h-.937v-1.25h.937v-.531q0-1.078.61-1.656.625-.594 1.718-.594.36 0 .86.125l-.016 1.313q-.203-.063-.515-.063-.953 0-.953.906v.5h1.265v1.25h-1.266V99.5H60.61Zm5.563-7.906v1.562h1.094v1.25h-1.094v3.156q0 .36.14.516.141.14.516.14.281 0 .5-.03v1.28q-.5.157-1.031.157-1.781 0-1.813-1.813v-3.406h-.921v-1.25h.921v-1.562h1.688Zm4.89 8.031q-1.39 0-2.265-.86-.875-.859-.875-2.28v-.172q0-.954.36-1.704.374-.75 1.046-1.156.688-.406 1.547-.406 1.313 0 2.047.828.75.813.75 2.313v.687H69.64q.078.625.484 1 .422.375 1.063.375.968 0 1.515-.703l.844.922q-.39.547-1.047.86-.64.296-1.438.296Zm-.187-5.219q-.5 0-.813.344-.312.344-.406.969h2.36v-.125q-.016-.563-.313-.875-.281-.313-.828-.313Zm4.828-1.25.063.735q.671-.844 1.812-.844 1.016 0 1.5.594.5.578.516 1.765V99.5H77.89v-4.063q0-.53-.235-.765-.234-.25-.781-.25-.703 0-1.063.61V99.5H74.11v-6.344h1.594Z"/><path fill="#9e9e9e" d="M29.047 114.094q-.672.64-1.547.64-1.14 0-1.828-.765-.672-.781-.672-2.094 0-.844.36-1.547.374-.703 1.03-1.094.657-.39 1.485-.39.844 0 1.5.422.656.421 1.016 1.218.359.797.375 1.813v.625q0 2.14-1.063 3.36-1.062 1.218-3.015 1.296h-.407v-1.406l.375-.016q2.203-.094 2.39-2.062Zm-1.14-.656q.421 0 .702-.204.297-.218.453-.515v-.688q0-.86-.328-1.328-.328-.484-.875-.484-.515 0-.843.469-.328.453-.328 1.156 0 .703.312 1.156.328.438.906.438Zm4.327 3.234q0-.406.266-.656.281-.25.688-.25.421 0 .687.25.281.25.281.656 0 .39-.281.64-.266.25-.688.25-.406 0-.687-.25-.266-.25-.266-.64Zm3.094-3.375.5-4.328h4.781v1.406h-3.39L37 112.219q.61-.328 1.281-.328 1.219 0 1.907.765.703.75.703 2.11 0 .828-.36 1.484-.343.64-1 1.016-.64.359-1.531.359-.766 0-1.438-.313-.656-.328-1.046-.89-.375-.563-.407-1.297h1.688q.047.531.36.828.327.297.843.297.578 0 .875-.406.313-.422.313-1.172 0-.734-.36-1.11-.344-.39-1-.39-.61 0-.984.312l-.157.157-1.359-.344Zm6.734-2.688q0-.78.5-1.265.516-.5 1.344-.5.828 0 1.344.484.516.484.516 1.313v.421q0 .782-.516 1.266t-1.328.484q-.844 0-1.36-.484-.5-.484-.5-1.297v-.422Zm1.126.454q0 .343.203.562.203.219.53.219.329 0 .517-.219.187-.219.187-.578v-.438q0-.359-.188-.562-.187-.219-.53-.219-.329 0-.532.219-.188.203-.188.578v.438Zm2.953 4.343q0-.797.515-1.265.516-.485 1.328-.485.828 0 1.344.485.516.468.516 1.296v.422q0 .797-.5 1.282-.5.484-1.344.484-.844 0-1.36-.484-.5-.5-.5-1.297v-.438Zm1.125.453q0 .329.203.563.218.219.531.219.719 0 .719-.782v-.453q0-.344-.203-.562-.203-.219-.532-.219-.328 0-.53.219-.188.219-.188.578v.437Zm-3.016 1-.828-.437 4.172-6.672.828.438-4.172 6.671Z"/><path stroke="#757575" stroke-linecap="butt" d="M24.5 104h105.193l102.009-4.204"/><path fill="#9e9e9e" d="M233.702 99.796a2 2 0 1 0-4 0 2 2 0 0 0 4 0"/><path fill="#1a1a1a" d="M32.266 258.552q0 1.266-.453 2.219-.438.937-1.266 1.469-.828.515-1.89.515-1.063 0-1.907-.515-.828-.516-1.281-1.454-.453-.953-.469-2.187v-.422q0-1.25.453-2.203.453-.969 1.281-1.484.844-.516 1.907-.516 1.062 0 1.89.516.828.515 1.282 1.484.453.953.453 2.203v.375Zm-1.782-.375q0-1.344-.484-2.047-.469-.703-1.36-.703-.89 0-1.374.703-.47.688-.485 2.016v.406q0 1.313.485 2.031.484.72 1.39.72.875 0 1.344-.688.484-.704.484-2.032v-.406Zm3.125 4.453v-5.094h-.937v-1.25h.937v-.53q0-1.079.61-1.657.625-.594 1.718-.594.36 0 .86.125l-.016 1.313q-.203-.063-.515-.063-.953 0-.953.906v.5h1.265v1.25h-1.266v5.094H33.61Zm5.563-7.906v1.562h1.094v1.25h-1.094v3.157q0 .36.14.515.141.141.516.141.281 0 .5-.031v1.281q-.5.156-1.031.156-1.781 0-1.813-1.812v-3.407h-.922v-1.25h.922v-1.562h1.688Zm4.89 8.031q-1.39 0-2.265-.86-.875-.859-.875-2.28v-.172q0-.953.36-1.703.374-.75 1.046-1.157.688-.406 1.547-.406 1.313 0 2.047.828.75.813.75 2.313v.687H42.64q.078.625.484 1 .422.375 1.063.375.968 0 1.515-.703l.844.922q-.39.547-1.047.86-.64.296-1.438.296Zm-.187-5.219q-.5 0-.813.344-.312.344-.406.969h2.36v-.125q-.016-.563-.313-.875-.281-.313-.828-.313Zm4.828-1.25.063.735q.672-.844 1.812-.844 1.016 0 1.5.594.5.578.516 1.765v4.094H50.89v-4.062q0-.532-.235-.766-.234-.25-.781-.25-.703 0-1.063.61v4.468H47.11v-6.344h1.594Z"/><path fill="#9e9e9e" d="M30.094 277.411h.968v1.375h-.968v1.844H28.39v-1.844h-3.485l-.078-1.062 3.547-5.625h1.719v5.312Zm-3.578 0h1.875v-3l-.11.188-1.765 2.812Zm11.406 3.22h-5.844v-1.157l2.766-2.953q.562-.61.828-1.078.281-.469.281-.875 0-.578-.297-.89-.281-.329-.812-.329-.578 0-.907.39-.328.391-.328 1.047h-1.703q0-.78.375-1.421.375-.657 1.047-1.016.688-.375 1.547-.375 1.313 0 2.047.64.734.626.734 1.782 0 .64-.328 1.297-.328.656-1.125 1.531l-1.937 2.047h3.656v1.36Zm1.312-.829q0-.406.266-.656.281-.25.688-.25.421 0 .687.25.281.25.281.656 0 .39-.281.64-.266.25-.688.25-.406 0-.687-.25-.266-.25-.266-.64Zm6.813-2.578q-.672.64-1.547.64-1.14 0-1.828-.765-.672-.781-.672-2.094 0-.844.36-1.547.374-.703 1.03-1.093.657-.391 1.485-.391.844 0 1.5.422t1.016 1.219q.359.796.375 1.812v.625q0 2.14-1.063 3.36-1.062 1.218-3.016 1.296h-.406v-1.406l.375-.016q2.203-.093 2.39-2.062Zm-1.14-.656q.421 0 .702-.203.297-.22.453-.516v-.688q0-.859-.328-1.328-.328-.484-.875-.484-.515 0-.843.469-.328.453-.328 1.156 0 .703.312 1.156.328.438.906.438Zm4.156-2.828q0-.782.5-1.266.515-.5 1.343-.5t1.344.484q.516.485.516 1.313v.422q0 .781-.516 1.265-.516.485-1.328.485-.844 0-1.36-.485-.5-.484-.5-1.297v-.421Zm1.124.453q0 .343.204.562.203.219.53.219.329 0 .517-.219.187-.219.187-.578v-.437q0-.36-.188-.563-.187-.219-.53-.219-.329 0-.532.22-.188.202-.188.577v.438Zm2.954 4.343q0-.796.515-1.265.516-.485 1.328-.485.828 0 1.344.485.516.469.516 1.297v.422q0 .796-.5 1.28-.5.485-1.344.485-.844 0-1.36-.484-.5-.5-.5-1.297v-.438Zm1.125.454q0 .328.203.562.218.219.531.219.719 0 .719-.781v-.454q0-.343-.203-.562-.203-.219-.532-.219-.328 0-.53.219-.188.219-.188.578v.438Zm-3.016 1-.828-.438 4.172-6.672.828.438-4.172 6.672Z"/><path stroke="#757575" stroke-linecap="butt" d="M24.5 267.13h126.618"/><path fill="#9e9e9e" d="M153.118 267.13a2 2 0 1 0-4 0 2 2 0 0 0 4 0"/><path fill="#1a1a1a" d="M443.286 102.213h-1.765l-3.422-5.61v5.61h-1.75v-8.531h1.75l3.437 5.625v-5.625h1.75v8.53Zm.688-3.235q0-.937.36-1.671.359-.75 1.046-1.141.688-.406 1.578-.406 1.297 0 2.094.78.813.782.906 2.126l.016.437q0 1.47-.813 2.36-.812.875-2.187.875-1.375 0-2.188-.875-.812-.89-.812-2.406v-.079Zm1.687.125q0 .907.344 1.391.344.469.969.469t.969-.469q.343-.469.343-1.516 0-.875-.343-1.359-.344-.5-.985-.5-.61 0-.953.484-.344.485-.344 1.5Zm7.594-4.796v1.562h1.094v1.25h-1.094v3.156q0 .36.14.516.141.14.516.14.282 0 .5-.03v1.28q-.5.157-1.03.157-1.782 0-1.813-1.813V97.12h-.922v-1.25h.922v-1.562h1.687Zm8.25 5.796 1.922-6.421h1.969l-2.985 8.53h-1.828l-2.953-8.53h1.953l1.922 6.421Zm7.64 2.235q-1.39 0-2.265-.86-.875-.859-.875-2.28v-.173q0-.953.36-1.703.375-.75 1.046-1.156.688-.406 1.547-.406 1.313 0 2.047.828.75.812.75 2.312v.688h-4.031q.078.625.484 1 .422.375 1.063.375.969 0 1.515-.703l.844.922q-.39.546-1.047.859-.64.297-1.437.297Zm-.187-5.219q-.5 0-.812.344-.313.344-.406.969h2.359v-.125q-.016-.563-.313-.875-.28-.313-.828-.313Zm6.844.344q-.344-.047-.61-.047-.968 0-1.265.64v4.157h-1.688v-6.344h1.594l.047.766q.516-.875 1.406-.875.282 0 .532.078l-.016 1.625Zm2.797 2.36 1.172-3.954h1.812l-2.547 7.328-.14.328q-.563 1.25-1.875 1.25-.36 0-.75-.11v-1.28h.265q.485 0 .72-.157.234-.14.374-.468l.188-.532-2.22-6.359h1.829l1.172 3.953Zm13.75-1.688q0 1.265-.453 2.218-.438.938-1.266 1.47-.828.515-1.89.515-1.063 0-1.907-.516-.828-.515-1.281-1.453-.453-.953-.469-2.187v-.422q0-1.25.453-2.203.454-.97 1.282-1.485.843-.515 1.906-.515 1.062 0 1.89.515.829.516 1.282 1.485.453.953.453 2.203v.375Zm-1.781-.375q0-1.344-.485-2.047-.469-.703-1.36-.703-.89 0-1.374.703-.469.687-.484 2.015v.407q0 1.312.484 2.03.484.72 1.39.72.876 0 1.344-.688.485-.703.485-2.031v-.406Zm3.125 4.453v-5.094h-.938v-1.25h.938v-.531q0-1.078.609-1.656.625-.594 1.719-.594.36 0 .86.125l-.016 1.312q-.204-.062-.516-.062-.953 0-.953.906v.5h1.265v1.25h-1.265v5.094h-1.703Zm5.562-7.906v1.562h1.094v1.25h-1.094v3.156q0 .36.14.516.141.14.516.14.282 0 .5-.03v1.28q-.5.157-1.03.157-1.782 0-1.813-1.813V97.12h-.922v-1.25h.922v-1.562h1.687Zm4.89 8.03q-1.39 0-2.265-.859-.875-.859-.875-2.28v-.173q0-.953.36-1.703.375-.75 1.046-1.156.688-.406 1.547-.406 1.313 0 2.047.828.75.812.75 2.312v.688h-4.031q.078.625.484 1 .422.375 1.063.375.969 0 1.515-.703l.844.922q-.39.546-1.047.859-.64.297-1.437.297Zm-.187-5.218q-.5 0-.812.344-.313.344-.406.969h2.359v-.125q-.016-.563-.313-.875-.28-.313-.828-.313Zm4.828-1.25.063.734q.672-.843 1.812-.843 1.016 0 1.5.593.5.579.516 1.766v4.094h-1.703V98.15q0-.531-.234-.765-.235-.25-.782-.25-.703 0-1.062.609v4.469h-1.703v-6.344h1.593Z"/><path fill="#9e9e9e" d="M485.27 120.213h-1.687v-6.531l-2.015.625v-1.375l3.53-1.266h.173v8.547Zm7.907-3.219h.969v1.375h-.969v1.844h-1.703v-1.844h-3.484l-.079-1.062 3.547-5.625h1.719v5.312Zm-3.578 0h1.875v-3l-.11.188-1.765 2.812Zm5.719 2.39q0-.406.265-.656.281-.25.688-.25.422 0 .687.25.281.25.281.657 0 .39-.28.64-.266.25-.688.25-.406 0-.688-.25-.265-.25-.265-.64Zm4.562-4.187h.906q.641 0 .954-.312.312-.328.312-.86 0-.515-.313-.797-.296-.296-.843-.296-.485 0-.813.265-.328.266-.328.688h-1.687q0-.657.359-1.188.36-.531 1-.828.656-.312 1.438-.312 1.343 0 2.109.656.781.64.781 1.781 0 .594-.36 1.094-.359.484-.937.734.719.266 1.063.781.36.516.36 1.22 0 1.14-.829 1.827-.828.688-2.188.688-1.28 0-2.093-.672-.813-.688-.813-1.797h1.688q0 .484.36.797.374.297.89.297.61 0 .953-.313.344-.328.344-.86 0-1.265-1.407-1.265h-.906v-1.328Zm5.266-1.875q0-.781.5-1.265.515-.5 1.344-.5.828 0 1.343.484.516.484.516 1.312v.422q0 .782-.516 1.266-.515.484-1.328.484-.844 0-1.36-.484-.5-.484-.5-1.297v-.422Zm1.125.453q0 .344.203.563.203.219.531.219t.516-.22q.187-.218.187-.577v-.438q0-.36-.187-.562-.188-.22-.531-.22-.329 0-.532.22-.187.203-.187.578v.437Zm2.953 4.344q0-.797.516-1.266.515-.484 1.328-.484.828 0 1.343.484.516.47.516 1.297v.422q0 .797-.5 1.281-.5.485-1.344.485-.844 0-1.36-.485-.5-.5-.5-1.296v-.438Zm1.125.453q0 .328.203.563.219.218.531.218.719 0 .719-.78v-.454q0-.344-.203-.562-.203-.22-.531-.22t-.532.22q-.187.218-.187.578v.437Zm-3.016 1-.828-.437 4.172-6.672.828.437-4.172 6.672Z"/><path stroke="#757575" stroke-linecap="butt" d="M513.583 106.713H324.006"/><path fill="#9e9e9e" d="M326.006 106.713a2 2 0 1 0-4 0 2 2 0 0 0 4 0"/><path fill="#1a1a1a" d="M459.77 260.396q0-.5-.359-.766-.343-.265-1.265-.562-.906-.297-1.438-.594-1.453-.781-1.453-2.11 0-.687.39-1.234.391-.547 1.11-.844.735-.312 1.64-.312.923 0 1.626.344.719.328 1.11.937.405.594.405 1.36h-1.765q0-.579-.375-.907-.36-.328-1.031-.328-.641 0-1 .281-.36.266-.36.704 0 .421.422.703.422.281 1.234.531 1.5.453 2.188 1.125.687.656.687 1.656 0 1.11-.843 1.75-.828.625-2.25.625-.985 0-1.797-.36-.813-.374-1.235-1-.421-.624-.421-1.452h1.765q0 1.422 1.688 1.422.625 0 .968-.25.36-.266.36-.72Zm2.204-1q0-.938.36-1.672.359-.75 1.046-1.14.688-.407 1.578-.407 1.297 0 2.094.781.813.782.906 2.125l.016.438q0 1.469-.813 2.36-.812.874-2.187.874-1.375 0-2.188-.875-.812-.89-.812-2.406v-.078Zm1.687.125q0 .906.344 1.39.344.47.969.47t.969-.47q.343-.468.343-1.515 0-.875-.343-1.36-.344-.5-.985-.5-.61 0-.953.485-.344.484-.344 1.5Zm7.157-3.235.062.72q.672-.829 1.813-.829 1.234 0 1.687.969.672-.969 1.906-.969 1.032 0 1.532.61.5.593.5 1.796v4.047h-1.688v-4.047q0-.53-.219-.78-.203-.25-.75-.25-.75 0-1.046.718v4.36h-1.688v-4.032q0-.563-.219-.797-.219-.25-.734-.25-.719 0-1.047.594v4.484h-1.688v-6.344h1.579Zm11.328 6.47q-1.39 0-2.266-.86-.875-.86-.875-2.281v-.172q0-.953.36-1.703.375-.75 1.046-1.157.688-.406 1.547-.406 1.313 0 2.047.828.75.813.75 2.313v.687h-4.031q.078.625.484 1 .422.375 1.063.375.969 0 1.515-.703l.844.922q-.39.547-1.047.86-.64.296-1.437.296Zm-.188-5.22q-.5 0-.812.344-.313.344-.406.969h2.359v-.125q-.016-.563-.313-.875-.28-.313-.828-.313Zm5.297-2.812v1.562h1.094v1.25h-1.094v3.157q0 .36.14.515.141.141.516.141.282 0 .5-.031v1.281q-.5.156-1.03.156-1.782 0-1.813-1.812v-3.407h-.922v-1.25h.922v-1.562h1.687Zm3.766 7.906h-1.703v-6.344h1.703v6.344Zm-1.797-7.984q0-.375.25-.625.266-.25.703-.25.422 0 .672.25.266.25.266.625 0 .39-.266.64-.25.235-.688.235-.421 0-.687-.235-.25-.25-.25-.64Zm4.594 1.64.062.72q.672-.829 1.813-.829 1.234 0 1.687.969.672-.969 1.906-.969 1.032 0 1.532.61.5.593.5 1.796v4.047h-1.688v-4.047q0-.53-.219-.78-.203-.25-.75-.25-.75 0-1.046.718v4.36h-1.688v-4.032q0-.563-.219-.797-.219-.25-.734-.25-.719 0-1.047.594v4.484h-1.688v-6.344h1.579Zm11.328 6.47q-1.39 0-2.266-.86-.875-.86-.875-2.281v-.172q0-.953.36-1.703.375-.75 1.046-1.157.688-.406 1.547-.406 1.313 0 2.047.828.75.813.75 2.313v.687h-4.031q.078.625.484 1 .422.375 1.063.375.969 0 1.515-.703l.844.922q-.39.547-1.047.86-.64.296-1.437.296Zm-.188-5.22q-.5 0-.812.344-.313.344-.406.969h2.359v-.125q-.016-.563-.313-.875-.28-.313-.828-.313Zm6.703 3.344q0-.312-.312-.484-.297-.188-.969-.328-2.265-.469-2.265-1.922 0-.844.687-1.406.703-.563 1.844-.563 1.203 0 1.922.563.734.562.734 1.484h-1.703q0-.375-.234-.61-.235-.234-.735-.234-.422 0-.656.203-.234.188-.234.485 0 .281.265.453.266.172.89.297.641.125 1.079.281 1.344.5 1.344 1.703 0 .875-.75 1.422-.735.531-1.922.531-.797 0-1.422-.281-.61-.297-.969-.781-.344-.5-.344-1.078h1.61q.015.453.328.703.312.234.828.234.5 0 .734-.187.25-.188.25-.485Z"/><path fill="#9e9e9e" d="M482.88 275.615h.906q.641 0 .954-.313.312-.328.312-.86 0-.515-.313-.796-.296-.297-.843-.297-.485 0-.813.266-.328.265-.328.687h-1.687q0-.656.359-1.187.36-.532 1-.829.656-.312 1.438-.312 1.343 0 2.109.656.781.64.781 1.781 0 .594-.36 1.094-.359.485-.937.735.719.265 1.063.78.36.516.36 1.22 0 1.14-.829 1.828-.828.687-2.188.687-1.28 0-2.093-.672-.813-.687-.813-1.797h1.688q0 .485.36.797.374.297.89.297.61 0 .953-.312.344-.328.344-.86 0-1.265-1.407-1.265h-.906v-1.328Zm7 0h.906q.641 0 .954-.313.312-.328.312-.86 0-.515-.313-.796-.296-.297-.843-.297-.485 0-.813.266-.328.265-.328.687h-1.687q0-.656.359-1.187.36-.532 1-.829.656-.312 1.438-.312 1.343 0 2.109.656.781.64.781 1.781 0 .594-.36 1.094-.359.485-.937.735.719.265 1.063.78.36.516.36 1.22 0 1.14-.829 1.828-.828.687-2.188.687-1.28 0-2.093-.672-.813-.687-.813-1.797h1.688q0 .485.36.797.374.297.89.297.61 0 .953-.312.344-.328.344-.86 0-1.265-1.407-1.265h-.906v-1.328Zm5.438 4.187q0-.406.265-.656.281-.25.688-.25.422 0 .687.25.281.25.281.656 0 .39-.28.64-.266.25-.688.25-.406 0-.688-.25-.265-.25-.265-.64Zm4.562-4.187h.906q.641 0 .954-.313.312-.328.312-.86 0-.515-.313-.796-.296-.297-.843-.297-.485 0-.813.266-.328.265-.328.687h-1.687q0-.656.359-1.187.36-.532 1-.829.656-.312 1.438-.312 1.343 0 2.109.656.781.64.781 1.781 0 .594-.36 1.094-.359.485-.937.735.719.265 1.063.78.36.516.36 1.22 0 1.14-.829 1.828-.828.687-2.188.687-1.28 0-2.093-.672-.813-.687-.813-1.797h1.688q0 .485.36.797.374.297.89.297.61 0 .953-.312.344-.328.344-.86 0-1.265-1.407-1.265h-.906v-1.328Zm5.266-1.875q0-.782.5-1.266.515-.5 1.344-.5.828 0 1.343.484.516.485.516 1.313v.422q0 .781-.516 1.265-.515.485-1.328.485-.844 0-1.36-.485-.5-.484-.5-1.297v-.421Zm1.125.453q0 .343.203.562.203.219.531.219t.516-.219q.187-.219.187-.578v-.437q0-.36-.187-.563-.188-.219-.531-.219-.329 0-.532.22-.187.202-.187.577v.438Zm2.953 4.343q0-.796.516-1.265.515-.485 1.328-.485.828 0 1.343.485.516.469.516 1.297v.422q0 .796-.5 1.28-.5.485-1.344.485-.844 0-1.36-.484-.5-.5-.5-1.297v-.438Zm1.125.454q0 .328.203.562.219.219.531.219.719 0 .719-.781v-.454q0-.343-.203-.562-.203-.219-.531-.219t-.532.219q-.187.219-.187.578v.438Zm-3.016 1-.828-.438 4.172-6.672.828.438-4.172 6.672Z"/><path stroke="#757575" stroke-linecap="butt" d="M513.583 267.13H386.966"/><path fill="#9e9e9e" d="M388.966 267.13a2 2 0 1 0-4 0 2 2 0 0 0 4 0"/><path fill="#757575" d="M28.732 33.85H26.39V22.475h2.343V33.85Zm2.969 0v-6.797h-1.25v-1.656h1.25v-.719q0-1.422.813-2.203.828-.797 2.296-.797.47 0 1.141.156l-.016 1.75q-.28-.062-.687-.062-1.281 0-1.281 1.187v.688h1.687v1.656h-1.687v6.797H31.7Zm12.031 0H41.39V22.475h2.343V33.85Zm4.438-8.453.062.969q.907-1.125 2.438-1.125 1.343 0 2 .796.656.782.672 2.344v5.469h-2.266v-5.406q0-.719-.313-1.047-.312-.328-1.03-.328-.954 0-1.438.812v5.969h-2.25v-8.453h2.125Zm6.562 4.156q0-1.969.89-3.14.892-1.172 2.423-1.172 1.234 0 2.047.921V21.85h2.265v12H60.31l-.109-.906q-.844 1.062-2.172 1.062-1.484 0-2.39-1.172-.907-1.187-.907-3.28Zm2.266.172q0 1.187.406 1.828.422.625 1.203.625 1.047 0 1.485-.89v-3.329q-.422-.89-1.47-.89-1.624 0-1.624 2.656Zm9.469 4.125H64.2v-8.453h2.266v8.453Zm-2.391-10.64q0-.516.328-.844.344-.329.938-.329.578 0 .922.329.343.328.343.843 0 .516-.36.844-.343.328-.921.328-.562 0-.906-.328t-.344-.844Zm3.688 6.343q0-1.937.921-3.125.922-1.187 2.5-1.187 1.391 0 2.157.953l.093-.797h2.047v8.172q0 1.11-.5 1.922-.5.828-1.422 1.25-.906.437-2.14.437-.922 0-1.813-.375-.875-.36-1.328-.953l1-1.375q.844.953 2.047.953.89 0 1.39-.484.5-.485.5-1.375v-.453q-.78.89-2.046.89-1.531 0-2.469-1.187-.937-1.203-.937-3.172v-.094Zm2.25.172q0 1.14.453 1.797.468.656 1.28.656 1.032 0 1.47-.781V27.85q-.453-.781-1.453-.781-.813 0-1.282.672-.468.656-.468 1.984Zm10.968 4.281q-1.86 0-3.031-1.14-1.172-1.141-1.172-3.047V29.6q0-1.266.485-2.266.5-1.015 1.406-1.547.906-.546 2.062-.546 1.735 0 2.719 1.093 1 1.094 1 3.094v.922h-5.375q.11.828.656 1.328.547.5 1.39.5 1.313 0 2.048-.937l1.11 1.234q-.516.719-1.391 1.125-.86.406-1.907.406Zm-.265-6.937q-.672 0-1.094.453-.406.453-.531 1.297h3.14v-.188q-.015-.75-.406-1.156-.39-.406-1.11-.406Zm7.453-1.672.062.969q.907-1.125 2.438-1.125 1.344 0 2 .796.656.782.672 2.344v5.469h-2.266v-5.406q0-.719-.312-1.047-.313-.328-1.032-.328-.953 0-1.437.812v5.969h-2.25v-8.453h2.125Zm6.562 4.14q0-1.25.485-2.234.484-.984 1.39-1.516.922-.546 2.125-.546 1.703 0 2.782 1.046 1.093 1.047 1.218 2.844l.016.578q0 1.938-1.094 3.125-1.078 1.172-2.906 1.172t-2.922-1.172q-1.094-1.172-1.094-3.187v-.11Zm2.266.172q0 1.203.453 1.844.453.625 1.297.625.812 0 1.266-.625.468-.625.468-2.016 0-1.171-.468-1.812-.454-.656-1.282-.656-.828 0-1.281.64-.453.641-.453 2Zm12.156 3.282q-.844 1.015-2.312 1.015-1.36 0-2.078-.781-.72-.781-.735-2.297v-5.531h2.266v5.453q0 1.328 1.203 1.328 1.14 0 1.578-.797v-5.984h2.266v8.453h-2.125l-.063-.86Zm8.516-1.485q0-.406-.422-.64-.406-.25-1.313-.438-3.015-.625-3.015-2.562 0-1.125.937-1.875.938-.75 2.438-.75 1.61 0 2.578.765.969.75.969 1.953h-2.266q0-.484-.312-.797-.313-.312-.97-.312-.577 0-.89.266-.312.25-.312.64 0 .375.359.61.36.234 1.203.406.844.156 1.422.375 1.781.656 1.781 2.265 0 1.157-1 1.876-.984.718-2.547.718-1.062 0-1.89-.375-.828-.39-1.297-1.047-.469-.656-.469-1.422h2.14q.032.594.438.922.422.313 1.125.313.64 0 .969-.234.344-.25.344-.657Zm12.312 2.344q-.156-.313-.219-.766-.828.922-2.14.922-1.234 0-2.063-.718-.812-.72-.812-1.813 0-1.344 1-2.063 1-.718 2.875-.734h1.047v-.484q0-.578-.313-.922-.297-.36-.937-.36-.578 0-.906.282-.313.265-.313.734h-2.266q0-.734.454-1.36.453-.624 1.28-.968.829-.36 1.86-.36 1.563 0 2.484.782.922.781.922 2.203v3.672q0 1.203.328 1.812v.141h-2.28Zm-1.86-1.578q.5 0 .923-.219.422-.219.625-.594v-1.453h-.844q-1.703 0-1.812 1.172v.125q0 .422.296.703.297.266.813.266Zm10.72-4.766q-.47-.062-.813-.062-1.281 0-1.687.875v5.531h-2.25v-8.453h2.125l.062 1q.688-1.156 1.89-1.156.376 0 .704.093l-.031 2.172Zm3.953-4.187v2.078h1.437v1.656h-1.437v4.219q0 .469.172.672.187.203.687.203.375 0 .672-.063v1.72q-.672.202-1.375.202-2.375 0-2.422-2.406v-4.547h-1.234v-1.656h1.234v-2.078h2.266Zm9.64 7.453 1.11-5.375h2.187l-2.156 8.453h-1.89l-1.61-5.328-1.594 5.328h-1.89l-2.157-8.453h2.188l1.094 5.375 1.546-5.375h1.641l1.531 5.375Zm4.297-1.235q0-1.25.485-2.234.484-.984 1.39-1.516.922-.546 2.125-.546 1.703 0 2.781 1.046 1.094 1.047 1.22 2.844l.015.578q0 1.938-1.094 3.125-1.078 1.172-2.906 1.172t-2.922-1.172q-1.094-1.172-1.094-3.187v-.11Zm2.266.172q0 1.203.453 1.844.453.625 1.297.625.812 0 1.266-.625.468-.625.468-2.016 0-1.171-.469-1.812-.453-.656-1.28-.656-.829 0-1.282.64-.453.641-.453 2Zm11.844-2.203q-.47-.062-.813-.062-1.281 0-1.687.875v5.531h-2.25v-8.453h2.125l.062 1q.688-1.156 1.89-1.156.376 0 .704.093l-.031 2.172Zm4.312 2.953-.812.813v2.578h-2.25v-12h2.25v6.64l.437-.562 2.172-2.531h2.703l-3.047 3.515 3.313 4.938h-2.594l-2.172-3.39Zm10.516 1.047q0-.406-.422-.64-.406-.25-1.313-.438-3.015-.625-3.015-2.562 0-1.125.937-1.875.938-.75 2.438-.75 1.61 0 2.578.765.969.75.969 1.953h-2.266q0-.484-.313-.797-.312-.312-.968-.312-.578 0-.89.266-.313.25-.313.64 0 .375.359.61.36.234 1.203.406.844.156 1.422.375 1.781.656 1.781 2.265 0 1.157-1 1.876-.984.718-2.547.718-1.062 0-1.89-.375-.828-.39-1.297-1.047-.469-.656-.469-1.422h2.14q.032.594.438.922.422.313 1.125.313.64 0 .969-.234.344-.25.344-.657Zm14.765-.734 1.11-5.375h2.187l-2.156 8.453h-1.89l-1.61-5.328-1.594 5.328h-1.89l-2.157-8.453h2.188l1.094 5.375 1.546-5.375h1.641l1.531 5.375Zm8.547 3.234q-1.86 0-3.031-1.14-1.172-1.141-1.172-3.047V29.6q0-1.266.484-2.266.5-1.015 1.407-1.547.906-.546 2.062-.546 1.735 0 2.719 1.093 1 1.094 1 3.094v.922h-5.375q.11.828.656 1.328.547.5 1.39.5 1.313 0 2.048-.937l1.11 1.234q-.517.719-1.392 1.125-.859.406-1.906.406Zm-.265-6.937q-.672 0-1.094.453-.406.453-.531 1.297h3.14v-.188q-.015-.75-.406-1.156-.39-.406-1.11-.406Zm10.125.437q-.47-.062-.813-.062-1.281 0-1.687.875v5.531h-2.25v-8.453h2.125l.062 1q.688-1.156 1.89-1.156.376 0 .704.093l-.031 2.172Zm5.14 6.5q-1.86 0-3.031-1.14-1.172-1.141-1.172-3.047V29.6q0-1.266.484-2.266.5-1.015 1.407-1.547.906-.546 2.062-.546 1.735 0 2.719 1.093 1 1.094 1 3.094v.922h-5.375q.11.828.656 1.328.547.5 1.39.5 1.313 0 2.048-.937l1.11 1.234q-.517.719-1.392 1.125-.859.406-1.906.406Zm-.265-6.937q-.672 0-1.094.453-.406.453-.531 1.297h3.14v-.188q-.015-.75-.406-1.156-.39-.406-1.11-.406Zm11.484-1.672.078.937q.89-1.093 2.422-1.093 1.64 0 2.25 1.28.89-1.28 2.531-1.28 1.375 0 2.047.796.672.797.672 2.407v5.406h-2.266v-5.39q0-.72-.28-1.048-.282-.343-.985-.343-1.016 0-1.406.968v5.813h-2.25v-5.39q0-.735-.297-1.063-.282-.328-.985-.328-.953 0-1.39.797v5.984h-2.25v-8.453h2.109Zm11.531 4.14q0-1.25.485-2.234.484-.984 1.39-1.516.922-.546 2.125-.546 1.703 0 2.781 1.046 1.094 1.047 1.22 2.844l.015.578q0 1.938-1.094 3.125-1.078 1.172-2.906 1.172t-2.922-1.172q-1.094-1.172-1.094-3.187v-.11Zm2.266.172q0 1.203.453 1.844.453.625 1.297.625.812 0 1.266-.625.468-.625.468-2.016 0-1.171-.469-1.812-.453-.656-1.28-.656-.829 0-1.282.64-.453.641-.453 2Zm11.844-2.203q-.47-.062-.813-.062-1.281 0-1.687.875v5.531h-2.25v-8.453h2.125l.062 1q.688-1.156 1.89-1.156.376 0 .704.093l-.031 2.172Zm5.14 6.5q-1.86 0-3.031-1.14-1.172-1.141-1.172-3.047V29.6q0-1.266.485-2.266.5-1.015 1.406-1.547.906-.546 2.062-.546 1.735 0 2.719 1.093 1 1.094 1 3.094v.922h-5.375q.11.828.656 1.328.547.5 1.39.5 1.313 0 2.048-.937l1.11 1.234q-.516.719-1.391 1.125-.86.406-1.907.406Zm-.265-6.937q-.672 0-1.094.453-.406.453-.531 1.297h3.14v-.188q-.015-.75-.406-1.156-.39-.406-1.11-.406Zm14.265 6.781q-.156-.313-.219-.766-.828.922-2.14.922-1.234 0-2.063-.718-.812-.72-.812-1.813 0-1.344 1-2.063 1-.718 2.875-.734h1.047v-.484q0-.578-.313-.922-.297-.36-.937-.36-.578 0-.906.282-.313.265-.313.734h-2.266q0-.734.454-1.36.453-.624 1.28-.968.829-.36 1.86-.36 1.563 0 2.485.782.921.781.921 2.203v3.672q0 1.203.329 1.812v.141h-2.282Zm-1.86-1.578q.5 0 .923-.219.422-.219.625-.594v-1.453h-.844q-1.703 0-1.813 1.172v.125q0 .422.297.703.297.266.813.266Zm9.485-.094q.625 0 1.016-.344.39-.343.406-.906h2.11q0 .86-.47 1.578-.452.703-1.265 1.11-.797.39-1.765.39-1.813 0-2.86-1.156t-1.047-3.188v-.14q0-1.953 1.031-3.11 1.047-1.171 2.86-1.171 1.594 0 2.547.906.953.89.969 2.39h-2.11q-.015-.656-.406-1.062-.39-.406-1.031-.406-.797 0-1.203.578-.391.562-.391 1.86v.234q0 1.296.39 1.875.407.562 1.22.562Zm8 0q.625 0 1.016-.344.39-.343.406-.906h2.11q0 .86-.47 1.578-.452.703-1.265 1.11-.797.39-1.765.39-1.813 0-2.86-1.156t-1.047-3.188v-.14q0-1.953 1.031-3.11 1.047-1.171 2.86-1.171 1.594 0 2.547.906.953.89.969 2.39h-2.11q-.015-.656-.406-1.062-.39-.406-1.031-.406-.797 0-1.203.578-.391.562-.391 1.86v.234q0 1.296.39 1.875.407.562 1.22.562Zm8.375 1.828q-1.86 0-3.031-1.14-1.172-1.141-1.172-3.047V29.6q0-1.266.485-2.266.5-1.015 1.406-1.547.906-.546 2.062-.546 1.735 0 2.719 1.093 1 1.094 1 3.094v.922h-5.375q.11.828.656 1.328.547.5 1.39.5 1.313 0 2.048-.937l1.11 1.234q-.516.719-1.391 1.125-.86.406-1.907.406Zm-.265-6.937q-.672 0-1.094.453-.406.453-.531 1.297h3.14v-.188q-.015-.75-.406-1.156-.39-.406-1.11-.406Zm9.953 4.437q0-.406-.422-.64-.406-.25-1.313-.438-3.015-.625-3.015-2.562 0-1.125.937-1.875.938-.75 2.438-.75 1.61 0 2.578.765.969.75.969 1.953h-2.266q0-.484-.313-.797-.312-.312-.968-.312-.578 0-.89.266-.313.25-.313.64 0 .375.359.61.36.234 1.203.406.844.156 1.422.375 1.781.656 1.781 2.265 0 1.157-1 1.876-.984.718-2.547.718-1.062 0-1.89-.375-.828-.39-1.297-1.047-.469-.656-.469-1.422h2.14q.032.594.438.922.422.313 1.125.313.64 0 .969-.234.344-.25.344-.657Zm8 0q0-.406-.422-.64-.406-.25-1.313-.438-3.015-.625-3.015-2.562 0-1.125.937-1.875.938-.75 2.438-.75 1.61 0 2.578.765.969.75.969 1.953h-2.266q0-.484-.313-.797-.312-.312-.968-.312-.578 0-.89.266-.313.25-.313.64 0 .375.359.61.36.234 1.203.406.844.156 1.422.375 1.781.656 1.781 2.265 0 1.157-1 1.876-.984.718-2.547.718-1.062 0-1.89-.375-.828-.39-1.297-1.047-.469-.656-.469-1.422h2.14q.032.594.438.922.422.313 1.125.313.64 0 .969-.234.344-.25.344-.657Zm5.797 2.344H325.2v-8.453h2.266v8.453Zm-2.391-10.64q0-.516.328-.844.344-.329.938-.329.578 0 .922.329.343.328.343.843 0 .516-.36.844-.343.328-.921.328-.563 0-.906-.328-.344-.328-.344-.844Zm11.625 6.484q0 2.031-.875 3.172-.86 1.14-2.406 1.14-1.375 0-2.203-1.062l-.094.906h-2.031v-12h2.25v4.297q.78-.906 2.062-.906 1.547 0 2.422 1.14.875 1.125.875 3.188v.125Zm-2.25-.157q0-1.28-.406-1.875-.406-.593-1.219-.593-1.078 0-1.484.89v3.328q.422.891 1.5.891 1.093 0 1.437-1.078.172-.516.172-1.563Zm6.016 4.313H338.2v-12h2.266v12Zm5.515.156q-1.86 0-3.031-1.14-1.172-1.141-1.172-3.047V29.6q0-1.266.485-2.266.5-1.015 1.406-1.547.906-.546 2.062-.546 1.735 0 2.719 1.093 1 1.094 1 3.094v.922h-5.375q.11.828.656 1.328.547.5 1.39.5 1.313 0 2.048-.937l1.11 1.234q-.516.719-1.391 1.125-.86.406-1.907.406Zm-.265-6.937q-.672 0-1.094.453-.406.453-.531 1.297h3.14v-.188q-.015-.75-.406-1.156-.39-.406-1.11-.406Zm5.953 9.64-1.172-.625.281-.5q.516-.953.531-1.906v-1.75h1.907v1.563q-.016.875-.453 1.75-.422.89-1.094 1.468Zm9.625-10.39q.89-1.078 2.25-1.078 2.75 0 2.797 3.187v5.422h-2.266v-5.36q0-.718-.313-1.062-.312-.36-1.03-.36-1 0-1.438.766v6.016h-2.266v-12h2.266v4.469Zm6.437 3.218q0-1.25.485-2.234.484-.984 1.39-1.516.922-.546 2.125-.546 1.703 0 2.781 1.046 1.094 1.047 1.22 2.844l.015.578q0 1.938-1.094 3.125-1.078 1.172-2.906 1.172t-2.922-1.172q-1.094-1.172-1.094-3.187v-.11Zm2.266.172q0 1.203.453 1.844.453.625 1.297.625.812 0 1.266-.625.468-.625.468-2.016 0-1.171-.469-1.812-.453-.656-1.28-.656-.829 0-1.282.64-.453.641-.453 2Zm14.437 1.063 1.11-5.375h2.187l-2.156 8.453h-1.89l-1.61-5.328-1.594 5.328h-1.89l-2.157-8.453h2.188l1.094 5.375 1.547-5.375h1.64l1.531 5.375Zm8.297-1.235q0-1.25.485-2.234.484-.984 1.39-1.516.922-.546 2.125-.546 1.703 0 2.781 1.046 1.094 1.047 1.22 2.844l.015.578q0 1.938-1.094 3.125-1.078 1.172-2.906 1.172t-2.922-1.172q-1.094-1.172-1.094-3.187v-.11Zm2.266.172q0 1.203.453 1.844.453.625 1.297.625.812 0 1.266-.625.468-.625.468-2.016 0-1.171-.469-1.812-.453-.656-1.28-.656-.829 0-1.282.64-.453.641-.453 2Zm7.703 4.141v-6.797h-1.25v-1.656h1.25v-.719q0-1.422.813-2.203.828-.797 2.296-.797.47 0 1.141.156l-.016 1.75q-.28-.062-.687-.062-1.281 0-1.281 1.187v.688h1.687v1.656h-1.687v6.797H402.7Zm8.094-10.531v2.078h1.437v1.656h-1.437v4.219q0 .469.172.672.187.203.687.203.375 0 .672-.063v1.72q-.672.202-1.375.202-2.375 0-2.422-2.406v-4.547h-1.234v-1.656h1.234v-2.078h2.266Zm6.187 10.687q-1.86 0-3.031-1.14-1.172-1.141-1.172-3.047V29.6q0-1.266.485-2.266.5-1.015 1.406-1.547.906-.546 2.062-.546 1.735 0 2.719 1.093 1 1.094 1 3.094v.922h-5.375q.11.828.656 1.328.547.5 1.39.5 1.313 0 2.048-.937l1.11 1.234q-.516.719-1.391 1.125-.86.406-1.907.406Zm-.265-6.937q-.672 0-1.094.453-.406.453-.531 1.297h3.14v-.188q-.015-.75-.406-1.156-.39-.406-1.11-.406Zm7.453-1.672.062.969q.906-1.125 2.438-1.125 1.344 0 2 .796.656.782.672 2.344v5.469h-2.266v-5.406q0-.719-.313-1.047-.312-.328-1.03-.328-.954 0-1.438.812v5.969h-2.25v-8.453h2.125Zm18.265 5.375 1.11-5.375h2.187l-2.156 8.453h-1.89l-1.61-5.328-1.594 5.328h-1.89l-2.157-8.453h2.188l1.094 5.375 1.547-5.375h1.64l1.531 5.375Zm4.297-1.235q0-1.25.485-2.234.484-.984 1.39-1.516.922-.546 2.125-.546 1.703 0 2.781 1.046 1.094 1.047 1.22 2.844l.015.578q0 1.938-1.094 3.125-1.078 1.172-2.906 1.172t-2.922-1.172q-1.094-1.172-1.094-3.187v-.11Zm2.266.172q0 1.203.453 1.844.453.625 1.297.625.812 0 1.266-.625.468-.625.468-2.016 0-1.171-.469-1.812-.453-.656-1.28-.656-.829 0-1.282.64-.453.641-.453 2Zm12.156 3.282q-.844 1.015-2.312 1.015-1.36 0-2.078-.781-.72-.781-.735-2.297v-5.531h2.266v5.453q0 1.328 1.203 1.328 1.14 0 1.578-.797v-5.984h2.266v8.453h-2.125l-.063-.86Zm6.313.859H465.2v-12h2.266v12Zm1.265-4.297q0-1.969.89-3.14.892-1.172 2.423-1.172 1.234 0 2.047.921V21.85h2.265v12h-2.047l-.109-.906q-.844 1.062-2.172 1.062-1.484 0-2.39-1.172-.907-1.187-.907-3.28Zm2.266.172q0 1.187.406 1.828.422.625 1.203.625 1.047 0 1.485-.89v-3.329q-.422-.89-1.47-.89-1.624 0-1.624 2.656Zm14.25.922 1.562-5.25h2.422l-3.406 9.766-.188.453q-.75 1.656-2.5 1.656-.484 0-1-.156v-1.703h.344q.64 0 .953-.204.329-.187.5-.64l.266-.688-2.953-8.484h2.422l1.578 5.25Zm4.484-1.11q0-1.25.485-2.234.484-.984 1.39-1.516.922-.546 2.125-.546 1.703 0 2.781 1.046 1.094 1.047 1.22 2.844l.015.578q0 1.938-1.094 3.125-1.078 1.172-2.906 1.172t-2.922-1.172q-1.094-1.172-1.094-3.187v-.11Zm2.266.172q0 1.203.453 1.844.453.625 1.297.625.812 0 1.266-.625.468-.625.468-2.016 0-1.171-.469-1.812-.453-.656-1.28-.656-.829 0-1.282.64-.453.641-.453 2Zm12.156 3.282q-.844 1.015-2.312 1.015-1.36 0-2.078-.781-.72-.781-.735-2.297v-5.531h2.266v5.453q0 1.328 1.203 1.328 1.14 0 1.578-.797v-5.984h2.266v8.453h-2.125l-.063-.86ZM84.17 50.506q0-.406-.422-.64-.406-.25-1.313-.438-3.015-.625-3.015-2.562 0-1.125.937-1.875.938-.75 2.438-.75 1.61 0 2.578.765.969.75.969 1.953h-2.266q0-.484-.313-.797-.312-.312-.968-.312-.578 0-.89.266-.313.25-.313.64 0 .375.359.61.36.234 1.203.406.844.156 1.422.375 1.781.656 1.781 2.266 0 1.156-1 1.875-.984.718-2.547.718-1.062 0-1.89-.375-.828-.39-1.297-1.047-.469-.656-.469-1.422h2.14q.032.594.438.922.422.313 1.125.313.64 0 .969-.234.344-.25.344-.657Zm7.312 2.5q-1.86 0-3.031-1.14-1.172-1.141-1.172-3.047V48.6q0-1.266.484-2.266.5-1.015 1.407-1.547.906-.546 2.062-.546 1.735 0 2.719 1.093 1 1.094 1 3.094v.922h-5.375q.11.828.656 1.328.547.5 1.39.5 1.313 0 2.048-.937l1.11 1.234q-.517.719-1.392 1.125-.859.406-1.906.406Zm-.265-6.937q-.672 0-1.094.453-.406.453-.531 1.297h3.14v-.188q-.015-.75-.406-1.156-.39-.406-1.11-.406Zm9.265 6.937q-1.86 0-3.031-1.14-1.172-1.141-1.172-3.047V48.6q0-1.266.484-2.266.5-1.015 1.407-1.547.906-.546 2.062-.546 1.735 0 2.719 1.093 1 1.094 1 3.094v.922h-5.375q.11.828.656 1.328.547.5 1.39.5 1.313 0 2.048-.937l1.11 1.234q-.517.719-1.392 1.125-.859.406-1.906.406Zm-.265-6.937q-.672 0-1.094.453-.406.453-.531 1.297h3.14v-.188q-.015-.75-.406-1.156-.39-.406-1.11-.406Zm12.53 3.578 1.563-5.25h2.422l-3.406 9.766-.188.453q-.75 1.656-2.5 1.656-.484 0-1-.156v-1.703h.344q.64 0 .953-.204.328-.187.5-.64l.266-.688-2.953-8.484h2.422l1.578 5.25Zm4.485-1.11q0-1.25.485-2.234.484-.984 1.39-1.515.922-.547 2.125-.547 1.703 0 2.781 1.047 1.094 1.046 1.22 2.843l.015.578q0 1.938-1.094 3.125-1.078 1.172-2.906 1.172t-2.922-1.172q-1.094-1.172-1.094-3.187v-.11Zm2.266.172q0 1.203.453 1.844.453.625 1.297.625.812 0 1.265-.625.47-.625.47-2.015 0-1.172-.47-1.813-.453-.656-1.28-.656-.829 0-1.282.64-.453.641-.453 2Zm12.156 3.282q-.844 1.015-2.312 1.015-1.36 0-2.079-.781-.718-.781-.734-2.297v-5.531h2.266v5.453q0 1.328 1.203 1.328 1.14 0 1.578-.797v-5.984h2.266v8.453h-2.125l-.063-.86Zm8.688-5.485q-.47-.062-.813-.062-1.281 0-1.687.875v5.531h-2.25v-8.453h2.125l.062 1q.688-1.156 1.89-1.156.376 0 .704.093l-.031 2.172Zm5.828 4q0-.406-.422-.64-.406-.25-1.313-.438-3.015-.625-3.015-2.562 0-1.125.937-1.875.938-.75 2.438-.75 1.61 0 2.578.765.969.75.969 1.953h-2.266q0-.484-.313-.797-.312-.312-.968-.312-.578 0-.89.266-.313.25-.313.64 0 .375.359.61.36.234 1.203.406.844.156 1.422.375 1.781.656 1.781 2.266 0 1.156-1 1.875-.984.718-2.547.718-1.062 0-1.89-.375-.828-.39-1.297-1.047-.469-.656-.469-1.422h2.14q.032.594.438.922.422.313 1.125.313.64 0 .969-.234.344-.25.344-.657Zm7.312 2.5q-1.86 0-3.031-1.14-1.172-1.141-1.172-3.047V48.6q0-1.266.484-2.266.5-1.015 1.407-1.547.906-.546 2.062-.546 1.735 0 2.719 1.093 1 1.094 1 3.094v.922h-5.375q.11.828.656 1.328.547.5 1.39.5 1.313 0 2.048-.937l1.11 1.234q-.517.719-1.392 1.125-.859.406-1.906.406Zm-.265-6.937q-.672 0-1.094.453-.406.453-.531 1.297h3.14v-.188q-.015-.75-.406-1.156-.39-.406-1.11-.406Zm7.75 6.781H158.7v-12h2.266v12Zm2.234 0v-6.797h-1.25v-1.656h1.25v-.719q0-1.422.812-2.203.829-.797 2.297-.797.47 0 1.141.156l-.016 1.75q-.28-.062-.687-.062-1.281 0-1.281 1.187v.688h1.687v1.656h-1.687v6.797H163.2Zm11.766 0H172.7v-8.453h2.266v8.453Zm-2.391-10.64q0-.516.328-.844.344-.328.938-.328.578 0 .921.328.344.328.344.843 0 .516-.36.844-.343.328-.921.328-.563 0-.906-.328-.344-.328-.344-.844Zm6.094 2.187.062.969q.906-1.125 2.438-1.125 1.343 0 2 .797.656.78.672 2.343v5.469h-2.266v-5.406q0-.719-.313-1.047-.312-.328-1.03-.328-.954 0-1.438.812v5.969h-2.25v-8.453h2.125Zm9.625-2.078v2.078h1.437v1.656h-1.437v4.219q0 .469.172.672.187.203.687.203.375 0 .672-.063v1.72q-.672.202-1.375.202-2.375 0-2.422-2.406v-4.547h-1.234v-1.656h1.234v-2.078h2.266Zm6.187 10.687q-1.86 0-3.031-1.14-1.172-1.141-1.172-3.047V48.6q0-1.266.484-2.266.5-1.015 1.407-1.547.906-.546 2.062-.546 1.735 0 2.719 1.093 1 1.094 1 3.094v.922h-5.375q.11.828.656 1.328.547.5 1.39.5 1.313 0 2.048-.937l1.11 1.234q-.517.719-1.392 1.125-.859.406-1.906.406Zm-.265-6.937q-.672 0-1.094.453-.406.453-.531 1.297h3.14v-.188q-.015-.75-.406-1.156-.39-.406-1.11-.406Zm10.125.437q-.47-.062-.813-.062-1.281 0-1.687.875v5.531h-2.25v-8.453h2.125l.062 1q.688-1.156 1.89-1.156.376 0 .704.093l-.031 2.172Zm6.14 6.344q-.156-.313-.219-.766-.828.922-2.14.922-1.235 0-2.063-.718-.812-.72-.812-1.813 0-1.344 1-2.063 1-.718 2.875-.734h1.047v-.484q0-.578-.313-.922-.297-.36-.937-.36-.578 0-.907.282-.312.265-.312.734h-2.266q0-.734.453-1.36.454-.624 1.282-.968.828-.36 1.86-.36 1.562 0 2.483.782.922.781.922 2.203v3.672q0 1.203.328 1.812v.141h-2.28Zm-1.86-1.578q.5 0 .923-.219.422-.219.625-.594v-1.453h-.844q-1.703 0-1.813 1.172v.125q0 .422.297.703.297.266.813.266Zm9.485-.094q.625 0 1.016-.344.39-.343.406-.906h2.11q0 .86-.47 1.578-.452.703-1.265 1.11-.797.39-1.766.39-1.812 0-2.859-1.156t-1.047-3.188v-.14q0-1.953 1.031-3.11 1.047-1.171 2.86-1.171 1.594 0 2.547.906.953.89.968 2.39h-2.109q-.016-.656-.406-1.062t-1.031-.406q-.797 0-1.204.578-.39.562-.39 1.86v.234q0 1.297.39 1.875.407.562 1.22.562Zm7.188-8.86v2.079h1.437v1.656h-1.437v4.219q0 .469.172.672.187.203.687.203.375 0 .672-.063v1.72q-.672.202-1.375.202-2.375 0-2.422-2.406v-4.547h-1.234v-1.656h1.234v-2.078h2.266Zm4.672 10.532H227.7v-8.453h2.266v8.453Zm-2.391-10.64q0-.516.328-.844.344-.328.938-.328.578 0 .921.328.344.328.344.843 0 .516-.36.844-.343.328-.921.328-.563 0-.906-.328-.344-.328-.344-.844Zm6.094 2.187.062.969q.906-1.125 2.438-1.125 1.343 0 2 .797.656.78.672 2.343v5.469h-2.266v-5.406q0-.719-.313-1.047-.312-.328-1.03-.328-.954 0-1.438.812v5.969h-2.25v-8.453h2.125Zm6.593 4.156q0-1.937.922-3.125.922-1.187 2.5-1.187 1.391 0 2.157.953l.093-.797h2.047v8.172q0 1.11-.5 1.922-.5.828-1.422 1.25-.906.437-2.14.437-.922 0-1.813-.375-.875-.36-1.328-.953l1-1.375q.844.953 2.047.953.89 0 1.39-.484.5-.485.5-1.375v-.453q-.78.89-2.046.89-1.532 0-2.469-1.187-.938-1.203-.938-3.172v-.094Zm2.25.172q0 1.14.454 1.797.468.656 1.28.656 1.032 0 1.47-.781V46.85q-.454-.781-1.454-.781-.812 0-1.28.672-.47.656-.47 1.984Zm18.422 1.047 1.11-5.375h2.187l-2.156 8.453h-1.89l-1.61-5.328-1.594 5.328h-1.89l-2.157-8.453h2.188l1.094 5.375 1.547-5.375h1.64l1.531 5.375Zm7.032 3.078H265.7v-8.453h2.266v8.453Zm-2.391-10.64q0-.516.328-.844.344-.328.938-.328.578 0 .922.328.343.328.343.843 0 .516-.36.844-.343.328-.921.328-.563 0-.906-.328-.344-.328-.344-.844Zm6.719.109v2.078h1.437v1.656h-1.437v4.219q0 .469.172.672.187.203.687.203.375 0 .672-.063v1.72q-.672.202-1.375.202-2.375 0-2.422-2.406v-4.547h-1.234v-1.656h1.234v-2.078h2.266Zm4.5 3q.89-1.078 2.25-1.078 2.75 0 2.797 3.187v5.422h-2.266v-5.36q0-.718-.313-1.062-.312-.36-1.03-.36-1 0-1.438.766v6.016h-2.266v-12h2.266v4.469Zm17.781 2.875h-4.5v4.656h-2.344V41.475h7.406v1.89h-5.062v2.938h4.5v1.89Zm4.39 4.656h-2.265v-8.453h2.266v8.453Zm-2.39-10.64q0-.516.328-.844.344-.328.938-.328.578 0 .922.328.343.328.343.843 0 .516-.36.844-.343.328-.921.328-.563 0-.906-.328-.344-.328-.344-.844Zm8.766 4.296q-.47-.062-.813-.062-1.281 0-1.687.875v5.531h-2.25v-8.453h2.125l.062 1q.688-1.156 1.89-1.156.376 0 .704.093l-.031 2.172Zm5.828 4q0-.406-.422-.64-.406-.25-1.313-.438-3.015-.625-3.015-2.562 0-1.125.937-1.875.938-.75 2.438-.75 1.61 0 2.578.765.969.75.969 1.953h-2.266q0-.484-.313-.797-.312-.312-.968-.312-.578 0-.89.266-.313.25-.313.64 0 .375.359.61.36.234 1.203.406.844.156 1.422.375 1.781.656 1.781 2.266 0 1.156-1 1.875-.984.718-2.547.718-1.062 0-1.89-.375-.828-.39-1.297-1.047-.469-.656-.469-1.422h2.14q.032.594.438.922.422.313 1.125.313.64 0 .969-.234.344-.25.344-.657Zm6.125-8.187v2.078h1.437v1.656h-1.437v4.219q0 .469.172.672.187.203.687.203.375 0 .672-.063v1.72q-.672.202-1.375.202-2.375 0-2.422-2.406v-4.547h-1.234v-1.656h1.234v-2.078h2.266Zm15.687 10.531h-2.344l-4.562-7.484v7.484h-2.344V41.475h2.344l4.578 7.5v-7.5h2.328V52.85Zm6.5 0q-.156-.313-.219-.766-.828.922-2.14.922-1.234 0-2.063-.718-.812-.72-.812-1.813 0-1.344 1-2.063 1-.718 2.875-.734h1.047v-.484q0-.578-.313-.922-.297-.36-.937-.36-.578 0-.906.282-.313.265-.313.734h-2.266q0-.734.454-1.36.453-.624 1.28-.968.829-.36 1.86-.36 1.563 0 2.485.782.921.781.921 2.203v3.672q0 1.203.329 1.812v.141h-2.282Zm-1.86-1.578q.5 0 .923-.219.422-.219.625-.594v-1.453h-.844q-1.703 0-1.813 1.172v.125q0 .422.297.703.297.266.813.266Zm8.673-8.953v2.078h1.437v1.656h-1.437v4.219q0 .469.172.672.187.203.687.203.375 0 .672-.063v1.72q-.672.202-1.375.202-2.375 0-2.422-2.406v-4.547h-1.234v-1.656h1.234v-2.078h2.266Zm4.672 10.531H348.7v-8.453h2.266v8.453Zm-2.391-10.64q0-.516.328-.844.344-.328.938-.328.578 0 .922.328.343.328.343.843 0 .516-.36.844-.343.328-.921.328-.563 0-.906-.328-.344-.328-.344-.844Zm3.656 6.328q0-1.25.485-2.235.484-.984 1.39-1.515.922-.547 2.125-.547 1.703 0 2.781 1.047 1.094 1.046 1.22 2.843l.015.578q0 1.938-1.094 3.125-1.078 1.172-2.906 1.172t-2.922-1.172q-1.094-1.172-1.094-3.187v-.11Zm2.266.171q0 1.203.453 1.844.453.625 1.297.625.812 0 1.266-.625.468-.625.468-2.015 0-1.172-.469-1.813-.453-.656-1.28-.656-.829 0-1.282.64-.453.641-.453 2Zm9.172-4.312.062.969q.906-1.125 2.438-1.125 1.344 0 2 .797.656.78.672 2.343v5.469h-2.266v-5.406q0-.719-.313-1.047-.312-.328-1.03-.328-.954 0-1.438.812v5.969h-2.25v-8.453h2.125Zm11.5 6.11q0-.407-.422-.641-.406-.25-1.313-.438-3.015-.625-3.015-2.562 0-1.125.937-1.875.938-.75 2.438-.75 1.61 0 2.578.765.969.75.969 1.953h-2.266q0-.484-.313-.797-.312-.312-.968-.312-.578 0-.89.266-.313.25-.313.64 0 .375.359.61.36.234 1.203.406.844.156 1.422.375 1.781.656 1.781 2.266 0 1.156-1 1.875-.984.718-2.547.718-1.062 0-1.89-.375-.828-.39-1.297-1.047-.469-.656-.469-1.422h2.14q.032.594.438.922.422.313 1.125.313.64 0 .969-.234.344-.25.344-.657Zm12.312 2.343q-.156-.313-.219-.766-.828.922-2.14.922-1.234 0-2.063-.718-.812-.72-.812-1.813 0-1.344 1-2.063 1-.718 2.875-.734h1.047v-.484q0-.578-.313-.922-.297-.36-.937-.36-.578 0-.906.282-.313.265-.313.734h-2.266q0-.734.454-1.36.453-.624 1.28-.968.829-.36 1.86-.36 1.563 0 2.485.782.921.781.921 2.203v3.672q0 1.203.329 1.812v.141h-2.282Zm-1.86-1.578q.5 0 .923-.219.422-.219.625-.594v-1.453h-.844q-1.703 0-1.813 1.172v.125q0 .422.297.703.297.266.813.266Zm10.72-4.766q-.47-.062-.813-.062-1.281 0-1.687.875v5.531h-2.25v-8.453h2.125l.062 1q.688-1.156 1.89-1.156.376 0 .704.093l-.031 2.172Zm3.953-4.187v2.078h1.437v1.656h-1.437v4.219q0 .469.172.672.187.203.687.203.375 0 .672-.063v1.72q-.672.202-1.375.202-2.375 0-2.422-2.406v-4.547h-1.234v-1.656h1.234v-2.078h2.266Zm9.64 7.453 1.11-5.375h2.187l-2.156 8.453h-1.89l-1.61-5.328-1.594 5.328h-1.89l-2.157-8.453h2.188l1.094 5.375 1.547-5.375h1.64l1.531 5.375Zm4.297-1.234q0-1.25.485-2.235.484-.984 1.39-1.515.922-.547 2.125-.547 1.703 0 2.781 1.047 1.094 1.046 1.22 2.843l.015.578q0 1.938-1.094 3.125-1.078 1.172-2.906 1.172t-2.922-1.172q-1.094-1.172-1.094-3.187v-.11Zm2.266.171q0 1.203.453 1.844.453.625 1.297.625.812 0 1.266-.625.468-.625.468-2.015 0-1.172-.469-1.813-.453-.656-1.28-.656-.829 0-1.282.64-.453.641-.453 2Zm11.844-2.203q-.47-.062-.813-.062-1.281 0-1.687.875v5.531h-2.25v-8.453h2.125l.062 1q.688-1.156 1.89-1.156.376 0 .704.093l-.031 2.172Zm4.312 2.953-.812.813v2.578h-2.25v-12h2.25v6.64l.437-.562 2.172-2.531h2.703l-3.047 3.516 3.313 4.937h-2.594l-2.172-3.39Zm10.516 1.047q0-.406-.422-.64-.406-.25-1.313-.438-3.015-.625-3.015-2.562 0-1.125.937-1.875.938-.75 2.438-.75 1.61 0 2.578.765.969.75.969 1.953h-2.266q0-.484-.313-.797-.312-.312-.968-.312-.578 0-.89.266-.313.25-.313.64 0 .375.359.61.36.234 1.203.406.844.156 1.422.375 1.781.656 1.781 2.266 0 1.156-1 1.875-.984.718-2.547.718-1.062 0-1.89-.375-.828-.39-1.297-1.047-.469-.656-.469-1.422h2.14q.032.594.438.922.422.313 1.125.313.64 0 .969-.234.344-.25.344-.657Zm5.265-1.156q0-1.094.266-1.734.266-.657.969-1.282t.937-1.015q.235-.407.235-.844 0-1.313-1.22-1.313-.577 0-.921.36-.344.344-.36.969h-2.265q.016-1.485.953-2.328.953-.844 2.594-.844 1.656 0 2.562.797.922.797.922 2.265 0 .657-.297 1.25-.296.594-1.03 1.313l-.641.593q-.594.579-.672 1.344l-.032.469h-2Zm-.234 2.406q0-.531.36-.86.359-.343.906-.343.562 0 .906.344.36.328.36.86 0 .515-.344.859-.344.328-.922.328-.563 0-.922-.328-.344-.344-.344-.86Z"/></svg>