<svg version="1.1" viewBox="0.0 0.0 531.0 377.0" fill="none" stroke="none" stroke-linecap="square" stroke-miterlimit="10" width="531" height="377" xmlns:xlink="http://www.w3.org/1999/xlink" xmlns="http://www.w3.org/2000/svg"><path fill="#ffffff" d="M0 0L531.0 0L531.0 377.0L0 377.0L0 0Z" fill-rule="nonzero"/><path fill="#fce5cd" d="M265.5 84.8504C307.0859 84.8504 346.40872 103.787285 372.33713 136.30045C398.2655 168.81361 407.97745 211.3644 398.7237 251.90764L265.5 221.5002Z" fill-rule="nonzero"/><path fill="#666666" d="M206.20987 98.38299C224.70584 89.4758 244.97102 84.8504 265.5 84.8504L265.5 221.5002Z" fill-rule="nonzero"/><path fill="#e69138" d="M138.2963 171.57643C150.89107 139.48544 175.14983 113.34072 206.20987 98.38299L265.5 221.5002Z" fill-rule="nonzero"/><path fill="#f6b26b" d="M398.7237 251.90764C387.3166 301.88544 348.89722 341.27487 299.21936 353.9244C249.54149 366.57394 196.96259 350.3555 163.04256 311.91943C129.12251 273.48337 119.567795 219.29585 138.2963 171.57643L265.5 221.5002Z" fill-rule="nonzero"/><path fill="#1a1a1a" d="M22.307375 93.14728L18.932375 93.14728L18.932375 95.44415L22.901125 95.44415L22.901125 96.8504L17.182375 96.8504L17.182375 88.31915L22.8855 88.31915L22.8855 89.74103L18.932375 89.74103L18.932375 91.77228L22.307375 91.77228L22.307375 93.14728ZM26.47925 92.39728L27.54175 90.50665L29.35425 90.50665L27.557375 93.61603L29.432375 96.8504L27.619875 96.8504L26.494875 94.8504L25.369875 96.8504L23.54175 96.8504L25.41675 93.61603L23.619875 90.50665L25.432375 90.50665L26.47925 92.39728ZM32.088623 88.94415L32.088623 90.50665L33.182373 90.50665L33.182373 91.75665L32.088623 91.75665L32.088623 94.9129Q32.088623 95.27228 32.229248 95.42853Q32.369873 95.56915 32.744873 95.56915Q33.026123 95.56915 33.244873 95.5379L33.244873 96.81915Q32.744873 96.9754 32.213623 96.9754Q30.432375 96.9754 30.401125 95.1629L30.401125 91.75665L29.47925 91.75665L29.47925 90.50665L30.401125 90.50665L30.401125 88.94415L32.088623 88.94415ZM36.979248 96.9754Q35.588623 96.9754 34.713623 96.11603Q33.838623 95.25665 33.838623 93.83478L33.838623 93.6629Q33.838623 92.70978 34.197998 91.95978Q34.572998 91.20978 35.244873 90.80353Q35.932373 90.39728 36.791748 90.39728Q38.104248 90.39728 38.838623 91.2254Q39.588623 92.0379 39.588623 93.5379L39.588623 94.2254L35.557373 94.2254Q35.635498 94.8504 36.041748 95.2254Q36.463623 95.6004 37.104248 95.6004Q38.072998 95.6004 38.619873 94.89728L39.463623 95.81915Q39.072998 96.36603 38.416748 96.67853Q37.776123 96.9754 36.979248 96.9754ZM36.791748 91.75665Q36.291748 91.75665 35.979248 92.1004Q35.666748 92.44415 35.572998 93.06915L37.932373 93.06915L37.932373 92.94415Q37.916748 92.38165 37.619873 92.06915Q37.338623 91.75665 36.791748 91.75665ZM41.619873 90.50665L41.682373 91.24103Q42.354248 90.39728 43.494873 90.39728Q44.510498 90.39728 44.994873 90.99103Q45.494873 91.56915 45.510498 92.75665L45.510498 96.8504L43.807373 96.8504L43.807373 92.7879Q43.807373 92.25665 43.572998 92.02228Q43.338623 91.77228 42.791748 91.77228Q42.088623 91.77228 41.729248 92.38165L41.729248 96.8504L40.026123 96.8504L40.026123 90.50665L41.619873 90.50665ZM50.494873 95.1004Q50.494873 94.7879 50.182373 94.61603Q49.885498 94.42853 49.213623 94.2879Q46.947998 93.81915 46.947998 92.36603Q46.947998 91.52228 47.635498 90.95978Q48.338623 90.39728 49.479248 90.39728Q50.682373 90.39728 51.401123 90.95978Q52.135498 91.52228 52.135498 92.44415L50.432373 92.44415Q50.432373 92.06915 50.197998 91.83478Q49.963623 91.6004 49.463623 91.6004Q49.041748 91.6004 48.807373 91.80353Q48.572998 91.99103 48.572998 92.2879Q48.572998 92.56915 48.838623 92.74103Q49.104248 92.9129 49.729248 93.0379Q50.369873 93.1629 50.807373 93.31915Q52.151123 93.81915 52.151123 95.02228Q52.151123 95.89728 51.401123 96.44415Q50.666748 96.9754 49.479248 96.9754Q48.682373 96.9754 48.057373 96.69415Q47.447998 96.39728 47.088623 95.9129Q46.744873 95.4129 46.744873 94.83478L48.354248 94.83478Q48.369873 95.2879 48.682373 95.5379Q48.994873 95.77228 49.510498 95.77228Q50.010498 95.77228 50.244873 95.58478Q50.494873 95.39728 50.494873 95.1004ZM54.854248 96.8504L53.151123 96.8504L53.151123 90.50665L54.854248 90.50665L54.854248 96.8504ZM53.057373 88.86603Q53.057373 88.49103 53.307373 88.24103Q53.572998 87.99103 54.010498 87.99103Q54.432373 87.99103 54.682373 88.24103Q54.947998 88.49103 54.947998 88.86603Q54.947998 89.25665 54.682373 89.50665Q54.432373 89.74103 53.994873 89.74103Q53.572998 89.74103 53.307373 89.50665Q53.057373 89.25665 53.057373 88.86603ZM58.447998 94.7879L59.619873 90.50665L61.385498 90.50665L59.244873 96.8504L57.635498 96.8504L55.494873 90.50665L57.260498 90.50665L58.447998 94.7879ZM64.97925 96.9754Q63.588623 96.9754 62.713623 96.11603Q61.838623 95.25665 61.838623 93.83478L61.838623 93.6629Q61.838623 92.70978 62.197998 91.95978Q62.572998 91.20978 63.244873 90.80353Q63.932373 90.39728 64.79175 90.39728Q66.10425 90.39728 66.83862 91.2254Q67.58862 92.0379 67.58862 93.5379L67.58862 94.2254L63.557373 94.2254Q63.635498 94.8504 64.04175 95.2254Q64.46362 95.6004 65.10425 95.6004Q66.073 95.6004 66.61987 94.89728L67.46362 95.81915Q67.073 96.36603 66.41675 96.67853Q65.77612 96.9754 64.97925 96.9754ZM64.79175 91.75665Q64.29175 91.75665 63.979248 92.1004Q63.666748 92.44415 63.572998 93.06915L65.93237 93.06915L65.93237 92.94415Q65.91675 92.38165 65.61987 92.06915Q65.33862 91.75665 64.79175 91.75665Z" fill-rule="nonzero"/><path fill="#9e9e9e" d="M22.79175 107.27228L19.494875 114.8504L17.713625 114.8504L21.0105 107.69415L16.776125 107.69415L16.776125 106.31915L22.79175 106.31915L22.79175 107.27228ZM24.151125 114.02228Q24.151125 113.61603 24.41675 113.36603Q24.698 113.11603 25.10425 113.11603Q25.526125 113.11603 25.79175 113.36603Q26.073 113.61603 26.073 114.02228Q26.073 114.4129 25.79175 114.6629Q25.526125 114.9129 25.10425 114.9129Q24.698 114.9129 24.41675 114.6629Q24.151125 114.4129 24.151125 114.02228ZM31.10425 114.8504L29.41675 114.8504L29.41675 108.31915L27.401125 108.94415L27.401125 107.56915L30.932375 106.30353L31.10425 106.30353L31.10425 114.8504ZM33.979248 107.95978Q33.979248 107.17853 34.479248 106.69415Q34.994873 106.19415 35.822998 106.19415Q36.651123 106.19415 37.166748 106.67853Q37.682373 107.1629 37.682373 107.99103L37.682373 108.4129Q37.682373 109.19415 37.166748 109.67853Q36.651123 110.1629 35.838623 110.1629Q34.994873 110.1629 34.479248 109.67853Q33.979248 109.19415 33.979248 108.38165L33.979248 107.95978ZM35.104248 108.4129Q35.104248 108.75665 35.307373 108.9754Q35.510498 109.19415 35.838623 109.19415Q36.166748 109.19415 36.354248 108.9754Q36.541748 108.75665 36.541748 108.39728L36.541748 107.95978Q36.541748 107.6004 36.354248 107.39728Q36.166748 107.17853 35.822998 107.17853Q35.494873 107.17853 35.291748 107.39728Q35.104248 107.6004 35.104248 107.9754L35.104248 108.4129ZM38.057373 112.75665Q38.057373 111.95978 38.572998 111.49103Q39.088623 111.00665 39.901123 111.00665Q40.729248 111.00665 41.244873 111.49103Q41.760498 111.95978 41.760498 112.7879L41.760498 113.20978Q41.760498 114.00665 41.260498 114.49103Q40.760498 114.9754 39.916748 114.9754Q39.072998 114.9754 38.557373 114.49103Q38.057373 113.99103 38.057373 113.19415L38.057373 112.75665ZM39.182373 113.20978Q39.182373 113.5379 39.385498 113.77228Q39.604248 113.99103 39.916748 113.99103Q40.635498 113.99103 40.635498 113.20978L40.635498 112.75665Q40.635498 112.4129 40.432373 112.19415Q40.229248 111.9754 39.901123 111.9754Q39.572998 111.9754 39.369873 112.19415Q39.182373 112.4129 39.182373 112.77228L39.182373 113.20978ZM36.166748 114.20978L35.338623 113.77228L39.510498 107.1004L40.338623 107.5379L36.166748 114.20978Z" fill-rule="nonzero"/><path stroke="#757575" stroke-width="1.0" stroke-linecap="butt" d="M16.41675 101.3504L122.850204 101.3504L236.61293 94.93768" fill-rule="nonzero"/><path fill="#9e9e9e" d="M238.61293 94.93768C238.61293 93.833115 237.7175 92.93768 236.61293 92.93768C235.50836 92.93768 234.61293 93.833115 234.61293 94.93768C234.61293 96.04225 235.50836 96.93768 236.61293 96.93768C237.7175 96.93768 238.61293 96.04225 238.61293 94.93768" fill-rule="nonzero"/><path fill="#1a1a1a" d="M21.60425 127.61603Q21.60425 127.11603 21.244875 126.8504Q20.901125 126.58478 19.97925 126.2879Q19.073 125.99103 18.54175 125.69415Q17.088625 124.9129 17.088625 123.58478Q17.088625 122.89728 17.47925 122.3504Q17.869875 121.80353 18.588625 121.50665Q19.323 121.19415 20.22925 121.19415Q21.151125 121.19415 21.85425 121.5379Q22.573 121.86603 22.963625 122.4754Q23.369875 123.06915 23.369875 123.83478L21.60425 123.83478Q21.60425 123.25665 21.22925 122.92853Q20.869875 122.6004 20.198 122.6004Q19.557375 122.6004 19.198 122.88165Q18.838625 123.14728 18.838625 123.58478Q18.838625 124.00665 19.2605 124.2879Q19.682375 124.56915 20.494875 124.81915Q21.994875 125.27228 22.682375 125.94415Q23.369875 126.6004 23.369875 127.6004Q23.369875 128.70978 22.526125 129.3504Q21.698 129.9754 20.276125 129.9754Q19.29175 129.9754 18.47925 129.61603Q17.66675 129.24103 17.244875 128.61603Q16.823 127.99103 16.823 127.1629L18.588625 127.1629Q18.588625 128.58478 20.276125 128.58478Q20.901125 128.58478 21.244875 128.33478Q21.60425 128.06915 21.60425 127.61603ZM23.807375 126.61603Q23.807375 125.67853 24.16675 124.94415Q24.526125 124.19415 25.213625 123.80353Q25.901125 123.39728 26.79175 123.39728Q28.088625 123.39728 28.8855 124.17853Q29.698 124.95978 29.79175 126.30353L29.807375 126.74103Q29.807375 128.20978 28.994875 129.1004Q28.182375 129.9754 26.807375 129.9754Q25.432375 129.9754 24.619875 129.1004Q23.807375 128.20978 23.807375 126.69415L23.807375 126.61603ZM25.494875 126.74103Q25.494875 127.64728 25.838625 128.13165Q26.182375 128.6004 26.807375 128.6004Q27.432375 128.6004 27.776125 128.13165Q28.119875 127.6629 28.119875 126.61603Q28.119875 125.74103 27.776125 125.25665Q27.432375 124.75665 26.79175 124.75665Q26.182375 124.75665 25.838625 125.24103Q25.494875 125.7254 25.494875 126.74103ZM32.651123 123.50665L32.713623 124.2254Q33.385498 123.39728 34.526123 123.39728Q35.760498 123.39728 36.213623 124.36603Q36.885498 123.39728 38.119873 123.39728Q39.151123 123.39728 39.651123 124.00665Q40.151123 124.6004 40.151123 125.80353L40.151123 129.8504L38.463623 129.8504L38.463623 125.80353Q38.463623 125.27228 38.244873 125.02228Q38.041748 124.77228 37.494873 124.77228Q36.744873 124.77228 36.447998 125.49103L36.447998 129.8504L34.760498 129.8504L34.760498 125.81915Q34.760498 125.25665 34.541748 125.02228Q34.322998 124.77228 33.807373 124.77228Q33.088623 124.77228 32.760498 125.36603L32.760498 129.8504L31.073 129.8504L31.073 123.50665L32.651123 123.50665ZM43.979248 129.9754Q42.588623 129.9754 41.713623 129.11603Q40.838623 128.25665 40.838623 126.83478L40.838623 126.6629Q40.838623 125.70978 41.197998 124.95978Q41.572998 124.20978 42.244873 123.80353Q42.932373 123.39728 43.791748 123.39728Q45.104248 123.39728 45.838623 124.2254Q46.588623 125.0379 46.588623 126.5379L46.588623 127.2254L42.557373 127.2254Q42.635498 127.8504 43.041748 128.2254Q43.463623 128.6004 44.104248 128.6004Q45.072998 128.6004 45.619873 127.89728L46.463623 128.81915Q46.072998 129.36603 45.416748 129.67853Q44.776123 129.9754 43.979248 129.9754ZM43.791748 124.75665Q43.291748 124.75665 42.979248 125.1004Q42.666748 125.44415 42.572998 126.06915L44.932373 126.06915L44.932373 125.94415Q44.916748 125.38165 44.619873 125.06915Q44.338623 124.75665 43.791748 124.75665ZM52.854248 126.42853L51.932373 127.4129L51.932373 129.8504L50.182373 129.8504L50.182373 121.31915L51.932373 121.31915L51.932373 125.17853L52.713623 124.13165L54.885498 121.31915L57.041748 121.31915L54.010498 125.11603L57.135498 129.8504L55.041748 129.8504L52.854248 126.42853ZM59.619873 123.50665L59.682373 124.24103Q60.354248 123.39728 61.494873 123.39728Q62.510498 123.39728 62.994873 123.99103Q63.494873 124.56915 63.510498 125.75665L63.510498 129.8504L61.807373 129.8504L61.807373 125.7879Q61.807373 125.25665 61.572998 125.02228Q61.338623 124.77228 60.791748 124.77228Q60.088623 124.77228 59.729248 125.38165L59.729248 129.8504L58.026123 129.8504L58.026123 123.50665L59.619873 123.50665ZM64.80737 126.61603Q64.80737 125.67853 65.16675 124.94415Q65.52612 124.19415 66.21362 123.80353Q66.90112 123.39728 67.79175 123.39728Q69.08862 123.39728 69.8855 124.17853Q70.698 124.95978 70.79175 126.30353L70.80737 126.74103Q70.80737 128.20978 69.99487 129.1004Q69.18237 129.9754 67.80737 129.9754Q66.43237 129.9754 65.61987 129.1004Q64.80737 128.20978 64.80737 126.69415L64.80737 126.61603ZM66.49487 126.74103Q66.49487 127.64728 66.83862 128.13165Q67.18237 128.6004 67.80737 128.6004Q68.43237 128.6004 68.77612 128.13165Q69.11987 127.6629 69.11987 126.61603Q69.11987 125.74103 68.77612 125.25665Q68.43237 124.75665 67.79175 124.75665Q67.18237 124.75665 66.83862 125.24103Q66.49487 125.7254 66.49487 126.74103ZM77.58862 127.55353L78.41675 123.50665L80.04175 123.50665L78.43237 129.8504L77.0105 129.8504L75.80737 125.86603L74.60425 129.8504L73.198 129.8504L71.58862 123.50665L73.21362 123.50665L74.04175 127.5379L75.198 123.50665L76.43237 123.50665L77.58862 127.55353ZM82.85425 129.8504L81.15112 129.8504L81.15112 120.8504L82.85425 120.8504L82.85425 129.8504ZM86.97925 129.9754Q85.58862 129.9754 84.71362 129.11603Q83.83862 128.25665 83.83862 126.83478L83.83862 126.6629Q83.83862 125.70978 84.198 124.95978Q84.573 124.20978 85.24487 123.80353Q85.93237 123.39728 86.79175 123.39728Q88.10425 123.39728 88.83862 124.2254Q89.58862 125.0379 89.58862 126.5379L89.58862 127.2254L85.55737 127.2254Q85.6355 127.8504 86.04175 128.2254Q86.46362 128.6004 87.10425 128.6004Q88.073 128.6004 88.61987 127.89728L89.46362 128.81915Q89.073 129.36603 88.41675 129.67853Q87.77612 129.9754 86.97925 129.9754ZM86.79175 124.75665Q86.29175 124.75665 85.97925 125.1004Q85.66675 125.44415 85.573 126.06915L87.93237 126.06915L87.93237 125.94415Q87.91675 125.38165 87.61987 125.06915Q87.33862 124.75665 86.79175 124.75665ZM89.80737 126.63165Q89.80737 125.14728 90.46362 124.27228Q91.1355 123.39728 92.29175 123.39728Q93.21362 123.39728 93.823 124.08478L93.823 120.8504L95.5105 120.8504L95.5105 129.8504L93.99487 129.8504L93.90112 129.17853Q93.27612 129.9754 92.27612 129.9754Q91.15112 129.9754 90.47925 129.1004Q89.80737 128.20978 89.80737 126.63165ZM91.49487 126.75665Q91.49487 127.64728 91.80737 128.13165Q92.11987 128.6004 92.71362 128.6004Q93.49487 128.6004 93.823 127.92853L93.823 125.42853Q93.49487 124.77228 92.72925 124.77228Q91.49487 124.77228 91.49487 126.75665ZM96.823 126.63165Q96.823 125.17853 97.5105 124.2879Q98.21362 123.39728 99.3855 123.39728Q100.43237 123.39728 101.0105 124.1004L101.08862 123.50665L102.61987 123.50665L102.61987 129.63165Q102.61987 130.4754 102.22925 131.08478Q101.85425 131.70978 101.16675 132.02228Q100.49487 132.3504 99.573 132.3504Q98.86987 132.3504 98.198 132.06915Q97.54175 131.7879 97.21362 131.3504L97.96362 130.31915Q98.58862 131.02228 99.49487 131.02228Q100.16675 131.02228 100.54175 130.6629Q100.91675 130.30353 100.91675 129.64728L100.91675 129.30353Q100.33862 129.9754 99.36987 129.9754Q98.22925 129.9754 97.52612 129.08478Q96.823 128.17853 96.823 126.70978L96.823 126.63165ZM98.5105 126.75665Q98.5105 127.61603 98.85425 128.11603Q99.21362 128.6004 99.80737 128.6004Q100.58862 128.6004 100.91675 128.02228L100.91675 125.3504Q100.573 124.77228 99.823 124.77228Q99.21362 124.77228 98.85425 125.27228Q98.5105 125.77228 98.5105 126.75665ZM106.97925 129.9754Q105.58862 129.9754 104.71362 129.11603Q103.83862 128.25665 103.83862 126.83478L103.83862 126.6629Q103.83862 125.70978 104.198 124.95978Q104.573 124.20978 105.24487 123.80353Q105.93237 123.39728 106.79175 123.39728Q108.10425 123.39728 108.83862 124.2254Q109.58862 125.0379 109.58862 126.5379L109.58862 127.2254L105.55737 127.2254Q105.6355 127.8504 106.04175 128.2254Q106.46362 128.6004 107.10425 128.6004Q108.073 128.6004 108.61987 127.89728L109.46362 128.81915Q109.073 129.36603 108.41675 129.67853Q107.77612 129.9754 106.97925 129.9754ZM106.79175 124.75665Q106.29175 124.75665 105.97925 125.1004Q105.66675 125.44415 105.573 126.06915L107.93237 126.06915L107.93237 125.94415Q107.91675 125.38165 107.61987 125.06915Q107.33862 124.75665 106.79175 124.75665Z" fill-rule="nonzero"/><path fill="#9e9e9e" d="M21.10425 147.8504L19.41675 147.8504L19.41675 141.31915L17.401125 141.94415L17.401125 140.56915L20.932375 139.30353L21.10425 139.30353L21.10425 147.8504ZM28.10425 147.8504L26.41675 147.8504L26.41675 141.31915L24.401125 141.94415L24.401125 140.56915L27.932375 139.30353L28.10425 139.30353L28.10425 147.8504ZM31.151125 147.02228Q31.151125 146.61603 31.41675 146.36603Q31.698 146.11603 32.104248 146.11603Q32.526123 146.11603 32.791748 146.36603Q33.072998 146.61603 33.072998 147.02228Q33.072998 147.4129 32.791748 147.6629Q32.526123 147.9129 32.104248 147.9129Q31.698 147.9129 31.41675 147.6629Q31.151125 147.4129 31.151125 147.02228ZM37.963623 144.44415Q37.291748 145.08478 36.416748 145.08478Q35.276123 145.08478 34.588623 144.31915Q33.916748 143.5379 33.916748 142.2254Q33.916748 141.38165 34.276123 140.67853Q34.651123 139.9754 35.307373 139.58478Q35.963623 139.19415 36.791748 139.19415Q37.635498 139.19415 38.291748 139.61603Q38.947998 140.0379 39.307373 140.83478Q39.666748 141.63165 39.682373 142.64728L39.682373 143.27228Q39.682373 145.4129 38.619873 146.63165Q37.557373 147.8504 35.604248 147.92853L35.197998 147.92853L35.197998 146.52228L35.572998 146.50665Q37.776123 146.4129 37.963623 144.44415ZM36.822998 143.7879Q37.244873 143.7879 37.526123 143.58478Q37.822998 143.36603 37.979248 143.06915L37.979248 142.38165Q37.979248 141.52228 37.651123 141.05353Q37.322998 140.56915 36.776123 140.56915Q36.260498 140.56915 35.932373 141.0379Q35.604248 141.49103 35.604248 142.19415Q35.604248 142.89728 35.916748 143.3504Q36.244873 143.7879 36.822998 143.7879ZM40.979248 140.95978Q40.979248 140.17853 41.479248 139.69415Q41.994873 139.19415 42.822998 139.19415Q43.651123 139.19415 44.166748 139.67853Q44.682373 140.1629 44.682373 140.99103L44.682373 141.4129Q44.682373 142.19415 44.166748 142.67853Q43.651123 143.1629 42.838623 143.1629Q41.994873 143.1629 41.479248 142.67853Q40.979248 142.19415 40.979248 141.38165L40.979248 140.95978ZM42.104248 141.4129Q42.104248 141.75665 42.307373 141.9754Q42.510498 142.19415 42.838623 142.19415Q43.166748 142.19415 43.354248 141.9754Q43.541748 141.75665 43.541748 141.39728L43.541748 140.95978Q43.541748 140.6004 43.354248 140.39728Q43.166748 140.17853 42.822998 140.17853Q42.494873 140.17853 42.291748 140.39728Q42.104248 140.6004 42.104248 140.9754L42.104248 141.4129ZM45.057373 145.75665Q45.057373 144.95978 45.572998 144.49103Q46.088623 144.00665 46.901123 144.00665Q47.729248 144.00665 48.244873 144.49103Q48.760498 144.95978 48.760498 145.7879L48.760498 146.20978Q48.760498 147.00665 48.260498 147.49103Q47.760498 147.9754 46.916748 147.9754Q46.072998 147.9754 45.557373 147.49103Q45.057373 146.99103 45.057373 146.19415L45.057373 145.75665ZM46.182373 146.20978Q46.182373 146.5379 46.385498 146.77228Q46.604248 146.99103 46.916748 146.99103Q47.635498 146.99103 47.635498 146.20978L47.635498 145.75665Q47.635498 145.4129 47.432373 145.19415Q47.229248 144.9754 46.901123 144.9754Q46.572998 144.9754 46.369873 145.19415Q46.182373 145.4129 46.182373 145.77228L46.182373 146.20978ZM43.166748 147.20978L42.338623 146.77228L46.510498 140.1004L47.338623 140.5379L43.166748 147.20978Z" fill-rule="nonzero"/><path stroke="#757575" stroke-width="1.0" stroke-linecap="butt" d="M16.41675 134.3504L122.850204 134.3504L170.33717 133.20201" fill-rule="nonzero"/><path fill="#9e9e9e" d="M172.33717 133.20201C172.33717 132.09744 171.44174 131.20201 170.33717 131.20201C169.2326 131.20201 168.33717 132.09744 168.33717 133.20201C168.33717 134.30658 169.2326 135.20201 170.33717 135.20201C171.44174 135.20201 172.33717 134.30658 172.33717 133.20201" fill-rule="nonzero"/><path fill="#1a1a1a" d="M18.932375 335.74374L22.66675 335.74374L22.66675 337.15L17.182375 337.15L17.182375 328.61874L18.932375 328.61874L18.932375 335.74374ZM25.85425 337.15L24.151125 337.15L24.151125 330.80624L25.85425 330.80624L25.85425 337.15ZM24.057375 329.16562Q24.057375 328.79062 24.307375 328.54062Q24.573 328.29062 25.0105 328.29062Q25.432375 328.29062 25.682375 328.54062Q25.948 328.79062 25.948 329.16562Q25.948 329.55624 25.682375 329.80624Q25.432375 330.04062 24.994875 330.04062Q24.573 330.04062 24.307375 329.80624Q24.057375 329.55624 24.057375 329.16562ZM29.088625 329.24374L29.088625 330.80624L30.182375 330.80624L30.182375 332.05624L29.088625 332.05624L29.088625 335.2125Q29.088625 335.57187 29.22925 335.72812Q29.369875 335.86874 29.744875 335.86874Q30.026125 335.86874 30.244875 335.8375L30.244875 337.11874Q29.744875 337.275 29.213625 337.275Q27.432375 337.275 27.401125 335.4625L27.401125 332.05624L26.47925 332.05624L26.47925 330.80624L27.401125 330.80624L27.401125 329.24374L29.088625 329.24374ZM33.088623 329.24374L33.088623 330.80624L34.182373 330.80624L34.182373 332.05624L33.088623 332.05624L33.088623 335.2125Q33.088623 335.57187 33.229248 335.72812Q33.369873 335.86874 33.744873 335.86874Q34.026123 335.86874 34.244873 335.8375L34.244873 337.11874Q33.744873 337.275 33.213623 337.275Q31.432375 337.275 31.401125 335.4625L31.401125 332.05624L30.47925 332.05624L30.47925 330.80624L31.401125 330.80624L31.401125 329.24374L33.088623 329.24374ZM36.854248 337.15L35.151123 337.15L35.151123 328.15L36.854248 328.15L36.854248 337.15ZM40.979248 337.275Q39.588623 337.275 38.713623 336.41562Q37.838623 335.55624 37.838623 334.13437L37.838623 333.9625Q37.838623 333.00937 38.197998 332.25937Q38.572998 331.50937 39.244873 331.10312Q39.932373 330.69687 40.791748 330.69687Q42.104248 330.69687 42.838623 331.525Q43.588623 332.3375 43.588623 333.8375L43.588623 334.525L39.557373 334.525Q39.635498 335.15 40.041748 335.525Q40.463623 335.9 41.104248 335.9Q42.072998 335.9 42.619873 335.19687L43.463623 336.11874Q43.072998 336.66562 42.416748 336.97812Q41.776123 337.275 40.979248 337.275ZM40.791748 332.05624Q40.291748 332.05624 39.979248 332.4Q39.666748 332.74374 39.572998 333.36874L41.932373 333.36874L41.932373 333.24374Q41.916748 332.68124 41.619873 332.36874Q41.338623 332.05624 40.791748 332.05624ZM49.854248 333.72812L48.932373 334.7125L48.932373 337.15L47.182373 337.15L47.182373 328.61874L48.932373 328.61874L48.932373 332.47812L49.713623 331.43124L51.885498 328.61874L54.041748 328.61874L51.010498 332.41562L54.135498 337.15L52.041748 337.15L49.854248 333.72812ZM56.619873 330.80624L56.682373 331.54062Q57.354248 330.69687 58.494873 330.69687Q59.510498 330.69687 59.994873 331.29062Q60.494873 331.86874 60.510498 333.05624L60.510498 337.15L58.807373 337.15L58.807373 333.0875Q58.807373 332.55624 58.572998 332.32187Q58.338623 332.07187 57.791748 332.07187Q57.088623 332.07187 56.729248 332.68124L56.729248 337.15L55.026123 337.15L55.026123 330.80624L56.619873 330.80624ZM61.807373 333.91562Q61.807373 332.97812 62.166748 332.24374Q62.526123 331.49374 63.213623 331.10312Q63.901123 330.69687 64.79175 330.69687Q66.08862 330.69687 66.8855 331.47812Q67.698 332.25937 67.79175 333.60312L67.80737 334.04062Q67.80737 335.50937 66.99487 336.4Q66.18237 337.275 64.80737 337.275Q63.432373 337.275 62.619873 336.4Q61.807373 335.50937 61.807373 333.99374L61.807373 333.91562ZM63.494873 334.04062Q63.494873 334.94687 63.838623 335.43124Q64.18237 335.9 64.80737 335.9Q65.43237 335.9 65.77612 335.43124Q66.11987 334.9625 66.11987 333.91562Q66.11987 333.04062 65.77612 332.55624Q65.43237 332.05624 64.79175 332.05624Q64.18237 332.05624 63.838623 332.54062Q63.494873 333.025 63.494873 334.04062ZM74.58862 334.85312L75.41675 330.80624L77.04175 330.80624L75.43237 337.15L74.0105 337.15L72.80737 333.16562L71.60425 337.15L70.198 337.15L68.58862 330.80624L70.21362 330.80624L71.04175 334.8375L72.198 330.80624L73.43237 330.80624L74.58862 334.85312ZM79.85425 337.15L78.15112 337.15L78.15112 328.15L79.85425 328.15L79.85425 337.15ZM83.97925 337.275Q82.58862 337.275 81.71362 336.41562Q80.83862 335.55624 80.83862 334.13437L80.83862 333.9625Q80.83862 333.00937 81.198 332.25937Q81.573 331.50937 82.24487 331.10312Q82.93237 330.69687 83.79175 330.69687Q85.10425 330.69687 85.83862 331.525Q86.58862 332.3375 86.58862 333.8375L86.58862 334.525L82.55737 334.525Q82.6355 335.15 83.04175 335.525Q83.46362 335.9 84.10425 335.9Q85.073 335.9 85.61987 335.19687L86.46362 336.11874Q86.073 336.66562 85.41675 336.97812Q84.77612 337.275 83.97925 337.275ZM83.79175 332.05624Q83.29175 332.05624 82.97925 332.4Q82.66675 332.74374 82.573 333.36874L84.93237 333.36874L84.93237 333.24374Q84.91675 332.68124 84.61987 332.36874Q84.33862 332.05624 83.79175 332.05624ZM86.80737 333.93124Q86.80737 332.44687 87.46362 331.57187Q88.1355 330.69687 89.29175 330.69687Q90.21362 330.69687 90.823 331.38437L90.823 328.15L92.5105 328.15L92.5105 337.15L90.99487 337.15L90.90112 336.47812Q90.27612 337.275 89.27612 337.275Q88.15112 337.275 87.47925 336.4Q86.80737 335.50937 86.80737 333.93124ZM88.49487 334.05624Q88.49487 334.94687 88.80737 335.43124Q89.11987 335.9 89.71362 335.9Q90.49487 335.9 90.823 335.22812L90.823 332.72812Q90.49487 332.07187 89.72925 332.07187Q88.49487 332.07187 88.49487 334.05624ZM93.823 333.93124Q93.823 332.47812 94.5105 331.5875Q95.21362 330.69687 96.3855 330.69687Q97.43237 330.69687 98.0105 331.4L98.08862 330.80624L99.61987 330.80624L99.61987 336.93124Q99.61987 337.775 99.22925 338.38437Q98.85425 339.00937 98.16675 339.32187Q97.49487 339.65 96.573 339.65Q95.86987 339.65 95.198 339.36874Q94.54175 339.0875 94.21362 338.65L94.96362 337.61874Q95.58862 338.32187 96.49487 338.32187Q97.16675 338.32187 97.54175 337.9625Q97.91675 337.60312 97.91675 336.94687L97.91675 336.60312Q97.33862 337.275 96.36987 337.275Q95.22925 337.275 94.52612 336.38437Q93.823 335.47812 93.823 334.00937L93.823 333.93124ZM95.5105 334.05624Q95.5105 334.91562 95.85425 335.41562Q96.21362 335.9 96.80737 335.9Q97.58862 335.9 97.91675 335.32187L97.91675 332.65Q97.573 332.07187 96.823 332.07187Q96.21362 332.07187 95.85425 332.57187Q95.5105 333.07187 95.5105 334.05624ZM103.97925 337.275Q102.58862 337.275 101.71362 336.41562Q100.83862 335.55624 100.83862 334.13437L100.83862 333.9625Q100.83862 333.00937 101.198 332.25937Q101.573 331.50937 102.24487 331.10312Q102.93237 330.69687 103.79175 330.69687Q105.10425 330.69687 105.83862 331.525Q106.58862 332.3375 106.58862 333.8375L106.58862 334.525L102.55737 334.525Q102.6355 335.15 103.04175 335.525Q103.46362 335.9 104.10425 335.9Q105.073 335.9 105.61987 335.19687L106.46362 336.11874Q106.073 336.66562 105.41675 336.97812Q104.77612 337.275 103.97925 337.275ZM103.79175 332.05624Q103.29175 332.05624 102.97925 332.4Q102.66675 332.74374 102.573 333.36874L104.93237 333.36874L104.93237 333.24374Q104.91675 332.68124 104.61987 332.36874Q104.33862 332.05624 103.79175 332.05624Z" fill-rule="nonzero"/><path fill="#9e9e9e" d="M17.244875 350.94687L17.744875 346.61874L22.526125 346.61874L22.526125 348.025L19.1355 348.025L18.91675 349.86874Q19.526125 349.54062 20.198 349.54062Q21.41675 349.54062 22.10425 350.30624Q22.807375 351.05624 22.807375 352.41562Q22.807375 353.24374 22.448 353.9Q22.10425 354.54062 21.448 354.91562Q20.807375 355.275 19.91675 355.275Q19.151125 355.275 18.47925 354.9625Q17.823 354.63437 17.432375 354.07187Q17.057375 353.50937 17.026125 352.775L18.713625 352.775Q18.7605 353.30624 19.073 353.60312Q19.401125 353.9 19.91675 353.9Q20.494875 353.9 20.79175 353.49374Q21.10425 353.07187 21.10425 352.32187Q21.10425 351.5875 20.744875 351.2125Q20.401125 350.82187 19.744875 350.82187Q19.1355 350.82187 18.7605 351.13437L18.60425 351.29062L17.244875 350.94687ZM29.838625 355.15L23.994875 355.15L23.994875 353.99374L26.7605 351.04062Q27.323 350.43124 27.588625 349.9625Q27.869875 349.49374 27.869875 349.0875Q27.869875 348.50937 27.573 348.19687Q27.29175 347.86874 26.7605 347.86874Q26.182375 347.86874 25.85425 348.25937Q25.526125 348.65 25.526125 349.30624L23.823 349.30624Q23.823 348.525 24.198 347.88437Q24.573 347.22812 25.244875 346.86874Q25.932375 346.49374 26.79175 346.49374Q28.10425 346.49374 28.838625 347.13437Q29.573 347.75937 29.573 348.91562Q29.573 349.55624 29.244875 350.2125Q28.91675 350.86874 28.119875 351.74374L26.182375 353.79062L29.838625 353.79062L29.838625 355.15ZM31.151125 354.32187Q31.151125 353.91562 31.41675 353.66562Q31.698 353.41562 32.104248 353.41562Q32.526123 353.41562 32.791748 353.66562Q33.072998 353.91562 33.072998 354.32187Q33.072998 354.7125 32.791748 354.9625Q32.526123 355.2125 32.104248 355.2125Q31.698 355.2125 31.41675 354.9625Q31.151125 354.7125 31.151125 354.32187ZM39.010498 351.93124L39.979248 351.93124L39.979248 353.30624L39.010498 353.30624L39.010498 355.15L37.307373 355.15L37.307373 353.30624L33.822998 353.30624L33.744873 352.24374L37.291748 346.61874L39.010498 346.61874L39.010498 351.93124ZM35.432373 351.93124L37.307373 351.93124L37.307373 348.93124L37.197998 349.11874L35.432373 351.93124ZM40.979248 348.25937Q40.979248 347.47812 41.479248 346.99374Q41.994873 346.49374 42.822998 346.49374Q43.651123 346.49374 44.166748 346.97812Q44.682373 347.4625 44.682373 348.29062L44.682373 348.7125Q44.682373 349.49374 44.166748 349.97812Q43.651123 350.4625 42.838623 350.4625Q41.994873 350.4625 41.479248 349.97812Q40.979248 349.49374 40.979248 348.68124L40.979248 348.25937ZM42.104248 348.7125Q42.104248 349.05624 42.307373 349.275Q42.510498 349.49374 42.838623 349.49374Q43.166748 349.49374 43.354248 349.275Q43.541748 349.05624 43.541748 348.69687L43.541748 348.25937Q43.541748 347.9 43.354248 347.69687Q43.166748 347.47812 42.822998 347.47812Q42.494873 347.47812 42.291748 347.69687Q42.104248 347.9 42.104248 348.275L42.104248 348.7125ZM45.057373 353.05624Q45.057373 352.25937 45.572998 351.79062Q46.088623 351.30624 46.901123 351.30624Q47.729248 351.30624 48.244873 351.79062Q48.760498 352.25937 48.760498 353.0875L48.760498 353.50937Q48.760498 354.30624 48.260498 354.79062Q47.760498 355.275 46.916748 355.275Q46.072998 355.275 45.557373 354.79062Q45.057373 354.29062 45.057373 353.49374L45.057373 353.05624ZM46.182373 353.50937Q46.182373 353.8375 46.385498 354.07187Q46.604248 354.29062 46.916748 354.29062Q47.635498 354.29062 47.635498 353.50937L47.635498 353.05624Q47.635498 352.7125 47.432373 352.49374Q47.229248 352.275 46.901123 352.275Q46.572998 352.275 46.369873 352.49374Q46.182373 352.7125 46.182373 353.07187L46.182373 353.50937ZM43.166748 354.50937L42.338623 354.07187L46.510498 347.4L47.338623 347.8375L43.166748 354.50937Z" fill-rule="nonzero"/><path stroke="#757575" stroke-width="1.0" stroke-linecap="butt" d="M16.41675 341.65L122.850204 341.65L227.23567 345.55008" fill-rule="nonzero"/><path fill="#9e9e9e" d="M229.23567 345.55008C229.23567 344.44553 228.34024 343.55008 227.23567 343.55008C226.1311 343.55008 225.23567 344.44553 225.23567 345.55008C225.23567 346.65466 226.1311 347.55008 227.23567 347.55008C228.34024 347.55008 229.23567 346.65466 229.23567 345.55008" fill-rule="nonzero"/><path fill="#1a1a1a" d="M444.28638 136.06044L442.52075 136.06044L439.09888 130.45107L439.09888 136.06044L437.34888 136.06044L437.34888 127.52919L439.09888 127.52919L442.53638 133.15419L442.53638 127.52919L444.28638 127.52919L444.28638 136.06044ZM444.97388 132.82607Q444.97388 131.88857 445.33325 131.15419Q445.69263 130.40419 446.38013 130.01357Q447.06763 129.60732 447.95825 129.60732Q449.25513 129.60732 450.052 130.38857Q450.8645 131.16982 450.95825 132.51357L450.97388 132.95107Q450.97388 134.41982 450.16138 135.31044Q449.34888 136.18544 447.97388 136.18544Q446.59888 136.18544 445.78638 135.31044Q444.97388 134.41982 444.97388 132.90419L444.97388 132.82607ZM446.66138 132.95107Q446.66138 133.85732 447.00513 134.34169Q447.34888 134.81044 447.97388 134.81044Q448.59888 134.81044 448.94263 134.34169Q449.28638 133.87294 449.28638 132.82607Q449.28638 131.95107 448.94263 131.46669Q448.59888 130.96669 447.95825 130.96669Q447.34888 130.96669 447.00513 131.45107Q446.66138 131.93544 446.66138 132.95107ZM458.02075 132.63857L457.09888 133.62294L457.09888 136.06044L455.34888 136.06044L455.34888 127.52919L457.09888 127.52919L457.09888 131.38857L457.88013 130.34169L460.052 127.52919L462.20825 127.52919L459.177 131.32607L462.302 136.06044L460.20825 136.06044L458.02075 132.63857ZM464.78638 129.71669L464.84888 130.45107Q465.52075 129.60732 466.66138 129.60732Q467.677 129.60732 468.16138 130.20107Q468.66138 130.77919 468.677 131.96669L468.677 136.06044L466.97388 136.06044L466.97388 131.99794Q466.97388 131.46669 466.7395 131.23232Q466.50513 130.98232 465.95825 130.98232Q465.25513 130.98232 464.89575 131.59169L464.89575 136.06044L463.19263 136.06044L463.19263 129.71669L464.78638 129.71669ZM469.97388 132.82607Q469.97388 131.88857 470.33325 131.15419Q470.69263 130.40419 471.38013 130.01357Q472.06763 129.60732 472.95825 129.60732Q474.25513 129.60732 475.052 130.38857Q475.8645 131.16982 475.95825 132.51357L475.97388 132.95107Q475.97388 134.41982 475.16138 135.31044Q474.34888 136.18544 472.97388 136.18544Q471.59888 136.18544 470.78638 135.31044Q469.97388 134.41982 469.97388 132.90419L469.97388 132.82607ZM471.66138 132.95107Q471.66138 133.85732 472.00513 134.34169Q472.34888 134.81044 472.97388 134.81044Q473.59888 134.81044 473.94263 134.34169Q474.28638 133.87294 474.28638 132.82607Q474.28638 131.95107 473.94263 131.46669Q473.59888 130.96669 472.95825 130.96669Q472.34888 130.96669 472.00513 131.45107Q471.66138 131.93544 471.66138 132.95107ZM482.75513 133.76357L483.58325 129.71669L485.20825 129.71669L483.59888 136.06044L482.177 136.06044L480.97388 132.07607L479.77075 136.06044L478.3645 136.06044L476.75513 129.71669L478.38013 129.71669L479.20825 133.74794L480.3645 129.71669L481.59888 129.71669L482.75513 133.76357ZM488.02075 136.06044L486.31763 136.06044L486.31763 127.06044L488.02075 127.06044L488.02075 136.06044ZM492.14575 136.18544Q490.75513 136.18544 489.88013 135.32607Q489.00513 134.46669 489.00513 133.04482L489.00513 132.87294Q489.00513 131.91982 489.3645 131.16982Q489.7395 130.41982 490.41138 130.01357Q491.09888 129.60732 491.95825 129.60732Q493.27075 129.60732 494.00513 130.43544Q494.75513 131.24794 494.75513 132.74794L494.75513 133.43544L490.72388 133.43544Q490.802 134.06044 491.20825 134.43544Q491.63013 134.81044 492.27075 134.81044Q493.2395 134.81044 493.78638 134.10732L494.63013 135.02919Q494.2395 135.57607 493.58325 135.88857Q492.94263 136.18544 492.14575 136.18544ZM491.95825 130.96669Q491.45825 130.96669 491.14575 131.31044Q490.83325 131.65419 490.7395 132.27919L493.09888 132.27919L493.09888 132.15419Q493.08325 131.59169 492.78638 131.27919Q492.50513 130.96669 491.95825 130.96669ZM494.97388 132.84169Q494.97388 131.35732 495.63013 130.48232Q496.302 129.60732 497.45825 129.60732Q498.38013 129.60732 498.9895 130.29482L498.9895 127.06044L500.677 127.06044L500.677 136.06044L499.16138 136.06044L499.06763 135.38857Q498.44263 136.18544 497.44263 136.18544Q496.31763 136.18544 495.64575 135.31044Q494.97388 134.41982 494.97388 132.84169ZM496.66138 132.96669Q496.66138 133.85732 496.97388 134.34169Q497.28638 134.81044 497.88013 134.81044Q498.66138 134.81044 498.9895 134.13857L498.9895 131.63857Q498.66138 130.98232 497.89575 130.98232Q496.66138 130.98232 496.66138 132.96669ZM501.9895 132.84169Q501.9895 131.38857 502.677 130.49794Q503.38013 129.60732 504.552 129.60732Q505.59888 129.60732 506.177 130.31044L506.25513 129.71669L507.78638 129.71669L507.78638 135.84169Q507.78638 136.68544 507.39575 137.29482Q507.02075 137.91982 506.33325 138.23232Q505.66138 138.56044 504.7395 138.56044Q504.03638 138.56044 503.3645 138.27919Q502.70825 137.99794 502.38013 137.56044L503.13013 136.52919Q503.75513 137.23232 504.66138 137.23232Q505.33325 137.23232 505.70825 136.87294Q506.08325 136.51357 506.08325 135.85732L506.08325 135.51357Q505.50513 136.18544 504.53638 136.18544Q503.39575 136.18544 502.69263 135.29482Q501.9895 134.38857 501.9895 132.91982L501.9895 132.84169ZM503.677 132.96669Q503.677 133.82607 504.02075 134.32607Q504.38013 134.81044 504.97388 134.81044Q505.75513 134.81044 506.08325 134.23232L506.08325 131.56044Q505.7395 130.98232 504.9895 130.98232Q504.38013 130.98232 504.02075 131.48232Q503.677 131.98232 503.677 132.96669ZM512.14575 136.18544Q510.75513 136.18544 509.88013 135.32607Q509.00513 134.46669 509.00513 133.04482L509.00513 132.87294Q509.00513 131.91982 509.3645 131.16982Q509.7395 130.41982 510.41138 130.01357Q511.09888 129.60732 511.95825 129.60732Q513.27075 129.60732 514.0051 130.43544Q514.7551 131.24794 514.7551 132.74794L514.7551 133.43544L510.72388 133.43544Q510.802 134.06044 511.20825 134.43544Q511.63013 134.81044 512.27075 134.81044Q513.2395 134.81044 513.7864 134.10732L514.6301 135.02919Q514.2395 135.57607 513.58325 135.88857Q512.9426 136.18544 512.14575 136.18544ZM511.95825 130.96669Q511.45825 130.96669 511.14575 131.31044Q510.83325 131.65419 510.7395 132.27919L513.0989 132.27919L513.0989 132.15419Q513.08325 131.59169 512.7864 131.27919Q512.5051 130.96669 511.95825 130.96669Z" fill-rule="nonzero"/><path fill="#9e9e9e" d="M488.00513 154.06044L482.16138 154.06044L482.16138 152.90419L484.927 149.95107Q485.4895 149.34169 485.75513 148.87294Q486.03638 148.40419 486.03638 147.99794Q486.03638 147.41982 485.7395 147.10732Q485.45825 146.77919 484.927 146.77919Q484.34888 146.77919 484.02075 147.16982Q483.69263 147.56044 483.69263 148.21669L481.9895 148.21669Q481.9895 147.43544 482.3645 146.79482Q482.7395 146.13857 483.41138 145.77919Q484.09888 145.40419 484.95825 145.40419Q486.27075 145.40419 487.00513 146.04482Q487.7395 146.66982 487.7395 147.82607Q487.7395 148.46669 487.41138 149.12294Q487.08325 149.77919 486.28638 150.65419L484.34888 152.70107L488.00513 152.70107L488.00513 154.06044ZM494.72388 147.79482Q494.72388 148.41982 494.41138 148.90419Q494.09888 149.37294 493.552 149.66982Q494.177 149.96669 494.53638 150.49794Q494.91138 151.01357 494.91138 151.71669Q494.91138 152.85732 494.13013 153.52919Q493.3645 154.18544 492.02075 154.18544Q490.69263 154.18544 489.91138 153.52919Q489.14575 152.85732 489.14575 151.71669Q489.14575 151.01357 489.50513 150.48232Q489.8645 149.95107 490.4895 149.66982Q489.94263 149.37294 489.63013 148.90419Q489.31763 148.41982 489.31763 147.79482Q489.31763 146.70107 490.03638 146.06044Q490.77075 145.40419 492.02075 145.40419Q493.27075 145.40419 493.9895 146.06044Q494.72388 146.70107 494.72388 147.79482ZM493.20825 151.59169Q493.20825 151.04482 492.88013 150.71669Q492.56763 150.37294 492.02075 150.37294Q491.47388 150.37294 491.14575 150.70107Q490.83325 151.02919 490.83325 151.59169Q490.83325 152.13857 491.14575 152.48232Q491.47388 152.81044 492.03638 152.81044Q492.58325 152.81044 492.89575 152.49794Q493.20825 152.16982 493.20825 151.59169ZM493.03638 147.87294Q493.03638 147.37294 492.77075 147.07607Q492.50513 146.77919 492.02075 146.77919Q491.552 146.77919 491.28638 147.07607Q491.02075 147.35732 491.02075 147.87294Q491.02075 148.38857 491.28638 148.70107Q491.552 149.01357 492.02075 149.01357Q492.50513 149.01357 492.77075 148.70107Q493.03638 148.38857 493.03638 147.87294ZM496.31763 153.23232Q496.31763 152.82607 496.58325 152.57607Q496.8645 152.32607 497.27075 152.32607Q497.69263 152.32607 497.95825 152.57607Q498.2395 152.82607 498.2395 153.23232Q498.2395 153.62294 497.95825 153.87294Q497.69263 154.12294 497.27075 154.12294Q496.8645 154.12294 496.58325 153.87294Q496.31763 153.62294 496.31763 153.23232ZM503.75513 145.43544L503.75513 146.84169L503.59888 146.84169Q502.44263 146.85732 501.7395 147.43544Q501.052 148.01357 500.91138 149.04482Q501.58325 148.35732 502.6145 148.35732Q503.7395 148.35732 504.39575 149.15419Q505.052 149.95107 505.052 151.24794Q505.052 152.07607 504.69263 152.74794Q504.33325 153.41982 503.66138 153.81044Q503.00513 154.18544 502.177 154.18544Q500.83325 154.18544 500.00513 153.24794Q499.177 152.29482 499.177 150.73232L499.177 150.12294Q499.177 148.73232 499.69263 147.66982Q500.22388 146.60732 501.19263 146.02919Q502.177 145.45107 503.47388 145.43544L503.75513 145.43544ZM502.09888 149.71669Q501.69263 149.71669 501.34888 149.93544Q501.02075 150.13857 500.8645 150.49794L500.8645 151.01357Q500.8645 151.85732 501.19263 152.34169Q501.53638 152.81044 502.14575 152.81044Q502.69263 152.81044 503.02075 152.38857Q503.3645 151.95107 503.3645 151.26357Q503.3645 150.56044 503.02075 150.13857Q502.677 149.71669 502.09888 149.71669ZM506.14575 147.16982Q506.14575 146.38857 506.64575 145.90419Q507.16138 145.40419 507.9895 145.40419Q508.81763 145.40419 509.33325 145.88857Q509.84888 146.37294 509.84888 147.20107L509.84888 147.62294Q509.84888 148.40419 509.33325 148.88857Q508.81763 149.37294 508.00513 149.37294Q507.16138 149.37294 506.64575 148.88857Q506.14575 148.40419 506.14575 147.59169L506.14575 147.16982ZM507.27075 147.62294Q507.27075 147.96669 507.47388 148.18544Q507.677 148.40419 508.00513 148.40419Q508.33325 148.40419 508.52075 148.18544Q508.70825 147.96669 508.70825 147.60732L508.70825 147.16982Q508.70825 146.81044 508.52075 146.60732Q508.33325 146.38857 507.9895 146.38857Q507.66138 146.38857 507.45825 146.60732Q507.27075 146.81044 507.27075 147.18544L507.27075 147.62294ZM510.22388 151.96669Q510.22388 151.16982 510.7395 150.70107Q511.25513 150.21669 512.0676 150.21669Q512.89575 150.21669 513.4114 150.70107Q513.927 151.16982 513.927 151.99794L513.927 152.41982Q513.927 153.21669 513.427 153.70107Q512.927 154.18544 512.08325 154.18544Q511.2395 154.18544 510.72388 153.70107Q510.22388 153.20107 510.22388 152.40419L510.22388 151.96669ZM511.34888 152.41982Q511.34888 152.74794 511.552 152.98232Q511.77075 153.20107 512.08325 153.20107Q512.802 153.20107 512.802 152.41982L512.802 151.96669Q512.802 151.62294 512.5989 151.40419Q512.39575 151.18544 512.0676 151.18544Q511.7395 151.18544 511.53638 151.40419Q511.34888 151.62294 511.34888 151.98232L511.34888 152.41982ZM508.33325 153.41982L507.50513 152.98232L511.677 146.31044L512.5051 146.74794L508.33325 153.41982Z" fill-rule="nonzero"/><path stroke="#757575" stroke-width="1.0" stroke-linecap="butt" d="M514.58325 140.56044L408.1498 140.56044L366.99527 140.56044" fill-rule="nonzero"/><path fill="#9e9e9e" d="M368.99527 140.56044C368.99527 139.45587 368.09982 138.56044 366.99527 138.56044C365.8907 138.56044 364.99527 139.45587 364.99527 140.56044C364.99527 141.66501 365.8907 142.56044 366.99527 142.56044C368.09982 142.56044 368.99527 141.66501 368.99527 140.56044" fill-rule="nonzero"/><path fill="#757575" d="M91.05125 35.882343L88.7075 35.882343L88.7075 31.007343L84.12937 31.007343L84.12937 35.882343L81.78562 35.882343L81.78562 24.507343L84.12937 24.507343L84.12937 29.116718L88.7075 29.116718L88.7075 24.507343L91.05125 24.507343L91.05125 35.882343ZM92.28562 31.569843Q92.28562 30.319843 92.77 29.335468Q93.25437 28.351093 94.16062 27.819843Q95.0825 27.272968 96.28562 27.272968Q97.98875 27.272968 99.06687 28.319843Q100.16062 29.366718 100.28562 31.163593L100.30125 31.741718Q100.30125 33.67922 99.2075 34.86672Q98.12937 36.038593 96.30125 36.038593Q94.47312 36.038593 93.37937 34.86672Q92.28562 33.694843 92.28562 31.679218L92.28562 31.569843ZM94.55125 31.741718Q94.55125 32.944843 95.00437 33.58547Q95.4575 34.21047 96.30125 34.21047Q97.11375 34.21047 97.56687 33.58547Q98.03562 32.96047 98.03562 31.569843Q98.03562 30.397968 97.56687 29.757343Q97.11375 29.101093 96.28562 29.101093Q95.4575 29.101093 95.00437 29.741718Q94.55125 30.382343 94.55125 31.741718ZM108.98875 32.80422L110.09812 27.429218L112.28562 27.429218L110.12937 35.882343L108.23875 35.882343L106.62937 30.554218L105.03562 35.882343L103.145 35.882343L100.98875 27.429218L103.17625 27.429218L104.27 32.80422L105.81687 27.429218L107.4575 27.429218L108.98875 32.80422ZM119.75437 27.429218L119.8325 28.366718Q120.72312 27.272968 122.25437 27.272968Q123.895 27.272968 124.50437 28.554218Q125.395 27.272968 127.03562 27.272968Q128.41061 27.272968 129.08249 28.069843Q129.75436 28.866718 129.75436 30.476093L129.75436 35.882343L127.48875 35.882343L127.48875 30.491718Q127.48875 29.772968 127.2075 29.444843Q126.92625 29.101093 126.22312 29.101093Q125.2075 29.101093 124.81687 30.069843L124.81687 35.882343L122.56687 35.882343L122.56687 30.491718Q122.56687 29.757343 122.27 29.429218Q121.98875 29.101093 121.28562 29.101093Q120.3325 29.101093 119.895 29.897968L119.895 35.882343L117.645 35.882343L117.645 27.429218L119.75437 27.429218ZM136.70749 35.02297Q135.86374 36.038593 134.39499 36.038593Q133.03561 36.038593 132.31686 35.257343Q131.59811 34.476093 131.58249 32.96047L131.58249 27.429218L133.84811 27.429218L133.84811 32.882343Q133.84811 34.21047 135.05124 34.21047Q136.19186 34.21047 136.62936 33.413593L136.62936 27.429218L138.89499 27.429218L138.89499 35.882343L136.76999 35.882343L136.70749 35.02297ZM144.16061 34.21047Q144.78561 34.21047 145.17624 33.86672Q145.56686 33.52297 145.58249 32.96047L147.69186 32.96047Q147.69186 33.819843 147.22311 34.538593Q146.76999 35.24172 145.95749 35.64797Q145.16061 36.038593 144.19186 36.038593Q142.37936 36.038593 141.33249 34.882343Q140.28561 33.726093 140.28561 31.694843L140.28561 31.554218Q140.28561 29.601093 141.31686 28.444843Q142.36374 27.272968 144.17624 27.272968Q145.76999 27.272968 146.72311 28.179218Q147.67624 29.069843 147.69186 30.569843L145.58249 30.569843Q145.56686 29.913593 145.17624 29.507343Q144.78561 29.101093 144.14499 29.101093Q143.34811 29.101093 142.94186 29.679218Q142.55124 30.241718 142.55124 31.538593L142.55124 31.772968Q142.55124 33.069843 142.94186 33.64797Q143.34811 34.21047 144.16061 34.21047ZM150.84811 28.351093Q151.73874 27.272968 153.09811 27.272968Q155.84811 27.272968 155.89499 30.460468L155.89499 35.882343L153.62936 35.882343L153.62936 30.522968Q153.62936 29.804218 153.31686 29.460468Q153.00436 29.101093 152.28561 29.101093Q151.28561 29.101093 150.84811 29.866718L150.84811 35.882343L148.58249 35.882343L148.58249 23.882343L150.84811 23.882343L150.84811 28.351093ZM161.28561 31.585468Q161.28561 29.616718 162.17624 28.444843Q163.06686 27.272968 164.59811 27.272968Q165.83249 27.272968 166.64499 28.194843L166.64499 23.882343L168.91061 23.882343L168.91061 35.882343L166.86374 35.882343L166.75436 34.976093Q165.91061 36.038593 164.58249 36.038593Q163.09811 36.038593 162.19186 34.86672Q161.28561 33.67922 161.28561 31.585468ZM163.55124 31.757343Q163.55124 32.944843 163.95749 33.58547Q164.37936 34.21047 165.16061 34.21047Q166.20749 34.21047 166.64499 33.319843L166.64499 29.991718Q166.22311 29.101093 165.17624 29.101093Q163.55124 29.101093 163.55124 31.757343ZM170.28561 31.569843Q170.28561 30.319843 170.76999 29.335468Q171.25436 28.351093 172.16061 27.819843Q173.08249 27.272968 174.28561 27.272968Q175.98874 27.272968 177.06686 28.319843Q178.16061 29.366718 178.28561 31.163593L178.30124 31.741718Q178.30124 33.67922 177.20749 34.86672Q176.12936 36.038593 174.30124 36.038593Q172.47311 36.038593 171.37936 34.86672Q170.28561 33.694843 170.28561 31.679218L170.28561 31.569843ZM172.55124 31.741718Q172.55124 32.944843 173.00436 33.58547Q173.45749 34.21047 174.30124 34.21047Q175.11374 34.21047 175.56686 33.58547Q176.03561 32.96047 176.03561 31.569843Q176.03561 30.397968 175.56686 29.757343Q175.11374 29.101093 174.28561 29.101093Q173.45749 29.101093 173.00436 29.741718Q172.55124 30.382343 172.55124 31.741718ZM186.80124 32.67922L188.36374 27.429218L190.78561 27.429218L187.37936 37.194843L187.19186 37.64797Q186.44186 39.30422 184.69186 39.30422Q184.20749 39.30422 183.69186 39.14797L183.69186 37.444843L184.03561 37.444843Q184.67624 37.444843 184.98874 37.24172Q185.31686 37.05422 185.48874 36.601093L185.75436 35.913593L182.80124 27.429218L185.22311 27.429218L186.80124 32.67922ZM191.28561 31.569843Q191.28561 30.319843 191.76999 29.335468Q192.25436 28.351093 193.16061 27.819843Q194.08249 27.272968 195.28561 27.272968Q196.98874 27.272968 198.06686 28.319843Q199.16061 29.366718 199.28561 31.163593L199.30124 31.741718Q199.30124 33.67922 198.20749 34.86672Q197.12936 36.038593 195.30124 36.038593Q193.47311 36.038593 192.37936 34.86672Q191.28561 33.694843 191.28561 31.679218L191.28561 31.569843ZM193.55124 31.741718Q193.55124 32.944843 194.00436 33.58547Q194.45749 34.21047 195.30124 34.21047Q196.11374 34.21047 196.56686 33.58547Q197.03561 32.96047 197.03561 31.569843Q197.03561 30.397968 196.56686 29.757343Q196.11374 29.101093 195.28561 29.101093Q194.45749 29.101093 194.00436 29.741718Q193.55124 30.382343 193.55124 31.741718ZM205.70749 35.02297Q204.86374 36.038593 203.39499 36.038593Q202.03561 36.038593 201.31686 35.257343Q200.59811 34.476093 200.58249 32.96047L200.58249 27.429218L202.84811 27.429218L202.84811 32.882343Q202.84811 34.21047 204.05124 34.21047Q205.19186 34.21047 205.62936 33.413593L205.62936 27.429218L207.89499 27.429218L207.89499 35.882343L205.76999 35.882343L205.70749 35.02297ZM216.70749 32.49172L215.89499 33.30422L215.89499 35.882343L213.64499 35.882343L213.64499 23.882343L215.89499 23.882343L215.89499 30.522968L216.33249 29.960468L218.50436 27.429218L221.20749 27.429218L218.16061 30.944843L221.47311 35.882343L218.87936 35.882343L216.70749 32.49172ZM224.72311 27.429218L224.78561 28.397968Q225.69186 27.272968 227.22311 27.272968Q228.56686 27.272968 229.22311 28.069843Q229.87936 28.851093 229.89499 30.413593L229.89499 35.882343L227.62936 35.882343L227.62936 30.476093Q227.62936 29.757343 227.31686 29.429218Q227.00436 29.101093 226.28561 29.101093Q225.33249 29.101093 224.84811 29.913593L224.84811 35.882343L222.59811 35.882343L222.59811 27.429218L224.72311 27.429218ZM231.28561 31.569843Q231.28561 30.319843 231.76999 29.335468Q232.25436 28.351093 233.16061 27.819843Q234.08249 27.272968 235.28561 27.272968Q236.98874 27.272968 238.06686 28.319843Q239.16061 29.366718 239.28561 31.163593L239.30124 31.741718Q239.30124 33.67922 238.20749 34.86672Q237.12936 36.038593 235.30124 36.038593Q233.47311 36.038593 232.37936 34.86672Q231.28561 33.694843 231.28561 31.679218L231.28561 31.569843ZM233.55124 31.741718Q233.55124 32.944843 234.00436 33.58547Q234.45749 34.21047 235.30124 34.21047Q236.11374 34.21047 236.56686 33.58547Q237.03561 32.96047 237.03561 31.569843Q237.03561 30.397968 236.56686 29.757343Q236.11374 29.101093 235.28561 29.101093Q234.45749 29.101093 234.00436 29.741718Q233.55124 30.382343 233.55124 31.741718ZM247.98874 32.80422L249.09811 27.429218L251.28561 27.429218L249.12936 35.882343L247.23874 35.882343L245.62936 30.554218L244.03561 35.882343L242.14499 35.882343L239.98874 27.429218L242.17624 27.429218L243.26999 32.80422L244.81686 27.429218L246.45749 27.429218L247.98874 32.80422ZM261.5356 35.882343Q261.37936 35.569843 261.31686 35.11672Q260.48874 36.038593 259.17624 36.038593Q257.94186 36.038593 257.11374 35.319843Q256.30124 34.601093 256.30124 33.507343Q256.30124 32.163593 257.30124 31.444843Q258.30124 30.726093 260.17624 30.710468L261.2231 30.710468L261.2231 30.226093Q261.2231 29.647968 260.9106 29.304218Q260.61374 28.944843 259.9731 28.944843Q259.395 28.944843 259.06686 29.226093Q258.75436 29.491718 258.75436 29.960468L256.48874 29.960468Q256.48874 29.226093 256.94186 28.601093Q257.395 27.976093 258.2231 27.632343Q259.05124 27.272968 260.0825 27.272968Q261.645 27.272968 262.56686 28.054218Q263.48874 28.835468 263.48874 30.257343L263.48874 33.92922Q263.48874 35.132343 263.81686 35.74172L263.81686 35.882343L261.5356 35.882343ZM259.67624 34.30422Q260.17624 34.30422 260.5981 34.08547Q261.02 33.86672 261.2231 33.49172L261.2231 32.038593L260.37936 32.038593Q258.67624 32.038593 258.56686 33.21047L258.56686 33.33547Q258.56686 33.757343 258.86374 34.038593Q259.1606 34.30422 259.67624 34.30422ZM273.25436 31.726093Q273.25436 33.757343 272.37936 34.89797Q271.52 36.038593 269.9731 36.038593Q268.5981 36.038593 267.77 34.976093L267.67624 35.882343L265.645 35.882343L265.645 23.882343L267.895 23.882343L267.895 28.179218Q268.67624 27.272968 269.9575 27.272968Q271.50436 27.272968 272.37936 28.413593Q273.25436 29.538593 273.25436 31.601093L273.25436 31.726093ZM271.00436 31.569843Q271.00436 30.288593 270.5981 29.694843Q270.19186 29.101093 269.37936 29.101093Q268.30124 29.101093 267.895 29.991718L267.895 33.319843Q268.31686 34.21047 269.395 34.21047Q270.48874 34.21047 270.8325 33.132343Q271.00436 32.61672 271.00436 31.569843ZM274.2856 31.569843Q274.2856 30.319843 274.77 29.335468Q275.25436 28.351093 276.1606 27.819843Q277.0825 27.272968 278.2856 27.272968Q279.98874 27.272968 281.06686 28.319843Q282.1606 29.366718 282.2856 31.163593L282.30124 31.741718Q282.30124 33.67922 281.2075 34.86672Q280.12936 36.038593 278.30124 36.038593Q276.4731 36.038593 275.37936 34.86672Q274.2856 33.694843 274.2856 31.679218L274.2856 31.569843ZM276.55124 31.741718Q276.55124 32.944843 277.00436 33.58547Q277.4575 34.21047 278.30124 34.21047Q279.11374 34.21047 279.56686 33.58547Q280.0356 32.96047 280.0356 31.569843Q280.0356 30.397968 279.56686 29.757343Q279.11374 29.101093 278.2856 29.101093Q277.4575 29.101093 277.00436 29.741718Q276.55124 30.382343 276.55124 31.741718ZM288.7075 35.02297Q287.86374 36.038593 286.395 36.038593Q285.0356 36.038593 284.31686 35.257343Q283.5981 34.476093 283.5825 32.96047L283.5825 27.429218L285.8481 27.429218L285.8481 32.882343Q285.8481 34.21047 287.05124 34.21047Q288.19186 34.21047 288.62936 33.413593L288.62936 27.429218L290.895 27.429218L290.895 35.882343L288.77 35.882343L288.7075 35.02297ZM295.3481 25.351093L295.3481 27.429218L296.7856 27.429218L296.7856 29.085468L295.3481 29.085468L295.3481 33.30422Q295.3481 33.77297 295.52 33.976093Q295.7075 34.17922 296.2075 34.17922Q296.5825 34.17922 296.87936 34.11672L296.87936 35.83547Q296.2075 36.038593 295.50436 36.038593Q293.12936 36.038593 293.0825 33.632343L293.0825 29.085468L291.8481 29.085468L291.8481 27.429218L293.0825 27.429218L293.0825 25.351093L295.3481 25.351093ZM308.62936 31.226093L304.12936 31.226093L304.12936 35.882343L301.7856 35.882343L301.7856 24.507343L309.19186 24.507343L309.19186 26.397968L304.12936 26.397968L304.12936 29.335468L308.62936 29.335468L308.62936 31.226093ZM313.02 35.882343L310.75436 35.882343L310.75436 27.429218L313.02 27.429218L313.02 35.882343ZM310.62936 25.241718Q310.62936 24.726093 310.9575 24.397968Q311.30124 24.069843 311.895 24.069843Q312.4731 24.069843 312.81686 24.397968Q313.1606 24.726093 313.1606 25.241718Q313.1606 25.757343 312.80124 26.085468Q312.4575 26.413593 311.87936 26.413593Q311.31686 26.413593 310.9731 26.085468Q310.62936 25.757343 310.62936 25.241718ZM319.395 29.538593Q318.92624 29.476093 318.5825 29.476093Q317.30124 29.476093 316.895 30.351093L316.895 35.882343L314.645 35.882343L314.645 27.429218L316.77 27.429218L316.8325 28.429218Q317.52 27.272968 318.7231 27.272968Q319.0981 27.272968 319.42624 27.366718L319.395 29.538593ZM325.2231 33.538593Q325.2231 33.132343 324.80124 32.89797Q324.395 32.64797 323.48874 32.46047Q320.4731 31.835468 320.4731 29.897968Q320.4731 28.772968 321.4106 28.022968Q322.3481 27.272968 323.8481 27.272968Q325.4575 27.272968 326.42624 28.038593Q327.395 28.788593 327.395 29.991718L325.12936 29.991718Q325.12936 29.507343 324.81686 29.194843Q324.50436 28.882343 323.8481 28.882343Q323.27 28.882343 322.9575 29.147968Q322.645 29.397968 322.645 29.788593Q322.645 30.163593 323.00436 30.397968Q323.36374 30.632343 324.2075 30.804218Q325.05124 30.960468 325.62936 31.179218Q327.4106 31.835468 327.4106 33.444843Q327.4106 34.601093 326.4106 35.319843Q325.42624 36.038593 323.86374 36.038593Q322.80124 36.038593 321.9731 35.663593Q321.145 35.27297 320.67624 34.61672Q320.2075 33.96047 320.2075 33.194843L322.3481 33.194843Q322.37936 33.788593 322.7856 34.11672Q323.2075 34.42922 323.9106 34.42922Q324.55124 34.42922 324.87936 34.194843Q325.2231 33.944843 325.2231 33.538593ZM331.3481 25.351093L331.3481 27.429218L332.7856 27.429218L332.7856 29.085468L331.3481 29.085468L331.3481 33.30422Q331.3481 33.77297 331.52 33.976093Q331.7075 34.17922 332.2075 34.17922Q332.5825 34.17922 332.87936 34.11672L332.87936 35.83547Q332.2075 36.038593 331.50436 36.038593Q329.12936 36.038593 329.0825 33.632343L329.0825 29.085468L327.8481 29.085468L327.8481 27.429218L329.0825 27.429218L329.0825 25.351093L331.3481 25.351093ZM347.0356 35.882343L344.69186 35.882343L340.12936 28.397968L340.12936 35.882343L337.7856 35.882343L337.7856 24.507343L340.12936 24.507343L344.7075 32.007343L344.7075 24.507343L347.0356 24.507343L347.0356 35.882343ZM353.5356 35.882343Q353.37936 35.569843 353.31686 35.11672Q352.48874 36.038593 351.17624 36.038593Q349.94186 36.038593 349.11374 35.319843Q348.30124 34.601093 348.30124 33.507343Q348.30124 32.163593 349.30124 31.444843Q350.30124 30.726093 352.17624 30.710468L353.2231 30.710468L353.2231 30.226093Q353.2231 29.647968 352.9106 29.304218Q352.61374 28.944843 351.9731 28.944843Q351.395 28.944843 351.06686 29.226093Q350.75436 29.491718 350.75436 29.960468L348.48874 29.960468Q348.48874 29.226093 348.94186 28.601093Q349.395 27.976093 350.2231 27.632343Q351.05124 27.272968 352.0825 27.272968Q353.645 27.272968 354.56686 28.054218Q355.48874 28.835468 355.48874 30.257343L355.48874 33.92922Q355.48874 35.132343 355.81686 35.74172L355.81686 35.882343L353.5356 35.882343ZM351.67624 34.30422Q352.17624 34.30422 352.5981 34.08547Q353.02 33.86672 353.2231 33.49172L353.2231 32.038593L352.37936 32.038593Q350.67624 32.038593 350.56686 33.21047L350.56686 33.33547Q350.56686 33.757343 350.86374 34.038593Q351.1606 34.30422 351.67624 34.30422ZM360.3481 25.351093L360.3481 27.429218L361.7856 27.429218L361.7856 29.085468L360.3481 29.085468L360.3481 33.30422Q360.3481 33.77297 360.52 33.976093Q360.7075 34.17922 361.2075 34.17922Q361.5825 34.17922 361.87936 34.11672L361.87936 35.83547Q361.2075 36.038593 360.50436 36.038593Q358.12936 36.038593 358.0825 33.632343L358.0825 29.085468L356.8481 29.085468L356.8481 27.429218L358.0825 27.429218L358.0825 25.351093L360.3481 25.351093ZM365.02 35.882343L362.75436 35.882343L362.75436 27.429218L365.02 27.429218L365.02 35.882343ZM362.62936 25.241718Q362.62936 24.726093 362.9575 24.397968Q363.30124 24.069843 363.895 24.069843Q364.4731 24.069843 364.81686 24.397968Q365.1606 24.726093 365.1606 25.241718Q365.1606 25.757343 364.80124 26.085468Q364.4575 26.413593 363.87936 26.413593Q363.31686 26.413593 362.9731 26.085468Q362.62936 25.757343 362.62936 25.241718ZM366.2856 31.569843Q366.2856 30.319843 366.77 29.335468Q367.25436 28.351093 368.1606 27.819843Q369.0825 27.272968 370.2856 27.272968Q371.98874 27.272968 373.06686 28.319843Q374.1606 29.366718 374.2856 31.163593L374.30124 31.741718Q374.30124 33.67922 373.2075 34.86672Q372.12936 36.038593 370.30124 36.038593Q368.4731 36.038593 367.37936 34.86672Q366.2856 33.694843 366.2856 31.679218L366.2856 31.569843ZM368.55124 31.741718Q368.55124 32.944843 369.00436 33.58547Q369.4575 34.21047 370.30124 34.21047Q371.11374 34.21047 371.56686 33.58547Q372.0356 32.96047 372.0356 31.569843Q372.0356 30.397968 371.56686 29.757343Q371.11374 29.101093 370.2856 29.101093Q369.4575 29.101093 369.00436 29.741718Q368.55124 30.382343 368.55124 31.741718ZM377.7231 27.429218L377.7856 28.397968Q378.69186 27.272968 380.2231 27.272968Q381.56686 27.272968 382.2231 28.069843Q382.87936 28.851093 382.895 30.413593L382.895 35.882343L380.62936 35.882343L380.62936 30.476093Q380.62936 29.757343 380.31686 29.429218Q380.00436 29.101093 379.2856 29.101093Q378.3325 29.101093 377.8481 29.913593L377.8481 35.882343L375.5981 35.882343L375.5981 27.429218L377.7231 27.429218ZM389.2231 33.538593Q389.2231 33.132343 388.80124 32.89797Q388.395 32.64797 387.48874 32.46047Q384.4731 31.835468 384.4731 29.897968Q384.4731 28.772968 385.4106 28.022968Q386.3481 27.272968 387.8481 27.272968Q389.4575 27.272968 390.42624 28.038593Q391.395 28.788593 391.395 29.991718L389.12936 29.991718Q389.12936 29.507343 388.81686 29.194843Q388.50436 28.882343 387.8481 28.882343Q387.27 28.882343 386.9575 29.147968Q386.645 29.397968 386.645 29.788593Q386.645 30.163593 387.00436 30.397968Q387.36374 30.632343 388.2075 30.804218Q389.05124 30.960468 389.62936 31.179218Q391.4106 31.835468 391.4106 33.444843Q391.4106 34.601093 390.4106 35.319843Q389.42624 36.038593 387.86374 36.038593Q386.80124 36.038593 385.9731 35.663593Q385.145 35.27297 384.67624 34.61672Q384.2075 33.96047 384.2075 33.194843L386.3481 33.194843Q386.37936 33.788593 386.7856 34.11672Q387.2075 34.42922 387.9106 34.42922Q388.55124 34.42922 388.87936 34.194843Q389.2231 33.944843 389.2231 33.538593ZM400.1606 34.21047Q400.7856 34.21047 401.17624 33.86672Q401.56686 33.52297 401.5825 32.96047L403.69186 32.96047Q403.69186 33.819843 403.2231 34.538593Q402.77 35.24172 401.9575 35.64797Q401.1606 36.038593 400.19186 36.038593Q398.37936 36.038593 397.3325 34.882343Q396.2856 33.726093 396.2856 31.694843L396.2856 31.554218Q396.2856 29.601093 397.31686 28.444843Q398.36374 27.272968 400.17624 27.272968Q401.77 27.272968 402.7231 28.179218Q403.67624 29.069843 403.69186 30.569843L401.5825 30.569843Q401.56686 29.913593 401.17624 29.507343Q400.7856 29.101093 400.145 29.101093Q399.3481 29.101093 398.94186 29.679218Q398.55124 30.241718 398.55124 31.538593L398.55124 31.772968Q398.55124 33.069843 398.94186 33.64797Q399.3481 34.21047 400.1606 34.21047ZM409.7075 35.02297Q408.86374 36.038593 407.395 36.038593Q406.0356 36.038593 405.31686 35.257343Q404.5981 34.476093 404.5825 32.96047L404.5825 27.429218L406.8481 27.429218L406.8481 32.882343Q406.8481 34.21047 408.05124 34.21047Q409.19186 34.21047 409.62936 33.413593L409.62936 27.429218L411.895 27.429218L411.895 35.882343L409.77 35.882343L409.7075 35.02297ZM416.02 35.882343L413.75436 35.882343L413.75436 23.882343L416.02 23.882343L416.02 35.882343ZM420.3481 25.351093L420.3481 27.429218L421.7856 27.429218L421.7856 29.085468L420.3481 29.085468L420.3481 33.30422Q420.3481 33.77297 420.52 33.976093Q420.7075 34.17922 421.2075 34.17922Q421.5825 34.17922 421.87936 34.11672L421.87936 35.83547Q421.2075 36.038593 420.50436 36.038593Q418.12936 36.038593 418.0825 33.632343L418.0825 29.085468L416.8481 29.085468L416.8481 27.429218L418.0825 27.429218L418.0825 25.351093L420.3481 25.351093ZM427.7075 35.02297Q426.86374 36.038593 425.395 36.038593Q424.0356 36.038593 423.31686 35.257343Q422.5981 34.476093 422.5825 32.96047L422.5825 27.429218L424.8481 27.429218L424.8481 32.882343Q424.8481 34.21047 426.05124 34.21047Q427.19186 34.21047 427.62936 33.413593L427.62936 27.429218L429.895 27.429218L429.895 35.882343L427.77 35.882343L427.7075 35.02297ZM436.395 29.538593Q435.92624 29.476093 435.5825 29.476093Q434.30124 29.476093 433.895 30.351093L433.895 35.882343L431.645 35.882343L431.645 27.429218L433.77 27.429218L433.8325 28.429218Q434.52 27.272968 435.7231 27.272968Q436.0981 27.272968 436.42624 27.366718L436.395 29.538593ZM441.5356 36.038593Q439.67624 36.038593 438.50436 34.89797Q437.3325 33.757343 437.3325 31.851093L437.3325 31.632343Q437.3325 30.366718 437.81686 29.366718Q438.31686 28.351093 439.2231 27.819843Q440.12936 27.272968 441.2856 27.272968Q443.02 27.272968 444.00436 28.366718Q445.00436 29.460468 445.00436 31.460468L445.00436 32.382343L439.62936 32.382343Q439.73874 33.21047 440.2856 33.71047Q440.8325 34.21047 441.67624 34.21047Q442.98874 34.21047 443.7231 33.27297L444.8325 34.507343Q444.31686 35.226093 443.44186 35.632343Q442.5825 36.038593 441.5356 36.038593ZM441.27 29.101093Q440.5981 29.101093 440.17624 29.554218Q439.77 30.007343 439.645 30.851093L442.7856 30.851093L442.7856 30.663593Q442.77 29.913593 442.37936 29.507343Q441.98874 29.101093 441.27 29.101093ZM448.48874 32.382343Q448.48874 31.288593 448.75436 30.647968Q449.02 29.991718 449.7231 29.366718Q450.42624 28.741718 450.6606 28.351093Q450.895 27.944843 450.895 27.507343Q450.895 26.194843 449.67624 26.194843Q449.0981 26.194843 448.75436 26.554218Q448.4106 26.897968 448.395 27.522968L446.12936 27.522968Q446.145 26.038593 447.0825 25.194843Q448.0356 24.351093 449.67624 24.351093Q451.3325 24.351093 452.23874 25.147968Q453.1606 25.944843 453.1606 27.413593Q453.1606 28.069843 452.86374 28.663593Q452.56686 29.257343 451.8325 29.976093L451.19186 30.569843Q450.5981 31.147968 450.52 31.913593L450.48874 32.382343L448.48874 32.382343ZM448.25436 34.788593Q448.25436 34.257343 448.61374 33.92922Q448.9731 33.58547 449.52 33.58547Q450.0825 33.58547 450.42624 33.92922Q450.7856 34.257343 450.7856 34.788593Q450.7856 35.30422 450.44186 35.64797Q450.0981 35.976093 449.52 35.976093Q448.9575 35.976093 448.5981 35.64797Q448.25436 35.30422 448.25436 34.788593Z" fill-rule="nonzero"/></svg>