<svg fill="none" stroke-linecap="square" stroke-miterlimit="10" width="531" height="377" xmlns="http://www.w3.org/2000/svg"><path fill="#fff" d="M0 0h531v377H0V0Z"/><path fill="#fce5cd" d="M265.5 86.883c27.258 0 53.884 8.213 76.405 23.568L265.5 222.516Z"/><path fill="#f6b26b" d="M341.905 110.45c55.442 37.8 74.911 110.46 45.797 170.916-29.115 60.456-98.06 90.537-162.18 70.758-64.121-19.778-104.142-83.47-94.14-149.823 10-66.352 67.016-115.418 134.118-115.418v135.633Z"/><path fill="#1a1a1a" d="M24.12 337.15h-1.766l-3.422-5.61v5.61h-1.75v-8.531h1.75l3.438 5.625v-5.625h1.75v8.531Zm.687-3.234q0-.938.36-1.672.36-.75 1.047-1.14.687-.407 1.578-.407 1.297 0 2.093.781.813.781.907 2.125l.015.438q0 1.468-.812 2.359-.813.875-2.188.875-1.375 0-2.187-.875-.813-.89-.813-2.406v-.078Zm1.688.125q0 .906.344 1.39.343.469.968.469t.97-.469q.343-.469.343-1.515 0-.875-.344-1.36-.344-.5-.984-.5-.61 0-.953.485-.344.484-.344 1.5Z"/><path fill="#9e9e9e" d="M20.964 351.744q-.672.64-1.547.64-1.14 0-1.828-.765-.672-.782-.672-2.094 0-.844.36-1.547.374-.703 1.03-1.094.657-.39 1.485-.39.843 0 1.5.422.656.421 1.015 1.218.36.797.375 1.813v.625q0 2.14-1.062 3.36-1.063 1.218-3.016 1.296h-.406v-1.406l.375-.016q2.203-.094 2.39-2.062Zm-1.141-.657q.422 0 .703-.203.297-.218.453-.515v-.688q0-.86-.328-1.328-.328-.484-.875-.484-.515 0-.844.468-.328.454-.328 1.157 0 .703.313 1.156.328.438.906.438Zm9.922.532q0 1.765-.735 2.718-.734.938-2.14.938-1.406 0-2.14-.922-.735-.922-.75-2.64v-1.579q0-1.78.734-2.703.75-.937 2.14-.937 1.39 0 2.125.922.75.921.766 2.64v1.563Zm-1.703-1.719q0-1.063-.297-1.547-.281-.484-.89-.484-.595 0-.891.468-.282.454-.297 1.438v2.063q0 1.046.281 1.562.281.5.922.5.61 0 .89-.484.282-.485.282-1.485V349.9Zm3.11 4.422q0-.406.265-.656.281-.25.687-.25.422 0 .688.25.281.25.281.656 0 .39-.281.64-.266.25-.688.25-.406 0-.687-.25-.266-.25-.266-.64Zm3.093-3.375.5-4.328h4.781v1.406h-3.39l-.22 1.844q.61-.328 1.282-.328 1.219 0 1.906.765.703.75.703 2.11 0 .828-.359 1.484-.344.64-1 1.016-.64.359-1.531.359-.766 0-1.438-.313-.656-.328-1.047-.89-.375-.563-.406-1.297h1.688q.046.531.359.828.328.297.844.297.578 0 .875-.406.312-.422.312-1.172 0-.735-.36-1.11-.343-.39-1-.39-.609 0-.984.312l-.156.157-1.36-.344Zm6.734-2.688q0-.78.5-1.265.516-.5 1.344-.5.828 0 1.344.484.515.484.515 1.313v.421q0 .782-.515 1.266-.516.484-1.328.484-.844 0-1.36-.484-.5-.484-.5-1.297v-.422Zm1.125.453q0 .344.203.563.203.219.532.219.328 0 .515-.219.188-.219.188-.578v-.438q0-.359-.188-.562-.187-.219-.531-.219-.328 0-.531.219-.188.203-.188.578v.438Zm2.953 4.344q0-.797.516-1.265.516-.485 1.328-.485.828 0 1.344.485.515.468.515 1.296v.422q0 .797-.5 1.282-.5.484-1.343.484-.844 0-1.36-.484-.5-.5-.5-1.297v-.438Zm1.125.453q0 .328.203.563.22.219.532.219.718 0 .718-.782v-.453q0-.344-.203-.562-.203-.219-.53-.219-.329 0-.532.219-.188.218-.188.578v.437Zm-3.015 1-.828-.437 4.171-6.672.829.438-4.172 6.671Z"/><path stroke="#757575" stroke-linecap="butt" d="M16.417 341.65h107.45l103.653 3.994"/><path fill="#9e9e9e" d="M229.52 345.644a2 2 0 1 0-4 0 2 2 0 0 0 4 0"/><path fill="#1a1a1a" d="m499.286 94.195 1.782-3.843h1.922l-2.813 5.437v3.094h-1.781v-3.094l-2.797-5.438h1.922l1.765 3.844Zm6.86 4.813q-1.39 0-2.266-.86-.875-.859-.875-2.28v-.173q0-.953.36-1.703.375-.75 1.046-1.156.688-.406 1.547-.406 1.313 0 2.047.828.75.812.75 2.312v.688h-4.031q.078.625.484 1 .422.375 1.063.375.969 0 1.515-.703l.844.921q-.39.547-1.047.86-.64.297-1.437.297Zm-.188-5.219q-.5 0-.812.344-.313.344-.406.969h2.359v-.126q-.016-.562-.313-.874-.28-.313-.828-.313Zm6.703 3.344q0-.313-.312-.485-.297-.187-.969-.328-2.265-.468-2.265-1.922 0-.843.687-1.406.703-.562 1.844-.562 1.203 0 1.922.562.734.563.734 1.484h-1.703q0-.374-.235-.609-.234-.234-.734-.234-.422 0-.656.203-.234.187-.234.484 0 .282.265.453.266.172.89.297.641.125 1.079.282 1.344.5 1.344 1.703 0 .875-.75 1.421-.735.532-1.922.532-.797 0-1.422-.281-.61-.297-.969-.782-.344-.5-.344-1.078h1.61q.015.453.328.703.312.235.828.235.5 0 .734-.188.25-.187.25-.484Z"/><path fill="#9e9e9e" d="M493.13 113.477q-.672.64-1.547.64-1.14 0-1.828-.766-.672-.78-.672-2.093 0-.844.36-1.547.375-.703 1.03-1.094.657-.39 1.485-.39.844 0 1.5.421.656.422 1.016 1.22.36.796.375 1.812v.625q0 2.14-1.063 3.359-1.062 1.219-3.015 1.297h-.406v-1.406l.375-.016q2.203-.094 2.39-2.063Zm-1.14-.657q.421 0 .703-.203.297-.219.453-.516v-.687q0-.86-.328-1.328-.328-.484-.875-.484-.516 0-.844.468-.328.453-.328 1.157 0 .703.312 1.156.328.437.906.437Zm4.328 3.235q0-.407.265-.657.281-.25.688-.25.422 0 .687.25.281.25.281.657 0 .39-.28.64-.266.25-.688.25-.406 0-.688-.25-.265-.25-.265-.64Zm3.093-3.375.5-4.329h4.782v1.407h-3.391l-.219 1.844q.61-.329 1.281-.329 1.22 0 1.907.766.703.75.703 2.11 0 .828-.36 1.484-.343.64-1 1.015-.64.36-1.53.36-.766 0-1.438-.313-.656-.328-1.047-.89-.375-.563-.406-1.297h1.687q.047.531.36.828.328.297.843.297.578 0 .875-.406.313-.422.313-1.172 0-.735-.36-1.11-.343-.39-1-.39-.609 0-.984.312l-.156.156-1.36-.343Zm6.735-2.688q0-.781.5-1.266.515-.5 1.344-.5.828 0 1.343.485.516.484.516 1.312v.422q0 .782-.516 1.266-.515.484-1.328.484-.844 0-1.36-.484-.5-.484-.5-1.297v-.422Zm1.125.453q0 .344.203.563.203.219.531.219t.516-.22q.187-.218.187-.577v-.438q0-.36-.187-.562-.188-.22-.531-.22-.329 0-.532.22-.187.203-.187.578v.437Zm2.953 4.344q0-.797.516-1.266.515-.484 1.328-.484.828 0 1.343.484.516.47.516 1.297v.422q0 .797-.5 1.281-.5.485-1.344.485-.843 0-1.36-.485-.5-.5-.5-1.296v-.438Zm1.125.453q0 .328.203.563.219.218.531.218.719 0 .719-.78v-.454q0-.344-.203-.563-.203-.218-.531-.218t-.532.219q-.187.218-.187.578v.437Zm-3.016 1-.828-.437 4.172-6.672.828.437-4.172 6.672Z"/><path stroke="#757575" stroke-linecap="butt" d="M514.583 103.383h-107.45L303.48 99.389"/><path fill="#9e9e9e" d="M305.48 99.389a2 2 0 1 0-4 0 2 2 0 0 0 4 0"/><path fill="#757575" d="M45.438 31.506h-4.11l-.781 2.344h-2.484l4.234-11.375h2.172l4.25 11.375h-2.485l-.797-2.344Zm-3.47-1.906h2.844l-1.437-4.25-1.406 4.25Zm12.657-2.094q-.469-.062-.813-.062-1.28 0-1.687.875v5.531h-2.25v-8.453H52l.063 1q.687-1.156 1.89-1.156.375 0 .703.093l-.031 2.172Zm5.14 6.5q-1.859 0-3.03-1.14-1.172-1.141-1.172-3.047V29.6q0-1.266.484-2.266.5-1.015 1.406-1.547.906-.546 2.063-.546 1.734 0 2.718 1.093 1 1.094 1 3.094v.922H57.86q.11.828.657 1.328.547.5 1.39.5 1.313 0 2.047-.937l1.11 1.234q-.516.719-1.391 1.125-.86.406-1.906.406ZM59.5 27.07q-.672 0-1.094.453-.406.453-.531 1.297h3.14v-.188q-.015-.75-.406-1.156-.39-.406-1.109-.406Zm12.531 3.578 1.563-5.25h2.422l-3.407 9.766-.187.453q-.75 1.656-2.5 1.656-.484 0-1-.156v-1.703h.344q.64 0 .953-.204.328-.187.5-.64l.265-.688-2.953-8.484h2.422l1.578 5.25Zm4.485-1.11q0-1.25.484-2.234t1.39-1.516q.922-.546 2.126-.546 1.703 0 2.78 1.046 1.095 1.047 1.22 2.844l.015.578q0 1.938-1.094 3.125-1.078 1.172-2.906 1.172t-2.922-1.172q-1.093-1.172-1.093-3.187v-.11Zm2.265.172q0 1.203.453 1.844.454.625 1.297.625.813 0 1.266-.625.469-.625.469-2.016 0-1.171-.47-1.812-.452-.656-1.28-.656-.829 0-1.282.64-.453.641-.453 2Zm12.156 3.282q-.843 1.015-2.312 1.015-1.36 0-2.078-.781-.719-.781-.734-2.297v-5.531h2.265v5.453q0 1.328 1.203 1.328 1.14 0 1.578-.797v-5.984h2.266v8.453H91l-.063-.86Zm8.547.859v-6.797h-1.25v-1.656h1.25v-.719q0-1.422.813-2.203.828-.797 2.297-.797.469 0 1.14.156l-.015 1.75q-.281-.062-.688-.062-1.281 0-1.281 1.187v.688h1.688v1.656h-1.688v6.797h-2.266Zm10.282 0q-.157-.313-.22-.766-.827.922-2.14.922-1.234 0-2.062-.718-.813-.72-.813-1.813 0-1.344 1-2.063 1-.718 2.875-.734h1.047v-.484q0-.578-.312-.922-.297-.36-.938-.36-.578 0-.906.282-.313.265-.313.734h-2.265q0-.734.453-1.36.453-.624 1.281-.968.828-.36 1.86-.36 1.562 0 2.484.782.922.781.922 2.203v3.672q0 1.203.328 1.812v.141h-2.281Zm-1.86-1.578q.5 0 .922-.219.422-.219.625-.594v-1.453h-.844q-1.703 0-1.812 1.172v.125q0 .422.297.703.297.266.812.266Zm8.078-6.875.079.937q.89-1.093 2.421-1.093 1.641 0 2.25 1.28.891-1.28 2.532-1.28 1.375 0 2.046.796.672.797.672 2.407v5.406h-2.265v-5.39q0-.72-.281-1.048-.282-.343-.985-.343-1.016 0-1.406.968v5.813h-2.25v-5.39q0-.735-.297-1.063-.281-.328-.984-.328-.954 0-1.391.797v5.984h-2.25v-8.453h2.11Zm14.266 8.453h-2.266v-8.453h2.266v8.453Zm-2.39-10.64q0-.516.328-.844.343-.329.937-.329.578 0 .922.329.344.328.344.843 0 .516-.36.844-.344.328-.922.328-.562 0-.906-.328t-.344-.844Zm6.39 10.64h-2.266v-12h2.266v12Zm4 0h-2.266v-8.453h2.266v8.453Zm-2.39-10.64q0-.516.327-.844.344-.329.938-.329.578 0 .922.329.344.328.344.843 0 .516-.36.844-.344.328-.922.328-.562 0-.906-.328t-.344-.844Zm8.906 10.64q-.157-.313-.22-.766-.827.922-2.14.922-1.234 0-2.062-.718-.813-.72-.813-1.813 0-1.344 1-2.063 1-.718 2.875-.734h1.047v-.484q0-.578-.312-.922-.297-.36-.938-.36-.578 0-.906.282-.313.265-.313.734h-2.265q0-.734.453-1.36.453-.624 1.281-.968.828-.36 1.86-.36 1.562 0 2.484.782.922.781.922 2.203v3.672q0 1.203.328 1.812v.141h-2.281Zm-1.86-1.578q.5 0 .922-.219.422-.219.625-.594v-1.453h-.844q-1.703 0-1.812 1.172v.125q0 .422.297.703.297.266.812.266Zm10.719-4.766q-.469-.062-.813-.062-1.28 0-1.687.875v5.531h-2.25v-8.453H151l.063 1q.687-1.156 1.89-1.156.375 0 .703.093l-.031 2.172Zm12.594 3.266 1.11-5.375h2.187l-2.157 8.453h-1.89l-1.61-5.328-1.593 5.328h-1.891l-2.156-8.453h2.187l1.094 5.375 1.547-5.375h1.64l1.532 5.375Zm7.031 3.078h-2.266v-8.453h2.266v8.453Zm-2.39-10.64q0-.516.327-.844.344-.329.938-.329.578 0 .922.329.344.328.344.843 0 .516-.36.844-.344.328-.922.328-.562 0-.906-.328t-.344-.844Zm6.718.109v2.078h1.438v1.656h-1.438v4.219q0 .469.172.672.188.203.688.203.375 0 .671-.063v1.72q-.672.202-1.375.202-2.375 0-2.422-2.406v-4.547h-1.234v-1.656h1.234v-2.078h2.266Zm4.5 3q.89-1.078 2.25-1.078 2.75 0 2.797 3.187v5.422h-2.266v-5.36q0-.718-.312-1.062-.313-.36-1.031-.36-1 0-1.438.766v6.016h-2.266v-12h2.266v4.469Zm15.688 7.531q-.157-.313-.22-.766-.827.922-2.14.922-1.234 0-2.062-.718-.813-.72-.813-1.813 0-1.344 1-2.063 1-.718 2.875-.734h1.047v-.484q0-.578-.312-.922-.297-.36-.938-.36-.578 0-.906.282-.313.265-.313.734h-2.265q0-.734.453-1.36.453-.624 1.281-.968.828-.36 1.86-.36 1.562 0 2.484.782.922.781.922 2.203v3.672q0 1.203.328 1.812v.141h-2.281Zm-1.86-1.578q.5 0 .922-.219.422-.219.625-.594v-1.453h-.844q-1.703 0-1.812 1.172v.125q0 .422.297.703.297.266.812.266Zm10.719-4.766q-.469-.062-.813-.062-1.28 0-1.687.875v5.531h-2.25v-8.453H204l.063 1q.687-1.156 1.89-1.156.375 0 .703.093l-.031 2.172Zm3.953-4.187v2.078h1.438v1.656h-1.438v4.219q0 .469.172.672.188.203.688.203.375 0 .671-.063v1.72q-.672.202-1.375.202-2.375 0-2.422-2.406v-4.547h-1.234v-1.656h1.234v-2.078h2.266Zm9.64 7.453 1.11-5.375h2.188l-2.157 8.453h-1.89l-1.61-5.328-1.593 5.328h-1.891l-2.156-8.453h2.187l1.094 5.375 1.547-5.375h1.64l1.532 5.375Zm4.298-1.235q0-1.25.484-2.234t1.39-1.516q.923-.546 2.126-.546 1.703 0 2.78 1.046 1.095 1.047 1.22 2.844l.015.578q0 1.938-1.094 3.125-1.078 1.172-2.906 1.172t-2.922-1.172q-1.093-1.172-1.093-3.187v-.11Zm2.265.172q0 1.203.453 1.844.453.625 1.297.625.813 0 1.266-.625.469-.625.469-2.016 0-1.171-.47-1.812-.452-.656-1.28-.656-.828 0-1.282.64-.453.641-.453 2Zm11.844-2.203q-.469-.062-.813-.062-1.28 0-1.687.875v5.531h-2.25v-8.453H236l.063 1q.687-1.156 1.89-1.156.375 0 .703.093l-.031 2.172Zm4.313 2.953-.813.813v2.578h-2.25v-12h2.25v6.64l.438-.562 2.171-2.531h2.703l-3.046 3.515 3.312 4.938h-2.594l-2.172-3.39Zm10.515 1.047q0-.406-.422-.64-.406-.25-1.312-.438-3.016-.625-3.016-2.562 0-1.125.938-1.875.937-.75 2.437-.75 1.61 0 2.578.765.969.75.969 1.953h-2.266q0-.484-.312-.797-.313-.312-.969-.312-.578 0-.89.266-.313.25-.313.64 0 .375.36.61.359.234 1.202.406.844.156 1.422.375 1.782.656 1.782 2.265 0 1.157-1 1.876-.985.718-2.547.718-1.063 0-1.89-.375-.829-.39-1.298-1.047-.469-.656-.469-1.422h2.141q.031.594.438.922.422.313 1.125.313.64 0 .968-.234.344-.25.344-.657Zm7.063-1.969q0-1.25.484-2.234t1.39-1.516q.923-.546 2.126-.546 1.703 0 2.78 1.046 1.095 1.047 1.22 2.844l.015.578q0 1.938-1.094 3.125-1.078 1.172-2.906 1.172t-2.922-1.172q-1.093-1.172-1.093-3.187v-.11Zm2.265.172q0 1.203.453 1.844.454.625 1.297.625.813 0 1.266-.625.469-.625.469-2.016 0-1.171-.47-1.812-.452-.656-1.28-.656-.829 0-1.282.64-.453.641-.453 2Zm12.156 3.282q-.843 1.015-2.312 1.015-1.36 0-2.078-.781-.719-.781-.735-2.297v-5.531h2.266v5.453q0 1.328 1.203 1.328 1.14 0 1.578-.797v-5.984h2.266v8.453H275l-.063-.86Zm6.641-9.672v2.078h1.438v1.656h-1.438v4.219q0 .469.172.672.188.203.688.203.375 0 .671-.063v1.72q-.671.202-1.375.202-2.375 0-2.421-2.406v-4.547h-1.235v-1.656h1.235v-2.078h2.265Zm6.875 8.187q0-.406-.422-.64-.406-.25-1.312-.438-3.016-.625-3.016-2.562 0-1.125.938-1.875.937-.75 2.437-.75 1.61 0 2.578.765.969.75.969 1.953h-2.266q0-.484-.312-.797-.313-.312-.969-.312-.578 0-.89.266-.313.25-.313.64 0 .375.36.61.359.234 1.202.406.844.156 1.422.375 1.782.656 1.782 2.265 0 1.157-1 1.876-.985.718-2.547.718-1.063 0-1.89-.375-.829-.39-1.298-1.047-.469-.656-.469-1.422h2.141q.031.594.438.922.421.313 1.125.313.64 0 .968-.234.344-.25.344-.657Zm5.797 2.344h-2.266v-8.453h2.266v8.453Zm-2.39-10.64q0-.516.327-.844.344-.329.938-.329.578 0 .922.329.344.328.344.843 0 .516-.36.844-.344.328-.922.328-.562 0-.906-.328t-.344-.844Zm3.656 6.343q0-1.969.89-3.14.89-1.172 2.422-1.172 1.235 0 2.047.921V21.85h2.266v12h-2.047l-.11-.906q-.843 1.062-2.171 1.062-1.485 0-2.391-1.172-.906-1.187-.906-3.28Zm2.265.172q0 1.187.406 1.828.422.625 1.204.625 1.046 0 1.484-.89v-3.329q-.422-.89-1.469-.89-1.625 0-1.625 2.656Zm10.985 4.281q-1.86 0-3.032-1.14-1.171-1.141-1.171-3.047V29.6q0-1.266.484-2.266.5-1.015 1.406-1.547.906-.546 2.063-.546 1.734 0 2.718 1.093 1 1.094 1 3.094v.922h-5.375q.11.828.657 1.328.546.5 1.39.5 1.313 0 2.047-.937l1.11 1.234q-.516.719-1.391 1.125-.86.406-1.906.406Zm-.266-6.937q-.672 0-1.094.453-.406.453-.531 1.297h3.14v-.188q-.015-.75-.406-1.156-.39-.406-1.109-.406Zm9.016 2.468q0-1.25.484-2.234t1.39-1.516q.923-.546 2.126-.546 1.703 0 2.78 1.046 1.095 1.047 1.22 2.844l.015.578q0 1.938-1.094 3.125-1.078 1.172-2.906 1.172t-2.922-1.172q-1.093-1.172-1.093-3.187v-.11Zm2.265.172q0 1.203.453 1.844.454.625 1.297.625.813 0 1.266-.625.469-.625.469-2.016 0-1.171-.47-1.812-.452-.656-1.28-.656-.829 0-1.282.64-.453.641-.453 2Zm7.703 4.141v-6.797h-1.25v-1.656h1.25v-.719q0-1.422.813-2.203.828-.797 2.297-.797.469 0 1.14.156l-.015 1.75q-.281-.062-.688-.062-1.281 0-1.281 1.187v.688h1.688v1.656h-1.688v6.797h-2.266Zm12.094-10.531v2.078h1.438v1.656h-1.438v4.219q0 .469.172.672.188.203.688.203.375 0 .671-.063v1.72q-.671.202-1.375.202-2.375 0-2.421-2.406v-4.547h-1.235v-1.656h1.235v-2.078h2.265Zm7.047 4.187q-.469-.062-.813-.062-1.28 0-1.687.875v5.531h-2.25v-8.453H344l.063 1q.687-1.156 1.89-1.156.375 0 .703.093l-.031 2.172Zm6.14 6.344q-.156-.313-.218-.766-.828.922-2.14.922-1.235 0-2.063-.718-.813-.72-.813-1.813 0-1.344 1-2.063 1-.718 2.875-.734h1.047v-.484q0-.578-.312-.922-.297-.36-.938-.36-.578 0-.906.282-.313.265-.313.734h-2.265q0-.734.453-1.36.453-.624 1.281-.968.828-.36 1.86-.36 1.562 0 2.484.782.922.781.922 2.203v3.672q0 1.203.328 1.812v.141h-2.281Zm-1.859-1.578q.5 0 .922-.219.422-.219.625-.594v-1.453h-.844q-1.703 0-1.812 1.172v.125q0 .422.297.703.297.266.812.266Zm5.61-2.719q0-1.969.89-3.14.89-1.172 2.422-1.172 1.235 0 2.047.921V21.85h2.266v12h-2.047l-.11-.906q-.843 1.062-2.171 1.062-1.485 0-2.391-1.172-.906-1.187-.906-3.28Zm2.265.172q0 1.187.406 1.828.422.625 1.204.625 1.046 0 1.484-.89v-3.329q-.422-.89-1.469-.89-1.625 0-1.625 2.656Zm9.469 4.125h-2.266v-8.453h2.266v8.453Zm-2.39-10.64q0-.516.327-.844.344-.329.938-.329.578 0 .922.329.344.328.344.843 0 .516-.36.844-.344.328-.922.328-.562 0-.906-.328t-.344-.844Zm6.718.109v2.078h1.438v1.656h-1.438v4.219q0 .469.172.672.188.203.688.203.375 0 .671-.063v1.72q-.671.202-1.375.202-2.375 0-2.421-2.406v-4.547h-1.235v-1.656h1.235v-2.078h2.265Zm4.672 10.531h-2.266v-8.453h2.266v8.453Zm-2.39-10.64q0-.516.327-.844.344-.329.938-.329.578 0 .922.329.344.328.344.843 0 .516-.36.844-.344.328-.922.328-.562 0-.906-.328t-.344-.844Zm3.656 6.327q0-1.25.484-2.234t1.39-1.516q.923-.546 2.126-.546 1.703 0 2.78 1.046 1.095 1.047 1.22 2.844l.015.578q0 1.938-1.094 3.125-1.078 1.172-2.906 1.172t-2.922-1.172q-1.093-1.172-1.093-3.187v-.11Zm2.265.172q0 1.203.453 1.844.454.625 1.297.625.813 0 1.266-.625.469-.625.469-2.016 0-1.171-.47-1.812-.452-.656-1.28-.656-.829 0-1.282.64-.453.641-.453 2Zm9.172-4.312.063.969q.906-1.125 2.437-1.125 1.344 0 2 .796.656.782.672 2.344v5.469h-2.266v-5.406q0-.719-.312-1.047-.313-.328-1.031-.328-.954 0-1.438.812v5.969h-2.25v-8.453h2.125Zm11.813 8.453q-.157-.313-.22-.766-.827.922-2.14.922-1.234 0-2.062-.718-.813-.72-.813-1.813 0-1.344 1-2.063 1-.718 2.875-.734h1.047v-.484q0-.578-.312-.922-.297-.36-.938-.36-.578 0-.906.282-.313.265-.313.734h-2.265q0-.734.453-1.36.453-.624 1.281-.968.828-.36 1.86-.36 1.562 0 2.484.782.922.781.922 2.203v3.672q0 1.203.328 1.812v.141h-2.281Zm-1.86-1.578q.5 0 .922-.219.422-.219.625-.594v-1.453h-.844q-1.703 0-1.812 1.172v.125q0 .422.297.703.297.266.812.266Zm8.344 1.578h-2.266v-12h2.266v12Zm8.266 0h-2.344V22.475h2.344V33.85Zm4.437-8.453.063.969q.906-1.125 2.437-1.125 1.344 0 2 .796.656.782.672 2.344v5.469h-2.266v-5.406q0-.719-.312-1.047-.313-.328-1.031-.328-.954 0-1.438.812v5.969h-2.25v-8.453h2.125Zm6.563 4.156q0-1.969.89-3.14.89-1.172 2.422-1.172 1.235 0 2.047.921V21.85h2.266v12h-2.047l-.11-.906q-.843 1.062-2.171 1.062-1.485 0-2.391-1.172-.906-1.187-.906-3.28Zm2.265.172q0 1.187.406 1.828.422.625 1.204.625 1.046 0 1.484-.89v-3.329q-.422-.89-1.469-.89-1.625 0-1.625 2.656Zm9.469 4.125h-2.266v-8.453h2.266v8.453Zm-2.39-10.64q0-.516.327-.844.344-.329.938-.329.578 0 .922.329.344.328.344.843 0 .516-.36.844-.344.328-.922.328-.562 0-.906-.328t-.344-.844Zm3.687 6.343q0-1.937.922-3.125.922-1.187 2.5-1.187 1.39 0 2.156.953l.094-.797h2.047v8.172q0 1.11-.5 1.922-.5.828-1.422 1.25-.906.437-2.14.437-.923 0-1.813-.375-.875-.36-1.329-.953l1-1.375q.844.953 2.047.953.891 0 1.391-.484.5-.485.5-1.375v-.453q-.781.89-2.047.89-1.531 0-2.469-1.187-.937-1.203-.937-3.172v-.094Zm2.25.172q0 1.14.453 1.797.469.656 1.281.656 1.031 0 1.469-.781V27.85q-.453-.781-1.453-.781-.813 0-1.281.672-.47.656-.47 1.984Zm10.969 4.281q-1.86 0-3.032-1.14-1.171-1.141-1.171-3.047V29.6q0-1.266.484-2.266.5-1.015 1.406-1.547.906-.546 2.063-.546 1.734 0 2.718 1.093 1 1.094 1 3.094v.922h-5.375q.11.828.657 1.328.546.5 1.39.5 1.313 0 2.047-.937l1.11 1.234q-.516.719-1.391 1.125-.86.406-1.906.406Zm-.266-6.937q-.672 0-1.094.453-.406.453-.531 1.297h3.14v-.188q-.015-.75-.406-1.156-.39-.406-1.109-.406Zm7.453-1.672.063.969q.906-1.125 2.437-1.125 1.344 0 2 .796.656.782.672 2.344v5.469h-2.266v-5.406q0-.719-.312-1.047-.313-.328-1.031-.328-.954 0-1.438.812v5.969h-2.25v-8.453h2.125Zm6.563 4.14q0-1.25.484-2.234t1.39-1.516q.923-.546 2.126-.546 1.703 0 2.78 1.046 1.095 1.047 1.22 2.844l.015.578q0 1.938-1.094 3.125-1.078 1.172-2.906 1.172t-2.922-1.172q-1.093-1.172-1.093-3.187v-.11Zm2.265.172q0 1.203.453 1.844.454.625 1.297.625.813 0 1.266-.625.469-.625.469-2.016 0-1.171-.47-1.812-.452-.656-1.28-.656-.829 0-1.282.64-.453.641-.453 2Zm12.156 3.282q-.843 1.015-2.312 1.015-1.36 0-2.078-.781-.719-.781-.735-2.297v-5.531h2.266v5.453q0 1.328 1.203 1.328 1.14 0 1.578-.797v-5.984h2.266v8.453H482l-.063-.86Zm8.516-1.485q0-.406-.422-.64-.406-.25-1.312-.438-3.016-.625-3.016-2.562 0-1.125.938-1.875.937-.75 2.437-.75 1.61 0 2.578.765.969.75.969 1.953h-2.266q0-.484-.312-.797-.313-.312-.969-.312-.578 0-.89.266-.313.25-.313.64 0 .375.36.61.359.234 1.202.406.844.156 1.422.375 1.782.656 1.782 2.265 0 1.157-1 1.876-.985.718-2.547.718-1.063 0-1.89-.375-.829-.39-1.298-1.047-.469-.656-.469-1.422h2.141q.031.594.438.922.421.313 1.125.313.64 0 .968-.234.344-.25.344-.657ZM235.266 52.85q-.157-.313-.22-.766-.827.922-2.14.922-1.234 0-2.062-.718-.813-.72-.813-1.813 0-1.344 1-2.063 1-.718 2.875-.734h1.047v-.484q0-.578-.312-.922-.297-.36-.938-.36-.578 0-.906.282-.313.265-.313.734h-2.265q0-.734.453-1.36.453-.624 1.281-.968.828-.36 1.86-.36 1.562 0 2.484.782.922.781.922 2.203v3.672q0 1.203.328 1.812v.141h-2.281Zm-1.86-1.578q.5 0 .922-.219.422-.219.625-.594v-1.453h-.844q-1.703 0-1.812 1.172v.125q0 .422.297.703.297.266.812.266Zm10.719-4.766q-.469-.062-.813-.062-1.28 0-1.687.875v5.531h-2.25v-8.453h2.125l.063 1q.687-1.156 1.89-1.156.375 0 .703.093l-.031 2.172Zm3.953-4.187v2.078h1.438v1.656h-1.438v4.219q0 .469.172.672.188.203.688.203.375 0 .671-.063v1.72q-.672.202-1.375.202-2.375 0-2.422-2.406v-4.547h-1.234v-1.656h1.234v-2.078h2.266Zm9.64 7.453 1.11-5.375h2.188l-2.157 8.453h-1.89l-1.61-5.328-1.593 5.328h-1.891l-2.156-8.453h2.187L253 49.772l1.547-5.375h1.64l1.532 5.375Zm4.298-1.234q0-1.25.484-2.235.484-.984 1.39-1.515.923-.547 2.126-.547 1.703 0 2.78 1.047 1.095 1.046 1.22 2.843l.015.578q0 1.938-1.094 3.125-1.078 1.172-2.906 1.172t-2.922-1.172q-1.093-1.172-1.093-3.187v-.11Zm2.265.171q0 1.203.453 1.844.454.625 1.297.625.813 0 1.266-.625.469-.625.469-2.015 0-1.172-.47-1.813-.452-.656-1.28-.656-.829 0-1.282.64-.453.641-.453 2Zm11.844-2.203q-.469-.062-.813-.062-1.28 0-1.687.875v5.531h-2.25v-8.453h2.125l.063 1q.687-1.156 1.89-1.156.375 0 .703.093l-.031 2.172Zm4.313 2.953-.813.813v2.578h-2.25v-12h2.25v6.64l.438-.562 2.171-2.531h2.704l-3.047 3.516 3.312 4.937h-2.594l-2.171-3.39Zm10.515 1.047q0-.406-.422-.64-.406-.25-1.312-.438-3.016-.625-3.016-2.562 0-1.125.938-1.875.937-.75 2.437-.75 1.61 0 2.578.765.969.75.969 1.953h-2.266q0-.484-.312-.797-.313-.312-.969-.312-.578 0-.89.266-.313.25-.313.64 0 .375.36.61.359.234 1.202.406.844.156 1.422.375 1.782.656 1.782 2.266 0 1.156-1 1.875-.985.718-2.547.718-1.063 0-1.89-.375-.829-.39-1.298-1.047-.469-.656-.469-1.422h2.141q.031.594.438.922.421.313 1.125.313.64 0 .968-.234.344-.25.344-.657Zm5.266-1.156q0-1.094.265-1.734.266-.657.97-1.282.702-.625.937-1.015.234-.407.234-.844 0-1.313-1.219-1.313-.578 0-.922.36-.343.344-.359.969h-2.266q.016-1.485.954-2.328.953-.844 2.593-.844 1.656 0 2.563.797.922.797.922 2.265 0 .657-.297 1.25-.297.594-1.031 1.313l-.641.593q-.594.579-.672 1.344l-.031.469h-2Zm-.235 2.406q0-.531.36-.86.36-.343.906-.343.563 0 .906.344.36.328.36.86 0 .515-.344.859-.344.328-.922.328-.563 0-.922-.328-.344-.344-.344-.86Z"/></svg>