<svg width="911" height="308" viewBox="0 0 911 308" fill="none" xmlns="http://www.w3.org/2000/svg">
<path d="M15.6453 56.6802C13.2267 56.6802 10.8081 56.2456 8.38949 55.3765C6.00869 54.4695 3.87352 53.1279 1.984 51.3518L6.7456 45.6265C8.06827 46.7602 9.5232 47.6861 11.1104 48.4041C12.7354 49.1221 14.3226 49.4811 15.872 49.4811C17.6104 49.4811 18.8952 49.1599 19.7266 48.5175C20.5958 47.875 21.0304 47.0059 21.0304 45.9099C21.0304 45.3431 20.8981 44.8518 20.6336 44.4361C20.4069 44.0204 20.0478 43.6614 19.5566 43.3591C19.1031 43.019 18.5362 42.7166 17.856 42.4521C17.2136 42.1498 16.4955 41.8286 15.7019 41.4885L10.8837 39.4478C9.9389 39.0699 9.01303 38.5786 8.10606 37.9739C7.23688 37.3693 6.44328 36.6702 5.72526 35.8766C5.04503 35.0452 4.49707 34.1004 4.08137 33.0423C3.66568 31.9464 3.45783 30.7182 3.45783 29.3577C3.45783 27.8461 3.77905 26.4289 4.42149 25.1063C5.06392 23.7458 5.9709 22.5743 7.1424 21.5918C8.31391 20.5714 9.69326 19.7778 11.2805 19.211C12.9054 18.6441 14.6816 18.3607 16.6089 18.3607C18.763 18.3607 20.8792 18.7764 22.9577 19.6078C25.074 20.4392 26.9257 21.6485 28.5129 23.2357L24.2615 28.5074C23.0522 27.5627 21.8429 26.8446 20.6336 26.3534C19.4243 25.8243 18.0827 25.5598 16.6089 25.5598C15.1729 25.5598 14.0203 25.8621 13.1511 26.4667C12.3197 27.0336 11.904 27.8461 11.904 28.9042C11.904 29.4711 12.0363 29.9624 12.3008 30.3781C12.6031 30.756 12.9999 31.115 13.4912 31.4551C14.0203 31.7574 14.6249 32.0597 15.3051 32.3621C15.9854 32.6266 16.7223 32.9289 17.5159 33.269L22.2775 35.1963C24.5449 36.1033 26.3211 37.3504 27.6059 38.9376C28.9286 40.5248 29.5899 42.6222 29.5899 45.2297C29.5899 46.7791 29.2687 48.253 28.6263 49.6512C28.0216 51.0117 27.1147 52.221 25.9054 53.2791C24.7339 54.2994 23.2789 55.1308 21.5406 55.7733C19.8022 56.3779 17.8371 56.6802 15.6453 56.6802ZM47.2568 56.6802C45.4807 56.6802 43.7612 56.359 42.0984 55.7166C40.4357 55.0363 38.9618 54.0727 37.677 52.8256C36.4299 51.5785 35.4284 50.048 34.6726 48.2341C33.9168 46.3823 33.5389 44.285 33.5389 41.9419C33.5389 39.5989 33.9168 37.5205 34.6726 35.7065C35.4284 33.8548 36.4299 32.3054 37.677 31.0583C38.9618 29.8112 40.4357 28.8664 42.0984 28.224C43.7612 27.5438 45.4807 27.2037 47.2568 27.2037C49.033 27.2037 50.7336 27.5438 52.3586 28.224C54.0213 28.8664 55.4763 29.8112 56.7234 31.0583C58.0082 32.3054 59.0286 33.8548 59.7844 35.7065C60.5402 37.5205 60.9181 39.5989 60.9181 41.9419C60.9181 44.285 60.5402 46.3823 59.7844 48.2341C59.0286 50.048 58.0082 51.5785 56.7234 52.8256C55.4763 54.0727 54.0213 55.0363 52.3586 55.7166C50.7336 56.359 49.033 56.6802 47.2568 56.6802ZM47.2568 49.9346C48.9574 49.9346 50.2423 49.2166 51.1115 47.7806C51.9807 46.3445 52.4152 44.3983 52.4152 41.9419C52.4152 39.4856 51.9807 37.5394 51.1115 36.1033C50.2423 34.6673 48.9574 33.9493 47.2568 33.9493C45.5185 33.9493 44.2147 34.6673 43.3455 36.1033C42.5141 37.5394 42.0984 39.4856 42.0984 41.9419C42.0984 44.3983 42.5141 46.3445 43.3455 47.7806C44.2147 49.2166 45.5185 49.9346 47.2568 49.9346ZM75.0718 56.6802C72.0108 56.6802 69.7811 55.6788 68.3829 53.6759C67.0224 51.673 66.3422 48.8954 66.3422 45.3431V27.8839H74.675V44.2661C74.675 46.3067 74.9584 47.705 75.5253 48.4608C76.0922 49.2166 76.9802 49.5945 78.1895 49.5945C79.2477 49.5945 80.1357 49.3489 80.8538 48.8576C81.5718 48.3663 82.3465 47.5727 83.1779 46.4768V27.8839H91.5107V56H84.7084L84.0848 52.0887H83.9148C82.7055 53.5247 81.4017 54.6584 80.0035 55.4898C78.643 56.2834 76.9991 56.6802 75.0718 56.6802ZM98.8435 56V27.8839H105.646L106.213 32.8155H106.439C107.46 30.8882 108.688 29.4711 110.124 28.5641C111.56 27.6571 112.996 27.2037 114.432 27.2037C115.226 27.2037 115.868 27.2603 116.359 27.3737C116.888 27.4493 117.361 27.5816 117.777 27.7705L116.416 34.9696C115.887 34.8184 115.396 34.7051 114.942 34.6295C114.489 34.5539 113.96 34.5161 113.355 34.5161C112.297 34.5161 111.182 34.894 110.011 35.6498C108.877 36.4056 107.932 37.7472 107.176 39.6745V56H98.8435ZM133.12 56.6802C131.155 56.6802 129.322 56.359 127.621 55.7166C125.958 55.0363 124.504 54.0727 123.256 52.8256C122.009 51.5785 121.027 50.048 120.309 48.2341C119.591 46.3823 119.232 44.285 119.232 41.9419C119.232 39.5989 119.629 37.5205 120.422 35.7065C121.216 33.8548 122.274 32.3054 123.597 31.0583C124.957 29.8112 126.525 28.8664 128.301 28.224C130.078 27.5438 131.929 27.2037 133.857 27.2037C135.595 27.2037 137.126 27.4871 138.448 28.0539C139.809 28.6208 141.018 29.3388 142.076 30.208L138.165 35.5931C136.842 34.4972 135.576 33.9493 134.367 33.9493C132.326 33.9493 130.72 34.6673 129.549 36.1033C128.377 37.5394 127.791 39.4856 127.791 41.9419C127.791 44.3983 128.377 46.3445 129.549 47.7806C130.758 49.2166 132.269 49.9346 134.083 49.9346C134.99 49.9346 135.86 49.7457 136.691 49.3678C137.56 48.9521 138.373 48.4608 139.128 47.8939L142.416 53.3358C141.018 54.5451 139.506 55.4142 137.881 55.9433C136.256 56.4346 134.669 56.6802 133.12 56.6802ZM158.315 56.6802C156.312 56.6802 154.442 56.359 152.703 55.7166C150.965 55.0363 149.453 54.0727 148.168 52.8256C146.884 51.5407 145.882 49.9913 145.164 48.1774C144.446 46.3634 144.087 44.285 144.087 41.9419C144.087 39.6745 144.465 37.6338 145.221 35.8199C145.977 33.9682 146.959 32.4187 148.168 31.1717C149.416 29.8868 150.833 28.9042 152.42 28.224C154.007 27.5438 155.651 27.2037 157.352 27.2037C159.354 27.2037 161.093 27.5438 162.567 28.224C164.078 28.9042 165.325 29.849 166.308 31.0583C167.328 32.2676 168.084 33.7036 168.575 35.3664C169.067 36.9914 169.312 38.7675 169.312 40.6949C169.312 41.4507 169.274 42.1687 169.199 42.8489C169.123 43.5291 169.048 44.0393 168.972 44.3794H152.136C152.514 46.4201 153.346 47.9317 154.631 48.9143C155.953 49.859 157.559 50.3314 159.449 50.3314C161.452 50.3314 163.474 49.7079 165.514 48.4608L168.292 53.5058C166.856 54.4884 165.25 55.2631 163.474 55.8299C161.735 56.3968 160.016 56.6802 158.315 56.6802ZM152.08 38.8809H162.227C162.227 37.2937 161.868 36.0088 161.15 35.0263C160.432 34.0437 159.222 33.5525 157.522 33.5525C156.199 33.5525 155.027 33.987 154.007 34.8562C153.025 35.7254 152.382 37.067 152.08 38.8809ZM198.379 56.6802C195.961 56.6802 193.542 56.2456 191.123 55.3765C188.743 54.4695 186.607 53.1279 184.718 51.3518L189.48 45.6265C190.802 46.7602 192.257 47.6861 193.844 48.4041C195.469 49.1221 197.057 49.4811 198.606 49.4811C200.344 49.4811 201.629 49.1599 202.461 48.5175C203.33 47.875 203.764 47.0059 203.764 45.9099C203.764 45.3431 203.632 44.8518 203.368 44.4361C203.141 44.0204 202.782 43.6614 202.291 43.3591C201.837 43.019 201.27 42.7166 200.59 42.4521C199.947 42.1498 199.229 41.8286 198.436 41.4885L193.618 39.4478C192.673 39.0699 191.747 38.5786 190.84 37.9739C189.971 37.3693 189.177 36.6702 188.459 35.8766C187.779 35.0452 187.231 34.1004 186.815 33.0423C186.4 31.9464 186.192 30.7182 186.192 29.3577C186.192 27.8461 186.513 26.4289 187.155 25.1063C187.798 23.7458 188.705 22.5743 189.876 21.5918C191.048 20.5714 192.427 19.7778 194.014 19.211C195.639 18.6441 197.416 18.3607 199.343 18.3607C201.497 18.3607 203.613 18.7764 205.692 19.6078C207.808 20.4392 209.66 21.6485 211.247 23.2357L206.995 28.5074C205.786 27.5627 204.577 26.8446 203.368 26.3534C202.158 25.8243 200.817 25.5598 199.343 25.5598C197.907 25.5598 196.754 25.8621 195.885 26.4667C195.054 27.0336 194.638 27.8461 194.638 28.9042C194.638 29.4711 194.77 29.9624 195.035 30.3781C195.337 30.756 195.734 31.115 196.225 31.4551C196.754 31.7574 197.359 32.0597 198.039 32.3621C198.719 32.6266 199.456 32.9289 200.25 33.269L205.011 35.1963C207.279 36.1033 209.055 37.3504 210.34 38.9376C211.663 40.5248 212.324 42.6222 212.324 45.2297C212.324 46.7791 212.003 48.253 211.36 49.6512C210.756 51.0117 209.849 52.221 208.639 53.2791C207.468 54.2994 206.013 55.1308 204.275 55.7733C202.536 56.3779 200.571 56.6802 198.379 56.6802ZM225.002 56.6802C223.718 56.6802 222.546 56.4535 221.488 56C220.468 55.5843 219.598 54.9986 218.88 54.2427C218.162 53.4491 217.595 52.5422 217.18 51.5218C216.802 50.5015 216.613 49.3867 216.613 48.1774C216.613 45.2297 217.86 42.9245 220.354 41.2617C222.848 39.5989 226.873 38.4841 232.428 37.9173C232.353 36.6702 231.975 35.6876 231.295 34.9696C230.652 34.2138 229.556 33.8359 228.007 33.8359C226.797 33.8359 225.588 34.0626 224.379 34.5161C223.207 34.9696 221.941 35.5931 220.581 36.3867L217.577 30.8882C219.391 29.7923 221.28 28.9042 223.245 28.224C225.248 27.5438 227.364 27.2037 229.594 27.2037C233.222 27.2037 235.981 28.2429 237.87 30.3214C239.797 32.3621 240.761 35.5554 240.761 39.9013V56H233.959L233.392 53.109H233.165C231.956 54.1672 230.69 55.0363 229.367 55.7166C228.045 56.359 226.59 56.6802 225.002 56.6802ZM227.837 50.2181C228.781 50.2181 229.594 50.0102 230.274 49.5945C230.954 49.1788 231.672 48.5931 232.428 47.8373V42.9056C229.481 43.3213 227.44 43.9259 226.306 44.7195C225.172 45.5131 224.606 46.4579 224.606 47.5538C224.606 48.4608 224.889 49.141 225.456 49.5945C226.061 50.0102 226.854 50.2181 227.837 50.2181ZM247.81 56V27.8839H254.612L255.179 31.4551H255.405C256.615 30.3214 257.937 29.3388 259.373 28.5074C260.809 27.6382 262.491 27.2037 264.418 27.2037C267.48 27.2037 269.69 28.2051 271.051 30.208C272.449 32.2109 273.148 34.9885 273.148 38.5408V56H264.815V39.6178C264.815 37.5771 264.532 36.1789 263.965 35.4231C263.436 34.6673 262.567 34.2894 261.357 34.2894C260.299 34.2894 259.392 34.535 258.637 35.0263C257.881 35.4798 257.049 36.1411 256.142 37.0103V56H247.81ZM288.525 56.6802C286.673 56.6802 284.765 56.3212 282.8 55.6032C280.872 54.8852 279.191 53.9404 277.755 52.7689L281.496 47.5538C282.781 48.5364 284.009 49.2733 285.181 49.7646C286.352 50.2558 287.542 50.5015 288.752 50.5015C289.999 50.5015 290.906 50.2936 291.473 49.8779C292.04 49.4622 292.323 48.8765 292.323 48.1207C292.323 47.6672 292.153 47.2704 291.813 46.9303C291.51 46.5524 291.076 46.2123 290.509 45.9099C289.98 45.6076 289.375 45.3431 288.695 45.1163C288.015 44.8518 287.316 44.5684 286.598 44.2661C285.728 43.9259 284.859 43.5291 283.99 43.0757C283.121 42.6222 282.327 42.0742 281.609 41.4318C280.891 40.7515 280.306 39.9768 279.852 39.1077C279.399 38.2007 279.172 37.1614 279.172 35.9899C279.172 34.7051 279.417 33.5147 279.909 32.4187C280.438 31.3228 281.175 30.397 282.12 29.6411C283.064 28.8853 284.198 28.2996 285.521 27.8839C286.843 27.4304 288.317 27.2037 289.942 27.2037C292.096 27.2037 293.986 27.5816 295.611 28.3374C297.236 29.0554 298.653 29.8679 299.862 30.7749L296.121 35.7632C295.101 35.0074 294.099 34.4216 293.117 34.0059C292.134 33.5902 291.151 33.3824 290.169 33.3824C288.053 33.3824 286.994 34.1193 286.994 35.5931C286.994 36.0466 287.146 36.4434 287.448 36.7835C287.75 37.0859 288.147 37.3693 288.638 37.6338C289.167 37.8984 289.753 38.1629 290.396 38.4274C291.076 38.6542 291.775 38.8998 292.493 39.1643C293.4 39.5045 294.288 39.9013 295.157 40.3547C296.064 40.7704 296.877 41.2995 297.595 41.9419C298.351 42.5844 298.955 43.378 299.409 44.3227C299.862 45.2297 300.089 46.3256 300.089 47.6105C300.089 48.8954 299.843 50.0858 299.352 51.1817C298.861 52.2776 298.124 53.2413 297.141 54.0727C296.159 54.8663 294.949 55.5087 293.513 56C292.077 56.4535 290.415 56.6802 288.525 56.6802ZM317.409 56V19.0409H330.107C332.148 19.0409 334.056 19.2488 335.832 19.6645C337.608 20.0424 339.158 20.7037 340.481 21.6485C341.803 22.5554 342.842 23.7836 343.598 25.333C344.392 26.8446 344.789 28.7153 344.789 30.9449C344.789 33.099 344.392 34.9696 343.598 36.5568C342.842 38.144 341.803 39.4478 340.481 40.4681C339.158 41.4885 337.627 42.2443 335.889 42.7355C334.151 43.2268 332.299 43.4725 330.334 43.4725H325.742V56H317.409ZM325.742 36.8402H329.824C334.358 36.8402 336.626 34.8751 336.626 30.9449C336.626 29.0176 336.021 27.6571 334.812 26.8635C333.603 26.0699 331.864 25.6731 329.597 25.6731H325.742V36.8402ZM350.497 56V27.8839H357.299L357.866 32.8155H358.093C359.113 30.8882 360.341 29.4711 361.778 28.5641C363.214 27.6571 364.65 27.2037 366.086 27.2037C366.879 27.2037 367.522 27.2603 368.013 27.3737C368.542 27.4493 369.014 27.5816 369.43 27.7705L368.07 34.9696C367.541 34.8184 367.049 34.7051 366.596 34.6295C366.142 34.5539 365.613 34.5161 365.009 34.5161C363.95 34.5161 362.836 34.894 361.664 35.6498C360.53 36.4056 359.586 37.7472 358.83 39.6745V56H350.497ZM384.603 56.6802C382.827 56.6802 381.108 56.359 379.445 55.7166C377.782 55.0363 376.308 54.0727 375.023 52.8256C373.776 51.5785 372.775 50.048 372.019 48.2341C371.263 46.3823 370.885 44.285 370.885 41.9419C370.885 39.5989 371.263 37.5205 372.019 35.7065C372.775 33.8548 373.776 32.3054 375.023 31.0583C376.308 29.8112 377.782 28.8664 379.445 28.224C381.108 27.5438 382.827 27.2037 384.603 27.2037C386.379 27.2037 388.08 27.5438 389.705 28.224C391.368 28.8664 392.823 29.8112 394.07 31.0583C395.355 32.3054 396.375 33.8548 397.131 35.7065C397.887 37.5205 398.265 39.5989 398.265 41.9419C398.265 44.285 397.887 46.3823 397.131 48.2341C396.375 50.048 395.355 51.5785 394.07 52.8256C392.823 54.0727 391.368 55.0363 389.705 55.7166C388.08 56.359 386.379 56.6802 384.603 56.6802ZM384.603 49.9346C386.304 49.9346 387.589 49.2166 388.458 47.7806C389.327 46.3445 389.762 44.3983 389.762 41.9419C389.762 39.4856 389.327 37.5394 388.458 36.1033C387.589 34.6673 386.304 33.9493 384.603 33.9493C382.865 33.9493 381.561 34.6673 380.692 36.1033C379.861 37.5394 379.445 39.4856 379.445 41.9419C379.445 44.3983 379.861 46.3445 380.692 47.7806C381.561 49.2166 382.865 49.9346 384.603 49.9346Z" fill="black"/>
<path d="M15.5319 138.68C13.0377 138.68 10.6191 138.208 8.27612 137.263C5.9709 136.318 3.93021 134.977 2.15406 133.238L6.00869 128.76C7.33135 130.007 8.84297 131.028 10.5435 131.821C12.2441 132.577 13.9447 132.955 15.6453 132.955C17.7615 132.955 19.3676 132.52 20.4635 131.651C21.5595 130.782 22.1074 129.629 22.1074 128.193C22.1074 127.438 21.9563 126.795 21.6539 126.266C21.3894 125.737 20.9926 125.284 20.4635 124.906C19.9723 124.49 19.3676 124.112 18.6496 123.772C17.9694 123.432 17.2136 123.092 16.3822 122.752L11.2805 120.541C10.3735 120.163 9.46651 119.691 8.55954 119.124C7.69036 118.557 6.89676 117.877 6.17874 117.083C5.46072 116.289 4.87497 115.364 4.42149 114.305C4.00579 113.247 3.79794 112.038 3.79794 110.677C3.79794 109.204 4.10027 107.843 4.70491 106.596C5.34735 105.311 6.21653 104.196 7.31246 103.252C8.40838 102.307 9.71215 101.57 11.2238 101.041C12.7732 100.512 14.4549 100.247 16.2688 100.247C18.4229 100.247 20.5013 100.682 22.5042 101.551C24.5071 102.382 26.2266 103.516 27.6626 104.952L24.3182 109.147C23.1089 108.164 21.8618 107.39 20.5769 106.823C19.292 106.256 17.856 105.973 16.2688 105.973C14.4926 105.973 13.0755 106.369 12.0174 107.163C10.9592 107.919 10.4302 108.977 10.4302 110.337C10.4302 111.055 10.5813 111.679 10.8837 112.208C11.2238 112.699 11.6584 113.153 12.1874 113.568C12.7543 113.946 13.3967 114.305 14.1147 114.645C14.8328 114.948 15.5697 115.25 16.3255 115.552L21.3705 117.65C22.4664 118.103 23.4679 118.632 24.3749 119.237C25.2818 119.842 26.0565 120.541 26.699 121.334C27.3792 122.128 27.9083 123.054 28.2862 124.112C28.6641 125.132 28.853 126.323 28.853 127.683C28.853 129.195 28.5507 130.612 27.9461 131.935C27.3414 133.257 26.4533 134.429 25.2818 135.449C24.1481 136.432 22.7499 137.225 21.0871 137.83C19.4621 138.397 17.6104 138.68 15.5319 138.68ZM46.4212 138.68C44.6828 138.68 43.02 138.359 41.4328 137.717C39.8456 137.074 38.4285 136.129 37.1814 134.882C35.9721 133.635 35.0084 132.105 34.2904 130.291C33.5724 128.477 33.2134 126.417 33.2134 124.112C33.2134 121.807 33.5724 119.747 34.2904 117.933C35.0084 116.119 35.9721 114.589 37.1814 113.342C38.4285 112.095 39.8456 111.15 41.4328 110.507C43.02 109.827 44.6828 109.487 46.4212 109.487C48.1595 109.487 49.8223 109.827 51.4095 110.507C53.0345 111.15 54.4516 112.095 55.6609 113.342C56.8702 114.589 57.8339 116.119 58.5519 117.933C59.3077 119.747 59.6856 121.807 59.6856 124.112C59.6856 126.417 59.3077 128.477 58.5519 130.291C57.8339 132.105 56.8702 133.635 55.6609 134.882C54.4516 136.129 53.0345 137.074 51.4095 137.717C49.8223 138.359 48.1595 138.68 46.4212 138.68ZM46.4212 133.352C48.4619 133.352 50.068 132.52 51.2395 130.858C52.411 129.157 52.9967 126.908 52.9967 124.112C52.9967 121.278 52.411 119.029 51.2395 117.366C50.068 115.666 48.4619 114.816 46.4212 114.816C44.3805 114.816 42.7744 115.666 41.6029 117.366C40.4692 119.029 39.9023 121.278 39.9023 124.112C39.9023 126.908 40.4692 129.157 41.6029 130.858C42.7744 132.52 44.3805 133.352 46.4212 133.352ZM74.4142 138.68C71.4287 138.68 69.2558 137.735 67.8953 135.846C66.5349 133.919 65.8546 131.179 65.8546 127.627V110.167H72.3735V126.776C72.3735 129.081 72.7136 130.706 73.3938 131.651C74.0741 132.596 75.17 133.068 76.6816 133.068C77.8909 133.068 78.949 132.766 79.856 132.161C80.8008 131.557 81.8022 130.574 82.8603 129.214V110.167H89.3792V138H84.0507L83.5406 133.919H83.3705C82.1612 135.355 80.8386 136.507 79.4025 137.376C78.0043 138.246 76.3415 138.68 74.4142 138.68ZM97.6363 138V110.167H103.021L103.475 115.099H103.702C104.684 113.285 105.875 111.906 107.273 110.961C108.671 109.978 110.107 109.487 111.581 109.487C112.904 109.487 113.962 109.676 114.755 110.054L113.622 115.723C113.13 115.571 112.677 115.458 112.261 115.382C111.845 115.307 111.335 115.269 110.731 115.269C109.635 115.269 108.482 115.704 107.273 116.573C106.064 117.404 105.024 118.878 104.155 120.994V138H97.6363ZM129.85 138.68C127.96 138.68 126.184 138.359 124.521 137.717C122.896 137.074 121.479 136.129 120.27 134.882C119.061 133.635 118.116 132.105 117.436 130.291C116.755 128.477 116.415 126.417 116.415 124.112C116.415 121.807 116.793 119.747 117.549 117.933C118.305 116.119 119.325 114.589 120.61 113.342C121.895 112.095 123.369 111.15 125.031 110.507C126.732 109.827 128.508 109.487 130.36 109.487C132.174 109.487 133.723 109.789 135.008 110.394C136.331 110.999 137.502 111.736 138.523 112.605L135.348 116.856C134.592 116.214 133.837 115.723 133.081 115.382C132.363 115.004 131.569 114.816 130.7 114.816C128.433 114.816 126.6 115.666 125.201 117.366C123.803 119.029 123.104 121.278 123.104 124.112C123.104 126.908 123.784 129.157 125.145 130.858C126.543 132.52 128.338 133.352 130.53 133.352C131.626 133.352 132.646 133.125 133.591 132.672C134.574 132.18 135.462 131.613 136.255 130.971L138.919 135.279C137.597 136.413 136.142 137.263 134.555 137.83C133.005 138.397 131.437 138.68 129.85 138.68ZM154.933 138.68C153.006 138.68 151.211 138.359 149.548 137.717C147.885 137.036 146.43 136.073 145.183 134.826C143.936 133.579 142.954 132.067 142.236 130.291C141.555 128.477 141.215 126.417 141.215 124.112C141.215 121.845 141.574 119.804 142.292 117.99C143.01 116.176 143.955 114.645 145.126 113.398C146.336 112.151 147.715 111.188 149.265 110.507C150.814 109.827 152.401 109.487 154.026 109.487C155.916 109.487 157.578 109.808 159.014 110.451C160.451 111.093 161.641 112 162.586 113.172C163.568 114.343 164.305 115.741 164.796 117.366C165.288 118.991 165.533 120.768 165.533 122.695C165.533 123.337 165.496 123.942 165.42 124.509C165.382 125.076 165.326 125.529 165.25 125.869H147.564C147.866 128.363 148.735 130.291 150.172 131.651C151.645 132.974 153.516 133.635 155.783 133.635C156.993 133.635 158.108 133.465 159.128 133.125C160.186 132.747 161.225 132.237 162.246 131.595L164.456 135.676C163.134 136.545 161.66 137.263 160.035 137.83C158.41 138.397 156.709 138.68 154.933 138.68ZM147.507 121.448H159.865C159.865 119.294 159.392 117.612 158.448 116.403C157.541 115.156 156.124 114.532 154.196 114.532C152.533 114.532 151.078 115.118 149.831 116.289C148.584 117.461 147.81 119.18 147.507 121.448ZM194.502 138.68C192.007 138.68 189.589 138.208 187.246 137.263C184.941 136.318 182.9 134.977 181.124 133.238L184.978 128.76C186.301 130.007 187.813 131.028 189.513 131.821C191.214 132.577 192.914 132.955 194.615 132.955C196.731 132.955 198.337 132.52 199.433 131.651C200.529 130.782 201.077 129.629 201.077 128.193C201.077 127.438 200.926 126.795 200.624 126.266C200.359 125.737 199.962 125.284 199.433 124.906C198.942 124.49 198.337 124.112 197.619 123.772C196.939 123.432 196.183 123.092 195.352 122.752L190.25 120.541C189.343 120.163 188.436 119.691 187.529 119.124C186.66 118.557 185.866 117.877 185.148 117.083C184.43 116.289 183.845 115.364 183.391 114.305C182.975 113.247 182.768 112.038 182.768 110.677C182.768 109.204 183.07 107.843 183.675 106.596C184.317 105.311 185.186 104.196 186.282 103.252C187.378 102.307 188.682 101.57 190.193 101.041C191.743 100.512 193.425 100.247 195.238 100.247C197.393 100.247 199.471 100.682 201.474 101.551C203.477 102.382 205.196 103.516 206.632 104.952L203.288 109.147C202.079 108.164 200.831 107.39 199.547 106.823C198.262 106.256 196.826 105.973 195.238 105.973C193.462 105.973 192.045 106.369 190.987 107.163C189.929 107.919 189.4 108.977 189.4 110.337C189.4 111.055 189.551 111.679 189.853 112.208C190.193 112.699 190.628 113.153 191.157 113.568C191.724 113.946 192.366 114.305 193.084 114.645C193.802 114.948 194.539 115.25 195.295 115.552L200.34 117.65C201.436 118.103 202.438 118.632 203.345 119.237C204.251 119.842 205.026 120.541 205.669 121.334C206.349 122.128 206.878 123.054 207.256 124.112C207.634 125.132 207.823 126.323 207.823 127.683C207.823 129.195 207.52 130.612 206.916 131.935C206.311 133.257 205.423 134.429 204.251 135.449C203.118 136.432 201.72 137.225 200.057 137.83C198.432 138.397 196.58 138.68 194.502 138.68ZM220.743 138.68C218.286 138.68 216.302 137.943 214.791 136.469C213.279 134.958 212.523 132.974 212.523 130.517C212.523 129.044 212.825 127.74 213.43 126.606C214.073 125.435 215.055 124.433 216.378 123.602C217.738 122.77 219.439 122.071 221.48 121.504C223.558 120.938 226.033 120.503 228.905 120.201C228.868 119.483 228.754 118.802 228.565 118.16C228.414 117.48 228.131 116.894 227.715 116.403C227.337 115.874 226.827 115.477 226.184 115.212C225.542 114.91 224.748 114.759 223.804 114.759C222.443 114.759 221.102 115.023 219.779 115.552C218.494 116.082 217.228 116.724 215.981 117.48L213.6 113.115C215.15 112.132 216.888 111.282 218.815 110.564C220.743 109.846 222.821 109.487 225.051 109.487C228.527 109.487 231.116 110.526 232.817 112.605C234.555 114.645 235.424 117.612 235.424 121.504V138H230.039L229.586 134.939H229.359C228.112 135.997 226.77 136.885 225.334 137.603C223.936 138.321 222.405 138.68 220.743 138.68ZM222.84 133.579C223.974 133.579 224.994 133.314 225.901 132.785C226.846 132.256 227.847 131.5 228.905 130.517V124.282C227.016 124.509 225.429 124.811 224.144 125.189C222.859 125.567 221.82 126.002 221.026 126.493C220.232 126.946 219.666 127.475 219.325 128.08C218.985 128.685 218.815 129.327 218.815 130.007C218.815 131.254 219.193 132.161 219.949 132.728C220.705 133.295 221.668 133.579 222.84 133.579ZM243.226 138V110.167H248.611L249.064 113.909H249.291C250.538 112.699 251.88 111.66 253.316 110.791C254.789 109.922 256.49 109.487 258.417 109.487C261.403 109.487 263.576 110.451 264.936 112.378C266.297 114.268 266.977 116.988 266.977 120.541V138H260.458V121.391C260.458 119.086 260.118 117.461 259.438 116.516C258.757 115.571 257.643 115.099 256.093 115.099C254.884 115.099 253.807 115.401 252.862 116.006C251.955 116.573 250.916 117.423 249.744 118.557V138H243.226ZM282.711 138.68C280.784 138.68 278.875 138.321 276.986 137.603C275.134 136.847 273.528 135.922 272.168 134.826L275.229 130.631C276.476 131.613 277.704 132.388 278.913 132.955C280.16 133.484 281.502 133.749 282.938 133.749C284.449 133.749 285.564 133.446 286.282 132.842C287 132.199 287.359 131.387 287.359 130.404C287.359 129.837 287.189 129.346 286.849 128.93C286.509 128.477 286.056 128.08 285.489 127.74C284.922 127.4 284.279 127.097 283.561 126.833C282.843 126.531 282.125 126.228 281.407 125.926C280.5 125.586 279.575 125.189 278.63 124.736C277.685 124.282 276.835 123.734 276.079 123.092C275.361 122.449 274.756 121.712 274.265 120.881C273.811 120.012 273.585 118.991 273.585 117.82C273.585 115.364 274.492 113.361 276.306 111.811C278.12 110.262 280.595 109.487 283.731 109.487C285.659 109.487 287.397 109.827 288.947 110.507C290.496 111.188 291.838 111.962 292.971 112.832L289.967 116.8C288.984 116.082 287.983 115.515 286.963 115.099C285.98 114.645 284.941 114.419 283.845 114.419C282.447 114.419 281.407 114.721 280.727 115.326C280.085 115.893 279.763 116.611 279.763 117.48C279.763 118.047 279.915 118.538 280.217 118.954C280.557 119.332 280.992 119.672 281.521 119.974C282.05 120.276 282.654 120.56 283.335 120.824C284.053 121.089 284.79 121.353 285.545 121.618C286.49 121.958 287.435 122.355 288.38 122.808C289.324 123.224 290.175 123.753 290.931 124.395C291.724 125.038 292.348 125.831 292.801 126.776C293.292 127.683 293.538 128.779 293.538 130.064C293.538 131.273 293.292 132.407 292.801 133.465C292.348 134.485 291.667 135.392 290.761 136.186C289.854 136.942 288.72 137.547 287.359 138C285.999 138.453 284.449 138.68 282.711 138.68ZM311.273 138V100.928H322.95C324.991 100.928 326.88 101.116 328.619 101.494C330.395 101.872 331.925 102.515 333.21 103.422C334.495 104.329 335.496 105.519 336.215 106.993C336.933 108.429 337.292 110.224 337.292 112.378C337.292 114.419 336.933 116.195 336.215 117.707C335.496 119.218 334.495 120.484 333.21 121.504C331.963 122.487 330.47 123.224 328.732 123.715C327.031 124.169 325.18 124.395 323.177 124.395H317.848V138H311.273ZM317.848 119.124H322.667C328.108 119.124 330.829 116.875 330.829 112.378C330.829 110.035 330.111 108.429 328.675 107.56C327.277 106.653 325.199 106.199 322.44 106.199H317.848V119.124ZM343.699 138V110.167H349.084L349.537 115.099H349.764C350.747 113.285 351.937 111.906 353.335 110.961C354.734 109.978 356.17 109.487 357.643 109.487C358.966 109.487 360.024 109.676 360.818 110.054L359.684 115.723C359.193 115.571 358.739 115.458 358.324 115.382C357.908 115.307 357.398 115.269 356.793 115.269C355.697 115.269 354.545 115.704 353.335 116.573C352.126 117.404 351.087 118.878 350.218 120.994V138H343.699ZM375.685 138.68C373.947 138.68 372.284 138.359 370.697 137.717C369.11 137.074 367.693 136.129 366.446 134.882C365.236 133.635 364.273 132.105 363.555 130.291C362.837 128.477 362.478 126.417 362.478 124.112C362.478 121.807 362.837 119.747 363.555 117.933C364.273 116.119 365.236 114.589 366.446 113.342C367.693 112.095 369.11 111.15 370.697 110.507C372.284 109.827 373.947 109.487 375.685 109.487C377.424 109.487 379.087 109.827 380.674 110.507C382.299 111.15 383.716 112.095 384.925 113.342C386.135 114.589 387.098 116.119 387.816 117.933C388.572 119.747 388.95 121.807 388.95 124.112C388.95 126.417 388.572 128.477 387.816 130.291C387.098 132.105 386.135 133.635 384.925 134.882C383.716 136.129 382.299 137.074 380.674 137.717C379.087 138.359 377.424 138.68 375.685 138.68ZM375.685 133.352C377.726 133.352 379.332 132.52 380.504 130.858C381.675 129.157 382.261 126.908 382.261 124.112C382.261 121.278 381.675 119.029 380.504 117.366C379.332 115.666 377.726 114.816 375.685 114.816C373.645 114.816 372.039 115.666 370.867 117.366C369.733 119.029 369.167 121.278 369.167 124.112C369.167 126.908 369.733 129.157 370.867 130.858C372.039 132.52 373.645 133.352 375.685 133.352Z" fill="black"/>
<path d="M5.32846 197.003L4.13806 200.489H10.7703L9.57989 197.003C9.20198 195.888 8.84297 194.821 8.50286 193.8C8.16274 192.78 7.83208 191.693 7.51086 190.541H7.39749C7.07627 191.693 6.7456 192.78 6.40549 193.8C6.06537 194.821 5.70636 195.888 5.32846 197.003ZM0.226743 208L6.80229 189.322H8.10606L14.6816 208H13.3211L11.1387 201.595H3.74126L1.53051 208H0.226743ZM17.668 208V189.322H22.713C24.6026 189.322 26.1047 189.691 27.2196 190.427C28.3344 191.145 28.8918 192.289 28.8918 193.857C28.8918 194.839 28.6461 195.699 28.1549 196.436C27.6636 197.154 26.9456 197.655 26.0008 197.938V198.052C27.2101 198.26 28.1832 198.741 28.9201 199.497C29.657 200.234 30.0255 201.254 30.0255 202.558C30.0255 203.465 29.8554 204.259 29.5153 204.939C29.1941 205.619 28.7312 206.186 28.1265 206.64C27.5219 207.093 26.7944 207.433 25.9441 207.66C25.0938 207.887 24.1396 208 23.0815 208H17.668ZM18.9718 197.541H22.2029C24.1113 197.541 25.4812 197.23 26.3126 196.606C27.1629 195.964 27.588 195.095 27.588 193.999C27.588 192.676 27.144 191.75 26.2559 191.221C25.3678 190.673 24.064 190.399 22.3446 190.399H18.9718V197.541ZM18.9718 206.923H22.7414C24.612 206.923 26.0764 206.573 27.1345 205.874C28.2116 205.175 28.7501 204.079 28.7501 202.587C28.7501 201.226 28.2304 200.225 27.1912 199.582C26.152 198.94 24.6687 198.619 22.7414 198.619H18.9718V206.923ZM40.6859 208.34C39.5333 208.34 38.4752 208.113 37.5115 207.66C36.5479 207.206 35.7165 206.564 35.0174 205.733C34.3371 204.882 33.8081 203.862 33.4302 202.672C33.0523 201.462 32.8633 200.111 32.8633 198.619C32.8633 197.145 33.0523 195.813 33.4302 194.622C33.827 193.432 34.3749 192.421 35.0741 191.589C35.7732 190.739 36.6046 190.097 37.5682 189.662C38.5508 189.209 39.6373 188.982 40.8277 188.982C41.9236 188.982 42.8872 189.209 43.7186 189.662C44.55 190.116 45.2114 190.635 45.7026 191.221L44.9374 192.1C44.4272 191.514 43.832 191.051 43.1518 190.711C42.4715 190.352 41.7063 190.172 40.856 190.172C39.8357 190.172 38.9098 190.371 38.0784 190.768C37.2659 191.164 36.5668 191.731 35.981 192.468C35.4142 193.186 34.9796 194.065 34.6773 195.104C34.3749 196.143 34.2238 197.315 34.2238 198.619C34.2238 199.922 34.3749 201.103 34.6773 202.161C34.9796 203.201 35.4142 204.089 35.981 204.826C36.5479 205.563 37.2281 206.139 38.0217 206.555C38.8342 206.951 39.7412 207.15 40.7426 207.15C41.7063 207.15 42.566 206.961 43.3218 206.583C44.0776 206.186 44.7957 205.61 45.4759 204.854L46.2411 205.676C45.5231 206.507 44.7201 207.159 43.832 207.632C42.9439 208.104 41.8952 208.34 40.6859 208.34ZM50.0519 208V189.322H54.3884C55.8244 189.322 57.0715 189.539 58.1296 189.974C59.2067 190.409 60.0948 191.032 60.7939 191.845C61.493 192.657 62.0126 193.63 62.3527 194.764C62.6928 195.898 62.8629 197.173 62.8629 198.59C62.8629 200.007 62.6928 201.302 62.3527 202.473C62.0126 203.626 61.493 204.618 60.7939 205.449C60.0948 206.262 59.2161 206.895 58.158 207.348C57.0999 207.783 55.8528 208 54.4167 208H50.0519ZM51.3557 206.895H54.2467C55.5127 206.895 56.5991 206.696 57.5061 206.299C58.432 205.884 59.1878 205.307 59.7735 204.571C60.3593 203.834 60.7939 202.964 61.0773 201.963C61.3607 200.943 61.5025 199.818 61.5025 198.59C61.5025 197.381 61.3607 196.276 61.0773 195.274C60.7939 194.273 60.3593 193.413 59.7735 192.695C59.1878 191.977 58.432 191.419 57.5061 191.023C56.5991 190.626 55.5127 190.427 54.2467 190.427H51.3557V206.895ZM67.1573 208V189.322H77.3891V190.456H68.4611V197.513H75.9436V198.647H68.4611V206.866H77.6725V208H67.1573ZM81.7439 208V189.322H91.919V190.456H83.0477V197.882H90.5585V199.015H83.0477V208H81.7439ZM101.805 208.34C100.596 208.34 99.4997 208.113 98.5171 207.66C97.5346 207.206 96.6937 206.564 95.9946 205.733C95.2955 204.882 94.7475 203.862 94.3507 202.672C93.9728 201.462 93.7839 200.111 93.7839 198.619C93.7839 197.145 93.9823 195.813 94.3791 194.622C94.7759 193.432 95.3333 192.421 96.0513 191.589C96.7693 190.739 97.6385 190.097 98.6588 189.662C99.6792 189.209 100.803 188.982 102.032 188.982C102.655 188.982 103.222 189.048 103.732 189.18C104.261 189.313 104.734 189.492 105.149 189.719C105.565 189.927 105.933 190.163 106.255 190.427C106.595 190.692 106.888 190.956 107.133 191.221L106.368 192.1C105.877 191.571 105.291 191.117 104.611 190.739C103.931 190.361 103.08 190.172 102.06 190.172C100.983 190.172 100.019 190.371 99.169 190.768C98.3187 191.164 97.5912 191.731 96.9866 192.468C96.4008 193.186 95.9474 194.065 95.6261 195.104C95.3049 196.143 95.1443 197.315 95.1443 198.619C95.1443 199.922 95.2955 201.103 95.5978 202.161C95.9001 203.201 96.3347 204.089 96.9016 204.826C97.4873 205.563 98.1959 206.139 99.0273 206.555C99.8776 206.951 100.832 207.15 101.89 207.15C102.74 207.15 103.534 207.027 104.271 206.781C105.027 206.536 105.631 206.186 106.085 205.733V199.922H101.606V198.817H107.332V206.214C106.746 206.838 105.981 207.348 105.036 207.745C104.11 208.142 103.033 208.34 101.805 208.34ZM112.135 208V189.322H113.439V197.513H123.444V189.322H124.748V208H123.444V198.647H113.439V208H112.135ZM130.237 208V189.322H131.541V208H130.237ZM140.05 208.34C139.011 208.34 138.104 208.104 137.329 207.632C136.554 207.159 135.931 206.479 135.458 205.591L136.45 204.939C136.904 205.733 137.414 206.299 137.981 206.64C138.567 206.98 139.256 207.15 140.05 207.15C141.184 207.15 142.025 206.81 142.573 206.129C143.121 205.43 143.394 204.315 143.394 202.785V189.322H144.698V202.927C144.698 203.682 144.613 204.391 144.443 205.052C144.273 205.695 143.999 206.262 143.621 206.753C143.262 207.244 142.79 207.632 142.204 207.915C141.618 208.198 140.9 208.34 140.05 208.34ZM150.138 208V189.322H151.441V199.696H151.498L160.539 189.322H162.098L156.146 196.238L162.92 208H161.418L155.239 197.23L151.441 201.566V208H150.138ZM165.942 208V189.322H167.246V206.866H175.862V208H165.942ZM179.172 208V189.322H181.015L184.926 200.291C185.172 200.971 185.417 201.661 185.663 202.36C185.909 203.04 186.154 203.73 186.4 204.429H186.513C186.759 203.73 186.995 203.04 187.222 202.36C187.449 201.661 187.685 200.971 187.93 200.291L191.813 189.322H193.684V208H192.409V195.728C192.409 194.953 192.427 194.121 192.465 193.233C192.503 192.326 192.541 191.476 192.579 190.683H192.465L191.02 194.849L186.995 205.959H185.861L181.808 194.849L180.335 190.683H180.221C180.259 191.476 180.297 192.326 180.335 193.233C180.372 194.121 180.391 194.953 180.391 195.728V208H179.172ZM199.184 208V189.322H200.545L208.424 202.501L210.521 206.214H210.635C210.597 205.307 210.559 204.4 210.521 203.493C210.483 202.587 210.465 201.68 210.465 200.773V189.322H211.712V208H210.351L202.472 194.821L200.374 191.108H200.261C200.299 192.015 200.337 192.903 200.374 193.772C200.412 194.622 200.431 195.501 200.431 196.408V208H199.184ZM223.693 208.34C222.579 208.34 221.549 208.113 220.604 207.66C219.659 207.188 218.847 206.526 218.166 205.676C217.486 204.826 216.957 203.805 216.579 202.615C216.201 201.406 216.012 200.064 216.012 198.59C216.012 197.116 216.201 195.794 216.579 194.622C216.957 193.432 217.486 192.421 218.166 191.589C218.847 190.739 219.659 190.097 220.604 189.662C221.549 189.209 222.579 188.982 223.693 188.982C224.827 188.982 225.866 189.209 226.811 189.662C227.756 190.097 228.568 190.739 229.249 191.589C229.929 192.421 230.458 193.432 230.836 194.622C231.214 195.794 231.403 197.116 231.403 198.59C231.403 200.064 231.214 201.406 230.836 202.615C230.458 203.805 229.929 204.826 229.249 205.676C228.568 206.526 227.756 207.188 226.811 207.66C225.866 208.113 224.827 208.34 223.693 208.34ZM223.693 207.15C224.638 207.15 225.498 206.951 226.273 206.555C227.047 206.139 227.709 205.563 228.257 204.826C228.823 204.07 229.258 203.172 229.56 202.133C229.863 201.075 230.014 199.894 230.014 198.59C230.014 197.305 229.863 196.143 229.56 195.104C229.258 194.065 228.823 193.186 228.257 192.468C227.709 191.731 227.047 191.164 226.273 190.768C225.498 190.371 224.638 190.172 223.693 190.172C222.749 190.172 221.879 190.371 221.086 190.768C220.311 191.164 219.65 191.731 219.102 192.468C218.554 193.186 218.129 194.065 217.826 195.104C217.524 196.143 217.373 197.305 217.373 198.59C217.373 199.894 217.524 201.075 217.826 202.133C218.129 203.172 218.554 204.07 219.102 204.826C219.65 205.563 220.311 206.139 221.086 206.555C221.879 206.951 222.749 207.15 223.693 207.15ZM235.692 208V189.322H240.397C241.455 189.322 242.4 189.417 243.231 189.605C244.082 189.776 244.79 190.068 245.357 190.484C245.943 190.9 246.387 191.438 246.689 192.1C247.01 192.761 247.171 193.573 247.171 194.537C247.171 196.37 246.585 197.74 245.414 198.647C244.242 199.535 242.608 199.979 240.51 199.979H236.996V208H235.692ZM236.996 198.874H240.199C242.107 198.874 243.524 198.533 244.45 197.853C245.376 197.173 245.839 196.068 245.839 194.537C245.839 192.969 245.357 191.892 244.393 191.306C243.449 190.72 242.013 190.427 240.085 190.427H236.996V198.874ZM257.738 207.235C258.683 207.235 259.542 207.027 260.317 206.611C261.092 206.196 261.753 205.619 262.301 204.882C262.868 204.126 263.303 203.22 263.605 202.161C263.907 201.084 264.058 199.894 264.058 198.59C264.058 197.305 263.907 196.143 263.605 195.104C263.303 194.065 262.868 193.186 262.301 192.468C261.753 191.731 261.092 191.164 260.317 190.768C259.542 190.371 258.683 190.172 257.738 190.172C256.793 190.172 255.924 190.371 255.13 190.768C254.356 191.164 253.694 191.731 253.146 192.468C252.598 193.186 252.173 194.065 251.871 195.104C251.569 196.143 251.418 197.305 251.418 198.59C251.418 199.894 251.569 201.084 251.871 202.161C252.173 203.22 252.598 204.126 253.146 204.882C253.694 205.619 254.356 206.196 255.13 206.611C255.924 207.027 256.793 207.235 257.738 207.235ZM263.208 212.421C262.415 212.421 261.687 212.318 261.026 212.11C260.383 211.902 259.798 211.609 259.269 211.231C258.758 210.872 258.305 210.437 257.908 209.927C257.53 209.436 257.228 208.898 257.001 208.312C255.981 208.217 255.045 207.924 254.195 207.433C253.345 206.923 252.608 206.252 251.984 205.421C251.38 204.571 250.907 203.569 250.567 202.416C250.227 201.264 250.057 199.988 250.057 198.59C250.057 197.116 250.246 195.794 250.624 194.622C251.002 193.432 251.531 192.421 252.211 191.589C252.891 190.739 253.704 190.097 254.649 189.662C255.593 189.209 256.623 188.982 257.738 188.982C258.872 188.982 259.911 189.209 260.856 189.662C261.8 190.097 262.613 190.739 263.293 191.589C263.973 192.421 264.502 193.432 264.88 194.622C265.258 195.794 265.447 197.116 265.447 198.59C265.447 199.988 265.277 201.264 264.937 202.416C264.597 203.569 264.115 204.571 263.492 205.421C262.887 206.252 262.15 206.923 261.281 207.433C260.431 207.924 259.486 208.217 258.447 208.312C258.881 209.257 259.505 209.975 260.317 210.466C261.149 210.957 262.15 211.203 263.322 211.203C263.756 211.203 264.115 211.174 264.399 211.118C264.701 211.08 264.975 211.033 265.221 210.976L265.504 212.081C265.258 212.157 264.928 212.233 264.512 212.308C264.115 212.384 263.681 212.421 263.208 212.421ZM269.737 208V189.322H275.094C276.019 189.322 276.86 189.417 277.616 189.605C278.372 189.776 279.014 190.059 279.543 190.456C280.072 190.853 280.479 191.363 280.762 191.986C281.064 192.61 281.216 193.366 281.216 194.254C281.216 195.746 280.781 196.918 279.912 197.768C279.062 198.619 277.899 199.138 276.426 199.327L281.584 208H280.082L275.009 199.412H271.041V208H269.737ZM271.041 198.335H274.753C276.416 198.335 277.682 198.004 278.551 197.343C279.439 196.663 279.883 195.633 279.883 194.254C279.883 192.855 279.439 191.873 278.551 191.306C277.663 190.72 276.397 190.427 274.753 190.427H271.041V198.335ZM289.641 208.34C288.281 208.34 287.071 208.085 286.013 207.575C284.955 207.046 284.058 206.366 283.321 205.534L284.171 204.627C284.851 205.402 285.664 206.016 286.609 206.469C287.553 206.923 288.564 207.15 289.641 207.15C291.077 207.15 292.211 206.81 293.042 206.129C293.874 205.43 294.289 204.523 294.289 203.408C294.289 202.823 294.195 202.331 294.006 201.935C293.836 201.519 293.6 201.169 293.297 200.886C292.995 200.584 292.636 200.329 292.22 200.121C291.824 199.913 291.398 199.705 290.945 199.497L288.111 198.222C287.714 198.052 287.289 197.844 286.835 197.598C286.382 197.353 285.966 197.05 285.588 196.691C285.229 196.313 284.927 195.879 284.681 195.387C284.436 194.877 284.313 194.273 284.313 193.573C284.313 192.893 284.445 192.279 284.71 191.731C284.993 191.164 285.371 190.683 285.843 190.286C286.335 189.87 286.911 189.549 287.572 189.322C288.252 189.095 288.98 188.982 289.755 188.982C290.888 188.982 291.89 189.209 292.759 189.662C293.647 190.097 294.374 190.616 294.941 191.221L294.204 192.071C293.656 191.504 293.014 191.051 292.277 190.711C291.54 190.352 290.699 190.172 289.755 190.172C288.507 190.172 287.506 190.475 286.75 191.079C285.994 191.684 285.617 192.496 285.617 193.517C285.617 194.065 285.72 194.528 285.928 194.906C286.136 195.284 286.401 195.614 286.722 195.898C287.043 196.162 287.393 196.398 287.771 196.606C288.148 196.795 288.507 196.965 288.848 197.116L291.682 198.363C292.211 198.59 292.712 198.845 293.184 199.129C293.656 199.412 294.072 199.743 294.431 200.121C294.79 200.499 295.074 200.952 295.281 201.481C295.508 201.991 295.622 202.605 295.622 203.323C295.622 204.041 295.48 204.712 295.196 205.336C294.913 205.94 294.507 206.469 293.978 206.923C293.467 207.358 292.844 207.707 292.107 207.972C291.37 208.217 290.548 208.34 289.641 208.34ZM303.018 208V190.456H297.066V189.322H310.273V190.456H304.321V208H303.018ZM320.063 208.34C319.27 208.34 318.495 208.227 317.739 208C316.984 207.754 316.313 207.348 315.727 206.781C315.141 206.196 314.669 205.421 314.31 204.457C313.97 203.493 313.8 202.284 313.8 200.829V189.322H315.103V200.688C315.103 201.935 315.236 202.974 315.5 203.805C315.784 204.618 316.152 205.279 316.606 205.789C317.059 206.281 317.579 206.63 318.165 206.838C318.769 207.046 319.402 207.15 320.063 207.15C320.744 207.15 321.386 207.046 321.991 206.838C322.614 206.63 323.153 206.281 323.606 205.789C324.079 205.279 324.457 204.618 324.74 203.805C325.023 202.974 325.165 201.935 325.165 200.688V189.322H326.384V200.829C326.384 202.284 326.204 203.493 325.845 204.457C325.486 205.421 325.014 206.196 324.428 206.781C323.843 207.348 323.172 207.754 322.416 208C321.66 208.227 320.876 208.34 320.063 208.34ZM335.363 208L329.184 189.322H330.573L334.031 200.234C334.39 201.368 334.711 202.416 334.994 203.38C335.297 204.325 335.637 205.364 336.015 206.498H336.128C336.317 205.931 336.487 205.392 336.638 204.882C336.808 204.372 336.969 203.871 337.12 203.38C337.271 202.87 337.422 202.36 337.573 201.85C337.743 201.339 337.913 200.801 338.084 200.234L341.541 189.322H342.873L336.751 208H335.363ZM348.038 208L343.786 189.322H345.147L347.499 200.319C347.707 201.339 347.915 202.36 348.123 203.38C348.35 204.382 348.567 205.392 348.775 206.413H348.888C349.115 205.392 349.342 204.382 349.568 203.38C349.814 202.36 350.069 201.339 350.334 200.319L353.253 189.322H354.585L357.504 200.319C357.769 201.339 358.015 202.36 358.241 203.38C358.487 204.382 358.742 205.392 359.007 206.413H359.12C359.328 205.392 359.526 204.382 359.715 203.38C359.923 202.36 360.131 201.339 360.339 200.319L362.691 189.322H363.967L359.8 208H358.355L354.954 195.189C354.783 194.452 354.613 193.753 354.443 193.092C354.273 192.411 354.113 191.703 353.962 190.966H353.848C353.697 191.703 353.527 192.411 353.338 193.092C353.149 193.753 352.97 194.452 352.799 195.189L349.455 208H348.038ZM365.285 208L370.897 198.335L365.682 189.322H367.099L370.16 194.821C370.425 195.255 370.661 195.661 370.869 196.039C371.096 196.417 371.37 196.861 371.691 197.371H371.804C372.069 196.861 372.296 196.417 372.485 196.039C372.692 195.661 372.929 195.255 373.193 194.821L376.254 189.322H377.586L372.371 198.392L377.983 208H376.566L373.306 202.275C373.042 201.802 372.768 201.33 372.485 200.858C372.22 200.385 371.918 199.866 371.578 199.299H371.464C371.162 199.866 370.888 200.385 370.642 200.858C370.397 201.33 370.141 201.802 369.877 202.275L366.618 208H365.285ZM384.145 208V200.432L378.562 189.322H379.951L382.785 195.161C383.106 195.841 383.418 196.512 383.72 197.173C384.041 197.834 384.391 198.505 384.769 199.185H384.882C385.241 198.505 385.591 197.834 385.931 197.173C386.271 196.512 386.592 195.841 386.895 195.161L389.729 189.322H391.061L385.449 200.432V208H384.145ZM391.74 208V207.235L402.482 190.456H392.676V189.322H404.126V190.087L393.356 206.866H404.211V208H391.74ZM5.58354 244.34C5.03558 244.34 4.52541 244.265 4.05303 244.113C3.58065 243.962 3.16495 243.735 2.80594 243.433C2.44693 243.131 2.1635 242.743 1.95566 242.271C1.74781 241.799 1.64389 241.241 1.64389 240.599C1.64389 239.087 2.34301 237.944 3.74126 237.169C5.1584 236.376 7.38804 235.809 10.4302 235.469C10.4302 234.959 10.3924 234.448 10.3168 233.938C10.2412 233.409 10.0806 232.946 9.83497 232.549C9.58933 232.134 9.25867 231.803 8.84297 231.557C8.42728 231.293 7.87931 231.161 7.19909 231.161C6.29211 231.161 5.46072 231.34 4.70491 231.699C3.9491 232.058 3.33501 232.408 2.86263 232.748L2.29577 231.813C2.54141 231.643 2.83429 231.454 3.1744 231.246C3.53341 231.038 3.93021 230.849 4.3648 230.679C4.79939 230.509 5.27177 230.367 5.78194 230.254C6.29211 230.121 6.82118 230.055 7.36914 230.055C8.16274 230.055 8.83352 230.197 9.38149 230.48C9.92945 230.745 10.3735 231.113 10.7136 231.586C11.0537 232.058 11.2994 232.616 11.4505 233.258C11.6017 233.882 11.6773 234.562 11.6773 235.299V244H10.6002L10.4869 242.243H10.4018C9.70271 242.791 8.9469 243.282 8.1344 243.717C7.3408 244.132 6.49051 244.34 5.58354 244.34ZM5.81029 243.263C6.60389 243.263 7.3597 243.074 8.07772 242.696C8.79573 242.318 9.57989 241.77 10.4302 241.052V236.432C9.03192 236.603 7.85097 236.81 6.88731 237.056C5.92366 237.302 5.14895 237.595 4.5632 237.935C3.97745 238.275 3.55231 238.662 3.28777 239.097C3.04213 239.531 2.91931 240.013 2.91931 240.542C2.91931 241.033 2.9949 241.449 3.14606 241.789C3.29722 242.129 3.50507 242.413 3.7696 242.64C4.03413 242.847 4.33646 243.008 4.67657 243.121C5.03558 243.216 5.41349 243.263 5.81029 243.263ZM21.8583 244.34C21.197 244.34 20.5073 244.189 19.7893 243.887C19.0902 243.565 18.4194 243.14 17.777 242.611H17.7203L17.5786 244H16.5299V223.621H17.777V229.517L17.7203 232.181C18.4194 231.595 19.1658 231.095 19.9594 230.679C20.753 230.263 21.5749 230.055 22.4252 230.055C24.2391 230.055 25.5996 230.688 26.5066 231.954C27.4135 233.201 27.867 234.883 27.867 236.999C27.867 238.152 27.7064 239.182 27.3852 240.089C27.064 240.996 26.6199 241.77 26.0531 242.413C25.5051 243.036 24.8627 243.518 24.1258 243.858C23.4077 244.18 22.6519 244.34 21.8583 244.34ZM21.8016 243.235C22.4819 243.235 23.1149 243.084 23.7006 242.781C24.2864 242.479 24.7871 242.054 25.2028 241.506C25.6185 240.958 25.9397 240.306 26.1664 239.55C26.4121 238.775 26.5349 237.925 26.5349 236.999C26.5349 236.168 26.4499 235.393 26.2798 234.675C26.1286 233.957 25.883 233.343 25.5429 232.833C25.2028 232.304 24.7587 231.898 24.2108 231.614C23.6628 231.312 23.0015 231.161 22.2268 231.161C21.5466 231.161 20.838 231.359 20.1011 231.756C19.3642 232.134 18.5894 232.682 17.777 233.4V241.477C18.5328 242.12 19.2602 242.573 19.9594 242.838C20.6585 243.102 21.2726 243.235 21.8016 243.235ZM36.9365 244.34C36.0484 244.34 35.2265 244.18 34.4707 243.858C33.7338 243.537 33.0819 243.074 32.515 242.469C31.9671 241.865 31.5325 241.128 31.2112 240.259C30.9089 239.371 30.7578 238.36 30.7578 237.226C30.7578 236.092 30.9278 235.081 31.2679 234.193C31.608 233.286 32.0615 232.531 32.6284 231.926C33.1952 231.321 33.8471 230.858 34.584 230.537C35.3399 230.216 36.1335 230.055 36.9648 230.055C37.9096 230.055 38.6938 230.225 39.3173 230.565C39.9408 230.906 40.4888 231.293 40.9612 231.728L40.2243 232.606C39.7897 232.19 39.3079 231.85 38.7788 231.586C38.2497 231.302 37.6545 231.161 36.9932 231.161C36.2941 231.161 35.6422 231.312 35.0375 231.614C34.4518 231.898 33.9322 232.313 33.4787 232.861C33.0441 233.39 32.6945 234.023 32.43 234.76C32.1843 235.497 32.0615 236.319 32.0615 237.226C32.0615 238.114 32.1749 238.927 32.4016 239.664C32.6473 240.4 32.9779 241.033 33.3936 241.563C33.8282 242.092 34.3479 242.507 34.9525 242.81C35.576 243.093 36.2563 243.235 36.9932 243.235C37.7112 243.235 38.3725 243.084 38.9772 242.781C39.6007 242.479 40.1487 242.11 40.6211 241.676L41.273 242.555C40.6872 243.065 40.0353 243.49 39.3173 243.83C38.5993 244.17 37.8057 244.34 36.9365 244.34ZM48.6596 244.34C46.9401 244.34 45.5702 243.735 44.5499 242.526C43.5295 241.298 43.0194 239.531 43.0194 237.226C43.0194 236.13 43.18 235.138 43.5012 234.25C43.8224 233.362 44.257 232.606 44.805 231.983C45.3718 231.359 46.0143 230.887 46.7323 230.565C47.4692 230.225 48.2439 230.055 49.0564 230.055C49.8878 230.055 50.6058 230.206 51.2105 230.509C51.834 230.792 52.4859 231.198 53.1661 231.728L53.1094 229.233V223.621H54.3565V244H53.2795L53.1661 242.243H53.0811C52.5331 242.791 51.8812 243.282 51.1254 243.717C50.3885 244.132 49.5666 244.34 48.6596 244.34ZM48.8297 243.235C49.5855 243.235 50.3035 243.046 50.9837 242.668C51.6828 242.271 52.3914 241.714 53.1094 240.996V232.918C52.3914 232.276 51.7112 231.822 51.0687 231.557C50.4452 231.293 49.8028 231.161 49.1414 231.161C48.4612 231.161 47.8282 231.321 47.2425 231.643C46.6567 231.945 46.1465 232.37 45.7119 232.918C45.2962 233.447 44.9656 234.089 44.7199 234.845C44.4743 235.582 44.3515 236.376 44.3515 237.226C44.3515 238.133 44.446 238.955 44.6349 239.692C44.8428 240.429 45.1356 241.062 45.5135 241.591C45.8914 242.101 46.3544 242.507 46.9023 242.81C47.4692 243.093 48.1116 243.235 48.8297 243.235ZM64.7284 244.34C63.8593 244.34 63.0373 244.18 62.2626 243.858C61.5068 243.537 60.8455 243.074 60.2786 242.469C59.7118 241.846 59.2583 241.1 58.9182 240.23C58.5969 239.342 58.4363 238.341 58.4363 237.226C58.4363 236.111 58.5969 235.11 58.9182 234.222C59.2583 233.334 59.7023 232.587 60.2503 231.983C60.8171 231.359 61.4501 230.887 62.1492 230.565C62.8673 230.225 63.6042 230.055 64.36 230.055C65.985 230.055 67.2604 230.603 68.1863 231.699C69.1121 232.795 69.5751 234.345 69.5751 236.347C69.5751 236.517 69.5751 236.688 69.5751 236.858C69.5751 237.028 69.5562 237.198 69.5184 237.368H59.7118C59.7307 238.218 59.8629 239.012 60.1086 239.749C60.3542 240.467 60.6943 241.09 61.1289 241.619C61.5824 242.129 62.1209 242.536 62.7444 242.838C63.368 243.121 64.0671 243.263 64.8418 243.263C65.5787 243.263 66.2401 243.159 66.8258 242.951C67.4305 242.725 67.9879 242.422 68.498 242.044L69.0082 243.008C68.4603 243.329 67.8556 243.632 67.1943 243.915C66.5518 244.198 65.7299 244.34 64.7284 244.34ZM59.7118 236.347H68.3847C68.3847 234.59 68.0257 233.286 67.3076 232.436C66.5896 231.567 65.6165 231.132 64.3883 231.132C63.8026 231.132 63.2452 231.255 62.7161 231.501C62.187 231.728 61.7052 232.068 61.2706 232.521C60.8549 232.975 60.5054 233.523 60.2219 234.165C59.9574 234.807 59.7873 235.535 59.7118 236.347ZM73.4693 244V231.472H71.5987V230.509L73.4693 230.395V227.363C73.4693 226.002 73.7622 224.982 74.348 224.302C74.9337 223.621 75.7651 223.281 76.8421 223.281C77.5035 223.281 78.1648 223.433 78.8261 223.735L78.486 224.755C78.2026 224.604 77.9192 224.5 77.6357 224.443C77.3712 224.387 77.1067 224.358 76.8421 224.358C76.1241 224.358 75.5856 224.623 75.2266 225.152C74.8865 225.681 74.7164 226.446 74.7164 227.448V230.395H77.8625V231.472H74.7164V244H73.4693ZM84.7511 250.547C83.0317 250.547 81.6712 250.207 80.6697 249.527C79.6683 248.847 79.1676 247.93 79.1676 246.778C79.1676 246.173 79.3471 245.587 79.7061 245.02C80.0651 244.453 80.5564 243.943 81.1799 243.49V243.376C80.8398 243.169 80.5564 242.885 80.3296 242.526C80.1029 242.167 79.9895 241.723 79.9895 241.194C79.9895 240.589 80.1596 240.079 80.4997 239.664C80.8398 239.229 81.161 238.908 81.4633 238.7V238.587C81.0288 238.209 80.632 237.698 80.2729 237.056C79.9328 236.414 79.7628 235.677 79.7628 234.845C79.7628 234.146 79.8856 233.504 80.1312 232.918C80.3769 232.332 80.717 231.831 81.1516 231.416C81.5862 230.981 82.0963 230.651 82.6821 230.424C83.2678 230.178 83.8914 230.055 84.5527 230.055C84.9306 230.055 85.2707 230.093 85.5731 230.169C85.8754 230.225 86.1305 230.301 86.3383 230.395H90.9582V231.444H87.7838C88.2184 231.822 88.5774 232.313 88.8608 232.918C89.1443 233.504 89.286 234.156 89.286 234.874C89.286 235.573 89.1632 236.215 88.9175 236.801C88.6719 237.387 88.3318 237.897 87.8972 238.331C87.4815 238.747 86.9808 239.078 86.395 239.323C85.8281 239.55 85.2141 239.664 84.5527 239.664C84.1748 239.664 83.778 239.616 83.3623 239.522C82.9655 239.427 82.6065 239.286 82.2853 239.097C81.983 239.342 81.7184 239.616 81.4917 239.919C81.2838 240.221 81.1799 240.599 81.1799 241.052C81.1799 241.544 81.3594 241.969 81.7184 242.328C82.0774 242.668 82.7671 242.838 83.7875 242.838H86.7068C88.2373 242.838 89.3616 243.093 90.0796 243.603C90.8165 244.094 91.1849 244.879 91.1849 245.956C91.1849 246.541 91.0338 247.108 90.7315 247.656C90.4291 248.223 89.9945 248.714 89.4277 249.13C88.8797 249.565 88.2089 249.905 87.4153 250.15C86.6217 250.415 85.7337 250.547 84.7511 250.547ZM84.5527 238.672C85.0251 238.672 85.4691 238.587 85.8848 238.416C86.3194 238.228 86.6973 237.963 87.0185 237.623C87.3398 237.283 87.5949 236.876 87.7838 236.404C87.9728 235.932 88.0672 235.412 88.0672 234.845C88.0672 234.278 87.9728 233.759 87.7838 233.286C87.5949 232.814 87.3398 232.417 87.0185 232.096C86.7162 231.775 86.3478 231.529 85.9132 231.359C85.4786 231.17 85.0251 231.076 84.5527 231.076C84.0614 231.076 83.5985 231.17 83.1639 231.359C82.7482 231.529 82.3798 231.775 82.0585 232.096C81.7373 232.417 81.4822 232.814 81.2933 233.286C81.1043 233.74 81.0099 234.26 81.0099 234.845C81.0099 235.412 81.1043 235.932 81.2933 236.404C81.4822 236.876 81.7373 237.283 82.0585 237.623C82.3987 237.963 82.7766 238.228 83.1923 238.416C83.6269 238.587 84.0803 238.672 84.5527 238.672ZM84.8928 249.527C85.6486 249.527 86.3383 249.423 86.9619 249.215C87.5854 249.026 88.1145 248.771 88.5491 248.45C88.9837 248.129 89.3143 247.76 89.5411 247.344C89.7867 246.948 89.9095 246.532 89.9095 246.097C89.9095 245.342 89.6355 244.803 89.0876 244.482C88.5585 244.18 87.7838 244.028 86.7635 244.028H83.8441C83.693 244.028 83.4568 244.019 83.1356 244C82.8333 243.962 82.5026 243.896 82.1436 243.802C81.52 244.236 81.0665 244.699 80.7831 245.19C80.4997 245.682 80.358 246.173 80.358 246.664C80.358 247.515 80.7453 248.204 81.52 248.733C82.3136 249.262 83.4379 249.527 84.8928 249.527ZM94.1129 244V223.621H95.36V232.521C96.078 231.803 96.8055 231.217 97.5424 230.764C98.2793 230.292 99.1201 230.055 100.065 230.055C101.482 230.055 102.521 230.48 103.183 231.331C103.844 232.181 104.175 233.494 104.175 235.27V244H102.928V235.44C102.928 233.986 102.682 232.918 102.191 232.238C101.718 231.539 100.925 231.189 99.8098 231.189C98.9973 231.189 98.2604 231.406 97.5991 231.841C96.9377 232.257 96.1914 232.89 95.36 233.74V244H94.1129ZM109.087 244V230.395H110.334V244H109.087ZM109.739 227.108C109.418 227.108 109.144 227.004 108.917 226.796C108.709 226.588 108.605 226.324 108.605 226.002C108.605 225.643 108.709 225.369 108.917 225.18C109.144 224.972 109.418 224.869 109.739 224.869C110.06 224.869 110.325 224.972 110.532 225.18C110.759 225.369 110.873 225.643 110.873 226.002C110.873 226.324 110.759 226.588 110.532 226.796C110.325 227.004 110.06 227.108 109.739 227.108ZM113.778 250.491C113.457 250.491 113.136 250.453 112.815 250.377C112.493 250.32 112.229 250.245 112.021 250.15L112.333 249.13C112.503 249.187 112.711 249.243 112.956 249.3C113.221 249.376 113.485 249.413 113.75 249.413C114.506 249.413 114.997 249.13 115.224 248.563C115.45 248.015 115.564 247.307 115.564 246.437V230.395H116.839V246.523C116.839 247.864 116.594 248.856 116.102 249.499C115.611 250.16 114.836 250.491 113.778 250.491ZM116.216 227.108C115.913 227.108 115.649 227.004 115.422 226.796C115.195 226.588 115.082 226.324 115.082 226.002C115.082 225.643 115.195 225.369 115.422 225.18C115.649 224.972 115.913 224.869 116.216 224.869C116.537 224.869 116.811 224.972 117.038 225.18C117.264 225.369 117.378 225.643 117.378 226.002C117.378 226.324 117.264 226.588 117.038 226.796C116.811 227.004 116.537 227.108 116.216 227.108ZM122.041 244V223.621H123.288V238.643H123.344L130.062 230.395H131.507L127.086 235.781L132.244 244H130.855L126.349 236.716L123.288 240.287V244H122.041ZM136.86 244.34C135.745 244.34 135.188 243.622 135.188 242.186V223.621H136.435V242.356C136.435 242.658 136.492 242.885 136.605 243.036C136.718 243.169 136.86 243.235 137.03 243.235C137.087 243.235 137.144 243.235 137.2 243.235C137.276 243.235 137.389 243.216 137.54 243.178L137.767 244.198C137.635 244.236 137.503 244.265 137.37 244.283C137.238 244.321 137.068 244.34 136.86 244.34ZM141.914 244V230.395H142.991L143.104 232.493H143.189C143.794 231.794 144.465 231.217 145.202 230.764C145.957 230.292 146.713 230.055 147.469 230.055C148.565 230.055 149.406 230.31 149.992 230.821C150.577 231.312 150.993 231.983 151.239 232.833C152.032 231.983 152.797 231.312 153.534 230.821C154.29 230.31 155.065 230.055 155.858 230.055C158.579 230.055 159.94 231.794 159.94 235.27V244H158.664V235.44C158.664 233.986 158.419 232.918 157.928 232.238C157.436 231.539 156.671 231.189 155.632 231.189C154.404 231.189 153.043 232.039 151.55 233.74V244H150.303V235.44C150.303 233.986 150.058 232.918 149.566 232.238C149.075 231.539 148.3 231.189 147.242 231.189C146.014 231.189 144.654 232.039 143.161 233.74V244H141.914ZM164.915 244V230.395H165.992L166.105 232.493H166.19C166.889 231.794 167.607 231.217 168.344 230.764C169.081 230.292 169.922 230.055 170.867 230.055C172.284 230.055 173.323 230.48 173.984 231.331C174.646 232.181 174.976 233.494 174.976 235.27V244H173.729V235.44C173.729 233.986 173.484 232.918 172.992 232.238C172.52 231.539 171.726 231.189 170.612 231.189C169.799 231.189 169.062 231.406 168.401 231.841C167.74 232.257 166.993 232.89 166.162 233.74V244H164.915ZM184.96 244.34C184.147 244.34 183.372 244.18 182.635 243.858C181.898 243.537 181.247 243.074 180.68 242.469C180.132 241.865 179.688 241.128 179.348 240.259C179.026 239.371 178.866 238.36 178.866 237.226C178.866 236.092 179.026 235.081 179.348 234.193C179.688 233.286 180.132 232.531 180.68 231.926C181.247 231.321 181.898 230.858 182.635 230.537C183.372 230.216 184.147 230.055 184.96 230.055C185.772 230.055 186.547 230.216 187.284 230.537C188.039 230.858 188.691 231.321 189.239 231.926C189.806 232.531 190.25 233.286 190.571 234.193C190.912 235.081 191.082 236.092 191.082 237.226C191.082 238.36 190.912 239.371 190.571 240.259C190.25 241.128 189.806 241.865 189.239 242.469C188.691 243.074 188.039 243.537 187.284 243.858C186.547 244.18 185.772 244.34 184.96 244.34ZM184.96 243.235C185.64 243.235 186.273 243.093 186.858 242.81C187.463 242.507 187.973 242.092 188.389 241.563C188.824 241.033 189.164 240.4 189.409 239.664C189.655 238.927 189.778 238.114 189.778 237.226C189.778 236.319 189.655 235.497 189.409 234.76C189.164 234.023 188.824 233.39 188.389 232.861C187.973 232.313 187.463 231.898 186.858 231.614C186.273 231.312 185.64 231.161 184.96 231.161C184.279 231.161 183.646 231.312 183.061 231.614C182.475 231.898 181.965 232.313 181.53 232.861C181.114 233.39 180.784 234.023 180.538 234.76C180.292 235.497 180.17 236.319 180.17 237.226C180.17 238.114 180.292 238.927 180.538 239.664C180.784 240.4 181.114 241.033 181.53 241.563C181.965 242.092 182.475 242.507 183.061 242.81C183.646 243.093 184.279 243.235 184.96 243.235ZM195.167 250.15V230.395H196.244L196.358 232.096H196.443C197.104 231.567 197.822 231.095 198.597 230.679C199.39 230.263 200.212 230.055 201.063 230.055C202.877 230.055 204.237 230.688 205.144 231.954C206.051 233.201 206.505 234.883 206.505 236.999C206.505 238.152 206.344 239.182 206.023 240.089C205.701 240.996 205.257 241.77 204.691 242.413C204.143 243.036 203.5 243.518 202.763 243.858C202.045 244.18 201.289 244.34 200.496 244.34C199.853 244.34 199.192 244.198 198.512 243.915C197.832 243.613 197.132 243.197 196.414 242.668V250.15H195.167ZM200.439 243.235C201.119 243.235 201.752 243.084 202.338 242.781C202.924 242.479 203.425 242.054 203.84 241.506C204.256 240.958 204.577 240.306 204.804 239.55C205.05 238.775 205.172 237.925 205.172 236.999C205.172 236.168 205.087 235.393 204.917 234.675C204.766 233.957 204.521 233.343 204.18 232.833C203.84 232.304 203.396 231.898 202.848 231.614C202.3 231.312 201.639 231.161 200.864 231.161C200.184 231.161 199.475 231.359 198.739 231.756C198.021 232.134 197.246 232.682 196.414 233.4V241.477C197.208 242.12 197.945 242.573 198.625 242.838C199.305 243.102 199.91 243.235 200.439 243.235ZM219.541 250.15V244.907L219.597 242.214C218.993 242.8 218.312 243.301 217.557 243.717C216.82 244.132 215.998 244.34 215.091 244.34C213.371 244.34 212.001 243.735 210.981 242.526C209.961 241.298 209.451 239.531 209.451 237.226C209.451 236.13 209.611 235.138 209.932 234.25C210.254 233.362 210.688 232.606 211.236 231.983C211.803 231.359 212.446 230.887 213.164 230.565C213.9 230.225 214.675 230.055 215.488 230.055C216.319 230.055 217.037 230.197 217.642 230.48C218.265 230.764 218.898 231.151 219.541 231.643H219.597L219.739 230.395H220.788V250.15H219.541ZM215.261 243.235C216.017 243.235 216.735 243.046 217.415 242.668C218.114 242.271 218.823 241.714 219.541 240.996V232.918C218.823 232.276 218.142 231.822 217.5 231.557C216.876 231.293 216.234 231.161 215.573 231.161C214.892 231.161 214.259 231.321 213.674 231.643C213.088 231.945 212.578 232.37 212.143 232.918C211.727 233.447 211.397 234.089 211.151 234.845C210.906 235.582 210.783 236.376 210.783 237.226C210.783 238.133 210.877 238.955 211.066 239.692C211.274 240.429 211.567 241.062 211.945 241.591C212.323 242.101 212.786 242.507 213.334 242.81C213.9 243.093 214.543 243.235 215.261 243.235ZM226.001 244V230.395H227.078L227.192 232.918H227.277C227.73 232.068 228.278 231.378 228.921 230.849C229.582 230.32 230.319 230.055 231.131 230.055C231.396 230.055 231.632 230.074 231.84 230.112C232.048 230.15 232.265 230.225 232.492 230.339L232.208 231.472C231.982 231.378 231.783 231.321 231.613 231.302C231.443 231.265 231.226 231.246 230.961 231.246C230.357 231.246 229.714 231.51 229.034 232.039C228.373 232.549 227.777 233.447 227.248 234.732V244H226.001ZM238.285 244.34C237.264 244.34 236.329 244.161 235.479 243.802C234.628 243.424 233.901 242.98 233.296 242.469L234.033 241.534C234.619 242.025 235.242 242.441 235.904 242.781C236.565 243.102 237.387 243.263 238.37 243.263C239.447 243.263 240.25 242.999 240.779 242.469C241.327 241.922 241.601 241.289 241.601 240.571C241.601 240.155 241.497 239.786 241.289 239.465C241.1 239.144 240.845 238.87 240.524 238.643C240.202 238.416 239.843 238.218 239.447 238.048C239.069 237.878 238.681 237.717 238.285 237.566C237.774 237.377 237.255 237.179 236.726 236.971C236.216 236.763 235.753 236.517 235.337 236.234C234.921 235.932 234.581 235.582 234.317 235.185C234.071 234.77 233.948 234.269 233.948 233.683C233.948 233.192 234.043 232.729 234.232 232.294C234.421 231.841 234.704 231.454 235.082 231.132C235.46 230.792 235.913 230.528 236.442 230.339C236.99 230.15 237.623 230.055 238.341 230.055C239.059 230.055 239.758 230.188 240.439 230.452C241.138 230.717 241.733 231.057 242.224 231.472L241.544 232.351C241.091 232.011 240.609 231.728 240.099 231.501C239.588 231.255 238.984 231.132 238.285 231.132C237.756 231.132 237.302 231.208 236.924 231.359C236.546 231.491 236.225 231.671 235.96 231.898C235.715 232.124 235.526 232.389 235.394 232.691C235.28 232.994 235.224 233.296 235.224 233.598C235.224 233.995 235.309 234.335 235.479 234.619C235.668 234.883 235.913 235.119 236.216 235.327C236.518 235.535 236.858 235.724 237.236 235.894C237.633 236.045 238.03 236.196 238.426 236.347C238.955 236.555 239.484 236.763 240.014 236.971C240.543 237.179 241.015 237.434 241.431 237.736C241.865 238.039 242.215 238.416 242.479 238.87C242.744 239.305 242.876 239.852 242.876 240.514C242.876 241.024 242.772 241.515 242.564 241.988C242.375 242.441 242.083 242.847 241.686 243.206C241.289 243.547 240.807 243.82 240.24 244.028C239.673 244.236 239.022 244.34 238.285 244.34ZM249.643 244.34C248.981 244.34 248.433 244.236 247.999 244.028C247.564 243.839 247.215 243.565 246.95 243.206C246.686 242.847 246.497 242.413 246.383 241.903C246.289 241.392 246.242 240.835 246.242 240.23V231.472H244.116V230.509L246.27 230.395L246.44 226.456H247.517V230.395H251.457V231.472H247.517V240.344C247.517 240.778 247.545 241.175 247.602 241.534C247.678 241.874 247.8 242.177 247.971 242.441C248.141 242.687 248.367 242.885 248.651 243.036C248.953 243.169 249.34 243.235 249.813 243.235C250.077 243.235 250.361 243.197 250.663 243.121C250.984 243.027 251.268 242.923 251.513 242.81L251.854 243.83C251.457 243.981 251.06 244.104 250.663 244.198C250.266 244.293 249.926 244.34 249.643 244.34ZM258.671 244.34C257.254 244.34 256.214 243.915 255.553 243.065C254.892 242.214 254.561 240.901 254.561 239.125V230.395H255.808V238.955C255.808 240.41 256.044 241.487 256.517 242.186C257.008 242.866 257.801 243.206 258.897 243.206C259.71 243.206 260.447 242.989 261.108 242.555C261.769 242.101 262.497 241.392 263.291 240.429V230.395H264.538V244H263.489L263.347 241.733H263.291C262.629 242.526 261.93 243.159 261.193 243.632C260.456 244.104 259.615 244.34 258.671 244.34ZM272.595 244L267.494 230.395H268.854L271.915 238.927C272.123 239.588 272.35 240.249 272.595 240.911C272.841 241.572 273.068 242.214 273.276 242.838H273.389C273.616 242.214 273.842 241.572 274.069 240.911C274.315 240.249 274.551 239.588 274.778 238.927L277.839 230.395H279.114L274.069 244H272.595ZM284.148 244L280.123 230.395H281.484L283.921 239.21C284.091 239.834 284.252 240.448 284.403 241.052C284.554 241.638 284.705 242.233 284.856 242.838H284.97C285.121 242.233 285.281 241.638 285.452 241.052C285.622 240.448 285.792 239.834 285.962 239.21L288.428 230.395H289.93L292.396 239.21C292.566 239.834 292.736 240.448 292.906 241.052C293.076 241.638 293.246 242.233 293.416 242.838H293.529C293.68 242.233 293.841 241.638 294.011 241.052C294.181 240.448 294.342 239.834 294.493 239.21L296.902 230.395H298.178L294.266 244H292.622L290.242 235.554C290.034 234.892 289.854 234.25 289.703 233.627C289.571 232.984 289.401 232.332 289.193 231.671H289.079C288.928 232.332 288.758 232.994 288.569 233.655C288.399 234.297 288.21 234.949 288.002 235.611L285.65 244H284.148ZM299.242 244L303.862 236.886L299.611 230.395H301L303.21 233.853C303.437 234.231 303.664 234.609 303.891 234.987C304.136 235.346 304.391 235.714 304.656 236.092H304.769C305.015 235.714 305.242 235.346 305.449 234.987C305.676 234.609 305.912 234.231 306.158 233.853L308.284 230.395H309.587L305.364 236.999L309.984 244H308.595L306.186 240.287C305.922 239.852 305.657 239.427 305.393 239.012C305.128 238.596 304.854 238.19 304.571 237.793H304.457C304.193 238.19 303.928 238.596 303.664 239.012C303.418 239.427 303.163 239.852 302.899 240.287L300.574 244H299.242ZM312.65 250.207C312.14 250.207 311.677 250.113 311.261 249.924L311.545 248.818C311.696 248.875 311.866 248.922 312.055 248.96C312.244 249.017 312.442 249.045 312.65 249.045C313.501 249.045 314.209 248.705 314.776 248.025C315.343 247.344 315.796 246.485 316.136 245.445L316.505 244.255L310.921 230.395H312.282L315.57 238.955C315.777 239.522 316.004 240.145 316.25 240.826C316.514 241.506 316.779 242.148 317.043 242.753H317.157C317.365 242.148 317.572 241.506 317.78 240.826C318.007 240.145 318.215 239.522 318.404 238.955L321.323 230.395H322.599L317.213 245.701C317.025 246.267 316.788 246.825 316.505 247.373C316.24 247.921 315.919 248.403 315.541 248.818C315.182 249.234 314.757 249.565 314.266 249.81C313.793 250.075 313.255 250.207 312.65 250.207ZM323.082 244V243.32L331.132 231.472H323.961V230.395H332.747V231.047L324.726 242.895H333.031V244H323.082ZM2.3808 280V278.895H6.63223V263.873H3.40114V263.023C4.13806 262.89 4.78994 262.73 5.3568 262.541C5.94255 262.352 6.45272 262.135 6.88731 261.889H7.90766V278.895H11.8473V280H2.3808ZM14.7246 280V279.206C16.2173 277.695 17.5211 276.344 18.6359 275.153C19.7507 273.944 20.6766 272.848 21.4135 271.866C22.1693 270.864 22.7267 269.948 23.0857 269.116C23.4636 268.266 23.6526 267.444 23.6526 266.651C23.6526 265.517 23.3313 264.563 22.6889 263.788C22.0654 263.013 21.0734 262.626 19.7129 262.626C18.8815 262.626 18.1068 262.853 17.3888 263.306C16.6708 263.76 16.0378 264.326 15.4898 265.007L14.6679 264.213C15.3481 263.457 16.0945 262.824 16.907 262.314C17.7383 261.804 18.7115 261.549 19.8263 261.549C21.4513 261.549 22.7078 262.012 23.5959 262.938C24.4839 263.863 24.928 265.092 24.928 266.622C24.928 267.529 24.7296 268.436 24.3328 269.343C23.936 270.231 23.3786 271.176 22.6606 272.177C21.9425 273.16 21.0639 274.218 20.0247 275.352C19.0043 276.467 17.8706 277.685 16.6235 279.008C17.1148 278.97 17.6155 278.942 18.1257 278.923C18.6548 278.885 19.1649 278.866 19.6562 278.866H25.835V280H14.7246ZM33.7005 280.34C32.9825 280.34 32.3306 280.265 31.7449 280.113C31.1591 279.962 30.6301 279.764 30.1577 279.518C29.7042 279.273 29.2885 278.999 28.9106 278.696C28.5516 278.394 28.2304 278.092 27.9469 277.789L28.6839 276.911C28.9484 277.213 29.2413 277.506 29.5625 277.789C29.8837 278.054 30.2427 278.299 30.6395 278.526C31.0552 278.734 31.5087 278.904 32 279.036C32.5101 279.169 33.077 279.235 33.7005 279.235C34.3052 279.235 34.8626 279.14 35.3728 278.951C35.9018 278.762 36.3553 278.498 36.7332 278.158C37.1111 277.799 37.404 277.374 37.6119 276.882C37.8197 276.391 37.9236 275.843 37.9236 275.238C37.9236 274.615 37.8008 274.048 37.5552 273.538C37.3284 273.028 36.96 272.593 36.4498 272.234C35.9585 271.856 35.3066 271.563 34.4941 271.355C33.7005 271.148 32.7369 271.044 31.6032 271.044V269.938C32.6424 269.938 33.521 269.834 34.2391 269.627C34.976 269.419 35.5617 269.145 35.9963 268.805C36.4498 268.446 36.771 268.03 36.96 267.557C37.1678 267.066 37.2717 266.547 37.2717 265.999C37.2717 264.978 36.9411 264.166 36.2797 263.561C35.6184 262.938 34.7303 262.626 33.6155 262.626C32.7652 262.626 31.9905 262.824 31.2914 263.221C30.5923 263.599 29.9782 264.062 29.4491 264.61L28.7122 263.76C29.3357 263.155 30.0443 262.635 30.8379 262.201C31.6315 261.766 32.5574 261.549 33.6155 261.549C34.3146 261.549 34.9665 261.653 35.5712 261.861C36.1758 262.05 36.6954 262.333 37.13 262.711C37.5835 263.07 37.9331 263.523 38.1787 264.071C38.4432 264.6 38.5755 265.214 38.5755 265.914C38.5755 267.104 38.2448 268.068 37.5835 268.805C36.9411 269.523 36.1191 270.052 35.1177 270.392V270.505C35.6845 270.619 36.2136 270.817 36.7049 271.1C37.1962 271.365 37.6308 271.696 38.0087 272.092C38.3866 272.489 38.6794 272.952 38.8873 273.481C39.114 273.991 39.2274 274.568 39.2274 275.21C39.2274 276.004 39.0857 276.722 38.8023 277.364C38.5188 277.988 38.122 278.526 37.6119 278.98C37.1206 279.414 36.5348 279.754 35.8546 280C35.1933 280.227 34.4752 280.34 33.7005 280.34ZM49.4738 280V274.587H41.141V273.85L49.5588 261.889H50.6925V273.509H53.3851V274.587H50.6925V280H49.4738ZM42.6715 273.509H49.4738V266.877C49.4738 266.462 49.4832 265.942 49.5021 265.318C49.521 264.695 49.5494 264.175 49.5872 263.76H49.4738C49.247 264.137 49.0109 264.506 48.7652 264.865C48.5196 265.224 48.2645 265.611 48 266.027L42.6715 273.509ZM60.6838 280.34C59.9658 280.34 59.3139 280.265 58.7282 280.113C58.1613 279.981 57.6417 279.802 57.1693 279.575C56.7158 279.329 56.3096 279.065 55.9506 278.781C55.5916 278.479 55.2703 278.186 54.9869 277.903L55.6955 277.024C55.96 277.307 56.2529 277.581 56.5741 277.846C56.8953 278.11 57.2543 278.347 57.6511 278.555C58.0479 278.762 58.492 278.932 58.9833 279.065C59.4745 279.178 60.0319 279.235 60.6555 279.235C61.2601 279.235 61.8364 279.121 62.3844 278.895C62.9324 278.649 63.4047 278.318 63.8015 277.903C64.2172 277.468 64.5479 276.958 64.7935 276.372C65.0392 275.767 65.162 275.097 65.162 274.36C65.162 272.886 64.7652 271.743 63.9716 270.93C63.178 270.099 62.101 269.683 60.7405 269.683C60.0414 269.683 59.4367 269.797 58.9266 270.023C58.4353 270.231 57.9157 270.524 57.3677 270.902L56.4891 270.363L57.141 261.889H65.5021V262.994H58.2747L57.7078 269.541C58.1802 269.258 58.6715 269.031 59.1817 268.861C59.6918 268.672 60.2776 268.578 60.9389 268.578C61.6947 268.578 62.4127 268.691 63.093 268.918C63.7732 269.145 64.359 269.494 64.8502 269.967C65.3415 270.42 65.7289 271.015 66.0123 271.752C66.3146 272.47 66.4658 273.321 66.4658 274.303C66.4658 275.267 66.2957 276.126 65.9556 276.882C65.6344 277.619 65.1998 278.252 64.6518 278.781C64.1228 279.291 63.5087 279.679 62.8095 279.943C62.1293 280.208 61.4207 280.34 60.6838 280.34ZM75.21 280.34C73.3771 280.34 71.9317 279.603 70.8735 278.129C69.8154 276.656 69.2863 274.539 69.2863 271.781C69.2863 269.891 69.4658 268.294 69.8248 266.991C70.2027 265.687 70.694 264.629 71.2987 263.816C71.9222 263.004 72.6308 262.427 73.4244 262.087C74.2369 261.728 75.0777 261.549 75.9469 261.549C76.7972 261.549 77.5247 261.709 78.1293 262.031C78.7528 262.352 79.3008 262.777 79.7732 263.306L79.0079 264.156C78.6111 263.665 78.1482 263.297 77.6191 263.051C77.0901 262.786 76.5327 262.654 75.9469 262.654C75.2289 262.654 74.5392 262.815 73.8779 263.136C73.2354 263.438 72.6686 263.939 72.1773 264.638C71.686 265.337 71.2892 266.263 70.9869 267.416C70.7035 268.549 70.5618 269.938 70.5618 271.582C71.1853 270.807 71.8844 270.193 72.6591 269.74C73.4527 269.286 74.2747 269.06 75.125 269.06C76.7311 269.06 77.9687 269.541 78.8379 270.505C79.7259 271.45 80.17 272.839 80.17 274.672C80.17 275.503 80.0377 276.268 79.7732 276.967C79.5087 277.648 79.1496 278.243 78.6962 278.753C78.2427 279.244 77.7136 279.632 77.109 279.915C76.5232 280.198 75.8902 280.34 75.21 280.34ZM75.2383 279.263C75.7674 279.263 76.2492 279.15 76.6838 278.923C77.1373 278.677 77.5247 278.347 77.8459 277.931C78.1671 277.515 78.4222 277.033 78.6111 276.485C78.8001 275.919 78.8946 275.314 78.8946 274.672C78.8946 274.029 78.819 273.434 78.6678 272.886C78.5167 272.319 78.2805 271.837 77.9592 271.44C77.6569 271.025 77.2507 270.704 76.7405 270.477C76.2492 270.25 75.6635 270.137 74.9832 270.137C74.3408 270.137 73.6322 270.345 72.8575 270.76C72.0828 271.157 71.327 271.856 70.5901 272.858C70.6468 273.821 70.7791 274.7 70.9869 275.493C71.2136 276.268 71.516 276.939 71.8939 277.506C72.2718 278.054 72.7347 278.488 73.2827 278.81C73.8495 279.112 74.5014 279.263 75.2383 279.263ZM86.7035 280C86.779 278.167 86.9302 276.495 87.1569 274.983C87.4026 273.453 87.7427 272.017 88.1773 270.675C88.6119 269.315 89.1598 268.02 89.8212 266.792C90.4825 265.545 91.2667 264.279 92.1736 262.994H82.6221V261.889H93.7608V262.626C92.6838 264.062 91.7863 265.441 91.0683 266.764C90.3691 268.087 89.8023 269.438 89.3677 270.817C88.952 272.177 88.6497 273.604 88.4607 275.097C88.2718 276.589 88.1395 278.224 88.0639 280H86.7035ZM101.825 280.34C100.993 280.34 100.228 280.217 99.529 279.972C98.8299 279.707 98.2253 279.358 97.7151 278.923C97.2049 278.469 96.7987 277.94 96.4964 277.336C96.2129 276.731 96.0712 276.07 96.0712 275.352C96.0712 274.747 96.1751 274.18 96.383 273.651C96.6097 273.122 96.8932 272.65 97.2333 272.234C97.5923 271.799 97.9796 271.422 98.3953 271.1C98.8299 270.76 99.2645 270.477 99.6991 270.25V270.137C99.359 269.91 99.0283 269.664 98.7071 269.4C98.4048 269.116 98.1308 268.805 97.8852 268.464C97.6584 268.105 97.4695 267.728 97.3183 267.331C97.1671 266.915 97.0916 266.462 97.0916 265.97C97.0916 265.328 97.2144 264.733 97.46 264.185C97.7057 263.637 98.0363 263.174 98.452 262.796C98.8866 262.399 99.3873 262.097 99.9542 261.889C100.54 261.662 101.163 261.549 101.825 261.549C102.6 261.549 103.289 261.672 103.894 261.917C104.498 262.144 105.009 262.475 105.424 262.909C105.859 263.325 106.18 263.826 106.388 264.411C106.615 264.978 106.728 265.602 106.728 266.282C106.728 266.773 106.643 267.255 106.473 267.728C106.303 268.181 106.086 268.606 105.821 269.003C105.576 269.4 105.302 269.759 104.999 270.08C104.697 270.401 104.413 270.666 104.149 270.874V270.987C104.546 271.233 104.933 271.497 105.311 271.781C105.689 272.064 106.02 272.385 106.303 272.744C106.605 273.103 106.851 273.519 107.04 273.991C107.229 274.464 107.323 275.002 107.323 275.607C107.323 276.268 107.191 276.892 106.927 277.477C106.662 278.044 106.284 278.545 105.793 278.98C105.32 279.395 104.744 279.726 104.064 279.972C103.384 280.217 102.637 280.34 101.825 280.34ZM103.157 270.505C103.932 269.882 104.517 269.23 104.914 268.549C105.33 267.85 105.538 267.104 105.538 266.31C105.538 265.8 105.453 265.328 105.283 264.893C105.113 264.44 104.867 264.043 104.546 263.703C104.243 263.363 103.856 263.098 103.384 262.909C102.93 262.701 102.411 262.597 101.825 262.597C101.315 262.597 100.842 262.683 100.408 262.853C99.992 263.023 99.6235 263.259 99.3023 263.561C99 263.845 98.7638 264.194 98.5937 264.61C98.4237 265.026 98.3386 265.479 98.3386 265.97C98.3386 266.613 98.4709 267.17 98.7354 267.643C99.0189 268.096 99.3873 268.502 99.8408 268.861C100.294 269.201 100.804 269.504 101.371 269.768C101.957 270.033 102.552 270.278 103.157 270.505ZM101.825 279.291C102.467 279.291 103.044 279.197 103.554 279.008C104.083 278.819 104.527 278.555 104.886 278.214C105.264 277.874 105.547 277.477 105.736 277.024C105.944 276.571 106.048 276.089 106.048 275.579C106.048 274.879 105.887 274.294 105.566 273.821C105.264 273.33 104.848 272.905 104.319 272.546C103.809 272.168 103.223 271.847 102.562 271.582C101.9 271.299 101.22 271.015 100.521 270.732C99.5952 271.28 98.8299 271.932 98.2253 272.688C97.6206 273.424 97.3183 274.294 97.3183 275.295C97.3183 275.862 97.4317 276.391 97.6584 276.882C97.8852 277.355 98.1969 277.77 98.5937 278.129C98.9905 278.488 99.4629 278.772 100.011 278.98C100.559 279.188 101.163 279.291 101.825 279.291ZM114.905 271.752C115.567 271.752 116.294 271.535 117.088 271.1C117.881 270.666 118.618 269.967 119.299 269.003C119.242 268.039 119.1 267.17 118.873 266.395C118.666 265.602 118.363 264.931 117.967 264.383C117.589 263.816 117.116 263.382 116.549 263.079C116.001 262.777 115.359 262.626 114.622 262.626C114.112 262.626 113.63 262.749 113.177 262.994C112.723 263.221 112.336 263.542 112.015 263.958C111.693 264.355 111.438 264.837 111.249 265.403C111.06 265.951 110.966 266.547 110.966 267.189C110.966 267.85 111.041 268.464 111.193 269.031C111.344 269.579 111.58 270.061 111.901 270.477C112.222 270.874 112.629 271.185 113.12 271.412C113.611 271.639 114.206 271.752 114.905 271.752ZM113.913 280.34C113.063 280.34 112.326 280.18 111.703 279.858C111.079 279.537 110.541 279.112 110.087 278.583L110.852 277.733C111.249 278.224 111.712 278.602 112.241 278.866C112.77 279.112 113.337 279.235 113.942 279.235C114.66 279.235 115.34 279.084 115.983 278.781C116.644 278.46 117.22 277.95 117.711 277.251C118.203 276.552 118.59 275.635 118.873 274.501C119.176 273.349 119.327 271.951 119.327 270.307C118.703 271.063 117.995 271.667 117.201 272.121C116.408 272.574 115.586 272.801 114.735 272.801C113.148 272.801 111.911 272.329 111.023 271.384C110.153 270.42 109.719 269.022 109.719 267.189C109.719 266.377 109.851 265.621 110.116 264.922C110.38 264.222 110.739 263.627 111.193 263.136C111.646 262.645 112.166 262.257 112.751 261.974C113.356 261.691 113.999 261.549 114.679 261.549C116.493 261.549 117.929 262.286 118.987 263.76C120.045 265.214 120.574 267.321 120.574 270.08C120.574 271.988 120.385 273.595 120.007 274.898C119.648 276.202 119.166 277.26 118.562 278.073C117.957 278.866 117.248 279.443 116.436 279.802C115.624 280.161 114.783 280.34 113.913 280.34ZM128.836 280.34C127.098 280.34 125.757 279.528 124.812 277.903C123.886 276.259 123.423 273.916 123.423 270.874C123.423 267.85 123.886 265.545 124.812 263.958C125.757 262.352 127.098 261.549 128.836 261.549C130.575 261.549 131.907 262.352 132.833 263.958C133.778 265.545 134.25 267.85 134.25 270.874C134.25 273.916 133.778 276.259 132.833 277.903C131.907 279.528 130.575 280.34 128.836 280.34ZM128.836 279.263C130.102 279.263 131.104 278.564 131.841 277.166C132.597 275.749 132.975 273.651 132.975 270.874C132.975 268.096 132.597 266.027 131.841 264.667C131.104 263.306 130.102 262.626 128.836 262.626C127.589 262.626 126.588 263.306 125.832 264.667C125.076 266.027 124.698 268.096 124.698 270.874C124.698 273.651 125.076 275.749 125.832 277.166C126.588 278.564 127.589 279.263 128.836 279.263ZM138.828 274.927L138.658 263.023V261.01H139.961L139.933 263.023L139.763 274.927H138.828ZM139.31 280.34C138.988 280.34 138.705 280.227 138.459 280C138.214 279.773 138.091 279.461 138.091 279.065C138.091 278.649 138.214 278.328 138.459 278.101C138.705 277.874 138.988 277.761 139.31 277.761C139.631 277.761 139.905 277.874 140.132 278.101C140.377 278.328 140.5 278.649 140.5 279.065C140.5 279.461 140.377 279.773 140.132 280C139.905 280.227 139.631 280.34 139.31 280.34ZM153.957 284.138C152.596 284.138 151.33 283.911 150.159 283.458C149.006 283.023 148.005 282.381 147.155 281.531C146.304 280.699 145.634 279.679 145.142 278.469C144.67 277.241 144.434 275.843 144.434 274.275C144.434 272.423 144.736 270.751 145.341 269.258C145.964 267.746 146.786 266.462 147.806 265.403C148.846 264.326 150.046 263.504 151.406 262.938C152.766 262.352 154.193 262.059 155.686 262.059C157.046 262.059 158.274 262.276 159.37 262.711C160.485 263.145 161.42 263.76 162.176 264.553C162.951 265.328 163.546 266.273 163.962 267.387C164.378 268.483 164.585 269.702 164.585 271.044C164.585 272.253 164.425 273.321 164.104 274.246C163.782 275.153 163.367 275.919 162.857 276.542C162.346 277.166 161.779 277.638 161.156 277.959C160.551 278.262 159.956 278.413 159.37 278.413C158.615 278.413 157.982 278.243 157.471 277.903C156.98 277.544 156.697 276.996 156.621 276.259H156.564C156.073 276.807 155.535 277.279 154.949 277.676C154.382 278.054 153.768 278.243 153.107 278.243C152.672 278.243 152.256 278.167 151.859 278.016C151.463 277.846 151.113 277.6 150.811 277.279C150.527 276.958 150.301 276.561 150.131 276.089C149.961 275.597 149.875 275.031 149.875 274.388C149.875 273.708 149.989 272.99 150.216 272.234C150.461 271.478 150.811 270.789 151.264 270.165C151.718 269.541 152.266 269.031 152.908 268.635C153.57 268.219 154.316 268.011 155.147 268.011C156.149 268.011 156.933 268.464 157.5 269.371H157.556L157.811 268.238H158.775L157.755 273.595C157.112 276.145 157.679 277.421 159.455 277.421C159.909 277.421 160.372 277.279 160.844 276.996C161.335 276.712 161.77 276.306 162.148 275.777C162.545 275.229 162.866 274.568 163.112 273.793C163.376 273.018 163.508 272.13 163.508 271.129C163.508 269.919 163.319 268.814 162.942 267.813C162.583 266.811 162.063 265.961 161.383 265.262C160.702 264.563 159.871 264.024 158.889 263.646C157.925 263.249 156.829 263.051 155.601 263.051C154.297 263.051 153.04 263.316 151.831 263.845C150.622 264.374 149.545 265.129 148.6 266.112C147.674 267.076 146.928 268.247 146.361 269.627C145.794 270.987 145.511 272.508 145.511 274.19C145.511 275.569 145.719 276.816 146.134 277.931C146.55 279.027 147.126 279.953 147.863 280.709C148.619 281.483 149.516 282.078 150.556 282.494C151.614 282.91 152.776 283.118 154.042 283.118C154.987 283.118 155.846 282.995 156.621 282.749C157.396 282.504 158.123 282.173 158.803 281.757L159.257 282.608C157.632 283.628 155.865 284.138 153.957 284.138ZM153.277 277.222C154.221 277.222 155.242 276.589 156.338 275.323L157.216 270.42C156.876 269.891 156.546 269.532 156.224 269.343C155.922 269.135 155.554 269.031 155.119 269.031C154.476 269.031 153.9 269.201 153.39 269.541C152.88 269.863 152.445 270.278 152.086 270.789C151.746 271.299 151.482 271.866 151.293 272.489C151.104 273.113 151.009 273.717 151.009 274.303C151.009 275.38 151.226 276.136 151.661 276.571C152.096 277.005 152.634 277.222 153.277 277.222Z" fill="black"/>
<rect x="492" y="51" width="83" height="83" rx="10" fill="#F28C09"/>
<rect x="492" y="190" width="65" height="65" rx="10" fill="#CECECE"/>
<rect x="580" y="190" width="65" height="65" rx="10" fill="#797979"/>
<rect x="668" y="190" width="65" height="65" rx="10" fill="black"/>
<rect x="604" y="51" width="83" height="83" rx="10" fill="#FFAC40"/>
<rect x="716" y="51" width="83" height="83" rx="10" fill="#FFCA94"/>
<rect x="828" y="51" width="83" height="83" rx="10" fill="#FFF1E3"/>
</svg>
