<svg width="911" height="308" fill="none" xmlns="http://www.w3.org/2000/svg"><path d="M15.645 56.68c-2.418 0-4.837-.434-7.256-1.303a19.315 19.315 0 0 1-6.405-4.025l4.762-5.725a18.2 18.2 0 0 0 4.364 2.777c1.625.718 3.213 1.077 4.762 1.077 1.738 0 3.023-.321 3.855-.964.869-.642 1.303-1.511 1.303-2.607 0-.567-.132-1.058-.396-1.474-.227-.416-.586-.775-1.077-1.077-.454-.34-1.02-.642-1.701-.907a67.997 67.997 0 0 0-2.154-.963l-4.818-2.041a15.15 15.15 0 0 1-2.778-1.474 13.926 13.926 0 0 1-2.38-2.097 10.508 10.508 0 0 1-1.645-2.835c-.415-1.096-.623-2.324-.623-3.684 0-1.512.321-2.93.963-4.252a10.256 10.256 0 0 1 2.721-3.514c1.172-1.02 2.551-1.814 4.138-2.381 1.625-.567 3.402-.85 5.329-.85 2.154 0 4.27.415 6.349 1.247a16.086 16.086 0 0 1 5.555 3.628l-4.252 5.271c-1.209-.944-2.418-1.662-3.627-2.154-1.21-.529-2.551-.793-4.025-.793-1.436 0-2.589.302-3.458.907-.831.567-1.247 1.38-1.247 2.437 0 .567.132 1.058.397 1.474.302.378.699.737 1.19 1.077.53.302 1.134.605 1.814.907.68.265 1.417.567 2.21.907l4.762 1.927c2.268.907 4.044 2.154 5.329 3.742 1.323 1.587 1.984 3.684 1.984 6.292 0 1.55-.321 3.023-.964 4.421-.604 1.36-1.511 2.57-2.72 3.628-1.172 1.02-2.627 1.852-4.365 2.494-1.739.605-3.704.907-5.896.907Zm31.612 0c-1.776 0-3.496-.321-5.159-.963a13.783 13.783 0 0 1-4.421-2.891c-1.247-1.248-2.249-2.778-3.004-4.592-.756-1.852-1.134-3.949-1.134-6.292s.378-4.422 1.134-6.236c.755-1.851 1.757-3.4 3.004-4.648a13.028 13.028 0 0 1 4.421-2.834 13.501 13.501 0 0 1 5.159-1.02c1.776 0 3.477.34 5.102 1.02a12.446 12.446 0 0 1 4.364 2.834c1.285 1.247 2.306 2.797 3.061 4.648.756 1.814 1.134 3.893 1.134 6.236s-.378 4.44-1.134 6.292c-.755 1.814-1.776 3.344-3.06 4.592a13.145 13.145 0 0 1-4.365 2.89 13.752 13.752 0 0 1-5.102.964Zm0-6.745c1.7 0 2.985-.718 3.855-2.154.869-1.437 1.303-3.383 1.303-5.84 0-2.455-.434-4.402-1.303-5.838-.87-1.436-2.155-2.154-3.855-2.154-1.738 0-3.042.718-3.911 2.154-.832 1.436-1.248 3.383-1.248 5.839 0 2.456.416 4.402 1.248 5.839.869 1.436 2.173 2.154 3.91 2.154Zm27.815 6.745c-3.061 0-5.29-1.001-6.69-3.004-1.36-2.003-2.04-4.78-2.04-8.333v-17.46h8.333v16.383c0 2.04.283 3.439.85 4.195.567.756 1.455 1.133 2.664 1.133 1.059 0 1.947-.245 2.665-.736.718-.492 1.493-1.285 2.324-2.381V27.884h8.333V56h-6.803l-.623-3.911h-.17c-1.21 1.436-2.513 2.57-3.912 3.4-1.36.794-3.004 1.191-4.931 1.191ZM98.844 56V27.884h6.802l.567 4.931h.226c1.021-1.927 2.249-3.344 3.685-4.25 1.436-.908 2.872-1.361 4.308-1.361.794 0 1.436.056 1.927.17a5.197 5.197 0 0 1 1.418.396l-1.361 7.2a13.413 13.413 0 0 0-1.474-.34 9.754 9.754 0 0 0-1.587-.114c-1.058 0-2.173.378-3.344 1.134-1.134.756-2.079 2.097-2.835 4.025V56h-8.332Zm34.276.68c-1.965 0-3.798-.321-5.499-.963a13.152 13.152 0 0 1-4.365-2.891c-1.247-1.248-2.229-2.778-2.947-4.592-.718-1.852-1.077-3.949-1.077-6.292s.397-4.422 1.19-6.236c.794-1.851 1.852-3.4 3.175-4.648a13.86 13.86 0 0 1 4.704-2.834 15.407 15.407 0 0 1 5.556-1.02c1.738 0 3.269.283 4.591.85a14.385 14.385 0 0 1 3.628 2.154l-3.911 5.385c-1.323-1.096-2.589-1.644-3.798-1.644-2.041 0-3.647.718-4.818 2.154-1.172 1.436-1.758 3.383-1.758 5.839 0 2.456.586 4.402 1.758 5.839 1.209 1.436 2.72 2.154 4.534 2.154.907 0 1.777-.19 2.608-.567a14.388 14.388 0 0 0 2.437-1.474l3.288 5.442c-1.398 1.21-2.91 2.078-4.535 2.607-1.625.492-3.212.737-4.761.737Zm25.195 0c-2.003 0-3.873-.321-5.612-.963-1.738-.68-3.25-1.644-4.535-2.891-1.284-1.285-2.286-2.835-3.004-4.649s-1.077-3.892-1.077-6.235c0-2.267.378-4.308 1.134-6.122.756-1.852 1.738-3.401 2.947-4.648a13.058 13.058 0 0 1 4.252-2.948 12.397 12.397 0 0 1 4.932-1.02c2.002 0 3.741.34 5.215 1.02 1.511.68 2.758 1.625 3.741 2.834 1.02 1.21 1.776 2.646 2.267 4.308.492 1.625.737 3.401.737 5.329 0 .756-.038 1.474-.113 2.154-.076.68-.151 1.19-.227 1.53h-16.836c.378 2.041 1.21 3.553 2.495 4.535 1.322.945 2.928 1.417 4.818 1.417 2.003 0 4.025-.623 6.065-1.87l2.778 5.045c-1.436.982-3.042 1.757-4.818 2.324-1.739.567-3.458.85-5.159.85Zm-6.235-17.8h10.147c0-1.586-.359-2.871-1.077-3.854-.718-.982-1.928-1.474-3.628-1.474-1.323 0-2.495.435-3.515 1.304-.982.87-1.625 2.211-1.927 4.025Zm46.299 17.8c-2.418 0-4.837-.434-7.256-1.303a19.316 19.316 0 0 1-6.405-4.025l4.762-5.725a18.186 18.186 0 0 0 4.364 2.777c1.625.718 3.213 1.077 4.762 1.077 1.738 0 3.023-.321 3.855-.964.869-.642 1.303-1.511 1.303-2.607 0-.567-.132-1.058-.396-1.474-.227-.416-.586-.775-1.077-1.077-.454-.34-1.021-.642-1.701-.907a69.232 69.232 0 0 0-2.154-.963l-4.818-2.041a15.147 15.147 0 0 1-2.778-1.474 13.934 13.934 0 0 1-2.381-2.097 10.523 10.523 0 0 1-1.644-2.835c-.415-1.096-.623-2.324-.623-3.684 0-1.512.321-2.93.963-4.252a10.27 10.27 0 0 1 2.721-3.514c1.172-1.02 2.551-1.814 4.138-2.381 1.625-.567 3.402-.85 5.329-.85 2.154 0 4.27.415 6.349 1.247a16.086 16.086 0 0 1 5.555 3.628l-4.252 5.271c-1.209-.944-2.418-1.662-3.627-2.154-1.21-.529-2.551-.793-4.025-.793-1.436 0-2.589.302-3.458.907-.831.567-1.247 1.38-1.247 2.437 0 .567.132 1.058.397 1.474.302.378.699.737 1.19 1.077.529.302 1.134.605 1.814.907.68.265 1.417.567 2.211.907l4.761 1.927c2.268.907 4.044 2.154 5.329 3.742 1.323 1.587 1.984 3.684 1.984 6.292 0 1.55-.321 3.023-.964 4.421-.604 1.36-1.511 2.57-2.721 3.628-1.171 1.02-2.626 1.852-4.364 2.494-1.739.605-3.704.907-5.896.907Zm26.623 0c-1.284 0-2.456-.227-3.514-.68a7.394 7.394 0 0 1-2.608-1.757 9.168 9.168 0 0 1-1.7-2.721c-.378-1.02-.567-2.135-.567-3.345 0-2.947 1.247-5.252 3.741-6.915 2.494-1.663 6.519-2.778 12.074-3.345-.075-1.247-.453-2.23-1.133-2.947-.643-.756-1.739-1.134-3.288-1.134-1.21 0-2.419.227-3.628.68-1.172.454-2.438 1.077-3.798 1.87l-3.004-5.498a29.767 29.767 0 0 1 5.668-2.664c2.003-.68 4.119-1.02 6.349-1.02 3.628 0 6.387 1.039 8.276 3.117 1.927 2.041 2.891 5.234 2.891 9.58V56h-6.802l-.567-2.891h-.227a18.876 18.876 0 0 1-3.798 2.608c-1.322.642-2.777.963-4.365.963Zm2.835-6.462c.944 0 1.757-.208 2.437-.624.68-.415 1.398-1 2.154-1.757v-4.931c-2.947.415-4.988 1.02-6.122 1.813-1.134.794-1.7 1.739-1.7 2.835 0 .907.283 1.587.85 2.04.605.416 1.398.624 2.381.624ZM247.81 56V27.884h6.802l.567 3.571h.226a21.65 21.65 0 0 1 3.968-2.948c1.436-.869 3.118-1.303 5.045-1.303 3.062 0 5.272 1.001 6.633 3.004 1.398 2.003 2.097 4.78 2.097 8.333V56h-8.333V39.618c0-2.04-.283-3.44-.85-4.195-.529-.756-1.398-1.134-2.608-1.134-1.058 0-1.965.246-2.72.737-.756.454-1.588 1.115-2.495 1.984V56h-8.332Zm40.715.68c-1.852 0-3.76-.359-5.725-1.077-1.928-.718-3.609-1.663-5.045-2.834l3.741-5.215c1.285.982 2.513 1.72 3.685 2.21a9.154 9.154 0 0 0 3.571.737c1.247 0 2.154-.207 2.721-.623.567-.416.85-1.002.85-1.757 0-.454-.17-.85-.51-1.19-.303-.379-.737-.719-1.304-1.021a10.084 10.084 0 0 0-1.814-.794 82.224 82.224 0 0 1-2.097-.85c-.87-.34-1.739-.737-2.608-1.19a11.612 11.612 0 0 1-2.381-1.644 8.782 8.782 0 0 1-1.757-2.324c-.453-.907-.68-1.947-.68-3.118 0-1.285.245-2.475.737-3.571a7.92 7.92 0 0 1 2.211-2.778c.944-.756 2.078-1.341 3.401-1.757 1.322-.454 2.796-.68 4.421-.68 2.154 0 4.044.378 5.669 1.133 1.625.718 3.042 1.53 4.251 2.438l-3.741 4.988c-1.02-.756-2.022-1.341-3.004-1.757-.983-.416-1.966-.624-2.948-.624-2.116 0-3.175.737-3.175 2.211 0 .454.152.85.454 1.19.302.303.699.586 1.19.85.529.265 1.115.53 1.758.794.68.227 1.379.473 2.097.737a23.9 23.9 0 0 1 2.664 1.19c.907.416 1.72.946 2.438 1.588a7.132 7.132 0 0 1 1.814 2.38c.453.908.68 2.004.68 3.288 0 1.285-.246 2.476-.737 3.572s-1.228 2.06-2.211 2.89c-.982.794-2.192 1.437-3.628 1.928-1.436.453-3.098.68-4.988.68Zm28.884-.68V19.04h12.698c2.041 0 3.949.209 5.725.625 1.776.377 3.326 1.039 4.649 1.983 1.322.907 2.361 2.136 3.117 3.685.794 1.512 1.191 3.382 1.191 5.612 0 2.154-.397 4.025-1.191 5.612-.756 1.587-1.795 2.89-3.117 3.911-1.323 1.02-2.854 1.776-4.592 2.267-1.738.492-3.59.737-5.555.737h-4.592V56h-8.333Zm8.333-19.16h4.082c4.534 0 6.802-1.965 6.802-5.895 0-1.927-.605-3.288-1.814-4.082-1.209-.793-2.948-1.19-5.215-1.19h-3.855V36.84ZM350.497 56V27.884h6.802l.567 4.931h.227c1.02-1.927 2.248-3.344 3.685-4.25 1.436-.908 2.872-1.361 4.308-1.361.793 0 1.436.056 1.927.17a5.19 5.19 0 0 1 1.417.396l-1.36 7.2a13.465 13.465 0 0 0-1.474-.34 9.771 9.771 0 0 0-1.587-.114c-1.059 0-2.173.378-3.345 1.134-1.134.756-2.078 2.097-2.834 4.025V56h-8.333Zm34.106.68c-1.776 0-3.495-.321-5.158-.963a13.785 13.785 0 0 1-4.422-2.891c-1.247-1.248-2.248-2.778-3.004-4.592-.756-1.852-1.134-3.949-1.134-6.292s.378-4.422 1.134-6.236c.756-1.851 1.757-3.4 3.004-4.648a13.03 13.03 0 0 1 4.422-2.834 13.5 13.5 0 0 1 5.158-1.02c1.776 0 3.477.34 5.102 1.02a12.443 12.443 0 0 1 4.365 2.834c1.285 1.247 2.305 2.797 3.061 4.648.756 1.814 1.134 3.893 1.134 6.236s-.378 4.44-1.134 6.292c-.756 1.814-1.776 3.344-3.061 4.592a13.142 13.142 0 0 1-4.365 2.89 13.754 13.754 0 0 1-5.102.964Zm0-6.745c1.701 0 2.986-.718 3.855-2.154.869-1.437 1.304-3.383 1.304-5.84 0-2.455-.435-4.402-1.304-5.838s-2.154-2.154-3.855-2.154c-1.738 0-3.042.718-3.911 2.154-.831 1.436-1.247 3.383-1.247 5.839 0 2.456.416 4.402 1.247 5.839.869 1.436 2.173 2.154 3.911 2.154ZM15.532 138.68c-2.494 0-4.913-.472-7.256-1.417a18.933 18.933 0 0 1-6.122-4.025l3.855-4.478a17.087 17.087 0 0 0 4.534 3.061c1.701.756 3.402 1.134 5.102 1.134 2.117 0 3.723-.435 4.819-1.304s1.643-2.022 1.643-3.458c0-.755-.15-1.398-.453-1.927a3.7 3.7 0 0 0-1.19-1.36c-.492-.416-1.096-.794-1.814-1.134-.68-.34-1.436-.68-2.268-1.02l-5.102-2.211a18.736 18.736 0 0 1-2.72-1.417 12.158 12.158 0 0 1-2.381-2.041 9.927 9.927 0 0 1-1.758-2.778c-.415-1.058-.623-2.267-.623-3.628 0-1.473.302-2.834.907-4.081a10.672 10.672 0 0 1 2.607-3.344c1.096-.945 2.4-1.682 3.912-2.211 1.55-.529 3.23-.794 5.045-.794 2.154 0 4.232.435 6.235 1.304 2.003.831 3.723 1.965 5.159 3.401l-3.345 4.195c-1.21-.983-2.456-1.757-3.741-2.324-1.285-.567-2.721-.85-4.308-.85-1.776 0-3.193.396-4.252 1.19-1.058.756-1.587 1.814-1.587 3.174 0 .718.151 1.342.454 1.871.34.491.774.945 1.303 1.36a15.2 15.2 0 0 0 1.928 1.077c.718.303 1.455.605 2.21.907l5.046 2.098a17.32 17.32 0 0 1 3.004 1.587 10.37 10.37 0 0 1 2.324 2.097c.68.794 1.21 1.72 1.587 2.778.378 1.02.567 2.211.567 3.571 0 1.512-.302 2.929-.907 4.252-.605 1.322-1.493 2.494-2.664 3.514-1.134.983-2.532 1.776-4.195 2.381-1.625.567-3.477.85-5.555.85Zm30.89 0c-1.74 0-3.402-.321-4.99-.963a12.721 12.721 0 0 1-4.25-2.835c-1.21-1.247-2.174-2.777-2.892-4.591s-1.077-3.874-1.077-6.179.36-4.365 1.077-6.179c.718-1.814 1.682-3.344 2.891-4.591a12.721 12.721 0 0 1 4.252-2.835c1.587-.68 3.25-1.02 4.988-1.02 1.739 0 3.401.34 4.989 1.02a12.01 12.01 0 0 1 4.25 2.835c1.21 1.247 2.174 2.777 2.892 4.591.756 1.814 1.134 3.874 1.134 6.179s-.378 4.365-1.134 6.179c-.718 1.814-1.682 3.344-2.891 4.591a12.01 12.01 0 0 1-4.252 2.835c-1.587.642-3.25.963-4.988.963Zm0-5.328c2.04 0 3.646-.832 4.818-2.494 1.171-1.701 1.757-3.95 1.757-6.746 0-2.834-.586-5.083-1.758-6.746-1.171-1.7-2.777-2.55-4.818-2.55-2.04 0-3.647.85-4.818 2.55-1.134 1.663-1.7 3.912-1.7 6.746 0 2.796.566 5.045 1.7 6.746 1.171 1.662 2.777 2.494 4.818 2.494Zm27.992 5.328c-2.985 0-5.158-.945-6.519-2.834-1.36-1.927-2.04-4.667-2.04-8.219v-17.46h6.519v16.609c0 2.305.34 3.93 1.02 4.875.68.945 1.776 1.417 3.288 1.417 1.209 0 2.267-.302 3.174-.907.945-.604 1.946-1.587 3.004-2.947v-19.047h6.52V138h-5.33l-.51-4.081h-.17c-1.209 1.436-2.531 2.588-3.968 3.457-1.398.87-3.06 1.304-4.988 1.304Zm23.222-.68v-27.833h5.385l.454 4.932h.227c.982-1.814 2.173-3.193 3.571-4.138 1.398-.983 2.834-1.474 4.308-1.474 1.323 0 2.381.189 3.174.567l-1.133 5.669a11.858 11.858 0 0 0-1.361-.341 8.798 8.798 0 0 0-1.53-.113c-1.096 0-2.249.435-3.458 1.304-1.209.831-2.249 2.305-3.118 4.421V138h-6.519Zm32.214.68c-1.89 0-3.666-.321-5.329-.963a12.005 12.005 0 0 1-4.251-2.835c-1.209-1.247-2.154-2.777-2.834-4.591-.681-1.814-1.021-3.874-1.021-6.179s.378-4.365 1.134-6.179c.756-1.814 1.776-3.344 3.061-4.591a13.048 13.048 0 0 1 4.421-2.835 14.224 14.224 0 0 1 5.329-1.02c1.814 0 3.363.302 4.648.907a15.024 15.024 0 0 1 3.515 2.211l-3.175 4.251c-.756-.642-1.511-1.133-2.267-1.474-.718-.378-1.512-.566-2.381-.566-2.267 0-4.1.85-5.499 2.55-1.398 1.663-2.097 3.912-2.097 6.746 0 2.796.68 5.045 2.041 6.746 1.398 1.662 3.193 2.494 5.385 2.494a6.988 6.988 0 0 0 3.061-.68 14.6 14.6 0 0 0 2.664-1.701l2.664 4.308a13.782 13.782 0 0 1-4.364 2.551c-1.55.567-3.118.85-4.705.85Zm25.083 0c-1.927 0-3.722-.321-5.385-.963a13.154 13.154 0 0 1-4.365-2.891c-1.247-1.247-2.229-2.759-2.947-4.535-.681-1.814-1.021-3.874-1.021-6.179 0-2.267.359-4.308 1.077-6.122s1.663-3.345 2.834-4.592a13.021 13.021 0 0 1 4.139-2.891c1.549-.68 3.136-1.02 4.761-1.02 1.89 0 3.552.321 4.988.964 1.437.642 2.627 1.549 3.572 2.721.982 1.171 1.719 2.569 2.21 4.194.492 1.625.737 3.402.737 5.329 0 .642-.037 1.247-.113 1.814a9.381 9.381 0 0 1-.17 1.36h-17.686c.302 2.494 1.171 4.422 2.608 5.782 1.473 1.323 3.344 1.984 5.611 1.984 1.21 0 2.325-.17 3.345-.51a15.916 15.916 0 0 0 3.118-1.53l2.21 4.081c-1.322.869-2.796 1.587-4.421 2.154-1.625.567-3.326.85-5.102.85Zm-7.426-17.232h12.358c0-2.154-.473-3.836-1.417-5.045-.907-1.247-2.324-1.871-4.252-1.871-1.663 0-3.118.586-4.365 1.757-1.247 1.172-2.021 2.891-2.324 5.159Zm46.995 17.232c-2.495 0-4.913-.472-7.256-1.417a18.934 18.934 0 0 1-6.122-4.025l3.854-4.478a17.102 17.102 0 0 0 4.535 3.061c1.701.756 3.401 1.134 5.102 1.134 2.116 0 3.722-.435 4.818-1.304 1.096-.869 1.644-2.022 1.644-3.458 0-.755-.151-1.398-.453-1.927a3.708 3.708 0 0 0-1.191-1.36c-.491-.416-1.096-.794-1.814-1.134-.68-.34-1.436-.68-2.267-1.02l-5.102-2.211a18.738 18.738 0 0 1-2.721-1.417 12.164 12.164 0 0 1-2.381-2.041 9.938 9.938 0 0 1-1.757-2.778c-.416-1.058-.623-2.267-.623-3.628 0-1.473.302-2.834.907-4.081a10.663 10.663 0 0 1 2.607-3.344c1.096-.945 2.4-1.682 3.911-2.211 1.55-.529 3.232-.794 5.045-.794 2.155 0 4.233.435 6.236 1.304 2.003.831 3.722 1.965 5.158 3.401l-3.344 4.195c-1.209-.983-2.457-1.757-3.741-2.324-1.285-.567-2.721-.85-4.309-.85-1.776 0-3.193.396-4.251 1.19-1.058.756-1.587 1.814-1.587 3.174 0 .718.151 1.342.453 1.871.34.491.775.945 1.304 1.36.567.378 1.209.737 1.927 1.077.718.303 1.455.605 2.211.907l5.045 2.098c1.096.453 2.098.982 3.005 1.587a10.4 10.4 0 0 1 2.324 2.097 8.749 8.749 0 0 1 1.587 2.778c.378 1.02.567 2.211.567 3.571 0 1.512-.303 2.929-.907 4.252-.605 1.322-1.493 2.494-2.665 3.514-1.133.983-2.531 1.776-4.194 2.381-1.625.567-3.477.85-5.555.85Zm26.241 0c-2.457 0-4.441-.737-5.952-2.211-1.512-1.511-2.268-3.495-2.268-5.952 0-1.473.302-2.777.907-3.911.643-1.171 1.625-2.173 2.948-3.004 1.36-.832 3.061-1.531 5.102-2.098 2.078-.566 4.553-1.001 7.425-1.303a8.814 8.814 0 0 0-.34-2.041 4.016 4.016 0 0 0-.85-1.757 3.448 3.448 0 0 0-1.531-1.191c-.642-.302-1.436-.453-2.38-.453-1.361 0-2.702.264-4.025.793a27.685 27.685 0 0 0-3.798 1.928l-2.381-4.365c1.55-.983 3.288-1.833 5.215-2.551 1.928-.718 4.006-1.077 6.236-1.077 3.476 0 6.065 1.039 7.766 3.118 1.738 2.04 2.607 5.007 2.607 8.899V138h-5.385l-.453-3.061h-.227a20.096 20.096 0 0 1-4.025 2.664c-1.398.718-2.929 1.077-4.591 1.077Zm2.097-5.101c1.134 0 2.154-.265 3.061-.794.945-.529 1.946-1.285 3.004-2.268v-6.235c-1.889.227-3.476.529-4.761.907-1.285.378-2.324.813-3.118 1.304-.794.453-1.36.982-1.701 1.587a3.872 3.872 0 0 0-.51 1.927c0 1.247.378 2.154 1.134 2.721.756.567 1.719.851 2.891.851ZM243.226 138v-27.833h5.385l.453 3.742h.227a22.496 22.496 0 0 1 4.025-3.118c1.473-.869 3.174-1.304 5.101-1.304 2.986 0 5.159.964 6.519 2.891 1.361 1.89 2.041 4.61 2.041 8.163V138h-6.519v-16.609c0-2.305-.34-3.93-1.02-4.875-.681-.945-1.795-1.417-3.345-1.417-1.209 0-2.286.302-3.231.907-.907.567-1.946 1.417-3.118 2.551V138h-6.518Zm39.485.68c-1.927 0-3.836-.359-5.725-1.077-1.852-.756-3.458-1.681-4.818-2.777l3.061-4.195c1.247.982 2.475 1.757 3.684 2.324 1.247.529 2.589.794 4.025.794 1.511 0 2.626-.303 3.344-.907.718-.643 1.077-1.455 1.077-2.438 0-.567-.17-1.058-.51-1.474-.34-.453-.793-.85-1.36-1.19-.567-.34-1.21-.643-1.928-.907l-2.154-.907a34.23 34.23 0 0 1-2.777-1.19 11.836 11.836 0 0 1-2.551-1.644 9.305 9.305 0 0 1-1.814-2.211c-.454-.869-.68-1.89-.68-3.061 0-2.456.907-4.459 2.721-6.009 1.814-1.549 4.289-2.324 7.425-2.324 1.928 0 3.666.34 5.216 1.02 1.549.681 2.891 1.455 4.024 2.325l-3.004 3.968a14.18 14.18 0 0 0-3.004-1.701 7.347 7.347 0 0 0-3.118-.68c-1.398 0-2.438.302-3.118.907-.642.567-.964 1.285-.964 2.154 0 .567.152 1.058.454 1.474.34.378.775.718 1.304 1.02.529.302 1.133.586 1.814.85.718.265 1.455.529 2.21.794.945.34 1.89.737 2.835 1.19.944.416 1.795.945 2.551 1.587a6.816 6.816 0 0 1 1.87 2.381c.491.907.737 2.003.737 3.288a7.982 7.982 0 0 1-.737 3.401c-.453 1.02-1.134 1.927-2.04 2.721-.907.756-2.041 1.361-3.402 1.814-1.36.453-2.91.68-4.648.68Zm28.562-.68v-37.072h11.677c2.041 0 3.93.188 5.669.566 1.776.378 3.306 1.021 4.591 1.928 1.285.907 2.286 2.097 3.005 3.571.718 1.436 1.077 3.231 1.077 5.385 0 2.041-.359 3.817-1.077 5.329a10.582 10.582 0 0 1-3.005 3.797c-1.247.983-2.74 1.72-4.478 2.211-1.701.454-3.552.68-5.555.68h-5.329V138h-6.575Zm6.575-18.876h4.819c5.441 0 8.162-2.249 8.162-6.746 0-2.343-.718-3.949-2.154-4.818-1.398-.907-3.476-1.361-6.235-1.361h-4.592v12.925ZM343.699 138v-27.833h5.385l.453 4.932h.227c.983-1.814 2.173-3.193 3.571-4.138 1.399-.983 2.835-1.474 4.308-1.474 1.323 0 2.381.189 3.175.567l-1.134 5.669a11.845 11.845 0 0 0-1.36-.341 8.802 8.802 0 0 0-1.531-.113c-1.096 0-2.248.435-3.458 1.304-1.209.831-2.248 2.305-3.117 4.421V138h-6.519Zm31.986.68c-1.738 0-3.401-.321-4.988-.963a12.72 12.72 0 0 1-4.251-2.835c-1.21-1.247-2.173-2.777-2.891-4.591s-1.077-3.874-1.077-6.179.359-4.365 1.077-6.179 1.681-3.344 2.891-4.591a12.72 12.72 0 0 1 4.251-2.835c1.587-.68 3.25-1.02 4.988-1.02 1.739 0 3.402.34 4.989 1.02a12.005 12.005 0 0 1 4.251 2.835c1.21 1.247 2.173 2.777 2.891 4.591.756 1.814 1.134 3.874 1.134 6.179s-.378 4.365-1.134 6.179c-.718 1.814-1.681 3.344-2.891 4.591a12.005 12.005 0 0 1-4.251 2.835c-1.587.642-3.25.963-4.989.963Zm0-5.328c2.041 0 3.647-.832 4.819-2.494 1.171-1.701 1.757-3.95 1.757-6.746 0-2.834-.586-5.083-1.757-6.746-1.172-1.7-2.778-2.55-4.819-2.55-2.04 0-3.646.85-4.818 2.55-1.134 1.663-1.7 3.912-1.7 6.746 0 2.796.566 5.045 1.7 6.746 1.172 1.662 2.778 2.494 4.818 2.494ZM5.328 197.003l-1.19 3.486h6.632l-1.19-3.486a648.239 648.239 0 0 1-1.077-3.203c-.34-1.02-.67-2.107-.992-3.259h-.114a68.418 68.418 0 0 1-.992 3.259c-.34 1.021-.699 2.088-1.077 3.203ZM.227 208l6.575-18.678h1.304L14.682 208h-1.36l-2.183-6.405H3.74L1.531 208H.227Zm17.441 0v-18.678h5.045c1.89 0 3.392.369 4.507 1.105 1.114.718 1.672 1.862 1.672 3.43 0 .982-.246 1.842-.737 2.579-.491.718-1.21 1.219-2.154 1.502v.114c1.21.208 2.182.689 2.92 1.445.736.737 1.105 1.757 1.105 3.061 0 .907-.17 1.701-.51 2.381a4.502 4.502 0 0 1-1.39 1.701c-.604.453-1.332.793-2.182 1.02-.85.227-1.804.34-2.863.34h-5.413Zm1.304-10.459h3.23c1.91 0 3.28-.311 4.11-.935.85-.642 1.276-1.511 1.276-2.607 0-1.323-.444-2.249-1.332-2.778-.888-.548-2.192-.822-3.911-.822h-3.373v7.142Zm0 9.382h3.77c1.87 0 3.334-.35 4.392-1.049 1.078-.699 1.616-1.795 1.616-3.287 0-1.361-.52-2.362-1.559-3.005-1.039-.642-2.522-.963-4.45-.963h-3.77v8.304Zm21.714 1.417c-1.153 0-2.21-.227-3.175-.68a7.284 7.284 0 0 1-2.494-1.927c-.68-.851-1.209-1.871-1.587-3.061-.378-1.21-.567-2.561-.567-4.053 0-1.474.19-2.806.567-3.997.397-1.19.945-2.201 1.644-3.033.7-.85 1.53-1.492 2.494-1.927.983-.453 2.07-.68 3.26-.68 1.096 0 2.06.227 2.89.68.832.454 1.493.973 1.985 1.559l-.766.879a5.77 5.77 0 0 0-1.785-1.389c-.68-.359-1.446-.539-2.296-.539-1.02 0-1.946.199-2.778.596a6.036 6.036 0 0 0-2.097 1.7c-.567.718-1.001 1.597-1.304 2.636-.302 1.039-.453 2.211-.453 3.515 0 1.303.15 2.484.453 3.542.303 1.04.737 1.928 1.304 2.665a6.164 6.164 0 0 0 2.04 1.729c.813.396 1.72.595 2.722.595.963 0 1.823-.189 2.579-.567.756-.397 1.474-.973 2.154-1.729l.765.822c-.718.831-1.52 1.483-2.409 1.956-.888.472-1.937.708-3.146.708Zm9.366-.34v-18.678h4.336c1.436 0 2.684.217 3.742.652 1.077.435 1.965 1.058 2.664 1.871.699.812 1.219 1.785 1.559 2.919.34 1.134.51 2.409.51 3.826 0 1.417-.17 2.712-.51 3.883-.34 1.153-.86 2.145-1.56 2.976-.698.813-1.577 1.446-2.635 1.899-1.058.435-2.305.652-3.741.652h-4.365Zm1.304-1.105h2.89c1.267 0 2.353-.199 3.26-.596.926-.415 1.682-.992 2.267-1.728.586-.737 1.02-1.607 1.304-2.608.284-1.02.425-2.145.425-3.373 0-1.209-.141-2.314-.425-3.316-.283-1.001-.718-1.861-1.303-2.579-.586-.718-1.342-1.276-2.268-1.672-.907-.397-1.993-.596-3.26-.596h-2.89v16.468ZM67.157 208v-18.678H77.39v1.134h-8.928v7.057h7.483v1.134H68.46v8.219h9.212V208H67.156Zm14.587 0v-18.678h10.175v1.134h-8.871v7.426h7.51v1.133h-7.51V208h-1.304Zm20.061.34c-1.209 0-2.305-.227-3.288-.68a7.21 7.21 0 0 1-2.522-1.927c-.7-.851-1.248-1.871-1.644-3.061-.378-1.21-.567-2.561-.567-4.053 0-1.474.198-2.806.595-3.997.397-1.19.954-2.201 1.672-3.033a6.921 6.921 0 0 1 2.608-1.927c1.02-.453 2.144-.68 3.373-.68.623 0 1.19.066 1.7.198a5.984 5.984 0 0 1 1.417.539c.416.208.784.444 1.106.708.34.265.633.529.878.794l-.765.879a7.044 7.044 0 0 0-1.757-1.361c-.68-.378-1.531-.567-2.551-.567-1.077 0-2.041.199-2.891.596a6.152 6.152 0 0 0-2.182 1.7c-.586.718-1.04 1.597-1.36 2.636-.322 1.039-.483 2.211-.483 3.515 0 1.303.151 2.484.454 3.542.302 1.04.737 1.928 1.304 2.665a6.27 6.27 0 0 0 2.125 1.729c.85.396 1.805.595 2.863.595.85 0 1.644-.123 2.381-.369.756-.245 1.36-.595 1.814-1.048v-5.811h-4.479v-1.105h5.726v7.397c-.586.624-1.351 1.134-2.296 1.531-.926.397-2.003.595-3.231.595Zm10.33-.34v-18.678h1.304v8.191h10.005v-8.191h1.304V208h-1.304v-9.353h-10.005V208h-1.304Zm18.102 0v-18.678h1.304V208h-1.304Zm9.813.34c-1.039 0-1.946-.236-2.721-.708-.775-.473-1.398-1.153-1.871-2.041l.992-.652c.454.794.964 1.36 1.531 1.701.586.34 1.275.51 2.069.51 1.134 0 1.975-.34 2.523-1.021.548-.699.821-1.814.821-3.344v-13.463h1.304v13.605c0 .755-.085 1.464-.255 2.125a4.74 4.74 0 0 1-.822 1.701 3.729 3.729 0 0 1-1.417 1.162c-.586.283-1.304.425-2.154.425Zm10.088-.34v-18.678h1.303v10.374h.057l9.041-10.374h1.559l-5.952 6.916L162.92 208h-1.502l-6.179-10.77-3.798 4.336V208h-1.303Zm15.804 0v-18.678h1.304v17.544h8.616V208h-9.92Zm13.23 0v-18.678h1.843l3.911 10.969c.246.68.491 1.37.737 2.069.246.68.491 1.37.737 2.069h.113c.246-.699.482-1.389.709-2.069.227-.699.463-1.389.708-2.069l3.883-10.969h1.871V208h-1.275v-12.272c0-.775.018-1.607.056-2.495.038-.907.076-1.757.114-2.55h-.114l-1.445 4.166-4.025 11.11h-1.134l-4.053-11.11-1.473-4.166h-.114c.038.793.076 1.643.114 2.55.037.888.056 1.72.056 2.495V208h-1.219Zm20.012 0v-18.678h1.361l7.879 13.179 2.097 3.713h.114l-.114-2.721a64.911 64.911 0 0 1-.056-2.72v-11.451h1.247V208h-1.361l-7.879-13.179-2.098-3.713h-.113l.113 2.664c.038.85.057 1.729.057 2.636V208h-1.247Zm24.509.34c-1.114 0-2.144-.227-3.089-.68a7.248 7.248 0 0 1-2.438-1.984c-.68-.85-1.209-1.871-1.587-3.061-.378-1.209-.567-2.551-.567-4.025 0-1.474.189-2.796.567-3.968.378-1.19.907-2.201 1.587-3.033a6.67 6.67 0 0 1 2.438-1.927c.945-.453 1.975-.68 3.089-.68 1.134 0 2.173.227 3.118.68a6.67 6.67 0 0 1 2.438 1.927c.68.832 1.209 1.843 1.587 3.033.378 1.172.567 2.494.567 3.968 0 1.474-.189 2.816-.567 4.025-.378 1.19-.907 2.211-1.587 3.061a7.248 7.248 0 0 1-2.438 1.984c-.945.453-1.984.68-3.118.68Zm0-1.19c.945 0 1.805-.199 2.58-.595a5.985 5.985 0 0 0 1.984-1.729c.566-.756 1.001-1.654 1.303-2.693.303-1.058.454-2.239.454-3.543 0-1.285-.151-2.447-.454-3.486-.302-1.039-.737-1.918-1.303-2.636a5.68 5.68 0 0 0-1.984-1.7c-.775-.397-1.635-.596-2.58-.596-.944 0-1.814.199-2.607.596a5.67 5.67 0 0 0-1.984 1.7c-.548.718-.973 1.597-1.276 2.636-.302 1.039-.453 2.201-.453 3.486 0 1.304.151 2.485.453 3.543.303 1.039.728 1.937 1.276 2.693a5.975 5.975 0 0 0 1.984 1.729 5.757 5.757 0 0 0 2.607.595Zm11.999.85v-18.678h4.705c1.058 0 2.003.095 2.834.283.851.171 1.559.463 2.126.879.586.416 1.03.954 1.332 1.616.321.661.482 1.473.482 2.437 0 1.833-.586 3.203-1.757 4.11-1.172.888-2.806 1.332-4.904 1.332h-3.514V208h-1.304Zm1.304-9.126h3.203c1.908 0 3.325-.341 4.251-1.021.926-.68 1.389-1.785 1.389-3.316 0-1.568-.482-2.645-1.446-3.231-.944-.586-2.38-.879-4.308-.879h-3.089v8.447Zm20.742 8.361c.945 0 1.804-.208 2.579-.624a5.964 5.964 0 0 0 1.984-1.729c.567-.756 1.002-1.662 1.304-2.721.302-1.077.453-2.267.453-3.571 0-1.285-.151-2.447-.453-3.486-.302-1.039-.737-1.918-1.304-2.636a5.67 5.67 0 0 0-1.984-1.7c-.775-.397-1.634-.596-2.579-.596-.945 0-1.814.199-2.608.596a5.68 5.68 0 0 0-1.984 1.7c-.548.718-.973 1.597-1.275 2.636-.302 1.039-.453 2.201-.453 3.486 0 1.304.151 2.494.453 3.571.302 1.059.727 1.965 1.275 2.721a5.973 5.973 0 0 0 1.984 1.729 5.533 5.533 0 0 0 2.608.624Zm5.47 5.186a7.245 7.245 0 0 1-2.182-.311 6.374 6.374 0 0 1-1.757-.879 6.337 6.337 0 0 1-2.268-2.919 6.802 6.802 0 0 1-2.806-.879 7.72 7.72 0 0 1-2.211-2.012c-.604-.85-1.077-1.852-1.417-3.005-.34-1.152-.51-2.428-.51-3.826 0-1.474.189-2.796.567-3.968.378-1.19.907-2.201 1.587-3.033a6.662 6.662 0 0 1 2.438-1.927c.944-.453 1.974-.68 3.089-.68 1.134 0 2.173.227 3.118.68a6.667 6.667 0 0 1 2.437 1.927c.68.832 1.209 1.843 1.587 3.033.378 1.172.567 2.494.567 3.968 0 1.398-.17 2.674-.51 3.826-.34 1.153-.822 2.155-1.445 3.005a7.254 7.254 0 0 1-2.211 2.012 6.838 6.838 0 0 1-2.834.879c.434.945 1.058 1.663 1.87 2.154.832.491 1.833.737 3.005.737.434 0 .793-.029 1.077-.085.302-.038.576-.085.822-.142l.283 1.105a8.75 8.75 0 0 1-.992.227 6.945 6.945 0 0 1-1.304.113Zm6.529-4.421v-18.678h5.357c.925 0 1.766.095 2.522.283.756.171 1.398.454 1.927.851a3.89 3.89 0 0 1 1.219 1.53c.302.624.454 1.38.454 2.268 0 1.492-.435 2.664-1.304 3.514-.85.851-2.013 1.37-3.486 1.559l5.158 8.673h-1.502l-5.073-8.588h-3.968V208h-1.304Zm1.304-9.665h3.712c1.663 0 2.929-.331 3.798-.992.888-.68 1.332-1.71 1.332-3.089 0-1.399-.444-2.381-1.332-2.948-.888-.586-2.154-.879-3.798-.879h-3.712v7.908Zm18.6 10.005c-1.36 0-2.57-.255-3.628-.765a8.817 8.817 0 0 1-2.692-2.041l.85-.907a7.547 7.547 0 0 0 2.438 1.842 6.906 6.906 0 0 0 3.032.681c1.436 0 2.57-.34 3.401-1.021.832-.699 1.247-1.606 1.247-2.721 0-.585-.094-1.077-.283-1.473a2.927 2.927 0 0 0-.709-1.049 4.103 4.103 0 0 0-1.077-.765 26.791 26.791 0 0 0-1.275-.624l-2.834-1.275c-.397-.17-.822-.378-1.276-.624a5.84 5.84 0 0 1-1.247-.907 5.356 5.356 0 0 1-.907-1.304c-.245-.51-.368-1.114-.368-1.814 0-.68.132-1.294.397-1.842a4.479 4.479 0 0 1 1.133-1.445 5.325 5.325 0 0 1 1.729-.964 6.852 6.852 0 0 1 2.183-.34c1.133 0 2.135.227 3.004.68.888.435 1.615.954 2.182 1.559l-.737.85a6.353 6.353 0 0 0-1.927-1.36c-.737-.359-1.578-.539-2.522-.539-1.248 0-2.249.303-3.005.907-.756.605-1.133 1.417-1.133 2.438 0 .548.103 1.011.311 1.389.208.378.473.708.794.992.321.264.671.5 1.049.708.377.189.736.359 1.077.51l2.834 1.247c.529.227 1.03.482 1.502.766.472.283.888.614 1.247.992.359.378.643.831.85 1.36.227.51.341 1.124.341 1.842s-.142 1.389-.426 2.013a4.71 4.71 0 0 1-1.218 1.587c-.511.435-1.134.784-1.871 1.049-.737.245-1.559.368-2.466.368Zm13.377-.34v-17.544h-5.952v-1.134h13.207v1.134h-5.952V208h-1.303Zm17.045.34a8.04 8.04 0 0 1-2.324-.34 5.162 5.162 0 0 1-2.012-1.219c-.586-.585-1.058-1.36-1.417-2.324-.34-.964-.51-2.173-.51-3.628v-11.507h1.303v11.366c0 1.247.133 2.286.397 3.117.284.813.652 1.474 1.106 1.984.453.492.973.841 1.559 1.049a5.79 5.79 0 0 0 1.898.312c.681 0 1.323-.104 1.928-.312a3.8 3.8 0 0 0 1.615-1.049c.473-.51.851-1.171 1.134-1.984.283-.831.425-1.87.425-3.117v-11.366h1.219v11.507c0 1.455-.18 2.664-.539 3.628-.359.964-.831 1.739-1.417 2.324a5.148 5.148 0 0 1-2.012 1.219c-.756.227-1.54.34-2.353.34Zm15.3-.34-6.179-18.678h1.389l3.458 10.912a157.2 157.2 0 0 1 .963 3.146c.303.945.643 1.984 1.021 3.118h.113a50.12 50.12 0 0 0 .51-1.616c.17-.51.331-1.011.482-1.502l.453-1.53c.17-.511.34-1.049.511-1.616l3.457-10.912h1.332L336.751 208h-1.388Zm12.675 0-4.252-18.678h1.361l2.352 10.997.624 3.061c.227 1.002.444 2.012.652 3.033h.113c.227-1.021.454-2.031.68-3.033.246-1.02.501-2.041.766-3.061l2.919-10.997h1.332l2.919 10.997c.265 1.02.511 2.041.737 3.061.246 1.002.501 2.012.766 3.033h.113c.208-1.021.406-2.031.595-3.033l.624-3.061 2.352-10.997h1.276L359.8 208h-1.445l-3.401-12.811a91.17 91.17 0 0 0-.511-2.097c-.17-.681-.33-1.389-.481-2.126h-.114a31.859 31.859 0 0 1-.51 2.126c-.189.661-.368 1.36-.539 2.097L349.455 208h-1.417Zm17.247 0 5.612-9.665-5.215-9.013h1.417l3.061 5.499c.265.434.501.84.709 1.218.227.378.501.822.822 1.332h.113c.265-.51.492-.954.681-1.332.207-.378.444-.784.708-1.218l3.061-5.499h1.332l-5.215 9.07 5.612 9.608h-1.417l-3.26-5.725a52.772 52.772 0 0 0-.821-1.417 61.615 61.615 0 0 0-.907-1.559h-.114c-.302.567-.576 1.086-.822 1.559-.245.472-.501.944-.765 1.417L366.618 208h-1.333Zm18.86 0v-7.568l-5.583-11.11h1.389l2.834 5.839c.321.68.633 1.351.935 2.012.321.661.671 1.332 1.049 2.012h.113c.359-.68.709-1.351 1.049-2.012.34-.661.661-1.332.964-2.012l2.834-5.839h1.332l-5.612 11.11V208h-1.304Zm7.595 0v-.765l10.742-16.779h-9.806v-1.134h11.45v.765l-10.77 16.779h10.855V208H391.74ZM5.584 244.34a4.97 4.97 0 0 1-1.531-.227 3.634 3.634 0 0 1-1.247-.68 3.147 3.147 0 0 1-.85-1.162c-.208-.472-.312-1.03-.312-1.672 0-1.512.699-2.655 2.097-3.43 1.417-.793 3.647-1.36 6.69-1.7 0-.51-.039-1.021-.114-1.531a3.568 3.568 0 0 0-.482-1.389 2.781 2.781 0 0 0-.992-.992c-.416-.264-.964-.396-1.644-.396-.907 0-1.738.179-2.494.538-.756.359-1.37.709-1.842 1.049l-.567-.935c.245-.17.538-.359.878-.567a8.68 8.68 0 0 1 1.19-.567c.435-.17.908-.312 1.418-.425a6.266 6.266 0 0 1 1.587-.199c.794 0 1.465.142 2.012.425.548.265.992.633 1.333 1.106.34.472.585 1.03.736 1.672.152.624.227 1.304.227 2.041V244H10.6l-.113-1.757h-.085a15.6 15.6 0 0 1-2.268 1.474 5.425 5.425 0 0 1-2.55.623Zm.226-1.077c.794 0 1.55-.189 2.268-.567.718-.378 1.502-.926 2.352-1.644v-4.62c-1.398.171-2.579.378-3.543.624-.963.246-1.738.539-2.324.879-.586.34-1.01.727-1.275 1.162a2.883 2.883 0 0 0-.369 1.445c0 .491.076.907.227 1.247.151.34.36.624.624.851.264.207.566.368.907.481.359.095.736.142 1.133.142Zm16.048 1.077c-.661 0-1.35-.151-2.069-.453a9.259 9.259 0 0 1-2.012-1.276h-.057L17.58 244h-1.05v-20.379h1.248v5.896l-.057 2.664c.7-.586 1.446-1.086 2.24-1.502a5.246 5.246 0 0 1 2.465-.624c1.814 0 3.175.633 4.082 1.899.906 1.247 1.36 2.929 1.36 5.045 0 1.153-.16 2.183-.482 3.09-.321.907-.765 1.681-1.332 2.324a5.757 5.757 0 0 1-1.927 1.445 5.48 5.48 0 0 1-2.268.482Zm-.056-1.105c.68 0 1.313-.151 1.899-.454a4.403 4.403 0 0 0 1.502-1.275c.416-.548.737-1.2.963-1.956.246-.775.369-1.625.369-2.551 0-.831-.085-1.606-.255-2.324-.151-.718-.397-1.332-.737-1.842a3.446 3.446 0 0 0-1.332-1.219c-.548-.302-1.21-.453-1.984-.453-.68 0-1.389.198-2.126.595-.737.378-1.512.926-2.324 1.644v8.077c.756.643 1.483 1.096 2.182 1.361.7.264 1.314.397 1.843.397Zm15.135 1.105c-.889 0-1.71-.16-2.466-.482a5.874 5.874 0 0 1-1.956-1.389c-.548-.604-.983-1.341-1.304-2.21-.302-.888-.453-1.899-.453-3.033s.17-2.145.51-3.033c.34-.907.794-1.662 1.36-2.267a5.873 5.873 0 0 1 1.956-1.389 6.03 6.03 0 0 1 2.38-.482c.946 0 1.73.17 2.353.51a8.267 8.267 0 0 1 1.644 1.163l-.737.878a5.872 5.872 0 0 0-1.445-1.02c-.53-.284-1.125-.425-1.786-.425-.699 0-1.35.151-1.956.453a4.652 4.652 0 0 0-1.558 1.247c-.435.529-.785 1.162-1.049 1.899-.246.737-.368 1.559-.368 2.466 0 .888.113 1.701.34 2.438.245.736.576 1.369.992 1.899.434.529.954.944 1.559 1.247a4.88 4.88 0 0 0 2.04.425c.718 0 1.38-.151 1.984-.454a6.78 6.78 0 0 0 1.644-1.105l.652.879a8.506 8.506 0 0 1-1.956 1.275c-.718.34-1.511.51-2.38.51Zm11.723 0c-1.72 0-3.09-.605-4.11-1.814-1.02-1.228-1.53-2.995-1.53-5.3 0-1.096.16-2.088.481-2.976.321-.888.756-1.644 1.304-2.267a5.794 5.794 0 0 1 1.927-1.418 5.484 5.484 0 0 1 2.324-.51c.832 0 1.55.151 2.155.454.623.283 1.275.689 1.955 1.219l-.057-2.495v-5.612h1.247V244H53.28l-.113-1.757h-.085a9.317 9.317 0 0 1-1.956 1.474c-.736.415-1.558.623-2.465.623Zm.17-1.105a4.37 4.37 0 0 0 2.154-.567c.699-.397 1.407-.954 2.125-1.672v-8.078c-.718-.642-1.398-1.096-2.04-1.361a4.897 4.897 0 0 0-1.928-.396c-.68 0-1.313.16-1.898.482a4.681 4.681 0 0 0-1.531 1.275c-.416.529-.746 1.171-.992 1.927a7.487 7.487 0 0 0-.368 2.381c0 .907.094 1.729.283 2.466.208.737.5 1.37.879 1.899.377.51.84.916 1.388 1.219.567.283 1.21.425 1.928.425Zm15.898 1.105a6.36 6.36 0 0 1-2.465-.482 5.798 5.798 0 0 1-1.984-1.389c-.567-.623-1.02-1.369-1.36-2.239-.322-.888-.483-1.889-.483-3.004s.16-2.116.482-3.004c.34-.888.784-1.635 1.332-2.239a5.887 5.887 0 0 1 1.9-1.418 5.113 5.113 0 0 1 2.21-.51c1.625 0 2.9.548 3.826 1.644.926 1.096 1.39 2.646 1.39 4.648v.511c0 .17-.02.34-.058.51h-9.806c.019.85.15 1.644.397 2.381a5.943 5.943 0 0 0 1.02 1.87c.453.51.992.917 1.615 1.219.624.283 1.323.425 2.098.425.737 0 1.398-.104 1.984-.312a6.783 6.783 0 0 0 1.672-.907l.51.964c-.548.321-1.152.624-1.814.907-.642.283-1.464.425-2.466.425Zm-5.016-7.993h8.673c0-1.757-.36-3.061-1.077-3.911-.718-.869-1.692-1.304-2.92-1.304a3.92 3.92 0 0 0-1.672.369c-.529.227-1.01.567-1.445 1.02a5.996 5.996 0 0 0-1.05 1.644c-.264.642-.434 1.37-.51 2.182ZM73.469 244v-12.528H71.6v-.963l1.87-.114v-3.032c0-1.361.293-2.381.879-3.061.586-.681 1.417-1.021 2.494-1.021.662 0 1.323.152 1.984.454l-.34 1.02a3.112 3.112 0 0 0-.85-.312 3.823 3.823 0 0 0-.794-.085c-.718 0-1.256.265-1.615.794-.34.529-.51 1.294-.51 2.296v2.947h3.145v1.077h-3.146V244H73.47Zm11.282 6.547c-1.72 0-3.08-.34-4.081-1.02-1.002-.68-1.502-1.597-1.502-2.749 0-.605.18-1.191.538-1.758.36-.567.85-1.077 1.474-1.53v-.114a2.603 2.603 0 0 1-.85-.85c-.227-.359-.34-.803-.34-1.332 0-.605.17-1.115.51-1.53.34-.435.661-.756.963-.964v-.113c-.434-.378-.831-.889-1.19-1.531-.34-.642-.51-1.379-.51-2.211 0-.699.123-1.341.368-1.927a4.402 4.402 0 0 1 1.02-1.502 4.366 4.366 0 0 1 1.531-.992 4.781 4.781 0 0 1 1.87-.369c.379 0 .719.038 1.021.114.302.056.558.132.765.226h4.62v1.049h-3.174c.434.378.793.869 1.077 1.474.283.586.425 1.238.425 1.956 0 .699-.123 1.341-.368 1.927a4.711 4.711 0 0 1-1.02 1.53 4.611 4.611 0 0 1-1.503.992 4.91 4.91 0 0 1-1.842.341c-.378 0-.775-.048-1.19-.142a3.899 3.899 0 0 1-1.078-.425 4.614 4.614 0 0 0-.793.822c-.208.302-.312.68-.312 1.133 0 .492.18.917.538 1.276.36.34 1.05.51 2.07.51h2.919c1.53 0 2.655.255 3.373.765.737.491 1.105 1.276 1.105 2.353 0 .585-.151 1.152-.454 1.7a4.384 4.384 0 0 1-1.303 1.474c-.548.435-1.22.775-2.013 1.02-.793.265-1.681.397-2.664.397Zm-.198-11.875c.472 0 .916-.085 1.332-.256a3.402 3.402 0 0 0 1.133-.793 3.82 3.82 0 0 0 .766-1.219c.189-.472.283-.992.283-1.559s-.094-1.086-.283-1.559a3.49 3.49 0 0 0-.766-1.19 2.992 2.992 0 0 0-1.105-.737 3.376 3.376 0 0 0-1.36-.283c-.492 0-.954.094-1.39.283-.415.17-.783.416-1.105.737a3.491 3.491 0 0 0-.765 1.19c-.189.454-.283.974-.283 1.559 0 .567.094 1.087.283 1.559.19.472.444.879.765 1.219.34.34.719.605 1.134.793.435.171.888.256 1.36.256Zm.34 10.855a6.51 6.51 0 0 0 2.069-.312c.623-.189 1.153-.444 1.587-.765a3.41 3.41 0 0 0 .992-1.106c.246-.396.368-.812.368-1.247 0-.755-.274-1.294-.821-1.615-.53-.302-1.304-.454-2.325-.454h-2.919c-.151 0-.387-.009-.708-.028a7.773 7.773 0 0 1-.992-.198c-.624.434-1.078.897-1.36 1.388-.284.492-.426.983-.426 1.474 0 .851.387 1.54 1.162 2.069.794.529 1.918.794 3.373.794Zm9.22-5.527v-20.379h1.247v8.9c.718-.718 1.445-1.304 2.182-1.757.737-.472 1.578-.709 2.523-.709 1.417 0 2.456.425 3.118 1.276.661.85.992 2.163.992 3.939V244h-1.247v-8.56c0-1.454-.246-2.522-.737-3.202-.473-.699-1.266-1.049-2.381-1.049-.813 0-1.55.217-2.21.652-.662.416-1.409 1.049-2.24 1.899V244h-1.247Zm14.974 0v-13.605h1.247V244h-1.247Zm.652-16.892c-.321 0-.595-.104-.822-.312a1.075 1.075 0 0 1-.312-.794c0-.359.104-.633.312-.822.227-.208.501-.311.822-.311.321 0 .586.103.793.311.227.189.341.463.341.822 0 .322-.114.586-.341.794a1.072 1.072 0 0 1-.793.312Zm4.039 23.383c-.321 0-.642-.038-.963-.114a3.335 3.335 0 0 1-.794-.227l.312-1.02c.17.057.378.113.623.17.265.076.529.113.794.113.756 0 1.247-.283 1.474-.85.226-.548.34-1.256.34-2.126v-16.042h1.275v16.128c0 1.341-.245 2.333-.737 2.976-.491.661-1.266.992-2.324.992Zm2.438-23.383c-.303 0-.567-.104-.794-.312a1.028 1.028 0 0 1-.34-.794c0-.359.113-.633.34-.822.227-.208.491-.311.794-.311.321 0 .595.103.822.311.226.189.34.463.34.822 0 .322-.114.586-.34.794a1.174 1.174 0 0 1-.822.312ZM122.041 244v-20.379h1.247v15.022h.056l6.718-8.248h1.445l-4.421 5.386 5.158 8.219h-1.389l-4.506-7.284-3.061 3.571V244h-1.247Zm14.819.34c-1.115 0-1.672-.718-1.672-2.154v-18.565h1.247v18.735c0 .302.057.529.17.68a.535.535 0 0 0 .425.199h.17c.076 0 .189-.019.34-.057l.227 1.02a2.783 2.783 0 0 1-.397.085 1.888 1.888 0 0 1-.51.057Zm5.054-.34v-13.605h1.077l.113 2.098h.085a8.658 8.658 0 0 1 2.013-1.729c.755-.472 1.511-.709 2.267-.709 1.096 0 1.937.255 2.523.766.585.491 1.001 1.162 1.247 2.012.793-.85 1.558-1.521 2.295-2.012.756-.511 1.531-.766 2.324-.766 2.721 0 4.082 1.739 4.082 5.215V244h-1.276v-8.56c0-1.454-.245-2.522-.736-3.202-.492-.699-1.257-1.049-2.296-1.049-1.228 0-2.589.85-4.082 2.551V244h-1.247v-8.56c0-1.454-.245-2.522-.737-3.202-.491-.699-1.266-1.049-2.324-1.049-1.228 0-2.588.85-4.081 2.551V244h-1.247Zm23.001 0v-13.605h1.077l.113 2.098h.085a11.82 11.82 0 0 1 2.154-1.729c.737-.472 1.578-.709 2.523-.709 1.417 0 2.456.425 3.117 1.276.662.85.992 2.163.992 3.939V244h-1.247v-8.56c0-1.454-.245-2.522-.737-3.202-.472-.699-1.266-1.049-2.38-1.049-.813 0-1.55.217-2.211.652-.661.416-1.408 1.049-2.239 1.899V244h-1.247Zm20.045.34c-.813 0-1.588-.16-2.325-.482a5.871 5.871 0 0 1-1.955-1.389c-.548-.604-.992-1.341-1.332-2.21-.322-.888-.482-1.899-.482-3.033s.16-2.145.482-3.033c.34-.907.784-1.662 1.332-2.267a5.871 5.871 0 0 1 1.955-1.389 5.761 5.761 0 0 1 2.325-.482 5.76 5.76 0 0 1 2.324.482 5.521 5.521 0 0 1 1.955 1.389c.567.605 1.011 1.36 1.332 2.267.341.888.511 1.899.511 3.033s-.17 2.145-.511 3.033c-.321.869-.765 1.606-1.332 2.21a5.521 5.521 0 0 1-1.955 1.389 5.743 5.743 0 0 1-2.324.482Zm0-1.105c.68 0 1.313-.142 1.898-.425a4.467 4.467 0 0 0 1.531-1.247c.435-.53.775-1.163 1.02-1.899.246-.737.369-1.55.369-2.438 0-.907-.123-1.729-.369-2.466-.245-.737-.585-1.37-1.02-1.899a4.071 4.071 0 0 0-1.531-1.247 4.078 4.078 0 0 0-1.898-.453c-.681 0-1.314.151-1.899.453a4.386 4.386 0 0 0-1.531 1.247c-.416.529-.746 1.162-.992 1.899-.246.737-.368 1.559-.368 2.466 0 .888.122 1.701.368 2.438.246.736.576 1.369.992 1.899.435.529.945.944 1.531 1.247a4.303 4.303 0 0 0 1.899.425Zm10.207 6.915v-19.755h1.077l.114 1.701h.085a14.137 14.137 0 0 1 2.154-1.417 5.243 5.243 0 0 1 2.466-.624c1.814 0 3.174.633 4.081 1.899.907 1.247 1.361 2.929 1.361 5.045 0 1.153-.161 2.183-.482 3.09-.322.907-.766 1.681-1.332 2.324a5.758 5.758 0 0 1-1.928 1.445 5.479 5.479 0 0 1-2.267.482c-.643 0-1.304-.142-1.984-.425a11.31 11.31 0 0 1-2.098-1.247v7.482h-1.247Zm5.272-6.915c.68 0 1.313-.151 1.899-.454a4.394 4.394 0 0 0 1.502-1.275c.416-.548.737-1.2.964-1.956.246-.775.368-1.625.368-2.551 0-.831-.085-1.606-.255-2.324-.151-.718-.396-1.332-.737-1.842a3.444 3.444 0 0 0-1.332-1.219c-.548-.302-1.209-.453-1.984-.453-.68 0-1.389.198-2.125.595-.718.378-1.493.926-2.325 1.644v8.077c.794.643 1.531 1.096 2.211 1.361.68.264 1.285.397 1.814.397Zm19.102 6.915v-5.243l.056-2.693a9.494 9.494 0 0 1-2.04 1.503c-.737.415-1.559.623-2.466.623-1.72 0-3.09-.605-4.11-1.814-1.02-1.228-1.53-2.995-1.53-5.3 0-1.096.16-2.088.481-2.976.322-.888.756-1.644 1.304-2.267a5.799 5.799 0 0 1 1.928-1.418 5.478 5.478 0 0 1 2.324-.51c.831 0 1.549.142 2.154.425a9.915 9.915 0 0 1 1.899 1.163h.056l.142-1.248h1.049v19.755h-1.247Zm-4.28-6.915c.756 0 1.474-.189 2.154-.567.699-.397 1.408-.954 2.126-1.672v-8.078c-.718-.642-1.399-1.096-2.041-1.361a4.899 4.899 0 0 0-1.927-.396c-.681 0-1.314.16-1.899.482a4.684 4.684 0 0 0-1.531 1.275c-.416.529-.746 1.171-.992 1.927a7.504 7.504 0 0 0-.368 2.381c0 .907.094 1.729.283 2.466.208.737.501 1.37.879 1.899.378.51.841.916 1.389 1.219.566.283 1.209.425 1.927.425Zm10.74.765v-13.605h1.077l.114 2.523h.085c.453-.85 1.001-1.54 1.644-2.069.661-.529 1.398-.794 2.21-.794.265 0 .501.019.709.057.208.038.425.113.652.227l-.284 1.133a2.242 2.242 0 0 0-.595-.17 3.146 3.146 0 0 0-.652-.056c-.604 0-1.247.264-1.927.793-.661.51-1.257 1.408-1.786 2.693V244h-1.247Zm12.284.34c-1.021 0-1.956-.179-2.806-.538-.851-.378-1.578-.822-2.183-1.333l.737-.935c.586.491 1.209.907 1.871 1.247.661.321 1.483.482 2.466.482 1.077 0 1.88-.264 2.409-.794.548-.547.822-1.18.822-1.898a1.99 1.99 0 0 0-.312-1.106 2.646 2.646 0 0 0-.765-.822 5.903 5.903 0 0 0-1.077-.595c-.378-.17-.766-.331-1.162-.482a81.893 81.893 0 0 1-1.559-.595 7.488 7.488 0 0 1-1.389-.737 4.104 4.104 0 0 1-1.02-1.049c-.246-.415-.369-.916-.369-1.502 0-.491.095-.954.284-1.389.189-.453.472-.84.85-1.162.378-.34.831-.604 1.36-.793.548-.189 1.181-.284 1.899-.284s1.417.133 2.098.397c.699.265 1.294.605 1.785 1.02l-.68.879a7.441 7.441 0 0 0-1.445-.85c-.511-.246-1.115-.369-1.814-.369-.529 0-.983.076-1.361.227a2.967 2.967 0 0 0-.964.539 2.35 2.35 0 0 0-.566.793c-.114.303-.17.605-.17.907 0 .397.085.737.255 1.021.189.264.434.5.737.708a6.48 6.48 0 0 0 1.02.567l1.19.453 1.588.624a6.359 6.359 0 0 1 1.417.765c.434.303.784.68 1.048 1.134.265.435.397.982.397 1.644 0 .51-.104 1.001-.312 1.474a3.4 3.4 0 0 1-.878 1.218 4.65 4.65 0 0 1-1.446.822c-.567.208-1.218.312-1.955.312Zm11.358 0c-.662 0-1.21-.104-1.644-.312a2.525 2.525 0 0 1-1.049-.822 3.434 3.434 0 0 1-.567-1.303 9.257 9.257 0 0 1-.141-1.673v-8.758h-2.126v-.963l2.154-.114.17-3.939h1.077v3.939h3.94v1.077h-3.94v8.872c0 .434.028.831.085 1.19.076.34.198.643.369.907.17.246.396.444.68.595.302.133.689.199 1.162.199.264 0 .548-.038.85-.114.321-.094.605-.198.85-.311l.341 1.02a9.52 9.52 0 0 1-1.191.368 4.488 4.488 0 0 1-1.02.142Zm9.028 0c-1.417 0-2.457-.425-3.118-1.275-.661-.851-.992-2.164-.992-3.94v-8.73h1.247v8.56c0 1.455.236 2.532.709 3.231.491.68 1.284 1.02 2.38 1.02.813 0 1.55-.217 2.211-.651.661-.454 1.389-1.163 2.183-2.126v-10.034h1.247V244h-1.049l-.142-2.267h-.056c-.662.793-1.361 1.426-2.098 1.899-.737.472-1.578.708-2.522.708Zm13.924-.34-5.101-13.605h1.36l3.061 8.532c.208.661.435 1.322.68 1.984.246.661.473 1.303.681 1.927h.113c.227-.624.453-1.266.68-1.927.246-.662.482-1.323.709-1.984l3.061-8.532h1.275L274.069 244h-1.474Zm11.553 0-4.025-13.605h1.361l2.437 8.815c.17.624.331 1.238.482 1.842.151.586.302 1.181.453 1.786h.114c.151-.605.311-1.2.482-1.786.17-.604.34-1.218.51-1.842l2.466-8.815h1.502l2.466 8.815c.17.624.34 1.238.51 1.842.17.586.34 1.181.51 1.786h.113c.151-.605.312-1.2.482-1.786.17-.604.331-1.218.482-1.842l2.409-8.815h1.276L294.266 244h-1.644l-2.38-8.446a30.064 30.064 0 0 1-.539-1.927 19.749 19.749 0 0 0-.51-1.956h-.114a38.013 38.013 0 0 1-.51 1.984c-.17.642-.359 1.294-.567 1.956L285.65 244h-1.502Zm15.094 0 4.62-7.114-4.251-6.491H301l2.21 3.458.681 1.134c.245.359.5.727.765 1.105h.113c.246-.378.473-.746.68-1.105.227-.378.463-.756.709-1.134l2.126-3.458h1.303l-4.223 6.604 4.62 7.001h-1.389l-2.409-3.713c-.264-.435-.529-.86-.793-1.275a28.21 28.21 0 0 0-.822-1.219h-.114c-.264.397-.529.803-.793 1.219-.246.415-.501.84-.765 1.275L300.574 244h-1.332Zm13.408 6.207a3.32 3.32 0 0 1-1.389-.283l.284-1.106c.151.057.321.104.51.142.189.057.387.085.595.085.851 0 1.559-.34 2.126-1.02.567-.681 1.02-1.54 1.36-2.58l.369-1.19-5.584-13.86h1.361l3.288 8.56c.207.567.434 1.19.68 1.871.264.68.529 1.322.793 1.927h.114a59.22 59.22 0 0 0 .623-1.927l.624-1.871 2.919-8.56h1.276l-5.386 15.306a11.646 11.646 0 0 1-.708 1.672 6.022 6.022 0 0 1-.964 1.445 4.067 4.067 0 0 1-1.275.992c-.473.265-1.011.397-1.616.397ZM323.082 244v-.68l8.05-11.848h-7.171v-1.077h8.786v.652l-8.021 11.848h8.305V244h-9.949ZM2.381 280v-1.105h4.251v-15.022h-3.23v-.85a14.197 14.197 0 0 0 1.955-.482 8.258 8.258 0 0 0 1.53-.652h1.02v17.006h3.94V280H2.381Zm12.344 0v-.794a211.812 211.812 0 0 0 3.91-4.053c1.116-1.209 2.042-2.305 2.778-3.287.756-1.002 1.314-1.918 1.673-2.75.378-.85.567-1.672.567-2.465 0-1.134-.322-2.088-.964-2.863-.624-.775-1.616-1.162-2.976-1.162-.832 0-1.606.227-2.324.68a7.721 7.721 0 0 0-1.9 1.701l-.821-.794a10.567 10.567 0 0 1 2.239-1.899c.831-.51 1.805-.765 2.92-.765 1.624 0 2.88.463 3.769 1.389.888.925 1.332 2.154 1.332 3.684 0 .907-.198 1.814-.595 2.721-.397.888-.954 1.833-1.672 2.834-.719.983-1.597 2.041-2.636 3.175a341.246 341.246 0 0 1-3.401 3.656 37.66 37.66 0 0 1 1.502-.085c.529-.038 1.039-.057 1.53-.057h6.179V280h-11.11Zm18.975.34c-.718 0-1.37-.075-1.955-.227a7.455 7.455 0 0 1-1.587-.595 8.275 8.275 0 0 1-1.247-.822c-.36-.302-.68-.604-.964-.907l.737-.878c.264.302.557.595.878.878.322.265.68.51 1.078.737.415.208.869.378 1.36.51a6.74 6.74 0 0 0 1.7.199c.605 0 1.163-.095 1.673-.284a4.038 4.038 0 0 0 1.36-.793c.378-.359.671-.784.879-1.276a4.179 4.179 0 0 0 .312-1.644c0-.623-.123-1.19-.369-1.7-.227-.51-.595-.945-1.105-1.304-.492-.378-1.143-.671-1.956-.879-.794-.207-1.757-.311-2.89-.311v-1.106c1.038 0 1.917-.104 2.635-.311.737-.208 1.323-.482 1.757-.822.454-.359.775-.775.964-1.248.208-.491.312-1.01.312-1.558 0-1.021-.33-1.833-.992-2.438-.662-.623-1.55-.935-2.665-.935-.85 0-1.625.198-2.324.595-.699.378-1.313.841-1.842 1.389l-.737-.85a9.756 9.756 0 0 1 2.126-1.559c.793-.435 1.72-.652 2.777-.652.7 0 1.352.104 1.956.312a4.293 4.293 0 0 1 1.559.85c.453.359.803.812 1.049 1.36.264.529.396 1.143.396 1.843 0 1.19-.33 2.154-.992 2.891-.642.718-1.464 1.247-2.465 1.587v.113a5.219 5.219 0 0 1 1.587.595c.491.265.926.596 1.304.992.378.397.67.86.878 1.389.227.51.34 1.087.34 1.729 0 .794-.141 1.512-.425 2.154a4.794 4.794 0 0 1-1.19 1.616 5.39 5.39 0 0 1-1.757 1.02c-.662.227-1.38.34-2.154.34Zm15.774-.34v-5.413H41.14v-.737l8.418-11.961h1.134v11.62h2.692v1.078h-2.692V280h-1.22Zm-6.802-6.491h6.802v-6.632c0-.415.01-.935.028-1.559.019-.623.047-1.143.085-1.558h-.113c-.227.377-.463.746-.709 1.105-.245.359-.5.746-.765 1.162l-5.328 7.482Zm18.012 6.831c-.718 0-1.37-.075-1.956-.227a7.532 7.532 0 0 1-1.559-.538 8.461 8.461 0 0 1-1.218-.794c-.36-.302-.68-.595-.964-.878l.709-.879c.264.283.557.557.878.822.321.264.68.501 1.077.709.397.207.841.377 1.332.51.492.113 1.049.17 1.673.17.604 0 1.18-.114 1.728-.34a4.471 4.471 0 0 0 1.417-.992c.416-.435.747-.945.992-1.531.246-.605.369-1.275.369-2.012 0-1.474-.397-2.617-1.19-3.43-.794-.831-1.871-1.247-3.232-1.247-.699 0-1.303.114-1.813.34a8.875 8.875 0 0 0-1.56.879l-.878-.539.652-8.474h8.361v1.105h-7.227l-.567 6.547c.472-.283.964-.51 1.474-.68.51-.189 1.096-.283 1.757-.283a6.76 6.76 0 0 1 2.154.34c.68.227 1.266.576 1.757 1.049.492.453.879 1.048 1.162 1.785.303.718.454 1.569.454 2.551 0 .964-.17 1.823-.51 2.579a5.86 5.86 0 0 1-1.304 1.899 5.347 5.347 0 0 1-1.843 1.162 5.805 5.805 0 0 1-2.125.397Zm14.526 0c-1.833 0-3.278-.737-4.336-2.211-1.059-1.473-1.588-3.59-1.588-6.348 0-1.89.18-3.487.539-4.79.378-1.304.869-2.362 1.474-3.175.623-.812 1.332-1.389 2.125-1.729a6.178 6.178 0 0 1 2.523-.538c.85 0 1.578.16 2.182.482a5.662 5.662 0 0 1 1.644 1.275l-.765.85a3.88 3.88 0 0 0-1.389-1.105 3.685 3.685 0 0 0-1.672-.397c-.718 0-1.408.161-2.07.482-.642.302-1.208.803-1.7 1.502-.491.699-.888 1.625-1.19 2.778-.283 1.133-.425 2.522-.425 4.166.623-.775 1.322-1.389 2.097-1.842.794-.454 1.616-.68 2.466-.68 1.606 0 2.844.481 3.713 1.445.888.945 1.332 2.334 1.332 4.167 0 .831-.132 1.596-.397 2.295a5.843 5.843 0 0 1-1.077 1.786 5.065 5.065 0 0 1-1.587 1.162 4.308 4.308 0 0 1-1.899.425Zm.028-1.077c.53 0 1.011-.113 1.446-.34.453-.246.84-.576 1.162-.992.321-.416.576-.898.765-1.446a5.69 5.69 0 0 0 .284-1.813c0-.643-.076-1.238-.227-1.786a3.835 3.835 0 0 0-.709-1.446 2.96 2.96 0 0 0-1.219-.963c-.49-.227-1.076-.34-1.757-.34-.642 0-1.35.208-2.126.623-.774.397-1.53 1.096-2.267 2.098.057.963.19 1.842.397 2.635.227.775.529 1.446.907 2.013.378.548.84.982 1.389 1.304.567.302 1.218.453 1.955.453Zm11.466.737c.075-1.833.226-3.505.453-5.017a28.79 28.79 0 0 1 1.02-4.308c.435-1.36.983-2.655 1.644-3.883a35.25 35.25 0 0 1 2.353-3.798h-9.552v-1.105h11.139v.737c-1.077 1.436-1.975 2.815-2.693 4.138a24.288 24.288 0 0 0-1.7 4.053 25.63 25.63 0 0 0-.907 4.28 59.298 59.298 0 0 0-.397 4.903h-1.36Zm15.121.34a6.897 6.897 0 0 1-2.296-.368 6.095 6.095 0 0 1-1.814-1.049 5.256 5.256 0 0 1-1.219-1.587 4.616 4.616 0 0 1-.425-1.984c0-.605.104-1.172.312-1.701.227-.529.51-1.001.85-1.417a7.314 7.314 0 0 1 1.162-1.134 8.54 8.54 0 0 1 1.304-.85v-.113c-.34-.227-.67-.473-.992-.737a6.463 6.463 0 0 1-.822-.936 6.339 6.339 0 0 1-.567-1.133 3.953 3.953 0 0 1-.226-1.361c0-.642.122-1.237.368-1.785a4.138 4.138 0 0 1 .992-1.389 4.502 4.502 0 0 1 1.502-.907 5.13 5.13 0 0 1 1.871-.34c.775 0 1.464.123 2.069.368a4.059 4.059 0 0 1 1.53.992c.435.416.756.917.964 1.502.227.567.34 1.191.34 1.871 0 .491-.085.973-.255 1.446a6.23 6.23 0 0 1-.652 1.275 6.651 6.651 0 0 1-.822 1.077 7.937 7.937 0 0 1-.85.794v.113c.397.246.784.51 1.162.794a5.3 5.3 0 0 1 .992.963c.302.359.548.775.737 1.247.189.473.283 1.011.283 1.616 0 .661-.132 1.285-.396 1.87a4.594 4.594 0 0 1-1.134 1.503c-.473.415-1.049.746-1.729.992a6.565 6.565 0 0 1-2.239.368Zm1.332-9.835c.775-.623 1.36-1.275 1.757-1.956a4.305 4.305 0 0 0 .624-2.239c0-.51-.085-.982-.255-1.417a3.511 3.511 0 0 0-.737-1.19 3.04 3.04 0 0 0-1.162-.794c-.454-.208-.973-.312-1.559-.312-.51 0-.983.086-1.417.256-.416.17-.784.406-1.106.708a2.945 2.945 0 0 0-.708 1.049 3.56 3.56 0 0 0-.255 1.36c0 .643.132 1.2.396 1.673.284.453.652.859 1.106 1.218.453.34.963.643 1.53.907.586.265 1.181.51 1.786.737Zm-1.332 8.786c.642 0 1.219-.094 1.729-.283a3.72 3.72 0 0 0 1.332-.794c.378-.34.661-.737.85-1.19.208-.453.312-.935.312-1.445 0-.7-.161-1.285-.482-1.758a4.21 4.21 0 0 0-1.247-1.275 7.823 7.823 0 0 0-1.757-.964c-.662-.283-1.342-.567-2.041-.85-.926.548-1.691 1.2-2.296 1.956-.604.736-.907 1.606-.907 2.607 0 .567.114 1.096.34 1.587a4 4 0 0 0 .936 1.247c.397.359.869.643 1.417.851a5.072 5.072 0 0 0 1.814.311Zm13.08-7.539c.662 0 1.389-.217 2.183-.652.793-.434 1.53-1.133 2.211-2.097-.057-.964-.199-1.833-.426-2.608-.207-.793-.51-1.464-.906-2.012a3.898 3.898 0 0 0-1.418-1.304c-.548-.302-1.19-.453-1.927-.453-.51 0-.992.123-1.445.368a3.341 3.341 0 0 0-1.162.964 4.563 4.563 0 0 0-.766 1.445 5.446 5.446 0 0 0-.283 1.786c0 .661.075 1.275.227 1.842.151.548.387 1.03.708 1.446.321.397.728.708 1.219.935.491.227 1.086.34 1.785.34Zm-.992 8.588c-.85 0-1.587-.16-2.21-.482a5.309 5.309 0 0 1-1.616-1.275l.765-.85c.397.491.86.869 1.389 1.133a3.984 3.984 0 0 0 1.701.369c.718 0 1.398-.151 2.041-.454.661-.321 1.237-.831 1.728-1.53.492-.699.879-1.616 1.162-2.75.303-1.152.454-2.55.454-4.194a7.717 7.717 0 0 1-2.126 1.814c-.793.453-1.615.68-2.466.68-1.587 0-2.824-.472-3.712-1.417-.87-.964-1.304-2.362-1.304-4.195 0-.812.132-1.568.397-2.267.264-.7.623-1.295 1.077-1.786a5.172 5.172 0 0 1 1.558-1.162 4.497 4.497 0 0 1 1.928-.425c1.814 0 3.25.737 4.308 2.211 1.058 1.454 1.587 3.561 1.587 6.32 0 1.908-.189 3.515-.567 4.818-.359 1.304-.841 2.362-1.445 3.175-.605.793-1.314 1.37-2.126 1.729a6.176 6.176 0 0 1-2.523.538Zm14.923 0c-1.738 0-3.079-.812-4.024-2.437-.926-1.644-1.389-3.987-1.389-7.029 0-3.024.463-5.329 1.389-6.916.945-1.606 2.286-2.409 4.024-2.409 1.739 0 3.071.803 3.997 2.409.945 1.587 1.417 3.892 1.417 6.916 0 3.042-.472 5.385-1.417 7.029-.926 1.625-2.258 2.437-3.997 2.437Zm0-1.077c1.266 0 2.268-.699 3.005-2.097.756-1.417 1.134-3.515 1.134-6.292 0-2.778-.378-4.847-1.134-6.207-.737-1.361-1.739-2.041-3.005-2.041-1.247 0-2.248.68-3.004 2.041-.756 1.36-1.134 3.429-1.134 6.207 0 2.777.378 4.875 1.134 6.292.756 1.398 1.757 2.097 3.004 2.097Zm9.992-4.336-.17-11.904v-2.013h1.303l-.028 2.013-.17 11.904h-.935Zm.482 5.413c-.322 0-.605-.113-.851-.34-.245-.227-.368-.539-.368-.935 0-.416.123-.737.368-.964.246-.227.529-.34.851-.34.321 0 .595.113.822.34.245.227.368.548.368.964 0 .396-.123.708-.368.935a1.12 1.12 0 0 1-.822.34Zm14.647 3.798c-1.361 0-2.627-.227-3.798-.68a8.374 8.374 0 0 1-3.004-1.927c-.851-.832-1.521-1.852-2.013-3.062-.472-1.228-.708-2.626-.708-4.194 0-1.852.302-3.524.907-5.017.623-1.512 1.445-2.796 2.465-3.855a10.646 10.646 0 0 1 3.6-2.465 10.705 10.705 0 0 1 4.28-.879c1.36 0 2.588.217 3.684.652 1.115.434 2.05 1.049 2.806 1.842.775.775 1.37 1.72 1.786 2.834.416 1.096.623 2.315.623 3.657 0 1.209-.16 2.277-.481 3.202-.322.907-.737 1.673-1.247 2.296-.511.624-1.078 1.096-1.701 1.417-.605.303-1.2.454-1.786.454-.755 0-1.388-.17-1.899-.51-.491-.359-.774-.907-.85-1.644h-.057a8.767 8.767 0 0 1-1.615 1.417 3.256 3.256 0 0 1-1.842.567c-.435 0-.851-.076-1.248-.227a3.114 3.114 0 0 1-1.048-.737 3.628 3.628 0 0 1-.68-1.19c-.17-.492-.256-1.058-.256-1.701 0-.68.114-1.398.341-2.154a7.358 7.358 0 0 1 1.048-2.069 5.754 5.754 0 0 1 1.644-1.53c.662-.416 1.408-.624 2.239-.624 1.002 0 1.786.453 2.353 1.36h.056l.255-1.133h.964l-1.02 5.357c-.643 2.55-.076 3.826 1.7 3.826.454 0 .917-.142 1.389-.425.491-.284.926-.69 1.304-1.219.397-.548.718-1.209.964-1.984.264-.775.396-1.663.396-2.664 0-1.21-.189-2.315-.566-3.316-.359-1.002-.879-1.852-1.559-2.551-.681-.699-1.512-1.238-2.494-1.616-.964-.397-2.06-.595-3.288-.595a9.31 9.31 0 0 0-3.77.794 10.021 10.021 0 0 0-3.231 2.267c-.926.964-1.672 2.135-2.239 3.515-.567 1.36-.85 2.881-.85 4.563 0 1.379.208 2.626.623 3.741.416 1.096.992 2.022 1.729 2.778a7.727 7.727 0 0 0 2.693 1.785c1.058.416 2.22.624 3.486.624.945 0 1.804-.123 2.579-.369a9.858 9.858 0 0 0 2.182-.992l.454.851a9.782 9.782 0 0 1-5.3 1.53Zm-.68-6.916c.944 0 1.965-.633 3.061-1.899l.878-4.903c-.34-.529-.67-.888-.992-1.077-.302-.208-.67-.312-1.105-.312-.643 0-1.219.17-1.729.51-.51.322-.945.737-1.304 1.248a6.387 6.387 0 0 0-.793 1.7 6.243 6.243 0 0 0-.284 1.814c0 1.077.217 1.833.652 2.268.435.434.973.651 1.616.651Z" fill="#000"/><rect x="492" y="51" width="83" height="83" rx="10" fill="#F28C09"/><rect x="492" y="190" width="65" height="65" rx="10" fill="#CECECE"/><rect x="580" y="190" width="65" height="65" rx="10" fill="#797979"/><rect x="668" y="190" width="65" height="65" rx="10" fill="#000"/><rect x="604" y="51" width="83" height="83" rx="10" fill="#FFAC40"/><rect x="716" y="51" width="83" height="83" rx="10" fill="#FFCA94"/><rect x="828" y="51" width="83" height="83" rx="10" fill="#FFF1E3"/></svg>