<svg version="1.1" viewBox="0.0 0.0 531.0 377.0" fill="none" stroke="none" stroke-linecap="square" stroke-miterlimit="10" width="531" height="377" xmlns:xlink="http://www.w3.org/1999/xlink" xmlns="http://www.w3.org/2000/svg"><path fill="#ffffff" d="M0 0L531.0 0L531.0 377.0L0 377.0L0 0Z" fill-rule="nonzero"/><path stroke="#000000" stroke-width="1.0" stroke-linecap="butt" stroke-opacity="0.0" d="M44.5 293.5L514.5 293.5" fill-rule="nonzero"/><path stroke="#000000" stroke-width="1.0" stroke-linecap="butt" stroke-opacity="0.0" d="M44.5 278.5L514.5 278.5" fill-rule="nonzero"/><path stroke="#000000" stroke-width="1.0" stroke-linecap="butt" stroke-opacity="0.0" d="M44.5 247.5L514.5 247.5" fill-rule="nonzero"/><path stroke="#000000" stroke-width="1.0" stroke-linecap="butt" stroke-opacity="0.0" d="M44.5 231.5L514.5 231.5" fill-rule="nonzero"/><path stroke="#000000" stroke-width="1.0" stroke-linecap="butt" stroke-opacity="0.0" d="M44.5 200.5L514.5 200.5" fill-rule="nonzero"/><path stroke="#000000" stroke-width="1.0" stroke-linecap="butt" stroke-opacity="0.0" d="M44.5 185.5L514.5 185.5" fill-rule="nonzero"/><path stroke="#000000" stroke-width="1.0" stroke-linecap="butt" stroke-opacity="0.0" d="M44.5 154.5L514.5 154.5" fill-rule="nonzero"/><path stroke="#000000" stroke-width="1.0" stroke-linecap="butt" stroke-opacity="0.0" d="M44.5 138.5L514.5 138.5" fill-rule="nonzero"/><path stroke="#000000" stroke-width="1.0" stroke-linecap="butt" stroke-opacity="0.0" d="M44.5 107.5L514.5 107.5" fill-rule="nonzero"/><path stroke="#000000" stroke-width="1.0" stroke-linecap="butt" stroke-opacity="0.0" d="M44.5 92.5L514.5 92.5" fill-rule="nonzero"/><path stroke="#000000" stroke-width="1.0" stroke-linecap="butt" d="M44.5 309.5L44.5 76.5" fill-rule="nonzero"/><clipPath id="id_0"><path d="M44.755764 76.72102L514.58325 76.72102L514.58325 309.37372L44.755764 309.37372L44.755764 76.72102Z" clip-rule="nonzero"/></clipPath><path stroke="#000000" stroke-width="2.0" stroke-linecap="butt" stroke-opacity="0.0" clip-path="url(#id_0)" d="M133.0 309.0L76.0 309.0L76.0 125.0C76.0 123.89543 76.89543 123.0 78.0 123.0L131.0 123.0C132.10457 123.0 133.0 123.89543 133.0 125.0Z" fill-rule="nonzero"/><path fill="#fce5cd" clip-path="url(#id_0)" d="M133.0 309.0L76.0 309.0L76.0 125.0C76.0 123.89543 76.89543 123.0 78.0 123.0L131.0 123.0C132.10457 123.0 133.0 123.89543 133.0 125.0Z" fill-rule="nonzero"/><path stroke="#000000" stroke-width="2.0" stroke-linecap="butt" stroke-opacity="0.0" clip-path="url(#id_0)" d="M221.0 309.0L164.0 309.0L164.0 172.0C164.0 170.89543 164.89543 170.0 166.0 170.0L219.0 170.0C220.10457 170.0 221.0 170.89543 221.0 172.0Z" fill-rule="nonzero"/><path fill="#f9cb9c" clip-path="url(#id_0)" d="M221.0 309.0L164.0 309.0L164.0 172.0C164.0 170.89543 164.89543 170.0 166.0 170.0L219.0 170.0C220.10457 170.0 221.0 170.89543 221.0 172.0Z" fill-rule="nonzero"/><path stroke="#000000" stroke-width="2.0" stroke-linecap="butt" stroke-opacity="0.0" clip-path="url(#id_0)" d="M309.0 309.0L252.0 309.0L252.0 79.0C252.0 77.89543 252.89543 77.0 254.0 77.0L307.0 77.0C308.10458 77.0 309.0 77.89543 309.0 79.0Z" fill-rule="nonzero"/><path fill="#f6b26b" clip-path="url(#id_0)" d="M309.0 309.0L252.0 309.0L252.0 79.0C252.0 77.89543 252.89543 77.0 254.0 77.0L307.0 77.0C308.10458 77.0 309.0 77.89543 309.0 79.0Z" fill-rule="nonzero"/><path stroke="#000000" stroke-width="2.0" stroke-linecap="butt" stroke-opacity="0.0" clip-path="url(#id_0)" d="M396.0 309.0L339.0 309.0L339.0 218.0C339.0 216.89543 339.89542 216.0 341.0 216.0L394.0 216.0C395.10458 216.0 396.0 216.89543 396.0 218.0Z" fill-rule="nonzero"/><path fill="#d9d9d9" clip-path="url(#id_0)" d="M396.0 309.0L339.0 309.0L339.0 218.0C339.0 216.89543 339.89542 216.0 341.0 216.0L394.0 216.0C395.10458 216.0 396.0 216.89543 396.0 218.0Z" fill-rule="nonzero"/><path stroke="#000000" stroke-width="2.0" stroke-linecap="butt" stroke-opacity="0.0" clip-path="url(#id_0)" d="M484.0 309.0L427.0 309.0L427.0 265.0C427.0 263.89542 427.89542 263.0 429.0 263.0L482.0 263.0C483.10458 263.0 484.0 263.89542 484.0 265.0Z" fill-rule="nonzero"/><path fill="#666666" clip-path="url(#id_0)" d="M484.0 309.0L427.0 309.0L427.0 265.0C427.0 263.89542 427.89542 263.0 429.0 263.0L482.0 263.0C483.10458 263.0 484.0 263.89542 484.0 265.0Z" fill-rule="nonzero"/><path stroke="#000000" stroke-width="1.0" stroke-linecap="butt" d="M38.5 309.5L50.5 309.5" fill-rule="nonzero"/><path stroke="#000000" stroke-width="1.0" stroke-linecap="butt" d="M38.5 262.5L50.5 262.5" fill-rule="nonzero"/><path stroke="#000000" stroke-width="1.0" stroke-linecap="butt" d="M38.5 216.5L50.5 216.5" fill-rule="nonzero"/><path stroke="#000000" stroke-width="1.0" stroke-linecap="butt" d="M38.5 169.5L50.5 169.5" fill-rule="nonzero"/><path stroke="#000000" stroke-width="1.0" stroke-linecap="butt" d="M38.5 123.5L50.5 123.5" fill-rule="nonzero"/><path stroke="#000000" stroke-width="1.0" stroke-linecap="butt" d="M38.5 76.5L50.5 76.5" fill-rule="nonzero"/><path fill="#000000" d="M31.818264 310.2331Q31.818264 312.13934 31.162014 313.07684Q30.521389 313.99872 29.130764 313.99872Q27.771389 313.99872 27.115139 313.09247Q26.458889 312.18622 26.427639 310.37372L26.427639 308.93622Q26.427639 307.0456 27.068264 306.13934Q27.724514 305.21747 29.115139 305.21747Q30.490139 305.21747 31.146389 306.1081Q31.802639 306.9831 31.818264 308.82684L31.818264 310.2331ZM30.724514 308.74872Q30.724514 307.37372 30.333889 306.74872Q29.958889 306.1081 29.115139 306.1081Q28.287014 306.1081 27.896389 306.74872Q27.521389 307.37372 27.521389 308.6706L27.521389 310.40497Q27.521389 311.77997 27.912014 312.45184Q28.318264 313.1081 29.130764 313.1081Q29.927639 313.1081 30.318264 312.4831Q30.708889 311.8581 30.724514 310.52997L30.724514 308.74872Z" fill-rule="nonzero"/><path fill="#000000" d="M32.05264 267.34317L26.458889 267.34317L26.458889 266.56192L29.412014 263.28067Q30.068264 262.53067 30.318264 262.07755Q30.568264 261.6088 30.568264 261.1088Q30.568264 260.43692 30.162014 260.01505Q29.771389 259.57755 29.083889 259.57755Q28.287014 259.57755 27.833889 260.0463Q27.380764 260.49942 27.380764 261.32755L26.302639 261.32755Q26.302639 260.14005 27.052639 259.4213Q27.818264 258.68692 29.083889 258.68692Q30.287014 258.68692 30.974514 259.31192Q31.662014 259.93692 31.662014 260.9838Q31.662014 262.2338 30.052639 263.9838L27.771389 266.45255L32.05264 266.45255L32.05264 267.34317Z" fill-rule="nonzero"/><path fill="#000000" d="M31.037014 217.95326L32.224514 217.95326L32.224514 218.82826L31.037014 218.82826L31.037014 220.81264L29.958889 220.81264L29.958889 218.82826L26.068264 218.82826L26.068264 218.18764L29.880764 212.28139L31.037014 212.28139L31.037014 217.95326ZM27.302639 217.95326L29.958889 217.95326L29.958889 213.76576L29.818264 214.00014L27.302639 217.95326Z" fill-rule="nonzero"/><path fill="#000000" d="M30.724514 165.75085L30.724514 166.6571L30.521389 166.6571Q29.255764 166.68835 28.505764 167.42273Q27.755764 168.14148 27.630764 169.45398Q28.318264 168.68835 29.474514 168.68835Q30.583889 168.68835 31.255764 169.4696Q31.927639 170.25085 31.927639 171.50085Q31.927639 172.81335 31.208889 173.61023Q30.490139 174.4071 29.271389 174.4071Q28.052639 174.4071 27.287014 173.4696Q26.537014 172.51648 26.537014 171.0321L26.537014 170.62585Q26.537014 168.26648 27.537014 167.01648Q28.537014 165.76648 30.521389 165.75085L30.724514 165.75085ZM29.302639 169.5946Q28.740139 169.5946 28.271389 169.92273Q27.802639 170.25085 27.615139 170.76648L27.615139 171.1571Q27.615139 172.2196 28.083889 172.86023Q28.568264 173.50085 29.271389 173.50085Q30.005764 173.50085 30.427639 172.9696Q30.849514 172.42273 30.849514 171.54773Q30.849514 170.67273 30.427639 170.14148Q30.005764 169.5946 29.302639 169.5946Z" fill-rule="nonzero"/><path fill="#000000" d="M31.646389 121.439064Q31.646389 122.07969 31.302639 122.57969Q30.958889 123.07969 30.396389 123.36094Q31.052639 123.64219 31.443264 124.20469Q31.833889 124.751564 31.833889 125.45469Q31.833889 126.54844 31.083889 127.220314Q30.349514 127.876564 29.130764 127.876564Q27.896389 127.876564 27.146389 127.220314Q26.412014 126.54844 26.412014 125.45469Q26.412014 124.751564 26.787014 124.20469Q27.162014 123.64219 27.833889 123.36094Q27.271389 123.07969 26.943264 122.57969Q26.615139 122.07969 26.615139 121.439064Q26.615139 120.36094 27.302639 119.73594Q27.990139 119.095314 29.130764 119.095314Q30.255764 119.095314 30.943264 119.73594Q31.646389 120.36094 31.646389 121.439064ZM30.755764 125.42344Q30.755764 124.70469 30.302639 124.26719Q29.849514 123.814064 29.115139 123.814064Q28.380764 123.814064 27.927639 124.26719Q27.490139 124.70469 27.490139 125.439064Q27.490139 126.157814 27.927639 126.57969Q28.365139 126.98594 29.130764 126.98594Q29.880764 126.98594 30.318264 126.564064Q30.755764 126.14219 30.755764 125.42344ZM29.130764 119.98594Q28.490139 119.98594 28.083889 120.39219Q27.693264 120.782814 27.693264 121.470314Q27.693264 122.11094 28.083889 122.51719Q28.474514 122.92344 29.115139 122.92344Q29.771389 122.92344 30.162014 122.51719Q30.552639 122.11094 30.552639 121.470314Q30.552639 120.814064 30.146389 120.407814Q29.740139 119.98594 29.130764 119.98594Z" fill-rule="nonzero"/><path fill="#000000" d="M23.021389 81.22102L21.943264 81.22102L21.943264 74.00227L19.755764 74.79915L19.755764 73.81477L22.865139 72.6429L23.021389 72.6429L23.021389 81.22102ZM31.818264 77.5804Q31.818264 79.48665 31.162014 80.42415Q30.521389 81.34602 29.130764 81.34602Q27.771389 81.34602 27.115139 80.43977Q26.458889 79.53352 26.427639 77.72102L26.427639 76.28352Q26.427639 74.3929 27.068264 73.48665Q27.724514 72.56477 29.115139 72.56477Q30.490139 72.56477 31.146389 73.4554Q31.802639 74.3304 31.818264 76.17415L31.818264 77.5804ZM30.724514 76.09602Q30.724514 74.72102 30.333889 74.09602Q29.958889 73.4554 29.115139 73.4554Q28.287014 73.4554 27.896389 74.09602Q27.521389 74.72102 27.521389 76.0179L27.521389 77.75227Q27.521389 79.12727 27.912014 79.79915Q28.318264 80.4554 29.130764 80.4554Q29.927639 80.4554 30.318264 79.8304Q30.708889 79.2054 30.724514 77.87727L30.724514 76.09602Z" fill-rule="nonzero"/><path fill="#000000" d="M73.033066 323.57684Q71.595566 323.15497 70.92369 322.5456Q70.26744 321.93622 70.26744 321.0456Q70.26744 320.0456 71.064316 319.38934Q71.876816 318.71747 73.17369 318.71747Q74.04869 318.71747 74.73619 319.06122Q75.42369 319.40497 75.79869 319.99872Q76.189316 320.59247 76.189316 321.31122L75.04869 321.31122Q75.04869 320.52997 74.54869 320.09247Q74.064316 319.65497 73.17369 319.65497Q72.345566 319.65497 71.876816 320.02997Q71.408066 320.38934 71.408066 321.02997Q71.408066 321.56122 71.845566 321.9206Q72.29869 322.27997 73.36119 322.57684Q74.42369 322.87372 75.01744 323.2331Q75.626816 323.59247 75.908066 324.07684Q76.20494 324.56122 76.20494 325.20184Q76.20494 326.24872 75.39244 326.87372Q74.57994 327.49872 73.23619 327.49872Q72.345566 327.49872 71.57994 327.15497Q70.82994 326.81122 70.408066 326.2331Q70.001816 325.63934 70.001816 324.90497L71.126816 324.90497Q71.126816 325.6706 71.70494 326.12372Q72.283066 326.57684 73.23619 326.57684Q74.126816 326.57684 74.595566 326.21747Q75.064316 325.84247 75.064316 325.21747Q75.064316 324.59247 74.626816 324.24872Q74.189316 323.90497 73.033066 323.57684ZM77.064316 324.13934Q77.064316 323.21747 77.42369 322.46747Q77.79869 321.71747 78.45494 321.32684Q79.11119 320.9206 79.939316 320.9206Q81.23619 320.9206 82.033066 321.81122Q82.845566 322.70184 82.845566 324.20184L82.845566 324.27997Q82.845566 325.20184 82.48619 325.93622Q82.126816 326.6706 81.470566 327.09247Q80.814316 327.49872 79.95494 327.49872Q78.67369 327.49872 77.86119 326.6081Q77.064316 325.70184 77.064316 324.21747L77.064316 324.13934ZM78.158066 324.27997Q78.158066 325.32684 78.64244 325.96747Q79.14244 326.6081 79.95494 326.6081Q80.783066 326.6081 81.26744 325.96747Q81.751816 325.31122 81.751816 324.13934Q81.751816 323.1081 81.251816 322.46747Q80.76744 321.81122 79.939316 321.81122Q79.14244 321.81122 78.64244 322.45184Q78.158066 323.07684 78.158066 324.27997ZM86.89244 326.6081Q87.470566 326.6081 87.908066 326.26434Q88.345566 325.90497 88.39244 325.37372L89.42369 325.37372Q89.39244 325.9206 89.033066 326.4206Q88.689316 326.90497 88.11119 327.20184Q87.54869 327.49872 86.89244 327.49872Q85.595566 327.49872 84.82994 326.63934Q84.07994 325.76434 84.07994 324.26434L84.07994 324.07684Q84.07994 323.15497 84.408066 322.43622Q84.751816 321.71747 85.376816 321.32684Q86.01744 320.9206 86.89244 320.9206Q87.95494 320.9206 88.658066 321.56122Q89.376816 322.18622 89.42369 323.21747L88.39244 323.21747Q88.345566 322.59247 87.92369 322.20184Q87.501816 321.81122 86.89244 321.81122Q86.064316 321.81122 85.61119 322.40497Q85.158066 322.99872 85.158066 324.12372L85.158066 324.32684Q85.158066 325.4206 85.61119 326.01434Q86.064316 326.6081 86.89244 326.6081ZM91.533066 327.37372L90.45494 327.37372L90.45494 321.02997L91.533066 321.02997L91.533066 327.37372ZM90.36119 319.3581Q90.36119 319.09247 90.51744 318.90497Q90.689316 318.71747 91.001816 318.71747Q91.314316 318.71747 91.470566 318.90497Q91.64244 319.09247 91.64244 319.3581Q91.64244 319.6081 91.470566 319.7956Q91.314316 319.96747 91.001816 319.96747Q90.689316 319.96747 90.51744 319.7956Q90.36119 319.6081 90.36119 319.3581ZM97.26744 327.37372Q97.17369 327.18622 97.11119 326.70184Q96.36119 327.49872 95.314316 327.49872Q94.376816 327.49872 93.76744 326.96747Q93.17369 326.43622 93.17369 325.6081Q93.17369 324.62372 93.92369 324.07684Q94.67369 323.52997 96.04869 323.52997L97.095566 323.52997L97.095566 323.02997Q97.095566 322.46747 96.751816 322.13934Q96.42369 321.7956 95.751816 321.7956Q95.17369 321.7956 94.783066 322.09247Q94.39244 322.37372 94.39244 322.7956L93.29869 322.7956Q93.29869 322.31122 93.626816 321.87372Q93.970566 321.43622 94.54869 321.18622Q95.126816 320.9206 95.814316 320.9206Q96.92369 320.9206 97.533066 321.46747Q98.158066 322.01434 98.189316 322.96747L98.189316 325.88934Q98.189316 326.76434 98.408066 327.27997L98.408066 327.37372L97.26744 327.37372ZM95.470566 326.5456Q95.98619 326.5456 96.439316 326.27997Q96.89244 326.01434 97.095566 325.59247L97.095566 324.2956L96.251816 324.2956Q94.251816 324.2956 94.251816 325.46747Q94.251816 325.96747 94.595566 326.26434Q94.939316 326.5456 95.470566 326.5456ZM101.533066 327.37372L100.45494 327.37372L100.45494 318.37372L101.533066 318.37372L101.533066 327.37372ZM107.970566 318.84247L110.76744 325.7956L113.54869 318.84247L115.01744 318.84247L115.01744 327.37372L113.89244 327.37372L113.89244 324.0456L114.001816 320.46747L111.189316 327.37372L110.32994 327.37372L107.533066 320.4831L107.64244 324.0456L107.64244 327.37372L106.51744 327.37372L106.51744 318.84247L107.970566 318.84247ZM118.98619 327.49872Q117.689316 327.49872 116.876816 326.65497Q116.07994 325.7956 116.07994 324.37372L116.07994 324.18622Q116.07994 323.2331 116.439316 322.49872Q116.79869 321.74872 117.439316 321.34247Q118.095566 320.9206 118.845566 320.9206Q120.07994 320.9206 120.76744 321.7331Q121.45494 322.5456 121.45494 324.06122L121.45494 324.51434L117.158066 324.51434Q117.189316 325.45184 117.70494 326.02997Q118.23619 326.6081 119.04869 326.6081Q119.61119 326.6081 120.001816 326.37372Q120.408066 326.13934 120.720566 325.74872L121.376816 326.26434Q120.57994 327.49872 118.98619 327.49872ZM118.845566 321.81122Q118.189316 321.81122 117.73619 322.2956Q117.29869 322.76434 117.20494 323.62372L120.376816 323.62372L120.376816 323.5456Q120.32994 322.71747 119.92369 322.26434Q119.533066 321.81122 118.845566 321.81122ZM122.095566 324.15497Q122.095566 322.68622 122.783066 321.81122Q123.470566 320.9206 124.595566 320.9206Q125.70494 320.9206 126.36119 321.6706L126.36119 318.37372L127.439316 318.37372L127.439316 327.37372L126.439316 327.37372L126.39244 326.68622Q125.73619 327.49872 124.57994 327.49872Q123.48619 327.49872 122.783066 326.59247Q122.095566 325.68622 122.095566 324.2331L122.095566 324.15497ZM123.17369 324.27997Q123.17369 325.3581 123.61119 325.96747Q124.064316 326.57684 124.845566 326.57684Q125.876816 326.57684 126.36119 325.63934L126.36119 322.7331Q125.876816 321.84247 124.86119 321.84247Q124.064316 321.84247 123.61119 322.45184Q123.17369 323.06122 123.17369 324.27997ZM130.53307 327.37372L129.45494 327.37372L129.45494 321.02997L130.53307 321.02997L130.53307 327.37372ZM129.36119 319.3581Q129.36119 319.09247 129.51744 318.90497Q129.68932 318.71747 130.00182 318.71747Q130.31432 318.71747 130.47057 318.90497Q130.64244 319.09247 130.64244 319.3581Q130.64244 319.6081 130.47057 319.7956Q130.31432 319.96747 130.00182 319.96747Q129.68932 319.96747 129.51744 319.7956Q129.36119 319.6081 129.36119 319.3581ZM136.26744 327.37372Q136.17369 327.18622 136.11119 326.70184Q135.36119 327.49872 134.31432 327.49872Q133.37682 327.49872 132.76744 326.96747Q132.17369 326.43622 132.17369 325.6081Q132.17369 324.62372 132.92369 324.07684Q133.67369 323.52997 135.04869 323.52997L136.09557 323.52997L136.09557 323.02997Q136.09557 322.46747 135.75182 322.13934Q135.42369 321.7956 134.75182 321.7956Q134.17369 321.7956 133.78307 322.09247Q133.39244 322.37372 133.39244 322.7956L132.29869 322.7956Q132.29869 322.31122 132.62682 321.87372Q132.97057 321.43622 133.54869 321.18622Q134.12682 320.9206 134.81432 320.9206Q135.92369 320.9206 136.53307 321.46747Q137.15807 322.01434 137.18932 322.96747L137.18932 325.88934Q137.18932 326.76434 137.40807 327.27997L137.40807 327.37372L136.26744 327.37372ZM134.47057 326.5456Q134.98619 326.5456 135.43932 326.27997Q135.89244 326.01434 136.09557 325.59247L136.09557 324.2956L135.25182 324.2956Q133.25182 324.2956 133.25182 325.46747Q133.25182 325.96747 133.59557 326.26434Q133.93932 326.5456 134.47057 326.5456Z" fill-rule="nonzero"/><path fill="#000000" d="M165.05441 325.13934L161.47629 325.13934L160.67941 327.37372L159.52316 327.37372L162.77316 318.84247L163.75754 318.84247L167.02316 327.37372L165.86691 327.37372L165.05441 325.13934ZM161.82004 324.21747L164.72629 324.21747L163.27316 320.2331L161.82004 324.21747ZM171.24191 321.99872Q170.99191 321.96747 170.71066 321.96747Q169.63254 321.96747 169.25754 322.87372L169.25754 327.37372L168.17941 327.37372L168.17941 321.02997L169.22629 321.02997L169.24191 321.76434Q169.77316 320.9206 170.75754 320.9206Q171.07004 320.9206 171.24191 320.99872L171.24191 321.99872ZM173.64816 319.49872L173.64816 321.02997L174.82004 321.02997L174.82004 321.87372L173.64816 321.87372L173.64816 325.7956Q173.64816 326.18622 173.80441 326.37372Q173.96066 326.56122 174.33566 326.56122Q174.52316 326.56122 174.85129 326.49872L174.85129 327.37372Q174.42941 327.49872 174.02316 327.49872Q173.30441 327.49872 172.92941 327.06122Q172.55441 326.6081 172.55441 325.7956L172.55441 321.87372L171.39816 321.87372L171.39816 321.02997L172.55441 321.02997L172.55441 319.49872L173.64816 319.49872ZM185.64816 326.24872Q185.21066 326.87372 184.42941 327.18622Q183.64816 327.49872 182.61691 327.49872Q181.58566 327.49872 180.77316 327.01434Q179.96066 326.51434 179.52316 325.6081Q179.08566 324.70184 179.07004 323.51434L179.07004 322.77997Q179.07004 320.84247 179.96066 319.77997Q180.86691 318.71747 182.49191 318.71747Q183.83566 318.71747 184.64816 319.40497Q185.46066 320.09247 185.64816 321.34247L184.52316 321.34247Q184.19504 319.65497 182.50754 319.65497Q181.36691 319.65497 180.78879 320.45184Q180.21066 321.2331 180.19504 322.74872L180.19504 323.43622Q180.19504 324.87372 180.85129 325.7331Q181.50754 326.57684 182.63254 326.57684Q183.25754 326.57684 183.72629 326.43622Q184.21066 326.2956 184.52316 325.95184L184.52316 324.0456L182.55441 324.0456L182.55441 323.12372L185.64816 323.12372L185.64816 326.24872ZM191.08566 327.37372Q190.99191 327.18622 190.92941 326.70184Q190.17941 327.49872 189.13254 327.49872Q188.19504 327.49872 187.58566 326.96747Q186.99191 326.43622 186.99191 325.6081Q186.99191 324.62372 187.74191 324.07684Q188.49191 323.52997 189.86691 323.52997L190.91379 323.52997L190.91379 323.02997Q190.91379 322.46747 190.57004 322.13934Q190.24191 321.7956 189.57004 321.7956Q188.99191 321.7956 188.60129 322.09247Q188.21066 322.37372 188.21066 322.7956L187.11691 322.7956Q187.11691 322.31122 187.44504 321.87372Q187.78879 321.43622 188.36691 321.18622Q188.94504 320.9206 189.63254 320.9206Q190.74191 320.9206 191.35129 321.46747Q191.97629 322.01434 192.00754 322.96747L192.00754 325.88934Q192.00754 326.76434 192.22629 327.27997L192.22629 327.37372L191.08566 327.37372ZM189.28879 326.5456Q189.80441 326.5456 190.25754 326.27997Q190.71066 326.01434 190.91379 325.59247L190.91379 324.2956L190.07004 324.2956Q188.07004 324.2956 188.07004 325.46747Q188.07004 325.96747 188.41379 326.26434Q188.75754 326.5456 189.28879 326.5456ZM195.35129 327.37372L194.27316 327.37372L194.27316 318.37372L195.35129 318.37372L195.35129 327.37372ZM198.35129 327.37372L197.27316 327.37372L197.27316 318.37372L198.35129 318.37372L198.35129 327.37372ZM202.80441 327.49872Q201.50754 327.49872 200.69504 326.65497Q199.89816 325.7956 199.89816 324.37372L199.89816 324.18622Q199.89816 323.2331 200.25754 322.49872Q200.61691 321.74872 201.25754 321.34247Q201.91379 320.9206 202.66379 320.9206Q203.89816 320.9206 204.58566 321.7331Q205.27316 322.5456 205.27316 324.06122L205.27316 324.51434L200.97629 324.51434Q201.00754 325.45184 201.52316 326.02997Q202.05441 326.6081 202.86691 326.6081Q203.42941 326.6081 203.82004 326.37372Q204.22629 326.13934 204.53879 325.74872L205.19504 326.26434Q204.39816 327.49872 202.80441 327.49872ZM202.66379 321.81122Q202.00754 321.81122 201.55441 322.2956Q201.11691 322.76434 201.02316 323.62372L204.19504 323.62372L204.19504 323.5456Q204.14816 322.71747 203.74191 322.26434Q203.35129 321.81122 202.66379 321.81122ZM209.24191 321.99872Q208.99191 321.96747 208.71066 321.96747Q207.63254 321.96747 207.25754 322.87372L207.25754 327.37372L206.17941 327.37372L206.17941 321.02997L207.22629 321.02997L207.24191 321.76434Q207.77316 320.9206 208.75754 320.9206Q209.07004 320.9206 209.24191 320.99872L209.24191 321.99872ZM211.35129 327.37372L210.27316 327.37372L210.27316 321.02997L211.35129 321.02997L211.35129 327.37372ZM210.17941 319.3581Q210.17941 319.09247 210.33566 318.90497Q210.50754 318.71747 210.82004 318.71747Q211.13254 318.71747 211.28879 318.90497Q211.46066 319.09247 211.46066 319.3581Q211.46066 319.6081 211.28879 319.7956Q211.13254 319.96747 210.82004 319.96747Q210.50754 319.96747 210.33566 319.7956Q210.17941 319.6081 210.17941 319.3581ZM215.80441 327.49872Q214.50754 327.49872 213.69504 326.65497Q212.89816 325.7956 212.89816 324.37372L212.89816 324.18622Q212.89816 323.2331 213.25754 322.49872Q213.61691 321.74872 214.25754 321.34247Q214.91379 320.9206 215.66379 320.9206Q216.89816 320.9206 217.58566 321.7331Q218.27316 322.5456 218.27316 324.06122L218.27316 324.51434L213.97629 324.51434Q214.00754 325.45184 214.52316 326.02997Q215.05441 326.6081 215.86691 326.6081Q216.42941 326.6081 216.82004 326.37372Q217.22629 326.13934 217.53879 325.74872L218.19504 326.26434Q217.39816 327.49872 215.80441 327.49872ZM215.66379 321.81122Q215.00754 321.81122 214.55441 322.2956Q214.11691 322.76434 214.02316 323.62372L217.19504 323.62372L217.19504 323.5456Q217.14816 322.71747 216.74191 322.26434Q216.35129 321.81122 215.66379 321.81122ZM222.86691 325.68622Q222.86691 325.24872 222.52316 325.01434Q222.19504 324.76434 221.36691 324.59247Q220.55441 324.4206 220.07004 324.1706Q219.58566 323.9206 219.35129 323.59247Q219.13254 323.24872 219.13254 322.77997Q219.13254 321.99872 219.78879 321.46747Q220.44504 320.9206 221.47629 320.9206Q222.55441 320.9206 223.21066 321.4831Q223.88254 322.02997 223.88254 322.88934L222.80441 322.88934Q222.80441 322.45184 222.41379 322.13934Q222.03879 321.81122 221.47629 321.81122Q220.88254 321.81122 220.53879 322.07684Q220.21066 322.32684 220.21066 322.7331Q220.21066 323.12372 220.52316 323.32684Q220.83566 323.52997 221.64816 323.71747Q222.46066 323.88934 222.96066 324.13934Q223.46066 324.38934 223.69504 324.74872Q223.94504 325.1081 223.94504 325.6081Q223.94504 326.46747 223.25754 326.9831Q222.58566 327.49872 221.50754 327.49872Q220.74191 327.49872 220.14816 327.2331Q219.57004 326.95184 219.24191 326.46747Q218.91379 325.9831 218.91379 325.4206L219.99191 325.4206Q220.02316 325.96747 220.42941 326.2956Q220.83566 326.6081 221.50754 326.6081Q222.11691 326.6081 222.49191 326.3581Q222.86691 326.1081 222.86691 325.68622Z" fill-rule="nonzero"/><path fill="#000000" d="M234.77888 324.02997L234.77888 327.37372L233.65388 327.37372L233.65388 318.84247L236.81013 318.84247Q238.20076 318.84247 238.99763 319.56122Q239.79451 320.26434 239.79451 321.45184Q239.79451 322.68622 239.01326 323.3581Q238.24763 324.02997 236.79451 324.02997L234.77888 324.02997ZM234.77888 323.1081L236.81013 323.1081Q237.71638 323.1081 238.18513 322.68622Q238.66951 322.26434 238.66951 321.46747Q238.66951 320.70184 238.18513 320.24872Q237.71638 319.77997 236.87263 319.76434L234.77888 319.76434L234.77888 323.1081ZM244.12263 327.49872Q242.82576 327.49872 242.01326 326.65497Q241.21638 325.7956 241.21638 324.37372L241.21638 324.18622Q241.21638 323.2331 241.57576 322.49872Q241.93513 321.74872 242.57576 321.34247Q243.23201 320.9206 243.98201 320.9206Q245.21638 320.9206 245.90388 321.7331Q246.59138 322.5456 246.59138 324.06122L246.59138 324.51434L242.29451 324.51434Q242.32576 325.45184 242.84138 326.02997Q243.37263 326.6081 244.18513 326.6081Q244.74763 326.6081 245.13826 326.37372Q245.54451 326.13934 245.85701 325.74872L246.51326 326.26434Q245.71638 327.49872 244.12263 327.49872ZM243.98201 321.81122Q243.32576 321.81122 242.87263 322.2956Q242.43513 322.76434 242.34138 323.62372L245.51326 323.62372L245.51326 323.5456Q245.46638 322.71747 245.06013 322.26434Q244.66951 321.81122 243.98201 321.81122ZM250.56013 321.99872Q250.31013 321.96747 250.02888 321.96747Q248.95076 321.96747 248.57576 322.87372L248.57576 327.37372L247.49763 327.37372L247.49763 321.02997L248.54451 321.02997L248.56013 321.76434Q249.09138 320.9206 250.07576 320.9206Q250.38826 320.9206 250.56013 320.99872L250.56013 321.99872ZM255.18513 325.68622Q255.18513 325.24872 254.84138 325.01434Q254.51326 324.76434 253.68513 324.59247Q252.87263 324.4206 252.38826 324.1706Q251.90388 323.9206 251.66951 323.59247Q251.45076 323.24872 251.45076 322.77997Q251.45076 321.99872 252.10701 321.46747Q252.76326 320.9206 253.79451 320.9206Q254.87263 320.9206 255.52888 321.4831Q256.20074 322.02997 256.20074 322.88934L255.12263 322.88934Q255.12263 322.45184 254.73201 322.13934Q254.35701 321.81122 253.79451 321.81122Q253.20076 321.81122 252.85701 322.07684Q252.52888 322.32684 252.52888 322.7331Q252.52888 323.12372 252.84138 323.32684Q253.15388 323.52997 253.96638 323.71747Q254.77888 323.88934 255.27888 324.13934Q255.77888 324.38934 256.01324 324.74872Q256.26324 325.1081 256.26324 325.6081Q256.26324 326.46747 255.57576 326.9831Q254.90388 327.49872 253.82576 327.49872Q253.06013 327.49872 252.46638 327.2331Q251.88826 326.95184 251.56013 326.46747Q251.23201 325.9831 251.23201 325.4206L252.31013 325.4206Q252.34138 325.96747 252.74763 326.2956Q253.15388 326.6081 253.82576 326.6081Q254.43513 326.6081 254.81013 326.3581Q255.18513 326.1081 255.18513 325.68622ZM257.20074 324.13934Q257.20074 323.21747 257.56012 322.46747Q257.93512 321.71747 258.59137 321.32684Q259.24762 320.9206 260.07574 320.9206Q261.37262 320.9206 262.1695 321.81122Q262.982 322.70184 262.982 324.20184L262.982 324.27997Q262.982 325.20184 262.62262 325.93622Q262.26324 326.6706 261.607 327.09247Q260.95074 327.49872 260.09137 327.49872Q258.81012 327.49872 257.99762 326.6081Q257.20074 325.70184 257.20074 324.21747L257.20074 324.13934ZM258.2945 324.27997Q258.2945 325.32684 258.77887 325.96747Q259.27887 326.6081 260.09137 326.6081Q260.9195 326.6081 261.40387 325.96747Q261.88824 325.31122 261.88824 324.13934Q261.88824 323.1081 261.38824 322.46747Q260.90387 321.81122 260.07574 321.81122Q259.27887 321.81122 258.77887 322.45184Q258.2945 323.07684 258.2945 324.27997ZM265.51324 321.02997L265.5445 321.82684Q266.27887 320.9206 267.45074 320.9206Q269.46637 320.9206 269.482 323.18622L269.482 327.37372L268.38824 327.37372L268.38824 323.1706Q268.38824 322.49872 268.07574 322.1706Q267.77887 321.84247 267.12262 321.84247Q266.59137 321.84247 266.18512 322.12372Q265.7945 322.40497 265.57574 322.8581L265.57574 327.37372L264.49762 327.37372L264.49762 321.02997L265.51324 321.02997ZM275.40387 327.37372Q275.31012 327.18622 275.24762 326.70184Q274.49762 327.49872 273.45074 327.49872Q272.51324 327.49872 271.90387 326.96747Q271.31012 326.43622 271.31012 325.6081Q271.31012 324.62372 272.06012 324.07684Q272.81012 323.52997 274.18512 323.52997L275.232 323.52997L275.232 323.02997Q275.232 322.46747 274.88824 322.13934Q274.56012 321.7956 273.88824 321.7956Q273.31012 321.7956 272.9195 322.09247Q272.52887 322.37372 272.52887 322.7956L271.43512 322.7956Q271.43512 322.31122 271.76324 321.87372Q272.107 321.43622 272.68512 321.18622Q273.26324 320.9206 273.95074 320.9206Q275.06012 320.9206 275.6695 321.46747Q276.2945 322.01434 276.32574 322.96747L276.32574 325.88934Q276.32574 326.76434 276.5445 327.27997L276.5445 327.37372L275.40387 327.37372ZM273.607 326.5456Q274.12262 326.5456 274.57574 326.27997Q275.02887 326.01434 275.232 325.59247L275.232 324.2956L274.38824 324.2956Q272.38824 324.2956 272.38824 325.46747Q272.38824 325.96747 272.732 326.26434Q273.07574 326.5456 273.607 326.5456ZM279.6695 327.37372L278.59137 327.37372L278.59137 318.37372L279.6695 318.37372L279.6695 327.37372ZM286.49762 324.68622L286.6695 325.81122L286.90387 324.7956L288.59137 318.84247L289.5445 318.84247L291.18512 324.7956L291.4195 325.82684L291.607 324.6706L292.93512 318.84247L294.06012 318.84247L291.99762 327.37372L290.96637 327.37372L289.20074 321.15497L289.07574 320.49872L288.93512 321.15497L287.12262 327.37372L286.09137 327.37372L284.02887 318.84247L285.15387 318.84247L286.49762 324.68622ZM298.12262 327.49872Q296.82574 327.49872 296.01324 326.65497Q295.21637 325.7956 295.21637 324.37372L295.21637 324.18622Q295.21637 323.2331 295.57574 322.49872Q295.93512 321.74872 296.57574 321.34247Q297.232 320.9206 297.982 320.9206Q299.21637 320.9206 299.90387 321.7331Q300.59137 322.5456 300.59137 324.06122L300.59137 324.51434L296.2945 324.51434Q296.32574 325.45184 296.84137 326.02997Q297.37262 326.6081 298.18512 326.6081Q298.74762 326.6081 299.13824 326.37372Q299.5445 326.13934 299.857 325.74872L300.51324 326.26434Q299.71637 327.49872 298.12262 327.49872ZM297.982 321.81122Q297.32574 321.81122 296.87262 322.2956Q296.43512 322.76434 296.34137 323.62372L299.51324 323.62372L299.51324 323.5456Q299.46637 322.71747 299.06012 322.26434Q298.6695 321.81122 297.982 321.81122ZM306.857 324.27997Q306.857 325.7331 306.18512 326.62372Q305.52887 327.49872 304.40387 327.49872Q303.20074 327.49872 302.5445 326.63934L302.482 327.37372L301.49762 327.37372L301.49762 318.37372L302.57574 318.37372L302.57574 321.7331Q303.232 320.9206 304.38824 320.9206Q305.5445 320.9206 306.20074 321.7956Q306.857 322.65497 306.857 324.18622L306.857 324.27997ZM305.77887 324.15497Q305.77887 323.0456 305.34137 322.45184Q304.9195 321.84247 304.12262 321.84247Q303.0445 321.84247 302.57574 322.82684L302.57574 325.57684Q303.07574 326.57684 304.12262 326.57684Q304.90387 326.57684 305.34137 325.96747Q305.77887 325.3581 305.77887 324.15497ZM312.18512 325.68622Q312.18512 325.24872 311.84137 325.01434Q311.51324 324.76434 310.68512 324.59247Q309.87262 324.4206 309.38824 324.1706Q308.90387 323.9206 308.6695 323.59247Q308.45074 323.24872 308.45074 322.77997Q308.45074 321.99872 309.107 321.46747Q309.76324 320.9206 310.7945 320.9206Q311.87262 320.9206 312.52887 321.4831Q313.20074 322.02997 313.20074 322.88934L312.12262 322.88934Q312.12262 322.45184 311.732 322.13934Q311.357 321.81122 310.7945 321.81122Q310.20074 321.81122 309.857 322.07684Q309.52887 322.32684 309.52887 322.7331Q309.52887 323.12372 309.84137 323.32684Q310.15387 323.52997 310.96637 323.71747Q311.77887 323.88934 312.27887 324.13934Q312.77887 324.38934 313.01324 324.74872Q313.26324 325.1081 313.26324 325.6081Q313.26324 326.46747 312.57574 326.9831Q311.90387 327.49872 310.82574 327.49872Q310.06012 327.49872 309.46637 327.2331Q308.88824 326.95184 308.56012 326.46747Q308.232 325.9831 308.232 325.4206L309.31012 325.4206Q309.34137 325.96747 309.74762 326.2956Q310.15387 326.6081 310.82574 326.6081Q311.43512 326.6081 311.81012 326.3581Q312.18512 326.1081 312.18512 325.68622ZM315.6695 327.37372L314.59137 327.37372L314.59137 321.02997L315.6695 321.02997L315.6695 327.37372ZM314.49762 319.3581Q314.49762 319.09247 314.65387 318.90497Q314.82574 318.71747 315.13824 318.71747Q315.45074 318.71747 315.607 318.90497Q315.77887 319.09247 315.77887 319.3581Q315.77887 319.6081 315.607 319.7956Q315.45074 319.96747 315.13824 319.96747Q314.82574 319.96747 314.65387 319.7956Q314.49762 319.6081 314.49762 319.3581ZM318.96637 319.49872L318.96637 321.02997L320.13824 321.02997L320.13824 321.87372L318.96637 321.87372L318.96637 325.7956Q318.96637 326.18622 319.12262 326.37372Q319.27887 326.56122 319.65387 326.56122Q319.84137 326.56122 320.1695 326.49872L320.1695 327.37372Q319.74762 327.49872 319.34137 327.49872Q318.62262 327.49872 318.24762 327.06122Q317.87262 326.6081 317.87262 325.7956L317.87262 321.87372L316.71637 321.87372L316.71637 321.02997L317.87262 321.02997L317.87262 319.49872L318.96637 319.49872ZM324.12262 327.49872Q322.82574 327.49872 322.01324 326.65497Q321.21637 325.7956 321.21637 324.37372L321.21637 324.18622Q321.21637 323.2331 321.57574 322.49872Q321.93512 321.74872 322.57574 321.34247Q323.232 320.9206 323.982 320.9206Q325.21637 320.9206 325.90387 321.7331Q326.59137 322.5456 326.59137 324.06122L326.59137 324.51434L322.2945 324.51434Q322.32574 325.45184 322.84137 326.02997Q323.37262 326.6081 324.18512 326.6081Q324.74762 326.6081 325.13824 326.37372Q325.5445 326.13934 325.857 325.74872L326.51324 326.26434Q325.71637 327.49872 324.12262 327.49872ZM323.982 321.81122Q323.32574 321.81122 322.87262 322.2956Q322.43512 322.76434 322.34137 323.62372L325.51324 323.62372L325.51324 323.5456Q325.46637 322.71747 325.06012 322.26434Q324.6695 321.81122 323.982 321.81122Z" fill-rule="nonzero"/><path fill="#000000" d="M350.19086 325.13934L346.61273 325.13934L345.81586 327.37372L344.6596 327.37372L347.9096 318.84247L348.89398 318.84247L352.1596 327.37372L351.00336 327.37372L350.19086 325.13934ZM346.95648 324.21747L349.86273 324.21747L348.4096 320.2331L346.95648 324.21747ZM356.37836 321.99872Q356.12836 321.96747 355.8471 321.96747Q354.76898 321.96747 354.39398 322.87372L354.39398 327.37372L353.31586 327.37372L353.31586 321.02997L354.36273 321.02997L354.37836 321.76434Q354.9096 320.9206 355.89398 320.9206Q356.20648 320.9206 356.37836 320.99872L356.37836 321.99872ZM358.7846 319.49872L358.7846 321.02997L359.95648 321.02997L359.95648 321.87372L358.7846 321.87372L358.7846 325.7956Q358.7846 326.18622 358.94086 326.37372Q359.0971 326.56122 359.4721 326.56122Q359.6596 326.56122 359.98773 326.49872L359.98773 327.37372Q359.56586 327.49872 359.1596 327.49872Q358.44086 327.49872 358.06586 327.06122Q357.69086 326.6081 357.69086 325.7956L357.69086 321.87372L356.5346 321.87372L356.5346 321.02997L357.69086 321.02997L357.69086 319.49872L358.7846 319.49872ZM369.19086 323.6081L365.5971 323.6081L365.5971 327.37372L364.4721 327.37372L364.4721 318.84247L369.76898 318.84247L369.76898 319.76434L365.5971 319.76434L365.5971 322.68622L369.19086 322.68622L369.19086 323.6081ZM375.2221 327.37372Q375.12836 327.18622 375.06586 326.70184Q374.31586 327.49872 373.26898 327.49872Q372.33148 327.49872 371.7221 326.96747Q371.12836 326.43622 371.12836 325.6081Q371.12836 324.62372 371.87836 324.07684Q372.62836 323.52997 374.00336 323.52997L375.05023 323.52997L375.05023 323.02997Q375.05023 322.46747 374.70648 322.13934Q374.37836 321.7956 373.70648 321.7956Q373.12836 321.7956 372.73773 322.09247Q372.3471 322.37372 372.3471 322.7956L371.25336 322.7956Q371.25336 322.31122 371.58148 321.87372Q371.92523 321.43622 372.50336 321.18622Q373.08148 320.9206 373.76898 320.9206Q374.87836 320.9206 375.48773 321.46747Q376.11273 322.01434 376.14398 322.96747L376.14398 325.88934Q376.14398 326.76434 376.36273 327.27997L376.36273 327.37372L375.2221 327.37372ZM373.42523 326.5456Q373.94086 326.5456 374.39398 326.27997Q374.8471 326.01434 375.05023 325.59247L375.05023 324.2956L374.20648 324.2956Q372.20648 324.2956 372.20648 325.46747Q372.20648 325.96747 372.55023 326.26434Q372.89398 326.5456 373.42523 326.5456ZM379.48773 327.37372L378.4096 327.37372L378.4096 321.02997L379.48773 321.02997L379.48773 327.37372ZM378.31586 319.3581Q378.31586 319.09247 378.4721 318.90497Q378.64398 318.71747 378.95648 318.71747Q379.26898 318.71747 379.42523 318.90497Q379.5971 319.09247 379.5971 319.3581Q379.5971 319.6081 379.42523 319.7956Q379.26898 319.96747 378.95648 319.96747Q378.64398 319.96747 378.4721 319.7956Q378.31586 319.6081 378.31586 319.3581ZM384.37836 321.99872Q384.12836 321.96747 383.8471 321.96747Q382.76898 321.96747 382.39398 322.87372L382.39398 327.37372L381.31586 327.37372L381.31586 321.02997L382.36273 321.02997L382.37836 321.76434Q382.9096 320.9206 383.89398 320.9206Q384.20648 320.9206 384.37836 320.99872L384.37836 321.99872ZM389.00336 325.68622Q389.00336 325.24872 388.6596 325.01434Q388.33148 324.76434 387.50336 324.59247Q386.69086 324.4206 386.20648 324.1706Q385.7221 323.9206 385.48773 323.59247Q385.26898 323.24872 385.26898 322.77997Q385.26898 321.99872 385.92523 321.46747Q386.58148 320.9206 387.61273 320.9206Q388.69086 320.9206 389.3471 321.4831Q390.01898 322.02997 390.01898 322.88934L388.94086 322.88934Q388.94086 322.45184 388.55023 322.13934Q388.17523 321.81122 387.61273 321.81122Q387.01898 321.81122 386.67523 322.07684Q386.3471 322.32684 386.3471 322.7331Q386.3471 323.12372 386.6596 323.32684Q386.9721 323.52997 387.7846 323.71747Q388.5971 323.88934 389.0971 324.13934Q389.5971 324.38934 389.83148 324.74872Q390.08148 325.1081 390.08148 325.6081Q390.08148 326.46747 389.39398 326.9831Q388.7221 327.49872 387.64398 327.49872Q386.87836 327.49872 386.2846 327.2331Q385.70648 326.95184 385.37836 326.46747Q385.05023 325.9831 385.05023 325.4206L386.12836 325.4206Q386.1596 325.96747 386.56586 326.2956Q386.9721 326.6081 387.64398 326.6081Q388.25336 326.6081 388.62836 326.3581Q389.00336 326.1081 389.00336 325.68622Z" fill-rule="nonzero"/><path fill="#000000" d="M436.43094 323.9206L434.4153 323.9206L434.4153 327.37372L433.2903 327.37372L433.2903 318.84247L436.11844 318.84247Q437.55594 318.84247 438.32156 319.49872Q439.1028 320.15497 439.1028 321.40497Q439.1028 322.20184 438.6653 322.7956Q438.24344 323.38934 437.4778 323.68622L439.4778 327.2956L439.4778 327.37372L438.2747 327.37372L436.43094 323.9206ZM434.4153 322.99872L436.1497 322.99872Q436.99344 322.99872 437.4778 322.57684Q437.9778 322.13934 437.9778 321.40497Q437.9778 320.62372 437.50906 320.20184Q437.0403 319.77997 436.1497 319.76434L434.4153 319.76434L434.4153 322.99872ZM442.75906 327.49872Q441.4622 327.49872 440.6497 326.65497Q439.8528 325.7956 439.8528 324.37372L439.8528 324.18622Q439.8528 323.2331 440.2122 322.49872Q440.57156 321.74872 441.2122 321.34247Q441.86844 320.9206 442.61844 320.9206Q443.8528 320.9206 444.5403 321.7331Q445.2278 322.5456 445.2278 324.06122L445.2278 324.51434L440.93094 324.51434Q440.9622 325.45184 441.4778 326.02997Q442.00906 326.6081 442.82156 326.6081Q443.38406 326.6081 443.7747 326.37372Q444.18094 326.13934 444.49344 325.74872L445.1497 326.26434Q444.3528 327.49872 442.75906 327.49872ZM442.61844 321.81122Q441.9622 321.81122 441.50906 322.2956Q441.07156 322.76434 440.9778 323.62372L444.1497 323.62372L444.1497 323.5456Q444.1028 322.71747 443.69656 322.26434Q443.30594 321.81122 442.61844 321.81122ZM447.6028 319.49872L447.6028 321.02997L448.7747 321.02997L448.7747 321.87372L447.6028 321.87372L447.6028 325.7956Q447.6028 326.18622 447.75906 326.37372Q447.9153 326.56122 448.2903 326.56122Q448.4778 326.56122 448.80594 326.49872L448.80594 327.37372Q448.38406 327.49872 447.9778 327.49872Q447.25906 327.49872 446.88406 327.06122Q446.50906 326.6081 446.50906 325.7956L446.50906 321.87372L445.3528 321.87372L445.3528 321.02997L446.50906 321.02997L446.50906 319.49872L447.6028 319.49872ZM454.0403 327.37372Q453.94656 327.18622 453.88406 326.70184Q453.13406 327.49872 452.0872 327.49872Q451.1497 327.49872 450.5403 326.96747Q449.94656 326.43622 449.94656 325.6081Q449.94656 324.62372 450.69656 324.07684Q451.44656 323.52997 452.82156 323.52997L453.86844 323.52997L453.86844 323.02997Q453.86844 322.46747 453.5247 322.13934Q453.19656 321.7956 452.5247 321.7956Q451.94656 321.7956 451.55594 322.09247Q451.1653 322.37372 451.1653 322.7956L450.07156 322.7956Q450.07156 322.31122 450.3997 321.87372Q450.74344 321.43622 451.32156 321.18622Q451.8997 320.9206 452.5872 320.9206Q453.69656 320.9206 454.30594 321.46747Q454.93094 322.01434 454.9622 322.96747L454.9622 325.88934Q454.9622 326.76434 455.18094 327.27997L455.18094 327.37372L454.0403 327.37372ZM452.24344 326.5456Q452.75906 326.5456 453.2122 326.27997Q453.6653 326.01434 453.86844 325.59247L453.86844 324.2956L453.0247 324.2956Q451.0247 324.2956 451.0247 325.46747Q451.0247 325.96747 451.36844 326.26434Q451.7122 326.5456 452.24344 326.5456ZM458.30594 327.37372L457.2278 327.37372L457.2278 321.02997L458.30594 321.02997L458.30594 327.37372ZM457.13406 319.3581Q457.13406 319.09247 457.2903 318.90497Q457.4622 318.71747 457.7747 318.71747Q458.0872 318.71747 458.24344 318.90497Q458.4153 319.09247 458.4153 319.3581Q458.4153 319.6081 458.24344 319.7956Q458.0872 319.96747 457.7747 319.96747Q457.4622 319.96747 457.2903 319.7956Q457.13406 319.6081 457.13406 319.3581ZM461.30594 327.37372L460.2278 327.37372L460.2278 318.37372L461.30594 318.37372L461.30594 327.37372ZM465.75906 327.49872Q464.4622 327.49872 463.6497 326.65497Q462.8528 325.7956 462.8528 324.37372L462.8528 324.18622Q462.8528 323.2331 463.2122 322.49872Q463.57156 321.74872 464.2122 321.34247Q464.86844 320.9206 465.61844 320.9206Q466.8528 320.9206 467.5403 321.7331Q468.2278 322.5456 468.2278 324.06122L468.2278 324.51434L463.93094 324.51434Q463.9622 325.45184 464.4778 326.02997Q465.00906 326.6081 465.82156 326.6081Q466.38406 326.6081 466.7747 326.37372Q467.18094 326.13934 467.49344 325.74872L468.1497 326.26434Q467.3528 327.49872 465.75906 327.49872ZM465.61844 321.81122Q464.9622 321.81122 464.50906 322.2956Q464.07156 322.76434 463.9778 323.62372L467.1497 323.62372L467.1497 323.5456Q467.1028 322.71747 466.69656 322.26434Q466.30594 321.81122 465.61844 321.81122ZM472.19656 321.99872Q471.94656 321.96747 471.6653 321.96747Q470.5872 321.96747 470.2122 322.87372L470.2122 327.37372L469.13406 327.37372L469.13406 321.02997L470.18094 321.02997L470.19656 321.76434Q470.7278 320.9206 471.7122 320.9206Q472.0247 320.9206 472.19656 320.99872L472.19656 321.99872ZM476.82156 325.68622Q476.82156 325.24872 476.4778 325.01434Q476.1497 324.76434 475.32156 324.59247Q474.50906 324.4206 474.0247 324.1706Q473.5403 323.9206 473.30594 323.59247Q473.0872 323.24872 473.0872 322.77997Q473.0872 321.99872 473.74344 321.46747Q474.3997 320.9206 475.43094 320.9206Q476.50906 320.9206 477.1653 321.4831Q477.8372 322.02997 477.8372 322.88934L476.75906 322.88934Q476.75906 322.45184 476.36844 322.13934Q475.99344 321.81122 475.43094 321.81122Q474.8372 321.81122 474.49344 322.07684Q474.1653 322.32684 474.1653 322.7331Q474.1653 323.12372 474.4778 323.32684Q474.7903 323.52997 475.6028 323.71747Q476.4153 323.88934 476.9153 324.13934Q477.4153 324.38934 477.6497 324.74872Q477.8997 325.1081 477.8997 325.6081Q477.8997 326.46747 477.2122 326.9831Q476.5403 327.49872 475.4622 327.49872Q474.69656 327.49872 474.1028 327.2331Q473.5247 326.95184 473.19656 326.46747Q472.86844 325.9831 472.86844 325.4206L473.94656 325.4206Q473.9778 325.96747 474.38406 326.2956Q474.7903 326.6081 475.4622 326.6081Q476.07156 326.6081 476.44656 326.3581Q476.82156 326.1081 476.82156 325.68622Z" fill-rule="nonzero"/><path fill="#757575" d="M140.08418 38.930862L137.74043 38.930862L137.74043 34.055862L133.16231 34.055862L133.16231 38.930862L130.81856 38.930862L130.81856 27.555862L133.16231 27.555862L133.16231 32.165237L137.74043 32.165237L137.74043 27.555862L140.08418 27.555862L140.08418 38.930862ZM141.31856 34.618362Q141.31856 33.368362 141.80293 32.383987Q142.28731 31.399612 143.19356 30.868362Q144.11543 30.321487 145.31856 30.321487Q147.02168 30.321487 148.09981 31.368362Q149.19356 32.415237 149.31856 34.212112L149.33418 34.790237Q149.33418 36.727737 148.24043 37.915237Q147.16231 39.087112 145.33418 39.087112Q143.50606 39.087112 142.41231 37.915237Q141.31856 36.743362 141.31856 34.727737L141.31856 34.618362ZM143.58418 34.790237Q143.58418 35.993362 144.03731 36.633987Q144.49043 37.258987 145.33418 37.258987Q146.14668 37.258987 146.59981 36.633987Q147.06856 36.008987 147.06856 34.618362Q147.06856 33.446487 146.59981 32.805862Q146.14668 32.149612 145.31856 32.149612Q144.49043 32.149612 144.03731 32.790237Q143.58418 33.430862 143.58418 34.790237ZM158.02168 35.852737L159.13106 30.477737L161.31856 30.477737L159.16231 38.930862L157.27168 38.930862L155.66231 33.602737L154.06856 38.930862L152.17793 38.930862L150.02168 30.477737L152.20918 30.477737L153.30293 35.852737L154.84981 30.477737L156.49043 30.477737L158.02168 35.852737ZM166.31856 34.633987Q166.31856 32.665237 167.20918 31.493362Q168.09981 30.321487 169.63106 30.321487Q170.86543 30.321487 171.67793 31.243362L171.67793 26.930862L173.94356 26.930862L173.94356 38.930862L171.89668 38.930862L171.78731 38.024612Q170.94356 39.087112 169.61543 39.087112Q168.13106 39.087112 167.22481 37.915237Q166.31856 36.727737 166.31856 34.633987ZM168.58418 34.805862Q168.58418 35.993362 168.99043 36.633987Q169.41231 37.258987 170.19356 37.258987Q171.24043 37.258987 171.67793 36.368362L171.67793 33.040237Q171.25606 32.149612 170.20918 32.149612Q168.58418 32.149612 168.58418 34.805862ZM175.31856 34.618362Q175.31856 33.368362 175.80293 32.383987Q176.28731 31.399612 177.19356 30.868362Q178.11543 30.321487 179.31856 30.321487Q181.02168 30.321487 182.09981 31.368362Q183.19356 32.415237 183.31856 34.212112L183.33418 34.790237Q183.33418 36.727737 182.24043 37.915237Q181.16231 39.087112 179.33418 39.087112Q177.50606 39.087112 176.41231 37.915237Q175.31856 36.743362 175.31856 34.727737L175.31856 34.618362ZM177.58418 34.790237Q177.58418 35.993362 178.03731 36.633987Q178.49043 37.258987 179.33418 37.258987Q180.14668 37.258987 180.59981 36.633987Q181.06856 36.008987 181.06856 34.618362Q181.06856 33.446487 180.59981 32.805862Q180.14668 32.149612 179.31856 32.149612Q178.49043 32.149612 178.03731 32.790237Q177.58418 33.430862 177.58418 34.790237ZM191.83418 35.727737L193.39668 30.477737L195.81856 30.477737L192.41231 40.243362L192.22481 40.696487Q191.47481 42.352737 189.72481 42.352737Q189.24043 42.352737 188.72481 42.196487L188.72481 40.493362L189.06856 40.493362Q189.70918 40.493362 190.02168 40.290237Q190.34981 40.102737 190.52168 39.649612L190.78731 38.962112L187.83418 30.477737L190.25606 30.477737L191.83418 35.727737ZM196.31856 34.618362Q196.31856 33.368362 196.80293 32.383987Q197.28731 31.399612 198.19356 30.868362Q199.11543 30.321487 200.31856 30.321487Q202.02168 30.321487 203.09981 31.368362Q204.19356 32.415237 204.31856 34.212112L204.33418 34.790237Q204.33418 36.727737 203.24043 37.915237Q202.16231 39.087112 200.33418 39.087112Q198.50606 39.087112 197.41231 37.915237Q196.31856 36.743362 196.31856 34.727737L196.31856 34.618362ZM198.58418 34.790237Q198.58418 35.993362 199.03731 36.633987Q199.49043 37.258987 200.33418 37.258987Q201.14668 37.258987 201.59981 36.633987Q202.06856 36.008987 202.06856 34.618362Q202.06856 33.446487 201.59981 32.805862Q201.14668 32.149612 200.31856 32.149612Q199.49043 32.149612 199.03731 32.790237Q198.58418 33.430862 198.58418 34.790237ZM210.74043 38.071487Q209.89668 39.087112 208.42793 39.087112Q207.06856 39.087112 206.34981 38.305862Q205.63106 37.524612 205.61543 36.008987L205.61543 30.477737L207.88106 30.477737L207.88106 35.930862Q207.88106 37.258987 209.08418 37.258987Q210.22481 37.258987 210.66231 36.462112L210.66231 30.477737L212.92793 30.477737L212.92793 38.930862L210.80293 38.930862L210.74043 38.071487ZM218.31856 34.633987Q218.31856 32.665237 219.20918 31.493362Q220.09981 30.321487 221.63106 30.321487Q222.86543 30.321487 223.67793 31.243362L223.67793 26.930862L225.94356 26.930862L225.94356 38.930862L223.89668 38.930862L223.78731 38.024612Q222.94356 39.087112 221.61543 39.087112Q220.13106 39.087112 219.22481 37.915237Q218.31856 36.727737 218.31856 34.633987ZM220.58418 34.805862Q220.58418 35.993362 220.99043 36.633987Q221.41231 37.258987 222.19356 37.258987Q223.24043 37.258987 223.67793 36.368362L223.67793 33.040237Q223.25606 32.149612 222.20918 32.149612Q220.58418 32.149612 220.58418 34.805862ZM230.05293 38.930862L227.78731 38.930862L227.78731 30.477737L230.05293 30.477737L230.05293 38.930862ZM227.66231 28.290237Q227.66231 27.774612 227.99043 27.446487Q228.33418 27.118362 228.92793 27.118362Q229.50606 27.118362 229.84981 27.446487Q230.19356 27.774612 230.19356 28.290237Q230.19356 28.805862 229.83418 29.133987Q229.49043 29.462112 228.91231 29.462112Q228.34981 29.462112 228.00606 29.133987Q227.66231 28.805862 227.66231 28.290237ZM236.25606 36.587112Q236.25606 36.180862 235.83418 35.946487Q235.42793 35.696487 234.52168 35.508987Q231.50606 34.883987 231.50606 32.946487Q231.50606 31.821487 232.44356 31.071487Q233.38106 30.321487 234.88106 30.321487Q236.49043 30.321487 237.45918 31.087112Q238.42793 31.837112 238.42793 33.040237L236.16231 33.040237Q236.16231 32.555862 235.84981 32.243362Q235.53731 31.930862 234.88106 31.930862Q234.30293 31.930862 233.99043 32.196487Q233.67793 32.446487 233.67793 32.837112Q233.67793 33.212112 234.03731 33.446487Q234.39668 33.680862 235.24043 33.852737Q236.08418 34.008987 236.66231 34.227737Q238.44356 34.883987 238.44356 36.493362Q238.44356 37.649612 237.44356 38.368362Q236.45918 39.087112 234.89668 39.087112Q233.83418 39.087112 233.00606 38.712112Q232.17793 38.321487 231.70918 37.665237Q231.24043 37.008987 231.24043 36.243362L233.38106 36.243362Q233.41231 36.837112 233.81856 37.165237Q234.24043 37.477737 234.94356 37.477737Q235.58418 37.477737 235.91231 37.243362Q236.25606 36.993362 236.25606 36.587112ZM242.38106 28.399612L242.38106 30.477737L243.81856 30.477737L243.81856 32.133987L242.38106 32.133987L242.38106 36.352737Q242.38106 36.821487 242.55293 37.024612Q242.74043 37.227737 243.24043 37.227737Q243.61543 37.227737 243.91231 37.165237L243.91231 38.883987Q243.24043 39.087112 242.53731 39.087112Q240.16231 39.087112 240.11543 36.680862L240.11543 32.133987L238.88106 32.133987L238.88106 30.477737L240.11543 30.477737L240.11543 28.399612L242.38106 28.399612ZM249.42793 32.587112Q248.95918 32.524612 248.61543 32.524612Q247.33418 32.524612 246.92793 33.399612L246.92793 38.930862L244.67793 38.930862L244.67793 30.477737L246.80293 30.477737L246.86543 31.477737Q247.55293 30.321487 248.75606 30.321487Q249.13106 30.321487 249.45918 30.415237L249.42793 32.587112ZM253.05293 38.930862L250.78731 38.930862L250.78731 30.477737L253.05293 30.477737L253.05293 38.930862ZM250.66231 28.290237Q250.66231 27.774612 250.99043 27.446487Q251.33418 27.118362 251.92793 27.118362Q252.50606 27.118362 252.84981 27.446487Q253.19356 27.774612 253.19356 28.290237Q253.19356 28.805862 252.83418 29.133987Q252.49043 29.462112 251.91231 29.462112Q251.34981 29.462112 251.00606 29.133987Q250.66231 28.805862 250.66231 28.290237ZM262.2873 34.774612Q262.2873 36.805862 261.4123 37.946487Q260.55292 39.087112 259.00604 39.087112Q257.63104 39.087112 256.80292 38.024612L256.70917 38.930862L254.67793 38.930862L254.67793 26.930862L256.92792 26.930862L256.92792 31.227737Q257.70917 30.321487 258.99042 30.321487Q260.5373 30.321487 261.4123 31.462112Q262.2873 32.587112 262.2873 34.649612L262.2873 34.774612ZM260.0373 34.618362Q260.0373 33.337112 259.63104 32.743362Q259.2248 32.149612 258.4123 32.149612Q257.33417 32.149612 256.92792 33.040237L256.92792 36.368362Q257.3498 37.258987 258.42792 37.258987Q259.52167 37.258987 259.86542 36.180862Q260.0373 35.665237 260.0373 34.618362ZM268.74042 38.071487Q267.89667 39.087112 266.42792 39.087112Q265.06854 39.087112 264.3498 38.305862Q263.63104 37.524612 263.61542 36.008987L263.61542 30.477737L265.88104 30.477737L265.88104 35.930862Q265.88104 37.258987 267.08417 37.258987Q268.2248 37.258987 268.6623 36.462112L268.6623 30.477737L270.92792 30.477737L270.92792 38.930862L268.80292 38.930862L268.74042 38.071487ZM275.38104 28.399612L275.38104 30.477737L276.81854 30.477737L276.81854 32.133987L275.38104 32.133987L275.38104 36.352737Q275.38104 36.821487 275.55292 37.024612Q275.74042 37.227737 276.24042 37.227737Q276.61542 37.227737 276.9123 37.165237L276.9123 38.883987Q276.24042 39.087112 275.5373 39.087112Q273.1623 39.087112 273.11542 36.680862L273.11542 32.133987L271.88104 32.133987L271.88104 30.477737L273.11542 30.477737L273.11542 28.399612L275.38104 28.399612ZM281.56854 39.087112Q279.70917 39.087112 278.5373 37.946487Q277.36542 36.805862 277.36542 34.899612L277.36542 34.680862Q277.36542 33.415237 277.8498 32.415237Q278.3498 31.399612 279.25604 30.868362Q280.1623 30.321487 281.31854 30.321487Q283.05292 30.321487 284.0373 31.415237Q285.0373 32.508987 285.0373 34.508987L285.0373 35.430862L279.6623 35.430862Q279.77167 36.258987 280.31854 36.758987Q280.86542 37.258987 281.70917 37.258987Q283.02167 37.258987 283.75604 36.321487L284.86542 37.555862Q284.3498 38.274612 283.4748 38.680862Q282.61542 39.087112 281.56854 39.087112ZM281.30292 32.149612Q280.63104 32.149612 280.20917 32.602737Q279.80292 33.055862 279.67792 33.899612L282.81854 33.899612L282.81854 33.712112Q282.80292 32.962112 282.4123 32.555862Q282.02167 32.149612 281.30292 32.149612ZM293.83417 35.727737L295.39667 30.477737L297.81854 30.477737L294.4123 40.243362L294.2248 40.696487Q293.4748 42.352737 291.7248 42.352737Q291.24042 42.352737 290.7248 42.196487L290.7248 40.493362L291.06854 40.493362Q291.70917 40.493362 292.02167 40.290237Q292.3498 40.102737 292.52167 39.649612L292.7873 38.962112L289.83417 30.477737L292.25604 30.477737L293.83417 35.727737ZM298.31854 34.618362Q298.31854 33.368362 298.80292 32.383987Q299.2873 31.399612 300.19354 30.868362Q301.11542 30.321487 302.31854 30.321487Q304.02167 30.321487 305.0998 31.368362Q306.19354 32.415237 306.31854 34.212112L306.33417 34.790237Q306.33417 36.727737 305.24042 37.915237Q304.1623 39.087112 302.33417 39.087112Q300.50604 39.087112 299.4123 37.915237Q298.31854 36.743362 298.31854 34.727737L298.31854 34.618362ZM300.58417 34.790237Q300.58417 35.993362 301.0373 36.633987Q301.49042 37.258987 302.33417 37.258987Q303.14667 37.258987 303.5998 36.633987Q304.06854 36.008987 304.06854 34.618362Q304.06854 33.446487 303.5998 32.805862Q303.14667 32.149612 302.31854 32.149612Q301.49042 32.149612 301.0373 32.790237Q300.58417 33.430862 300.58417 34.790237ZM312.74042 38.071487Q311.89667 39.087112 310.42792 39.087112Q309.06854 39.087112 308.3498 38.305862Q307.63104 37.524612 307.61542 36.008987L307.61542 30.477737L309.88104 30.477737L309.88104 35.930862Q309.88104 37.258987 311.08417 37.258987Q312.2248 37.258987 312.6623 36.462112L312.6623 30.477737L314.92792 30.477737L314.92792 38.930862L312.80292 38.930862L312.74042 38.071487ZM321.42792 32.587112Q320.95917 32.524612 320.61542 32.524612Q319.33417 32.524612 318.92792 33.399612L318.92792 38.930862L316.67792 38.930862L316.67792 30.477737L318.80292 30.477737L318.86542 31.477737Q319.55292 30.321487 320.75604 30.321487Q321.13104 30.321487 321.45917 30.415237L321.42792 32.587112ZM331.56854 38.930862Q331.4123 38.618362 331.3498 38.165237Q330.52167 39.087112 329.20917 39.087112Q327.9748 39.087112 327.14667 38.368362Q326.33417 37.649612 326.33417 36.555862Q326.33417 35.212112 327.33417 34.493362Q328.33417 33.774612 330.20917 33.758987L331.25604 33.758987L331.25604 33.274612Q331.25604 32.696487 330.94354 32.352737Q330.64667 31.993362 330.00604 31.993362Q329.42792 31.993362 329.0998 32.274612Q328.7873 32.540237 328.7873 33.008987L326.52167 33.008987Q326.52167 32.274612 326.9748 31.649612Q327.42792 31.024612 328.25604 30.680862Q329.08417 30.321487 330.11542 30.321487Q331.67792 30.321487 332.5998 31.102737Q333.52167 31.883987 333.52167 33.305862L333.52167 36.977737Q333.52167 38.180862 333.8498 38.790237L333.8498 38.930862L331.56854 38.930862ZM329.70917 37.352737Q330.20917 37.352737 330.63104 37.133987Q331.05292 36.915237 331.25604 36.540237L331.25604 35.087112L330.4123 35.087112Q328.70917 35.087112 328.5998 36.258987L328.5998 36.383987Q328.5998 36.805862 328.89667 37.087112Q329.19354 37.352737 329.70917 37.352737ZM340.42792 32.587112Q339.95917 32.524612 339.61542 32.524612Q338.33417 32.524612 337.92792 33.399612L337.92792 38.930862L335.67792 38.930862L335.67792 30.477737L337.80292 30.477737L337.86542 31.477737Q338.55292 30.321487 339.75604 30.321487Q340.13104 30.321487 340.45917 30.415237L340.42792 32.587112ZM344.38104 28.399612L344.38104 30.477737L345.81854 30.477737L345.81854 32.133987L344.38104 32.133987L344.38104 36.352737Q344.38104 36.821487 344.55292 37.024612Q344.74042 37.227737 345.24042 37.227737Q345.61542 37.227737 345.9123 37.165237L345.9123 38.883987Q345.24042 39.087112 344.5373 39.087112Q342.1623 39.087112 342.11542 36.680862L342.11542 32.133987L340.88104 32.133987L340.88104 30.477737L342.11542 30.477737L342.11542 28.399612L344.38104 28.399612ZM354.02167 35.852737L355.13104 30.477737L357.31854 30.477737L355.1623 38.930862L353.27167 38.930862L351.6623 33.602737L350.06854 38.930862L348.17792 38.930862L346.02167 30.477737L348.20917 30.477737L349.30292 35.852737L350.8498 30.477737L352.49042 30.477737L354.02167 35.852737ZM358.31854 34.618362Q358.31854 33.368362 358.80292 32.383987Q359.2873 31.399612 360.19354 30.868362Q361.11542 30.321487 362.31854 30.321487Q364.02167 30.321487 365.0998 31.368362Q366.19354 32.415237 366.31854 34.212112L366.33417 34.790237Q366.33417 36.727737 365.24042 37.915237Q364.1623 39.087112 362.33417 39.087112Q360.50604 39.087112 359.4123 37.915237Q358.31854 36.743362 358.31854 34.727737L358.31854 34.618362ZM360.58417 34.790237Q360.58417 35.993362 361.0373 36.633987Q361.49042 37.258987 362.33417 37.258987Q363.14667 37.258987 363.5998 36.633987Q364.06854 36.008987 364.06854 34.618362Q364.06854 33.446487 363.5998 32.805862Q363.14667 32.149612 362.31854 32.149612Q361.49042 32.149612 361.0373 32.790237Q360.58417 33.430862 360.58417 34.790237ZM372.42792 32.587112Q371.95917 32.524612 371.61542 32.524612Q370.33417 32.524612 369.92792 33.399612L369.92792 38.930862L367.67792 38.930862L367.67792 30.477737L369.80292 30.477737L369.86542 31.477737Q370.55292 30.321487 371.75604 30.321487Q372.13104 30.321487 372.45917 30.415237L372.42792 32.587112ZM376.74042 35.540237L375.92792 36.352737L375.92792 38.930862L373.67792 38.930862L373.67792 26.930862L375.92792 26.930862L375.92792 33.571487L376.36542 33.008987L378.5373 30.477737L381.24042 30.477737L378.19354 33.993362L381.50604 38.930862L378.9123 38.930862L376.74042 35.540237ZM387.25604 36.587112Q387.25604 36.180862 386.83417 35.946487Q386.42792 35.696487 385.52167 35.508987Q382.50604 34.883987 382.50604 32.946487Q382.50604 31.821487 383.44354 31.071487Q384.38104 30.321487 385.88104 30.321487Q387.49042 30.321487 388.45917 31.087112Q389.42792 31.837112 389.42792 33.040237L387.1623 33.040237Q387.1623 32.555862 386.8498 32.243362Q386.5373 31.930862 385.88104 31.930862Q385.30292 31.930862 384.99042 32.196487Q384.67792 32.446487 384.67792 32.837112Q384.67792 33.212112 385.0373 33.446487Q385.39667 33.680862 386.24042 33.852737Q387.08417 34.008987 387.6623 34.227737Q389.44354 34.883987 389.44354 36.493362Q389.44354 37.649612 388.44354 38.368362Q387.45917 39.087112 385.89667 39.087112Q384.83417 39.087112 384.00604 38.712112Q383.17792 38.321487 382.70917 37.665237Q382.24042 37.008987 382.24042 36.243362L384.38104 36.243362Q384.4123 36.837112 384.81854 37.165237Q385.24042 37.477737 385.94354 37.477737Q386.58417 37.477737 386.9123 37.243362Q387.25604 36.993362 387.25604 36.587112ZM392.52167 35.430862Q392.52167 34.337112 392.7873 33.696487Q393.05292 33.040237 393.75604 32.415237Q394.45917 31.790237 394.69354 31.399612Q394.92792 30.993362 394.92792 30.555862Q394.92792 29.243362 393.70917 29.243362Q393.13104 29.243362 392.7873 29.602737Q392.44354 29.946487 392.42792 30.571487L390.1623 30.571487Q390.17792 29.087112 391.11542 28.243362Q392.06854 27.399612 393.70917 27.399612Q395.36542 27.399612 396.27167 28.196487Q397.19354 28.993362 397.19354 30.462112Q397.19354 31.118362 396.89667 31.712112Q396.5998 32.305862 395.86542 33.024612L395.2248 33.618362Q394.63104 34.196487 394.55292 34.962112L394.52167 35.430862L392.52167 35.430862ZM392.2873 37.837112Q392.2873 37.305862 392.64667 36.977737Q393.00604 36.633987 393.55292 36.633987Q394.11542 36.633987 394.45917 36.977737Q394.81854 37.305862 394.81854 37.837112Q394.81854 38.352737 394.4748 38.696487Q394.13104 39.024612 393.55292 39.024612Q392.99042 39.024612 392.63104 38.696487Q392.2873 38.352737 392.2873 37.837112Z" fill-rule="nonzero"/></svg>