<svg version="1.1" viewBox="0.0 0.0 531.0 377.0" fill="none" stroke="none" stroke-linecap="square" stroke-miterlimit="10" width="531" height="377" xmlns:xlink="http://www.w3.org/1999/xlink" xmlns="http://www.w3.org/2000/svg"><path fill="#ffffff" d="M0 0L531.0 0L531.0 377.0L0 377.0L0 0Z" fill-rule="nonzero"/><path fill="#fce5cd" d="M263.6413 71.5C309.09622 71.5 351.804 93.2607 378.52173 130.0345C405.23944 166.80829 412.73767 214.15022 398.69135 257.3804L263.6413 213.5Z" fill-rule="nonzero"/><path fill="#e69138" d="M140.6657 142.5C166.03156 98.56505 212.90959 71.5 263.6413 71.5L263.6413 213.5Z" fill-rule="nonzero"/><path fill="#f6b26b" d="M398.69135 257.3804C381.91467 309.0137 337.166 346.5623 283.4039 354.11807C229.64178 361.67383 176.27681 337.9142 145.91797 292.9054C115.559135 247.89656 113.52047 189.51692 140.6657 142.5L263.6413 213.5Z" fill-rule="nonzero"/><path fill="#1a1a1a" d="M25.307375 88.6888L21.932375 88.6888L21.932375 92.17317L20.182375 92.17317L20.182375 83.64192L25.72925 83.64192L25.72925 85.0638L21.932375 85.0638L21.932375 87.26692L25.307375 87.26692L25.307375 88.6888ZM30.744875 92.17317Q30.619875 91.9388 30.573 91.61067Q29.963625 92.29817 28.97925 92.29817Q28.04175 92.29817 27.432375 91.7513Q26.823 91.20442 26.823 90.39192Q26.823 89.3763 27.557375 88.84505Q28.307375 88.29817 29.72925 88.29817L30.494875 88.29817L30.494875 87.9388Q30.494875 87.5013 30.276125 87.23567Q30.057375 86.97005 29.557375 86.97005Q29.1355 86.97005 28.8855 87.17317Q28.651125 87.3763 28.651125 87.73567L26.963625 87.73567Q26.963625 87.1888 27.29175 86.72005Q27.6355 86.2513 28.2605 85.98567Q28.8855 85.72005 29.651125 85.72005Q30.823 85.72005 31.5105 86.3138Q32.197998 86.89192 32.197998 87.95442L32.197998 90.70442Q32.213623 91.61067 32.447998 92.07942L32.447998 92.17317L30.744875 92.17317ZM29.338625 91.0013Q29.713625 91.0013 30.026125 90.82942Q30.35425 90.65755 30.494875 90.3763L30.494875 89.28255L29.869875 89.28255Q28.60425 89.28255 28.5105 90.17317L28.5105 90.26692Q28.5105 90.57942 28.72925 90.79817Q28.948 91.0013 29.338625 91.0013ZM34.651123 85.82942L34.713623 86.54817Q35.385498 85.72005 36.526123 85.72005Q37.760498 85.72005 38.213623 86.6888Q38.885498 85.72005 40.119873 85.72005Q41.151123 85.72005 41.651123 86.32942Q42.151123 86.92317 42.151123 88.1263L42.151123 92.17317L40.463623 92.17317L40.463623 88.1263Q40.463623 87.59505 40.244873 87.34505Q40.041748 87.09505 39.494873 87.09505Q38.744873 87.09505 38.447998 87.8138L38.447998 92.17317L36.760498 92.17317L36.760498 88.14192Q36.760498 87.57942 36.541748 87.34505Q36.322998 87.09505 35.807373 87.09505Q35.088623 87.09505 34.760498 87.6888L34.760498 92.17317L33.072998 92.17317L33.072998 85.82942L34.651123 85.82942ZM45.979248 92.29817Q44.588623 92.29817 43.713623 91.4388Q42.838623 90.57942 42.838623 89.15755L42.838623 88.98567Q42.838623 88.03255 43.197998 87.28255Q43.572998 86.53255 44.244873 86.1263Q44.932373 85.72005 45.791748 85.72005Q47.104248 85.72005 47.838623 86.54817Q48.588623 87.36067 48.588623 88.86067L48.588623 89.54817L44.557373 89.54817Q44.635498 90.17317 45.041748 90.54817Q45.463623 90.92317 46.104248 90.92317Q47.072998 90.92317 47.619873 90.22005L48.463623 91.14192Q48.072998 91.6888 47.416748 92.0013Q46.776123 92.29817 45.979248 92.29817ZM45.791748 87.07942Q45.291748 87.07942 44.979248 87.42317Q44.666748 87.76692 44.572998 88.39192L46.932373 88.39192L46.932373 88.26692Q46.916748 87.70442 46.619873 87.39192Q46.338623 87.07942 45.791748 87.07942Z" fill-rule="nonzero"/><path fill="#9e9e9e" d="M24.10425 110.17317L22.41675 110.17317L22.41675 103.64192L20.401125 104.26692L20.401125 102.89192L23.932375 101.6263L24.10425 101.6263L24.10425 110.17317ZM31.588625 101.54817L31.588625 102.95442L31.432375 102.95442Q30.276125 102.97005 29.573 103.54817Q28.8855 104.1263 28.744875 105.15755Q29.41675 104.47005 30.448 104.47005Q31.573 104.47005 32.229248 105.26692Q32.885498 106.0638 32.885498 107.36067Q32.885498 108.1888 32.526123 108.86067Q32.166748 109.53255 31.494875 109.92317Q30.838625 110.29817 30.0105 110.29817Q28.66675 110.29817 27.838625 109.36067Q27.0105 108.40755 27.0105 106.84505L27.0105 106.23567Q27.0105 104.84505 27.526125 103.78255Q28.057375 102.72005 29.026125 102.14192Q30.0105 101.5638 31.307375 101.54817L31.588625 101.54817ZM29.932375 105.82942Q29.526125 105.82942 29.182375 106.04817Q28.85425 106.2513 28.698 106.61067L28.698 107.1263Q28.698 107.97005 29.026125 108.45442Q29.369875 108.92317 29.97925 108.92317Q30.526125 108.92317 30.85425 108.5013Q31.198 108.0638 31.198 107.3763Q31.198 106.67317 30.85425 106.2513Q30.5105 105.82942 29.932375 105.82942ZM34.151123 109.34505Q34.151123 108.9388 34.416748 108.6888Q34.697998 108.4388 35.104248 108.4388Q35.526123 108.4388 35.791748 108.6888Q36.072998 108.9388 36.072998 109.34505Q36.072998 109.73567 35.791748 109.98567Q35.526123 110.23567 35.104248 110.23567Q34.697998 110.23567 34.416748 109.98567Q34.151123 109.73567 34.151123 109.34505ZM42.791748 102.59505L39.494873 110.17317L37.713623 110.17317L41.010498 103.01692L36.776123 103.01692L36.776123 101.64192L42.791748 101.64192L42.791748 102.59505ZM43.979248 103.28255Q43.979248 102.5013 44.479248 102.01692Q44.994873 101.51692 45.822998 101.51692Q46.651123 101.51692 47.166748 102.0013Q47.682373 102.48567 47.682373 103.3138L47.682373 103.73567Q47.682373 104.51692 47.166748 105.0013Q46.651123 105.48567 45.838623 105.48567Q44.994873 105.48567 44.479248 105.0013Q43.979248 104.51692 43.979248 103.70442L43.979248 103.28255ZM45.104248 103.73567Q45.104248 104.07942 45.307373 104.29817Q45.510498 104.51692 45.838623 104.51692Q46.166748 104.51692 46.354248 104.29817Q46.541748 104.07942 46.541748 103.72005L46.541748 103.28255Q46.541748 102.92317 46.354248 102.72005Q46.166748 102.5013 45.822998 102.5013Q45.494873 102.5013 45.291748 102.72005Q45.104248 102.92317 45.104248 103.29817L45.104248 103.73567ZM48.057373 108.07942Q48.057373 107.28255 48.572998 106.8138Q49.088623 106.32942 49.901123 106.32942Q50.729248 106.32942 51.244873 106.8138Q51.760498 107.28255 51.760498 108.11067L51.760498 108.53255Q51.760498 109.32942 51.260498 109.8138Q50.760498 110.29817 49.916748 110.29817Q49.072998 110.29817 48.557373 109.8138Q48.057373 109.3138 48.057373 108.51692L48.057373 108.07942ZM49.182373 108.53255Q49.182373 108.86067 49.385498 109.09505Q49.604248 109.3138 49.916748 109.3138Q50.635498 109.3138 50.635498 108.53255L50.635498 108.07942Q50.635498 107.73567 50.432373 107.51692Q50.229248 107.29817 49.901123 107.29817Q49.572998 107.29817 49.369873 107.51692Q49.182373 107.73567 49.182373 108.09505L49.182373 108.53255ZM46.166748 109.53255L45.338623 109.09505L49.510498 102.42317L50.338623 102.86067L46.166748 109.53255Z" fill-rule="nonzero"/><path stroke="#757575" stroke-width="1.0" stroke-linecap="butt" d="M19.41675 96.67317L115.641304 96.67317L196.19131 96.67317" fill-rule="nonzero"/><path fill="#9e9e9e" d="M198.19131 96.67317C198.19131 95.5686 197.29588 94.67317 196.19131 94.67317C195.08673 94.67317 194.19131 95.5686 194.19131 96.67317C194.19131 97.77774 195.08673 98.67317 196.19131 98.67317C197.29588 98.67317 198.19131 97.77774 198.19131 96.67317" fill-rule="nonzero"/><path fill="#1a1a1a" d="M26.869875 329.39352Q26.776125 330.76852 25.85425 331.5654Q24.948 332.36227 23.448 332.36227Q21.807375 332.36227 20.85425 331.2529Q19.91675 330.14352 19.91675 328.22165L19.91675 327.6904Q19.91675 326.47165 20.35425 325.53415Q20.79175 324.59665 21.588625 324.09665Q22.401125 323.58102 23.463625 323.58102Q24.948 323.58102 25.838625 324.3779Q26.744875 325.17477 26.8855 326.59665L25.1355 326.59665Q25.073 325.76852 24.66675 325.40915Q24.276125 325.03415 23.463625 325.03415Q22.588625 325.03415 22.151125 325.65915Q21.713625 326.28415 21.698 327.61227L21.698 328.2529Q21.698 329.64352 22.119875 330.28415Q22.54175 330.92477 23.448 330.92477Q24.2605 330.92477 24.651125 330.54977Q25.057375 330.17477 25.119875 329.39352L26.869875 329.39352ZM31.869875 331.59665Q31.244875 332.36227 30.1355 332.36227Q29.10425 332.36227 28.573 331.76852Q28.04175 331.17477 28.026125 330.04977L28.026125 325.89352L29.713625 325.89352L29.713625 329.98727Q29.713625 330.98727 30.619875 330.98727Q31.47925 330.98727 31.807375 330.3779L31.807375 325.89352L33.510498 325.89352L33.510498 332.23727L31.91675 332.23727L31.869875 331.59665ZM36.854248 332.23727L35.151123 332.23727L35.151123 323.23727L36.854248 323.23727L36.854248 332.23727ZM40.088623 324.33102L40.088623 325.89352L41.182373 325.89352L41.182373 327.14352L40.088623 327.14352L40.088623 330.29977Q40.088623 330.65915 40.229248 330.8154Q40.369873 330.95602 40.744873 330.95602Q41.026123 330.95602 41.244873 330.92477L41.244873 332.20602Q40.744873 332.36227 40.213623 332.36227Q38.432373 332.36227 38.401123 330.54977L38.401123 327.14352L37.479248 327.14352L37.479248 325.89352L38.401123 325.89352L38.401123 324.33102L40.088623 324.33102ZM45.869873 331.59665Q45.244873 332.36227 44.135498 332.36227Q43.104248 332.36227 42.572998 331.76852Q42.041748 331.17477 42.026123 330.04977L42.026123 325.89352L43.713623 325.89352L43.713623 329.98727Q43.713623 330.98727 44.619873 330.98727Q45.479248 330.98727 45.807373 330.3779L45.807373 325.89352L47.510498 325.89352L47.510498 332.23727L45.916748 332.23727L45.869873 331.59665ZM52.635498 327.48727Q52.291748 327.4404 52.026123 327.4404Q51.057373 327.4404 50.760498 328.08102L50.760498 332.23727L49.072998 332.23727L49.072998 325.89352L50.666748 325.89352L50.713623 326.65915Q51.229248 325.78415 52.119873 325.78415Q52.401123 325.78415 52.651123 325.86227L52.635498 327.48727ZM56.744873 332.23727Q56.619873 332.0029 56.572998 331.67477Q55.963623 332.36227 54.979248 332.36227Q54.041748 332.36227 53.432373 331.8154Q52.822998 331.26852 52.822998 330.45602Q52.822998 329.4404 53.557373 328.90915Q54.307373 328.36227 55.729248 328.36227L56.494873 328.36227L56.494873 328.0029Q56.494873 327.5654 56.276123 327.29977Q56.057373 327.03415 55.557373 327.03415Q55.135498 327.03415 54.885498 327.23727Q54.651123 327.4404 54.651123 327.79977L52.963623 327.79977Q52.963623 327.2529 53.291748 326.78415Q53.635498 326.3154 54.260498 326.04977Q54.885498 325.78415 55.651123 325.78415Q56.822998 325.78415 57.510498 326.3779Q58.197998 326.95602 58.197998 328.01852L58.197998 330.76852Q58.213623 331.67477 58.447998 332.14352L58.447998 332.23727L56.744873 332.23727ZM55.338623 331.0654Q55.713623 331.0654 56.026123 330.89352Q56.354248 330.72165 56.494873 330.4404L56.494873 329.34665L55.869873 329.34665Q54.604248 329.34665 54.510498 330.23727L54.510498 330.33102Q54.510498 330.64352 54.729248 330.86227Q54.947998 331.0654 55.338623 331.0654ZM60.854248 332.23727L59.151123 332.23727L59.151123 323.23727L60.854248 323.23727L60.854248 332.23727Z" fill-rule="nonzero"/><path fill="#9e9e9e" d="M20.244875 346.03415L20.744875 341.70602L25.526125 341.70602L25.526125 343.11227L22.1355 343.11227L21.91675 344.95602Q22.526125 344.6279 23.198 344.6279Q24.41675 344.6279 25.10425 345.39352Q25.807375 346.14352 25.807375 347.5029Q25.807375 348.33102 25.448 348.98727Q25.10425 349.6279 24.448 350.0029Q23.807375 350.36227 22.91675 350.36227Q22.151125 350.36227 21.47925 350.04977Q20.823 349.72165 20.432375 349.15915Q20.057375 348.59665 20.026125 347.86227L21.713625 347.86227Q21.7605 348.39352 22.073 348.6904Q22.401125 348.98727 22.91675 348.98727Q23.494875 348.98727 23.79175 348.58102Q24.10425 348.15915 24.10425 347.40915Q24.10425 346.67477 23.744875 346.29977Q23.401125 345.90915 22.744875 345.90915Q22.1355 345.90915 21.7605 346.22165L21.60425 346.3779L20.244875 346.03415ZM28.713625 345.22165L29.619875 345.22165Q30.2605 345.22165 30.573 344.90915Q30.8855 344.58102 30.8855 344.04977Q30.8855 343.53415 30.573 343.2529Q30.276125 342.95602 29.72925 342.95602Q29.244875 342.95602 28.91675 343.22165Q28.588625 343.48727 28.588625 343.90915L26.901125 343.90915Q26.901125 343.2529 27.2605 342.72165Q27.619875 342.1904 28.2605 341.89352Q28.91675 341.58102 29.698 341.58102Q31.04175 341.58102 31.807375 342.23727Q32.588623 342.8779 32.588623 344.01852Q32.588623 344.61227 32.229248 345.11227Q31.869875 345.59665 31.29175 345.84665Q32.010498 346.11227 32.354248 346.6279Q32.713623 347.14352 32.713623 347.84665Q32.713623 348.98727 31.8855 349.67477Q31.057375 350.36227 29.698 350.36227Q28.41675 350.36227 27.60425 349.6904Q26.79175 349.0029 26.79175 347.89352L28.47925 347.89352Q28.47925 348.3779 28.838625 348.6904Q29.213625 348.98727 29.72925 348.98727Q30.338625 348.98727 30.682375 348.67477Q31.026125 348.34665 31.026125 347.8154Q31.026125 346.54977 29.619875 346.54977L28.713625 346.54977L28.713625 345.22165ZM34.151123 349.40915Q34.151123 349.0029 34.416748 348.7529Q34.697998 348.5029 35.104248 348.5029Q35.526123 348.5029 35.791748 348.7529Q36.072998 349.0029 36.072998 349.40915Q36.072998 349.79977 35.791748 350.04977Q35.526123 350.29977 35.104248 350.29977Q34.697998 350.29977 34.416748 350.04977Q34.151123 349.79977 34.151123 349.40915ZM38.713623 345.22165L39.619873 345.22165Q40.260498 345.22165 40.572998 344.90915Q40.885498 344.58102 40.885498 344.04977Q40.885498 343.53415 40.572998 343.2529Q40.276123 342.95602 39.729248 342.95602Q39.244873 342.95602 38.916748 343.22165Q38.588623 343.48727 38.588623 343.90915L36.901123 343.90915Q36.901123 343.2529 37.260498 342.72165Q37.619873 342.1904 38.260498 341.89352Q38.916748 341.58102 39.697998 341.58102Q41.041748 341.58102 41.807373 342.23727Q42.588623 342.8779 42.588623 344.01852Q42.588623 344.61227 42.229248 345.11227Q41.869873 345.59665 41.291748 345.84665Q42.010498 346.11227 42.354248 346.6279Q42.713623 347.14352 42.713623 347.84665Q42.713623 348.98727 41.885498 349.67477Q41.057373 350.36227 39.697998 350.36227Q38.416748 350.36227 37.604248 349.6904Q36.791748 349.0029 36.791748 347.89352L38.479248 347.89352Q38.479248 348.3779 38.838623 348.6904Q39.213623 348.98727 39.729248 348.98727Q40.338623 348.98727 40.682373 348.67477Q41.026123 348.34665 41.026123 347.8154Q41.026123 346.54977 39.619873 346.54977L38.713623 346.54977L38.713623 345.22165ZM43.979248 343.34665Q43.979248 342.5654 44.479248 342.08102Q44.994873 341.58102 45.822998 341.58102Q46.651123 341.58102 47.166748 342.0654Q47.682373 342.54977 47.682373 343.3779L47.682373 343.79977Q47.682373 344.58102 47.166748 345.0654Q46.651123 345.54977 45.838623 345.54977Q44.994873 345.54977 44.479248 345.0654Q43.979248 344.58102 43.979248 343.76852L43.979248 343.34665ZM45.104248 343.79977Q45.104248 344.14352 45.307373 344.36227Q45.510498 344.58102 45.838623 344.58102Q46.166748 344.58102 46.354248 344.36227Q46.541748 344.14352 46.541748 343.78415L46.541748 343.34665Q46.541748 342.98727 46.354248 342.78415Q46.166748 342.5654 45.822998 342.5654Q45.494873 342.5654 45.291748 342.78415Q45.104248 342.98727 45.104248 343.36227L45.104248 343.79977ZM48.057373 348.14352Q48.057373 347.34665 48.572998 346.8779Q49.088623 346.39352 49.901123 346.39352Q50.729248 346.39352 51.244873 346.8779Q51.760498 347.34665 51.760498 348.17477L51.760498 348.59665Q51.760498 349.39352 51.260498 349.8779Q50.760498 350.36227 49.916748 350.36227Q49.072998 350.36227 48.557373 349.8779Q48.057373 349.3779 48.057373 348.58102L48.057373 348.14352ZM49.182373 348.59665Q49.182373 348.92477 49.385498 349.15915Q49.604248 349.3779 49.916748 349.3779Q50.635498 349.3779 50.635498 348.59665L50.635498 348.14352Q50.635498 347.79977 50.432373 347.58102Q50.229248 347.36227 49.901123 347.36227Q49.572998 347.36227 49.369873 347.58102Q49.182373 347.79977 49.182373 348.15915L49.182373 348.59665ZM46.166748 349.59665L45.338623 349.15915L49.510498 342.48727L50.338623 342.92477L46.166748 349.59665Z" fill-rule="nonzero"/><path stroke="#757575" stroke-width="1.0" stroke-linecap="butt" d="M19.41675 336.73727L115.641304 336.73727L208.77254 336.73727" fill-rule="nonzero"/><path fill="#9e9e9e" d="M210.77254 336.73727C210.77254 335.63272 209.8771 334.73727 208.77254 334.73727C207.66797 334.73727 206.77254 335.63272 206.77254 336.73727C206.77254 337.84186 207.66797 338.73727 208.77254 338.73727C209.8771 338.73727 210.77254 337.84186 210.77254 336.73727" fill-rule="nonzero"/><path fill="#1a1a1a" d="M473.92838 121.17651L476.11588 127.36401L478.30338 121.17651L480.60025 121.17651L480.60025 129.70776L478.83463 129.70776L478.83463 127.37964L479.02213 123.34839L476.70963 129.70776L475.5065 129.70776L473.20963 123.34839L473.3815 127.37964L473.3815 129.70776L471.6315 129.70776L471.6315 121.17651L473.92838 121.17651ZM482.2565 126.47339Q482.2565 125.53589 482.61588 124.80151Q482.97525 124.05151 483.66275 123.66089Q484.35025 123.25464 485.24088 123.25464Q486.53775 123.25464 487.33463 124.03589Q488.14713 124.81714 488.24088 126.16089L488.2565 126.59839Q488.2565 128.06714 487.444 128.95776Q486.6315 129.83276 485.2565 129.83276Q483.8815 129.83276 483.069 128.95776Q482.2565 128.06714 482.2565 126.55151L482.2565 126.47339ZM483.944 126.59839Q483.944 127.50464 484.28775 127.98901Q484.6315 128.45776 485.2565 128.45776Q485.8815 128.45776 486.22525 127.98901Q486.569 127.52026 486.569 126.47339Q486.569 125.59839 486.22525 125.11401Q485.8815 124.61401 485.24088 124.61401Q484.6315 124.61401 484.28775 125.09839Q483.944 125.58276 483.944 126.59839ZM491.069 123.36401L491.1315 124.09839Q491.80338 123.25464 492.944 123.25464Q493.95963 123.25464 494.444 123.84839Q494.944 124.42651 494.95963 125.61401L494.95963 129.70776L493.2565 129.70776L493.2565 125.64526Q493.2565 125.11401 493.02213 124.87964Q492.78775 124.62964 492.24088 124.62964Q491.53775 124.62964 491.17838 125.23901L491.17838 129.70776L489.47525 129.70776L489.47525 123.36401L491.069 123.36401ZM499.42838 129.83276Q498.03775 129.83276 497.16275 128.97339Q496.28775 128.11401 496.28775 126.69214L496.28775 126.52026Q496.28775 125.56714 496.64713 124.81714Q497.02213 124.06714 497.694 123.66089Q498.3815 123.25464 499.24088 123.25464Q500.55338 123.25464 501.28775 124.08276Q502.03775 124.89526 502.03775 126.39526L502.03775 127.08276L498.0065 127.08276Q498.08463 127.70776 498.49088 128.08276Q498.91275 128.45776 499.55338 128.45776Q500.52213 128.45776 501.069 127.75464L501.91275 128.67651Q501.52213 129.22339 500.86588 129.53589Q500.22525 129.83276 499.42838 129.83276ZM499.24088 124.61401Q498.74088 124.61401 498.42838 124.95776Q498.11588 125.30151 498.02213 125.92651L500.3815 125.92651L500.3815 125.80151Q500.36588 125.23901 500.069 124.92651Q499.78775 124.61401 499.24088 124.61401ZM504.8815 127.31714L506.05338 123.36401L507.86588 123.36401L505.319 130.69214L505.17838 131.02026Q504.61588 132.27026 503.30338 132.27026Q502.944 132.27026 502.55338 132.16089L502.55338 130.87964L502.819 130.87964Q503.30338 130.87964 503.53775 130.72339Q503.77213 130.58276 503.91275 130.25464L504.10025 129.72339L501.8815 123.36401L503.70963 123.36401L504.8815 127.31714Z" fill-rule="nonzero"/><path fill="#9e9e9e" d="M477.16275 142.69214L478.069 142.69214Q478.70963 142.69214 479.02213 142.37964Q479.33463 142.05151 479.33463 141.52026Q479.33463 141.00464 479.02213 140.72339Q478.72525 140.42651 478.17838 140.42651Q477.694 140.42651 477.36588 140.69214Q477.03775 140.95776 477.03775 141.37964L475.35025 141.37964Q475.35025 140.72339 475.70963 140.19214Q476.069 139.66089 476.70963 139.36401Q477.36588 139.05151 478.14713 139.05151Q479.49088 139.05151 480.2565 139.70776Q481.03775 140.34839 481.03775 141.48901Q481.03775 142.08276 480.67838 142.58276Q480.319 143.06714 479.74088 143.31714Q480.45963 143.58276 480.80338 144.09839Q481.16275 144.61401 481.16275 145.31714Q481.16275 146.45776 480.33463 147.14526Q479.5065 147.83276 478.14713 147.83276Q476.86588 147.83276 476.05338 147.16089Q475.24088 146.47339 475.24088 145.36401L476.92838 145.36401Q476.92838 145.84839 477.28775 146.16089Q477.66275 146.45776 478.17838 146.45776Q478.78775 146.45776 479.1315 146.14526Q479.47525 145.81714 479.47525 145.28589Q479.47525 144.02026 478.069 144.02026L477.16275 144.02026L477.16275 142.69214ZM488.194 144.17651Q488.194 145.94214 487.45963 146.89526Q486.72525 147.83276 485.319 147.83276Q483.91275 147.83276 483.17838 146.91089Q482.444 145.98901 482.42838 144.27026L482.42838 142.69214Q482.42838 140.91089 483.16275 139.98901Q483.91275 139.05151 485.30338 139.05151Q486.694 139.05151 487.42838 139.97339Q488.17838 140.89526 488.194 142.61401L488.194 144.17651ZM486.49088 142.45776Q486.49088 141.39526 486.194 140.91089Q485.91275 140.42651 485.30338 140.42651Q484.70963 140.42651 484.41275 140.89526Q484.1315 141.34839 484.11588 142.33276L484.11588 144.39526Q484.11588 145.44214 484.39713 145.95776Q484.67838 146.45776 485.319 146.45776Q485.92838 146.45776 486.20963 145.97339Q486.49088 145.48901 486.49088 144.48901L486.49088 142.45776ZM489.60025 146.87964Q489.60025 146.47339 489.86588 146.22339Q490.14713 145.97339 490.55338 145.97339Q490.97525 145.97339 491.24088 146.22339Q491.52213 146.47339 491.52213 146.87964Q491.52213 147.27026 491.24088 147.52026Q490.97525 147.77026 490.55338 147.77026Q490.14713 147.77026 489.86588 147.52026Q489.60025 147.27026 489.60025 146.87964ZM498.194 144.17651Q498.194 145.94214 497.45963 146.89526Q496.72525 147.83276 495.319 147.83276Q493.91275 147.83276 493.17838 146.91089Q492.444 145.98901 492.42838 144.27026L492.42838 142.69214Q492.42838 140.91089 493.16275 139.98901Q493.91275 139.05151 495.30338 139.05151Q496.694 139.05151 497.42838 139.97339Q498.17838 140.89526 498.194 142.61401L498.194 144.17651ZM496.49088 142.45776Q496.49088 141.39526 496.194 140.91089Q495.91275 140.42651 495.30338 140.42651Q494.70963 140.42651 494.41275 140.89526Q494.1315 141.34839 494.11588 142.33276L494.11588 144.39526Q494.11588 145.44214 494.39713 145.95776Q494.67838 146.45776 495.319 146.45776Q495.92838 146.45776 496.20963 145.97339Q496.49088 145.48901 496.49088 144.48901L496.49088 142.45776ZM499.42838 140.81714Q499.42838 140.03589 499.92838 139.55151Q500.444 139.05151 501.27213 139.05151Q502.10025 139.05151 502.61588 139.53589Q503.1315 140.02026 503.1315 140.84839L503.1315 141.27026Q503.1315 142.05151 502.61588 142.53589Q502.10025 143.02026 501.28775 143.02026Q500.444 143.02026 499.92838 142.53589Q499.42838 142.05151 499.42838 141.23901L499.42838 140.81714ZM500.55338 141.27026Q500.55338 141.61401 500.7565 141.83276Q500.95963 142.05151 501.28775 142.05151Q501.61588 142.05151 501.80338 141.83276Q501.99088 141.61401 501.99088 141.25464L501.99088 140.81714Q501.99088 140.45776 501.80338 140.25464Q501.61588 140.03589 501.27213 140.03589Q500.944 140.03589 500.74088 140.25464Q500.55338 140.45776 500.55338 140.83276L500.55338 141.27026ZM503.5065 145.61401Q503.5065 144.81714 504.02213 144.34839Q504.53775 143.86401 505.35025 143.86401Q506.17838 143.86401 506.694 144.34839Q507.20963 144.81714 507.20963 145.64526L507.20963 146.06714Q507.20963 146.86401 506.70963 147.34839Q506.20963 147.83276 505.36588 147.83276Q504.52213 147.83276 504.0065 147.34839Q503.5065 146.84839 503.5065 146.05151L503.5065 145.61401ZM504.6315 146.06714Q504.6315 146.39526 504.83463 146.62964Q505.05338 146.84839 505.36588 146.84839Q506.08463 146.84839 506.08463 146.06714L506.08463 145.61401Q506.08463 145.27026 505.8815 145.05151Q505.67838 144.83276 505.35025 144.83276Q505.02213 144.83276 504.819 145.05151Q504.6315 145.27026 504.6315 145.62964L504.6315 146.06714ZM501.61588 147.06714L500.78775 146.62964L504.95963 139.95776L505.78775 140.39526L501.61588 147.06714Z" fill-rule="nonzero"/><path stroke="#757575" stroke-width="1.0" stroke-linecap="butt" d="M507.86588 134.20776L411.6413 134.20776L372.7777 134.20776" fill-rule="nonzero"/><path fill="#9e9e9e" d="M374.7777 134.20776C374.7777 133.1032 373.88226 132.20776 372.7777 132.20776C371.67313 132.20776 370.7777 133.1032 370.7777 134.20776C370.7777 135.31233 371.67313 136.20776 372.7777 136.20776C373.88226 136.20776 374.7777 135.31233 374.7777 134.20776" fill-rule="nonzero"/><path fill="#757575" d="M81.375 30.568748L82.90625 22.474998L85.25 22.474998L82.71875 33.85L80.359375 33.85L78.515625 26.240623L76.65625 33.85L74.296875 33.85L71.78125 22.474998L74.109375 22.474998L75.65625 30.553123L77.53125 22.474998L79.515625 22.474998L81.375 30.568748ZM88.578125 26.318748Q89.46875 25.240623 90.828125 25.240623Q93.578125 25.240623 93.625 28.428123L93.625 33.85L91.359375 33.85L91.359375 28.490623Q91.359375 27.771873 91.046875 27.428123Q90.734375 27.068748 90.015625 27.068748Q89.015625 27.068748 88.578125 27.834373L88.578125 33.85L86.3125 33.85L86.3125 21.849998L88.578125 21.849998L88.578125 26.318748ZM100.265625 33.85Q100.109375 33.5375 100.046875 33.084373Q99.21875 34.00625 97.90625 34.00625Q96.671875 34.00625 95.84375 33.2875Q95.03125 32.56875 95.03125 31.474998Q95.03125 30.131248 96.03125 29.412498Q97.03125 28.693748 98.90625 28.678123L99.953125 28.678123L99.953125 28.193748Q99.953125 27.615623 99.640625 27.271873Q99.34375 26.912498 98.703125 26.912498Q98.125 26.912498 97.796875 27.193748Q97.484375 27.459373 97.484375 27.928123L95.21875 27.928123Q95.21875 27.193748 95.671875 26.568748Q96.125 25.943748 96.953125 25.599998Q97.78125 25.240623 98.8125 25.240623Q100.375 25.240623 101.296875 26.021873Q102.21875 26.803123 102.21875 28.224998L102.21875 31.896873Q102.21875 33.1 102.546875 33.709373L102.546875 33.85L100.265625 33.85ZM98.40625 32.271873Q98.90625 32.271873 99.328125 32.053123Q99.75 31.834373 99.953125 31.459373L99.953125 30.006248L99.109375 30.006248Q97.40625 30.006248 97.296875 31.178123L97.296875 31.303123Q97.296875 31.724998 97.59375 32.00625Q97.890625 32.271873 98.40625 32.271873ZM107.078125 23.318748L107.078125 25.396873L108.515625 25.396873L108.515625 27.053123L107.078125 27.053123L107.078125 31.271873Q107.078125 31.740623 107.25 31.943748Q107.4375 32.146873 107.9375 32.146873Q108.3125 32.146873 108.609375 32.084373L108.609375 33.803123Q107.9375 34.00625 107.234375 34.00625Q104.859375 34.00625 104.8125 31.599998L104.8125 27.053123L103.578125 27.053123L103.578125 25.396873L104.8125 25.396873L104.8125 23.318748L107.078125 23.318748ZM110.65625 22.990623L110.421875 26.146873L109.0 26.146873L109.0 21.849998L110.65625 21.849998L110.65625 22.990623ZM116.953125 31.506248Q116.953125 31.099998 116.53125 30.865623Q116.125 30.615623 115.21875 30.428123Q112.203125 29.803123 112.203125 27.865623Q112.203125 26.740623 113.140625 25.990623Q114.078125 25.240623 115.578125 25.240623Q117.1875 25.240623 118.15625 26.006248Q119.125 26.756248 119.125 27.959373L116.859375 27.959373Q116.859375 27.474998 116.546875 27.162498Q116.234375 26.849998 115.578125 26.849998Q115.0 26.849998 114.6875 27.115623Q114.375 27.365623 114.375 27.756248Q114.375 28.131248 114.734375 28.365623Q115.09375 28.599998 115.9375 28.771873Q116.78125 28.928123 117.359375 29.146873Q119.140625 29.803123 119.140625 31.412498Q119.140625 32.56875 118.140625 33.2875Q117.15625 34.00625 115.59375 34.00625Q114.53125 34.00625 113.703125 33.63125Q112.875 33.240623 112.40625 32.584373Q111.9375 31.928123 111.9375 31.162498L114.078125 31.162498Q114.109375 31.756248 114.515625 32.084373Q114.9375 32.396873 115.640625 32.396873Q116.28125 32.396873 116.609375 32.1625Q116.953125 31.912498 116.953125 31.506248ZM127.53125 30.646873L129.09375 25.396873L131.51562 25.396873L128.10938 35.1625L127.921875 35.615623Q127.171875 37.271873 125.421875 37.271873Q124.9375 37.271873 124.421875 37.115623L124.421875 35.4125L124.765625 35.4125Q125.40625 35.4125 125.71875 35.209373Q126.046875 35.021873 126.21875 34.56875L126.484375 33.88125L123.53125 25.396873L125.953125 25.396873L127.53125 30.646873ZM132.01562 29.537498Q132.01562 28.287498 132.5 27.303123Q132.98438 26.318748 133.89062 25.787498Q134.8125 25.240623 136.01562 25.240623Q137.71875 25.240623 138.79688 26.287498Q139.89062 27.334373 140.01562 29.131248L140.03125 29.709373Q140.03125 31.646873 138.9375 32.834373Q137.85938 34.00625 136.03125 34.00625Q134.20312 34.00625 133.10938 32.834373Q132.01562 31.662498 132.01562 29.646873L132.01562 29.537498ZM134.28125 29.709373Q134.28125 30.912498 134.73438 31.553123Q135.1875 32.178123 136.03125 32.178123Q136.84375 32.178123 137.29688 31.553123Q137.76562 30.928123 137.76562 29.537498Q137.76562 28.365623 137.29688 27.724998Q136.84375 27.068748 136.01562 27.068748Q135.1875 27.068748 134.73438 27.709373Q134.28125 28.349998 134.28125 29.709373ZM146.4375 32.990623Q145.59375 34.00625 144.125 34.00625Q142.76562 34.00625 142.04688 33.225Q141.32812 32.44375 141.3125 30.928123L141.3125 25.396873L143.57812 25.396873L143.57812 30.849998Q143.57812 32.178123 144.78125 32.178123Q145.92188 32.178123 146.35938 31.381248L146.35938 25.396873L148.625 25.396873L148.625 33.85L146.5 33.85L146.4375 32.990623ZM155.125 27.506248Q154.65625 27.443748 154.3125 27.443748Q153.03125 27.443748 152.625 28.318748L152.625 33.85L150.375 33.85L150.375 25.396873L152.5 25.396873L152.5625 26.396873Q153.25 25.240623 154.45312 25.240623Q154.82812 25.240623 155.15625 25.334373L155.125 27.506248ZM167.98438 29.693748Q167.98438 31.646873 167.09375 32.834373Q166.20312 34.00625 164.70312 34.00625Q163.42188 34.00625 162.625 33.115623L162.625 37.1L160.375 37.1L160.375 25.396873L162.46875 25.396873L162.54688 26.224998Q163.35938 25.240623 164.6875 25.240623Q166.25 25.240623 167.10938 26.396873Q167.98438 27.553123 167.98438 29.584373L167.98438 29.693748ZM165.71875 29.537498Q165.71875 28.349998 165.29688 27.709373Q164.89062 27.068748 164.09375 27.068748Q163.03125 27.068748 162.625 27.881248L162.625 31.349998Q163.04688 32.178123 164.10938 32.178123Q165.71875 32.178123 165.71875 29.537498ZM174.125 27.506248Q173.65625 27.443748 173.3125 27.443748Q172.03125 27.443748 171.625 28.318748L171.625 33.85L169.375 33.85L169.375 25.396873L171.5 25.396873L171.5625 26.396873Q172.25 25.240623 173.45312 25.240623Q173.82812 25.240623 174.15625 25.334373L174.125 27.506248ZM177.75 33.85L175.48438 33.85L175.48438 25.396873L177.75 25.396873L177.75 33.85ZM175.35938 23.209373Q175.35938 22.693748 175.6875 22.365623Q176.03125 22.037498 176.625 22.037498Q177.20312 22.037498 177.54688 22.365623Q177.89062 22.693748 177.89062 23.209373Q177.89062 23.724998 177.53125 24.053123Q177.1875 24.381248 176.60938 24.381248Q176.04688 24.381248 175.70312 24.053123Q175.35938 23.724998 175.35938 23.209373ZM181.48438 25.396873L181.5625 26.334373Q182.45312 25.240623 183.98438 25.240623Q185.625 25.240623 186.23438 26.521873Q187.125 25.240623 188.76562 25.240623Q190.14062 25.240623 190.8125 26.037498Q191.48438 26.834373 191.48438 28.443748L191.48438 33.85L189.21875 33.85L189.21875 28.459373Q189.21875 27.740623 188.9375 27.412498Q188.65625 27.068748 187.95312 27.068748Q186.9375 27.068748 186.54688 28.037498L186.54688 33.85L184.29688 33.85L184.29688 28.459373Q184.29688 27.724998 184.0 27.396873Q183.71875 27.068748 183.01562 27.068748Q182.0625 27.068748 181.625 27.865623L181.625 33.85L179.375 33.85L179.375 25.396873L181.48438 25.396873ZM198.26562 33.85Q198.10938 33.5375 198.04688 33.084373Q197.21875 34.00625 195.90625 34.00625Q194.67188 34.00625 193.84375 33.2875Q193.03125 32.56875 193.03125 31.474998Q193.03125 30.131248 194.03125 29.412498Q195.03125 28.693748 196.90625 28.678123L197.95312 28.678123L197.95312 28.193748Q197.95312 27.615623 197.64062 27.271873Q197.34375 26.912498 196.70312 26.912498Q196.125 26.912498 195.79688 27.193748Q195.48438 27.459373 195.48438 27.928123L193.21875 27.928123Q193.21875 27.193748 193.67188 26.568748Q194.125 25.943748 194.95312 25.599998Q195.78125 25.240623 196.8125 25.240623Q198.375 25.240623 199.29688 26.021873Q200.21875 26.803123 200.21875 28.224998L200.21875 31.896873Q200.21875 33.1 200.54688 33.709373L200.54688 33.85L198.26562 33.85ZM196.40625 32.271873Q196.90625 32.271873 197.32812 32.053123Q197.75 31.834373 197.95312 31.459373L197.95312 30.006248L197.10938 30.006248Q195.40625 30.006248 195.29688 31.178123L195.29688 31.303123Q195.29688 31.724998 195.59375 32.00625Q195.89062 32.271873 196.40625 32.271873ZM207.125 27.506248Q206.65625 27.443748 206.3125 27.443748Q205.03125 27.443748 204.625 28.318748L204.625 33.85L202.375 33.85L202.375 25.396873L204.5 25.396873L204.5625 26.396873Q205.25 25.240623 206.45312 25.240623Q206.82812 25.240623 207.15625 25.334373L207.125 27.506248ZM211.53125 30.646873L213.09375 25.396873L215.51562 25.396873L212.10938 35.1625L211.92188 35.615623Q211.17188 37.271873 209.42188 37.271873Q208.9375 37.271873 208.42188 37.115623L208.42188 35.4125L208.76562 35.4125Q209.40625 35.4125 209.71875 35.209373Q210.04688 35.021873 210.21875 34.56875L210.48438 33.88125L207.53125 25.396873L209.95312 25.396873L211.53125 30.646873ZM222.48438 25.396873L222.5625 26.334373Q223.45312 25.240623 224.98438 25.240623Q226.625 25.240623 227.23438 26.521873Q228.125 25.240623 229.76562 25.240623Q231.14062 25.240623 231.8125 26.037498Q232.48438 26.834373 232.48438 28.443748L232.48438 33.85L230.21875 33.85L230.21875 28.459373Q230.21875 27.740623 229.9375 27.412498Q229.65625 27.068748 228.95312 27.068748Q227.9375 27.068748 227.54688 28.037498L227.54688 33.85L225.29688 33.85L225.29688 28.459373Q225.29688 27.724998 225.0 27.396873Q224.71875 27.068748 224.01562 27.068748Q223.0625 27.068748 222.625 27.865623L222.625 33.85L220.375 33.85L220.375 25.396873L222.48438 25.396873ZM234.01562 29.537498Q234.01562 28.287498 234.5 27.303123Q234.98438 26.318748 235.89062 25.787498Q236.8125 25.240623 238.01562 25.240623Q239.71875 25.240623 240.79688 26.287498Q241.89062 27.334373 242.01562 29.131248L242.03125 29.709373Q242.03125 31.646873 240.9375 32.834373Q239.85938 34.00625 238.03125 34.00625Q236.20312 34.00625 235.10938 32.834373Q234.01562 31.662498 234.01562 29.646873L234.01562 29.537498ZM236.28125 29.709373Q236.28125 30.912498 236.73438 31.553123Q237.1875 32.178123 238.03125 32.178123Q238.84375 32.178123 239.29688 31.553123Q239.76562 30.928123 239.76562 29.537498Q239.76562 28.365623 239.29688 27.724998Q238.84375 27.068748 238.01562 27.068748Q237.1875 27.068748 236.73438 27.709373Q236.28125 28.349998 236.28125 29.709373ZM246.07812 23.318748L246.07812 25.396873L247.51562 25.396873L247.51562 27.053123L246.07812 27.053123L246.07812 31.271873Q246.07812 31.740623 246.25 31.943748Q246.4375 32.146873 246.9375 32.146873Q247.3125 32.146873 247.60938 32.084373L247.60938 33.803123Q246.9375 34.00625 246.23438 34.00625Q243.85938 34.00625 243.8125 31.599998L243.8125 27.053123L242.57812 27.053123L242.57812 25.396873L243.8125 25.396873L243.8125 23.318748L246.07812 23.318748ZM250.75 33.85L248.48438 33.85L248.48438 25.396873L250.75 25.396873L250.75 33.85ZM248.35938 23.209373Q248.35938 22.693748 248.6875 22.365623Q249.03125 22.037498 249.625 22.037498Q250.20312 22.037498 250.54688 22.365623Q250.89062 22.693748 250.89062 23.209373Q250.89062 23.724998 250.53125 24.053123Q250.1875 24.381248 249.60938 24.381248Q249.04688 24.381248 248.70312 24.053123Q248.35938 23.724998 248.35938 23.209373ZM255.53125 31.084373L257.10938 25.396873L259.46875 25.396873L256.60938 33.85L254.45312 33.85L251.60938 25.396873L253.96875 25.396873L255.53125 31.084373ZM265.26562 33.85Q265.10938 33.5375 265.04688 33.084373Q264.21875 34.00625 262.90625 34.00625Q261.67188 34.00625 260.84375 33.2875Q260.03125 32.56875 260.03125 31.474998Q260.03125 30.131248 261.03125 29.412498Q262.03125 28.693748 263.90625 28.678123L264.95312 28.678123L264.95312 28.193748Q264.95312 27.615623 264.64062 27.271873Q264.34375 26.912498 263.70312 26.912498Q263.125 26.912498 262.79688 27.193748Q262.48438 27.459373 262.48438 27.928123L260.21875 27.928123Q260.21875 27.193748 260.67188 26.568748Q261.125 25.943748 261.95312 25.599998Q262.78125 25.240623 263.8125 25.240623Q265.375 25.240623 266.29688 26.021873Q267.21875 26.803123 267.21875 28.224998L267.21875 31.896873Q267.21875 33.1 267.54688 33.709373L267.54688 33.85L265.26562 33.85ZM263.40625 32.271873Q263.90625 32.271873 264.32812 32.053123Q264.75 31.834373 264.95312 31.459373L264.95312 30.006248L264.10938 30.006248Q262.40625 30.006248 262.29688 31.178123L262.29688 31.303123Q262.29688 31.724998 262.59375 32.00625Q262.89062 32.271873 263.40625 32.271873ZM272.07812 23.318748L272.07812 25.396873L273.51562 25.396873L273.51562 27.053123L272.07812 27.053123L272.07812 31.271873Q272.07812 31.740623 272.25 31.943748Q272.4375 32.146873 272.9375 32.146873Q273.3125 32.146873 273.60938 32.084373L273.60938 33.803123Q272.9375 34.00625 272.23438 34.00625Q269.85938 34.00625 269.8125 31.599998L269.8125 27.053123L268.57812 27.053123L268.57812 25.396873L269.8125 25.396873L269.8125 23.318748L272.07812 23.318748ZM276.75 33.85L274.48438 33.85L274.48438 25.396873L276.75 25.396873L276.75 33.85ZM274.35938 23.209373Q274.35938 22.693748 274.6875 22.365623Q275.03125 22.037498 275.625 22.037498Q276.20312 22.037498 276.54688 22.365623Q276.89062 22.693748 276.89062 23.209373Q276.89062 23.724998 276.53125 24.053123Q276.1875 24.381248 275.60938 24.381248Q275.04688 24.381248 274.70312 24.053123Q274.35938 23.724998 274.35938 23.209373ZM278.01562 29.537498Q278.01562 28.287498 278.5 27.303123Q278.98438 26.318748 279.89062 25.787498Q280.8125 25.240623 282.01562 25.240623Q283.71875 25.240623 284.79688 26.287498Q285.89062 27.334373 286.01562 29.131248L286.03125 29.709373Q286.03125 31.646873 284.9375 32.834373Q283.85938 34.00625 282.03125 34.00625Q280.20312 34.00625 279.10938 32.834373Q278.01562 31.662498 278.01562 29.646873L278.01562 29.537498ZM280.28125 29.709373Q280.28125 30.912498 280.73438 31.553123Q281.1875 32.178123 282.03125 32.178123Q282.84375 32.178123 283.29688 31.553123Q283.76562 30.928123 283.76562 29.537498Q283.76562 28.365623 283.29688 27.724998Q282.84375 27.068748 282.01562 27.068748Q281.1875 27.068748 280.73438 27.709373Q280.28125 28.349998 280.28125 29.709373ZM289.45312 25.396873L289.51562 26.365623Q290.42188 25.240623 291.95312 25.240623Q293.29688 25.240623 293.95312 26.037498Q294.60938 26.818748 294.625 28.381248L294.625 33.85L292.35938 33.85L292.35938 28.443748Q292.35938 27.724998 292.04688 27.396873Q291.73438 27.068748 291.01562 27.068748Q290.0625 27.068748 289.57812 27.881248L289.57812 33.85L287.32812 33.85L287.32812 25.396873L289.45312 25.396873ZM300.98438 33.85L300.98438 27.053123L299.73438 27.053123L299.73438 25.396873L300.98438 25.396873L300.98438 24.678123Q300.98438 23.256248 301.79688 22.474998Q302.625 21.678123 304.09375 21.678123Q304.5625 21.678123 305.23438 21.834373L305.21875 23.584373Q304.9375 23.521873 304.53125 23.521873Q303.25 23.521873 303.25 24.709373L303.25 25.396873L304.9375 25.396873L304.9375 27.053123L303.25 27.053123L303.25 33.85L300.98438 33.85ZM306.01562 29.537498Q306.01562 28.287498 306.5 27.303123Q306.98438 26.318748 307.89062 25.787498Q308.8125 25.240623 310.01562 25.240623Q311.71875 25.240623 312.79688 26.287498Q313.89062 27.334373 314.01562 29.131248L314.03125 29.709373Q314.03125 31.646873 312.9375 32.834373Q311.85938 34.00625 310.03125 34.00625Q308.20312 34.00625 307.10938 32.834373Q306.01562 31.662498 306.01562 29.646873L306.01562 29.537498ZM308.28125 29.709373Q308.28125 30.912498 308.73438 31.553123Q309.1875 32.178123 310.03125 32.178123Q310.84375 32.178123 311.29688 31.553123Q311.76562 30.928123 311.76562 29.537498Q311.76562 28.365623 311.29688 27.724998Q310.84375 27.068748 310.01562 27.068748Q309.1875 27.068748 308.73438 27.709373Q308.28125 28.349998 308.28125 29.709373ZM320.125 27.506248Q319.65625 27.443748 319.3125 27.443748Q318.03125 27.443748 317.625 28.318748L317.625 33.85L315.375 33.85L315.375 25.396873L317.5 25.396873L317.5625 26.396873Q318.25 25.240623 319.45312 25.240623Q319.82812 25.240623 320.15625 25.334373L320.125 27.506248ZM328.89062 32.178123Q329.51562 32.178123 329.90625 31.834373Q330.29688 31.490623 330.3125 30.928123L332.42188 30.928123Q332.42188 31.787498 331.95312 32.50625Q331.5 33.209373 330.6875 33.615623Q329.89062 34.00625 328.92188 34.00625Q327.10938 34.00625 326.0625 32.85Q325.01562 31.693748 325.01562 29.662498L325.01562 29.521873Q325.01562 27.568748 326.04688 26.412498Q327.09375 25.240623 328.90625 25.240623Q330.5 25.240623 331.45312 26.146873Q332.40625 27.037498 332.42188 28.537498L330.3125 28.537498Q330.29688 27.881248 329.90625 27.474998Q329.51562 27.068748 328.875 27.068748Q328.07812 27.068748 327.67188 27.646873Q327.28125 28.209373 327.28125 29.506248L327.28125 29.740623Q327.28125 31.037498 327.67188 31.615623Q328.07812 32.178123 328.89062 32.178123ZM338.125 27.506248Q337.65625 27.443748 337.3125 27.443748Q336.03125 27.443748 335.625 28.318748L335.625 33.85L333.375 33.85L333.375 25.396873L335.5 25.396873L335.5625 26.396873Q336.25 25.240623 337.45312 25.240623Q337.82812 25.240623 338.15625 25.334373L338.125 27.506248ZM343.26562 34.00625Q341.40625 34.00625 340.23438 32.865623Q339.0625 31.724998 339.0625 29.818748L339.0625 29.599998Q339.0625 28.334373 339.54688 27.334373Q340.04688 26.318748 340.95312 25.787498Q341.85938 25.240623 343.01562 25.240623Q344.75 25.240623 345.73438 26.334373Q346.73438 27.428123 346.73438 29.428123L346.73438 30.349998L341.35938 30.349998Q341.46875 31.178123 342.01562 31.678123Q342.5625 32.178123 343.40625 32.178123Q344.71875 32.178123 345.45312 31.240623L346.5625 32.475Q346.04688 33.19375 345.17188 33.6Q344.3125 34.00625 343.26562 34.00625ZM343.0 27.068748Q342.32812 27.068748 341.90625 27.521873Q341.5 27.974998 341.375 28.818748L344.51562 28.818748L344.51562 28.631248Q344.5 27.881248 344.10938 27.474998Q343.71875 27.068748 343.0 27.068748ZM353.26562 33.85Q353.10938 33.5375 353.04688 33.084373Q352.21875 34.00625 350.90625 34.00625Q349.67188 34.00625 348.84375 33.2875Q348.03125 32.56875 348.03125 31.474998Q348.03125 30.131248 349.03125 29.412498Q350.03125 28.693748 351.90625 28.678123L352.95312 28.678123L352.95312 28.193748Q352.95312 27.615623 352.64062 27.271873Q352.34375 26.912498 351.70312 26.912498Q351.125 26.912498 350.79688 27.193748Q350.48438 27.459373 350.48438 27.928123L348.21875 27.928123Q348.21875 27.193748 348.67188 26.568748Q349.125 25.943748 349.95312 25.599998Q350.78125 25.240623 351.8125 25.240623Q353.375 25.240623 354.29688 26.021873Q355.21875 26.803123 355.21875 28.224998L355.21875 31.896873Q355.21875 33.1 355.54688 33.709373L355.54688 33.85L353.26562 33.85ZM351.40625 32.271873Q351.90625 32.271873 352.32812 32.053123Q352.75 31.834373 352.95312 31.459373L352.95312 30.006248L352.10938 30.006248Q350.40625 30.006248 350.29688 31.178123L350.29688 31.303123Q350.29688 31.724998 350.59375 32.00625Q350.89062 32.271873 351.40625 32.271873ZM360.07812 23.318748L360.07812 25.396873L361.51562 25.396873L361.51562 27.053123L360.07812 27.053123L360.07812 31.271873Q360.07812 31.740623 360.25 31.943748Q360.4375 32.146873 360.9375 32.146873Q361.3125 32.146873 361.60938 32.084373L361.60938 33.803123Q360.9375 34.00625 360.23438 34.00625Q357.85938 34.00625 357.8125 31.599998L357.8125 27.053123L356.57812 27.053123L356.57812 25.396873L357.8125 25.396873L357.8125 23.318748L360.07812 23.318748ZM364.75 33.85L362.48438 33.85L362.48438 25.396873L364.75 25.396873L364.75 33.85ZM362.35938 23.209373Q362.35938 22.693748 362.6875 22.365623Q363.03125 22.037498 363.625 22.037498Q364.20312 22.037498 364.54688 22.365623Q364.89062 22.693748 364.89062 23.209373Q364.89062 23.724998 364.53125 24.053123Q364.1875 24.381248 363.60938 24.381248Q363.04688 24.381248 362.70312 24.053123Q362.35938 23.724998 362.35938 23.209373ZM368.45312 25.396873L368.51562 26.365623Q369.42188 25.240623 370.95312 25.240623Q372.29688 25.240623 372.95312 26.037498Q373.60938 26.818748 373.625 28.381248L373.625 33.85L371.35938 33.85L371.35938 28.443748Q371.35938 27.724998 371.04688 27.396873Q370.73438 27.068748 370.01562 27.068748Q369.0625 27.068748 368.57812 27.881248L368.57812 33.85L366.32812 33.85L366.32812 25.396873L368.45312 25.396873ZM375.04688 29.553123Q375.04688 27.615623 375.96875 26.428123Q376.89062 25.240623 378.46875 25.240623Q379.85938 25.240623 380.625 26.193748L380.71875 25.396873L382.76562 25.396873L382.76562 33.56875Q382.76562 34.678123 382.26562 35.490623Q381.76562 36.31875 380.84375 36.740623Q379.9375 37.178123 378.70312 37.178123Q377.78125 37.178123 376.89062 36.803123Q376.01562 36.44375 375.5625 35.85L376.5625 34.475Q377.40625 35.428123 378.60938 35.428123Q379.5 35.428123 380.0 34.94375Q380.5 34.459373 380.5 33.56875L380.5 33.115623Q379.71875 34.00625 378.45312 34.00625Q376.92188 34.00625 375.98438 32.81875Q375.04688 31.615623 375.04688 29.646873L375.04688 29.553123ZM377.29688 29.724998Q377.29688 30.865623 377.75 31.521873Q378.21875 32.178123 379.03125 32.178123Q380.0625 32.178123 380.5 31.396873L380.5 27.849998Q380.04688 27.068748 379.04688 27.068748Q378.23438 27.068748 377.76562 27.740623Q377.29688 28.396873 377.29688 29.724998ZM393.26562 33.85Q393.10938 33.5375 393.04688 33.084373Q392.21875 34.00625 390.90625 34.00625Q389.67188 34.00625 388.84375 33.2875Q388.03125 32.56875 388.03125 31.474998Q388.03125 30.131248 389.03125 29.412498Q390.03125 28.693748 391.90625 28.678123L392.95312 28.678123L392.95312 28.193748Q392.95312 27.615623 392.64062 27.271873Q392.34375 26.912498 391.70312 26.912498Q391.125 26.912498 390.79688 27.193748Q390.48438 27.459373 390.48438 27.928123L388.21875 27.928123Q388.21875 27.193748 388.67188 26.568748Q389.125 25.943748 389.95312 25.599998Q390.78125 25.240623 391.8125 25.240623Q393.375 25.240623 394.29688 26.021873Q395.21875 26.803123 395.21875 28.224998L395.21875 31.896873Q395.21875 33.1 395.54688 33.709373L395.54688 33.85L393.26562 33.85ZM391.40625 32.271873Q391.90625 32.271873 392.32812 32.053123Q392.75 31.834373 392.95312 31.459373L392.95312 30.006248L392.10938 30.006248Q390.40625 30.006248 390.29688 31.178123L390.29688 31.303123Q390.29688 31.724998 390.59375 32.00625Q390.89062 32.271873 391.40625 32.271873ZM402.125 27.506248Q401.65625 27.443748 401.3125 27.443748Q400.03125 27.443748 399.625 28.318748L399.625 33.85L397.375 33.85L397.375 25.396873L399.5 25.396873L399.5625 26.396873Q400.25 25.240623 401.45312 25.240623Q401.82812 25.240623 402.15625 25.334373L402.125 27.506248ZM406.07812 23.318748L406.07812 25.396873L407.51562 25.396873L407.51562 27.053123L406.07812 27.053123L406.07812 31.271873Q406.07812 31.740623 406.25 31.943748Q406.4375 32.146873 406.9375 32.146873Q407.3125 32.146873 407.60938 32.084373L407.60938 33.803123Q406.9375 34.00625 406.23438 34.00625Q403.85938 34.00625 403.8125 31.599998L403.8125 27.053123L402.57812 27.053123L402.57812 25.396873L403.8125 25.396873L403.8125 23.318748L406.07812 23.318748ZM415.71875 30.771873L416.82812 25.396873L419.01562 25.396873L416.85938 33.85L414.96875 33.85L413.35938 28.521873L411.76562 33.85L409.875 33.85L407.71875 25.396873L409.90625 25.396873L411.0 30.771873L412.54688 25.396873L414.1875 25.396873L415.71875 30.771873ZM420.01562 29.537498Q420.01562 28.287498 420.5 27.303123Q420.98438 26.318748 421.89062 25.787498Q422.8125 25.240623 424.01562 25.240623Q425.71875 25.240623 426.79688 26.287498Q427.89062 27.334373 428.01562 29.131248L428.03125 29.709373Q428.03125 31.646873 426.9375 32.834373Q425.85938 34.00625 424.03125 34.00625Q422.20312 34.00625 421.10938 32.834373Q420.01562 31.662498 420.01562 29.646873L420.01562 29.537498ZM422.28125 29.709373Q422.28125 30.912498 422.73438 31.553123Q423.1875 32.178123 424.03125 32.178123Q424.84375 32.178123 425.29688 31.553123Q425.76562 30.928123 425.76562 29.537498Q425.76562 28.365623 425.29688 27.724998Q424.84375 27.068748 424.01562 27.068748Q423.1875 27.068748 422.73438 27.709373Q422.28125 28.349998 422.28125 29.709373ZM434.125 27.506248Q433.65625 27.443748 433.3125 27.443748Q432.03125 27.443748 431.625 28.318748L431.625 33.85L429.375 33.85L429.375 25.396873L431.5 25.396873L431.5625 26.396873Q432.25 25.240623 433.45312 25.240623Q433.82812 25.240623 434.15625 25.334373L434.125 27.506248ZM438.4375 30.459373L437.625 31.271873L437.625 33.85L435.375 33.85L435.375 21.849998L437.625 21.849998L437.625 28.490623L438.0625 27.928123L440.23438 25.396873L442.9375 25.396873L439.89062 28.912498L443.20312 33.85L440.60938 33.85L438.4375 30.459373ZM448.95312 31.506248Q448.95312 31.099998 448.53125 30.865623Q448.125 30.615623 447.21875 30.428123Q444.20312 29.803123 444.20312 27.865623Q444.20312 26.740623 445.14062 25.990623Q446.07812 25.240623 447.57812 25.240623Q449.1875 25.240623 450.15625 26.006248Q451.125 26.756248 451.125 27.959373L448.85938 27.959373Q448.85938 27.474998 448.54688 27.162498Q448.23438 26.849998 447.57812 26.849998Q447.0 26.849998 446.6875 27.115623Q446.375 27.365623 446.375 27.756248Q446.375 28.131248 446.73438 28.365623Q447.09375 28.599998 447.9375 28.771873Q448.78125 28.928123 449.35938 29.146873Q451.14062 29.803123 451.14062 31.412498Q451.14062 32.56875 450.14062 33.2875Q449.15625 34.00625 447.59375 34.00625Q446.53125 34.00625 445.70312 33.63125Q444.875 33.240623 444.40625 32.584373Q443.9375 31.928123 443.9375 31.162498L446.07812 31.162498Q446.10938 31.756248 446.51562 32.084373Q446.9375 32.396873 447.64062 32.396873Q448.28125 32.396873 448.60938 32.1625Q448.95312 31.912498 448.95312 31.506248ZM454.21875 30.349998Q454.21875 29.256248 454.48438 28.615623Q454.75 27.959373 455.45312 27.334373Q456.15625 26.709373 456.39062 26.318748Q456.625 25.912498 456.625 25.474998Q456.625 24.162498 455.40625 24.162498Q454.82812 24.162498 454.48438 24.521873Q454.14062 24.865623 454.125 25.490623L451.85938 25.490623Q451.875 24.006248 452.8125 23.162498Q453.76562 22.318748 455.40625 22.318748Q457.0625 22.318748 457.96875 23.115623Q458.89062 23.912498 458.89062 25.381248Q458.89062 26.037498 458.59375 26.631248Q458.29688 27.224998 457.5625 27.943748L456.92188 28.537498Q456.32812 29.115623 456.25 29.881248L456.21875 30.349998L454.21875 30.349998ZM453.98438 32.75625Q453.98438 32.225 454.34375 31.896873Q454.70312 31.553123 455.25 31.553123Q455.8125 31.553123 456.15625 31.896873Q456.51562 32.225 456.51562 32.75625Q456.51562 33.271873 456.17188 33.615623Q455.82812 33.94375 455.25 33.94375Q454.6875 33.94375 454.32812 33.615623Q453.98438 33.271873 453.98438 32.75625Z" fill-rule="nonzero"/></svg>