<svg version="1.1" viewBox="0.0 0.0 531.0 377.0" fill="none" stroke="none" stroke-linecap="square" stroke-miterlimit="10" width="531" height="377" xmlns:xlink="http://www.w3.org/1999/xlink" xmlns="http://www.w3.org/2000/svg"><path fill="#ffffff" d="M0 0L531.0 0L531.0 377.0L0 377.0L0 0Z" fill-rule="nonzero"/><path fill="#fce5cd" d="M265.5 71.64016C316.68005 71.64016 363.97238 98.9444 389.5624 143.26762L265.5 214.89508Z" fill-rule="nonzero"/><path fill="#f6b26b" d="M389.5624 143.26762C421.98138 199.41896 412.64392 270.34424 366.79654 316.19162C320.94913 362.039 250.02388 371.37646 193.87254 338.9575C137.72119 306.53848 110.34507 240.44667 127.12637 177.81798C143.90768 115.18929 200.662 71.64016 265.5 71.64016L265.5 214.89508Z" fill-rule="nonzero"/><path fill="#1a1a1a" d="M24.119875 328.25436L22.35425 328.25436L18.932375 322.645L18.932375 328.25436L17.182375 328.25436L17.182375 319.7231L18.932375 319.7231L22.369875 325.3481L22.369875 319.7231L24.119875 319.7231L24.119875 328.25436ZM24.807375 325.02Q24.807375 324.0825 25.16675 323.3481Q25.526125 322.5981 26.213625 322.2075Q26.901125 321.80124 27.79175 321.80124Q29.088625 321.80124 29.8855 322.5825Q30.698 323.36374 30.79175 324.7075L30.807375 325.145Q30.807375 326.61374 29.994875 327.50436Q29.182375 328.37936 27.807375 328.37936Q26.432375 328.37936 25.619875 327.50436Q24.807375 326.61374 24.807375 325.0981L24.807375 325.02ZM26.494875 325.145Q26.494875 326.05124 26.838625 326.5356Q27.182375 327.00436 27.807375 327.00436Q28.432375 327.00436 28.776125 326.5356Q29.119875 326.06686 29.119875 325.02Q29.119875 324.145 28.776125 323.6606Q28.432375 323.1606 27.79175 323.1606Q27.182375 323.1606 26.838625 323.645Q26.494875 324.12936 26.494875 325.145Z" fill-rule="nonzero"/><path fill="#9e9e9e" d="M22.557375 339.98874Q22.557375 340.61374 22.244875 341.0981Q21.932375 341.56686 21.3855 341.86374Q22.0105 342.1606 22.369875 342.69186Q22.744875 343.2075 22.744875 343.9106Q22.744875 345.05124 21.963625 345.7231Q21.198 346.37936 19.85425 346.37936Q18.526125 346.37936 17.744875 345.7231Q16.97925 345.05124 16.97925 343.9106Q16.97925 343.2075 17.338625 342.67624Q17.698 342.145 18.323 341.86374Q17.776125 341.56686 17.463625 341.0981Q17.151125 340.61374 17.151125 339.98874Q17.151125 338.895 17.869875 338.25436Q18.60425 337.5981 19.85425 337.5981Q21.10425 337.5981 21.823 338.25436Q22.557375 338.895 22.557375 339.98874ZM21.04175 343.7856Q21.04175 343.23874 20.713625 342.9106Q20.401125 342.56686 19.85425 342.56686Q19.307375 342.56686 18.97925 342.895Q18.66675 343.2231 18.66675 343.7856Q18.66675 344.3325 18.97925 344.67624Q19.307375 345.00436 19.869875 345.00436Q20.41675 345.00436 20.72925 344.69186Q21.04175 344.36374 21.04175 343.7856ZM20.869875 340.06686Q20.869875 339.56686 20.60425 339.27Q20.338625 338.9731 19.85425 338.9731Q19.3855 338.9731 19.119875 339.27Q18.85425 339.55124 18.85425 340.06686Q18.85425 340.5825 19.119875 340.895Q19.3855 341.2075 19.85425 341.2075Q20.338625 341.2075 20.60425 340.895Q20.869875 340.5825 20.869875 340.06686ZM25.713625 341.23874L26.619875 341.23874Q27.2605 341.23874 27.573 340.92624Q27.8855 340.5981 27.8855 340.06686Q27.8855 339.55124 27.573 339.27Q27.276125 338.9731 26.72925 338.9731Q26.244875 338.9731 25.91675 339.23874Q25.588625 339.50436 25.588625 339.92624L23.901125 339.92624Q23.901125 339.27 24.2605 338.73874Q24.619875 338.2075 25.2605 337.9106Q25.91675 337.5981 26.698 337.5981Q28.04175 337.5981 28.807375 338.25436Q29.588625 338.895 29.588625 340.0356Q29.588625 340.62936 29.22925 341.12936Q28.869875 341.61374 28.29175 341.86374Q29.0105 342.12936 29.35425 342.645Q29.713625 343.1606 29.713625 343.86374Q29.713625 345.00436 28.8855 345.69186Q28.057375 346.37936 26.698 346.37936Q25.41675 346.37936 24.60425 345.7075Q23.79175 345.02 23.79175 343.9106L25.47925 343.9106Q25.47925 344.395 25.838625 344.7075Q26.213625 345.00436 26.72925 345.00436Q27.338625 345.00436 27.682375 344.69186Q28.026125 344.36374 28.026125 343.8325Q28.026125 342.56686 26.619875 342.56686L25.713625 342.56686L25.713625 341.23874ZM31.151125 345.42624Q31.151125 345.02 31.41675 344.77Q31.698 344.52 32.104248 344.52Q32.526123 344.52 32.791748 344.77Q33.072998 345.02 33.072998 345.42624Q33.072998 345.81686 32.791748 346.06686Q32.526123 346.31686 32.104248 346.31686Q31.698 346.31686 31.41675 346.06686Q31.151125 345.81686 31.151125 345.42624ZM35.713623 341.23874L36.619873 341.23874Q37.260498 341.23874 37.572998 340.92624Q37.885498 340.5981 37.885498 340.06686Q37.885498 339.55124 37.572998 339.27Q37.276123 338.9731 36.729248 338.9731Q36.244873 338.9731 35.916748 339.23874Q35.588623 339.50436 35.588623 339.92624L33.901123 339.92624Q33.901123 339.27 34.260498 338.73874Q34.619873 338.2075 35.260498 337.9106Q35.916748 337.5981 36.697998 337.5981Q38.041748 337.5981 38.807373 338.25436Q39.588623 338.895 39.588623 340.0356Q39.588623 340.62936 39.229248 341.12936Q38.869873 341.61374 38.291748 341.86374Q39.010498 342.12936 39.354248 342.645Q39.713623 343.1606 39.713623 343.86374Q39.713623 345.00436 38.885498 345.69186Q38.057373 346.37936 36.697998 346.37936Q35.416748 346.37936 34.604248 345.7075Q33.791748 345.02 33.791748 343.9106L35.479248 343.9106Q35.479248 344.395 35.838623 344.7075Q36.213623 345.00436 36.729248 345.00436Q37.338623 345.00436 37.682373 344.69186Q38.026123 344.36374 38.026123 343.8325Q38.026123 342.56686 36.619873 342.56686L35.713623 342.56686L35.713623 341.23874ZM40.979248 339.36374Q40.979248 338.5825 41.479248 338.0981Q41.994873 337.5981 42.822998 337.5981Q43.651123 337.5981 44.166748 338.0825Q44.682373 338.56686 44.682373 339.395L44.682373 339.81686Q44.682373 340.5981 44.166748 341.0825Q43.651123 341.56686 42.838623 341.56686Q41.994873 341.56686 41.479248 341.0825Q40.979248 340.5981 40.979248 339.7856L40.979248 339.36374ZM42.104248 339.81686Q42.104248 340.1606 42.307373 340.37936Q42.510498 340.5981 42.838623 340.5981Q43.166748 340.5981 43.354248 340.37936Q43.541748 340.1606 43.541748 339.80124L43.541748 339.36374Q43.541748 339.00436 43.354248 338.80124Q43.166748 338.5825 42.822998 338.5825Q42.494873 338.5825 42.291748 338.80124Q42.104248 339.00436 42.104248 339.37936L42.104248 339.81686ZM45.057373 344.1606Q45.057373 343.36374 45.572998 342.895Q46.088623 342.4106 46.901123 342.4106Q47.729248 342.4106 48.244873 342.895Q48.760498 343.36374 48.760498 344.19186L48.760498 344.61374Q48.760498 345.4106 48.260498 345.895Q47.760498 346.37936 46.916748 346.37936Q46.072998 346.37936 45.557373 345.895Q45.057373 345.395 45.057373 344.5981L45.057373 344.1606ZM46.182373 344.61374Q46.182373 344.94186 46.385498 345.17624Q46.604248 345.395 46.916748 345.395Q47.635498 345.395 47.635498 344.61374L47.635498 344.1606Q47.635498 343.81686 47.432373 343.5981Q47.229248 343.37936 46.901123 343.37936Q46.572998 343.37936 46.369873 343.5981Q46.182373 343.81686 46.182373 344.17624L46.182373 344.61374ZM43.166748 345.61374L42.338623 345.17624L46.510498 338.50436L47.338623 338.94186L43.166748 345.61374Z" fill-rule="nonzero"/><path stroke="#757575" stroke-width="1.0" stroke-linecap="butt" d="M16.41675 332.75436L116.24508 332.75436L197.45392 332.75436" fill-rule="nonzero"/><path fill="#9e9e9e" d="M199.45392 332.75436C199.45392 331.64978 198.55849 330.75436 197.45392 330.75436C196.34935 330.75436 195.45392 331.64978 195.45392 332.75436C195.45392 333.85892 196.34935 334.75436 197.45392 334.75436C198.55849 334.75436 199.45392 333.85892 199.45392 332.75436" fill-rule="nonzero"/><path fill="#1a1a1a" d="M499.28638 87.848305L501.06763 84.004555L502.9895 84.004555L500.177 89.442055L500.177 92.535805L498.39575 92.535805L498.39575 89.442055L495.59888 84.004555L497.52075 84.004555L499.28638 87.848305ZM506.14575 92.660805Q504.75513 92.660805 503.88013 91.80143Q503.00513 90.942055 503.00513 89.52018L503.00513 89.348305Q503.00513 88.39518 503.3645 87.64518Q503.7395 86.89518 504.41138 86.48893Q505.09888 86.08268 505.95825 86.08268Q507.27075 86.08268 508.00513 86.910805Q508.75513 87.723305 508.75513 89.223305L508.75513 89.910805L504.72388 89.910805Q504.802 90.535805 505.20825 90.910805Q505.63013 91.285805 506.27075 91.285805Q507.2395 91.285805 507.78638 90.58268L508.63013 91.504555Q508.2395 92.05143 507.58325 92.36393Q506.94263 92.660805 506.14575 92.660805ZM505.95825 87.442055Q505.45825 87.442055 505.14575 87.785805Q504.83325 88.129555 504.7395 88.754555L507.09888 88.754555L507.09888 88.629555Q507.08325 88.067055 506.78638 87.754555Q506.50513 87.442055 505.95825 87.442055ZM512.6614 90.785805Q512.6614 90.473305 512.3489 90.30143Q512.052 90.11393 511.38013 89.973305Q509.1145 89.504555 509.1145 88.05143Q509.1145 87.20768 509.802 86.64518Q510.50513 86.08268 511.64575 86.08268Q512.8489 86.08268 513.5676 86.64518Q514.302 87.20768 514.302 88.129555L512.5989 88.129555Q512.5989 87.754555 512.3645 87.52018Q512.1301 87.285805 511.63013 87.285805Q511.20825 87.285805 510.97388 87.48893Q510.7395 87.67643 510.7395 87.973305Q510.7395 88.254555 511.00513 88.42643Q511.27075 88.598305 511.89575 88.723305Q512.5364 88.848305 512.9739 89.004555Q514.3176 89.504555 514.3176 90.70768Q514.3176 91.58268 513.5676 92.129555Q512.83325 92.660805 511.64575 92.660805Q510.84888 92.660805 510.22388 92.379555Q509.6145 92.08268 509.25513 91.598305Q508.91138 91.098305 508.91138 90.52018L510.52075 90.52018Q510.53638 90.973305 510.84888 91.223305Q511.16138 91.45768 511.677 91.45768Q512.177 91.45768 512.4114 91.27018Q512.6614 91.08268 512.6614 90.785805Z" fill-rule="nonzero"/><path fill="#9e9e9e" d="M486.27075 110.535805L484.58325 110.535805L484.58325 104.004555L482.56763 104.629555L482.56763 103.254555L486.09888 101.98893L486.27075 101.98893L486.27075 110.535805ZM493.75513 101.910805L493.75513 103.317055L493.59888 103.317055Q492.44263 103.33268 491.7395 103.910805Q491.052 104.48893 490.91138 105.52018Q491.58325 104.83268 492.6145 104.83268Q493.7395 104.83268 494.39575 105.629555Q495.052 106.42643 495.052 107.723305Q495.052 108.55143 494.69263 109.223305Q494.33325 109.89518 493.66138 110.285805Q493.00513 110.660805 492.177 110.660805Q490.83325 110.660805 490.00513 109.723305Q489.177 108.77018 489.177 107.20768L489.177 106.598305Q489.177 105.20768 489.69263 104.14518Q490.22388 103.08268 491.19263 102.504555Q492.177 101.92643 493.47388 101.910805L493.75513 101.910805ZM492.09888 106.192055Q491.69263 106.192055 491.34888 106.410805Q491.02075 106.61393 490.8645 106.973305L490.8645 107.48893Q490.8645 108.33268 491.19263 108.817055Q491.53638 109.285805 492.14575 109.285805Q492.69263 109.285805 493.02075 108.86393Q493.3645 108.42643 493.3645 107.73893Q493.3645 107.035805 493.02075 106.61393Q492.677 106.192055 492.09888 106.192055ZM496.31763 109.70768Q496.31763 109.30143 496.58325 109.05143Q496.8645 108.80143 497.27075 108.80143Q497.69263 108.80143 497.95825 109.05143Q498.2395 109.30143 498.2395 109.70768Q498.2395 110.098305 497.95825 110.348305Q497.69263 110.598305 497.27075 110.598305Q496.8645 110.598305 496.58325 110.348305Q496.31763 110.098305 496.31763 109.70768ZM504.95825 102.95768L501.66138 110.535805L499.88013 110.535805L503.177 103.379555L498.94263 103.379555L498.94263 102.004555L504.95825 102.004555L504.95825 102.95768ZM506.14575 103.64518Q506.14575 102.86393 506.64575 102.379555Q507.16138 101.879555 507.9895 101.879555Q508.81763 101.879555 509.33325 102.36393Q509.84888 102.848305 509.84888 103.67643L509.84888 104.098305Q509.84888 104.879555 509.33325 105.36393Q508.81763 105.848305 508.00513 105.848305Q507.16138 105.848305 506.64575 105.36393Q506.14575 104.879555 506.14575 104.067055L506.14575 103.64518ZM507.27075 104.098305Q507.27075 104.442055 507.47388 104.660805Q507.677 104.879555 508.00513 104.879555Q508.33325 104.879555 508.52075 104.660805Q508.70825 104.442055 508.70825 104.08268L508.70825 103.64518Q508.70825 103.285805 508.52075 103.08268Q508.33325 102.86393 507.9895 102.86393Q507.66138 102.86393 507.45825 103.08268Q507.27075 103.285805 507.27075 103.660805L507.27075 104.098305ZM510.22388 108.442055Q510.22388 107.64518 510.7395 107.17643Q511.25513 106.692055 512.0676 106.692055Q512.89575 106.692055 513.4114 107.17643Q513.927 107.64518 513.927 108.473305L513.927 108.89518Q513.927 109.692055 513.427 110.17643Q512.927 110.660805 512.08325 110.660805Q511.2395 110.660805 510.72388 110.17643Q510.22388 109.67643 510.22388 108.879555L510.22388 108.442055ZM511.34888 108.89518Q511.34888 109.223305 511.552 109.45768Q511.77075 109.67643 512.08325 109.67643Q512.802 109.67643 512.802 108.89518L512.802 108.442055Q512.802 108.098305 512.5989 107.879555Q512.39575 107.660805 512.0676 107.660805Q511.7395 107.660805 511.53638 107.879555Q511.34888 108.098305 511.34888 108.45768L511.34888 108.89518ZM508.33325 109.89518L507.50513 109.45768L511.677 102.785805L512.5051 103.223305L508.33325 109.89518Z" fill-rule="nonzero"/><path stroke="#757575" stroke-width="1.0" stroke-linecap="butt" d="M514.58325 97.035805L414.7549 97.035805L333.54608 97.035805" fill-rule="nonzero"/><path fill="#9e9e9e" d="M335.54608 97.035805C335.54608 95.93123 334.65067 95.035805 333.54608 95.035805C332.44153 95.035805 331.54608 95.93123 331.54608 97.035805C331.54608 98.14037 332.44153 99.035805 333.54608 99.035805C334.65067 99.035805 335.54608 98.14037 335.54608 97.035805" fill-rule="nonzero"/><path fill="#757575" d="M36.515625 33.85L36.515625 22.474998L40.015625 22.474998Q41.515625 22.474998 42.703125 23.146873Q43.890625 23.818748 44.546875 25.068748Q45.21875 26.318748 45.21875 27.896873L45.21875 28.428123Q45.21875 30.006248 44.5625 31.240623Q43.90625 32.475 42.71875 33.1625Q41.53125 33.834373 40.046875 33.85L36.515625 33.85ZM38.859375 24.365623L38.859375 31.959373L40.0 31.959373Q41.375 31.959373 42.09375 31.068748Q42.828125 30.162498 42.84375 28.490623L42.84375 27.896873Q42.84375 26.162498 42.125 25.271873Q41.40625 24.365623 40.015625 24.365623L38.859375 24.365623ZM46.015625 29.537498Q46.015625 28.287498 46.5 27.303123Q46.984375 26.318748 47.890625 25.787498Q48.8125 25.240623 50.015625 25.240623Q51.71875 25.240623 52.796875 26.287498Q53.890625 27.334373 54.015625 29.131248L54.03125 29.709373Q54.03125 31.646873 52.9375 32.834373Q51.859375 34.00625 50.03125 34.00625Q48.203125 34.00625 47.109375 32.834373Q46.015625 31.662498 46.015625 29.646873L46.015625 29.537498ZM48.28125 29.709373Q48.28125 30.912498 48.734375 31.553123Q49.1875 32.178123 50.03125 32.178123Q50.84375 32.178123 51.296875 31.553123Q51.765625 30.928123 51.765625 29.537498Q51.765625 28.365623 51.296875 27.724998Q50.84375 27.068748 50.015625 27.068748Q49.1875 27.068748 48.734375 27.709373Q48.28125 28.349998 48.28125 29.709373ZM62.53125 30.646873L64.09375 25.396873L66.515625 25.396873L63.109375 35.1625L62.921875 35.615623Q62.171875 37.271873 60.421875 37.271873Q59.9375 37.271873 59.421875 37.115623L59.421875 35.4125L59.765625 35.4125Q60.40625 35.4125 60.71875 35.209373Q61.046875 35.021873 61.21875 34.56875L61.484375 33.88125L58.53125 25.396873L60.953125 25.396873L62.53125 30.646873ZM67.015625 29.537498Q67.015625 28.287498 67.5 27.303123Q67.984375 26.318748 68.890625 25.787498Q69.8125 25.240623 71.015625 25.240623Q72.71875 25.240623 73.796875 26.287498Q74.890625 27.334373 75.015625 29.131248L75.03125 29.709373Q75.03125 31.646873 73.9375 32.834373Q72.859375 34.00625 71.03125 34.00625Q69.203125 34.00625 68.109375 32.834373Q67.015625 31.662498 67.015625 29.646873L67.015625 29.537498ZM69.28125 29.709373Q69.28125 30.912498 69.734375 31.553123Q70.1875 32.178123 71.03125 32.178123Q71.84375 32.178123 72.296875 31.553123Q72.765625 30.928123 72.765625 29.537498Q72.765625 28.365623 72.296875 27.724998Q71.84375 27.068748 71.015625 27.068748Q70.1875 27.068748 69.734375 27.709373Q69.28125 28.349998 69.28125 29.709373ZM81.4375 32.990623Q80.59375 34.00625 79.125 34.00625Q77.765625 34.00625 77.046875 33.225Q76.328125 32.44375 76.3125 30.928123L76.3125 25.396873L78.578125 25.396873L78.578125 30.849998Q78.578125 32.178123 79.78125 32.178123Q80.921875 32.178123 81.359375 31.381248L81.359375 25.396873L83.625 25.396873L83.625 33.85L81.5 33.85L81.4375 32.990623ZM89.984375 33.85L89.984375 27.053123L88.734375 27.053123L88.734375 25.396873L89.984375 25.396873L89.984375 24.678123Q89.984375 23.256248 90.796875 22.474998Q91.625 21.678123 93.09375 21.678123Q93.5625 21.678123 94.234375 21.834373L94.21875 23.584373Q93.9375 23.521873 93.53125 23.521873Q92.25 23.521873 92.25 24.709373L92.25 25.396873L93.9375 25.396873L93.9375 27.053123L92.25 27.053123L92.25 33.85L89.984375 33.85ZM99.265625 34.00625Q97.40625 34.00625 96.234375 32.865623Q95.0625 31.724998 95.0625 29.818748L95.0625 29.599998Q95.0625 28.334373 95.546875 27.334373Q96.046875 26.318748 96.953125 25.787498Q97.859375 25.240623 99.015625 25.240623Q100.75 25.240623 101.734375 26.334373Q102.734375 27.428123 102.734375 29.428123L102.734375 30.349998L97.359375 30.349998Q97.46875 31.178123 98.015625 31.678123Q98.5625 32.178123 99.40625 32.178123Q100.71875 32.178123 101.453125 31.240623L102.5625 32.475Q102.046875 33.19375 101.171875 33.6Q100.3125 34.00625 99.265625 34.00625ZM99.0 27.068748Q98.328125 27.068748 97.90625 27.521873Q97.5 27.974998 97.375 28.818748L100.515625 28.818748L100.515625 28.631248Q100.5 27.881248 100.109375 27.474998Q99.71875 27.068748 99.0 27.068748ZM108.265625 34.00625Q106.40625 34.00625 105.234375 32.865623Q104.0625 31.724998 104.0625 29.818748L104.0625 29.599998Q104.0625 28.334373 104.546875 27.334373Q105.046875 26.318748 105.953125 25.787498Q106.859375 25.240623 108.015625 25.240623Q109.75 25.240623 110.734375 26.334373Q111.734375 27.428123 111.734375 29.428123L111.734375 30.349998L106.359375 30.349998Q106.46875 31.178123 107.015625 31.678123Q107.5625 32.178123 108.40625 32.178123Q109.71875 32.178123 110.453125 31.240623L111.5625 32.475Q111.046875 33.19375 110.171875 33.6Q109.3125 34.00625 108.265625 34.00625ZM108.0 27.068748Q107.328125 27.068748 106.90625 27.521873Q106.5 27.974998 106.375 28.818748L109.515625 28.818748L109.515625 28.631248Q109.5 27.881248 109.109375 27.474998Q108.71875 27.068748 108.0 27.068748ZM115.75 33.85L113.484375 33.85L113.484375 21.849998L115.75 21.849998L115.75 33.85ZM124.53125 30.646873L126.09375 25.396873L128.51562 25.396873L125.109375 35.1625L124.921875 35.615623Q124.171875 37.271873 122.421875 37.271873Q121.9375 37.271873 121.421875 37.115623L121.421875 35.4125L121.765625 35.4125Q122.40625 35.4125 122.71875 35.209373Q123.046875 35.021873 123.21875 34.56875L123.484375 33.88125L120.53125 25.396873L122.953125 25.396873L124.53125 30.646873ZM129.01562 29.537498Q129.01562 28.287498 129.5 27.303123Q129.98438 26.318748 130.89062 25.787498Q131.8125 25.240623 133.01562 25.240623Q134.71875 25.240623 135.79688 26.287498Q136.89062 27.334373 137.01562 29.131248L137.03125 29.709373Q137.03125 31.646873 135.9375 32.834373Q134.85938 34.00625 133.03125 34.00625Q131.20312 34.00625 130.10938 32.834373Q129.01562 31.662498 129.01562 29.646873L129.01562 29.537498ZM131.28125 29.709373Q131.28125 30.912498 131.73438 31.553123Q132.1875 32.178123 133.03125 32.178123Q133.84375 32.178123 134.29688 31.553123Q134.76562 30.928123 134.76562 29.537498Q134.76562 28.365623 134.29688 27.724998Q133.84375 27.068748 133.01562 27.068748Q132.1875 27.068748 131.73438 27.709373Q131.28125 28.349998 131.28125 29.709373ZM143.4375 32.990623Q142.59375 34.00625 141.125 34.00625Q139.76562 34.00625 139.04688 33.225Q138.32812 32.44375 138.3125 30.928123L138.3125 25.396873L140.57812 25.396873L140.57812 30.849998Q140.57812 32.178123 141.78125 32.178123Q142.92188 32.178123 143.35938 31.381248L143.35938 25.396873L145.625 25.396873L145.625 33.85L143.5 33.85L143.4375 32.990623ZM152.125 27.506248Q151.65625 27.443748 151.3125 27.443748Q150.03125 27.443748 149.625 28.318748L149.625 33.85L147.375 33.85L147.375 25.396873L149.5 25.396873L149.5625 26.396873Q150.25 25.240623 151.45312 25.240623Q151.82812 25.240623 152.15625 25.334373L152.125 27.506248ZM164.71875 30.771873L165.82812 25.396873L168.01562 25.396873L165.85938 33.85L163.96875 33.85L162.35938 28.521873L160.76562 33.85L158.875 33.85L156.71875 25.396873L158.90625 25.396873L160.0 30.771873L161.54688 25.396873L163.1875 25.396873L164.71875 30.771873ZM169.01562 29.537498Q169.01562 28.287498 169.5 27.303123Q169.98438 26.318748 170.89062 25.787498Q171.8125 25.240623 173.01562 25.240623Q174.71875 25.240623 175.79688 26.287498Q176.89062 27.334373 177.01562 29.131248L177.03125 29.709373Q177.03125 31.646873 175.9375 32.834373Q174.85938 34.00625 173.03125 34.00625Q171.20312 34.00625 170.10938 32.834373Q169.01562 31.662498 169.01562 29.646873L169.01562 29.537498ZM171.28125 29.709373Q171.28125 30.912498 171.73438 31.553123Q172.1875 32.178123 173.03125 32.178123Q173.84375 32.178123 174.29688 31.553123Q174.76562 30.928123 174.76562 29.537498Q174.76562 28.365623 174.29688 27.724998Q173.84375 27.068748 173.01562 27.068748Q172.1875 27.068748 171.73438 27.709373Q171.28125 28.349998 171.28125 29.709373ZM183.125 27.506248Q182.65625 27.443748 182.3125 27.443748Q181.03125 27.443748 180.625 28.318748L180.625 33.85L178.375 33.85L178.375 25.396873L180.5 25.396873L180.5625 26.396873Q181.25 25.240623 182.45312 25.240623Q182.82812 25.240623 183.15625 25.334373L183.125 27.506248ZM187.4375 30.459373L186.625 31.271873L186.625 33.85L184.375 33.85L184.375 21.849998L186.625 21.849998L186.625 28.490623L187.0625 27.928123L189.23438 25.396873L191.9375 25.396873L188.89062 28.912498L192.20312 33.85L189.60938 33.85L187.4375 30.459373ZM199.75 33.85L197.48438 33.85L197.48438 25.396873L199.75 25.396873L199.75 33.85ZM197.35938 23.209373Q197.35938 22.693748 197.6875 22.365623Q198.03125 22.037498 198.625 22.037498Q199.20312 22.037498 199.54688 22.365623Q199.89062 22.693748 199.89062 23.209373Q199.89062 23.724998 199.53125 24.053123Q199.1875 24.381248 198.60938 24.381248Q198.04688 24.381248 197.70312 24.053123Q197.35938 23.724998 197.35938 23.209373ZM205.95312 31.506248Q205.95312 31.099998 205.53125 30.865623Q205.125 30.615623 204.21875 30.428123Q201.20312 29.803123 201.20312 27.865623Q201.20312 26.740623 202.14062 25.990623Q203.07812 25.240623 204.57812 25.240623Q206.1875 25.240623 207.15625 26.006248Q208.125 26.756248 208.125 27.959373L205.85938 27.959373Q205.85938 27.474998 205.54688 27.162498Q205.23438 26.849998 204.57812 26.849998Q204.0 26.849998 203.6875 27.115623Q203.375 27.365623 203.375 27.756248Q203.375 28.131248 203.73438 28.365623Q204.09375 28.599998 204.9375 28.771873Q205.78125 28.928123 206.35938 29.146873Q208.14062 29.803123 208.14062 31.412498Q208.14062 32.56875 207.14062 33.2875Q206.15625 34.00625 204.59375 34.00625Q203.53125 34.00625 202.70312 33.63125Q201.875 33.240623 201.40625 32.584373Q200.9375 31.928123 200.9375 31.162498L203.07812 31.162498Q203.10938 31.756248 203.51562 32.084373Q203.9375 32.396873 204.64062 32.396873Q205.28125 32.396873 205.60938 32.1625Q205.95312 31.912498 205.95312 31.506248ZM218.4375 32.990623Q217.59375 34.00625 216.125 34.00625Q214.76562 34.00625 214.04688 33.225Q213.32812 32.44375 213.3125 30.928123L213.3125 25.396873L215.57812 25.396873L215.57812 30.849998Q215.57812 32.178123 216.78125 32.178123Q217.92188 32.178123 218.35938 31.381248L218.35938 25.396873L220.625 25.396873L220.625 33.85L218.5 33.85L218.4375 32.990623ZM224.45312 25.396873L224.51562 26.365623Q225.42188 25.240623 226.95312 25.240623Q228.29688 25.240623 228.95312 26.037498Q229.60938 26.818748 229.625 28.381248L229.625 33.85L227.35938 33.85L227.35938 28.443748Q227.35938 27.724998 227.04688 27.396873Q226.73438 27.068748 226.01562 27.068748Q225.0625 27.068748 224.57812 27.881248L224.57812 33.85L222.32812 33.85L222.32812 25.396873L224.45312 25.396873ZM231.01562 29.553123Q231.01562 27.584373 231.90625 26.412498Q232.79688 25.240623 234.32812 25.240623Q235.5625 25.240623 236.375 26.162498L236.375 21.849998L238.64062 21.849998L238.64062 33.85L236.59375 33.85L236.48438 32.94375Q235.64062 34.00625 234.3125 34.00625Q232.82812 34.00625 231.92188 32.834373Q231.01562 31.646873 231.01562 29.553123ZM233.28125 29.724998Q233.28125 30.912498 233.6875 31.553123Q234.10938 32.178123 234.89062 32.178123Q235.9375 32.178123 236.375 31.287498L236.375 27.959373Q235.95312 27.068748 234.90625 27.068748Q233.28125 27.068748 233.28125 29.724998ZM244.26562 34.00625Q242.40625 34.00625 241.23438 32.865623Q240.0625 31.724998 240.0625 29.818748L240.0625 29.599998Q240.0625 28.334373 240.54688 27.334373Q241.04688 26.318748 241.95312 25.787498Q242.85938 25.240623 244.01562 25.240623Q245.75 25.240623 246.73438 26.334373Q247.73438 27.428123 247.73438 29.428123L247.73438 30.349998L242.35938 30.349998Q242.46875 31.178123 243.01562 31.678123Q243.5625 32.178123 244.40625 32.178123Q245.71875 32.178123 246.45312 31.240623L247.5625 32.475Q247.04688 33.19375 246.17188 33.6Q245.3125 34.00625 244.26562 34.00625ZM244.0 27.068748Q243.32812 27.068748 242.90625 27.521873Q242.5 27.974998 242.375 28.818748L245.51562 28.818748L245.51562 28.631248Q245.5 27.881248 245.10938 27.474998Q244.71875 27.068748 244.0 27.068748ZM254.125 27.506248Q253.65625 27.443748 253.3125 27.443748Q252.03125 27.443748 251.625 28.318748L251.625 33.85L249.375 33.85L249.375 25.396873L251.5 25.396873L251.5625 26.396873Q252.25 25.240623 253.45312 25.240623Q253.82812 25.240623 254.15625 25.334373L254.125 27.506248ZM259.95312 31.506248Q259.95312 31.099998 259.53125 30.865623Q259.125 30.615623 258.21875 30.428123Q255.20312 29.803123 255.20312 27.865623Q255.20312 26.740623 256.14062 25.990623Q257.07812 25.240623 258.57812 25.240623Q260.1875 25.240623 261.15625 26.006248Q262.125 26.756248 262.125 27.959373L259.85938 27.959373Q259.85938 27.474998 259.54688 27.162498Q259.23438 26.849998 258.57812 26.849998Q258.0 26.849998 257.6875 27.115623Q257.375 27.365623 257.375 27.756248Q257.375 28.131248 257.73438 28.365623Q258.09375 28.599998 258.9375 28.771873Q259.78125 28.928123 260.35938 29.146873Q262.14062 29.803123 262.14062 31.412498Q262.14062 32.56875 261.14062 33.2875Q260.15625 34.00625 258.59375 34.00625Q257.53125 34.00625 256.70312 33.63125Q255.875 33.240623 255.40625 32.584373Q254.9375 31.928123 254.9375 31.162498L257.07812 31.162498Q257.10938 31.756248 257.51562 32.084373Q257.9375 32.396873 258.64062 32.396873Q259.28125 32.396873 259.60938 32.1625Q259.95312 31.912498 259.95312 31.506248ZM266.07812 23.318748L266.07812 25.396873L267.51562 25.396873L267.51562 27.053123L266.07812 27.053123L266.07812 31.271873Q266.07812 31.740623 266.25 31.943748Q266.4375 32.146873 266.9375 32.146873Q267.3125 32.146873 267.60938 32.084373L267.60938 33.803123Q266.9375 34.00625 266.23438 34.00625Q263.85938 34.00625 263.8125 31.599998L263.8125 27.053123L262.57812 27.053123L262.57812 25.396873L263.8125 25.396873L263.8125 23.318748L266.07812 23.318748ZM268.01562 29.537498Q268.01562 28.287498 268.5 27.303123Q268.98438 26.318748 269.89062 25.787498Q270.8125 25.240623 272.01562 25.240623Q273.71875 25.240623 274.79688 26.287498Q275.89062 27.334373 276.01562 29.131248L276.03125 29.709373Q276.03125 31.646873 274.9375 32.834373Q273.85938 34.00625 272.03125 34.00625Q270.20312 34.00625 269.10938 32.834373Q268.01562 31.662498 268.01562 29.646873L268.01562 29.537498ZM270.28125 29.709373Q270.28125 30.912498 270.73438 31.553123Q271.1875 32.178123 272.03125 32.178123Q272.84375 32.178123 273.29688 31.553123Q273.76562 30.928123 273.76562 29.537498Q273.76562 28.365623 273.29688 27.724998Q272.84375 27.068748 272.01562 27.068748Q271.1875 27.068748 270.73438 27.709373Q270.28125 28.349998 270.28125 29.709373ZM277.01562 29.537498Q277.01562 28.287498 277.5 27.303123Q277.98438 26.318748 278.89062 25.787498Q279.8125 25.240623 281.01562 25.240623Q282.71875 25.240623 283.79688 26.287498Q284.89062 27.334373 285.01562 29.131248L285.03125 29.709373Q285.03125 31.646873 283.9375 32.834373Q282.85938 34.00625 281.03125 34.00625Q279.20312 34.00625 278.10938 32.834373Q277.01562 31.662498 277.01562 29.646873L277.01562 29.537498ZM279.28125 29.709373Q279.28125 30.912498 279.73438 31.553123Q280.1875 32.178123 281.03125 32.178123Q281.84375 32.178123 282.29688 31.553123Q282.76562 30.928123 282.76562 29.537498Q282.76562 28.365623 282.29688 27.724998Q281.84375 27.068748 281.01562 27.068748Q280.1875 27.068748 279.73438 27.709373Q279.28125 28.349998 279.28125 29.709373ZM286.01562 29.553123Q286.01562 27.584373 286.90625 26.412498Q287.79688 25.240623 289.32812 25.240623Q290.5625 25.240623 291.375 26.162498L291.375 21.849998L293.64062 21.849998L293.64062 33.85L291.59375 33.85L291.48438 32.94375Q290.64062 34.00625 289.3125 34.00625Q287.82812 34.00625 286.92188 32.834373Q286.01562 31.646873 286.01562 29.553123ZM288.28125 29.724998Q288.28125 30.912498 288.6875 31.553123Q289.10938 32.178123 289.89062 32.178123Q290.9375 32.178123 291.375 31.287498L291.375 27.959373Q290.95312 27.068748 289.90625 27.068748Q288.28125 27.068748 288.28125 29.724998ZM306.98438 29.693748Q306.98438 31.724998 306.10938 32.865623Q305.25 34.00625 303.70312 34.00625Q302.32812 34.00625 301.5 32.94375L301.40625 33.85L299.375 33.85L299.375 21.849998L301.625 21.849998L301.625 26.146873Q302.40625 25.240623 303.6875 25.240623Q305.23438 25.240623 306.10938 26.381248Q306.98438 27.506248 306.98438 29.568748L306.98438 29.693748ZM304.73438 29.537498Q304.73438 28.256248 304.32812 27.662498Q303.92188 27.068748 303.10938 27.068748Q302.03125 27.068748 301.625 27.959373L301.625 31.287498Q302.04688 32.178123 303.125 32.178123Q304.21875 32.178123 304.5625 31.099998Q304.73438 30.584373 304.73438 29.537498ZM311.53125 30.646873L313.09375 25.396873L315.51562 25.396873L312.10938 35.1625L311.92188 35.615623Q311.17188 37.271873 309.42188 37.271873Q308.9375 37.271873 308.42188 37.115623L308.42188 35.4125L308.76562 35.4125Q309.40625 35.4125 309.71875 35.209373Q310.04688 35.021873 310.21875 34.56875L310.48438 33.88125L307.53125 25.396873L309.95312 25.396873L311.53125 30.646873ZM329.76562 33.85L327.42188 33.85L322.85938 26.365623L322.85938 33.85L320.51562 33.85L320.51562 22.474998L322.85938 22.474998L327.4375 29.974998L327.4375 22.474998L329.76562 22.474998L329.76562 33.85ZM331.01562 29.537498Q331.01562 28.287498 331.5 27.303123Q331.98438 26.318748 332.89062 25.787498Q333.8125 25.240623 335.01562 25.240623Q336.71875 25.240623 337.79688 26.287498Q338.89062 27.334373 339.01562 29.131248L339.03125 29.709373Q339.03125 31.646873 337.9375 32.834373Q336.85938 34.00625 335.03125 34.00625Q333.20312 34.00625 332.10938 32.834373Q331.01562 31.662498 331.01562 29.646873L331.01562 29.537498ZM333.28125 29.709373Q333.28125 30.912498 333.73438 31.553123Q334.1875 32.178123 335.03125 32.178123Q335.84375 32.178123 336.29688 31.553123Q336.76562 30.928123 336.76562 29.537498Q336.76562 28.365623 336.29688 27.724998Q335.84375 27.068748 335.01562 27.068748Q334.1875 27.068748 333.73438 27.709373Q333.28125 28.349998 333.28125 29.709373ZM342.45312 25.396873L342.51562 26.365623Q343.42188 25.240623 344.95312 25.240623Q346.29688 25.240623 346.95312 26.037498Q347.60938 26.818748 347.625 28.381248L347.625 33.85L345.35938 33.85L345.35938 28.443748Q345.35938 27.724998 345.04688 27.396873Q344.73438 27.068748 344.01562 27.068748Q343.0625 27.068748 342.57812 27.881248L342.57812 33.85L340.32812 33.85L340.32812 25.396873L342.45312 25.396873ZM353.76562 29.881248L349.35938 29.881248L349.35938 28.068748L353.76562 28.068748L353.76562 29.881248ZM358.01562 33.85L355.67188 33.85L355.67188 22.474998L358.01562 22.474998L358.01562 33.85ZM362.45312 25.396873L362.51562 26.365623Q363.42188 25.240623 364.95312 25.240623Q366.29688 25.240623 366.95312 26.037498Q367.60938 26.818748 367.625 28.381248L367.625 33.85L365.35938 33.85L365.35938 28.443748Q365.35938 27.724998 365.04688 27.396873Q364.73438 27.068748 364.01562 27.068748Q363.0625 27.068748 362.57812 27.881248L362.57812 33.85L360.32812 33.85L360.32812 25.396873L362.45312 25.396873ZM369.01562 29.553123Q369.01562 27.584373 369.90625 26.412498Q370.79688 25.240623 372.32812 25.240623Q373.5625 25.240623 374.375 26.162498L374.375 21.849998L376.64062 21.849998L376.64062 33.85L374.59375 33.85L374.48438 32.94375Q373.64062 34.00625 372.3125 34.00625Q370.82812 34.00625 369.92188 32.834373Q369.01562 31.646873 369.01562 29.553123ZM371.28125 29.724998Q371.28125 30.912498 371.6875 31.553123Q372.10938 32.178123 372.89062 32.178123Q373.9375 32.178123 374.375 31.287498L374.375 27.959373Q373.95312 27.068748 372.90625 27.068748Q371.28125 27.068748 371.28125 29.724998ZM380.75 33.85L378.48438 33.85L378.48438 25.396873L380.75 25.396873L380.75 33.85ZM378.35938 23.209373Q378.35938 22.693748 378.6875 22.365623Q379.03125 22.037498 379.625 22.037498Q380.20312 22.037498 380.54688 22.365623Q380.89062 22.693748 380.89062 23.209373Q380.89062 23.724998 380.53125 24.053123Q380.1875 24.381248 379.60938 24.381248Q379.04688 24.381248 378.70312 24.053123Q378.35938 23.724998 378.35938 23.209373ZM382.04688 29.553123Q382.04688 27.615623 382.96875 26.428123Q383.89062 25.240623 385.46875 25.240623Q386.85938 25.240623 387.625 26.193748L387.71875 25.396873L389.76562 25.396873L389.76562 33.56875Q389.76562 34.678123 389.26562 35.490623Q388.76562 36.31875 387.84375 36.740623Q386.9375 37.178123 385.70312 37.178123Q384.78125 37.178123 383.89062 36.803123Q383.01562 36.44375 382.5625 35.85L383.5625 34.475Q384.40625 35.428123 385.60938 35.428123Q386.5 35.428123 387.0 34.94375Q387.5 34.459373 387.5 33.56875L387.5 33.115623Q386.71875 34.00625 385.45312 34.00625Q383.92188 34.00625 382.98438 32.81875Q382.04688 31.615623 382.04688 29.646873L382.04688 29.553123ZM384.29688 29.724998Q384.29688 30.865623 384.75 31.521873Q385.21875 32.178123 386.03125 32.178123Q387.0625 32.178123 387.5 31.396873L387.5 27.849998Q387.04688 27.068748 386.04688 27.068748Q385.23438 27.068748 384.76562 27.740623Q384.29688 28.396873 384.29688 29.724998ZM395.26562 34.00625Q393.40625 34.00625 392.23438 32.865623Q391.0625 31.724998 391.0625 29.818748L391.0625 29.599998Q391.0625 28.334373 391.54688 27.334373Q392.04688 26.318748 392.95312 25.787498Q393.85938 25.240623 395.01562 25.240623Q396.75 25.240623 397.73438 26.334373Q398.73438 27.428123 398.73438 29.428123L398.73438 30.349998L393.35938 30.349998Q393.46875 31.178123 394.01562 31.678123Q394.5625 32.178123 395.40625 32.178123Q396.71875 32.178123 397.45312 31.240623L398.5625 32.475Q398.04688 33.19375 397.17188 33.6Q396.3125 34.00625 395.26562 34.00625ZM395.0 27.068748Q394.32812 27.068748 393.90625 27.521873Q393.5 27.974998 393.375 28.818748L396.51562 28.818748L396.51562 28.631248Q396.5 27.881248 396.10938 27.474998Q395.71875 27.068748 395.0 27.068748ZM402.45312 25.396873L402.51562 26.365623Q403.42188 25.240623 404.95312 25.240623Q406.29688 25.240623 406.95312 26.037498Q407.60938 26.818748 407.625 28.381248L407.625 33.85L405.35938 33.85L405.35938 28.443748Q405.35938 27.724998 405.04688 27.396873Q404.73438 27.068748 404.01562 27.068748Q403.0625 27.068748 402.57812 27.881248L402.57812 33.85L400.32812 33.85L400.32812 25.396873L402.45312 25.396873ZM409.01562 29.537498Q409.01562 28.287498 409.5 27.303123Q409.98438 26.318748 410.89062 25.787498Q411.8125 25.240623 413.01562 25.240623Q414.71875 25.240623 415.79688 26.287498Q416.89062 27.334373 417.01562 29.131248L417.03125 29.709373Q417.03125 31.646873 415.9375 32.834373Q414.85938 34.00625 413.03125 34.00625Q411.20312 34.00625 410.10938 32.834373Q409.01562 31.662498 409.01562 29.646873L409.01562 29.537498ZM411.28125 29.709373Q411.28125 30.912498 411.73438 31.553123Q412.1875 32.178123 413.03125 32.178123Q413.84375 32.178123 414.29688 31.553123Q414.76562 30.928123 414.76562 29.537498Q414.76562 28.365623 414.29688 27.724998Q413.84375 27.068748 413.01562 27.068748Q412.1875 27.068748 411.73438 27.709373Q411.28125 28.349998 411.28125 29.709373ZM423.4375 32.990623Q422.59375 34.00625 421.125 34.00625Q419.76562 34.00625 419.04688 33.225Q418.32812 32.44375 418.3125 30.928123L418.3125 25.396873L420.57812 25.396873L420.57812 30.849998Q420.57812 32.178123 421.78125 32.178123Q422.92188 32.178123 423.35938 31.381248L423.35938 25.396873L425.625 25.396873L425.625 33.85L423.5 33.85L423.4375 32.990623ZM431.95312 31.506248Q431.95312 31.099998 431.53125 30.865623Q431.125 30.615623 430.21875 30.428123Q427.20312 29.803123 427.20312 27.865623Q427.20312 26.740623 428.14062 25.990623Q429.07812 25.240623 430.57812 25.240623Q432.1875 25.240623 433.15625 26.006248Q434.125 26.756248 434.125 27.959373L431.85938 27.959373Q431.85938 27.474998 431.54688 27.162498Q431.23438 26.849998 430.57812 26.849998Q430.0 26.849998 429.6875 27.115623Q429.375 27.365623 429.375 27.756248Q429.375 28.131248 429.73438 28.365623Q430.09375 28.599998 430.9375 28.771873Q431.78125 28.928123 432.35938 29.146873Q434.14062 29.803123 434.14062 31.412498Q434.14062 32.56875 433.14062 33.2875Q432.15625 34.00625 430.59375 34.00625Q429.53125 34.00625 428.70312 33.63125Q427.875 33.240623 427.40625 32.584373Q426.9375 31.928123 426.9375 31.162498L429.07812 31.162498Q429.10938 31.756248 429.51562 32.084373Q429.9375 32.396873 430.64062 32.396873Q431.28125 32.396873 431.60938 32.1625Q431.95312 31.912498 431.95312 31.506248ZM446.98438 29.693748Q446.98438 31.646873 446.09375 32.834373Q445.20312 34.00625 443.70312 34.00625Q442.42188 34.00625 441.625 33.115623L441.625 37.1L439.375 37.1L439.375 25.396873L441.46875 25.396873L441.54688 26.224998Q442.35938 25.240623 443.6875 25.240623Q445.25 25.240623 446.10938 26.396873Q446.98438 27.553123 446.98438 29.584373L446.98438 29.693748ZM444.71875 29.537498Q444.71875 28.349998 444.29688 27.709373Q443.89062 27.068748 443.09375 27.068748Q442.03125 27.068748 441.625 27.881248L441.625 31.349998Q442.04688 32.178123 443.10938 32.178123Q444.71875 32.178123 444.71875 29.537498ZM452.26562 34.00625Q450.40625 34.00625 449.23438 32.865623Q448.0625 31.724998 448.0625 29.818748L448.0625 29.599998Q448.0625 28.334373 448.54688 27.334373Q449.04688 26.318748 449.95312 25.787498Q450.85938 25.240623 452.01562 25.240623Q453.75 25.240623 454.73438 26.334373Q455.73438 27.428123 455.73438 29.428123L455.73438 30.349998L450.35938 30.349998Q450.46875 31.178123 451.01562 31.678123Q451.5625 32.178123 452.40625 32.178123Q453.71875 32.178123 454.45312 31.240623L455.5625 32.475Q455.04688 33.19375 454.17188 33.6Q453.3125 34.00625 452.26562 34.00625ZM452.0 27.068748Q451.32812 27.068748 450.90625 27.521873Q450.5 27.974998 450.375 28.818748L453.51562 28.818748L453.51562 28.631248Q453.5 27.881248 453.10938 27.474998Q452.71875 27.068748 452.0 27.068748ZM457.01562 29.537498Q457.01562 28.287498 457.5 27.303123Q457.98438 26.318748 458.89062 25.787498Q459.8125 25.240623 461.01562 25.240623Q462.71875 25.240623 463.79688 26.287498Q464.89062 27.334373 465.01562 29.131248L465.03125 29.709373Q465.03125 31.646873 463.9375 32.834373Q462.85938 34.00625 461.03125 34.00625Q459.20312 34.00625 458.10938 32.834373Q457.01562 31.662498 457.01562 29.646873L457.01562 29.537498ZM459.28125 29.709373Q459.28125 30.912498 459.73438 31.553123Q460.1875 32.178123 461.03125 32.178123Q461.84375 32.178123 462.29688 31.553123Q462.76562 30.928123 462.76562 29.537498Q462.76562 28.365623 462.29688 27.724998Q461.84375 27.068748 461.01562 27.068748Q460.1875 27.068748 459.73438 27.709373Q459.28125 28.349998 459.28125 29.709373ZM473.98438 29.693748Q473.98438 31.646873 473.09375 32.834373Q472.20312 34.00625 470.70312 34.00625Q469.42188 34.00625 468.625 33.115623L468.625 37.1L466.375 37.1L466.375 25.396873L468.46875 25.396873L468.54688 26.224998Q469.35938 25.240623 470.6875 25.240623Q472.25 25.240623 473.10938 26.396873Q473.98438 27.553123 473.98438 29.584373L473.98438 29.693748ZM471.71875 29.537498Q471.71875 28.349998 471.29688 27.709373Q470.89062 27.068748 470.09375 27.068748Q469.03125 27.068748 468.625 27.881248L468.625 31.349998Q469.04688 32.178123 470.10938 32.178123Q471.71875 32.178123 471.71875 29.537498ZM477.75 33.85L475.48438 33.85L475.48438 21.849998L477.75 21.849998L477.75 33.85ZM483.26562 34.00625Q481.40625 34.00625 480.23438 32.865623Q479.0625 31.724998 479.0625 29.818748L479.0625 29.599998Q479.0625 28.334373 479.54688 27.334373Q480.04688 26.318748 480.95312 25.787498Q481.85938 25.240623 483.01562 25.240623Q484.75 25.240623 485.73438 26.334373Q486.73438 27.428123 486.73438 29.428123L486.73438 30.349998L481.35938 30.349998Q481.46875 31.178123 482.01562 31.678123Q482.5625 32.178123 483.40625 32.178123Q484.71875 32.178123 485.45312 31.240623L486.5625 32.475Q486.04688 33.19375 485.17188 33.6Q484.3125 34.00625 483.26562 34.00625ZM483.0 27.068748Q482.32812 27.068748 481.90625 27.521873Q481.5 27.974998 481.375 28.818748L484.51562 28.818748L484.51562 28.631248Q484.5 27.881248 484.10938 27.474998Q483.71875 27.068748 483.0 27.068748ZM490.21875 30.349998Q490.21875 29.256248 490.48438 28.615623Q490.75 27.959373 491.45312 27.334373Q492.15625 26.709373 492.39062 26.318748Q492.625 25.912498 492.625 25.474998Q492.625 24.162498 491.40625 24.162498Q490.82812 24.162498 490.48438 24.521873Q490.14062 24.865623 490.125 25.490623L487.85938 25.490623Q487.875 24.006248 488.8125 23.162498Q489.76562 22.318748 491.40625 22.318748Q493.0625 22.318748 493.96875 23.115623Q494.89062 23.912498 494.89062 25.381248Q494.89062 26.037498 494.59375 26.631248Q494.29688 27.224998 493.5625 27.943748L492.92188 28.537498Q492.32812 29.115623 492.25 29.881248L492.21875 30.349998L490.21875 30.349998ZM489.98438 32.75625Q489.98438 32.225 490.34375 31.896873Q490.70312 31.553123 491.25 31.553123Q491.8125 31.553123 492.15625 31.896873Q492.51562 32.225 492.51562 32.75625Q492.51562 33.271873 492.17188 33.615623Q491.82812 33.94375 491.25 33.94375Q490.6875 33.94375 490.32812 33.615623Q489.98438 33.271873 489.98438 32.75625Z" fill-rule="nonzero"/></svg>