<svg version="1.1" viewBox="0.0 0.0 531.0 377.0" fill="none" stroke="none" stroke-linecap="square" stroke-miterlimit="10" width="531" height="377" xmlns:xlink="http://www.w3.org/1999/xlink" xmlns="http://www.w3.org/2000/svg"><path fill="#ffffff" d="M0 0L531.0 0L531.0 377.0L0 377.0L0 0Z" fill-rule="nonzero"/><path fill="#fce5cd" d="M265.5 86.88275C292.75797 86.88275 319.38354 95.09565 341.90515 110.450615L265.5 222.51637Z" fill-rule="nonzero"/><path fill="#f6b26b" d="M341.90515 110.450615C397.34714 148.25032 416.81598 220.9091 387.70166 281.3656C358.58737 341.8221 289.6418 371.90274 225.52129 352.12418C161.40077 332.3456 121.38031 268.6534 131.38129 202.30124C141.38228 135.94905 198.39835 86.88275 265.5 86.88275L265.5 222.51637Z" fill-rule="nonzero"/><path fill="#1a1a1a" d="M24.119875 337.15L22.35425 337.15L18.932375 331.54062L18.932375 337.15L17.182375 337.15L17.182375 328.61874L18.932375 328.61874L22.369875 334.24374L22.369875 328.61874L24.119875 328.61874L24.119875 337.15ZM24.807375 333.91562Q24.807375 332.97812 25.16675 332.24374Q25.526125 331.49374 26.213625 331.10312Q26.901125 330.69687 27.79175 330.69687Q29.088625 330.69687 29.8855 331.47812Q30.698 332.25937 30.79175 333.60312L30.807375 334.04062Q30.807375 335.50937 29.994875 336.4Q29.182375 337.275 27.807375 337.275Q26.432375 337.275 25.619875 336.4Q24.807375 335.50937 24.807375 333.99374L24.807375 333.91562ZM26.494875 334.04062Q26.494875 334.94687 26.838625 335.43124Q27.182375 335.9 27.807375 335.9Q28.432375 335.9 28.776125 335.43124Q29.119875 334.9625 29.119875 333.91562Q29.119875 333.04062 28.776125 332.55624Q28.432375 332.05624 27.79175 332.05624Q27.182375 332.05624 26.838625 332.54062Q26.494875 333.025 26.494875 334.04062Z" fill-rule="nonzero"/><path fill="#9e9e9e" d="M20.963625 351.74374Q20.29175 352.38437 19.41675 352.38437Q18.276125 352.38437 17.588625 351.61874Q16.91675 350.8375 16.91675 349.525Q16.91675 348.68124 17.276125 347.97812Q17.651125 347.275 18.307375 346.88437Q18.963625 346.49374 19.79175 346.49374Q20.6355 346.49374 21.29175 346.91562Q21.948 347.3375 22.307375 348.13437Q22.66675 348.93124 22.682375 349.94687L22.682375 350.57187Q22.682375 352.7125 21.619875 353.93124Q20.557375 355.15 18.60425 355.22812L18.198 355.22812L18.198 353.82187L18.573 353.80624Q20.776125 353.7125 20.963625 351.74374ZM19.823 351.0875Q20.244875 351.0875 20.526125 350.88437Q20.823 350.66562 20.97925 350.36874L20.97925 349.68124Q20.97925 348.82187 20.651125 348.35312Q20.323 347.86874 19.776125 347.86874Q19.2605 347.86874 18.932375 348.3375Q18.60425 348.79062 18.60425 349.49374Q18.60425 350.19687 18.91675 350.65Q19.244875 351.0875 19.823 351.0875ZM29.744875 351.61874Q29.744875 353.38437 29.0105 354.3375Q28.276125 355.275 26.869875 355.275Q25.463625 355.275 24.72925 354.35312Q23.994875 353.43124 23.97925 351.7125L23.97925 350.13437Q23.97925 348.35312 24.713625 347.43124Q25.463625 346.49374 26.85425 346.49374Q28.244875 346.49374 28.97925 347.41562Q29.72925 348.3375 29.744875 350.05624L29.744875 351.61874ZM28.04175 349.9Q28.04175 348.8375 27.744875 348.35312Q27.463625 347.86874 26.85425 347.86874Q26.2605 347.86874 25.963625 348.3375Q25.682375 348.79062 25.66675 349.775L25.66675 351.8375Q25.66675 352.88437 25.948 353.4Q26.22925 353.9 26.869875 353.9Q27.47925 353.9 27.7605 353.41562Q28.04175 352.93124 28.04175 351.93124L28.04175 349.9ZM31.151125 354.32187Q31.151125 353.91562 31.41675 353.66562Q31.698 353.41562 32.104248 353.41562Q32.526123 353.41562 32.791748 353.66562Q33.072998 353.91562 33.072998 354.32187Q33.072998 354.7125 32.791748 354.9625Q32.526123 355.2125 32.104248 355.2125Q31.698 355.2125 31.41675 354.9625Q31.151125 354.7125 31.151125 354.32187ZM34.244873 350.94687L34.744873 346.61874L39.526123 346.61874L39.526123 348.025L36.135498 348.025L35.916748 349.86874Q36.526123 349.54062 37.197998 349.54062Q38.416748 349.54062 39.104248 350.30624Q39.807373 351.05624 39.807373 352.41562Q39.807373 353.24374 39.447998 353.9Q39.104248 354.54062 38.447998 354.91562Q37.807373 355.275 36.916748 355.275Q36.151123 355.275 35.479248 354.9625Q34.822998 354.63437 34.432373 354.07187Q34.057373 353.50937 34.026123 352.775L35.713623 352.775Q35.760498 353.30624 36.072998 353.60312Q36.401123 353.9 36.916748 353.9Q37.494873 353.9 37.791748 353.49374Q38.104248 353.07187 38.104248 352.32187Q38.104248 351.5875 37.744873 351.2125Q37.401123 350.82187 36.744873 350.82187Q36.135498 350.82187 35.760498 351.13437L35.604248 351.29062L34.244873 350.94687ZM40.979248 348.25937Q40.979248 347.47812 41.479248 346.99374Q41.994873 346.49374 42.822998 346.49374Q43.651123 346.49374 44.166748 346.97812Q44.682373 347.4625 44.682373 348.29062L44.682373 348.7125Q44.682373 349.49374 44.166748 349.97812Q43.651123 350.4625 42.838623 350.4625Q41.994873 350.4625 41.479248 349.97812Q40.979248 349.49374 40.979248 348.68124L40.979248 348.25937ZM42.104248 348.7125Q42.104248 349.05624 42.307373 349.275Q42.510498 349.49374 42.838623 349.49374Q43.166748 349.49374 43.354248 349.275Q43.541748 349.05624 43.541748 348.69687L43.541748 348.25937Q43.541748 347.9 43.354248 347.69687Q43.166748 347.47812 42.822998 347.47812Q42.494873 347.47812 42.291748 347.69687Q42.104248 347.9 42.104248 348.275L42.104248 348.7125ZM45.057373 353.05624Q45.057373 352.25937 45.572998 351.79062Q46.088623 351.30624 46.901123 351.30624Q47.729248 351.30624 48.244873 351.79062Q48.760498 352.25937 48.760498 353.0875L48.760498 353.50937Q48.760498 354.30624 48.260498 354.79062Q47.760498 355.275 46.916748 355.275Q46.072998 355.275 45.557373 354.79062Q45.057373 354.29062 45.057373 353.49374L45.057373 353.05624ZM46.182373 353.50937Q46.182373 353.8375 46.385498 354.07187Q46.604248 354.29062 46.916748 354.29062Q47.635498 354.29062 47.635498 353.50937L47.635498 353.05624Q47.635498 352.7125 47.432373 352.49374Q47.229248 352.275 46.901123 352.275Q46.572998 352.275 46.369873 352.49374Q46.182373 352.7125 46.182373 353.07187L46.182373 353.50937ZM43.166748 354.50937L42.338623 354.07187L46.510498 347.4L47.338623 347.8375L43.166748 354.50937Z" fill-rule="nonzero"/><path stroke="#757575" stroke-width="1.0" stroke-linecap="butt" d="M16.41675 341.65L123.86637 341.65L227.52022 345.6438" fill-rule="nonzero"/><path fill="#9e9e9e" d="M229.52022 345.6438C229.52022 344.5392 228.62479 343.6438 227.52022 343.6438C226.41565 343.6438 225.52022 344.5392 225.52022 345.6438C225.52022 346.74835 226.41565 347.6438 227.52022 347.6438C228.62479 347.6438 229.52022 346.74835 229.52022 345.6438" fill-rule="nonzero"/><path fill="#1a1a1a" d="M499.28638 94.19525L501.06763 90.3515L502.9895 90.3515L500.177 95.789L500.177 98.88275L498.39575 98.88275L498.39575 95.789L495.59888 90.3515L497.52075 90.3515L499.28638 94.19525ZM506.14575 99.00775Q504.75513 99.00775 503.88013 98.14838Q503.00513 97.289 503.00513 95.86713L503.00513 95.69525Q503.00513 94.74213 503.3645 93.99213Q503.7395 93.24213 504.41138 92.83588Q505.09888 92.42963 505.95825 92.42963Q507.27075 92.42963 508.00513 93.25775Q508.75513 94.07025 508.75513 95.57025L508.75513 96.25775L504.72388 96.25775Q504.802 96.88275 505.20825 97.25775Q505.63013 97.63275 506.27075 97.63275Q507.2395 97.63275 507.78638 96.92963L508.63013 97.8515Q508.2395 98.39838 507.58325 98.71088Q506.94263 99.00775 506.14575 99.00775ZM505.95825 93.789Q505.45825 93.789 505.14575 94.13275Q504.83325 94.4765 504.7395 95.1015L507.09888 95.1015L507.09888 94.9765Q507.08325 94.414 506.78638 94.1015Q506.50513 93.789 505.95825 93.789ZM512.6614 97.13275Q512.6614 96.82025 512.3489 96.64838Q512.052 96.46088 511.38013 96.32025Q509.1145 95.8515 509.1145 94.39838Q509.1145 93.55463 509.802 92.99213Q510.50513 92.42963 511.64575 92.42963Q512.8489 92.42963 513.5676 92.99213Q514.302 93.55463 514.302 94.4765L512.5989 94.4765Q512.5989 94.1015 512.3645 93.86713Q512.1301 93.63275 511.63013 93.63275Q511.20825 93.63275 510.97388 93.83588Q510.7395 94.02338 510.7395 94.32025Q510.7395 94.6015 511.00513 94.77338Q511.27075 94.94525 511.89575 95.07025Q512.5364 95.19525 512.9739 95.3515Q514.3176 95.8515 514.3176 97.05463Q514.3176 97.92963 513.5676 98.4765Q512.83325 99.00775 511.64575 99.00775Q510.84888 99.00775 510.22388 98.7265Q509.6145 98.42963 509.25513 97.94525Q508.91138 97.44525 508.91138 96.86713L510.52075 96.86713Q510.53638 97.32025 510.84888 97.57025Q511.16138 97.80463 511.677 97.80463Q512.177 97.80463 512.4114 97.61713Q512.6614 97.42963 512.6614 97.13275Z" fill-rule="nonzero"/><path fill="#9e9e9e" d="M493.13013 113.4765Q492.45825 114.11713 491.58325 114.11713Q490.44263 114.11713 489.75513 113.3515Q489.08325 112.57025 489.08325 111.25775Q489.08325 110.414 489.44263 109.71088Q489.81763 109.00775 490.47388 108.61713Q491.13013 108.2265 491.95825 108.2265Q492.802 108.2265 493.45825 108.64838Q494.1145 109.07025 494.47388 109.86713Q494.83325 110.664 494.84888 111.67963L494.84888 112.30463Q494.84888 114.44525 493.78638 115.664Q492.72388 116.88275 490.77075 116.96088L490.3645 116.96088L490.3645 115.55463L490.7395 115.539Q492.94263 115.44525 493.13013 113.4765ZM491.9895 112.82025Q492.41138 112.82025 492.69263 112.61713Q492.9895 112.39838 493.14575 112.1015L493.14575 111.414Q493.14575 110.55463 492.81763 110.08588Q492.4895 109.6015 491.94263 109.6015Q491.427 109.6015 491.09888 110.07025Q490.77075 110.52338 490.77075 111.2265Q490.77075 111.92963 491.08325 112.38275Q491.41138 112.82025 491.9895 112.82025ZM496.31763 116.05463Q496.31763 115.64838 496.58325 115.39838Q496.8645 115.14838 497.27075 115.14838Q497.69263 115.14838 497.95825 115.39838Q498.2395 115.64838 498.2395 116.05463Q498.2395 116.44525 497.95825 116.69525Q497.69263 116.94525 497.27075 116.94525Q496.8645 116.94525 496.58325 116.69525Q496.31763 116.44525 496.31763 116.05463ZM499.41138 112.67963L499.91138 108.3515L504.69263 108.3515L504.69263 109.75775L501.302 109.75775L501.08325 111.6015Q501.69263 111.27338 502.3645 111.27338Q503.58325 111.27338 504.27075 112.039Q504.97388 112.789 504.97388 114.14838Q504.97388 114.9765 504.6145 115.63275Q504.27075 116.27338 503.6145 116.64838Q502.97388 117.00775 502.08325 117.00775Q501.31763 117.00775 500.64575 116.69525Q499.9895 116.36713 499.59888 115.80463Q499.22388 115.24213 499.19263 114.50775L500.88013 114.50775Q500.927 115.039 501.2395 115.33588Q501.56763 115.63275 502.08325 115.63275Q502.66138 115.63275 502.95825 115.2265Q503.27075 114.80463 503.27075 114.05463Q503.27075 113.32025 502.91138 112.94525Q502.56763 112.55463 501.91138 112.55463Q501.302 112.55463 500.927 112.86713L500.77075 113.02338L499.41138 112.67963ZM506.14575 109.99213Q506.14575 109.21088 506.64575 108.7265Q507.16138 108.2265 507.9895 108.2265Q508.81763 108.2265 509.33325 108.71088Q509.84888 109.19525 509.84888 110.02338L509.84888 110.44525Q509.84888 111.2265 509.33325 111.71088Q508.81763 112.19525 508.00513 112.19525Q507.16138 112.19525 506.64575 111.71088Q506.14575 111.2265 506.14575 110.414L506.14575 109.99213ZM507.27075 110.44525Q507.27075 110.789 507.47388 111.00775Q507.677 111.2265 508.00513 111.2265Q508.33325 111.2265 508.52075 111.00775Q508.70825 110.789 508.70825 110.42963L508.70825 109.99213Q508.70825 109.63275 508.52075 109.42963Q508.33325 109.21088 507.9895 109.21088Q507.66138 109.21088 507.45825 109.42963Q507.27075 109.63275 507.27075 110.00775L507.27075 110.44525ZM510.22388 114.789Q510.22388 113.99213 510.7395 113.52338Q511.25513 113.039 512.0676 113.039Q512.89575 113.039 513.4114 113.52338Q513.927 113.99213 513.927 114.82025L513.927 115.24213Q513.927 116.039 513.427 116.52338Q512.927 117.00775 512.08325 117.00775Q511.2395 117.00775 510.72388 116.52338Q510.22388 116.02338 510.22388 115.2265L510.22388 114.789ZM511.34888 115.24213Q511.34888 115.57025 511.552 115.80463Q511.77075 116.02338 512.08325 116.02338Q512.802 116.02338 512.802 115.24213L512.802 114.789Q512.802 114.44525 512.5989 114.2265Q512.39575 114.00775 512.0676 114.00775Q511.7395 114.00775 511.53638 114.2265Q511.34888 114.44525 511.34888 114.80463L511.34888 115.24213ZM508.33325 116.24213L507.50513 115.80463L511.677 109.13275L512.5051 109.57025L508.33325 116.24213Z" fill-rule="nonzero"/><path stroke="#757575" stroke-width="1.0" stroke-linecap="butt" d="M514.58325 103.38275L407.13364 103.38275L303.47977 99.38896" fill-rule="nonzero"/><path fill="#9e9e9e" d="M305.47977 99.38896C305.47977 98.28439 304.58435 97.38896 303.47977 97.38896C302.3752 97.38896 301.47977 98.28439 301.47977 99.38896C301.47977 100.49353 302.3752 101.38896 303.47977 101.38896C304.58435 101.38896 305.47977 100.49353 305.47977 99.38896" fill-rule="nonzero"/><path fill="#757575" d="M45.4375 31.506248L41.328125 31.506248L40.546875 33.85L38.0625 33.85L42.296875 22.474998L44.46875 22.474998L48.71875 33.85L46.234375 33.85L45.4375 31.506248ZM41.96875 29.599998L44.8125 29.599998L43.375 25.349998L41.96875 29.599998ZM54.625 27.506248Q54.15625 27.443748 53.8125 27.443748Q52.53125 27.443748 52.125 28.318748L52.125 33.85L49.875 33.85L49.875 25.396873L52.0 25.396873L52.0625 26.396873Q52.75 25.240623 53.953125 25.240623Q54.328125 25.240623 54.65625 25.334373L54.625 27.506248ZM59.765625 34.00625Q57.90625 34.00625 56.734375 32.865623Q55.5625 31.724998 55.5625 29.818748L55.5625 29.599998Q55.5625 28.334373 56.046875 27.334373Q56.546875 26.318748 57.453125 25.787498Q58.359375 25.240623 59.515625 25.240623Q61.25 25.240623 62.234375 26.334373Q63.234375 27.428123 63.234375 29.428123L63.234375 30.349998L57.859375 30.349998Q57.96875 31.178123 58.515625 31.678123Q59.0625 32.178123 59.90625 32.178123Q61.21875 32.178123 61.953125 31.240623L63.0625 32.475Q62.546875 33.19375 61.671875 33.6Q60.8125 34.00625 59.765625 34.00625ZM59.5 27.068748Q58.828125 27.068748 58.40625 27.521873Q58.0 27.974998 57.875 28.818748L61.015625 28.818748L61.015625 28.631248Q61.0 27.881248 60.609375 27.474998Q60.21875 27.068748 59.5 27.068748ZM72.03125 30.646873L73.59375 25.396873L76.015625 25.396873L72.609375 35.1625L72.421875 35.615623Q71.671875 37.271873 69.921875 37.271873Q69.4375 37.271873 68.921875 37.115623L68.921875 35.4125L69.265625 35.4125Q69.90625 35.4125 70.21875 35.209373Q70.546875 35.021873 70.71875 34.56875L70.984375 33.88125L68.03125 25.396873L70.453125 25.396873L72.03125 30.646873ZM76.515625 29.537498Q76.515625 28.287498 77.0 27.303123Q77.484375 26.318748 78.390625 25.787498Q79.3125 25.240623 80.515625 25.240623Q82.21875 25.240623 83.296875 26.287498Q84.390625 27.334373 84.515625 29.131248L84.53125 29.709373Q84.53125 31.646873 83.4375 32.834373Q82.359375 34.00625 80.53125 34.00625Q78.703125 34.00625 77.609375 32.834373Q76.515625 31.662498 76.515625 29.646873L76.515625 29.537498ZM78.78125 29.709373Q78.78125 30.912498 79.234375 31.553123Q79.6875 32.178123 80.53125 32.178123Q81.34375 32.178123 81.796875 31.553123Q82.265625 30.928123 82.265625 29.537498Q82.265625 28.365623 81.796875 27.724998Q81.34375 27.068748 80.515625 27.068748Q79.6875 27.068748 79.234375 27.709373Q78.78125 28.349998 78.78125 29.709373ZM90.9375 32.990623Q90.09375 34.00625 88.625 34.00625Q87.265625 34.00625 86.546875 33.225Q85.828125 32.44375 85.8125 30.928123L85.8125 25.396873L88.078125 25.396873L88.078125 30.849998Q88.078125 32.178123 89.28125 32.178123Q90.421875 32.178123 90.859375 31.381248L90.859375 25.396873L93.125 25.396873L93.125 33.85L91.0 33.85L90.9375 32.990623ZM99.484375 33.85L99.484375 27.053123L98.234375 27.053123L98.234375 25.396873L99.484375 25.396873L99.484375 24.678123Q99.484375 23.256248 100.296875 22.474998Q101.125 21.678123 102.59375 21.678123Q103.0625 21.678123 103.734375 21.834373L103.71875 23.584373Q103.4375 23.521873 103.03125 23.521873Q101.75 23.521873 101.75 24.709373L101.75 25.396873L103.4375 25.396873L103.4375 27.053123L101.75 27.053123L101.75 33.85L99.484375 33.85ZM109.765625 33.85Q109.609375 33.5375 109.546875 33.084373Q108.71875 34.00625 107.40625 34.00625Q106.171875 34.00625 105.34375 33.2875Q104.53125 32.56875 104.53125 31.474998Q104.53125 30.131248 105.53125 29.412498Q106.53125 28.693748 108.40625 28.678123L109.453125 28.678123L109.453125 28.193748Q109.453125 27.615623 109.140625 27.271873Q108.84375 26.912498 108.203125 26.912498Q107.625 26.912498 107.296875 27.193748Q106.984375 27.459373 106.984375 27.928123L104.71875 27.928123Q104.71875 27.193748 105.171875 26.568748Q105.625 25.943748 106.453125 25.599998Q107.28125 25.240623 108.3125 25.240623Q109.875 25.240623 110.796875 26.021873Q111.71875 26.803123 111.71875 28.224998L111.71875 31.896873Q111.71875 33.1 112.046875 33.709373L112.046875 33.85L109.765625 33.85ZM107.90625 32.271873Q108.40625 32.271873 108.828125 32.053123Q109.25 31.834373 109.453125 31.459373L109.453125 30.006248L108.609375 30.006248Q106.90625 30.006248 106.796875 31.178123L106.796875 31.303123Q106.796875 31.724998 107.09375 32.00625Q107.390625 32.271873 107.90625 32.271873ZM115.984375 25.396873L116.0625 26.334373Q116.953125 25.240623 118.484375 25.240623Q120.125 25.240623 120.734375 26.521873Q121.625 25.240623 123.265625 25.240623Q124.640625 25.240623 125.3125 26.037498Q125.984375 26.834373 125.984375 28.443748L125.984375 33.85L123.71875 33.85L123.71875 28.459373Q123.71875 27.740623 123.4375 27.412498Q123.15625 27.068748 122.453125 27.068748Q121.4375 27.068748 121.046875 28.037498L121.046875 33.85L118.796875 33.85L118.796875 28.459373Q118.796875 27.724998 118.5 27.396873Q118.21875 27.068748 117.515625 27.068748Q116.5625 27.068748 116.125 27.865623L116.125 33.85L113.875 33.85L113.875 25.396873L115.984375 25.396873ZM130.25 33.85L127.984375 33.85L127.984375 25.396873L130.25 25.396873L130.25 33.85ZM127.859375 23.209373Q127.859375 22.693748 128.1875 22.365623Q128.53125 22.037498 129.125 22.037498Q129.70312 22.037498 130.04688 22.365623Q130.39062 22.693748 130.39062 23.209373Q130.39062 23.724998 130.03125 24.053123Q129.6875 24.381248 129.10938 24.381248Q128.54688 24.381248 128.20312 24.053123Q127.859375 23.724998 127.859375 23.209373ZM134.25 33.85L131.98438 33.85L131.98438 21.849998L134.25 21.849998L134.25 33.85ZM138.25 33.85L135.98438 33.85L135.98438 25.396873L138.25 25.396873L138.25 33.85ZM135.85938 23.209373Q135.85938 22.693748 136.1875 22.365623Q136.53125 22.037498 137.125 22.037498Q137.70312 22.037498 138.04688 22.365623Q138.39062 22.693748 138.39062 23.209373Q138.39062 23.724998 138.03125 24.053123Q137.6875 24.381248 137.10938 24.381248Q136.54688 24.381248 136.20312 24.053123Q135.85938 23.724998 135.85938 23.209373ZM144.76562 33.85Q144.60938 33.5375 144.54688 33.084373Q143.71875 34.00625 142.40625 34.00625Q141.17188 34.00625 140.34375 33.2875Q139.53125 32.56875 139.53125 31.474998Q139.53125 30.131248 140.53125 29.412498Q141.53125 28.693748 143.40625 28.678123L144.45312 28.678123L144.45312 28.193748Q144.45312 27.615623 144.14062 27.271873Q143.84375 26.912498 143.20312 26.912498Q142.625 26.912498 142.29688 27.193748Q141.98438 27.459373 141.98438 27.928123L139.71875 27.928123Q139.71875 27.193748 140.17188 26.568748Q140.625 25.943748 141.45312 25.599998Q142.28125 25.240623 143.3125 25.240623Q144.875 25.240623 145.79688 26.021873Q146.71875 26.803123 146.71875 28.224998L146.71875 31.896873Q146.71875 33.1 147.04688 33.709373L147.04688 33.85L144.76562 33.85ZM142.90625 32.271873Q143.40625 32.271873 143.82812 32.053123Q144.25 31.834373 144.45312 31.459373L144.45312 30.006248L143.60938 30.006248Q141.90625 30.006248 141.79688 31.178123L141.79688 31.303123Q141.79688 31.724998 142.09375 32.00625Q142.39062 32.271873 142.90625 32.271873ZM153.625 27.506248Q153.15625 27.443748 152.8125 27.443748Q151.53125 27.443748 151.125 28.318748L151.125 33.85L148.875 33.85L148.875 25.396873L151.0 25.396873L151.0625 26.396873Q151.75 25.240623 152.95312 25.240623Q153.32812 25.240623 153.65625 25.334373L153.625 27.506248ZM166.21875 30.771873L167.32812 25.396873L169.51562 25.396873L167.35938 33.85L165.46875 33.85L163.85938 28.521873L162.26562 33.85L160.375 33.85L158.21875 25.396873L160.40625 25.396873L161.5 30.771873L163.04688 25.396873L164.6875 25.396873L166.21875 30.771873ZM173.25 33.85L170.98438 33.85L170.98438 25.396873L173.25 25.396873L173.25 33.85ZM170.85938 23.209373Q170.85938 22.693748 171.1875 22.365623Q171.53125 22.037498 172.125 22.037498Q172.70312 22.037498 173.04688 22.365623Q173.39062 22.693748 173.39062 23.209373Q173.39062 23.724998 173.03125 24.053123Q172.6875 24.381248 172.10938 24.381248Q171.54688 24.381248 171.20312 24.053123Q170.85938 23.724998 170.85938 23.209373ZM177.57812 23.318748L177.57812 25.396873L179.01562 25.396873L179.01562 27.053123L177.57812 27.053123L177.57812 31.271873Q177.57812 31.740623 177.75 31.943748Q177.9375 32.146873 178.4375 32.146873Q178.8125 32.146873 179.10938 32.084373L179.10938 33.803123Q178.4375 34.00625 177.73438 34.00625Q175.35938 34.00625 175.3125 31.599998L175.3125 27.053123L174.07812 27.053123L174.07812 25.396873L175.3125 25.396873L175.3125 23.318748L177.57812 23.318748ZM182.07812 26.318748Q182.96875 25.240623 184.32812 25.240623Q187.07812 25.240623 187.125 28.428123L187.125 33.85L184.85938 33.85L184.85938 28.490623Q184.85938 27.771873 184.54688 27.428123Q184.23438 27.068748 183.51562 27.068748Q182.51562 27.068748 182.07812 27.834373L182.07812 33.85L179.8125 33.85L179.8125 21.849998L182.07812 21.849998L182.07812 26.318748ZM197.76562 33.85Q197.60938 33.5375 197.54688 33.084373Q196.71875 34.00625 195.40625 34.00625Q194.17188 34.00625 193.34375 33.2875Q192.53125 32.56875 192.53125 31.474998Q192.53125 30.131248 193.53125 29.412498Q194.53125 28.693748 196.40625 28.678123L197.45312 28.678123L197.45312 28.193748Q197.45312 27.615623 197.14062 27.271873Q196.84375 26.912498 196.20312 26.912498Q195.625 26.912498 195.29688 27.193748Q194.98438 27.459373 194.98438 27.928123L192.71875 27.928123Q192.71875 27.193748 193.17188 26.568748Q193.625 25.943748 194.45312 25.599998Q195.28125 25.240623 196.3125 25.240623Q197.875 25.240623 198.79688 26.021873Q199.71875 26.803123 199.71875 28.224998L199.71875 31.896873Q199.71875 33.1 200.04688 33.709373L200.04688 33.85L197.76562 33.85ZM195.90625 32.271873Q196.40625 32.271873 196.82812 32.053123Q197.25 31.834373 197.45312 31.459373L197.45312 30.006248L196.60938 30.006248Q194.90625 30.006248 194.79688 31.178123L194.79688 31.303123Q194.79688 31.724998 195.09375 32.00625Q195.39062 32.271873 195.90625 32.271873ZM206.625 27.506248Q206.15625 27.443748 205.8125 27.443748Q204.53125 27.443748 204.125 28.318748L204.125 33.85L201.875 33.85L201.875 25.396873L204.0 25.396873L204.0625 26.396873Q204.75 25.240623 205.95312 25.240623Q206.32812 25.240623 206.65625 25.334373L206.625 27.506248ZM210.57812 23.318748L210.57812 25.396873L212.01562 25.396873L212.01562 27.053123L210.57812 27.053123L210.57812 31.271873Q210.57812 31.740623 210.75 31.943748Q210.9375 32.146873 211.4375 32.146873Q211.8125 32.146873 212.10938 32.084373L212.10938 33.803123Q211.4375 34.00625 210.73438 34.00625Q208.35938 34.00625 208.3125 31.599998L208.3125 27.053123L207.07812 27.053123L207.07812 25.396873L208.3125 25.396873L208.3125 23.318748L210.57812 23.318748ZM220.21875 30.771873L221.32812 25.396873L223.51562 25.396873L221.35938 33.85L219.46875 33.85L217.85938 28.521873L216.26562 33.85L214.375 33.85L212.21875 25.396873L214.40625 25.396873L215.5 30.771873L217.04688 25.396873L218.6875 25.396873L220.21875 30.771873ZM224.51562 29.537498Q224.51562 28.287498 225.0 27.303123Q225.48438 26.318748 226.39062 25.787498Q227.3125 25.240623 228.51562 25.240623Q230.21875 25.240623 231.29688 26.287498Q232.39062 27.334373 232.51562 29.131248L232.53125 29.709373Q232.53125 31.646873 231.4375 32.834373Q230.35938 34.00625 228.53125 34.00625Q226.70312 34.00625 225.60938 32.834373Q224.51562 31.662498 224.51562 29.646873L224.51562 29.537498ZM226.78125 29.709373Q226.78125 30.912498 227.23438 31.553123Q227.6875 32.178123 228.53125 32.178123Q229.34375 32.178123 229.79688 31.553123Q230.26562 30.928123 230.26562 29.537498Q230.26562 28.365623 229.79688 27.724998Q229.34375 27.068748 228.51562 27.068748Q227.6875 27.068748 227.23438 27.709373Q226.78125 28.349998 226.78125 29.709373ZM238.625 27.506248Q238.15625 27.443748 237.8125 27.443748Q236.53125 27.443748 236.125 28.318748L236.125 33.85L233.875 33.85L233.875 25.396873L236.0 25.396873L236.0625 26.396873Q236.75 25.240623 237.95312 25.240623Q238.32812 25.240623 238.65625 25.334373L238.625 27.506248ZM242.9375 30.459373L242.125 31.271873L242.125 33.85L239.875 33.85L239.875 21.849998L242.125 21.849998L242.125 28.490623L242.5625 27.928123L244.73438 25.396873L247.4375 25.396873L244.39062 28.912498L247.70312 33.85L245.10938 33.85L242.9375 30.459373ZM253.45312 31.506248Q253.45312 31.099998 253.03125 30.865623Q252.625 30.615623 251.71875 30.428123Q248.70312 29.803123 248.70312 27.865623Q248.70312 26.740623 249.64062 25.990623Q250.57812 25.240623 252.07812 25.240623Q253.6875 25.240623 254.65625 26.006248Q255.625 26.756248 255.625 27.959373L253.35938 27.959373Q253.35938 27.474998 253.04688 27.162498Q252.73438 26.849998 252.07812 26.849998Q251.5 26.849998 251.1875 27.115623Q250.875 27.365623 250.875 27.756248Q250.875 28.131248 251.23438 28.365623Q251.59375 28.599998 252.4375 28.771873Q253.28125 28.928123 253.85938 29.146873Q255.64062 29.803123 255.64062 31.412498Q255.64062 32.56875 254.64062 33.2875Q253.65625 34.00625 252.09375 34.00625Q251.03125 34.00625 250.20312 33.63125Q249.375 33.240623 248.90625 32.584373Q248.4375 31.928123 248.4375 31.162498L250.57812 31.162498Q250.60938 31.756248 251.01562 32.084373Q251.4375 32.396873 252.14062 32.396873Q252.78125 32.396873 253.10938 32.1625Q253.45312 31.912498 253.45312 31.506248ZM260.51562 29.537498Q260.51562 28.287498 261.0 27.303123Q261.48438 26.318748 262.39062 25.787498Q263.3125 25.240623 264.51562 25.240623Q266.21875 25.240623 267.29688 26.287498Q268.39062 27.334373 268.51562 29.131248L268.53125 29.709373Q268.53125 31.646873 267.4375 32.834373Q266.35938 34.00625 264.53125 34.00625Q262.70312 34.00625 261.60938 32.834373Q260.51562 31.662498 260.51562 29.646873L260.51562 29.537498ZM262.78125 29.709373Q262.78125 30.912498 263.23438 31.553123Q263.6875 32.178123 264.53125 32.178123Q265.34375 32.178123 265.79688 31.553123Q266.26562 30.928123 266.26562 29.537498Q266.26562 28.365623 265.79688 27.724998Q265.34375 27.068748 264.51562 27.068748Q263.6875 27.068748 263.23438 27.709373Q262.78125 28.349998 262.78125 29.709373ZM274.9375 32.990623Q274.09375 34.00625 272.625 34.00625Q271.26562 34.00625 270.54688 33.225Q269.82812 32.44375 269.8125 30.928123L269.8125 25.396873L272.07812 25.396873L272.07812 30.849998Q272.07812 32.178123 273.28125 32.178123Q274.42188 32.178123 274.85938 31.381248L274.85938 25.396873L277.125 25.396873L277.125 33.85L275.0 33.85L274.9375 32.990623ZM281.57812 23.318748L281.57812 25.396873L283.01562 25.396873L283.01562 27.053123L281.57812 27.053123L281.57812 31.271873Q281.57812 31.740623 281.75 31.943748Q281.9375 32.146873 282.4375 32.146873Q282.8125 32.146873 283.10938 32.084373L283.10938 33.803123Q282.4375 34.00625 281.73438 34.00625Q279.35938 34.00625 279.3125 31.599998L279.3125 27.053123L278.07812 27.053123L278.07812 25.396873L279.3125 25.396873L279.3125 23.318748L281.57812 23.318748ZM288.45312 31.506248Q288.45312 31.099998 288.03125 30.865623Q287.625 30.615623 286.71875 30.428123Q283.70312 29.803123 283.70312 27.865623Q283.70312 26.740623 284.64062 25.990623Q285.57812 25.240623 287.07812 25.240623Q288.6875 25.240623 289.65625 26.006248Q290.625 26.756248 290.625 27.959373L288.35938 27.959373Q288.35938 27.474998 288.04688 27.162498Q287.73438 26.849998 287.07812 26.849998Q286.5 26.849998 286.1875 27.115623Q285.875 27.365623 285.875 27.756248Q285.875 28.131248 286.23438 28.365623Q286.59375 28.599998 287.4375 28.771873Q288.28125 28.928123 288.85938 29.146873Q290.64062 29.803123 290.64062 31.412498Q290.64062 32.56875 289.64062 33.2875Q288.65625 34.00625 287.09375 34.00625Q286.03125 34.00625 285.20312 33.63125Q284.375 33.240623 283.90625 32.584373Q283.4375 31.928123 283.4375 31.162498L285.57812 31.162498Q285.60938 31.756248 286.01562 32.084373Q286.4375 32.396873 287.14062 32.396873Q287.78125 32.396873 288.10938 32.1625Q288.45312 31.912498 288.45312 31.506248ZM294.25 33.85L291.98438 33.85L291.98438 25.396873L294.25 25.396873L294.25 33.85ZM291.85938 23.209373Q291.85938 22.693748 292.1875 22.365623Q292.53125 22.037498 293.125 22.037498Q293.70312 22.037498 294.04688 22.365623Q294.39062 22.693748 294.39062 23.209373Q294.39062 23.724998 294.03125 24.053123Q293.6875 24.381248 293.10938 24.381248Q292.54688 24.381248 292.20312 24.053123Q291.85938 23.724998 291.85938 23.209373ZM295.51562 29.553123Q295.51562 27.584373 296.40625 26.412498Q297.29688 25.240623 298.82812 25.240623Q300.0625 25.240623 300.875 26.162498L300.875 21.849998L303.14062 21.849998L303.14062 33.85L301.09375 33.85L300.98438 32.94375Q300.14062 34.00625 298.8125 34.00625Q297.32812 34.00625 296.42188 32.834373Q295.51562 31.646873 295.51562 29.553123ZM297.78125 29.724998Q297.78125 30.912498 298.1875 31.553123Q298.60938 32.178123 299.39062 32.178123Q300.4375 32.178123 300.875 31.287498L300.875 27.959373Q300.45312 27.068748 299.40625 27.068748Q297.78125 27.068748 297.78125 29.724998ZM308.76562 34.00625Q306.90625 34.00625 305.73438 32.865623Q304.5625 31.724998 304.5625 29.818748L304.5625 29.599998Q304.5625 28.334373 305.04688 27.334373Q305.54688 26.318748 306.45312 25.787498Q307.35938 25.240623 308.51562 25.240623Q310.25 25.240623 311.23438 26.334373Q312.23438 27.428123 312.23438 29.428123L312.23438 30.349998L306.85938 30.349998Q306.96875 31.178123 307.51562 31.678123Q308.0625 32.178123 308.90625 32.178123Q310.21875 32.178123 310.95312 31.240623L312.0625 32.475Q311.54688 33.19375 310.67188 33.6Q309.8125 34.00625 308.76562 34.00625ZM308.5 27.068748Q307.82812 27.068748 307.40625 27.521873Q307.0 27.974998 306.875 28.818748L310.01562 28.818748L310.01562 28.631248Q310.0 27.881248 309.60938 27.474998Q309.21875 27.068748 308.5 27.068748ZM317.51562 29.537498Q317.51562 28.287498 318.0 27.303123Q318.48438 26.318748 319.39062 25.787498Q320.3125 25.240623 321.51562 25.240623Q323.21875 25.240623 324.29688 26.287498Q325.39062 27.334373 325.51562 29.131248L325.53125 29.709373Q325.53125 31.646873 324.4375 32.834373Q323.35938 34.00625 321.53125 34.00625Q319.70312 34.00625 318.60938 32.834373Q317.51562 31.662498 317.51562 29.646873L317.51562 29.537498ZM319.78125 29.709373Q319.78125 30.912498 320.23438 31.553123Q320.6875 32.178123 321.53125 32.178123Q322.34375 32.178123 322.79688 31.553123Q323.26562 30.928123 323.26562 29.537498Q323.26562 28.365623 322.79688 27.724998Q322.34375 27.068748 321.51562 27.068748Q320.6875 27.068748 320.23438 27.709373Q319.78125 28.349998 319.78125 29.709373ZM327.48438 33.85L327.48438 27.053123L326.23438 27.053123L326.23438 25.396873L327.48438 25.396873L327.48438 24.678123Q327.48438 23.256248 328.29688 22.474998Q329.125 21.678123 330.59375 21.678123Q331.0625 21.678123 331.73438 21.834373L331.71875 23.584373Q331.4375 23.521873 331.03125 23.521873Q329.75 23.521873 329.75 24.709373L329.75 25.396873L331.4375 25.396873L331.4375 27.053123L329.75 27.053123L329.75 33.85L327.48438 33.85ZM339.57812 23.318748L339.57812 25.396873L341.01562 25.396873L341.01562 27.053123L339.57812 27.053123L339.57812 31.271873Q339.57812 31.740623 339.75 31.943748Q339.9375 32.146873 340.4375 32.146873Q340.8125 32.146873 341.10938 32.084373L341.10938 33.803123Q340.4375 34.00625 339.73438 34.00625Q337.35938 34.00625 337.3125 31.599998L337.3125 27.053123L336.07812 27.053123L336.07812 25.396873L337.3125 25.396873L337.3125 23.318748L339.57812 23.318748ZM346.625 27.506248Q346.15625 27.443748 345.8125 27.443748Q344.53125 27.443748 344.125 28.318748L344.125 33.85L341.875 33.85L341.875 25.396873L344.0 25.396873L344.0625 26.396873Q344.75 25.240623 345.95312 25.240623Q346.32812 25.240623 346.65625 25.334373L346.625 27.506248ZM352.76562 33.85Q352.60938 33.5375 352.54688 33.084373Q351.71875 34.00625 350.40625 34.00625Q349.17188 34.00625 348.34375 33.2875Q347.53125 32.56875 347.53125 31.474998Q347.53125 30.131248 348.53125 29.412498Q349.53125 28.693748 351.40625 28.678123L352.45312 28.678123L352.45312 28.193748Q352.45312 27.615623 352.14062 27.271873Q351.84375 26.912498 351.20312 26.912498Q350.625 26.912498 350.29688 27.193748Q349.98438 27.459373 349.98438 27.928123L347.71875 27.928123Q347.71875 27.193748 348.17188 26.568748Q348.625 25.943748 349.45312 25.599998Q350.28125 25.240623 351.3125 25.240623Q352.875 25.240623 353.79688 26.021873Q354.71875 26.803123 354.71875 28.224998L354.71875 31.896873Q354.71875 33.1 355.04688 33.709373L355.04688 33.85L352.76562 33.85ZM350.90625 32.271873Q351.40625 32.271873 351.82812 32.053123Q352.25 31.834373 352.45312 31.459373L352.45312 30.006248L351.60938 30.006248Q349.90625 30.006248 349.79688 31.178123L349.79688 31.303123Q349.79688 31.724998 350.09375 32.00625Q350.39062 32.271873 350.90625 32.271873ZM356.51562 29.553123Q356.51562 27.584373 357.40625 26.412498Q358.29688 25.240623 359.82812 25.240623Q361.0625 25.240623 361.875 26.162498L361.875 21.849998L364.14062 21.849998L364.14062 33.85L362.09375 33.85L361.98438 32.94375Q361.14062 34.00625 359.8125 34.00625Q358.32812 34.00625 357.42188 32.834373Q356.51562 31.646873 356.51562 29.553123ZM358.78125 29.724998Q358.78125 30.912498 359.1875 31.553123Q359.60938 32.178123 360.39062 32.178123Q361.4375 32.178123 361.875 31.287498L361.875 27.959373Q361.45312 27.068748 360.40625 27.068748Q358.78125 27.068748 358.78125 29.724998ZM368.25 33.85L365.98438 33.85L365.98438 25.396873L368.25 25.396873L368.25 33.85ZM365.85938 23.209373Q365.85938 22.693748 366.1875 22.365623Q366.53125 22.037498 367.125 22.037498Q367.70312 22.037498 368.04688 22.365623Q368.39062 22.693748 368.39062 23.209373Q368.39062 23.724998 368.03125 24.053123Q367.6875 24.381248 367.10938 24.381248Q366.54688 24.381248 366.20312 24.053123Q365.85938 23.724998 365.85938 23.209373ZM372.57812 23.318748L372.57812 25.396873L374.01562 25.396873L374.01562 27.053123L372.57812 27.053123L372.57812 31.271873Q372.57812 31.740623 372.75 31.943748Q372.9375 32.146873 373.4375 32.146873Q373.8125 32.146873 374.10938 32.084373L374.10938 33.803123Q373.4375 34.00625 372.73438 34.00625Q370.35938 34.00625 370.3125 31.599998L370.3125 27.053123L369.07812 27.053123L369.07812 25.396873L370.3125 25.396873L370.3125 23.318748L372.57812 23.318748ZM377.25 33.85L374.98438 33.85L374.98438 25.396873L377.25 25.396873L377.25 33.85ZM374.85938 23.209373Q374.85938 22.693748 375.1875 22.365623Q375.53125 22.037498 376.125 22.037498Q376.70312 22.037498 377.04688 22.365623Q377.39062 22.693748 377.39062 23.209373Q377.39062 23.724998 377.03125 24.053123Q376.6875 24.381248 376.10938 24.381248Q375.54688 24.381248 375.20312 24.053123Q374.85938 23.724998 374.85938 23.209373ZM378.51562 29.537498Q378.51562 28.287498 379.0 27.303123Q379.48438 26.318748 380.39062 25.787498Q381.3125 25.240623 382.51562 25.240623Q384.21875 25.240623 385.29688 26.287498Q386.39062 27.334373 386.51562 29.131248L386.53125 29.709373Q386.53125 31.646873 385.4375 32.834373Q384.35938 34.00625 382.53125 34.00625Q380.70312 34.00625 379.60938 32.834373Q378.51562 31.662498 378.51562 29.646873L378.51562 29.537498ZM380.78125 29.709373Q380.78125 30.912498 381.23438 31.553123Q381.6875 32.178123 382.53125 32.178123Q383.34375 32.178123 383.79688 31.553123Q384.26562 30.928123 384.26562 29.537498Q384.26562 28.365623 383.79688 27.724998Q383.34375 27.068748 382.51562 27.068748Q381.6875 27.068748 381.23438 27.709373Q380.78125 28.349998 380.78125 29.709373ZM389.95312 25.396873L390.01562 26.365623Q390.92188 25.240623 392.45312 25.240623Q393.79688 25.240623 394.45312 26.037498Q395.10938 26.818748 395.125 28.381248L395.125 33.85L392.85938 33.85L392.85938 28.443748Q392.85938 27.724998 392.54688 27.396873Q392.23438 27.068748 391.51562 27.068748Q390.5625 27.068748 390.07812 27.881248L390.07812 33.85L387.82812 33.85L387.82812 25.396873L389.95312 25.396873ZM401.76562 33.85Q401.60938 33.5375 401.54688 33.084373Q400.71875 34.00625 399.40625 34.00625Q398.17188 34.00625 397.34375 33.2875Q396.53125 32.56875 396.53125 31.474998Q396.53125 30.131248 397.53125 29.412498Q398.53125 28.693748 400.40625 28.678123L401.45312 28.678123L401.45312 28.193748Q401.45312 27.615623 401.14062 27.271873Q400.84375 26.912498 400.20312 26.912498Q399.625 26.912498 399.29688 27.193748Q398.98438 27.459373 398.98438 27.928123L396.71875 27.928123Q396.71875 27.193748 397.17188 26.568748Q397.625 25.943748 398.45312 25.599998Q399.28125 25.240623 400.3125 25.240623Q401.875 25.240623 402.79688 26.021873Q403.71875 26.803123 403.71875 28.224998L403.71875 31.896873Q403.71875 33.1 404.04688 33.709373L404.04688 33.85L401.76562 33.85ZM399.90625 32.271873Q400.40625 32.271873 400.82812 32.053123Q401.25 31.834373 401.45312 31.459373L401.45312 30.006248L400.60938 30.006248Q398.90625 30.006248 398.79688 31.178123L398.79688 31.303123Q398.79688 31.724998 399.09375 32.00625Q399.39062 32.271873 399.90625 32.271873ZM408.25 33.85L405.98438 33.85L405.98438 21.849998L408.25 21.849998L408.25 33.85ZM416.51562 33.85L414.17188 33.85L414.17188 22.474998L416.51562 22.474998L416.51562 33.85ZM420.95312 25.396873L421.01562 26.365623Q421.92188 25.240623 423.45312 25.240623Q424.79688 25.240623 425.45312 26.037498Q426.10938 26.818748 426.125 28.381248L426.125 33.85L423.85938 33.85L423.85938 28.443748Q423.85938 27.724998 423.54688 27.396873Q423.23438 27.068748 422.51562 27.068748Q421.5625 27.068748 421.07812 27.881248L421.07812 33.85L418.82812 33.85L418.82812 25.396873L420.95312 25.396873ZM427.51562 29.553123Q427.51562 27.584373 428.40625 26.412498Q429.29688 25.240623 430.82812 25.240623Q432.0625 25.240623 432.875 26.162498L432.875 21.849998L435.14062 21.849998L435.14062 33.85L433.09375 33.85L432.98438 32.94375Q432.14062 34.00625 430.8125 34.00625Q429.32812 34.00625 428.42188 32.834373Q427.51562 31.646873 427.51562 29.553123ZM429.78125 29.724998Q429.78125 30.912498 430.1875 31.553123Q430.60938 32.178123 431.39062 32.178123Q432.4375 32.178123 432.875 31.287498L432.875 27.959373Q432.45312 27.068748 431.40625 27.068748Q429.78125 27.068748 429.78125 29.724998ZM439.25 33.85L436.98438 33.85L436.98438 25.396873L439.25 25.396873L439.25 33.85ZM436.85938 23.209373Q436.85938 22.693748 437.1875 22.365623Q437.53125 22.037498 438.125 22.037498Q438.70312 22.037498 439.04688 22.365623Q439.39062 22.693748 439.39062 23.209373Q439.39062 23.724998 439.03125 24.053123Q438.6875 24.381248 438.10938 24.381248Q437.54688 24.381248 437.20312 24.053123Q436.85938 23.724998 436.85938 23.209373ZM440.54688 29.553123Q440.54688 27.615623 441.46875 26.428123Q442.39062 25.240623 443.96875 25.240623Q445.35938 25.240623 446.125 26.193748L446.21875 25.396873L448.26562 25.396873L448.26562 33.56875Q448.26562 34.678123 447.76562 35.490623Q447.26562 36.31875 446.34375 36.740623Q445.4375 37.178123 444.20312 37.178123Q443.28125 37.178123 442.39062 36.803123Q441.51562 36.44375 441.0625 35.85L442.0625 34.475Q442.90625 35.428123 444.10938 35.428123Q445.0 35.428123 445.5 34.94375Q446.0 34.459373 446.0 33.56875L446.0 33.115623Q445.21875 34.00625 443.95312 34.00625Q442.42188 34.00625 441.48438 32.81875Q440.54688 31.615623 440.54688 29.646873L440.54688 29.553123ZM442.79688 29.724998Q442.79688 30.865623 443.25 31.521873Q443.71875 32.178123 444.53125 32.178123Q445.5625 32.178123 446.0 31.396873L446.0 27.849998Q445.54688 27.068748 444.54688 27.068748Q443.73438 27.068748 443.26562 27.740623Q442.79688 28.396873 442.79688 29.724998ZM453.76562 34.00625Q451.90625 34.00625 450.73438 32.865623Q449.5625 31.724998 449.5625 29.818748L449.5625 29.599998Q449.5625 28.334373 450.04688 27.334373Q450.54688 26.318748 451.45312 25.787498Q452.35938 25.240623 453.51562 25.240623Q455.25 25.240623 456.23438 26.334373Q457.23438 27.428123 457.23438 29.428123L457.23438 30.349998L451.85938 30.349998Q451.96875 31.178123 452.51562 31.678123Q453.0625 32.178123 453.90625 32.178123Q455.21875 32.178123 455.95312 31.240623L457.0625 32.475Q456.54688 33.19375 455.67188 33.6Q454.8125 34.00625 453.76562 34.00625ZM453.5 27.068748Q452.82812 27.068748 452.40625 27.521873Q452.0 27.974998 451.875 28.818748L455.01562 28.818748L455.01562 28.631248Q455.0 27.881248 454.60938 27.474998Q454.21875 27.068748 453.5 27.068748ZM460.95312 25.396873L461.01562 26.365623Q461.92188 25.240623 463.45312 25.240623Q464.79688 25.240623 465.45312 26.037498Q466.10938 26.818748 466.125 28.381248L466.125 33.85L463.85938 33.85L463.85938 28.443748Q463.85938 27.724998 463.54688 27.396873Q463.23438 27.068748 462.51562 27.068748Q461.5625 27.068748 461.07812 27.881248L461.07812 33.85L458.82812 33.85L458.82812 25.396873L460.95312 25.396873ZM467.51562 29.537498Q467.51562 28.287498 468.0 27.303123Q468.48438 26.318748 469.39062 25.787498Q470.3125 25.240623 471.51562 25.240623Q473.21875 25.240623 474.29688 26.287498Q475.39062 27.334373 475.51562 29.131248L475.53125 29.709373Q475.53125 31.646873 474.4375 32.834373Q473.35938 34.00625 471.53125 34.00625Q469.70312 34.00625 468.60938 32.834373Q467.51562 31.662498 467.51562 29.646873L467.51562 29.537498ZM469.78125 29.709373Q469.78125 30.912498 470.23438 31.553123Q470.6875 32.178123 471.53125 32.178123Q472.34375 32.178123 472.79688 31.553123Q473.26562 30.928123 473.26562 29.537498Q473.26562 28.365623 472.79688 27.724998Q472.34375 27.068748 471.51562 27.068748Q470.6875 27.068748 470.23438 27.709373Q469.78125 28.349998 469.78125 29.709373ZM481.9375 32.990623Q481.09375 34.00625 479.625 34.00625Q478.26562 34.00625 477.54688 33.225Q476.82812 32.44375 476.8125 30.928123L476.8125 25.396873L479.07812 25.396873L479.07812 30.849998Q479.07812 32.178123 480.28125 32.178123Q481.42188 32.178123 481.85938 31.381248L481.85938 25.396873L484.125 25.396873L484.125 33.85L482.0 33.85L481.9375 32.990623ZM490.45312 31.506248Q490.45312 31.099998 490.03125 30.865623Q489.625 30.615623 488.71875 30.428123Q485.70312 29.803123 485.70312 27.865623Q485.70312 26.740623 486.64062 25.990623Q487.57812 25.240623 489.07812 25.240623Q490.6875 25.240623 491.65625 26.006248Q492.625 26.756248 492.625 27.959373L490.35938 27.959373Q490.35938 27.474998 490.04688 27.162498Q489.73438 26.849998 489.07812 26.849998Q488.5 26.849998 488.1875 27.115623Q487.875 27.365623 487.875 27.756248Q487.875 28.131248 488.23438 28.365623Q488.59375 28.599998 489.4375 28.771873Q490.28125 28.928123 490.85938 29.146873Q492.64062 29.803123 492.64062 31.412498Q492.64062 32.56875 491.64062 33.2875Q490.65625 34.00625 489.09375 34.00625Q488.03125 34.00625 487.20312 33.63125Q486.375 33.240623 485.90625 32.584373Q485.4375 31.928123 485.4375 31.162498L487.57812 31.162498Q487.60938 31.756248 488.01562 32.084373Q488.4375 32.396873 489.14062 32.396873Q489.78125 32.396873 490.10938 32.1625Q490.45312 31.912498 490.45312 31.506248Z" fill-rule="nonzero"/><path fill="#757575" d="M235.26562 52.85Q235.10938 52.5375 235.04688 52.084373Q234.21875 53.00625 232.90625 53.00625Q231.67188 53.00625 230.84375 52.2875Q230.03125 51.56875 230.03125 50.475Q230.03125 49.13125 231.03125 48.4125Q232.03125 47.69375 233.90625 47.678123L234.95312 47.678123L234.95312 47.19375Q234.95312 46.615623 234.64062 46.271873Q234.34375 45.9125 233.70312 45.9125Q233.125 45.9125 232.79688 46.19375Q232.48438 46.459373 232.48438 46.928123L230.21875 46.928123Q230.21875 46.19375 230.67188 45.56875Q231.125 44.94375 231.95312 44.6Q232.78125 44.240623 233.8125 44.240623Q235.375 44.240623 236.29688 45.021873Q237.21875 45.803123 237.21875 47.225L237.21875 50.896873Q237.21875 52.1 237.54688 52.709373L237.54688 52.85L235.26562 52.85ZM233.40625 51.271873Q233.90625 51.271873 234.32812 51.053123Q234.75 50.834373 234.95312 50.459373L234.95312 49.00625L234.10938 49.00625Q232.40625 49.00625 232.29688 50.178123L232.29688 50.303123Q232.29688 50.725 232.59375 51.00625Q232.89062 51.271873 233.40625 51.271873ZM244.125 46.50625Q243.65625 46.44375 243.3125 46.44375Q242.03125 46.44375 241.625 47.31875L241.625 52.85L239.375 52.85L239.375 44.396873L241.5 44.396873L241.5625 45.396873Q242.25 44.240623 243.45312 44.240623Q243.82812 44.240623 244.15625 44.334373L244.125 46.50625ZM248.07812 42.31875L248.07812 44.396873L249.51562 44.396873L249.51562 46.053123L248.07812 46.053123L248.07812 50.271873Q248.07812 50.740623 248.25 50.94375Q248.4375 51.146873 248.9375 51.146873Q249.3125 51.146873 249.60938 51.084373L249.60938 52.803123Q248.9375 53.00625 248.23438 53.00625Q245.85938 53.00625 245.8125 50.6L245.8125 46.053123L244.57812 46.053123L244.57812 44.396873L245.8125 44.396873L245.8125 42.31875L248.07812 42.31875ZM257.71875 49.771873L258.82812 44.396873L261.01562 44.396873L258.85938 52.85L256.96875 52.85L255.35938 47.521873L253.76562 52.85L251.875 52.85L249.71875 44.396873L251.90625 44.396873L253.0 49.771873L254.54688 44.396873L256.1875 44.396873L257.71875 49.771873ZM262.01562 48.5375Q262.01562 47.2875 262.5 46.303123Q262.98438 45.31875 263.89062 44.7875Q264.8125 44.240623 266.01562 44.240623Q267.71875 44.240623 268.79688 45.2875Q269.89062 46.334373 270.01562 48.13125L270.03125 48.709373Q270.03125 50.646873 268.9375 51.834373Q267.85938 53.00625 266.03125 53.00625Q264.20312 53.00625 263.10938 51.834373Q262.01562 50.6625 262.01562 48.646873L262.01562 48.5375ZM264.28125 48.709373Q264.28125 49.9125 264.73438 50.553123Q265.1875 51.178123 266.03125 51.178123Q266.84375 51.178123 267.29688 50.553123Q267.76562 49.928123 267.76562 48.5375Q267.76562 47.365623 267.29688 46.725Q266.84375 46.06875 266.01562 46.06875Q265.1875 46.06875 264.73438 46.709373Q264.28125 47.35 264.28125 48.709373ZM276.125 46.50625Q275.65625 46.44375 275.3125 46.44375Q274.03125 46.44375 273.625 47.31875L273.625 52.85L271.375 52.85L271.375 44.396873L273.5 44.396873L273.5625 45.396873Q274.25 44.240623 275.45312 44.240623Q275.82812 44.240623 276.15625 44.334373L276.125 46.50625ZM280.4375 49.459373L279.625 50.271873L279.625 52.85L277.375 52.85L277.375 40.85L279.625 40.85L279.625 47.490623L280.0625 46.928123L282.23438 44.396873L284.9375 44.396873L281.89062 47.9125L285.20312 52.85L282.60938 52.85L280.4375 49.459373ZM290.95312 50.50625Q290.95312 50.1 290.53125 49.865623Q290.125 49.615623 289.21875 49.428123Q286.20312 48.803123 286.20312 46.865623Q286.20312 45.740623 287.14062 44.990623Q288.07812 44.240623 289.57812 44.240623Q291.1875 44.240623 292.15625 45.00625Q293.125 45.75625 293.125 46.959373L290.85938 46.959373Q290.85938 46.475 290.54688 46.1625Q290.23438 45.85 289.57812 45.85Q289.0 45.85 288.6875 46.115623Q288.375 46.365623 288.375 46.75625Q288.375 47.13125 288.73438 47.365623Q289.09375 47.6 289.9375 47.771873Q290.78125 47.928123 291.35938 48.146873Q293.14062 48.803123 293.14062 50.4125Q293.14062 51.56875 292.14062 52.2875Q291.15625 53.00625 289.59375 53.00625Q288.53125 53.00625 287.70312 52.63125Q286.875 52.240623 286.40625 51.584373Q285.9375 50.928123 285.9375 50.1625L288.07812 50.1625Q288.10938 50.75625 288.51562 51.084373Q288.9375 51.396873 289.64062 51.396873Q290.28125 51.396873 290.60938 51.1625Q290.95312 50.9125 290.95312 50.50625ZM296.21875 49.35Q296.21875 48.25625 296.48438 47.615623Q296.75 46.959373 297.45312 46.334373Q298.15625 45.709373 298.39062 45.31875Q298.625 44.9125 298.625 44.475Q298.625 43.1625 297.40625 43.1625Q296.82812 43.1625 296.48438 43.521873Q296.14062 43.865623 296.125 44.490623L293.85938 44.490623Q293.875 43.00625 294.8125 42.1625Q295.76562 41.31875 297.40625 41.31875Q299.0625 41.31875 299.96875 42.115623Q300.89062 42.9125 300.89062 44.38125Q300.89062 45.0375 300.59375 45.63125Q300.29688 46.225 299.5625 46.94375L298.92188 47.5375Q298.32812 48.115623 298.25 48.88125L298.21875 49.35L296.21875 49.35ZM295.98438 51.75625Q295.98438 51.225 296.34375 50.896873Q296.70312 50.553123 297.25 50.553123Q297.8125 50.553123 298.15625 50.896873Q298.51562 51.225 298.51562 51.75625Q298.51562 52.271873 298.17188 52.615623Q297.82812 52.94375 297.25 52.94375Q296.6875 52.94375 296.32812 52.615623Q295.98438 52.271873 295.98438 51.75625Z" fill-rule="nonzero"/></svg>